<svg width="44" height="44" fill="none" xmlns="http://www.w3.org/2000/svg"><path d="M23.534 20.466l2.39-2.39-.875-3.263m-1.515 5.653l-3.263-.875-.875-3.263 2.39-2.39 3.263.875m-1.515 5.653l.875 3.263 3.263.875 2.39-2.39-.875-3.263m-5.653 1.515l2.39-2.39 3.263.875m-4.138-4.138l2.389-2.39 3.264.875.874 3.264-2.389 2.39m-9.861 8.481l-9.692 9.692-2.759-2.759 9.692-9.692m-6.933 6.934l2.758 2.758m21.992-8.198c-4.57 4.57-11.981 4.57-16.552 0-4.57-4.57-4.57-11.981 0-16.552s11.982-4.571 16.552 0c4.571 4.57 4.571 11.981 0 16.552z" stroke="#1D4ED8" stroke-width="2" stroke-miterlimit="10" stroke-linecap="round"/></svg>