<svg width="44" height="44" fill="none" xmlns="http://www.w3.org/2000/svg"><path d="M29.798 26.165a1 1 0 10-1.296-1.524l1.296 1.524zm-2.02.404l.631.777a.866.866 0 00.018-.015l-.648-.762zm-10.87 0l.63-.776-.63.776zm-8.122-6.592l-.63.777.63-.777zm0-8.02l-.63-.776.63.776zm8.123-6.592l.63.777-.63-.777zm10.87 0l-.63.777.63-.777zm8.123 6.592l.63-.776-.63.776zm.757 5.134a1 1 0 101.927.536l-1.927-.536zm-21.524-.118a1 1 0 101.269 1.546l-1.269-1.546zm1.774-.161l-.63-.777-.005.004.635.773zm10.87 0l-.63.776.63-.776zm8.123 6.592l.63-.776-.63.776zm0 8.02l.63.776-.63-.776zm-8.123 6.592l-.63-.776.63.776zm-10.87 0l.63-.776-.63.776zm-8.123-6.592l-.63.776.63-.776zm-.844-4.76a1 1 0 00-1.968-.356l1.968.356zm20.56-2.023l-1.371 1.167 1.296 1.523 1.37-1.166-1.295-1.524zm-1.353 1.152a7.627 7.627 0 01-9.61 0l-1.26 1.553a9.627 9.627 0 0012.13 0l-1.26-1.553zm-9.61 0L9.416 19.2l-1.26 1.553 8.122 6.592 1.26-1.553zM9.416 19.2a4.163 4.163 0 010-6.467l-1.26-1.553c-3.041 2.468-3.041 7.105 0 9.573l1.26-1.553zm0-6.467l8.123-6.592-1.26-1.553-8.123 6.592 1.26 1.553zm8.123-6.592a7.627 7.627 0 019.61 0l1.26-1.553a9.627 9.627 0 00-12.13 0l1.26 1.553zm9.61 0l8.123 6.592 1.26-1.553-8.123-6.592-1.26 1.553zm8.123 6.592a4.159 4.159 0 011.387 4.357l1.927.536a6.16 6.16 0 00-2.054-6.446l-1.26 1.553zm-18.868 5.785l1.139-.934-1.269-1.546-1.139.934 1.269 1.546zm1.135-.93a7.627 7.627 0 019.61 0l1.26-1.554a9.627 9.627 0 00-12.13 0l1.26 1.553zm9.61 0l8.123 6.592 1.26-1.553-8.123-6.593-1.26 1.553zm8.123 6.591a4.163 4.163 0 010 6.468l1.26 1.552c3.04-2.467 3.04-7.105 0-9.572l-1.26 1.552zm0 6.468l-8.123 6.592 1.26 1.553 8.123-6.593-1.26-1.553zm-8.123 6.592a7.627 7.627 0 01-9.61 0l-1.26 1.553a9.627 9.627 0 0012.13 0l-1.26-1.553zm-9.61 0l-8.123-6.593-1.26 1.553 8.122 6.593 1.26-1.553zm-8.123-6.592a4.153 4.153 0 01-1.474-3.984l-1.968-.356A6.153 6.153 0 008.156 32.2l1.26-1.552z" fill="#1D4ED8"/></svg>