<svg width="44" height="44" fill="none" xmlns="http://www.w3.org/2000/svg"><path d="M29.968 10.039s1.234 1.415 3.04 2.284c1.557.751 3.723.974 3.723.974s1.115 9.335-6.763 13.828c-7.878-4.493-6.763-13.828-6.763-13.828s2.165-.223 3.723-.974c1.805-.87 3.04-2.284 3.04-2.284zm0 0V6.188H6.875v30.937h16.941V30.97h6.152v-3.845m-2.46-8.814l2.365 2.365 3.61-4.189M29.968 30.97l-6.152 6.155M14.573 13.89h-3.85v-3.851h3.85v3.85zm0 7.702h-3.85v-3.851h3.85v3.851zm0 7.702h-3.85v-3.85h3.85v3.85z" stroke="#1D4ED8" stroke-width="2" stroke-miterlimit="10" stroke-linecap="round" stroke-linejoin="round"/></svg>