<svg width="45" height="44" fill="none" xmlns="http://www.w3.org/2000/svg"><path d="M18.1 5.846a3.217 3.217 0 003.227 3.207h3.226a3.217 3.217 0 003.227-3.207 3.217 3.217 0 00-3.227-3.206h-3.226A3.217 3.217 0 0018.1 5.846zm0 0h-6.453A3.217 3.217 0 008.42 9.053v28.22a3.217 3.217 0 003.227 3.207h22.586a3.217 3.217 0 003.227-3.207V9.053a3.217 3.217 0 00-3.227-3.207" stroke="#1D4ED8" stroke-width="1.5" stroke-miterlimit="10" stroke-linecap="round" stroke-linejoin="round"/><path d="M21.327 18.033h9.68m-9.68 6.414h9.68m-9.68 6.413h9.68m-14.52-12.827a1.61 1.61 0 01-1.614 1.604 1.608 1.608 0 01-1.613-1.604c0-.886.722-1.603 1.613-1.603s1.614.718 1.614 1.603zm0 6.414c0 .885-.723 1.603-1.614 1.603a1.608 1.608 0 01-1.613-1.603c0-.886.722-1.604 1.613-1.604s1.614.718 1.614 1.604zm0 6.413a1.61 1.61 0 01-1.614 1.604 1.608 1.608 0 01-1.613-1.604c0-.885.722-1.603 1.613-1.603s1.614.718 1.614 1.603z" stroke="#0F1015" stroke-width="1.5" stroke-miterlimit="10" stroke-linecap="round" stroke-linejoin="round"/></svg>