<svg width="44" height="44" fill="none" xmlns="http://www.w3.org/2000/svg"><path d="M17.157 12.823H11.17m5.987 4.054H11.17m5.987 4.053H11.17m5.987 4.053H11.17m5.987 4.122H11.17m15.344-16.282h-5.987m5.987 4.054h-5.987m2.883 4.053h-2.883m10.117 2.976l-.132-.002c-4.047 0-7.329 3.317-7.329 7.408 0 1.673.55 3.216 1.474 4.456h-14.58c-1.677 0-3.037-1.374-3.037-3.068V9.228c0-1.694 1.36-3.068 3.037-3.068h17.53c1.677 0 3.037 1.374 3.037 3.068v14.678z" stroke="#1D4ED8" stroke-width="1.5" stroke-miterlimit="10" stroke-linecap="round" stroke-linejoin="round"/><path d="M33.289 29.31l-3.181 4.005-2.373-1.736m2.909-7.673l-.132-.002c-4.047 0-7.329 3.317-7.329 7.408a7.43 7.43 0 001.474 4.455 7.29 7.29 0 005.855 2.953c4.047 0 7.328-3.317 7.328-7.408 0-4.047-3.21-7.335-7.196-7.406z" stroke="#0F1015" stroke-width="1.5" stroke-miterlimit="10" stroke-linecap="round" stroke-linejoin="round"/></svg>