<svg width="45" height="44" fill="none" xmlns="http://www.w3.org/2000/svg"><path d="M28.226 34.096h6.639a6.115 6.115 0 006.115-6.115V9.635a6.115 6.115 0 00-6.115-6.115h-12.23a6.115 6.115 0 00-6.116 6.115m18.346 0l-6.116 6.115m6.116 6.115h-6.116m6.116 6.116h-6.116m0-16.817a1.529 1.529 0 110-3.058 1.529 1.529 0 010 3.058zm6.116 6.115a1.529 1.529 0 110-3.058 1.529 1.529 0 010 3.058z" stroke="#1D4ED8" stroke-width="1.5" stroke-miterlimit="10" stroke-linecap="round" stroke-linejoin="round"/><path d="M17.13 21.254h-6.115m6.116 7.644a1.529 1.529 0 100-3.057 1.529 1.529 0 000 3.057zm0 6.115a1.529 1.529 0 100-3.057 1.529 1.529 0 000 3.057zm-6.116-6.115a1.529 1.529 0 100-3.058 1.529 1.529 0 000 3.058zm0 6.115a1.529 1.529 0 100-3.057 1.529 1.529 0 000 3.057zm0 4.587h6.116a6.115 6.115 0 006.115-6.116v-12.23a6.115 6.115 0 00-6.115-6.115h-6.116A6.115 6.115 0 004.9 21.254v12.23a6.115 6.115 0 006.115 6.116z" stroke="#0F1015" stroke-width="1.5" stroke-miterlimit="10" stroke-linecap="round" stroke-linejoin="round"/></svg>