<svg width="44" height="44" fill="none" xmlns="http://www.w3.org/2000/svg"><path d="M22.009 29.644h-1.72m10.567-8.341H20.288m10.568-7.881H20.288m-4.915 16.222h-1.229m1.229-8.341h-1.229m1.229-7.881h-1.229M24.344 37H11.685C9.65 37 8 35.236 8 33.06V9.94C8 7.765 9.65 6 11.686 6h21.628C35.349 6 37 7.764 37 9.94v13.005" stroke="#1D4ED8" stroke-width="1.5" stroke-miterlimit="10" stroke-linecap="round" stroke-linejoin="round"/><path d="M35.125 34.776l2.887 2.836M31.7 26.6c-2.596 0-4.7 2.066-4.7 4.615 0 2.55 2.104 4.616 4.7 4.616s4.7-2.066 4.7-4.616c0-2.549-2.104-4.615-4.7-4.615z" stroke="#0F1015" stroke-width="1.5" stroke-miterlimit="10" stroke-linecap="round" stroke-linejoin="round"/></svg>