<svg width="320" height="416" fill="none" xmlns="http://www.w3.org/2000/svg"><g opacity=".05" clip-path="url(#clip0_62_5087)"><path fill="#fff" d="M738.723 0H-81v416h819.723z"/><path fill-rule="evenodd" clip-rule="evenodd" d="M643.288 367.568C610.806 210.053 487.971 86.886 330.659 54.096 173.347 21.306 11.602 85.152-81 216.594v-33.348C3.35 60.387 146.137-8.898 294.745.921c148.607 9.819 281.056 97.283 348.543 230.172v136.475z" fill="url(#paint0_linear_62_5087)"/><path fill-rule="evenodd" clip-rule="evenodd" d="M330.659 54.096c157.312 32.79 280.147 155.957 312.629 313.472H528.45c-32.207-128.441-134.427-227.473-263.73-255.504C135.417 84.033 1.424 131.851-81 235.443v-18.849C11.602 85.152 173.347 21.305 330.66 54.096z" fill="url(#paint1_linear_62_5087)"/><path fill-rule="evenodd" clip-rule="evenodd" d="M264.72 112.064c129.304 28.031 231.523 127.063 263.73 255.504H389.677c-13.999-100.823-86.983-184.912-186.95-211.724C93.601 126.578-21.768 172.507-81 268.791v-33.348C1.424 131.851 135.417 84.031 264.72 112.064z" fill="url(#paint2_linear_62_5087)"/><path fill-rule="evenodd" clip-rule="evenodd" d="M202.721 155.844c99.967 26.812 172.951 110.901 186.95 211.724H281.144c-16.08-80.181-80.225-141.932-160.899-154.893C39.571 199.714-40.659 238.27-81 309.384v-40.598c59.232-96.284 174.6-142.211 283.72-112.948" fill="url(#paint3_linear_62_5087)"/><path fill-rule="evenodd" clip-rule="evenodd" d="M120.245 212.675c80.674 12.96 144.82 74.711 160.899 154.893H169.929c-13.697-55.435-61.242-95.917-118.106-100.558-56.864-4.641-110.333 27.595-132.822 80.076v-37.698c40.34-71.118 120.572-109.674 201.244-96.709" fill="url(#paint4_linear_62_5087)"/></g><defs><linearGradient id="paint0_linear_62_5087" x1="-127.137" y1="183.849" x2="870.061" y2="384.016" gradientUnits="userSpaceOnUse"><stop stop-color="#0052CC" stop-opacity="0"/><stop offset="1" stop-color="#0052CC"/></linearGradient><linearGradient id="paint1_linear_62_5087" x1="-127.137" y1="206.643" x2="482.416" y2="237.862" gradientUnits="userSpaceOnUse"><stop stop-color="#fff" stop-opacity=".3"/><stop offset=".24" stop-color="#0052CC" stop-opacity=".3"/><stop offset="1" stop-color="#0052CC" stop-opacity="0"/></linearGradient><linearGradient id="paint2_linear_62_5087" x1="-59.304" y1="33.586" x2="793.493" y2="569.115" gradientUnits="userSpaceOnUse"><stop offset="0" stop-color="#0052CC" stop-opacity="0"/><stop offset=".323" stop-color="#0052CC" stop-opacity=".73"/><stop offset=".41" stop-color="#fff" stop-opacity=".781"/><stop offset="1" stop-color="#0052CC"/></linearGradient><linearGradient id="paint3_linear_62_5087" x1="-110.982" y1="257.375" x2="283.11" y2="310.072" gradientUnits="userSpaceOnUse"><stop stop-color="#fff" stop-opacity=".3"/><stop offset=".328" stop-color="#0052CC" stop-opacity=".256"/><stop offset="1" stop-color="#0052CC" stop-opacity="0"/></linearGradient><linearGradient id="paint4_linear_62_5087" x1="-23.208" y1="171.329" x2="199.21" y2="326.559" gradientUnits="userSpaceOnUse"><stop stop-color="#0052CC" stop-opacity="0"/><stop offset=".44" stop-color="#0052CC"/><stop offset="1" stop-color="#7EA9EA" stop-opacity=".14"/></linearGradient><clipPath id="clip0_62_5087"><path fill="#fff" transform="matrix(-1 0 0 1 738.723 0)" d="M0 0h819.723v416H0z"/></clipPath></defs></svg>