<svg width="1625" height="881" fill="none" xmlns="http://www.w3.org/2000/svg"><g opacity=".05" clip-path="url(#clip0_2_983)"><path fill="#fff" d="M1736 0H0v881h1736z"/><path fill-rule="evenodd" clip-rule="evenodd" d="M1736 881c-77.85-377.536-372.27-672.748-749.32-751.34C609.628 51.068 221.951 204.095 0 519.14v-79.929C202.171 144.739 544.41-21.327 900.599 2.207 1256.79 25.74 1574.25 235.379 1736 553.892V881z" fill="url(#paint0_linear_2_983)"/><path fill-rule="evenodd" clip-rule="evenodd" d="M986.68 129.66C1363.73 208.252 1658.15 503.464 1736 881h-275.25c-77.19-307.851-322.2-545.215-632.116-612.401C518.717 201.413 197.557 316.025 0 564.318V519.14C221.951 204.095 609.628 51.065 986.68 129.66z" fill="url(#paint1_linear_2_983)"/><path fill-rule="evenodd" clip-rule="evenodd" d="M828.634 268.599C1138.56 335.785 1383.56 573.149 1460.75 881h-332.61c-33.56-241.656-208.487-443.204-448.093-507.467C418.49 303.386 141.97 413.47 0 644.248v-79.93c197.557-248.293 518.717-362.909 828.634-295.719z" fill="url(#paint2_linear_2_983)"/><path fill-rule="evenodd" clip-rule="evenodd" d="M680.033 373.533C919.639 437.796 1094.57 639.344 1128.12 881H868c-38.539-192.179-192.286-340.188-385.649-371.253C288.989 478.682 96.691 571.095.001 741.543v-97.305C141.97 413.459 418.49 303.379 680.032 373.519" fill="url(#paint3_linear_2_983)"/><path fill-rule="evenodd" clip-rule="evenodd" d="M482.351 509.747C675.714 540.812 829.461 688.818 868 881H601.434c-32.828-132.868-146.786-229.895-283.079-241.02C182.061 628.856 53.903 706.121 0 831.909v-90.355c96.692-170.459 288.992-262.872 482.351-231.797" fill="url(#paint4_linear_2_983)"/></g><defs><linearGradient id="paint0_linear_2_983" x1="-110.583" y1="440.656" x2="2279.54" y2="920.425" gradientUnits="userSpaceOnUse"><stop stop-color="#0052CC" stop-opacity="0"/><stop offset="1" stop-color="#0052CC"/></linearGradient><linearGradient id="paint1_linear_2_983" x1="-110.583" y1="495.289" x2="1350.42" y2="570.117" gradientUnits="userSpaceOnUse"><stop stop-color="#fff" stop-opacity=".3"/><stop offset=".24" stop-color="#0052CC" stop-opacity=".3"/><stop offset="1" stop-color="#0052CC" stop-opacity="0"/></linearGradient><linearGradient id="paint2_linear_2_983" x1="52" y1="80.5" x2="2096.02" y2="1364.08" gradientUnits="userSpaceOnUse"><stop offset="0" stop-color="#0052CC" stop-opacity="0"/><stop offset=".569" stop-color="#0052CC" stop-opacity=".736"/><stop offset=".652" stop-color="#fff" stop-opacity=".781"/><stop offset="1" stop-color="#0052CC"/></linearGradient><linearGradient id="paint3_linear_2_983" x1="-71.861" y1="616.886" x2="877.802" y2="663.045" gradientUnits="userSpaceOnUse"><stop stop-color="#fff" stop-opacity=".3"/><stop offset=".328" stop-color="#0052CC" stop-opacity=".256"/><stop offset="1" stop-color="#0052CC" stop-opacity="0"/></linearGradient><linearGradient id="paint4_linear_2_983" x1="193" y1="521" x2="629.616" y2="644.998" gradientUnits="userSpaceOnUse"><stop stop-color="#0052CC" stop-opacity="0"/><stop offset="1" stop-color="#0052CC"/></linearGradient><clipPath id="clip0_2_983"><path fill="#fff" transform="matrix(-1 0 0 1 1736 0)" d="M0 0h1736v881H0z"/></clipPath></defs></svg>