<svg width="109" height="181" fill="none" xmlns="http://www.w3.org/2000/svg"><g opacity=".16" clip-path="url(#clip0_365_9498)"><path d="M181.474 133.546l-9.888-5.682-56.382-97.308c-1.683-2.904-4.46-4.504-6.143-3.536l-3.366 1.937c-1.683.968-1.683 4.208 0 7.028l46.915 80.894L34.418 48.612l46.873-26.726c1.683-.968 1.683-4.21 0-7.029l-3.366-5.808c-1.683-2.904-4.418-4.504-6.143-3.536L15.442 37.88l-9.93-5.934C2.482 30.177 0 31.608 0 35.102v13.93a12.208 12.208 0 005.512 9.513l6.774 3.914 16.157 94.952a20.752 20.752 0 009.046 13.636l112.007 64.648c4.208 2.525 8.163 1.221 9.089-3.157l16.115-76.306 6.774 3.914c3.071 1.768 5.512.337 5.512-3.156V143.1a12.167 12.167 0 00-5.512-9.554zM57.097 163.892c0 2.568-1.81 3.578-4.207 2.315l-4.713-2.736a8.877 8.877 0 01-4.208-6.986V97.14c0-2.567 1.81-3.578 4.208-2.273l4.713 2.694a8.962 8.962 0 014.207 6.986v59.345zm28.528 16.457c0 2.567-1.81 3.619-4.208 2.315l-4.712-2.694a8.97 8.97 0 01-4.208-6.987v-59.344c0-2.568 1.81-3.62 4.208-2.315l4.712 2.735a8.802 8.802 0 014.208 6.945v59.345zm28.527 16.498c0 2.568-1.809 3.578-4.207 2.315l-4.671-2.736a8.75 8.75 0 01-4.207-6.944v-59.345c0-2.567 1.809-3.619 4.207-2.315l4.671 2.694a8.973 8.973 0 014.207 6.987v59.344zm28.528 16.499c0 2.567-1.809 3.578-4.208 2.273l-4.67-2.694a8.957 8.957 0 01-4.208-6.987v-59.344c0-2.568 1.809-3.578 4.208-2.315l4.67 2.736a8.874 8.874 0 014.208 6.944v59.387z" fill="url(#paint0_linear_365_9498)"/><path d="M81.584 114.059l-4.712-2.735c-2.23-1.305-4.208-.253-4.208 2.315v59.344a8.967 8.967 0 004.208 6.987l4.712 2.694c2.23 1.304 4.208.252 4.208-2.315v-6.65a8.926 8.926 0 01-2.777-5.935V115.07a5.803 5.803 0 00-1.43-1.011z" fill="url(#paint1_linear_365_9498)"/><path d="M77.925 9.05l3.366 5.807c1.683 2.904 1.683 6.061 0 7.03L34.418 48.611 152.61 116.88l-9.552-16.541-98.626-56.946 46.873-26.558c1.683-.968 1.683-4.208 0-7.07L87.939 3.83C86.256.884 83.73-.673 81.796.295L73.044 5.26a6.816 6.816 0 014.88 3.788z" fill="url(#paint2_linear_365_9498)"/><path d="M53.06 97.561l-4.712-2.693c-2.23-1.305-4.207-.295-4.207 2.272v59.345a8.88 8.88 0 004.207 6.987l4.713 2.736c2.23 1.262 4.207.252 4.207-2.315v-6.65a9.009 9.009 0 01-2.777-5.977V98.571a8.834 8.834 0 00-1.43-1.01z" fill="url(#paint3_linear_365_9498)"/><path d="M110.112 130.474l-4.67-2.693c-2.272-1.305-4.208-.253-4.208 2.315v59.302a8.758 8.758 0 004.208 6.945l4.67 2.736c2.23 1.304 4.208.252 4.208-2.315v-6.566a9.012 9.012 0 01-2.777-5.977v-52.652a4.97 4.97 0 00-1.431-1.095z" fill="url(#paint4_linear_365_9498)"/><path d="M5.512 31.945l9.93 5.934 9.552-5.471-9.467-5.682a3.365 3.365 0 00-4.503.295L2.23 31.44a4.204 4.204 0 013.282.505z" fill="url(#paint5_linear_365_9498)"/><path style="mix-blend-mode:screen" d="M32.441 49.749l118.192 68.267-1.978-3.409L34.419 48.612l-1.978 1.137z" fill="url(#paint6_radial_365_9498)"/><path style="mix-blend-mode:screen" d="M44.684 95.457c-1.388 0-2.356.968-2.356 2.82v59.345a8.962 8.962 0 004.208 6.986l4.712 2.736c1.641.926 2.988.589 3.66-.631a3.376 3.376 0 01-1.682-.505l-4.713-2.736a8.881 8.881 0 01-4.207-6.987V97.141c0-.583.13-1.157.378-1.684z" fill="url(#paint7_radial_365_9498)"/><path style="mix-blend-mode:screen" d="M5.51 31.945a3.322 3.322 0 00-4.713.505 4.206 4.206 0 012.735.631l9.93 5.724L69.844 6.65c1.683-.968 4.207.589 6.143 3.535l3.324 5.766c1.683 2.946 1.725 6.103 0 7.071l1.977-1.136c1.683-.968 1.683-4.21 0-7.029l-3.366-5.808c-1.683-2.904-4.418-4.504-6.143-3.536L15.44 37.88l-9.93-5.934z" fill="url(#paint8_radial_365_9498)"/><path style="mix-blend-mode:screen" d="M101.781 128.412c-1.388 0-2.398.968-2.398 2.82v59.345a8.923 8.923 0 004.207 6.986l4.671 2.736c1.641.926 3.029.589 3.66-.631a3.494 3.494 0 01-1.683-.505l-4.67-2.736a8.758 8.758 0 01-4.208-6.945v-59.344a3.508 3.508 0 01.421-1.726z" fill="url(#paint9_radial_365_9498)"/><path style="mix-blend-mode:screen" d="M73.212 111.955c-1.389 0-2.356.926-2.356 2.82v59.345a8.963 8.963 0 004.207 6.986l4.713 2.694c1.64.926 3.03.631 3.66-.589a3.587 3.587 0 01-1.683-.547l-4.712-2.694a8.961 8.961 0 01-4.208-6.987v-59.344a3.706 3.706 0 01.379-1.684z" fill="url(#paint10_radial_365_9498)"/><path style="mix-blend-mode:screen" d="M109.061 27.021l-3.366 1.936 1.389-.8c1.683-.968 4.46.632 6.143 3.536l56.382 97.266 9.888 5.724a12.167 12.167 0 015.638 9.554v13.932a4.501 4.501 0 01-.842 2.651c1.641 0 2.777-1.473 2.777-3.788v-13.931a12.163 12.163 0 00-5.512-9.554l-9.887-5.682-56.467-97.308c-1.598-2.904-4.46-4.504-6.143-3.536z" fill="url(#paint11_radial_365_9498)"/></g><defs><radialGradient id="paint6_radial_365_9498" cx="0" cy="0" r="1" gradientUnits="userSpaceOnUse" gradientTransform="matrix(48.4295 0 0 48.4438 91.516 83.335)"><stop stop-color="#6CF"/><stop offset="1"/></radialGradient><radialGradient id="paint7_radial_365_9498" cx="0" cy="0" r="1" gradientUnits="userSpaceOnUse" gradientTransform="matrix(25.9609 0 0 25.9686 48.513 131.653)"><stop stop-color="#6CF"/><stop offset="1"/></radialGradient><radialGradient id="paint8_radial_365_9498" cx="0" cy="0" r="1" gradientUnits="userSpaceOnUse" gradientTransform="matrix(31.2625 0 0 31.2717 41.695 22.012)"><stop stop-color="#6CF"/><stop offset="1"/></radialGradient><radialGradient id="paint9_radial_365_9498" cx="0" cy="0" r="1" gradientUnits="userSpaceOnUse" gradientTransform="matrix(25.9609 0 0 25.9686 105.61 164.608)"><stop stop-color="#6CF"/><stop offset="1"/></radialGradient><radialGradient id="paint10_radial_365_9498" cx="0" cy="0" r="1" gradientUnits="userSpaceOnUse" gradientTransform="matrix(25.9609 0 0 25.9686 77.083 148.151)"><stop stop-color="#6CF"/><stop offset="1"/></radialGradient><radialGradient id="paint11_radial_365_9498" cx="0" cy="0" r="1" gradientUnits="userSpaceOnUse" gradientTransform="matrix(55.4141 0 0 55.4305 146.341 93.773)"><stop stop-color="#6CF"/><stop offset="1"/></radialGradient><linearGradient id="paint0_linear_365_9498" x1="54.641" y1="189.859" x2="135.967" y2="52.053" gradientUnits="userSpaceOnUse"><stop stop-color="#fff" stop-opacity=".47"/><stop offset="1" stop-color="#fff"/></linearGradient><linearGradient id="paint1_linear_365_9498" x1="77.374" y1="104.987" x2="117.459" y2="130.53" gradientUnits="userSpaceOnUse"><stop offset=".109" stop-color="#fff" stop-opacity=".21"/><stop offset="1" stop-color="#fff"/></linearGradient><linearGradient id="paint2_linear_365_9498" x1="76.82" y1="-9.307" x2="113.988" y2="122.9" gradientUnits="userSpaceOnUse"><stop offset=".109" stop-color="#fff" stop-opacity=".21"/><stop offset="1" stop-color="#fff"/></linearGradient><linearGradient id="paint3_linear_365_9498" x1="48.85" y1="88.523" x2="88.932" y2="114.067" gradientUnits="userSpaceOnUse"><stop offset=".109" stop-color="#fff" stop-opacity=".21"/><stop offset="1" stop-color="#fff"/></linearGradient><linearGradient id="paint4_linear_365_9498" x1="105.929" y1="121.448" x2="145.946" y2="146.88" gradientUnits="userSpaceOnUse"><stop offset=".109" stop-color="#fff" stop-opacity=".21"/><stop offset="1" stop-color="#fff"/></linearGradient><linearGradient id="paint5_linear_365_9498" x1="10.397" y1="25.053" x2="12.502" y2="39.241" gradientUnits="userSpaceOnUse"><stop offset=".109" stop-color="#fff" stop-opacity=".21"/><stop offset="1" stop-color="#fff"/></linearGradient><clipPath id="clip0_365_9498"><path fill="#fff" d="M0 0h197v237H0z"/></clipPath></defs></svg>