<svg width="24" height="24" fill="none" xmlns="http://www.w3.org/2000/svg"><path d="M19.945 15.26a3.362 3.362 0 11-4.755 4.755 3.362 3.362 0 014.755-4.754" stroke="#fff" stroke-width="1.5" stroke-linecap="round" stroke-linejoin="round"/><path clip-rule="evenodd" d="M21.253 7.153l-2.898 2.898a1.12 1.12 0 01-1.585 0l-2.898-2.898a1.12 1.12 0 010-1.584L16.77 2.67a1.12 1.12 0 011.585 0l2.898 2.898a1.122 1.122 0 010 1.585v0zM4.318 9.53h4.098c.619 0 1.121-.502 1.121-1.121V4.31a1.12 1.12 0 00-1.121-1.121H4.318a1.12 1.12 0 00-1.121 1.12V8.41c0 .619.502 1.12 1.121 1.12zm1.046 5.626L2.88 19.132a1.182 1.182 0 001.002 1.808h4.969a1.182 1.182 0 001.002-1.808l-2.484-3.975a1.182 1.182 0 00-2.005-.001v0z" stroke="#fff" stroke-width="1.5" stroke-linecap="round" stroke-linejoin="round"/></svg>