<svg width="159" height="22" fill="none" xmlns="http://www.w3.org/2000/svg"><g clip-path="url(#clip0_136_8510)" fill="#A1A6AB"><path d="M13.4 11.27L10.667 9a1.563 1.563 0 01-.537-.898c-.07-.35-.015-.711.155-1.027l2.763-5.127a.62.62 0 00-.02-.622.645.645 0 00-.238-.224.668.668 0 00-.32-.082H6.526a1.22 1.22 0 00-.606.16 1.176 1.176 0 00-.438.437L.36 10.597a.837.837 0 00-.08.643c.061.216.207.4.406.514l3.727 2.12a.499.499 0 00.571-.058.492.492 0 00.12-.16l1.057-2.35a.64.64 0 00-.174-.758L4.757 9.5a.576.576 0 01-.127-.739l1.81-3.065a.623.623 0 01.23-.226.647.647 0 01.318-.082h1.05a.293.293 0 01.242.13.273.273 0 01.014.27L6.797 8.756a.576.576 0 00.139.699l.937.822a.64.64 0 01.183.71l-3.278 9.09c-.164.467.42.839.794.507l7.867-6.958c.17-.15.304-.333.396-.538a1.533 1.533 0 00-.021-1.293 1.579 1.579 0 00-.413-.526zm7.432 3.638V1.584h7.349c1.411 0 2.515.317 3.312.951.797.635 1.195 1.428 1.195 2.38 0 .951-.359 1.7-1.078 2.246-.34.228-.698.4-1.077.514v.095c.496.14.934.336 1.313.59.888.596 1.332 1.478 1.332 2.646 0 1.142-.45 2.08-1.352 2.816-.901.724-2.182 1.086-3.841 1.086h-7.153zm3.625-8.185h2.94c.484 0 .85-.102 1.098-.305.248-.215.372-.495.372-.837 0-.343-.124-.616-.372-.819-.249-.215-.614-.323-1.098-.323h-2.94v2.284zm0 5.33h3.136c.614 0 1.078-.121 1.392-.362.313-.241.47-.565.47-.971s-.157-.73-.47-.97c-.314-.242-.778-.362-1.392-.362h-3.136v2.664zm12.258 1.18c-1.437-1.384-2.156-3.046-2.156-4.987 0-1.942.719-3.598 2.156-4.968 1.45-1.384 3.28-2.075 5.487-2.075 2.208 0 4.03.691 5.468 2.075 1.45 1.37 2.175 3.026 2.175 4.968 0 1.941-.725 3.603-2.175 4.986-1.437 1.37-3.26 2.056-5.468 2.056s-4.037-.685-5.487-2.056zm2.724-7.747c-.706.698-1.058 1.617-1.058 2.76 0 1.142.352 2.062 1.058 2.76.705.697 1.627 1.046 2.763 1.046 1.137 0 2.058-.349 2.763-1.046.706-.698 1.058-1.618 1.058-2.76 0-1.143-.352-2.063-1.058-2.76-.705-.698-1.626-1.047-2.763-1.047-1.136 0-2.058.349-2.763 1.047zm13.926 7.747c-1.437-1.384-2.156-3.046-2.156-4.987 0-1.942.719-3.598 2.156-4.968 1.45-1.384 3.28-2.075 5.487-2.075 2.208 0 4.03.691 5.468 2.075 1.45 1.37 2.175 3.026 2.175 4.968 0 1.941-.725 3.603-2.175 4.986-1.437 1.37-3.26 2.056-5.468 2.056s-4.037-.685-5.487-2.056zm2.724-7.747c-.706.698-1.058 1.617-1.058 2.76 0 1.142.352 2.062 1.058 2.76.705.697 1.626 1.046 2.763 1.046s2.058-.349 2.763-1.046c.706-.698 1.058-1.618 1.058-2.76 0-1.143-.352-2.063-1.058-2.76-.705-.698-1.626-1.047-2.763-1.047s-2.058.349-2.763 1.047zm11.574 5.139h3.724c.117.317.293.59.529.818.548.533 1.32.8 2.312.8.693 0 1.209-.108 1.548-.324.34-.216.51-.488.51-.818a.66.66 0 00-.118-.381.897.897 0 00-.353-.343 2.793 2.793 0 00-.47-.247 3.76 3.76 0 00-.686-.228c-.287-.09-.529-.16-.725-.21-.196-.05-.483-.12-.862-.21a62.637 62.637 0 01-.843-.209c-1.24-.33-2.234-.786-2.978-1.37-.732-.584-1.098-1.421-1.098-2.513 0-1.154.51-2.138 1.529-2.95 1.032-.825 2.416-1.237 4.154-1.237 2.221 0 3.88.698 4.978 2.094a5.233 5.233 0 011 2.093H76.09a1.607 1.607 0 00-.392-.57c-.418-.381-1.039-.572-1.862-.572-.64 0-1.11.096-1.41.286-.301.178-.451.4-.451.666 0 .355.215.64.646.857.444.203 1.091.4 1.94.59.497.114.85.203 1.058.266.223.05.569.152 1.04.305.482.14.848.273 1.097.4.248.126.542.304.881.532.353.216.614.45.784.705.183.24.34.539.47.894.144.355.216.743.216 1.161 0 1.219-.516 2.253-1.548 3.103-1.032.85-2.476 1.275-4.33 1.275-2.326 0-4.116-.774-5.37-2.322a6.79 6.79 0 01-1.196-2.341zM80.9 4.819V1.584h12.248v3.235h-4.312v10.088h-3.625V4.82H80.9zm13.708 10.088V1.584h3.626v4.948h1.568l3.331-4.948h4.115l-4.311 6.28 4.605 7.044h-4.115l-3.43-5.14h-1.763v5.14h-3.626zm14.201 0V1.585h6.859c1.632 0 2.952.45 3.958 1.351 1.019.888 1.529 1.992 1.529 3.312 0 1.713-.915 3.045-2.744 3.997l2.842 4.664h-3.92l-2.449-3.998h-2.45v3.998h-3.625zm3.625-7.232h3.135c.562 0 1.013-.14 1.353-.42.34-.278.51-.615.51-1.008s-.17-.73-.51-1.009c-.34-.279-.791-.419-1.353-.419h-3.135v2.856zm10.785 7.233V1.584h3.625v13.324h-3.625zm6.182 0V1.584h10.582v3.235h-6.956v1.999h5.585v2.855h-5.585v1.999h6.956v3.236h-10.582zm14.179-1.618c-1.423-1.345-2.136-3.027-2.136-5.044 0-2.018.713-3.693 2.136-5.025 1.437-1.346 3.273-2.018 5.507-2.018 2.482 0 4.422.844 5.82 2.531a7.101 7.101 0 011.333 2.513h-3.723a3.041 3.041 0 00-.726-.895c-.705-.609-1.607-.913-2.704-.913-1.136 0-2.058.349-2.764 1.047-.705.698-1.058 1.617-1.058 2.76 0 1.142.353 2.062 1.058 2.76.706.697 1.628 1.046 2.764 1.046 1.123 0 2.038-.317 2.743-.951.314-.305.543-.622.687-.952h-1.863V7.484h7.154v2.665h-1.548a7.63 7.63 0 01-1.412 2.57c-1.423 1.713-3.344 2.57-5.761 2.57-2.234 0-4.07-.667-5.507-2z"/></g><defs><clipPath id="clip0_136_8510"><path fill="#fff" transform="translate(.25 .5)" d="M0 0h158v21H0z"/></clipPath></defs></svg>