<svg width="138" height="44" fill="none" xmlns="http://www.w3.org/2000/svg"><g clip-path="url(#clip0_136_8464)"><mask id="a" style="mask-type:luminance" maskUnits="userSpaceOnUse" x="0" y="0" width="138" height="44"><path d="M137.25.5H.25v43h137V.5z" fill="#fff"/></mask><g mask="url(#a)"><path d="M15.99 15.418h2.668l-3.936 13.163h-2.5l-2.611-8.885-2.593 8.885h-2.5L.582 15.418H3.25l2.518 9.05 2.5-9.031 2.667-.019 2.519 9.05 2.537-9.05zm12.053 13.163h-2.22v-1.206c-.497.56-1.007.95-1.53 1.17-.51.207-1.156.31-1.94.31-1.02 0-1.828-.274-2.425-.822-.597-.56-.895-1.304-.895-2.23 0-1.366.59-2.31 1.772-2.834a7.45 7.45 0 01.709-.256c.286-.085.54-.152.765-.201.236-.061.528-.116.876-.165.361-.06.635-.103.821-.128.187-.036.467-.079.84-.128l.709-.091c-.187-.817-.834-1.225-1.94-1.225a3.74 3.74 0 00-2.519.932l-1.455-1.645c1.169-1.085 2.556-1.627 4.16-1.627 1.094 0 2.077.36 2.947 1.079.883.73 1.325 1.791 1.325 3.18v5.887zm-2.854-2.925c.224-.329.335-.902.335-1.718-.584.11-1.43.28-2.537.512-.97.207-1.455.597-1.455 1.17 0 .341.137.621.41.84.274.22.616.33 1.027.33.97 0 1.71-.378 2.22-1.134zm13.415-4.35l-2.37.584c-.186-.45-.46-.78-.82-.987-.348-.195-.765-.305-1.25-.33a2.734 2.734 0 00-1.082.184c-.348.134-.522.335-.522.603 0 .207.13.366.391.475.1.037.336.11.71.22l1.865.512c.82.219 1.467.505 1.94.859.82.61 1.231 1.377 1.231 2.303 0 .5-.13.976-.392 1.427-.26.438-.61.786-1.044 1.042-.71.438-1.592.658-2.65.658-1.591 0-2.804-.445-3.637-1.335a33.136 33.136 0 01-.299-.329l-.186-.274a4.082 4.082 0 01-.168-.33c-.05-.133-.087-.237-.112-.31a13.93 13.93 0 00-.15-.402 51.065 51.065 0 01-.148-.476l2.369-.566c0 .158.043.365.13.621.087.256.187.439.299.549.423.475 1.076.713 1.959.713.609 0 1.063-.11 1.361-.33.262-.182.392-.39.392-.621 0-.305-.168-.518-.504-.64-.149-.06-.466-.158-.95-.292-1.568-.427-2.42-.67-2.557-.732-.758-.317-1.3-.676-1.622-1.078-.336-.415-.504-.939-.504-1.573 0-.597.168-1.127.504-1.59a3.036 3.036 0 011.324-1.06c.584-.244 1.318-.366 2.201-.366.771 0 1.486.164 2.145.493 1.008.476 1.723 1.268 2.146 2.377zm10.283 0l-2.369.584c-.187-.45-.46-.78-.82-.987-.349-.195-.766-.305-1.25-.33a2.734 2.734 0 00-1.083.184c-.348.134-.522.335-.522.603 0 .207.13.366.392.475.1.037.336.11.709.22l1.865.512c.82.219 1.468.505 1.94.859.821.61 1.231 1.377 1.231 2.303 0 .5-.13.976-.391 1.427a2.93 2.93 0 01-1.045 1.042c-.709.438-1.592.658-2.649.658-1.592 0-2.804-.445-3.638-1.335a34.425 34.425 0 01-.298-.329l-.187-.274a4.082 4.082 0 01-.167-.33 8.712 8.712 0 01-.112-.31 13.93 13.93 0 00-.15-.402 45.238 45.238 0 01-.149-.476l2.37-.566c0 .158.043.365.13.621.087.256.186.439.298.549.423.475 1.076.713 1.959.713.61 0 1.063-.11 1.362-.33.261-.182.392-.39.392-.621 0-.305-.168-.518-.504-.64-.15-.06-.467-.158-.952-.292-1.566-.427-2.418-.67-2.555-.732-.759-.317-1.3-.676-1.623-1.078-.336-.415-.504-.939-.504-1.573 0-.597.168-1.127.504-1.59a3.036 3.036 0 011.324-1.06c.585-.244 1.319-.366 2.202-.366.77 0 1.486.164 2.145.493 1.007.476 1.722 1.268 2.145 2.377zm4.202 3.235c.087.524.261.95.523 1.28.435.597 1.088.896 1.958.896.597 0 1.095-.098 1.493-.293.398-.207.808-.524 1.23-.95l1.829 1.243c-1.057 1.426-2.525 2.139-4.403 2.139-.783 0-1.535-.14-2.257-.42-.721-.293-1.306-.702-1.753-1.226-.821-.987-1.232-2.133-1.232-3.437 0-1.487.41-2.718 1.232-3.693.945-1.097 2.232-1.645 3.861-1.645 1.642 0 2.929.548 3.862 1.645 1.007 1.182 1.405 2.67 1.194 4.461h-7.537zm4.44-3.09c-.423-.585-1.076-.877-1.959-.877s-1.536.292-1.959.877a2.443 2.443 0 00-.447.896h4.813a3.209 3.209 0 00-.448-.896zm10.282-2.998c.56-.037 1.12.055 1.68.274v2.304c-.585-.22-1.232-.305-1.941-.256-.684.049-1.219.274-1.604.676-.436.463-.653 1.085-.653 1.865v5.265h-2.556V18.71h2.239v1.353a3.086 3.086 0 011.082-1.097c.497-.305 1.082-.475 1.753-.512zm67.837-7.539c4.229 11.385-2.709 22.67-19.438 28.637-16.73 5.967-36.916 4.359-41.145-7.027C70.837 21.138 83.9 9.147 98.301 4.01c14.402-5.137 33.118-4.482 37.347 6.904z" fill="#A1A6AB"/><path d="M135.648 10.914c4.229 11.385-2.709 22.67-19.438 28.637-16.73 5.967-36.916 4.359-41.145-7.027C70.837 21.138 83.9 9.147 98.301 4.01c14.402-5.137 33.118-4.482 37.347 6.904z" fill="#A1A6AB"/><path d="M91.36 24.03l2.518.712a6.201 6.201 0 01-1.1 1.956 5.752 5.752 0 01-2.202 1.61 6.918 6.918 0 01-2.742.548 6.954 6.954 0 01-2.798-.567c-.87-.378-1.586-.908-2.146-1.59-1.057-1.256-1.585-2.822-1.585-4.7 0-1.9.528-3.473 1.585-4.716a5.319 5.319 0 012.146-1.59 7.151 7.151 0 012.798-.549c2.102 0 3.75.713 4.944 2.14a6.84 6.84 0 011.23 2.34l-2.611.438c-.174-.536-.386-.957-.634-1.262-.684-.89-1.66-1.334-2.93-1.334-1.293 0-2.269.445-2.928 1.334-.584.732-.89 1.798-.914 3.2.025 1.39.33 2.456.914 3.2a3.17 3.17 0 001.269.986 3.848 3.848 0 001.66.33 3.848 3.848 0 001.66-.33c.522-.231.946-.56 1.269-.987.26-.353.46-.743.596-1.17zm7.61-8.612h-2.537v13.163h8.319V26.26H98.97V15.418zm15.817 13.163l-.653-2.065h-5.484l-.634 2.066h-2.612l4.105-13.164h3.786l4.104 13.163h-2.612zm-5.409-4.387h4.029l-2.033-6.436-1.996 6.436zm18.737-2.03c.535.695.802 1.493.802 2.395 0 .866-.267 1.664-.802 2.395-.522.683-1.219 1.158-2.089 1.426-.497.135-.921.201-1.269.201h-5.671V15.418h5.354c.411 0 .796.061 1.157.183.821.232 1.461.677 1.921 1.335.497.621.759 1.365.784 2.23.025.792-.237 1.524-.784 2.194a.37.37 0 01-.075.091c.249.22.473.457.672.713zm-3.694-4.424h-2.761v2.797h2.911a1.4 1.4 0 00.84-.512c.223-.268.329-.554.317-.859-.026-.39-.15-.707-.374-.95a1.354 1.354 0 00-.429-.33 1.106 1.106 0 00-.504-.146zm1.94 6.82c.026-.464-.137-.872-.485-1.226a1.586 1.586 0 00-1.156-.456h-3.06v3.363h3.06c.385 0 .746-.146 1.082-.438.348-.293.534-.707.559-1.244z" fill="#fff"/></g></g><defs><clipPath id="clip0_136_8464"><path fill="#fff" transform="translate(.25 .5)" d="M0 0h137v43H0z"/></clipPath></defs></svg>