<svg width="158" height="42" fill="none" xmlns="http://www.w3.org/2000/svg"><g clip-path="url(#clip0_136_8566)" fill="#A1A6AB"><path d="M42.163 29.072l-3.422-5.04H34.96v5.04h-4.116V10.966h7.693a9.681 9.681 0 014.105.805 5.919 5.919 0 012.678 2.314 6.093 6.093 0 01.911 3.457 6.192 6.192 0 01-.91 3.477 6.008 6.008 0 01-2.703 2.233l3.984 5.82h-4.44zM41.122 15.2a4.2 4.2 0 00-2.812-.818h-3.35v6.308h3.35a4.142 4.142 0 002.812-.83 2.84 2.84 0 00.75-1.043c.168-.402.243-.839.22-1.275a2.892 2.892 0 00-.214-1.288 2.84 2.84 0 00-.756-1.055zm22.146 10.516v3.356H49.496V10.966h13.425v3.355h-9.333v3.94h8.244v3.258h-8.244v4.198h9.68zm3.267-14.75H74.6a11.2 11.2 0 015.109 1.122 8.436 8.436 0 013.458 3.197 9.13 9.13 0 011.196 4.758 9.069 9.069 0 01-1.196 4.759 8.29 8.29 0 01-3.458 3.172 11.042 11.042 0 01-5.11 1.122h-8.064v-18.13zm7.861 14.641a5.912 5.912 0 004.248-1.513 5.303 5.303 0 001.234-1.873 5.388 5.388 0 00.357-2.227 5.426 5.426 0 00-.36-2.225 5.339 5.339 0 00-1.231-1.874 5.912 5.912 0 00-4.248-1.513H70.64v11.225h3.757zm23.901-13.836a6.136 6.136 0 012.681 2.294 6.415 6.415 0 01.933 3.501 6.416 6.416 0 01-.933 3.478 6.013 6.013 0 01-2.68 2.27 9.68 9.68 0 01-4.105.792h-3.59v4.966h-4.091V10.966h7.681a9.681 9.681 0 014.105.805zm-1.52 8.077a2.867 2.867 0 00.958-2.306 2.93 2.93 0 00-.212-1.285 2.878 2.878 0 00-.745-1.058 4.259 4.259 0 00-2.824-.817h-3.35v6.284h3.35a4.259 4.259 0 002.824-.818zm18.873 5.344h-8.256l-1.568 3.88h-4.26l7.969-18.106h4.057l7.944 18.106h-4.319l-1.567-3.88zm-1.305-3.185l-2.812-6.93-2.787 6.93h5.599zm20.353 7.065l-3.422-5.039h-3.781v5.039h-4.104V10.966h7.681a9.678 9.678 0 014.104.805 6.136 6.136 0 012.681 2.294 6.415 6.415 0 01.933 3.501 6.193 6.193 0 01-.957 3.478 6.011 6.011 0 01-2.704 2.232l3.996 5.82-4.427-.024zM133.657 15.2a4.201 4.201 0 00-2.812-.818h-3.35v6.308h3.35a4.143 4.143 0 002.812-.83c.325-.284.582-.641.75-1.043.168-.402.243-.839.219-1.275a2.893 2.893 0 00-.213-1.288 2.847 2.847 0 00-.756-1.055zm11.808-.818h-5.684v-3.416h15.471v3.416h-5.683v14.641h-4.104V14.382zM2.39 6.976h14.43c.953 0 1.866.386 2.539 1.072a3.697 3.697 0 011.051 2.588 3.7 3.7 0 01-1.051 2.589 3.555 3.555 0 01-2.538 1.072H2.39V29.06h7.18v-8.7h7.239a9.574 9.574 0 006.836-2.887 9.958 9.958 0 002.832-6.97 9.958 9.958 0 00-2.823-6.963A9.575 9.575 0 0016.833.644H8.385L2.391 6.976z"/><path d="M18.138 29.06l-7.275-7.467h8.304l7.335 7.467h-8.364zm137.112 3.868h-153v.67h153v-.67zM4.766 38.991c.268.07.478.19.628.362a.88.88 0 01.226.609.904.904 0 01-.244.626 1.538 1.538 0 01-.641.407 2.626 2.626 0 01-.867.138 3.07 3.07 0 01-.849-.12 2.59 2.59 0 01-.769-.362l.214-.425c.187.138.397.241.629.31.232.069.466.103.702.103.342 0 .629-.067.86-.2.233-.139.349-.326.349-.563a.514.514 0 00-.263-.465c-.175-.111-.421-.167-.739-.167H3.05v-.465h.91c.272 0 .484-.052.635-.155a.51.51 0 00.232-.442c0-.21-.1-.377-.3-.5-.199-.122-.451-.183-.757-.183-.2 0-.403.026-.61.08a2.306 2.306 0 00-.58.241l-.196-.47c.216-.116.444-.202.684-.26.24-.057.48-.085.72-.085.302 0 .579.044.831.132.252.088.452.216.598.385a.86.86 0 01.226.59c0 .204-.06.382-.183.535a1.061 1.061 0 01-.494.344zm4.405 1.091h-2.27l-.471 1.005h-.629l1.936-4.02h.604l1.942 4.02h-.641l-.47-1.005zm-.213-.459l-.922-1.97-.922 1.97h1.844zm5.5-2.555v4.02h-.598v-3.52h-2.48v3.52h-.604v-4.02h3.682zm4.132 0v4.02h-.605v-1.591a3.686 3.686 0 01-1.251.246c-.521 0-.926-.118-1.215-.355-.285-.238-.428-.576-.428-1.017v-1.303h.599v1.24c0 .299.095.528.287.69.195.16.47.24.824.24.395 0 .79-.084 1.184-.252v-1.918h.605zm3.867 3.014h-2.271l-.47 1.005h-.63l1.936-4.02h.605l1.941 4.02h-.641l-.47-1.005zm-.214-.459l-.922-1.97-.922 1.97h1.844zm3.67 1.51a2.52 2.52 0 01-1.16-.264 2.071 2.071 0 01-.806-.735 1.958 1.958 0 01-.293-1.056c0-.39.098-.741.293-1.051.195-.314.466-.56.812-.735.346-.18.733-.27 1.16-.27.334 0 .64.054.916.16.277.104.513.26.708.466l-.397.362c-.321-.318-.722-.477-1.202-.477-.318 0-.605.067-.861.201a1.48 1.48 0 00-.818 1.343c0 .291.07.556.213.793.147.233.348.417.605.551.256.134.543.201.86.201.477 0 .878-.16 1.203-.482l.397.361a1.898 1.898 0 01-.714.471 2.521 2.521 0 01-.916.161z"/><path d="M31.03 37.568h-1.466v3.52h-.598v-3.52h-1.46v-.5h3.523v.5zm.497-.5h.605v3.1l2.528-3.1h.561v4.02h-.598v-3.096l-2.534 3.095h-.562v-4.02zm10.251 3.52v1.377h-.568v-.878h-3.517l-.006.878h-.568l.006-1.377h.208c.268-.016.458-.215.567-.598.11-.386.177-.93.202-1.63l.043-1.292h3.004v3.52h.629zm-3.139-2.177a8.596 8.596 0 01-.146 1.407c-.074.372-.194.628-.36.77h2.411v-3.02H38.67l-.03.843zm7.221-1.343v4.02h-.598v-3.52H43.37l-.042 1.177a7.648 7.648 0 01-.147 1.349c-.073.344-.191.605-.354.78-.163.173-.383.259-.66.259a1.65 1.65 0 01-.384-.046l.043-.51c.065.014.13.022.195.022a.516.516 0 00.421-.195c.106-.134.185-.333.238-.597.053-.264.088-.613.104-1.045l.067-1.694h3.01zm4.22 0v4.02h-.599v-1.172h-1.178a1.7 1.7 0 01-.165-.006l-.855 1.177h-.647l.947-1.275a1.333 1.333 0 01-.703-.476 1.367 1.367 0 01-.244-.821c0-.456.155-.81.464-1.062.314-.257.735-.385 1.264-.385h1.716zm-2.827 1.441c0 .299.091.528.275.69.187.156.462.235.824.235h1.13v-1.866h-1.093c-.367 0-.648.08-.843.24-.196.161-.293.395-.293.701zm8.09 1.573h-2.271l-.47 1.005h-.63l1.936-4.02h.605l1.941 4.02h-.64l-.471-1.005zm-.214-.459l-.922-1.97-.922 1.97h1.844zm4.481-.62c.289.065.506.182.653.35a.91.91 0 01.226.637c0 .349-.136.619-.41.81-.268.191-.66.287-1.178.287h-1.953v-4.02h1.837c.469 0 .833.09 1.093.27.265.177.397.431.397.764a.885.885 0 01-.177.557 1.022 1.022 0 01-.488.345zm-2.058-.167h1.19c.298 0 .524-.055.678-.166a.558.558 0 00.238-.488.558.558 0 00-.238-.488c-.158-.115-.384-.172-.677-.172h-1.191v1.314zm1.337 1.797c.655 0 .983-.23.983-.689 0-.23-.083-.398-.25-.505-.163-.11-.407-.166-.733-.166h-1.337v1.36h1.337zm5.253-3.065h-1.465v3.52h-.599v-3.52H60.62v-.5h3.523v.5zm2.362 3.565a2.54 2.54 0 01-1.167-.264 2.09 2.09 0 01-.818-.74 1.948 1.948 0 01-.293-1.051c0-.387.098-.737.293-1.051.2-.314.472-.56.818-.735a2.49 2.49 0 011.166-.27c.428 0 .815.09 1.16.27.347.176.617.42.813.735.195.31.293.66.293 1.05s-.098.743-.293 1.057a2.06 2.06 0 01-.812.735 2.52 2.52 0 01-1.16.264zm0-.511c.313 0 .594-.067.842-.2a1.506 1.506 0 00.812-1.344c0-.291-.073-.554-.22-.787a1.491 1.491 0 00-.592-.557 1.746 1.746 0 00-.843-.201c-.313 0-.598.067-.854.201a1.48 1.48 0 00-.812 1.343c0 .291.07.556.213.793.147.233.346.417.599.551.256.134.541.201.855.201zm6.97.465l-.006-2.928-1.545 2.44h-.28l-1.545-2.423v2.911h-.587v-4.02h.501l1.783 2.826 1.758-2.825h.501l.006 4.02h-.586zm3.596.046c-.432 0-.82-.088-1.166-.264a2.09 2.09 0 01-.819-.74 1.948 1.948 0 01-.293-1.051c0-.387.098-.737.293-1.051.2-.314.473-.56.819-.735a2.49 2.49 0 011.166-.27c.427 0 .814.09 1.16.27.346.176.617.42.812.735.195.31.293.66.293 1.05s-.098.743-.293 1.057a2.06 2.06 0 01-.812.735 2.52 2.52 0 01-1.16.264zm0-.511c.313 0 .594-.067.842-.2a1.506 1.506 0 00.812-1.344c0-.291-.073-.554-.22-.787a1.491 1.491 0 00-.592-.557 1.745 1.745 0 00-.842-.201c-.314 0-.599.067-.855.201a1.48 1.48 0 00-.812 1.343c0 .291.071.556.214.793.146.233.346.417.598.551.256.134.541.201.855.201zm3.008-3.554h3.224v.488h-2.62v1.148h1.331c.51 0 .896.1 1.16.299.265.199.397.486.397.861 0 .394-.144.697-.433.907-.285.21-.694.316-1.228.316h-1.831v-4.02zm1.807 3.566c.35 0 .617-.064.8-.19.183-.126.275-.312.275-.557 0-.486-.358-.73-1.075-.73h-1.203v1.477h1.203zm2.415-3.566h.604v3.1l2.528-3.1h.561v4.02h-.598v-3.096l-2.534 3.095H84.3v-4.02zm8.22 0v4.02h-.598v-3.52H90.03l-.043 1.177a7.648 7.648 0 01-.147 1.349c-.073.344-.191.605-.354.78-.163.173-.383.259-.66.259-.125 0-.254-.015-.384-.046l.043-.51c.065.014.13.022.195.022a.516.516 0 00.421-.195c.106-.134.186-.333.239-.597a6.83 6.83 0 00.103-1.045l.067-1.694h3.01zm4.19 3.52v.5h-3.102v-4.02h3.016v.5h-2.406v1.234h2.143v.488h-2.143v1.298h2.491zm.714-3.52h.604v3.1l2.528-3.1h.562v4.02h-.598v-3.096l-2.534 3.095h-.562v-4.02zm1.838-.281c-.334 0-.592-.067-.776-.201-.179-.138-.27-.333-.274-.586h.433a.44.44 0 00.165.35c.11.08.26.12.452.12.183 0 .33-.04.44-.12a.427.427 0 00.177-.35h.427a.7.7 0 01-.281.58c-.18.138-.434.207-.763.207zm4.34.281h.604v3.1l2.528-3.1h.562v4.02h-.599v-3.096l-2.534 3.095h-.561v-4.02zm8.089 4.065a2.52 2.52 0 01-1.16-.264 2.068 2.068 0 01-.806-.735 1.954 1.954 0 01-.294-1.056c0-.39.098-.741.294-1.051.195-.314.466-.56.812-.735.346-.18.732-.27 1.16-.27.333 0 .639.054.916.16.276.104.512.26.708.466l-.397.362c-.322-.318-.723-.477-1.203-.477-.317 0-.604.067-.861.201a1.476 1.476 0 00-.818 1.343c0 .291.071.556.214.793.146.233.348.417.604.551.257.134.544.201.861.201.476 0 .877-.16 1.203-.482l.397.361a1.904 1.904 0 01-.715.471 2.516 2.516 0 01-.915.161zm5.909-4.065v4.02h-.599v-3.52h-2.479v3.52h-.604v-4.02h3.682zm4.19 3.52v.5h-3.102v-4.02h3.016v.5h-2.405v1.234h2.143v.488h-2.143v1.298h2.491zm4.964 0V42h-.568v-.913h-3.682v-4.02h.605v3.52h2.381v-3.52h.605v3.52h.659zm3.344-3.02h-1.465v3.52h-.598v-3.52h-1.46v-.5h3.523v.5zm3.6 3.02v.5h-3.102v-4.02h3.016v.5h-2.405v1.234h2.143v.488h-2.143v1.298h2.491zm.911-3.52l1.117 1.47 1.118-1.47h.714l-1.447 1.93 1.563 2.09h-.72l-1.228-1.603-1.221 1.602h-.702l1.557-2.067-1.453-1.952h.702zm7.123 0v4.02h-.611v-1.792h-2.454v1.791h-.611v-4.02h.611v1.73h2.454v-1.73h.611zm1.088 0h.605v3.1l2.528-3.1h.561v4.02h-.598v-3.096l-2.534 3.095h-.562v-4.02zm6.272 2.251h-.891v1.768h-.598v-4.02h.598v1.746h.904l1.343-1.745h.653l-1.526 1.946 1.599 2.073h-.696l-1.386-1.768zm2.464-2.251h.604v3.1l2.528-3.1h.562v4.02h-.598v-3.096l-2.534 3.095h-.562v-4.02z"/></g><defs><clipPath id="clip0_136_8566"><path fill="#fff" transform="translate(.25 .5)" d="M0 0h157v41H0z"/></clipPath></defs></svg>