<svg width="144" height="42" fill="none" xmlns="http://www.w3.org/2000/svg"><g clip-path="url(#clip0_136_8474)" fill="#A1A6AB"><path d="M59.55 28.874c-1.872 0-3.276-.442-4.212-1.328-.936-.9-1.404-2.186-1.404-3.859v-3.943c0-1.687.468-2.973 1.404-3.858.936-.886 2.34-1.329 4.212-1.329 1.857 0 3.254.443 4.19 1.329.936.885 1.404 2.171 1.404 3.858v3.943c0 1.673-.468 2.96-1.404 3.859-.936.886-2.333 1.328-4.19 1.328zm0-2.214c1.007 0 1.765-.26 2.276-.78.51-.534.766-1.307.766-2.32v-3.69c0-1.011-.256-1.777-.766-2.298-.51-.534-1.27-.8-2.276-.8-1.007 0-1.773.266-2.298.8-.51.52-.766 1.287-.766 2.299v3.69c0 1.012.256 1.785.766 2.32.525.52 1.29.78 2.298.78zm11.31 1.961c-.17 0-.254-.084-.254-.253V17.045h-3.66c-.17 0-.255-.084-.255-.253v-1.729c0-.169.085-.253.256-.253h9.891c.17 0 .256.084.256.253v1.73c0 .168-.085.252-.255.252h-3.66v11.323c0 .169-.085.253-.255.253h-2.063zm12.96 0c-.156 0-.234-.084-.234-.253V15.063c0-.169.078-.253.234-.253h1.978c.17 0 .256.084.256.253v5.651c0 .548-.008 1.04-.022 1.476 0 .422-.014.815-.042 1.18a19.66 19.66 0 01-.064.992c-.028.295-.057.583-.085.864h.064c.127-.28.262-.569.404-.864l.51-.97c.185-.351.405-.745.66-1.18.27-.437.567-.936.893-1.498l3.447-5.735a.334.334 0 01.297-.169h2.234c.156 0 .234.084.234.253v13.305c0 .169-.078.253-.234.253h-1.978c-.17 0-.256-.084-.256-.253V21.62c.014-.45.029-.87.043-1.264.028-.408.05-.788.064-1.139.028-.351.056-.675.085-.97h-.064c-.128.281-.27.562-.425.843-.142.282-.313.598-.511.95-.184.337-.418.744-.702 1.222s-.624 1.047-1.021 1.708l-3.234 5.483a.334.334 0 01-.297.168H83.82zm20.039-.527l-2.659-.042L105.497 15a.302.302 0 01.298-.19h2.723a.3.3 0 01.297.19l4.319 13.052-2.702.042-2.276-7.633-.511-1.729-.51-1.729h-.021l-.511 1.771-.51 1.771-2.234 7.55zm-3.127 3.395a.267.267 0 01-.192-.085.229.229 0 01-.063-.168v-4.618c0-.084.021-.147.063-.19a.315.315 0 01.192-.063h12.891c.085 0 .149.021.192.063.042.043.063.106.063.19v4.618c0 .07-.021.126-.063.168-.043.057-.107.085-.192.085h-2a.267.267 0 01-.191-.085.225.225 0 01-.064-.168V28.62h-8.381v2.615a.23.23 0 01-.064.168c-.043.057-.106.085-.192.085h-1.999zm20.079-2.615c-1.872 0-3.276-.442-4.212-1.328-.936-.9-1.404-2.186-1.404-3.859v-3.943c0-1.687.468-2.973 1.404-3.858.936-.886 2.34-1.329 4.212-1.329 1.858 0 3.255.443 4.191 1.329.936.885 1.404 2.171 1.404 3.858v3.943c0 1.673-.468 2.96-1.404 3.859-.936.886-2.333 1.328-4.191 1.328zm0-2.214c1.007 0 1.766-.26 2.276-.78.511-.534.766-1.307.766-2.32v-3.69c0-1.011-.255-1.777-.766-2.298-.51-.534-1.269-.8-2.276-.8s-1.772.266-2.297.8c-.511.52-.766 1.287-.766 2.299v3.69c0 1.012.255 1.785.766 2.32.525.52 1.29.78 2.297.78zm8.435 1.961a.23.23 0 01-.17-.063.304.304 0 01-.064-.19l.276-13.305c0-.169.085-.253.256-.253h2.744c.127 0 .22.063.276.19l3.553 7.675L139.606 15c.07-.127.17-.19.297-.19h2.745c.156 0 .234.084.234.253l.297 13.305a.31.31 0 01-.063.19c-.043.042-.107.063-.192.063h-2c-.17 0-.255-.084-.255-.253l-.17-6.81a22.598 22.598 0 01.021-1.687c.029-.577.05-1.139.064-1.687h-.064a54.651 54.651 0 01-.723 1.665 33.28 33.28 0 01-.766 1.624l-2.616 5.461c-.057.113-.156.169-.298.169h-.085a.289.289 0 01-.277-.169l-2.638-5.524a28.13 28.13 0 01-.765-1.603 99.118 99.118 0 01-.681-1.623h-.064c.028.534.05 1.09.064 1.665.014.563.014 1.118 0 1.666l-.17 6.853c0 .169-.078.253-.234.253h-2.021zM25.869 6.343a2.72 2.72 0 000-3.87 2.778 2.778 0 00-3.905 0L2.704 21.565a2.72 2.72 0 000 3.87 2.778 2.778 0 003.903 0L25.87 6.343zm-2.96 30.192a2.176 2.176 0 000 3.096c.862.855 2.26.855 3.123 0l9.697-9.61a2.176 2.176 0 000-3.097 2.222 2.222 0 00-3.124 0l-9.696 9.611z"/><path d="M22.68 6.343a2.72 2.72 0 010-3.87 2.778 2.778 0 013.904 0l19.261 19.092a2.72 2.72 0 010 3.87 2.778 2.778 0 01-3.904 0L22.68 6.343zm2.959 30.192a2.176 2.176 0 010 3.096 2.222 2.222 0 01-3.124 0l-9.696-9.61a2.176 2.176 0 010-3.097 2.223 2.223 0 013.123 0l9.697 9.611zm-2.436-19.011h-1.772a.588.588 0 00-.591.585v1.757c0 .324.264.586.59.586h1.773a.588.588 0 00.591-.586V18.11a.588.588 0 00-.59-.585zm0 4.126h-1.772a.588.588 0 00-.591.586v1.758c0 .323.264.585.59.585h1.773a.588.588 0 00.591-.585v-1.758a.588.588 0 00-.59-.585zm3.954-4.126h-1.773a.588.588 0 00-.591.585v1.757c0 .324.265.586.59.586h1.774c.326 0 .59-.262.59-.586V18.11a.588.588 0 00-.59-.585zm0 4.126h-1.773a.588.588 0 00-.591.586v1.758c0 .323.265.585.59.585h1.774c.326 0 .59-.262.59-.585v-1.758a.588.588 0 00-.59-.585z"/></g><defs><clipPath id="clip0_136_8474"><path fill="#fff" transform="translate(.75 .5)" d="M0 0h143v41H0z"/></clipPath></defs></svg>