<svg width="138" height="34" fill="none" xmlns="http://www.w3.org/2000/svg"><path d="M45.723 11.179h2.54v4.877h5.775v-4.877h2.54v12.136h-2.54v-5.101h-5.776v5.102h-2.54V11.178zm19.429 12.384a7.15 7.15 0 01-2.315-.371 5.753 5.753 0 01-1.921-1.146c-.54-.517-.967-1.17-1.293-1.944-.326-.776-.483-1.697-.483-2.742v-.461c0-1.012.157-1.888.46-2.63.304-.742.72-1.36 1.249-1.854a5.232 5.232 0 011.853-1.124 6.584 6.584 0 012.214-.37c1.865 0 3.293.494 4.282 1.483 1 .989 1.506 2.416 1.506 4.259v1.28h-8.967c.01.63.111 1.158.302 1.608.203.427.45.775.764 1.056.326.259.687.45 1.091.573.416.124.843.18 1.27.18.876 0 1.517-.135 1.921-.416.416-.27.697-.629.854-1.078h2.54c-.248 1.202-.855 2.123-1.821 2.742-.955.629-2.123.944-3.494.944m-.113-10.44c-.427 0-.842.056-1.247.157-.382.112-.73.28-1.034.528-.292.225-.529.54-.72.922-.18.37-.28.82-.302 1.348h6.427c-.011-.562-.112-1.034-.28-1.416a2.324 2.324 0 00-.653-.921 2.468 2.468 0 00-.988-.484 5.122 5.122 0 00-1.203-.134zm13.52 10.44a6.02 6.02 0 01-2.338-.461 5.386 5.386 0 01-1.877-1.326c-.528-.596-.944-1.326-1.248-2.17-.292-.864-.438-1.865-.438-2.977v-.46c0-1.372.102-2.597.304-3.665.203-1.067.539-1.977 1.011-2.73a4.984 4.984 0 011.945-1.765c.82-.427 1.82-.674 3.022-.73.966-.045 1.855-.079 2.642-.112.786-.045 1.437-.203 1.943-.461V9.01c-.247.135-.697.247-1.36.337-.663.079-1.618.135-2.865.157-.73.012-1.36.101-1.9.248a3.359 3.359 0 00-1.336.73c-.36.337-.64.775-.854 1.326-.202.528-.327 1.191-.394 1.967.36-.72.91-1.293 1.664-1.742.775-.461 1.696-.686 2.775-.686.753 0 1.45.135 2.079.394a4.316 4.316 0 011.663 1.1 4.72 4.72 0 011.068 1.765c.258.686.393 1.461.393 2.338v.528c0 .944-.157 1.798-.461 2.562-.292.753-.697 1.382-1.225 1.9a5.412 5.412 0 01-1.876 1.19 6.503 6.503 0 01-2.338.416m0-2.202c1 0 1.798-.326 2.405-.99.595-.651.9-1.617.9-2.887v-.528c0-1.068-.304-1.9-.922-2.495-.596-.596-1.394-.888-2.383-.888-.989 0-1.786.292-2.404.888-.596.584-.9 1.416-.9 2.495v.528c0 .607.09 1.157.259 1.652.168.472.404.876.697 1.213.314.326.663.573 1.067.753.405.169.831.259 1.292.259m13.744 2.202a7.21 7.21 0 01-2.382-.393 5.554 5.554 0 01-1.9-1.191 5.367 5.367 0 01-1.27-1.922c-.303-.775-.46-1.674-.46-2.697v-.46c0-.956.157-1.81.46-2.54a5.184 5.184 0 011.27-1.877c.54-.517 1.17-.91 1.9-1.169a7.159 7.159 0 012.382-.393c.855 0 1.63.135 2.36.393a5.233 5.233 0 011.921 1.169 5.28 5.28 0 011.27 1.876c.304.731.461 1.585.461 2.54v.461c0 1.023-.157 1.922-.46 2.697a5.366 5.366 0 01-1.27 1.922 5.44 5.44 0 01-1.922 1.191 6.93 6.93 0 01-2.36.393zm0-2.202c.45 0 .866-.079 1.27-.225a3.043 3.043 0 001.09-.708c.326-.326.574-.73.765-1.236.202-.506.303-1.113.303-1.832v-.46c0-.652-.1-1.226-.303-1.698a3.069 3.069 0 00-.765-1.168 2.899 2.899 0 00-1.09-.686 3.437 3.437 0 00-1.27-.225c-.45 0-.877.08-1.292.225a3.19 3.19 0 00-1.09.686 3.7 3.7 0 00-.764 1.168c-.18.472-.28 1.034-.28 1.697v.461c0 .72.089 1.326.28 1.832.202.505.45.921.764 1.236.326.326.685.562 1.09.708.415.157.854.225 1.292.225zm8.092 2.202c-.124 0-.259 0-.416-.022-.135 0-.27-.011-.394-.045V21.09c.079.012.192.023.349.023.326 0 .607-.09.832-.281.236-.202.415-.528.55-1.011.157-.484.27-1.135.349-1.945.078-.809.112-1.831.112-3.068v-3.663h9.249v12.137h-2.541v-9.98h-4.247v1.967c0 1.63-.09 2.99-.259 4.057-.157 1.056-.393 1.888-.719 2.517-.326.63-.731 1.068-1.203 1.326-.472.248-1.033.371-1.662.371zm19.182 0c-.82 0-1.584-.123-2.315-.37a5.753 5.753 0 01-1.921-1.147c-.54-.517-.967-1.169-1.293-1.944-.326-.775-.483-1.697-.483-2.742v-.46c0-1.012.158-1.889.461-2.63.304-.742.719-1.36 1.247-1.855a5.232 5.232 0 011.855-1.123 6.53 6.53 0 012.213-.371c1.866 0 3.293.494 4.282 1.483 1 .99 1.506 2.416 1.506 4.26v1.28h-8.968c.011.63.113 1.158.304 1.607.202.427.449.776.763 1.057.326.258.686.45 1.09.573.416.123.844.18 1.271.18.877 0 1.517-.135 1.922-.416.415-.27.696-.63.853-1.079h2.54c-.247 1.203-.854 2.124-1.821 2.742-.955.63-2.112.944-3.494.944m-.113-10.44c-.427 0-.843.056-1.248.157-.382.113-.73.281-1.045.529-.292.224-.527.54-.718.921-.18.371-.282.82-.304 1.349h6.428c-.011-.562-.112-1.034-.28-1.416a2.33 2.33 0 00-.652-.922 2.47 2.47 0 00-.989-.483 5.124 5.124 0 00-1.203-.135m10.586 5.585c-.922-.27-1.607-.73-2.057-1.348-.449-.63-.673-1.383-.673-2.27 0-1.191.403-2.135 1.201-2.843.798-.72 2.023-1.08 3.653-1.08h5.551v12.138h-2.539v-4.305h-2.642l-2.73 4.305h-2.955l3.191-4.608v.011zm-.135-3.618c0 .64.191 1.101.573 1.37.382.26.911.394 1.574.394h3.124v-3.529h-3.124c-.663 0-1.192.135-1.574.416-.382.259-.573.708-.573 1.349zM38.577 3.604C38.61 10.965 32.61 16.966 25.17 17v-2.652C25.125 6.988 31.126.986 38.566.952v2.652h.01zM25.18 17v2.652c.045 7.36 6.091 13.306 13.53 13.283v-2.652c-.044-7.36-6.102-13.306-13.53-13.283zM.761 3.717c.034 7.36 6.08 13.305 13.52 13.283C6.84 17.034.84 23.023.873 30.395v2.652c7.45-.033 13.451-6.023 13.417-13.395V17l-.022-2.652C14.236 6.988 8.18 1.042.75 1.076v2.652l.011-.011zM19.719 24.81c1.55 0 2.81-1.247 2.81-2.787V18.18h-5.63v3.843c0 1.54 1.258 2.787 2.809 2.787m-2.81-8.788h5.63v-3.764c0-1.54-1.258-2.787-2.81-2.787-1.55 0-2.809 1.247-2.809 2.787v3.764h-.01z" fill="#A1A6AB"/></svg>