<svg width="132" height="32" fill="none" xmlns="http://www.w3.org/2000/svg"><g clip-path="url(#clip0_136_8492)" fill="#A1A6AB"><path fill-rule="evenodd" clip-rule="evenodd" d="M10.834 7.516a4.37 4.37 0 00.982-1.296c.252-.46.387-.977.393-1.505a4.02 4.02 0 00-.051-.639 3.23 3.23 0 00-.214-.723 3.519 3.519 0 00-.405-.758 3.653 3.653 0 00-.682-.699A4.444 4.444 0 009.88 1.3 6.248 6.248 0 008.533.9 9.474 9.474 0 006.764.75H.25v2.318h.78v13.228h5.324a12.54 12.54 0 002.312-.203 7.98 7.98 0 001.775-.508 5.57 5.57 0 001.271-.746 4.365 4.365 0 001.665-2.664 4.11 4.11 0 00-.642-3.07 4.203 4.203 0 00-1.901-1.588zM3.7 3.073h2.462a5.89 5.89 0 011.607.185c.358.08.69.253.966.502.171.172.312.374.416.597.077.207.116.428.115.65v.24c-.1.983-.884 1.614-2.352 1.893a24.356 24.356 0 01-3.203.22L3.7 3.073zm6.907 9.298c-.116.23-.278.434-.474.597a2.436 2.436 0 01-.74.394 5.723 5.723 0 01-.838.245 7.3 7.3 0 01-.907.126c-.353.03-.63.047-.833.047H3.724V9.279l2.63-.12a6.907 6.907 0 013.249.645c.348.143.649.39.862.708.214.32.332.696.34 1.084-.002.271-.07.538-.197.776zm5.213 3.942h10.55v-2.538h-7.873v-4.2h7.294V7.038h-7.294V3.312h7.872V.774H15.82v15.539zM32.622.732h-2.665v15.545h10.29v-2.533h-7.625V.732zM45.278.731h-2.665v15.545h10.29v-2.532h-7.625V.731z"/><path d="M57.944.732h-2.67v15.545h2.67V.732z"/><path fill-rule="evenodd" clip-rule="evenodd" d="M71.485 8.674a10.304 10.304 0 00-1.734-.836 24.436 24.436 0 00-1.901-.633c-.63-.18-1.209-.37-1.735-.555a4.218 4.218 0 01-1.277-.681 1.184 1.184 0 01-.354-.412 1.226 1.226 0 01-.137-.532c0-.543.37-.991 1.104-1.344a6.248 6.248 0 012.664-.525c1.175.023 2.341.208 3.469.55l.404.119.867-2.538-.433-.132A13.82 13.82 0 0068.26.51a8.457 8.457 0 00-4.983 1.332 3.884 3.884 0 00-1.348 1.404 4.041 4.041 0 00-.519 1.905c-.005.493.1.982.307 1.427.196.413.478.776.826 1.063.368.3.767.557 1.19.764.458.236.931.435 1.417.597.491.156.988.305 1.48.448.491.144.965.281 1.416.424.408.13.806.289 1.19.478.315.149.596.362.827.627a1.3 1.3 0 01.307.842 1.57 1.57 0 01-.307.837c-.18.24-.425.421-.705.519a5.798 5.798 0 01-2.641.513 13.43 13.43 0 01-4.417-.985l-.41-.161-.902 2.645.393.156c.803.33 1.628.597 2.468.8.858.195 1.735.29 2.613.28.88.01 1.76-.086 2.619-.286a6.877 6.877 0 001.925-.758c.48-.286.91-.653 1.271-1.087.32-.37.568-.8.729-1.266.147-.416.221-.854.22-1.296a3.292 3.292 0 00-.492-1.792 3.767 3.767 0 00-1.249-1.266zm14.875.036a10.762 10.762 0 00-1.734-.83 21.477 21.477 0 00-1.901-.633 28.19 28.19 0 01-1.735-.556 4.282 4.282 0 01-1.277-.68 1.183 1.183 0 01-.354-.412 1.225 1.225 0 01-.137-.532c0-.543.37-.997 1.104-1.344a6.14 6.14 0 012.664-.525 12.61 12.61 0 013.469.55l.404.119.867-2.538-.433-.132A13.815 13.815 0 0083.14.552a8.456 8.456 0 00-4.989 1.332 3.863 3.863 0 00-1.35 1.4 4.021 4.021 0 00-.517 1.902c-.007.495.1.984.312 1.428.192.415.473.78.821 1.069.37.298.768.554 1.19.764.458.235.932.434 1.417.597.491.161.988.31 1.48.448.491.137.965.28 1.416.43.407.13.804.287 1.19.472a2.5 2.5 0 01.827.633c.2.232.308.532.307.842a1.57 1.57 0 01-.307.836c-.18.242-.425.422-.705.52a5.88 5.88 0 01-2.641.513 13.399 13.399 0 01-4.417-.985l-.41-.162-.902 2.646.393.155c.802.327 1.625.594 2.463.8.86.195 1.738.29 2.618.281.881.011 1.76-.087 2.619-.292a6.799 6.799 0 001.93-.753 5.115 5.115 0 001.266-1.087c.32-.37.569-.8.734-1.266.144-.416.218-.854.22-1.296a3.299 3.299 0 00-.497-1.791A3.787 3.787 0 0086.36 8.71z"/><path d="M94.053.732h-2.67v15.545h2.67V.732z"/><path fill-rule="evenodd" clip-rule="evenodd" d="M105.897 9.66l-5-8.929H97.66v15.545h2.671V4.65l4.254 7.172h2.52l4.277-7.172v11.627h2.665V.731h-3.081l-5.069 8.928zM125.302.732h-2.925l-5.959 15.527h2.584l1.682-4.073h6.144l1.682 4.073h2.74L125.302.732zm-3.693 8.958l2.144-5.763 2.14 5.763h-4.284z"/><path d="M50.308 28.632c.006.35-.061.699-.197 1.021a1.98 1.98 0 01-.613.782c-.317.24-.68.411-1.063.502a5.788 5.788 0 01-1.538.18 6.09 6.09 0 01-1.393-.144 3.307 3.307 0 01-1.034-.43 2.35 2.35 0 01-.7-.71 2.965 2.965 0 01-.387-.974l1.607-.275c.042.176.108.345.196.502.09.157.212.292.359.394.176.121.371.208.578.257.27.064.548.095.826.09.447.027.892-.063 1.295-.264.144-.08.262-.2.342-.347a.914.914 0 00.109-.483.86.86 0 00-.18-.555 1.358 1.358 0 00-.479-.352 3.811 3.811 0 00-.694-.24l-.809-.178-.665-.186a6.397 6.397 0 01-.647-.209 3.261 3.261 0 01-.578-.292 1.843 1.843 0 01-.462-.418 2.023 2.023 0 01-.307-.598 2.622 2.622 0 01-.11-.782 2.208 2.208 0 01.237-1.05c.16-.29.387-.534.66-.711a2.93 2.93 0 011-.406 5.677 5.677 0 011.271-.132c.448-.007.896.035 1.335.126.33.068.645.198.93.382.24.165.437.386.579.645.153.282.26.589.318.907l-1.613.227a1.323 1.323 0 00-.509-.8c-.33-.2-.71-.293-1.092-.269a2.77 2.77 0 00-.728.084 1.206 1.206 0 00-.463.209.825.825 0 00-.248.31 1.03 1.03 0 00-.07.377.85.85 0 00.139.501c.104.14.239.253.393.329.186.091.38.166.578.22l.78.18.74.173c.237.058.47.13.7.215.215.079.422.179.618.299.19.113.36.258.503.43.144.177.256.379.33.597.102.276.155.57.156.866zm5.048-4.521v6.892h-1.665V24.11h-2.566v-1.326h6.803v1.326h-2.572zm7.239 7.006c-.46.005-.92-.056-1.364-.18a2.864 2.864 0 01-1.07-.597 2.52 2.52 0 01-.699-.997 3.74 3.74 0 01-.254-1.445v-5.136h1.688v5.058c-.007.304.036.607.127.896.071.224.192.429.353.597.162.165.36.288.578.359.235.076.481.114.728.113a2.28 2.28 0 00.746-.12c.216-.078.414-.204.578-.37.17-.182.3-.4.381-.639a2.86 2.86 0 00.133-.913v-4.945h1.665v5.022a3.69 3.69 0 01-.266 1.47 2.676 2.676 0 01-.74 1.02c-.33.277-.712.48-1.121.598a5.18 5.18 0 01-1.463.209zm12.599-4.283a5.087 5.087 0 01-.3 1.792 3.77 3.77 0 01-.821 1.302 3.4 3.4 0 01-1.226.794 4.276 4.276 0 01-1.526.269h-3.22v-8.206h2.89a5.66 5.66 0 011.7.24c.49.147.944.397 1.335.734.382.343.679.775.868 1.26a4.77 4.77 0 01.3 1.815zm-1.676 0a3.57 3.57 0 00-.191-1.236 2.268 2.268 0 00-.526-.842 2.136 2.136 0 00-.815-.484 3.185 3.185 0 00-1.04-.16H69.79v5.559h1.41a2.36 2.36 0 00.93-.18c.285-.118.538-.304.74-.543.219-.258.386-.558.492-.884.116-.398.168-.814.156-1.23zm3.392 4.169v-8.218h1.665v8.218H76.91zm11.409-4.151a5.22 5.22 0 01-.278 1.75 3.847 3.847 0 01-.797 1.35 3.56 3.56 0 01-1.266.866 4.566 4.566 0 01-1.688.298 4.408 4.408 0 01-1.734-.316 3.43 3.43 0 01-1.249-.884c-.34-.39-.595-.85-.751-1.35a5.59 5.59 0 01-.255-1.714 5.313 5.313 0 01.266-1.737 3.65 3.65 0 01.769-1.32 3.348 3.348 0 011.26-.836 4.686 4.686 0 011.734-.299 4.63 4.63 0 011.734.299 3.36 3.36 0 011.26.848c.347.378.611.828.775 1.32.169.558.243 1.141.22 1.725zm-1.7 0a4.259 4.259 0 00-.15-1.164 2.478 2.478 0 00-.445-.896 1.869 1.869 0 00-.723-.597 2.31 2.31 0 00-1-.203 2.4 2.4 0 00-1.023.203c-.287.134-.537.34-.728.597a2.469 2.469 0 00-.44.896 4.27 4.27 0 00-.15 1.164c-.005.404.046.806.15 1.195.088.334.24.646.446.92.195.254.444.458.728.597.315.148.66.222 1.006.215.36.01.718-.066 1.046-.221.286-.136.535-.34.728-.598a2.7 2.7 0 00.422-.925 4.87 4.87 0 00.133-1.183z"/></g><defs><clipPath id="clip0_136_8492"><path fill="#fff" transform="translate(.25 .5)" d="M0 0h131v31H0z"/></clipPath></defs></svg>