<svg width="133" height="18" fill="none" xmlns="http://www.w3.org/2000/svg"><g clip-path="url(#clip0_136_8514)"><path d="M17.076 15.342a1.423 1.423 0 01-.428 1.04 1.416 1.416 0 01-.462.299c-.18.074-.376.11-.586.11H5.028c-.27 0-.564-.029-.88-.088a4.514 4.514 0 01-1.792-.808 3.82 3.82 0 01-.743-.763c-.21-.303-.38-.65-.507-1.04a4.374 4.374 0 01-.192-1.34V4.96c0-.265.03-.55.09-.852.068-.31.17-.612.305-.907.135-.303.311-.59.53-.864.217-.273.476-.513.777-.72a3.894 3.894 0 011.06-.508A4.496 4.496 0 015.027.92H16.94v2.877H5.028c-.383 0-.676.1-.88.299-.202.2-.304.494-.304.885v7.77c0 .369.102.657.305.863.21.2.503.3.879.3h9.118v-3.609h-7.8v-2.9H15.6c.21 0 .405.04.586.122.18.074.334.177.462.31a1.423 1.423 0 01.428 1.018v6.486zm21.513-9.087c0 .657-.083 1.243-.248 1.76a4.88 4.88 0 01-.676 1.372 4.624 4.624 0 01-.97 1.008 6.04 6.04 0 01-1.16.697 5.688 5.688 0 01-1.217.387 5.875 5.875 0 01-1.15.122l6.12 5.19h-4.53l-6.11-5.19h-2.107V8.723h6.627a3.51 3.51 0 001.003-.221 2.51 2.51 0 00.789-.498 2.08 2.08 0 00.518-.742c.12-.295.18-.63.18-1.007V4.44c0-.162-.022-.284-.067-.365a.367.367 0 00-.158-.188.402.402 0 00-.203-.078 1.77 1.77 0 00-.191-.01h-9.67v12.993h-2.93V2.37c0-.199.037-.387.112-.564.075-.177.177-.332.305-.465.135-.133.292-.236.473-.31.18-.074.375-.11.586-.11h11.124c.654 0 1.206.118 1.657.354.45.228.815.52 1.093.874.285.347.488.723.608 1.129.128.406.192.786.192 1.14v1.837zm22.212 4.117c0 .967-.17 1.856-.507 2.668a6.314 6.314 0 01-1.409 2.103 6.45 6.45 0 01-2.142 1.383c-.818.325-1.713.487-2.682.487h-3.967c-.97 0-1.867-.162-2.694-.487a6.449 6.449 0 01-2.141-1.383 6.455 6.455 0 01-1.42-2.103c-.338-.812-.507-1.701-.507-2.668V7.34c0-.96.169-1.845.507-2.656a6.303 6.303 0 011.42-2.103A6.448 6.448 0 0147.4 1.197 7.16 7.16 0 0150.094.7h3.967c.97 0 1.864.166 2.682.498a6.45 6.45 0 012.142 1.384 6.169 6.169 0 011.409 2.103c.338.811.507 1.697.507 2.656v3.032zM57.87 7.34c0-.568-.094-1.081-.282-1.539a3.24 3.24 0 00-.778-1.184 3.314 3.314 0 00-1.206-.763 4.16 4.16 0 00-1.544-.277h-3.967a4.28 4.28 0 00-1.567.277 3.447 3.447 0 00-1.206.763c-.338.325-.6.72-.788 1.184-.18.458-.271.97-.271 1.539v3.032c0 .569.09 1.085.27 1.55a3.5 3.5 0 00.79 1.184c.338.325.74.58 1.205.764a4.44 4.44 0 001.567.265h3.945c.57 0 1.09-.088 1.555-.265.473-.185.88-.44 1.217-.764.338-.332.597-.727.778-1.184.188-.465.282-.982.282-1.55V7.34zm23.665 4.781a4.92 4.92 0 01-.225 1.538c-.143.45-.334.849-.575 1.196a3.844 3.844 0 01-.845.885 5.068 5.068 0 01-2.063.94 4.827 4.827 0 01-1.002.112H65.52v-2.878h11.305c.563 0 .999-.162 1.306-.487.316-.325.474-.76.474-1.306a2.06 2.06 0 00-.124-.73 1.65 1.65 0 00-.36-.576 1.506 1.506 0 00-.564-.376 1.926 1.926 0 00-.733-.133h-6.74c-.473 0-.984-.081-1.532-.243a4.776 4.776 0 01-1.533-.808c-.466-.37-.857-.853-1.172-1.45-.308-.598-.462-1.328-.462-2.192 0-.863.154-1.59.462-2.18.315-.598.706-1.081 1.172-1.45a4.502 4.502 0 011.533-.808 5.206 5.206 0 011.533-.254h9.974v2.877h-9.974c-.556 0-.992.166-1.308.498-.308.332-.462.771-.462 1.317 0 .554.154.993.462 1.317.316.318.752.476 1.308.476h6.763c.316.008.65.052 1.003.133.353.074.703.192 1.048.354a4.89 4.89 0 011.003.62c.316.243.594.539.835.885.247.347.442.746.585 1.196.143.45.214.959.214 1.527zm20.274 0c0 .568-.075 1.081-.225 1.538-.143.45-.335.849-.575 1.196a3.848 3.848 0 01-.846.885 5.062 5.062 0 01-2.062.94 4.828 4.828 0 01-1.003.112H85.794v-2.878H97.1c.563 0 .999-.162 1.307-.487.316-.325.474-.76.474-1.306 0-.266-.042-.509-.124-.73a1.639 1.639 0 00-.361-.576 1.504 1.504 0 00-.563-.376 1.93 1.93 0 00-.733-.133h-6.74c-.473 0-.984-.081-1.533-.243a4.785 4.785 0 01-1.533-.808c-.466-.37-.856-.853-1.172-1.45-.308-.598-.462-1.328-.462-2.192 0-.863.154-1.59.462-2.18.316-.598.706-1.081 1.172-1.45a4.51 4.51 0 011.533-.808A5.208 5.208 0 0190.36.921h9.974v2.877H90.36c-.556 0-.992.166-1.307.498-.308.332-.463.771-.463 1.317 0 .554.155.993.463 1.317.315.318.75.476 1.307.476h6.76c.316.008.65.052 1.003.133a4.75 4.75 0 011.049.354c.353.163.687.37 1.003.62.315.243.593.539.834.885.248.347.443.746.585 1.196.143.45.215.959.215 1.527zm7.695 4.67h-2.93V.922h2.93v15.87zM131.39 6.255c0 .657-.083 1.243-.249 1.76a4.909 4.909 0 01-.676 1.372 4.627 4.627 0 01-.969 1.008 6.03 6.03 0 01-1.161.697 5.685 5.685 0 01-1.217.387 5.88 5.88 0 01-1.15.122l6.12 5.19h-4.531l-6.109-5.19h-2.107V8.723h6.627a3.51 3.51 0 001.004-.221c.308-.125.57-.292.788-.498.226-.207.398-.454.519-.742.12-.295.18-.63.18-1.007V4.44c0-.162-.022-.284-.068-.365a.366.366 0 00-.157-.188.406.406 0 00-.204-.078 1.752 1.752 0 00-.191-.01h-9.67v12.993h-2.93V2.37c0-.199.037-.387.112-.564.075-.177.177-.332.305-.465.135-.133.292-.236.473-.31.18-.074.376-.11.586-.11h11.124c.654 0 1.206.118 1.657.354.451.228.815.52 1.093.874.286.347.488.723.609 1.129.127.406.192.786.192 1.14v1.837z" fill="#A1A6AB"/></g><defs><clipPath id="clip0_136_8514"><path fill="#fff" transform="translate(.75 .5)" d="M0 0h132v17H0z"/></clipPath></defs></svg>