<svg width="150" height="32" fill="none" xmlns="http://www.w3.org/2000/svg"><path d="M15.685 12.48c-.829 1.775-2.661 2.486-4.52 2.502a497.57 497.57 0 01-8.844-.003c-.081-.001-.093-.03-.035-.088L16.117 1.034c.054-.055.081-.043.082.033.064 4.038.068 7.184.01 9.438-.016.606-.19 1.264-.524 1.975zm4.355 2.009c-1.735-.754-2.645-2.098-2.731-4.03-.08-1.774-.079-4.911.005-9.411 0-.055.019-.063.058-.024L31.219 14.88c.05.05.04.076-.032.077-4.312.053-7.411.057-9.297.013-.525-.012-1.142-.172-1.85-.481zm-6.558 2.019c2.01.77 2.822 2.708 2.765 4.745-.081 2.887-.012 5.783-.04 8.674-.002.083-.032.096-.092.036L2.26 16.073a.033.033 0 01.023-.057 385.68 385.68 0 019.188.025c.548.007 1.218.163 2.01.467zm3.771 4.75c-.09-3.086 1.643-4.89 4.676-5.192.184-.018.831-.033 1.941-.046a298.21 298.21 0 017.308.005c.082 0 .094.03.036.09L17.373 29.97c-.05.049-.076.038-.076-.032-.028-2.893.04-5.79-.044-8.68zM38.25 22V10h2.564v9.703h3.206V10h2.564v9.703h3.222V10h2.548v12H38.25zm22.363-6.171c1.122.068 2.025.337 2.708.805.695.469 1.042 1.183 1.042 2.143 0 1.063-.411 1.869-1.234 2.417-.812.537-1.843.806-3.093.806h-5.257V10h5.128c1.208 0 2.19.24 2.95.72.758.48 1.138 1.251 1.138 2.314 0 1.715-1.128 2.646-3.382 2.795zm-3.206-3.652v2.692h2.228c.588 0 1.02-.12 1.298-.36.289-.252.433-.583.433-.995 0-.891-.572-1.337-1.715-1.337h-2.244zm2.404 7.646c1.282 0 1.924-.48 1.924-1.44 0-.972-.604-1.457-1.812-1.457h-2.516v2.897h2.404zM73.437 22l-.721-2.623h-4.392L67.604 22h-2.597l3.526-12h4.055l3.526 12h-2.677zm-1.33-4.749l-1.587-5.708-1.587 5.708h3.174zM77.49 22V10h5.049c.769 0 1.453.12 2.051.36.61.24 1.117.663 1.523 1.269.416.594.625 1.348.625 2.262 0 1.326-.38 2.286-1.138 2.88-.759.583-1.753.875-2.981.875h-2.5V22h-2.63zm2.628-6.514h2.1c1.26 0 1.891-.532 1.891-1.595 0-1.062-.63-1.594-1.891-1.594h-2.1v3.189zm13.345-.84c.598 0 1.143.068 1.634.205.503.126.962.326 1.379.6.416.275.742.658.977 1.149.236.48.353 1.051.353 1.714 0 1.28-.411 2.217-1.234 2.812-.812.583-1.849.874-3.11.874h-5V10h8.446v2.177H91.09v2.469h2.373zm-.225 5.177c1.293 0 1.94-.509 1.94-1.526 0-1.006-.647-1.508-1.94-1.508H91.09v3.034h2.148zM106.854 22l-.721-2.623h-4.391L101.02 22h-2.596l3.526-12h4.055l3.526 12h-2.677zm-1.33-4.749l-1.587-5.708-1.586 5.708h3.173zM110.683 22v-2.897h2.74V22h-2.74zm12.421-12h2.5v12h-4.408l-3.077-10.097V22h-2.516V10h4.407l3.094 10.097V10zm4.911 12V10h8.51v2.194h-5.882v2.675h4.584v2.057h-4.584v2.88h6.107V22h-8.735zm9.731-9.703V10h9.504v2.297h-3.43V22h-2.628v-9.703h-3.446z" fill="#A1A6AB"/></svg>