<svg width="136" height="40" fill="none" xmlns="http://www.w3.org/2000/svg"><g clip-path="url(#clip0_136_8530)" fill="#A1A6AB"><path d="M36.951 33.5v6h-1.36v-4.813h-1.434l-.096 1.945c-.04.734-.13 1.312-.266 1.736-.137.42-.337.638-.6.836-.264.194-.72.293-1.177.296h-.346v-1.066l.201-.02c.304-.043.52-.227.649-.551.132-.328.215-.773.25-1.608l.1-2.755h4.08zm-35.447 0h2.215l1.56 4.112L6.84 33.5h2.206v6H7.534v-4.515L5.78 39.5H4.644l-1.763-4.523V39.5H1.504v-6zm9.051 6v-6h5.116v1.083h-3.506v1.35h2.67v1h-2.67v1.484h3.669V39.5h-5.28zm6.789 0v-6h5.409v1.032h-3.758v1.318h1.46c1.024 0 1.754.137 2.192.41.487.303.73.773.73 1.41 0 .74-.32 1.254-.963 1.545-.43.19-1.083.285-1.958.285h-3.112zm1.651-1.024h1.482c.847 0 1.27-.268 1.27-.805 0-.549-.423-.823-1.27-.823h-1.482v1.628zm5.888 1.024v-6h5.116v1.083h-3.506v1.35h2.67v1h-2.67v1.484h3.67V39.5h-5.28zm13.577 0v-6h1.485v2.098h1.18c.913 0 1.566.145 1.959.436.438.325.656.831.656 1.52 0 .788-.285 1.336-.856 1.644-.387.201-.973.302-1.76.302h-2.663zm1.485-.999h1.198c.761 0 1.142-.316 1.142-.948 0-.638-.38-.956-1.142-.956h-1.198V38.5zm5.301.999v-6h1.427v2.434h2.426V33.5h1.426v6H49.1v-2.484h-2.426V39.5h-1.427zm13.577 0H57.18l-.444-1.141h-2.8l-.453 1.141h-1.449l2.53-6h1.777l2.48 6zm-2.453-2.098l-1.023-2.635-1.043 2.635h2.066zm9.996 2.098h-1.617v-2.29h-1.092c-.431 0-.734.097-.91.293-.08.09-.144.187-.192.294a3.55 3.55 0 00-.171.545c-.142.537-.3.923-.475 1.158h-1.577c.169-.201.344-.652.526-1.351.114-.459.252-.783.414-.974.168-.19.438-.335.809-.436a3.048 3.048 0 01-.597-.201 1.478 1.478 0 01-.384-.286c-.256-.28-.384-.635-.384-1.065 0-.627.293-1.086.88-1.377.229-.117.485-.198.767-.243a7.74 7.74 0 011.153-.067h2.85v6zm-1.617-3.29V34.5h-1.274c-.431 0-.741.067-.93.201-.188.129-.283.341-.283.638 0 .581.391.873 1.173.873h1.314zm10.665 3.29v-6h1.413v2.585l2.145-2.585h1.571l-2.172 2.543 2.322 3.457h-1.58l-1.677-2.467-.61.705V39.5h-1.412zm9.841-6c.869 0 1.582.28 2.138.839.563.559.844 1.272.844 2.14 0 .89-.281 1.618-.844 2.182-.562.56-1.292.839-2.19.839-.887 0-1.609-.277-2.165-.83-.557-.554-.835-1.273-.835-2.158 0-.879.284-1.6.852-2.165.574-.565 1.307-.847 2.2-.847zm-.018 1.05c-.498 0-.886.171-1.165.513-.278.342-.417.822-.417 1.441 0 .608.14 1.086.417 1.433.278.342.664.513 1.156.513.493 0 .876-.171 1.148-.513.272-.342.409-.82.409-1.433 0-.602-.14-1.077-.417-1.425-.279-.352-.655-.529-1.13-.529zm4.505-1.05h2.437l1.716 4.112 1.717-4.112h2.426v6h-1.663v-4.515L94.447 39.5h-1.25l-1.94-4.523V39.5h-1.515v-6zm9.805 6v-4.917h.028V33.5h5.251v6h-1.482v-4.917h-2.315V39.5h-1.482zm13.577 0h-1.641l-.445-1.141h-2.8l-.453 1.141h-1.449l2.529-6h1.778l2.481 6zm-2.452-2.098l-1.024-2.635-1.043 2.635h2.067zm3.961 2.098v-6h1.834v2.434h3.119V33.5h1.835v6h-1.835v-2.484h-3.119V39.5h-1.834zm8.297 0v-6h1.44v3.634l2.4-3.105V33.5h1.439v6h-1.439v-3.676l-2.4 3.105v.571h-1.44zm12.818 0h-1.617v-2.29h-1.091c-.432 0-.735.097-.91.293a1.12 1.12 0 00-.192.294c-.047.1-.104.282-.171.545-.142.537-.3.923-.475 1.158h-1.577c.168-.201.344-.652.526-1.351.114-.459.252-.783.414-.974.168-.19.438-.335.809-.436a3.032 3.032 0 01-.597-.201 1.492 1.492 0 01-.384-.286c-.256-.28-.384-.635-.384-1.065 0-.627.293-1.086.879-1.377.23-.117.486-.198.768-.243a7.755 7.755 0 011.153-.067h2.849v6zm-1.617-3.29V34.5h-1.273c-.431 0-.741.067-.93.201-.189.129-.282.341-.282.638 0 .581.39.873 1.172.873h1.313zM2.094.513c-.929 0-.87.795-.87 1.818v23.562c0 .41.309.511.463.511H3.95c.325 0 .445-.34.464-.51-.02-6.573-.046-14.472 0-15.153.058-.853.87-1.876 1.16-2.103.232-.182.29.152.29.341v16.914c0 .364.31.493.465.511h2.378c.371 0 .426-.34.406-.51V.683c-.116-.399-.425-.058-.58.17C7.025 3.07 4.994 6.422 4.646 6.536c-.22.072-.232-.265-.232-.455v-3.75c0-1.591-.58-1.818-.986-1.818H2.094zM61.618.57c-1.902 0-2.456 1.893-2.494 2.84.02 7.766.058 18.392.058 20.438 0 2.045 1.818 2.519 2.727 2.5h4.872c.29 0 .233-.341.233-1.023 0-.546-.174-.682-.522-.682h-3.655c-.604 0-.697-.398-.697-.966V12.369c0-.455.349-.53.58-.511h3.946c.464 0 .406-1.194.174-1.535-.186-.272-.87-.17-1.219-.17h-2.668c-.696 0-.87-.398-.87-.625V3.183c0-.5.464-.625.696-.625h3.016c.697 0 1.16-.454 1.16-1.193 0-.591-.773-.777-1.16-.796h-4.177z"/><path fill-rule="evenodd" clip-rule="evenodd" d="M39.98 1.82c-.059-.417.023-1.25.812-1.25h4.234c1.567 0 2.785 1.534 2.785 2.954v14.32c0 1.192-.174 3.465-1.856 3.465h-2.437c-.212 0-.638.114-.638.568v3.96c0 .17-.093.51-.464.51h-1.798c-.213 0-.639-.102-.639-.51V1.818zm3.654.681c-.557 0-.812.512-.812 1.194v15.341c0 .455.31.569.464.569h.986c.186 0 .194-.493.174-.74V3.24c0-.455-.348-.739-.812-.739zm5.86-.625c.058-.435.429-1.307 1.45-1.307 1.276 0 1.508.966 1.508 1.307v7.842c0 .208.093.625.464.625.055 0 .15-.01.277-.02.941-.087 3.593-.33 3.9 1.724.279 1.864.27 7.084.232 9.319-.004.24-.002.79 0 1.494.005 2.125.015.234-.116.874-.01.047-.02.104-.031.168-.126.7-.41 2.28-1.941 2.446-1.671.181-4.216.113-5.28.056-.115.02-.347-.102-.347-.738 0-.637-.078-14.32-.116-23.79zm3.77 10.171c-.65 0-.812.796-.812 1.194.02 5.284.059 10.493.059 10.72 0 .284 0 .739.753.739.604 0 .716-.682.696-1.023V13.07c.04-.34-.046-1.023-.696-1.023zm15.49-10.568c-.019-.304.081-.91.638-.91h4.526a2.758 2.758 0 012.726 2.785v14.773c0 .796-.174 2.67-1.392 3.125-.673.251-1.717.207-2.325.182-.142-.006-.26-.011-.344-.011l-.093-.001c-.341-.006-.777-.013-.777.569v3.788c.02.19-.047.569-.464.569h-2.263c-.077 0-.232-.103-.232-.512V1.48zm3.77 1.08c-.695 0-.83.567-.811.851v15.342c0 .341.023 1.023.812 1.023.79 0 .812-.795.812-1.023V3.41c.02-.284-.115-.852-.812-.852z"/><path d="M29.888 1.36c.29-.322.87-.79 2.433-.79h4.526c.406 0 1.218.158 1.218.795 0 .795-.29 1.193-1.218 1.193h-3.655c-.213-.019-.638.102-.638.739V9.47c.019.227.208.682.812.682H37.6c.154 0 .464.09.464.454v.853c0 .151-.093.454-.464.454h-4.235c-.271-.018-.812.057-.812.512V23.96c-.02.209.046.625.464.625h4.64c.155 0 .465.091.465.455v.909c0 .114-.093.34-.464.34h-5.686c-.928-.018-2.784-.51-2.784-2.329V3.183c0-.963.53-1.635.7-1.823zM11.55.513c-.51 0-.754.681-.812 1.022.019 9.774.058 23.994.058 24.358 0 .364.31.493.464.511a224.49 224.49 0 012.726-.056c.372 0 .426-.38.406-.569V12.56c0-.724.838-.628 1.232-.583.07.008.126.014.16.014.186 0 .272.38.29.569v13.22c0 .455.349.569.523.569h2.205c.556 0 .657-.38.638-.569V1.346c0-.173-.038-.518-.193-.63-.088-.087-.226-.146-.445-.146h-1.915c-.603 0-.754.493-.754.74v8.466c0 .363-.232.492-.348.51H14.74c-.372 0-.503-.34-.522-.51V1.308c0-.682-.542-.814-.813-.795H11.55z"/><path d="M20.313.57h8.122c.3 0 .87.06.87.624 0 1.137-.053 1.364-.87 1.364H26.81c-.232-.019-.696.102-.696.739v22.482c0 .19-.081.569-.406.569h-2.553a.542.542 0 01-.464-.569V3.07c-.038-.17-.22-.51-.638-.51h-1.74c-.737.025-.737-.77-.737-1.365 0-.375.3-.625.737-.625z"/><path fill-rule="evenodd" clip-rule="evenodd" d="M88.886 16.538c-.294-.151-.97-.273-1.324.455-.353.728-2.291 4.334-3.216 6.045-.378.65-.984 2.08-.378 2.6.605.52 1.891-.26 2.459-.715l3.09-2.34c.189-.108.567-.234.567.13 0 .189-.14.478-.296.798-.22.452-.471.967-.397 1.348-.021.346 0 1.053.252 1.105.315.065 1.324-.065 1.892-.455.567-.39.82.065.693.325-.1.208-.925 1.603-1.324 2.275-.21.26-.504.845 0 1.105.63.325 1.387.65 1.45 0 .063-.65.757-2.86.946-3.12.055-.076.121-.29.2-.544.19-.617.452-1.469.81-1.146.062.433.675 1.346 1.634 1.45 1.198.13 3.6-.15 4.671-.8.857-.52.988 0 .946.325-.042.195 0 .585.504.585.631 0 1.198 0 1.261-.455.063-.456 1.324-3.38 3.153-3.446.42-.108 1.299-.364 1.451-.52.189-.195.756-.065.567.325l-.078.152c-.378.73-1.705 3.285-.489 3.684.667.218 1.494.182 2.216.15.779-.035 1.433-.064 1.63.24.302.468.757.151.946-.065.147-.325.568-1.093 1.072-1.56.097-.09.264-.255.481-.467 1.191-1.167 3.87-3.794 4.564-3.629.498.119-.127.998-.788 1.926-.208.293-.419.59-.6.87-.504.715-1.69 2.548-.883 2.86 1.055.407 1.502-.229 1.795-.646a4.47 4.47 0 01.097-.134c1.156-1.495 3.834-4.356 4.54-4.096.657.242.093 1.194-.243 1.763l-.072.122c-.042.073-.089.151-.14.235-.476.79-1.214 2.014-.302 2.626 1.009.676 2.397.021 2.964-.39.336-.217.946-.494.694.13-.484.758-1.551 2.535-1.955 3.575-.15.386-.344.761-.521 1.1-.416.803-.73 1.409-.11 1.5a1.535 1.535 0 001.388-.52l6.494-10.336c.505-.845 1.514-1.43 1.892-.91.126.173-.096.698-.387 1.383-.584 1.377-1.443 3.404-.306 4.533.908.26 2.017-.174 2.459-.455.42-.195 1.223-.832 1.072-1.82-.021-.174-.189-.416-.694 0-.63.52-1.576.325-1.261-.39.315-.716 1.766-4.616.379-5.46-1.11-.677-2.229.628-2.649 1.364-.668 1.17-2.018 2.34-1.639 1.17.072-.223.217-.581.396-1.018.637-1.565 1.687-4.14 1.243-5.157-.126-.26-.29-.442-.946.65-.656 1.092-2.291 5.135-3.026 7.02-.169.629-.946 1.912-2.712 2.016-1.11.155-.589-1.106-.189-1.756.504-.91 1.248-2.834.189-3.25-1.059-.416-2.669.997-3.342 1.755-.399.239-1.047.455-.442-.585.757-1.3.694-2.015.253-2.405-.442-.39-1.388-.195-2.648 1.105a29.63 29.63 0 01-2.397 2.21c-.294.044-.757-.013-.252-.585l1.198-2.34c.231-.346.58-1.13.126-1.495-.454-.364-1.408.845-1.829 1.495l-3.216 4.875c-.378.52-2.75 2.08-2.585.26.097-1.066.492-2.046.846-2.924.336-.835.635-1.577.605-2.21-.253-.39-.82-1.067-1.072-.65-.316.52-.631 1.104-.694 1.69-.063.584-.252 1.104-1.135 1.3-.185.04-.423.11-.679.184-.963.282-2.179.637-1.78-.185.131-.27.258-.542.38-.801.346-.737.648-1.38.881-1.669.315-.39.252-.845-.126-1.17a3.16 3.16 0 01-.103-.09c-.324-.287-.563-.5-.906.09-.303.52-2.354 4.334-3.342 6.175-.084.304-.442.923-1.198.976-.946.064-1.577.194-2.334.52-.756.325-2.9.064-2.459-.846.442-.91.694-1.04 1.45-1.17.757-.13 1.703-.455 2.271-.845l.149-.1c.733-.489 2.652-1.768 2.184-3.215-.505-1.56-1.198-1.625-2.396-1.56-1.198.065-3.153 1.885-3.784 2.73-.114.153-.267.4-.456.706-.854 1.383-2.436 3.943-4.4 4.17-.293 0-.819-.143-.567-.716.316-.715 1.44-3.641 1.577-4.485.126-.78-.126-1.95-.883-1.365-.697.54-2.09 2.623-2.749 3.609l-.152.226c-.454.676-1.534 1.279-2.017 1.495-.274.065-.72.026-.316-.65.505-.845 2.9-5.492 2.207-5.85zm8.828 4.095c-.403.572-.126.802.063.845.82.113 1.733-.603 2.25-1.008.079-.063.15-.118.21-.162.441-.325 1.576-1.885.441-2.145-1.068-.244-2.303 1.525-2.866 2.33l-.098.14z"/></g><defs><clipPath id="clip0_136_8530"><path fill="#fff" transform="translate(.75 .5)" d="M0 0h135v39H0z"/></clipPath></defs></svg>