<svg width="136" height="34" fill="none" xmlns="http://www.w3.org/2000/svg"><path fill-rule="evenodd" clip-rule="evenodd" d="M.75 13.337v19.274h5.189v-6.497l2.18-1.614 7.413 8.11h5.058v-1.133l-8.895-9.55 8.895-7.456v-1.134h-5.058l-9.593 7.5v-7.5H.75zm20.93 10.378c0 5.233 2.311 9.462 10.727 9.462h1.047c8.372 0 10.726-4.273 10.726-9.462v-1.482c0-5.233-2.31-9.463-10.727-9.463h-1.046c-8.372 0-10.727 4.274-10.727 9.463v1.482zm5.19-.741c0-2.922 0-5.582 6.06-5.582 6.061 0 6.061 2.66 6.061 5.582 0 2.921 0 5.625-6.06 5.625-6.062 0-6.062-2.704-6.062-5.625zm25.508-9.637h-5.189v19.274h5.189V20.227L62.494 32.61h5.19V13.337h-5.19v12.384L52.378 13.337zm19.84 0v19.274h5.19V13.337h-5.19zm24.637 9.593v5.538c-1.308.13-2.53.174-3.532.174-6.89 0-6.89-2.398-6.89-5.668s0-5.625 6.89-5.625c2.137 0 5.32.305 8.154 1.046v-4.709c-2.53-.61-5.233-.96-8.023-.96h-1.047c-8.808 0-11.293 4.274-11.293 9.463v1.483c0 5.232 2.485 9.462 11.293 9.462h1.047c2.921 0 5.886-.349 8.59-.916v-9.331h-5.19v.043zm9.2-9.593v19.274h5.189V13.337h-5.189zm14.39 0h-5.189v19.274h5.189V20.227l10.116 12.384h5.189V13.337h-5.189v12.384l-10.116-12.384zM23.86 7.8h18.182v2.572H23.86V7.8zm0-6.454l5.45 5.233h-5.45V1.346zm12.557 5.233L42 1.259l.043.043v5.233h-5.625v.044zM32.886.823L29.31 6.579h7.107L32.886.823z" fill="#A1A6AB"/></svg>