<svg width="144" height="36" fill="none" xmlns="http://www.w3.org/2000/svg"><g clip-path="url(#clip0_136_8554)" fill-rule="evenodd" clip-rule="evenodd" fill="#A1A6AB"><path d="M18.623 7.289c3.115 0 5.936 1.206 7.972 3.158l-4.148 3.928-3.416-3.33-8.013 7.051 2.45-.005.044 5.993 3.766.05V21.68c0-.54.56-.425 1.75-.41h.018c1.19-.018 1.75-.13 1.75.41v2.456l3.693-.051 1.742 1.806c-2.002 1.75-4.67 2.821-7.603 2.821-6.21 0-11.245-4.794-11.245-10.71 0-5.917 5.029-10.712 11.24-10.712zm-5.178 7.31L15.437 13l.024-.864h-2.02V14.6h.004z"/><path d="M18.622.5c5.09 0 9.697 1.971 13.026 5.157L29.177 8c-2.696-2.583-6.43-4.18-10.555-4.18C10.4 3.82 3.733 10.168 3.733 18c0 7.831 6.666 14.18 14.89 14.18 3.882 0 7.415-1.415 10.067-3.732l2.357 2.444c-3.27 2.86-7.632 4.608-12.422 4.608C8.476 35.5.25 27.666.25 18S8.476.5 18.622.5zm19.68 19.802c-1.56 0-2.888-.52-3.985-1.566-1.097-1.045-1.645-2.325-1.645-3.843 0-1.518.548-2.801 1.645-3.857 1.097-1.054 2.424-1.584 3.985-1.584.295 0 .569.015.823.046.254.03.504.085.758.167l.204-.286 1.756.98-1.187 2.2c-.77-.674-1.555-1.008-2.357-1.008-.887 0-1.633.323-2.246.963-.613.643-.916 1.436-.916 2.382 0 .946.306 1.708.916 2.35a2.98 2.98 0 002.246.963c.94 0 1.698-.32 2.278-.962l.934 2.124c-.928.623-1.998.934-3.212.934l.003-.003zm5.963-.285V11.85h-2.182l.744-2.093h4.224l.268-.467h2.135l-.965 2.56h-1.9v8.165h-2.324zm6.041 0h2.325v-3.105h1.345c.948 0 1.75-.365 2.404-1.098.653-.734.98-1.623.98-2.668 0-.935-.341-1.734-1.027-2.396-.685-.663-1.488-.995-2.404-.995h-3.845l-.79 2.093h1.012v8.169zm2.325-8.166h.712c.443 0 .811.145 1.108.436.295.292.444.649.444 1.071 0 .422-.152.759-.458 1.04-.306.28-.674.421-1.109.421h-.697v-2.968zm11.074 8.451c-1.56 0-2.888-.52-3.985-1.566-1.097-1.045-1.645-2.325-1.645-3.843 0-1.518.548-2.778 1.645-3.843s2.424-1.598 3.985-1.598c1.56 0 2.888.527 3.985 1.584 1.097 1.056 1.645 2.339 1.645 3.857 0 1.518-.548 2.773-1.645 3.826-1.097 1.054-2.424 1.583-3.985 1.583zm0-8.754c-.875 0-1.622.323-2.238.972-.615.648-.924 1.438-.924 2.373 0 .935.306 1.708.919 2.35a2.98 2.98 0 002.246.964 2.98 2.98 0 002.246-.963c.613-.643.919-1.428.919-2.35 0-.924-.31-1.726-.925-2.374-.615-.649-1.362-.972-2.237-.972h-.006zM76.17 9.755h2.325v10.261H76.17v-5.604l-3.101 5.604h-2.325v-8.165h-1.012l.79-2.093h2.547V15.5l3.1-5.74v-.004zm-4.207-1.761l.855-.844a2.1 2.1 0 00.8.566c.312.125.63.187.956.187.706 0 1.287-.252 1.739-.753l.916.875-.064.105c-.727.753-1.593 1.13-2.594 1.13-.516 0-.997-.102-1.438-.309a3.168 3.168 0 01-1.17-.957zm13.51 12.308c-1.56 0-2.888-.52-3.985-1.566-1.097-1.045-1.645-2.325-1.645-3.843 0-1.518.548-2.778 1.645-3.843s2.424-1.598 3.985-1.598c1.56 0 2.888.527 3.985 1.584 1.097 1.053 1.645 2.339 1.645 3.857 0 1.518-.548 2.773-1.645 3.826-1.097 1.054-2.424 1.583-3.985 1.583zm0-8.754c-.875 0-1.622.323-2.238.972-.615.648-.924 1.438-.924 2.373 0 .935.306 1.708.918 2.35a2.98 2.98 0 002.247.964 2.98 2.98 0 002.246-.963c.613-.643.916-1.428.916-2.35 0-.924-.31-1.726-.925-2.374-.615-.649-1.362-.972-2.237-.972h-.003zm6.817-1.793h7.719v10.261h-2.325v-8.165h-2.847v8.165h-2.325v-8.165H91.5l.79-2.093v-.002zm10.852 10.261v-8.165h-2.182l.744-2.093h4.224l.268-.467h2.136l-.966 2.56h-1.899v8.165h-2.325zm7.214 0h2.325v-8.165h1.899l.966-2.56h-2.135l-.269.467h-4.224l-.744 2.093h2.182v8.165zm11.056.287c-1.56 0-2.888-.522-3.984-1.567-1.097-1.045-1.646-2.325-1.646-3.843 0-1.518.549-2.778 1.646-3.843 1.096-1.065 2.424-1.598 3.984-1.598 1.561 0 2.888.527 3.985 1.584 1.097 1.056 1.646 2.339 1.646 3.857 0 1.518-.549 2.773-1.646 3.826-1.097 1.054-2.424 1.583-3.985 1.583zm0-8.755c-.875 0-1.622.323-2.237.972-.616.648-.925 1.438-.925 2.373 0 .935.306 1.708.916 2.35a2.98 2.98 0 002.246.964c.887 0 1.634-.32 2.247-.963.612-.643.916-1.428.916-2.35 0-.924-.31-1.726-.925-2.374-.616-.649-1.362-.972-2.238-.972zm7.04 8.469V11.85h-1.013l.791-2.093h3.845c.916 0 1.718.332 2.403.994.686.663 1.027 1.462 1.027 2.396 0 1.046-.326 1.935-.98 2.668-.653.734-1.456 1.1-2.404 1.1h-1.344v3.103h-2.325v-.002zm2.325-8.166v2.968h.697c.431 0 .802-.141 1.108-.422a1.35 1.35 0 00.458-1.039c0-.41-.149-.779-.443-1.07-.295-.292-.665-.437-1.109-.437h-.711zm6.058 8.165v-8.165h-1.012l.791-2.093h4.238l.286-.467h2.121l-.965 2.56h-3.134v8.165h-2.325zM38.723 25.08v3.297h1.784c.654 0 1.108-.39 1.108-.973 0-.427-.262-.707-.66-.8a.745.745 0 00.504-.696c0-.49-.38-.828-1.138-.828h-1.598zm.599.467h.854c.35 0 .668.04.668.454 0 .332-.231.453-.689.453h-.836v-.907h.003zm0 1.326h.908c.398 0 .768.063.768.52 0 .421-.343.514-.758.514h-.921v-1.034h.003zm5.868.251h-.613c-.064.485-.325.843-.894.843-.747 0-1.033-.624-1.033-1.236s.301-1.233 1.039-1.233c.451 0 .782.237.867.636h.61c-.117-.766-.767-1.127-1.465-1.127-1.063 0-1.668.789-1.668 1.724 0 1.043.65 1.727 1.638 1.727.876 0 1.46-.531 1.526-1.334h-.007zm3.07-2.041h-2.522v3.297h2.553v-.497h-1.945v-.973h1.776v-.468h-1.776v-.874h1.914v-.486zm-.505-.783h-.545v.5h.545v-.5zm-.978 0h-.551v.5h.55v-.5zm6.56 4.9v-1.32h-.393v-2.797h-2.282v.508c0 .906-.192 1.842-.457 2.287h-.34v1.32h.596v-.82h2.28v.82h.597v.002zm-1.007-1.32h-1.466c.217-.412.397-1.279.397-2.096v-.199h1.069v2.296zm4.171.5v-3.297h-2.287l-.07 1.911c-.03.837-.222.976-.472.976a.799.799 0 01-.24-.037v.444c.086.029.23.06.37.06.502 0 .9-.366.938-1.287l.064-1.57h1.083v2.797h.614v.003zm3.365 0v-3.297H58.27c-.747 0-1.162.366-1.162.912 0 .416.138.788.758.967L56.79 28.38h.767l.994-1.36h.698v1.36h.617zm-.614-1.802h-.924c-.394 0-.599-.185-.599-.531 0-.346.193-.49.611-.49h.915v1.021h-.003zm5.712.546h-.614c-.063.485-.325.843-.893.843-.747 0-1.033-.624-1.033-1.236s.301-1.233 1.038-1.233c.452 0 .783.237.867.636h.611c-.117-.766-.767-1.127-1.465-1.127-1.063 0-1.668.789-1.668 1.724 0 1.043.65 1.727 1.637 1.727.876 0 1.46-.531 1.526-1.334h-.006zm2.977-2.041h-2.847v.5h1.116v2.797h.614v-2.798h1.117v-.5zm.412 0v3.297h.614v-1.268h.99c.708 0 1.138-.398 1.138-1.022 0-.69-.496-1.005-1.219-1.005h-1.52l-.003-.003zm.614.482h.8c.39 0 .723.112.723.537 0 .39-.27.543-.668.543h-.855v-1.08zm4.166-.56c-1.072 0-1.692.759-1.692 1.726 0 1.028.68 1.727 1.683 1.727 1.002 0 1.682-.699 1.682-1.727s-.683-1.726-1.673-1.726zm-.01.485c.65 0 1.063.482 1.063 1.236 0 .753-.412 1.244-1.053 1.244s-1.072-.482-1.072-1.25.419-1.233 1.063-1.233v.003zm2.228 2.89h.713l1.505-2.53v2.53h.614v-3.297h-.713l-1.505 2.529v-2.53h-.614v3.298zm6.076-3.297H78.58v.5h1.117v2.797h.614v-2.798h1.116v-.5zm2.923 0h-2.522v3.297h2.552v-.497h-1.944v-.973h1.775v-.468h-1.775v-.874h1.914v-.486zm3.32 3.297v-3.297h-2.288l-.069 1.911c-.03.837-.223.976-.472.976a.799.799 0 01-.241-.037v.444c.087.029.232.06.37.06.503 0 .9-.366.939-1.287l.063-1.57h1.084v2.797h.614v.003zm3.473-1.022c0-.65-.427-1.014-1.195-1.014h-.936v-1.259h-.614v3.298h1.55c.761 0 1.195-.37 1.195-1.022v-.003zm-.614.014c0 .355-.202.537-.605.537h-.909v-1.091h.9c.385 0 .614.208.614.554zm4.147-.245h-.614c-.063.485-.325.843-.894.843-.746 0-1.032-.624-1.032-1.236s.301-1.233 1.038-1.233c.452 0 .783.237.867.636h.611c-.117-.766-.767-1.127-1.466-1.127-1.062 0-1.667.789-1.667 1.724 0 1.042.65 1.727 1.637 1.727.876 0 1.46-.531 1.526-1.334h-.006zm2.977-2.042h-2.847v.5h1.116v2.798h.614v-2.798h1.117v-.5zm.397 0v3.298h1.785c.653 0 1.107-.39 1.107-.973 0-.427-.261-.708-.659-.8a.746.746 0 00.503-.696c0-.49-.379-.829-1.138-.829H98.05zm.6.468h.854c.349 0 .668.04.668.453 0 .333-.232.454-.69.454h-.836v-.907h.003zm0 1.325h.908c.397 0 .767.064.767.52 0 .422-.343.514-.758.514h-.92v-1.034h.002zm4.465-1.793h-.653l-1.351 3.298h.635l.343-.875h1.388l.334.875h.659l-1.352-3.298h-.003zm.196 1.987h-1.068l.544-1.386.521 1.386h.003zm2.844 1.31h.714l1.504-2.529v2.53h.614v-3.298h-.713l-1.505 2.53v-2.53h-.614v3.298zm4.939-3.297v3.298h.614v-1.268h.99c.708 0 1.138-.398 1.138-1.022 0-.69-.497-1.005-1.219-1.005h-1.52l-.003-.003zm.614.483h.801c.388 0 .722.112.722.537 0 .39-.271.543-.668.543h-.855v-1.08zm5.174-.483h-2.522v3.298h2.552v-.497h-1.944v-.973h1.775v-.468h-1.775v-.875h1.914v-.485zm4.22 0h-.855l-.945 2.579-.978-2.579h-.861v3.298h.581v-2.541l.999 2.54h.503l.975-2.54v2.54h.587v-3.297h-.006zm2.242-.078c-1.072 0-1.692.76-1.692 1.727 0 1.028.681 1.727 1.683 1.727s1.682-.699 1.682-1.727-.683-1.727-1.673-1.727zm-.009.486c.65 0 1.062.482 1.062 1.235 0 .754-.412 1.245-1.053 1.245s-1.072-.482-1.072-1.25.419-1.233 1.063-1.233v.003zm5.062-.408h-.614v1.311h-1.604v-1.31h-.614v3.297h.614v-1.481h1.604v1.48h.614v-3.297zm3.242 0h-2.848v.5h1.117v2.798h.614v-2.798h1.117v-.5zm1.55 0l1.351 3.298h-.659l-.334-.875h-1.388l-.343.875h-.635l1.351-3.298h.657zm.195 1.987l-.52-1.386-.545 1.386h1.068-.003z"/></g><defs><clipPath id="clip0_136_8554"><path fill="#fff" transform="translate(.25 .5)" d="M0 0h143v35H0z"/></clipPath></defs></svg>