<svg width="167" height="24" fill="none" xmlns="http://www.w3.org/2000/svg"><g clip-path="url(#clip0_136_8447)" fill="#A1A6AB"><path d="M5.435 23.431H1.88L5.04 1.184h3.586L7.375 9.982h.697l2.475-8.798h3.73L10.489 11.79l1.082 11.641H7.928l-.366-9.551h-.726l-1.4 9.551zm46.764 0h-3.527L51.456 4.27H48.95l.452-3.085h8.41L57.36 4.27h-2.421l-2.74 19.162zm8.012-22.247L55.664 23.43h3.585l1.31-6.752h2.683l-.568 6.752h3.424l1.849-22.247H60.21zm3.35 12.41h-2.434l1.824-9.466h1.485l-.875 9.466zm22.376 9.837H82.41L85.19 4.27h-2.502l.451-3.085h8.406l-.451 3.085h-2.421l-2.737 19.16zm8.219-22.247L89.61 23.43h3.586l1.31-6.752h2.679l-.568 6.752h3.424l1.853-22.247h-7.737zm3.35 12.41h-2.433l1.82-9.466h1.484l-.871 9.466zm31.035 9.837h-3.557l3.163-22.247h7.214l-.452 3.085h-3.599l-.887 6.324h3.23l-.452 3.17h-3.258l-1.402 9.668zm9.331 0h-3.556l3.163-22.247h7.213l-.453 3.085h-3.598l-.887 6.324h3.23l-.452 3.17h-3.259l-1.401 9.668zm13.281 0h-7.532l3.162-22.247h7.533l-.435 3.085h-3.993l-.771 5.543h3.172l-.406 3.17h-3.247l-1.036 7.335h4.005l-.452 3.114zm9.689 0h-7.533l3.162-22.247h7.533l-.436 3.085h-3.992l-.771 5.544h3.176l-.41 3.17h-3.247l-1.036 7.335h4.005l-.451 3.113zM44.643 11.34c-.414-.298-.786-.568-1.114-.807a4.08 4.08 0 01-.904-.935c-.254-.369-.382-.752-.382-1.148 0-.162.01-.261.03-.3l.364-2.418c.096-.738.204-1.22.323-1.443a.571.571 0 01.538-.331c.194 0 .326.046.398.141.075.094.112.288.112.582 0 .238-.03.587-.087 1.051l-.086.575h3.486l.123-.901c.041-.34.062-.694.062-1.064 0-1.148-.304-2.01-.911-2.584-.609-.571-1.49-.857-2.645-.857-1.32 0-2.403.381-3.245 1.144-.84.764-1.371 1.893-1.592 3.39l-.295 2.36a6.846 6.846 0 00-.116 1.25c0 .73.137 1.37.41 1.92.155.302.39.605.705.91.315.302.63.577.949.825.315.245.623.502.925.772.3.273.546.578.733.918.191.342.29.708.299 1.095 0 .143-.01.3-.03.469l-.422 2.972c-.097.67-.233 1.123-.407 1.354-.173.232-.392.348-.654.348-.197 0-.344-.06-.444-.178-.102-.116-.153-.336-.153-.659 0-.264.039-.552.116-.865l.151-1.056h-3.514l-.193 1.31c-.058.39-.087.73-.087 1.023 0 1.157.323 2.039.97 2.646.644.606 1.544.909 2.702.909 1.34 0 2.457-.391 3.35-1.173.895-.781 1.44-1.907 1.633-3.377l.423-3.255c.096-.587.145-1.066.145-1.435 0-1.025-.256-1.83-.77-2.419-.185-.207-.484-.46-.896-.76v.002zm63.396 6.684l-.137.903c-.096.7-.212 1.16-.348 1.379a.661.661 0 01-.597.323c-.185 0-.326-.054-.423-.162-.096-.108-.146-.314-.146-.619 0-.094.012-.245.034-.453l.053-.468 1.908-13.194c.096-.72.214-1.196.352-1.427a.66.66 0 01.609-.348c.197 0 .337.056.423.17.089.113.132.336.132.667 0 .332-.029.645-.086.938l-.081.575h3.536l.13-.901c.058-.256.087-.602.087-1.035 0-1.148-.323-2.014-.97-2.596-.647-.583-1.557-.874-2.732-.874-1.32 0-2.416.386-3.287 1.156-.871.774-1.416 1.9-1.637 3.377l-1.94 13.777c-.058.35-.087.692-.087 1.023 0 1.146.324 2.02.971 2.625.644.6 1.544.9 2.701.9 1.291 0 2.384-.397 3.279-1.192.893-.799 1.442-1.926 1.646-3.384l.159-1.158h-3.549v-.002zm-84.62-16.25C22.775 1.192 21.866.9 20.69.9h-.557c-1.32 0-2.416.386-3.287 1.156-.868.774-1.413 1.9-1.636 3.377L13.27 19.21a6.263 6.263 0 00-.087 1.023c0 1.146.323 2.02.97 2.625.647.6 1.547.902 2.702.902l.033-.001h.553c1.305-.006 2.394-.401 3.265-1.188.881-.79 1.423-1.92 1.624-3.388L24.3 5.407c.058-.256.087-.602.087-1.035 0-1.148-.323-2.014-.97-2.596l.002-.002zm-5.89 18.845c-.502 0-.89-.434-.82-.919l2.132-14.754c.083-.57.583-.994 1.174-.994.501 0 .886.433.816.916l-2.128 14.756c-.083.57-.583.995-1.174.995zM123.864 1.774c-.643-.582-1.553-.873-2.728-.873h-.556c-1.321 0-2.416.386-3.287 1.156-.868.774-1.414 1.9-1.637 3.377l-1.94 13.776a6.263 6.263 0 00-.087 1.023c0 1.146.323 2.02.97 2.625.647.6 1.547.902 2.702.902l.033-.001h.553c1.305-.006 2.394-.401 3.265-1.188.882-.79 1.423-1.92 1.625-3.388l1.968-13.776c.058-.256.087-.602.087-1.035 0-1.148-.323-2.014-.97-2.596l.002-.002zm-5.89 18.845a.814.814 0 01-.819-.919l2.131-14.754c.083-.57.583-.994 1.174-.994.501 0 .887.433.817.916l-2.129 14.756c-.082.57-.583.995-1.174.995zM34.08 1.184l-1.62 11.302-1.8-11.294v-.008h-3.352v.008l-3.19 22.24H27.5l.006-.044 1.563-10.997 1.736 11.04h3.465l.007-.043 3.156-22.204H34.08zm43.832 0L76.29 12.486 74.493 1.192l.001-.008h-3.356l.002.008-3.19 22.24h3.382l.005-.044L72.9 12.391l1.737 11.04h3.465l.007-.043 3.156-22.204h-3.353z"/></g><defs><clipPath id="clip0_136_8447"><path fill="#fff" transform="translate(.25 .5)" d="M0 0h166v23H0z"/></clipPath></defs></svg>