<svg width="768" height="297" fill="none" xmlns="http://www.w3.org/2000/svg"><path d="M862.91 411.458l-114.132-28.096a377.363 377.363 0 00-26.332-62.748c17.136-28.553 53.149-88.65 53.149-88.65 6.889-11.483 5.066-26.187-4.385-35.647l-82.441-82.525a29.047 29.047 0 00-35.612-4.388l-88.704 53.202a375.309 375.309 0 00-62.314-26.131L474.071 22.229C470.823 9.234 459.181.114 445.801.114H329.199c-13.38 0-25.052 9.12-28.268 22.113 0 0-19.443 79.738-28.041 114.219a373.922 373.922 0 00-66.157 28.211l-91.978-55.253c-11.5-6.84-26.132-5.072-35.612 4.388l-82.44 82.525c-9.451 9.46-11.274 24.164-4.385 35.647l56.878 95.091a376.212 376.212 0 00-22.972 56.222l-114.132 28.181C-100.89 414.707-110 426.361-110 439.755v116.719c0 13.393 9.11 25.077 22.09 28.296l114.16 28.096c6.92 21.971 15.913 43.315 26.817 63.803L2.17 761.585c-6.89 11.484-5.067 26.188 4.384 35.648l82.441 82.524c9.424 9.433 24.111 11.227 35.612 4.389 0 0 57.077-34.251 85.032-51.008a375.37 375.37 0 0063.254 26.643L300.933 974c3.214 12.997 14.886 22.114 28.266 22.114h116.602c13.38 0 25.022-9.119 28.268-22.112l28.041-114.219a370.137 370.137 0 0064.677-27.499c28.722 17.239 86.368 51.862 86.368 51.862 11.472 6.867 26.162 5.101 35.612-4.389l82.442-82.524c9.45-9.46 11.273-24.164 4.384-35.648l-52.409-87.397a373.866 373.866 0 0025.592-61.322l114.132-28.096C875.891 581.521 885 569.867 885 556.474V439.755c0-13.394-9.109-25.048-22.09-28.297zM387.5 702.372c-112.503 0-204.053-91.642-204.053-204.258 0-112.616 91.55-204.258 204.053-204.258s204.053 91.642 204.053 204.258c0 112.616-91.55 204.258-204.053 204.258z" fill="url(#paint0_linear_523_15133)"/><defs><linearGradient id="paint0_linear_523_15133" x1="401" y1="-9.886" x2="396.98" y2="483.114" gradientUnits="userSpaceOnUse"><stop stop-color="#fff"/><stop offset="1" stop-color="#fff" stop-opacity="0"/></linearGradient></defs></svg>