<svg width="320" height="269" fill="none" xmlns="http://www.w3.org/2000/svg"><path d="M354.942 169.094l-46.8-11.509a154.46 154.46 0 00-10.797-25.704 103915.17 103915.17 0 0021.793-36.314 11.954 11.954 0 00-1.797-14.603l-33.805-33.805a11.92 11.92 0 00-14.603-1.798l-36.374 21.794a153.996 153.996 0 00-25.551-10.705l-11.51-46.8A11.95 11.95 0 00183.906.593h-47.812a11.94 11.94 0 00-11.592 9.058s-7.972 32.664-11.498 46.788a153.475 153.475 0 00-27.128 11.557L48.161 45.36c-4.716-2.802-10.716-2.077-14.603 1.798L-.247 80.964a11.954 11.954 0 00-1.798 14.603l23.323 38.952a154.042 154.042 0 00-9.42 23.031l-46.8 11.544A11.95 11.95 0 00-44 180.686v47.812a11.937 11.937 0 009.058 11.591l46.812 11.51c2.837 9 6.525 17.743 10.996 26.136L1.995 312.52a11.953 11.953 0 001.798 14.602l33.805 33.806c3.864 3.864 9.886 4.598 14.602 1.797 0 0 23.405-14.03 34.868-20.895a153.921 153.921 0 0025.937 10.914l11.498 46.789a11.936 11.936 0 0011.591 9.059h47.812a11.95 11.95 0 0011.592-9.058l11.498-46.789a151.889 151.889 0 0026.521-11.264c11.777 7.061 35.415 21.244 35.415 21.244 4.704 2.813 10.728 2.09 14.603-1.797l33.805-33.806a11.954 11.954 0 001.798-14.602l-21.491-35.801a153.019 153.019 0 0010.494-25.12l46.8-11.51A11.946 11.946 0 00364 228.498v-47.812a11.949 11.949 0 00-9.058-11.592zM160 288.264c-46.132 0-83.672-37.54-83.672-83.672S113.868 120.92 160 120.92s83.672 37.54 83.672 83.672-37.54 83.672-83.672 83.672z" fill="url(#paint0_linear_561_15850)"/><defs><linearGradient id="paint0_linear_561_15850" x1="165.536" y1="-3.505" x2="165.529" y2="260.592" gradientUnits="userSpaceOnUse"><stop offset=".106" stop-color="#fff"/><stop offset=".44" stop-color="#fff" stop-opacity=".722"/><stop offset="1" stop-color="#fff" stop-opacity="0"/></linearGradient></defs></svg>