<svg width="863" height="434" fill="none" xmlns="http://www.w3.org/2000/svg"><path d="M843.84 356.416l-98.99-24.345a326.782 326.782 0 00-22.839-54.369c14.863-24.74 46.098-76.812 46.098-76.812 5.975-9.95 4.394-22.691-3.803-30.887l-71.504-71.505a25.214 25.214 0 00-30.888-3.802l-76.937 46.098a325.652 325.652 0 00-54.047-22.642l-24.344-98.99C503.77 7.901 493.671 0 482.066 0H380.934c-11.605 0-21.729 7.902-24.518 19.16 0 0-16.864 69.09-24.321 98.966a324.608 324.608 0 00-57.381 24.444l-79.775-47.874c-9.976-5.927-22.666-4.394-30.888 3.802l-71.504 71.505c-8.197 8.196-9.778 20.937-3.803 30.887l49.333 82.393a325.83 325.83 0 00-19.925 48.714l-98.99 24.419C7.901 359.23 0 369.329 0 380.934v101.132c0 11.605 7.902 21.729 19.16 24.518l99.015 24.345c6.001 19.036 13.802 37.53 23.259 55.282l-44.146 73.578c-5.975 9.95-4.394 22.691 3.803 30.887l71.504 71.505c8.173 8.173 20.913 9.727 30.888 3.802 0 0 49.504-29.677 73.751-44.196a325.758 325.758 0 0054.863 23.085l24.32 98.967C359.205 855.1 369.329 863 380.934 863h101.132c11.605 0 21.704-7.902 24.518-19.16l24.321-98.967a321.147 321.147 0 0056.097-23.826c24.912 14.937 74.911 44.936 74.911 44.936 9.949 5.95 22.69 4.42 30.887-3.802l71.505-71.505c8.196-8.196 9.777-20.937 3.802-30.887l-45.456-75.727a323.735 323.735 0 0022.197-53.133l98.991-24.345C855.1 503.77 863 493.671 863 482.066V380.934c0-11.605-7.9-21.704-19.16-24.518zM431.5 608.482c-97.578 0-176.982-79.404-176.982-176.982S333.922 254.518 431.5 254.518 608.482 333.922 608.482 431.5 529.078 608.482 431.5 608.482z" fill="url(#paint0_linear_305_9944)"/><defs><linearGradient id="paint0_linear_305_9944" x1="443" y1="-84" x2="432" y2="464" gradientUnits="userSpaceOnUse"><stop stop-color="#fff"/><stop offset="1" stop-color="#fff" stop-opacity="0"/></linearGradient></defs></svg>