<svg width="27" height="28" fill="none" xmlns="http://www.w3.org/2000/svg"><g clip-path="url(#clip0_10_2261)" stroke="#1D4ED8" stroke-width="1.3" stroke-linecap="round" stroke-linejoin="round"><path d="M15.75 3.5v4.667c0 .31.118.606.33.825.21.218.497.341.795.341h4.5"/><path d="M19.125 24.5H7.875a2.21 2.21 0 01-1.591-.683 2.378 2.378 0 01-.659-1.65V5.833c0-.619.237-1.212.659-1.65A2.21 2.21 0 017.875 3.5h7.875l5.625 5.833v12.834a2.38 2.38 0 01-.659 1.65 2.21 2.21 0 01-1.591.683z"/><path d="M10.125 17.5l2.25 2.333 4.5-4.666"/></g><defs><clipPath id="clip0_10_2261"><path fill="#fff" d="M0 0h27v28H0z"/></clipPath></defs></svg>