<svg width="41" height="40" fill="none" xmlns="http://www.w3.org/2000/svg"><rect x=".5" width="40" height="40" rx="8" fill="#F4F6F9"/><rect x="1" y=".5" width="39" height="39" rx="7.5" stroke="#585E66" stroke-opacity=".2"/><g clip-path="url(#clip0_10_2260)" stroke="#1D4ED8" stroke-width="1.3" stroke-linecap="round" stroke-linejoin="round"><path d="M22.75 9.5v4.667c0 .31.119.606.33.825.21.218.497.341.795.341h4.5"/><path d="M26.125 30.5h-11.25a2.21 2.21 0 01-1.591-.683 2.378 2.378 0 01-.659-1.65V11.833c0-.619.237-1.212.659-1.65a2.21 2.21 0 011.591-.683h7.875l5.625 5.833v12.834a2.38 2.38 0 01-.659 1.65 2.21 2.21 0 01-1.591.683z"/><path d="M17.125 23.5l2.25 2.333 4.5-4.666"/></g><defs><clipPath id="clip0_10_2260"><path fill="#fff" transform="translate(7 6)" d="M0 0h27v28H0z"/></clipPath></defs></svg>