<svg width="183" height="33" fill="none" xmlns="http://www.w3.org/2000/svg"><g clip-path="url(#clip0_305_9919)"><path d="M124.164 23.949h16.427V20.27h-10.827c1.493-6.034 10.64-7.354 10.64-14.048 0-3.583-2.427-6.223-7.56-6.223-3.173 0-5.973.943-7.84 1.886l1.12 3.394c1.68-.849 3.64-1.603 6.067-1.603 1.866 0 3.64.849 3.64 3.017 0 4.903-10.734 5.28-11.667 17.255zm16.893-5.846h10.547v5.846h4.2v-5.846h3.547V14.52h-3.547V0h-3.08l-11.667 15.274v2.829zm4.76-3.394l5.974-8.109c0 .66-.187 2.734-.187 4.62v3.394h-2.8c-.84 0-2.427.095-2.987.095z" fill="#005893"/><path d="M4.887 20.366v-7.449H6.66c1.587 0 2.893.189 3.827.754.933.566 1.493 1.509 1.493 3.018 0 2.545-1.493 3.677-5.04 3.677H4.887zM.593 23.948h6.254c7 0 9.52-3.11 9.52-7.448 0-2.923-1.214-4.903-3.36-6.034-1.68-.943-3.827-1.226-6.44-1.226h-1.68V3.583h9.426l1.12-3.489H.5v23.854h.093zm18.667 0h4.107l5.32-7.73c1.026-1.415 1.773-2.83 2.24-3.584h.093a41.914 41.914 0 00-.187 3.677v7.543h4.2V6.883h-4.106l-5.32 7.731c-.934 1.415-1.774 2.829-2.24 3.583h-.094a41.87 41.87 0 00.187-3.677V6.977h-4.2v16.971zm22.96 0h4.293V10.466h5.04l1.12-3.583H37.087v3.583h5.133v13.482zm11.947 8.58h4.2v-8.58c.84.283 1.68.378 2.613.378 5.32 0 8.773-3.678 8.773-8.958 0-5.468-3.173-8.957-9.24-8.957-2.333 0-4.573.472-6.44 1.038v25.08h.094zm4.2-12.257v-9.994a6.57 6.57 0 011.96-.283c3.08 0 5.04 1.697 5.04 5.374 0 3.3-1.587 5.375-4.76 5.375-.84 0-1.494-.189-2.24-.472zm13.906 3.677h4.107l5.32-7.73c1.027-1.415 1.773-2.83 2.24-3.584h.093a41.917 41.917 0 00-.186 3.677v7.543h4.2V6.883H83.94l-5.32 7.731c-.933 1.415-1.773 2.829-2.24 3.583h-.093c.093-1.037.186-2.357.186-3.677V6.977h-4.2v16.971zm19.134 0H95.7v-7.07h2.52c.467 0 .933.47 1.493 1.602l2.147 5.468h4.573l-3.08-6.505c-.56-1.132-1.12-1.792-1.96-2.075v-.094c1.4-.848 1.587-3.3 2.427-4.525.28-.378.653-.566 1.213-.566.28 0 .654 0 .934.188V6.694c-.467-.188-1.307-.283-1.774-.283-1.493 0-2.426.566-3.08 1.509-1.4 2.074-1.4 5.657-3.453 5.657H95.7V6.883h-4.293v17.066zm24.546.378c2.334 0 4.48-.755 5.787-1.698l-1.213-2.922c-1.214.66-2.334 1.131-3.92 1.131-2.894 0-4.76-1.886-4.76-5.374 0-3.112 1.866-5.563 5.04-5.563 1.68 0 2.893.471 4.106 1.32V7.543c-.933-.566-2.426-1.132-4.573-1.132-5.04 0-8.96 3.772-8.96 9.146 0 4.903 2.987 8.769 8.493 8.769z" fill="#0BBBEF"/><path d="M173.256 18.103c4.573 0 8.307-3.772 8.307-8.392 0-4.62-3.734-8.391-8.307-8.391s-8.307 3.771-8.307 8.391c.094 4.62 3.734 8.392 8.307 8.392z" stroke="#005893" stroke-width="1.769"/><path d="M178.486 9.712h-4.573v-4.62h-1.214v5.846h5.787V9.712z" fill="#005893"/></g><defs><clipPath id="clip0_305_9919"><path fill="#fff" transform="translate(.5)" d="M0 0h182v33H0z"/></clipPath></defs></svg>