<svg width="173" height="27" fill="none" xmlns="http://www.w3.org/2000/svg"><g clip-path="url(#clip0_305_9932)" fill-rule="evenodd" clip-rule="evenodd"><path d="M166.1 20.267V14.55h-2.586v.212a18.902 18.902 0 01-.893 5.505h3.479zm4.598 0h1.709l-.106 6.354h-4.235v-2.653h-6.927l-.075 2.653h-4.265v-6.354h1.482c.741-2.138 1.104-4.215 1.104-8.735v-.637h11.313v9.372zM84.835 10.092c-3.1 0-4.567-1.32-4.93-3.61l3.493-.5c.167.864.59 1.41 1.437 1.41.848 0 1.27-.546 1.437-1.41l3.494.5c-.363 2.29-1.845 3.61-4.93 3.61zM69.121 20.358c1.663 0 2.722-1.305 2.722-2.912 0-1.575-1.164-2.911-2.768-2.911-1.663 0-2.722 1.306-2.722 2.912 0 1.576 1.15 2.911 2.768 2.911zm0-9.75c4.159 0 7.169 3.078 7.169 6.838 0 3.716-3.025 6.84-7.215 6.84-4.174 0-7.184-3.078-7.184-6.84 0-3.715 3.04-6.839 7.23-6.839zm78.86 9.811c1.467 0 2.646-1.229 2.646-3.003 0-1.728-1.179-2.972-2.646-2.972-1.498 0-2.677 1.213-2.677 3.018 0 1.729 1.179 2.957 2.677 2.957zm2.556-9.524h4.568v13.073h-4.568v-1.744c-.893 1.091-1.997 2.032-3.948 2.032-3.115 0-5.792-2.579-5.792-6.81 0-4.246 2.677-6.839 5.762-6.839 1.981 0 3.131.895 3.978 1.88v-1.592zm-67.895 6.582l4.356-6.582h4.22v13.073h-4.432v-4.262c0-.819 0-1.577.015-2.32l-4.355 6.582h-4.22V10.895h4.431v4.201c0 .652 0 1.592-.015 2.381zm45.041-4.064l.031-2.518h11.222v13.073h-4.582V14.55h-2.632v.41c-.136 7.9-1.891 9.174-4.659 9.174-.438 0-1.301-.076-1.875-.166h-5.43l-3.599-5.581v5.58h-4.568V10.896h4.568v5.035l3.493-5.035h5.279l-4.659 5.945 4.78 6.976.211-4.019c.499.06.621.06.741.06.817 0 1.664-.59 1.679-6.444zm-24.547 6.46c1.604 0 2.708-.698 3.63-2.032l3.524 2.578c-1.679 2.275-3.796 3.867-7.487 3.867-4.9 0-8.65-3.655-8.65-8.81 0-4.808 3.72-8.766 8.877-8.766 3.192 0 5.521 1.395 7.169 3.76l-3.463 2.533c-.923-1.289-2.027-1.895-3.494-1.895-2.465 0-4.174 1.94-4.174 4.367 0 2.67 1.784 4.398 4.068 4.398zM54.722 6.998h3.01l3.236 16.97h-4.582l-1.483-8.28-4.128 8.84h-.53l-4.144-8.764-1.482 8.204h-4.553l3.237-16.97h2.994s2.602 5.61 3.117 6.688a77.488 77.488 0 011.103 2.456s.756-1.774 1.135-2.532c.378-.758 3.07-6.612 3.07-6.612z" fill="#2855AF"/><path d="M4.852 25.35c4.126 0 7.246-5.387 10.042-11.268 1.347-2.85 2.602-5.838 3.857-8.37 1.378-2.81 2.792-4.793 4.522-4.793 1.467 0 2.847 1.188 4.22 3.048 2.848 3.863 5.309 10.405 5.309 14.695 0 3.594-1.845 6.688-5.627 6.688H4.852z" fill="#64CDFF"/><path d="M14.893 14.082C12.06 8.354 10.776 4.15 8.27 4.15c-1.558 0-3.313 1.638-4.9 4.322C1.666 11.32.328 15.34.328 19.663c0 3.415 1.666 5.687 4.521 5.687 4.126 0 7.247-5.387 10.043-11.268z" fill="#2855AF"/></g><defs><clipPath id="clip0_305_9932"><path fill="#fff" transform="translate(.25 .195)" d="M0 0h172.5v26.609H0z"/></clipPath></defs></svg>