<svg width="184" height="36" fill="none" xmlns="http://www.w3.org/2000/svg"><g clip-path="url(#clip0_310_10133)" fill-rule="evenodd" clip-rule="evenodd"><path d="M72.182 16.977c-1.463 0-2.651 1.16-2.651 2.588 0 1.431 1.188 2.59 2.651 2.59 1.465 0 2.651-1.159 2.651-2.59 0-1.428-1.186-2.588-2.65-2.588zm107.879-1.9c1.739 0 3.01.95 3.843 1.9V12.39c-1.365-.904-3.01-1.266-4.441-1.266-4.395 0-8.213 3.073-8.213 8.36 0 5.063 3.47 8.363 8.281 8.363 1.388 0 2.915-.206 4.373-1.176v-4.5c-.833.838-2.15 1.72-3.843 1.72-2.589 0-4.14-1.874-4.14-4.27 0-2.6 1.643-4.543 4.14-4.543zm-8.314-3.501h-5.322l-4.883 6.642v-6.642h-4.534l.002 15.817h4.532V20.59l4.695 6.803h5.672l-6.317-8.158 6.155-7.659zm-28.129 9.49v-9.49h-4.373v15.817h4.443l6.27-9.49v9.49h4.373V11.576h-4.444l-6.269 9.49zm-13.14-2.374h-1.293v-3.636h1.293c1.944 0 2.22 1.016 2.22 1.807 0 .678-.207 1.83-2.22 1.83zm.994-7.116h-6.824v15.817h4.537V22.17h2.287c4.582 0 5.901-3.114 5.901-5.307 0-2.17-1.296-5.287-5.901-5.287zm-20.334 3.795h3.561v12.022h4.536V15.371h3.562v-3.795h-11.659v3.795zm-12.565 5.696v-9.491H94.2v15.817h4.444l6.267-9.49v9.49h4.374V11.576h-4.442l-6.271 9.49zm-13.51 3.16H83.12v-3.32h1.942c1.435 0 2.269.408 2.269 1.652 0 1.264-.856 1.669-2.269 1.669zm.44-6.483H83.12V15.37h7.426v-3.795h-11.96l-.001 15.817h6.918c1.178 0 6.362.044 6.362-4.903 0-4.769-5.136-4.746-6.362-4.746zm-32.298 1.74c0 5.062 3.47 8.362 8.282 8.362 1.39 0 2.916-.206 4.375-1.176v-4.5c-.836.838-2.154 1.72-3.842 1.72-2.593 0-4.142-1.874-4.142-4.27 0-2.6 1.642-4.543 4.142-4.543 1.734 0 3.006.95 3.842 1.9V12.39c-1.369-.904-3.01-1.266-4.444-1.266-4.396 0-8.213 3.073-8.213 8.36zm-9.494-4.27h2.477v12.18h4.188V11.575h-6.665v3.637z" fill="#231F20"/><path d="M17.806.5a18.19 18.19 0 00-3.86.415v16.988c0 2.082 1.738 3.78 3.87 3.78 2.13 0 3.868-1.698 3.868-3.78 0-1.999-1.6-3.64-3.61-3.77v-3.026c3.716.132 6.706 3.134 6.706 6.797 0 3.745-3.128 6.802-6.964 6.802-3.837 0-6.965-3.057-6.965-6.803V1.876c-.44.183-.87.385-1.29.602v15.425c0 4.44 3.709 8.06 8.255 8.06 4.546 0 8.254-3.62 8.254-8.06 0-4.355-3.568-7.923-7.997-8.057V6.822c6.133.135 11.091 5.061 11.091 11.082 0 6.106-5.098 11.083-11.348 11.083-6.252 0-11.351-4.977-11.351-11.084V4.484C2.517 7.672 0 12.494 0 17.89c0 9.604 7.972 17.392 17.806 17.392 9.836 0 17.806-7.788 17.806-17.392S27.642.5 17.806.5z" fill="#D91935"/></g><defs><clipPath id="clip0_310_10133"><path fill="#fff" transform="translate(0 .5)" d="M0 0h184v35H0z"/></clipPath></defs></svg>