<svg width="128" height="36" fill="none" xmlns="http://www.w3.org/2000/svg"><g clip-path="url(#clip0_310_10138)" fill="#FF2D20"><path d="M7.96 0h.155a.986.986 0 01.232.089c2.307 1.29 4.612 2.582 6.915 3.878.204.115.306.28.306.497a38521.618 38521.618 0 01.001 14.427l.003.003.004.001h.004l5.768-3.227a.026.026 0 00.01-.01.026.026 0 00.004-.013V8.313c0-.242.107-.423.32-.542 2.264-1.265 4.549-2.544 6.856-3.835.223-.125.43-.16.653-.034 2.362 1.32 4.675 2.612 6.936 3.878.18.1.305.301.304.502-.005 2.671-.004 5.178.003 7.52.001.282-.032.52-.292.667-2.149 1.203-4.365 2.443-6.65 3.72a.034.034 0 00-.017.03c-.005 2.414-.004 4.856.002 7.326a.591.591 0 01-.29.527c-4.627 2.586-9.26 5.177-13.9 7.773a.61.61 0 01-.583.006L.823 28.089a.613.613 0 01-.323-.44V4.379c.043-.192.136-.327.278-.407L7.742.079A.864.864 0 017.96 0zM2.265 4.438a.015.015 0 000 .027l5.763 3.222a.016.016 0 00.016 0l5.761-3.222a.015.015 0 000-.027l-5.76-3.223a.016.016 0 00-.017 0L2.265 4.438zm26.64.6a.016.016 0 00-.015 0L23.127 8.26a.016.016 0 00-.006.006.015.015 0 000 .015.016.016 0 00.006.005l5.765 3.224a.016.016 0 00.015 0l5.763-3.223a.016.016 0 00.005-.006.015.015 0 000-.015.016.016 0 00-.005-.005l-5.763-3.223zm-27.249.408v21.793a.033.033 0 00.017.028l12.724 7.115a.009.009 0 00.008 0 .008.008 0 00.004-.007l.004-6.438a.04.04 0 00-.02-.034l-6.607-3.631a.58.58 0 01-.33-.539V8.69a.045.045 0 00-.023-.039L1.678 5.433a.014.014 0 00-.014 0 .015.015 0 00-.008.013zm12.755.003a.015.015 0 00-.008-.013.016.016 0 00-.016 0L8.62 8.662a.016.016 0 00-.008.013v14.089c0 .003 0 .005.002.008a.016.016 0 00.021.006l5.77-3.227a.016.016 0 00.005-.006.016.016 0 00.002-.008V5.45zm13.883 13.44a.016.016 0 00.022-.006.015.015 0 00.002-.008v-6.38c0-.002 0-.005-.002-.007a.016.016 0 00-.006-.006l-5.766-3.225a.016.016 0 00-.015 0 .015.015 0 00-.008.014v6.38c0 .002 0 .005.002.007a.016.016 0 00.006.006l5.765 3.225zm1.187-6.404a.016.016 0 00-.006.005.015.015 0 00-.002.008v6.378l.002.008a.016.016 0 00.006.006.016.016 0 00.016 0l5.768-3.227a.016.016 0 00.008-.014V9.273a.015.015 0 00-.008-.014.016.016 0 00-.016 0l-5.768 3.226zM9.225 23.745a.015.015 0 000 .027l5.755 3.162a.016.016 0 00.016 0l12.713-7.05a.015.015 0 00.008-.013c0-.002 0-.005-.002-.008a.016.016 0 00-.006-.005l-5.758-3.22a.017.017 0 00-.008-.003.011.011 0 00-.008.003l-12.71 7.106zm6.35 4.16a.014.014 0 00-.007.013v6.446c0 .002 0 .005.002.007a.016.016 0 00.013.007c.002 0 .005 0 .007-.002l12.72-7.113a.015.015 0 00.006-.005.014.014 0 00.002-.008v-6.384c0-.003 0-.005-.002-.007a.015.015 0 00-.013-.008l-.007.002-12.72 7.052zm33.332-3.431h5.996a.02.02 0 01.014.006.02.02 0 01.005.013v2.754a.02.02 0 01-.006.014.02.02 0 01-.014.006h-9.206a.02.02 0 01-.014-.006.02.02 0 01-.006-.014V8.293a.02.02 0 01.006-.014.02.02 0 01.014-.006h3.172a.02.02 0 01.014.006.02.02 0 01.006.014v16.161c0 .006.002.01.005.014a.02.02 0 00.014.006zm78.548-16.182v18.956l-.001.007-.004.006a.019.019 0 01-.007.004.02.02 0 01-.007.002h-3.007a.017.017 0 01-.013-.006.017.017 0 01-.006-.013V8.292c0-.005.002-.01.006-.013a.017.017 0 01.013-.006h3.007c.002 0 .005 0 .007.002.003 0 .005.002.007.004l.004.006a.018.018 0 01.001.007zM66.26 25.593a.01.01 0 00-.002-.007.012.012 0 00-.005-.004h-.008a.012.012 0 00-.005.005c-.881 1.313-2.562 2.03-4.138 2.002-1.27-.023-2.407-.343-3.413-.96a6.417 6.417 0 01-2.398-2.617c-1.705-3.36-.339-7.67 3.28-9.2.732-.31 1.54-.48 2.422-.51 1.608-.053 3.335.646 4.241 1.995.019.027.028.024.028-.009v-1.633c0-.02.01-.03.029-.03h2.983c.02 0 .031.011.031.032v12.586a.024.024 0 01-.024.024h-2.998c-.015 0-.022-.007-.022-.022v-1.652zm-.022-4.208c.211-2.223-1.214-4.304-3.589-4.448-1.032-.063-1.98.25-2.755.938-1.127 1.001-1.475 2.564-1.192 4.009.234 1.192.972 2.197 2.089 2.727.644.306 1.356.412 2.135.317 1.865-.226 3.142-1.755 3.312-3.543zM91.012 16.3v-1.643c0-.02.01-.031.032-.031h2.981c.019 0 .028.009.028.027v12.586c0 .019-.01.028-.03.028h-2.98c-.021 0-.032-.01-.032-.03v-1.631c0-.04-.01-.043-.033-.01-.773 1.188-2.264 1.875-3.654 1.978a6.749 6.749 0 01-2.204-.223 6.357 6.357 0 01-3.218-2.04c-3.584-4.264-.792-11.04 5.087-11.01 1.531.008 3.156.734 4 2.005.015.022.023.02.023-.007zm-7.368 3.036a4.628 4.628 0 00-.174 2.643c.449 1.96 2.18 3.219 4.243 2.943a3.74 3.74 0 003.003-2.393 4.362 4.362 0 00.065-2.988 3.784 3.784 0 00-2.147-2.329c-.651-.269-1.362-.346-2.13-.231-1.311.195-2.402 1.15-2.86 2.355zm28.687 2.734c.006.71.426 1.476.914 1.993.599.635 1.362 1.015 2.289 1.14.995.133 1.953-.064 2.873-.594a6.038 6.038 0 001.6-1.325c.012-.013.025-.014.039-.003l2.018 1.517a.011.011 0 01.004.004.012.012 0 01.002.006l-.001.006-.003.005c-.876.925-1.906 1.819-3.11 2.307a6.36 6.36 0 01-2.036.447c-2.305.134-4.675-.532-6.171-2.33-.729-.877-1.174-1.944-1.345-3.072a7.378 7.378 0 01-.058-1.909c.163-1.492.746-2.776 1.751-3.851 1.629-1.745 4.068-2.476 6.424-1.935a6.117 6.117 0 012.985 1.634c1.566 1.544 2.192 3.746 1.924 5.907-.002.016-.011.024-.028.024h-10.041c-.02 0-.03.01-.03.03zm4.08-5.401c-1.504-.142-2.913.384-3.627 1.752a4.06 4.06 0 00-.445 1.416v.004l.002.003a.012.012 0 00.003.002l.004.001h7.263c.017 0 .024-.008.021-.024a4.012 4.012 0 00-.341-1.157c-.565-1.205-1.525-1.87-2.88-1.997z"/><path d="M74.752 17.548v9.705a.015.015 0 01-.015.014h-3.011a.015.015 0 01-.015-.014V14.64a.015.015 0 01.015-.014h8.234c.004 0 .008.002.01.004a.015.015 0 01.005.01v2.88a.015.015 0 01-.015.014h-5.193a.015.015 0 00-.015.014zm27.676 6.736a.03.03 0 00.015-.001c.002 0 .003-.002.003-.004l3.805-9.626c.007-.018.021-.027.041-.027h3.018c.023 0 .03.01.022.031l-4.98 12.596a.018.018 0 01-.008.01.023.023 0 01-.013.004h-3.781c-.018 0-.03-.008-.036-.024l-4.976-12.587c-.008-.02 0-.03.021-.03h3.033c.005 0 .01.002.014.004a.024.024 0 01.009.011l3.81 9.64c0 .002.001.003.003.003z"/></g><defs><clipPath id="clip0_310_10138"><path fill="#fff" transform="translate(.5)" d="M0 0h127v36H0z"/></clipPath></defs></svg>