<svg width="169" height="49" fill="none" xmlns="http://www.w3.org/2000/svg"><g clip-path="url(#clip0_305_9909)"><path d="M204.736-98.676h-240.47v246.353h240.47V-98.676z" fill="#fff"/><path d="M33.58 27.563c.466 0 .7.61.7 1.832a5.078 5.078 0 01-.79 2.436 10.654 10.654 0 01-2.115 2.588 11.932 11.932 0 01-2.892 1.932 7.204 7.204 0 01-3.105.757c-1.372 0-2.29-1.235-2.756-3.704a8.589 8.589 0 01-2.666 2.788 7.708 7.708 0 01-4.366 1.095 5.737 5.737 0 01-2.383-.405 5.861 5.861 0 01-2.023-1.354 5.737 5.737 0 01-1.243-1.944 5.86 5.86 0 01-.387-2.29c0-4.515 1.462-8.072 4.386-10.675a10.264 10.264 0 013.474-2.15c1.1-.35 2.245-.524 3.396-.518a5.885 5.885 0 012.912.663c.362-.769.776-1.154 1.241-1.154.489.017.969.132 1.413.34.444.21.844.506 1.175.874a3.395 3.395 0 011.216 2.251 28.65 28.65 0 01-1.591 3.146 32.547 32.547 0 00-.31 5.138c0 2.212.271 3.319.815 3.319.672 0 2.303-1.38 4.89-4.142.466-.549.803-.823 1.01-.823zm-18.32 2.416c0 2.044.737 3.066 2.212 3.066 1.578-.026 2.885-.889 3.92-2.588a8.169 8.169 0 00.893-2.151c-.042-2.572.218-5.14.777-7.647a10.175 10.175 0 00-5.473 3.107 8.614 8.614 0 00-1.776 2.865 8.773 8.773 0 00-.553 3.348z" fill="#7A8CA7"/><path d="M50.703 24.908c0-.885-.492-1.328-1.475-1.328-.673 0-1.424.664-2.252 1.991a14.457 14.457 0 00-1.785 4.322v.08c.006.944.143 1.882.408 2.788.212.644.349 1.313.407 1.99 0 .886-1.1 1.77-3.3 2.656a2.487 2.487 0 01-.892.199 1.323 1.323 0 01-.846-.278 1.381 1.381 0 01-.493-.758 8.601 8.601 0 01-.369-2.807c0-1.182.032-2.289.097-3.32.065-1.03.13-2 .194-2.907.065-.885.13-1.668.194-2.35a18.3 18.3 0 00.097-1.652c0-.885-.4-1.328-1.203-1.328-.802 0-1.734.963-2.795 2.888-1.06 1.924-1.591 3.451-1.591 4.58-.01 1.057.128 2.109.408 3.126.212.645.349 1.314.407 1.991 0 .885-1.1 1.77-3.3 2.655a2.484 2.484 0 01-.892.2 1.327 1.327 0 01-.845-.28 1.386 1.386 0 01-.494-.756 10.199 10.199 0 01-.369-3.186 54.48 54.48 0 01.427-8.165 18.63 18.63 0 012.64-7.01c.14-.3.353-.56.617-.755a1.92 1.92 0 01.896-.36c.863 0 1.652.718 2.368 2.151.188.33.344.676.466 1.036a5.537 5.537 0 011.915-1.732 5.372 5.372 0 012.471-.657 4.46 4.46 0 012.989 1.135c.413.341.745.775.969 1.269.224.494.335 1.033.325 1.578v.438a7.23 7.23 0 012.539-2.223 7.025 7.025 0 013.244-.803 4.212 4.212 0 011.702.226c.547.191 1.05.494 1.481.888a3.802 3.802 0 011.087 2.748c.008.988-.07 1.975-.233 2.948-.155.885-.33 1.707-.524 2.469l-.524 2.051a5.97 5.97 0 00-.233 1.394c0 .332.104.498.31.498a2.42 2.42 0 001.437-.757 28.31 28.31 0 001.708-1.653l1.572-1.653c.496-.517.83-.776 1.002-.776.363 0 .544.442.544 1.328 0 1.858-.912 3.664-2.737 5.416a8.353 8.353 0 01-5.822 2.655c-1.863 0-2.795-1.739-2.795-5.217.038-1.219.181-2.432.427-3.625a20.83 20.83 0 00.42-3.358z" fill="#7A8CA7"/><path d="M72.053 33.603a9.4 9.4 0 01-3.26 2.723 9.148 9.148 0 01-4.095.98c-2.86 0-5-.75-6.424-2.25a7.593 7.593 0 01-1.611-2.575 7.746 7.746 0 01-.485-3.02 11.936 11.936 0 012.911-8.164 9.817 9.817 0 013.486-2.605 9.598 9.598 0 014.238-.82 9.102 9.102 0 013.494.557c1.527.637 2.29 1.235 2.29 1.792 0 .442-1.068.664-3.202.664a7.103 7.103 0 00-2.909.563 7.273 7.273 0 00-2.448 1.707 7.787 7.787 0 00-1.642 2.611 7.95 7.95 0 00-.512 3.064 4.496 4.496 0 001.028 3.007c.37.414.825.737 1.332.946.507.21 1.053.299 1.6.262a5.705 5.705 0 003.124-.797 6.21 6.21 0 01-2.094-2.392 6.407 6.407 0 01-.662-3.143 5.005 5.005 0 011.339-3.486 4.58 4.58 0 011.595-1.194 4.489 4.489 0 011.937-.398c1.436 0 2.465.405 3.086 1.214.65.918.978 2.034.931 3.167a10.664 10.664 0 01-.892 4.082h.233a4.262 4.262 0 002.93-1.208c.31-.319.576-.598.796-.837a.948.948 0 01.647-.358c.362 0 .543.443.543 1.328.05.676-.05 1.355-.292 1.986a4.52 4.52 0 01-1.105 1.658 4.596 4.596 0 01-3.06 1.175 14.474 14.474 0 01-2.847-.24zm-.35-4.646a6.638 6.638 0 00.648-2.789c0-.885-.285-1.327-.854-1.327-.233 0-.427.173-.582.517a2.43 2.43 0 00-.233.996c-.014.487.07.97.245 1.424.176.452.44.862.777 1.205v-.026z" fill="#7A8CA7"/><path d="M159.971 37.3c2.144 0 3.882-1.783 3.882-3.982 0-2.2-1.738-3.983-3.882-3.983s-3.881 1.783-3.881 3.983 1.737 3.982 3.881 3.982zm-40.035-9.008c.432 0 .647.61.647 1.832a5.06 5.06 0 01-.815 2.41 10.642 10.642 0 01-2.115 2.588 11.888 11.888 0 01-2.892 1.932 7.049 7.049 0 01-2.989.756 3.936 3.936 0 01-2.251-.557 3.821 3.821 0 01-1.294-1.514c-.431-.884-.794-2.603-1.087-5.157a38.546 38.546 0 00-.854-5.31 3.946 3.946 0 01-1.766-.816 1.865 1.865 0 01-.569-.674 1.912 1.912 0 01-.201-.867 1.351 1.351 0 01.188-.796 1.31 1.31 0 01.608-.531 4.03 4.03 0 011.824-.399c.65-.01 1.29.17 1.844.519a7.482 7.482 0 001.766-2.112 7.136 7.136 0 00.647-3.385 4.431 4.431 0 00-.327-1.863 4.33 4.33 0 00-1.07-1.542c-.893-.854-2.247-1.281-4.063-1.281-1.391-.048-2.782.1-4.134.438a15.67 15.67 0 00-2.465.956 56.06 56.06 0 00-1.824.956 3.112 3.112 0 01-1.495.438c-.465 0-.698-.152-.698-.458a3.258 3.258 0 01.737-1.494 9.347 9.347 0 012.174-2.058 13.535 13.535 0 018.152-2.581c2.604-.092 5.187.52 7.49 1.772a6.645 6.645 0 012.597 2.598 6.894 6.894 0 01.858 3.615 8.782 8.782 0 01-1.746 5.695 10.052 10.052 0 01-4.425 3.266c.399.91.718 1.857.95 2.828.247 1.008.486 1.938.719 2.787.187.732.454 1.44.795 2.111.088.23.236.43.428.577.192.147.42.237.659.26a2.624 2.624 0 001.553-.777 26.51 26.51 0 001.805-1.693 58.101 58.101 0 001.591-1.692c.492-.518.841-.777 1.048-.777zm-16.884-14.338c.336 0 .504.443.504 1.328.003.852-.049 1.703-.155 2.549a38.151 38.151 0 01-.893 4.301c-.931 3.611-1.398 5.722-1.398 6.332v5.855c.056.599-.066 1.2-.35 1.727a2.944 2.944 0 01-1.24 1.22l-1.417.664a3.562 3.562 0 01-1.534.318c-1.087 0-1.63-1.28-1.63-3.843a35.328 35.328 0 011.747-9.697 38.242 38.242 0 013.648-8.922c.318-.463.696-.88 1.126-1.234a2.387 2.387 0 011.592-.598z" fill="#0079F6"/><path d="M153.353 28.293c.431 0 .647.61.647 1.832a5.07 5.07 0 01-.829 2.41 10.648 10.648 0 01-2.115 2.589 11.916 11.916 0 01-2.892 1.93 7.714 7.714 0 01-3.357.757 3.365 3.365 0 01-1.509-.266 3.452 3.452 0 01-1.248-.908 3.976 3.976 0 01-.989-2.656c.019-1.11.176-2.215.466-3.285.328-1.204.672-2.47 1.035-3.797.983-3.54 1.488-6.023 1.513-7.448a3.393 3.393 0 00-.232-1.414.906.906 0 00-.371-.392.868.868 0 00-.522-.106c-.777 0-1.604.478-2.484 1.434a16.993 16.993 0 00-2.485 3.665 22.944 22.944 0 00-2.833 9.956l.155 1.115c.053.396.08.795.078 1.195a3.094 3.094 0 01-.351 1.31 3.01 3.01 0 01-.872 1.02 4.085 4.085 0 01-2.736 1.055 1.37 1.37 0 01-.78-.245 1.425 1.425 0 01-.514-.65 5.112 5.112 0 01-.427-2.211c.052-1.215.247-2.418.582-3.585.389-1.513.82-3.12 1.294-4.819 1.242-4.487 1.876-7.832 1.902-10.036a6.874 6.874 0 00-.408-2.656 1.58 1.58 0 00-.634-.74 1.518 1.518 0 00-.937-.215c-1.398 0-2.783 1.022-4.154 3.067-1.371 2.044-2.6 5.217-3.687 9.518a40.685 40.685 0 00-.647 2.908l-.039.756c.366 1.571.612 3.17.737 4.78 0 1.54-.53 2.575-1.591 3.106l-1.417.664a3.384 3.384 0 01-1.455.319c-1.294 0-1.941-1.268-1.941-3.804 0-2.536.668-7.485 2.005-14.849.492-2.655.738-4.142.738-4.46 0-2.151-.531-3.226-1.592-3.226a1.66 1.66 0 00-.989.318c-.298.212-.596.434-.894.664-.297.23-.605.474-.924.73a1.848 1.848 0 01-1.068.319c-.401 0-.602-.359-.602-1.075a4.284 4.284 0 01.532-2.06 4.154 4.154 0 011.448-1.525 7.45 7.45 0 014.626-1.46c2.328 0 3.7 1.106 4.114 3.318.103.664.182 1.368.233 2.111 1.915-3.672 4.334-5.509 7.259-5.509 3.204 0 5.022 1.566 5.453 4.7.16.96.225 1.934.195 2.907v.319c1.681-2.39 3.674-3.585 5.977-3.585 3.26 0 4.891 2.018 4.891 6.054a28.398 28.398 0 01-.796 6.153c-.53 2.35-.919 4.036-1.165 5.058-.21.774-.333 1.568-.369 2.37 0 1.009.344 1.513 1.029 1.513.686 0 2.322-1.38 4.91-4.142.484-.531.829-.796 1.036-.796zm-55.282-5.29c.648 0 .984.664.984 1.918a11.536 11.536 0 01-.867 4.128 14.907 14.907 0 01-2.588 4.249 14.937 14.937 0 01-4.386 3.492 13.015 13.015 0 01-6.294 1.447 9.115 9.115 0 01-6.347-2.483c-1.816-1.66-2.724-4.051-2.724-7.175a26.568 26.568 0 011.295-8.497 22.861 22.861 0 013.376-6.578 16.113 16.113 0 014.768-4.315 10.16 10.16 0 015.104-1.54c2.8 0 4.2 1.28 4.2 3.837a6.824 6.824 0 01-.79 3.525c-.526.885-1.061 1.327-1.605 1.327a2.51 2.51 0 01-1.046-.23 2.563 2.563 0 01-.862-.652 2.595 2.595 0 00-.812-.646 2.544 2.544 0 00-.993-.27c-.647 0-2.432-.074-3.94 2.416a8.431 8.431 0 00-1.294 2.741A19.908 19.908 0 0081.957 27a6.974 6.974 0 002.542 4.546c.828.59 1.83.867 2.833.784a7.06 7.06 0 004.6-2.483 100.5 100.5 0 002.49-2.874 67.91 67.91 0 002.207-2.734c.634-.837 1.113-1.235 1.442-1.235z" fill="#0079F6"/></g><defs><clipPath id="clip0_305_9909"><path fill="#fff" transform="translate(.5 .5)" d="M0 0h168v48H0z"/></clipPath></defs></svg>