<svg width="89" height="43" fill="none" xmlns="http://www.w3.org/2000/svg"><path fill-rule="evenodd" clip-rule="evenodd" d="M46.163 37.283a27.126 27.126 0 01-5.21-.863c-.283-.081-1.48-.526-1.79-.675a15.716 15.716 0 01-6.338-5.337A15.752 15.752 0 0137.193 8.26a15.692 15.692 0 0121.975 5.02 15.755 15.755 0 012.288 7.97h5.627a21.453 21.453 0 00-2.988-10.746 21.408 21.408 0 00-7.977-7.786 21.363 21.363 0 00-21.505.38 21.41 21.41 0 00-7.697 8.064 21.455 21.455 0 00.584 21.536 21.405 21.405 0 008.122 7.633 25.797 25.797 0 003.54 1.47c2.065.59 4.186.966 6.328 1.12.713 0 3.19.08 3.904.08H88.5v-5.663H49.46c-.511 0-2.787-.027-3.298-.054zm3.298-8.873h-2.975a17.47 17.47 0 01-2.289-.378 8.945 8.945 0 01-1.682-.606 6.736 6.736 0 01-3.48-5.737 6.752 6.752 0 013.19-5.903 6.723 6.723 0 019.238 2.147 6.75 6.75 0 011.027 3.317h5.385a12.26 12.26 0 00-1.766-6.148 12.233 12.233 0 00-4.621-4.417 12.207 12.207 0 00-12.324.383 12.236 12.236 0 00-4.339 4.695 12.26 12.26 0 00.568 12.337 12.23 12.23 0 004.752 4.274c.664.35 1.364.625 2.087.823 1.265.304 2.553.503 3.85.593h42.419v-5.38H49.46zM20.854 42.973h-5.72V5.73h-8.36V.012h14.08v42.961zM.5 8.602v5.501h6.273v28.87h5.506V8.602H.5z" fill="#D20A11"/><path d="M78.398.403a3.737 3.737 0 00-3.478 2.299 3.75 3.75 0 00-.291 1.437 3.804 3.804 0 001.112 2.662 3.793 3.793 0 002.657 1.113 3.737 3.737 0 003.478-2.33c.187-.458.282-.95.278-1.445A3.7 3.7 0 0079.84.669a3.683 3.683 0 00-1.442-.266zm0 6.877a3.133 3.133 0 01-2.878-1.958 3.148 3.148 0 01.697-3.414 3.135 3.135 0 015.345 2.23 3.147 3.147 0 01-1.955 2.911 3.132 3.132 0 01-1.209.231z" fill="#D20A11"/><path d="M79.832 5.136c0-.418 0-.81-.525-.958a.834.834 0 00.646-.836 1.094 1.094 0 00-1.225-1.078h-1.642v3.708h.686V4.448h.539c.78 0 .848.35.848.688 0 .634 0 .742.148.836h.687c-.162-.148-.094-.27-.162-.836zM78.58 3.909h-.808v-1.12h.687c.485 0 .808.149.808.607 0 .176-.067.513-.687.513z" fill="#D20A11"/></svg>