<svg width="182" height="42" fill="none" xmlns="http://www.w3.org/2000/svg"><g clip-path="url(#clip0_310_10112)"><path d="M105.476 16.532h-7.125v.773c2.229 0 2.587.489 2.587 3.38v5.21c0 2.89-.358 3.42-2.587 3.42-1.71-.245-2.865-1.181-4.457-2.972l-1.831-2.035c2.467-.449 3.78-2.036 3.78-3.828 0-2.238-1.87-3.948-5.373-3.948h-7.005v.773c2.228 0 2.587.489 2.587 3.38v5.21c0 2.89-.359 3.42-2.587 3.42v.773h7.92v-.774c-2.228 0-2.586-.529-2.586-3.42V24.43h.676l4.419 5.658h11.582c5.692 0 8.16-3.094 8.16-6.799 0-3.704-2.467-6.757-8.16-6.757zm-16.677 6.635v-5.413h1.632c1.79 0 2.587 1.261 2.587 2.727 0 1.425-.796 2.686-2.587 2.686h-1.632zm16.797 5.659h-.279c-1.432 0-1.631-.366-1.631-2.239v-8.833h1.91c4.14 0 4.895 3.093 4.895 5.495 0 2.483-.756 5.577-4.895 5.577zm-44.302-4.152l2.746-8.305c.796-2.402.438-3.094-2.11-3.094v-.814h7.484v.814c-2.508 0-3.105.61-4.1 3.583l-4.538 13.921h-.517l-4.06-12.741-4.14 12.741h-.517l-4.419-13.921c-.955-2.972-1.592-3.583-3.9-3.583v-.814h8.836v.814c-2.348 0-2.986.57-2.15 3.094l2.667 8.305 4.02-12.213h.757l3.94 12.213zm13.534 5.942c-4.378 0-7.96-3.297-7.96-7.327 0-3.99 3.582-7.287 7.96-7.287s7.96 3.298 7.96 7.287c0 4.03-3.582 7.327-7.96 7.327zm0-13.351c-3.662 0-4.936 3.378-4.936 6.024 0 2.687 1.274 6.025 4.936 6.025 3.702 0 4.976-3.338 4.976-6.025 0-2.646-1.274-6.024-4.976-6.024z" fill="#00749A"/><path d="M123.467 29.274v.814h-9.115v-.814c2.667 0 3.144-.692 3.144-4.764v-6.512c0-4.072-.477-4.723-3.144-4.723v-.814h8.239c4.099 0 6.369 2.157 6.369 5.048 0 2.81-2.27 5.007-6.369 5.007h-2.269v1.994c0 4.072.478 4.764 3.145 4.764zm-.876-15.348h-2.269v7.084h2.269c2.229 0 3.264-1.588 3.264-3.5 0-1.955-1.035-3.584-3.264-3.584zm33.713 12.335l-.199.733c-.358 1.343-.796 1.832-3.622 1.832h-.558c-2.069 0-2.428-.489-2.428-3.379v-1.872c3.105 0 3.344.284 3.344 2.402h.756V19.91h-.756c0 2.116-.239 2.401-3.344 2.401v-4.558h2.189c2.827 0 3.264.488 3.623 1.831l.199.773h.636l-.278-3.826h-11.702v.773c2.228 0 2.587.489 2.587 3.38v5.21c0 2.644-.304 3.31-2.062 3.405-1.67-.261-2.817-1.193-4.386-2.957l-1.831-2.035c2.468-.449 3.782-2.036 3.782-3.828 0-2.238-1.871-3.948-5.374-3.948h-7.005v.773c2.229 0 2.587.489 2.587 3.38v5.21c0 2.89-.358 3.42-2.587 3.42v.773h7.921v-.774c-2.229 0-2.587-.529-2.587-3.42V24.43h.677l4.418 5.658h16.359l.239-3.826h-.598zm-21.096-3.094v-5.413h1.632c1.791 0 2.588 1.261 2.588 2.727 0 1.425-.797 2.686-2.588 2.686h-1.632zm29.178 7.449c-1.592 0-2.986-.855-3.583-1.384-.199.204-.557.814-.636 1.384h-.757v-5.617h.796c.319 2.686 2.149 4.274 4.498 4.274 1.274 0 2.309-.733 2.309-1.954 0-1.058-.916-1.872-2.548-2.646l-2.268-1.099c-1.593-.774-2.787-2.117-2.787-3.908 0-1.954 1.791-3.623 4.259-3.623 1.314 0 2.428.489 3.105 1.059.199-.163.398-.611.518-1.1h.756v4.804h-.836c-.279-1.914-1.314-3.501-3.423-3.501-1.114 0-2.15.651-2.15 1.67 0 1.057.836 1.627 2.747 2.523l2.189 1.099c1.911.936 2.666 2.443 2.666 3.664 0 2.564-2.189 4.355-4.855 4.355zm12.258 0c-1.593 0-2.986-.855-3.583-1.384-.199.204-.557.814-.636 1.384h-.757v-5.617h.796c.319 2.686 2.15 4.274 4.498 4.274 1.274 0 2.309-.733 2.309-1.954 0-1.058-.915-1.872-2.548-2.646l-2.269-1.099c-1.592-.774-2.786-2.117-2.786-3.908 0-1.954 1.791-3.623 4.259-3.623 1.314 0 2.428.489 3.105 1.059.199-.163.398-.611.517-1.1h.756v4.804h-.835c-.279-1.914-1.314-3.501-3.423-3.501-1.115 0-2.15.651-2.15 1.67 0 1.057.836 1.627 2.747 2.523l2.189 1.099c1.91.936 2.666 2.443 2.666 3.664 0 2.564-2.189 4.355-4.855 4.355zM3.418 21c0 7.13 4.052 13.293 9.928 16.213L4.943 13.668A18.293 18.293 0 003.418 21zm29.508-.91c0-2.226-.782-3.768-1.453-4.968-.892-1.484-1.73-2.74-1.73-4.224 0-1.656 1.229-3.198 2.959-3.198.078 0 .152.01.228.015-3.134-2.937-7.31-4.73-11.896-4.73-6.154 0-11.568 3.23-14.718 8.12.414.013.803.022 1.134.022 1.843 0 4.695-.229 4.695-.229.95-.057 1.061 1.37.113 1.484 0 0-.955.115-2.017.172l6.415 19.514 3.855-11.824-2.744-7.69a31.366 31.366 0 01-1.848-.172c-.949-.057-.838-1.542.112-1.484 0 0 2.909.228 4.64.228 1.842 0 4.694-.228 4.694-.228.95-.058 1.062 1.369.113 1.484 0 0-.956.114-2.016.171l6.366 19.366 1.757-6.005c.762-2.491 1.341-4.281 1.341-5.823z" fill="#464342"/><path d="M21.344 22.575l-5.285 15.707a17.252 17.252 0 0010.825-.288 1.597 1.597 0 01-.125-.248l-5.415-15.17zm15.148-10.219c.076.574.119 1.19.119 1.853 0 1.828-.334 3.883-1.34 6.453l-5.38 15.91C35.128 33.449 38.65 27.646 38.65 21c0-3.132-.782-6.077-2.158-8.644z" fill="#464342"/><path d="M21.034 0C9.712 0 .5 9.42.5 21s9.212 21 20.534 21S41.57 32.58 41.57 21 32.356 0 21.034 0zm0 41.037C10.231 41.037 1.442 32.048 1.442 21 1.442 9.95 10.23.963 21.034.963 31.837.963 40.626 9.95 40.626 21c0 11.048-8.79 20.037-19.592 20.037z" fill="#464342"/></g><defs><clipPath id="clip0_310_10112"><path fill="#fff" transform="translate(.5)" d="M0 0h181v42H0z"/></clipPath></defs></svg>