<svg width="184" height="36" fill="none" xmlns="http://www.w3.org/2000/svg"><g clip-path="url(#clip0_310_10129)"><path d="M18.283 18.847c0 2.753-.817 5.072-2.456 6.95-1.71 1.967-3.934 2.954-6.655 2.954-2.728 0-4.944-.987-6.655-2.954C.877 23.919.055 21.6.055 18.847c0-2.76.823-5.08 2.462-6.95C4.247 9.95 6.47 8.975 9.172 8.975c2.721 0 4.944.974 6.655 2.922 1.64 1.87 2.456 4.19 2.456 6.95zm-5.418 0c0-1.247-.298-2.3-.894-3.15-.667-.968-1.6-1.449-2.799-1.449-1.199 0-2.132.481-2.8 1.448-.602.851-.9 1.904-.9 3.151 0 1.24.298 2.305.9 3.182.668.967 1.601 1.449 2.8 1.449 1.199 0 2.132-.482 2.8-1.449.595-.877.893-1.942.893-3.182zm25.006 0c0 2.572-.738 4.819-2.222 6.741-1.588 2.105-3.636 3.163-6.124 3.163-1.756 0-3.246-.513-4.464-1.526 0 .234.026.799.078 1.702.051.909.077 1.65.077 2.234 0 3.229-.96 4.839-2.877 4.839-.784 0-1.425-.28-1.937-.832-.506-.558-.759-1.228-.759-2.02V12.152c0-.767.26-1.43.778-1.987a2.536 2.536 0 011.925-.831c1.153 0 1.995.576 2.527 1.727 1.134-1.39 2.682-2.085 4.646-2.085 2.494 0 4.536 1.038 6.13 3.124 1.477 1.93 2.222 4.176 2.222 6.748zm-5.417 0c0-1.247-.304-2.3-.9-3.15-.668-.968-1.601-1.449-2.8-1.449-1.199 0-2.132.481-2.8 1.448-.596.851-.893 1.904-.893 3.151 0 1.24.297 2.305.894 3.182.667.967 1.6 1.449 2.799 1.449 1.199 0 2.132-.482 2.8-1.449.596-.877.9-1.942.9-3.182zm25.129-.584c0 .908-.214 1.532-.642 1.883-.427.344-1.095.52-1.995.52h-9.779c0 1.039.487 1.837 1.459 2.395.784.436 1.742.658 2.876.658.882 0 1.938-.294 3.176-.87 1.238-.586 2.034-.872 2.378-.872.628 0 1.16.227 1.6.695.434.462.655 1.02.655 1.663 0 1.487-1.108 2.644-3.325 3.475a14.82 14.82 0 01-5.163.941c-2.826 0-5.107-.941-6.85-2.818-1.743-1.877-2.617-4.235-2.617-7.086 0-2.715.906-5.034 2.72-6.969 1.808-1.936 4.057-2.903 6.74-2.903 2.494 0 4.58.916 6.253 2.747 1.671 1.832 2.514 4.014 2.514 6.541zm-5.417-1.365c-.026-.831-.408-1.584-1.147-2.267-.739-.681-1.523-1.019-2.352-1.019-.855 0-1.653.338-2.391 1.02-.739.682-1.109 1.435-1.109 2.266h6.999zm23.619 8.644c0 .793-.253 1.462-.758 2.02-.512.553-1.154.833-1.938.833-1.892 0-2.838-1.507-2.838-4.514 0-.579.039-1.488.117-2.741.084-1.248.123-2.163.123-2.741 0-3.19-1.03-4.787-3.084-4.787-2.055 0-3.078 1.597-3.078 4.787 0 .578.032 1.493.09 2.74.065 1.254.097 2.163.097 2.742 0 3.007-.933 4.514-2.799 4.514-.784 0-1.425-.28-1.93-.832-.513-.559-.765-1.228-.765-2.02V12.144c0-.787.252-1.455.764-1.995.506-.545 1.154-.817 1.938-.817 1.296 0 2.196.576 2.702 1.727.874-1.39 2.423-2.085 4.64-2.085 2.053 0 3.686.545 4.885 1.63 1.225 1.163 1.834 2.76 1.834 4.793v10.144zm16.996-.577c0 1.227-.796 2.201-2.39 2.917a9.609 9.609 0 01-4.024.87c-2.73 0-4.945-.988-6.655-2.955-1.64-1.878-2.463-4.197-2.463-6.95 0-2.76.836-5.092 2.514-7.002 1.679-1.915 3.875-2.87 6.604-2.87 1.574 0 2.928.233 4.057.695 1.573.623 2.357 1.597 2.357 2.922 0 .669-.207 1.26-.622 1.773-.414.507-.946.767-1.593.767-.442 0-1.077-.15-1.906-.441-.83-.3-1.49-.443-1.975-.443-1.29 0-2.295.462-3.014 1.384-.668.831-1.005 1.896-1.005 3.215 0 1.24.298 2.293.902 3.144.666.994 1.607 1.487 2.805 1.487.532 0 1.257-.156 2.183-.475.928-.31 1.595-.473 2.01-.473.602 0 1.12.26 1.562.766.434.513.653 1.064.653 1.67zm19.693.577c0 .793-.253 1.462-.759 2.02-.511.553-1.159.833-1.944.833-1.179 0-2.021-.579-2.527-1.728-1.133 1.39-2.682 2.084-4.645 2.084-2.514 0-4.575-1.058-6.17-3.163-1.45-1.922-2.182-4.17-2.182-6.74 0-2.573.731-4.82 2.183-6.75 1.62-2.085 3.674-3.123 6.169-3.123 1.963 0 3.512.695 4.645 2.085.506-1.15 1.348-1.727 2.527-1.727a2.54 2.54 0 011.926.83c.517.559.777 1.215.777 1.982v13.397zm-5.417-6.695c0-1.247-.298-2.3-.895-3.15-.693-.968-1.626-1.449-2.799-1.449-1.199 0-2.131.481-2.799 1.448-.602.851-.9 1.904-.9 3.151 0 1.24.29 2.305.866 3.182.689.967 1.634 1.449 2.833 1.449 1.199 0 2.132-.482 2.799-1.449.597-.877.895-1.942.895-3.182zm19.239-7.06c0 1.162-.564 1.961-1.692 2.396-1.043.351-2.08.71-3.117 1.078-1.135.65-1.698 1.858-1.698 3.612v6.67c0 .792-.259 1.461-.764 2.02-.513.552-1.16.832-1.944.832-.79 0-1.439-.28-1.943-.832-.513-.559-.766-1.228-.766-2.02V12.144c0-.787.253-1.455.759-1.995.511-.545 1.16-.817 1.944-.817 1.295 0 2.196.576 2.702 1.727 1.16-1.39 2.404-2.085 3.745-2.085.764 0 1.419.278 1.963.83.538.56.811 1.222.811 1.982zm14.132.247c0 1.207-.473 1.967-1.411 2.293-.462.162-1.428.246-2.899.246v10.97c0 .792-.259 1.461-.763 2.02-.513.552-1.161.832-1.944.832-.764 0-1.414-.28-1.932-.832-.518-.559-.777-1.228-.777-2.02v-10.97c-1.115 0-1.925-.143-2.436-.421-.699-.39-1.045-1.098-1.045-2.118 0-1.02.357-1.715 1.076-2.085.486-.273 1.29-.416 2.405-.416V7.208c0-2.734.899-4.098 2.709-4.098 1.801 0 2.707 1.364 2.707 4.098v2.325c1.471 0 2.437.085 2.899.247.938.325 1.411 1.079 1.411 2.254zm43.521-3.298c-.015-1.667-3.089-2.424-11.045-2.424-18.668 0-23.404-.8-28.472-6.145 2.132 3.21 3.299 9.23 23.03 8.93 20.587-.317 8.028 5.321 4.374 11.691 6.59-5.895 12.093-9.781 12.113-12.028v-.024zm-26.233 17.119a2.836 2.836 0 01-2.819 2.825 2.824 2.824 0 01-2.824-2.825v-.002a2.84 2.84 0 012.823-2.83h.001a2.824 2.824 0 012.819 2.832zm12.856 0a2.837 2.837 0 01-2.819 2.825 2.825 2.825 0 01-2.824-2.825v-.002a2.84 2.84 0 012.823-2.83h.001a2.824 2.824 0 012.819 2.832z" fill="url(#paint0_linear_310_10129)"/></g><defs><linearGradient id="paint0_linear_310_10129" x1="92.002" y1="28.512" x2="92.002" y2=".167" gradientUnits="userSpaceOnUse"><stop stop-color="#04B6F0"/><stop offset="1" stop-color="#3ECAF0"/></linearGradient><clipPath id="clip0_310_10129"><path fill="#fff" d="M0 0h184v36H0z"/></clipPath></defs></svg>