<svg width="90" height="124" fill="none" xmlns="http://www.w3.org/2000/svg"><path d="M39.995 124a5.618 5.618 0 01-1.912-.338 5.627 5.627 0 01-2.849-2.326 5.646 5.646 0 01-.807-3.592l3.798-35.05a4.435 4.435 0 00-4.409-4.912H5.632A5.614 5.614 0 01.66 74.793a5.647 5.647 0 01.306-5.804L45.337 2.481a5.612 5.612 0 016.58-2.142 5.626 5.626 0 012.758 2.212 5.646 5.646 0 01.898 3.424L51.771 41.31a4.435 4.435 0 004.41 4.91h28.187a5.615 5.615 0 014.973 2.988 5.647 5.647 0 01-.305 5.804L44.663 121.52a5.623 5.623 0 01-4.668 2.48z" fill="#1D4ED8"/></svg>