<svg width="872" height="848" fill="none" xmlns="http://www.w3.org/2000/svg"><path d="M387.504 1024a54.445 54.445 0 01-18.526-3.27 54.537 54.537 0 01-27.596-22.491 54.51 54.51 0 01-7.823-34.734l41.957-386.403H54.572a54.489 54.489 0 01-48.187-28.901 54.507 54.507 0 012.96-56.119L439.27-151.015a54.482 54.482 0 0163.753-20.71 54.507 54.507 0 0135.419 54.5l-41.957 389.128h320.944a54.495 54.495 0 0154.496 57.372 54.505 54.505 0 01-9.269 27.648L432.731 1000.02a54.447 54.447 0 01-19.623 17.63 54.54 54.54 0 01-25.604 6.35z" fill="url(#paint0_linear_181_14430)"/><defs><linearGradient id="paint0_linear_181_14430" x1="436" y1="-175" x2="436" y2="1024" gradientUnits="userSpaceOnUse"><stop stop-color="#fff"/><stop offset="1" stop-color="#fff"/></linearGradient></defs></svg>