<svg width="60" height="82" fill="none" xmlns="http://www.w3.org/2000/svg"><path d="M26.663 82a3.745 3.745 0 01-3.174-1.762 3.71 3.71 0 01-.538-2.375l2.887-26.426H3.755a3.766 3.766 0 01-1.934-.531A3.737 3.737 0 01.44 49.46a3.71 3.71 0 01.204-3.838L30.225 1.64A3.747 3.747 0 0132.173.182a3.77 3.77 0 012.439.042c.755.279 1.4.792 1.838 1.463.44.671.649 1.465.599 2.264l-2.887 26.613h22.083a3.766 3.766 0 011.934.53 3.738 3.738 0 011.382 1.446 3.71 3.71 0 01-.204 3.838L29.775 80.36c-.344.506-.807.92-1.35 1.206a3.768 3.768 0 01-1.762.434z" fill="url(#paint0_linear_136_8418)"/><path d="M26.663 82a3.745 3.745 0 01-3.174-1.762 3.71 3.71 0 01-.538-2.375l2.887-26.426H3.755a3.766 3.766 0 01-1.934-.531A3.737 3.737 0 01.44 49.46a3.71 3.71 0 01.204-3.838L30.225 1.64A3.747 3.747 0 0132.173.182a3.77 3.77 0 012.439.042c.755.279 1.4.792 1.838 1.463.44.671.649 1.465.599 2.264l-2.887 26.613h22.083a3.766 3.766 0 011.934.53 3.738 3.738 0 011.382 1.446 3.71 3.71 0 01-.204 3.838L29.775 80.36c-.344.506-.807.92-1.35 1.206a3.768 3.768 0 01-1.762.434z" fill="url(#paint1_linear_136_8418)"/><defs><linearGradient id="paint0_linear_136_8418" x1="7.872" y1="30.189" x2="58.068" y2="76.35" gradientUnits="userSpaceOnUse"><stop stop-color="#0052CC"/><stop offset="1" stop-color="#0F93F2"/></linearGradient><linearGradient id="paint1_linear_136_8418" x1="10.245" y1="95.888" x2="63.164" y2="7.698" gradientUnits="userSpaceOnUse"><stop stop-color="#0045CC"/><stop offset="1" stop-color="#24A3FF"/></linearGradient></defs></svg>