<svg width="265" height="332" fill="none" xmlns="http://www.w3.org/2000/svg"><g filter="url(#filter0_ddd_822_12922)"><path d="M95.328 11.4a4 4 0 015.344 0l4.707 4.226a4 4 0 004.484.59l5.64-2.864a4 4 0 015.163 1.383l3.452 5.301a4 4 0 004.178 1.73l6.19-1.306a4 4 0 014.629 2.672l1.963 6.014a3.999 3.999 0 003.587 2.753l6.317.34a4 4 0 013.779 3.779l.34 6.317a4.001 4.001 0 002.753 3.587l6.014 1.963a4 4 0 012.672 4.63l-1.307 6.189a4.001 4.001 0 001.731 4.178l5.301 3.452a4 4 0 011.383 5.163l-2.864 5.64a4 4 0 00.59 4.484l4.226 4.707a4 4 0 010 5.344l-4.226 4.707a4 4 0 00-.59 4.484l2.864 5.64a4 4 0 01-1.384 5.163l-5.3 3.452a4.002 4.002 0 00-1.731 4.178l1.307 6.19a4 4 0 01-2.672 4.629l-6.014 1.963a4 4 0 00-2.753 3.587l-.34 6.317a3.998 3.998 0 01-3.779 3.779l-6.317.34a4 4 0 00-3.587 2.753l-1.963 6.014a4 4 0 01-4.629 2.672l-6.19-1.307a4.002 4.002 0 00-4.178 1.731l-3.452 5.301a4.001 4.001 0 01-5.163 1.383l-5.64-2.864a4 4 0 00-4.484.59l-4.707 4.226a4 4 0 01-5.344 0l-4.707-4.226a4 4 0 00-4.484-.59l-5.64 2.864a4 4 0 01-5.163-1.384l-3.452-5.3a4.001 4.001 0 00-4.178-1.731l-6.19 1.307a4 4 0 01-4.629-2.672l-1.963-6.014a4.001 4.001 0 00-3.587-2.753l-6.317-.34a4 4 0 01-3.78-3.779l-.34-6.317a3.999 3.999 0 00-2.752-3.587l-6.014-1.963a4 4 0 01-2.672-4.629l1.307-6.19a4 4 0 00-1.73-4.178l-5.302-3.452a4 4 0 01-1.383-5.163l2.864-5.64a4 4 0 00-.59-4.484L20.4 91.672a4 4 0 010-5.344l4.226-4.707a4 4 0 00.59-4.484l-2.864-5.64a4 4 0 011.383-5.163l5.301-3.452a4 4 0 001.73-4.178l-1.306-6.19a4 4 0 012.672-4.629l6.014-1.963a4 4 0 002.753-3.587l.34-6.317a4 4 0 013.779-3.78l6.317-.34a4 4 0 003.587-2.752l1.963-6.014a4 4 0 014.63-2.672l6.189 1.307a4 4 0 004.178-1.73l3.452-5.301a4 4 0 015.163-1.384l5.64 2.864a4 4 0 004.484-.59l4.707-4.226z" fill="#fff"/><path d="M95.662 11.772a3.5 3.5 0 014.676 0l4.707 4.226a4.5 4.5 0 005.044.664l5.64-2.864a3.5 3.5 0 014.518 1.21l3.452 5.301a4.501 4.501 0 004.701 1.947l6.189-1.307a3.5 3.5 0 014.05 2.338l1.963 6.014a4.501 4.501 0 004.036 3.097l6.317.34a3.5 3.5 0 013.307 3.307l.34 6.316a4.5 4.5 0 003.097 4.037l6.013 1.963a3.5 3.5 0 012.339 4.05l-1.307 6.19a4.5 4.5 0 001.947 4.7l5.301 3.452a3.5 3.5 0 011.21 4.517l-2.864 5.64a4.499 4.499 0 00.664 5.045l4.226 4.707a3.499 3.499 0 010 4.676l-4.226 4.707a4.498 4.498 0 00-.664 5.044l2.864 5.64a3.501 3.501 0 01-1.21 4.518l-5.301 3.452a4.502 4.502 0 00-1.947 4.701l1.307 6.189a3.5 3.5 0 01-2.339 4.05l-6.013 1.963a4.5 4.5 0 00-3.097 4.036l-.34 6.317a3.5 3.5 0 01-3.307 3.307l-6.317.34a4.5 4.5 0 00-4.036 3.097l-1.963 6.013a3.5 3.5 0 01-4.05 2.339l-6.189-1.307a4.502 4.502 0 00-4.701 1.947l-3.452 5.301a3.501 3.501 0 01-4.518 1.21l-5.64-2.864a4.499 4.499 0 00-5.044.664l-4.707 4.226a3.498 3.498 0 01-4.676 0l-4.707-4.226a4.499 4.499 0 00-5.044-.664l-5.64 2.864a3.5 3.5 0 01-4.518-1.21l-3.452-5.301a4.5 4.5 0 00-4.7-1.947l-6.19 1.307a3.5 3.5 0 01-4.05-2.339l-1.963-6.013a4.5 4.5 0 00-4.037-3.097l-6.316-.34a3.5 3.5 0 01-3.307-3.307l-.34-6.317a4.501 4.501 0 00-3.097-4.036l-6.014-1.963a3.5 3.5 0 01-2.338-4.05l1.307-6.189a4.501 4.501 0 00-1.947-4.701l-5.3-3.452a3.5 3.5 0 01-1.211-4.518l2.864-5.64a4.5 4.5 0 00-.664-5.044l-4.226-4.707a3.5 3.5 0 010-4.676l4.226-4.707a4.5 4.5 0 00.664-5.044l-2.864-5.64a3.5 3.5 0 011.21-4.518l5.301-3.452a4.5 4.5 0 001.947-4.7l-1.307-6.19a3.5 3.5 0 012.338-4.05l6.014-1.963a4.5 4.5 0 003.097-4.037l.34-6.316a3.5 3.5 0 013.307-3.307l6.316-.34a4.5 4.5 0 004.037-3.097l1.963-6.013a3.5 3.5 0 014.05-2.339l6.19 1.307a4.5 4.5 0 004.7-1.947l3.452-5.3a3.5 3.5 0 014.517-1.211l5.64 2.864a4.5 4.5 0 005.045-.664l4.707-4.226z" stroke="url(#paint0_linear_822_12922)"/></g><path d="M151.143 97.293c.077-.807.322-1.505.736-2.094a3.784 3.784 0 011.643-1.32c.683-.293 1.466-.402 2.351-.329a4.97 4.97 0 011.74.449c.518.25.955.574 1.31.975.355.405.615.867.778 1.387a4.19 4.19 0 01.165 1.685c-.062.652-.202 1.191-.419 1.62a4.026 4.026 0 01-.862 1.138l-1.543-1.062c.26-.196.462-.442.606-.738a2.77 2.77 0 00.276-.995 2.592 2.592 0 00-.081-.992 1.956 1.956 0 00-.415-.766 2.109 2.109 0 00-.721-.516 3.03 3.03 0 00-.99-.24c-.509-.042-.955.015-1.335.171-.38.16-.685.407-.914.74-.224.334-.36.745-.406 1.232-.033.35-.01.701.068 1.053.083.356.237.698.463 1.029l-1.748.71a4.283 4.283 0 01-.6-1.356c-.132-.517-.166-1.11-.102-1.78zm-.458 5.483l8.09 2.109-.874 2.926c-.23.771-.587 1.341-1.072 1.711-.48.371-1.06.469-1.738.292a1.682 1.682 0 01-.64-.318 1.835 1.835 0 01-.44-.528c-.11-.2-.184-.411-.222-.634a2.249 2.249 0 01-1.062.782c-.433.158-.897.173-1.39.045-.481-.126-.865-.348-1.152-.668a2.192 2.192 0 01-.541-1.171c-.073-.465-.024-.982.146-1.55l.895-2.996zm.88 2.161l-.282.945c-.116.389-.119.702-.007.941.111.238.337.402.676.49.323.085.602.056.835-.085.236-.136.408-.388.518-.755l.3-1.004-2.04-.532zm3.358.876l-.266.89a1.27 1.27 0 00-.051.587c.03.178.105.328.227.449.121.124.283.213.487.266.297.078.554.044.772-.101.216-.141.376-.385.48-.73l.258-.864-1.907-.497zm-6.671 5.124l2.067 3.294c.415-.392.871-.641 1.367-.747.495-.102.997-.036 1.507.198.525.24.906.552 1.146.936.239.385.342.821.308 1.309-.03.49-.187 1.007-.473 1.55l-1.447 2.758-7.542-3.456.877-1.67 2.774 1.271.336-.639-1.924-2.892 1.004-1.912zm2.551 5.083l-.534 1.016 1.864.854.521-.991c.179-.342.247-.646.204-.911-.04-.264-.221-.47-.544-.618-.324-.148-.612-.164-.865-.047-.249.119-.465.351-.646.697zm-12.737 10.279l5.318.355 1.402 4.361-1.422 1.643-1.369-4.4-5.389-.272 1.46-1.687zm6.289-7.265l1.339 4.781 4.947.436-1.464 1.691-4.801-.47-1.425-4.817 1.404-1.621zm-3.245 3.748l2.776 2.097.894-1.033 1.288.972-.894 1.033 2.468 1.865-1.252 1.447-2.468-1.865-.902 1.042-1.288-.973.902-1.041-2.776-2.097 1.252-1.447zm-6.41 6.953l5.137 6.209-1.562 1.127-3.21-3.88.519 5.824-1.566 1.131-5.138-6.208 1.562-1.128 3.251 3.929-.55-5.879 1.557-1.125zm-10.38 6.87l3.007 5.47 1.991-.956.831 1.511-5.764 2.766-.831-1.511 1.991-.955-3.007-5.469 1.782-.856zm-6.141 2.859l2.563 7.473-5.623 1.683-.527-1.538 3.725-1.115-.475-1.387-3.126.935-.487-1.42 3.126-.935-.54-1.575-3.771 1.129-.533-1.553 5.668-1.697zm-12.518 2.811c.86-.109 1.643-.04 2.349.206a3.846 3.846 0 011.743 1.205c.456.556.744 1.246.863 2.068.087.6.06 1.161-.082 1.685a3.778 3.778 0 01-.728 1.41 4.11 4.11 0 01-1.275 1.015 5.01 5.01 0 01-1.722.524c-.694.088-1.288.08-1.784-.023a4.456 4.456 0 01-1.379-.532l.767-1.641c.262.193.563.322.904.388.341.07.708.08 1.1.031.389-.05.728-.147 1.017-.293.287-.142.522-.325.708-.548.181-.223.308-.48.378-.772.071-.292.081-.61.031-.954-.069-.474-.227-.867-.474-1.179a2.07 2.07 0 00-.975-.668c-.398-.131-.857-.163-1.376-.097a4.03 4.03 0 00-1.083.295 3.393 3.393 0 00-.972.65l-1.128-1.435a4.764 4.764 0 011.281-.847c.511-.235 1.123-.397 1.837-.488zm-6.032.775l-.422 7.837-1.989-.094.143-2.658-1.372-.065c-.624-.029-1.171-.158-1.644-.386-.476-.224-.842-.537-1.097-.938-.258-.401-.373-.874-.344-1.419.022-.41.114-.773.275-1.087.161-.314.39-.577.685-.787a2.982 2.982 0 011.052-.456c.41-.093.876-.127 1.399-.103l3.314.156zm-2.074 1.463l-1.276-.06c-.42-.02-.749.041-.989.184-.244.145-.376.397-.395.755-.02.359.089.624.324.796.23.175.544.272.94.291l1.288.06.108-2.026zm-16.068-4.283c.823.259 1.492.645 2.007 1.158.515.513.845 1.114.99 1.802.144.688.074 1.425-.21 2.211a4.326 4.326 0 01-.874 1.476c-.38.412-.822.733-1.322.962a4.424 4.424 0 01-1.625.381 5.1 5.1 0 01-1.793-.245c-.663-.209-1.192-.462-1.587-.76a4.103 4.103 0 01-.982-1.049l1.467-1.153c.143.282.351.523.625.724.272.204.596.365.971.483.372.117.722.17 1.051.159.324-.008.622-.074.894-.197a2.09 2.09 0 00.706-.535c.202-.232.362-.513.481-.842.164-.453.209-.871.136-1.253a1.898 1.898 0 00-.556-1.003c-.295-.282-.691-.501-1.188-.658a4.074 4.074 0 00-1.11-.184 3.576 3.576 0 00-1.18.179l-.329-1.754c.463-.15.98-.226 1.55-.227.57.001 1.196.11 1.878.325zm-9.882-3.773l-4.79 6.445-1.637-1.062 1.776-2.389-2.72-1.765-1.776 2.39-1.636-1.062 4.79-6.445 1.637 1.061-1.978 2.661 2.72 1.765 1.978-2.661 1.636 1.062zm-7.855-5.045l-8.225 3.337-1.603-1.553 3.847-7.577 1.558 1.509-.815 1.504 2.091 2.025 1.63-.713 1.517 1.468zm-4.656.02l-1.457-1.412-1.358 2.593 2.815-1.181zm-3.214-7.658l-7.152 4.115-1.004-1.523 2.837-5.134.42.627-6.107.183-1-1.517 7.152-4.115 1.013 1.537-5.005 2.84-.079-.344 4.801-.102.696 1.054-2.21 4.036-.286-.211 4.967-2.897.957 1.451zm-6.422-10.113l-7.95 2.534-.637-1.745 4.968-1.584-6.067-1.424-.64-1.75 7.95-2.535.638 1.746-5.031 1.603 6.133 1.415.636 1.74zm-4.455-32.954c-.078.807-.327 1.505-.747 2.094a3.838 3.838 0 01-1.671 1.32c-.694.293-1.49.402-2.39.329a5.118 5.118 0 01-1.77-.449 4.169 4.169 0 01-1.331-.975 3.795 3.795 0 01-.791-1.387 4.125 4.125 0 01-.168-1.685c.064-.651.206-1.191.427-1.62.22-.428.513-.807.875-1.138l1.57 1.062c-.265.196-.47.442-.617.738a2.746 2.746 0 00-.28.995c-.035.365-.008.696.081.992.087.292.227.547.422.766.196.215.44.386.734.516a3.12 3.12 0 001.006.24c.518.042.97-.015 1.357-.171a2.08 2.08 0 00.93-.74c.228-.334.365-.745.413-1.232.033-.35.01-.701-.07-1.053a3.01 3.01 0 00-.47-1.028l1.777-.71c.27.385.472.837.61 1.355.134.517.168 1.11.103 1.78zm.467-5.483l-8.226-2.11.889-2.925c.234-.77.597-1.34 1.09-1.711.488-.371 1.077-.468 1.766-.292.251.065.468.17.651.318s.332.324.448.528c.112.2.187.411.225.634.28-.366.64-.627 1.08-.782.44-.158.912-.173 1.413-.044.49.125.88.347 1.172.667.292.315.475.706.55 1.17.073.466.024.983-.149 1.551l-.91 2.996zm-.896-2.161l.287-.945c.118-.388.12-.702.007-.94-.113-.24-.342-.403-.687-.491-.329-.084-.612-.056-.849.085-.24.136-.415.388-.527.755L42.5 72.53l2.074.532zm-3.413-.876l.27-.89c.066-.216.083-.412.052-.587a.797.797 0 00-.231-.449 1.04 1.04 0 00-.495-.266c-.302-.078-.563-.044-.785.101-.22.141-.383.385-.488.73l-.262.864 1.939.497zm6.781-5.124l-2.1-3.294c-.423.392-.886.641-1.39.747-.504.102-1.014.036-1.533-.198-.533-.24-.921-.552-1.164-.936a2.109 2.109 0 01-.314-1.31c.03-.489.19-1.006.48-1.55l1.473-2.757 7.667 3.456-.892 1.67-2.82-1.27-.341.638 1.955 2.892-1.02 1.912zM45.35 61.98l.543-1.016-1.895-.854-.53.991c-.182.342-.251.646-.207.912.04.263.225.47.553.617.329.148.622.164.88.047.253-.12.472-.351.656-.697zM58.298 51.7l-5.406-.354-1.426-4.36 1.446-1.644 1.392 4.4 5.478.272-1.484 1.687zm-6.393 7.266l-1.362-4.781-5.03-.436 1.489-1.69 4.881.47 1.449 4.816-1.427 1.621zm3.298-3.748l-2.822-2.097-.909 1.033-1.309-.972.909-1.033-2.51-1.865 1.274-1.447 2.51 1.865.916-1.042 1.309.973-.917 1.041 2.823 2.097-1.274 1.447zm6.517-6.953l-5.222-6.209 1.588-1.127 3.264 3.88-.528-5.824 1.592-1.131 5.223 6.208-1.588 1.128-3.305-3.93.56 5.88-1.583 1.125zm10.553-6.87l-3.057-5.47-2.024.956-.844-1.511 5.86-2.766.844 1.51-2.024.956 3.058 5.47-1.813.855zm6.244-2.859l-2.605-7.473 5.716-1.682.535 1.537-3.787 1.115.484 1.387 3.177-.935.495 1.42-3.177.935.55 1.575 3.833-1.129.541 1.553-5.762 1.697zm12.727-2.811c-.875.109-1.67.04-2.388-.206a3.905 3.905 0 01-1.772-1.204c-.464-.557-.757-1.247-.878-2.069-.089-.6-.06-1.161.084-1.685a3.73 3.73 0 01.74-1.41 4.14 4.14 0 011.296-1.015 5.17 5.17 0 011.75-.524c.706-.088 1.31-.08 1.814.023.504.103.97.28 1.402.532l-.78 1.641a2.272 2.272 0 00-.919-.388c-.347-.07-.72-.08-1.118-.03a3.2 3.2 0 00-1.034.292 2.184 2.184 0 00-.72.548 1.91 1.91 0 00-.384.772c-.072.292-.083.61-.032.954.07.474.23.867.482 1.179.255.311.586.534.991.668.405.13.872.163 1.4.097a4.138 4.138 0 001.1-.295 3.43 3.43 0 00.988-.65l1.148 1.436c-.35.326-.784.608-1.303.846-.52.235-1.142.397-1.867.488zm6.133-.775l.428-7.837 2.022.094-.145 2.659 1.395.064c.634.03 1.191.158 1.671.386.484.224.856.537 1.115.938.263.401.38.874.35 1.419-.022.41-.116.773-.279 1.087a2.184 2.184 0 01-.697.787 3.053 3.053 0 01-1.069.456 5.41 5.41 0 01-1.423.103l-3.368-.156zm2.107-1.463l1.298.06c.426.02.761-.041 1.005-.183.248-.146.382-.398.402-.756.019-.359-.09-.624-.329-.796-.235-.175-.553-.272-.955-.29l-1.31-.061-.11 2.026zm16.336 4.283c-.836-.258-1.516-.645-2.04-1.158a3.504 3.504 0 01-1.006-1.802c-.147-.688-.076-1.425.213-2.211.21-.574.506-1.066.889-1.476a4.174 4.174 0 011.344-.962 4.534 4.534 0 011.652-.38 5.264 5.264 0 011.822.244c.674.209 1.212.462 1.614.76.401.298.734.648.999 1.049l-1.492 1.153a2.04 2.04 0 00-.635-.724 3.3 3.3 0 00-.988-.483 3.258 3.258 0 00-1.068-.16 2.363 2.363 0 00-.909.198 2.128 2.128 0 00-.718.535 2.623 2.623 0 00-.489.842c-.166.453-.212.87-.138 1.253.078.383.267.717.566 1.003.299.282.702.501 1.207.658a4.18 4.18 0 001.129.184c.396.008.796-.051 1.199-.179l.335 1.754c-.472.15-.997.226-1.577.227-.579-.001-1.215-.11-1.909-.324zm10.047 3.774l4.871-6.446 1.663 1.062-1.805 2.389 2.765 1.765 1.806-2.39 1.663 1.062-4.871 6.445-1.663-1.061 2.011-2.661-2.766-1.765-2.011 2.661-1.663-1.061zm7.987 5.044l8.361-3.337 1.63 1.553-3.911 7.578-1.584-1.51.828-1.504-2.125-2.025-1.658.713-1.541-1.468zm4.732-.02l1.482 1.412 1.38-2.593-2.862 1.18zm3.268 7.658l7.272-4.115 1.02 1.523-2.885 5.134-.427-.627 6.21-.183 1.017 1.517-7.271 4.115-1.03-1.537 5.088-2.84.08.344-4.881.102-.707-1.054 2.245-4.036.292.21-5.05 2.898-.973-1.451zm6.529 10.114l8.082-2.535.648 1.745-5.051 1.584 6.168 1.424.651 1.75-8.082 2.535-.648-1.745 5.114-1.604-6.235-1.415-.647-1.74z" fill="#374251"/><path d="M115.328 73.702a1 1 0 111.414 1.414l-1.414-1.414zM87.434 104.01a1 1 0 01-1-1v-9a1 1 0 112 0v8h8a1 1 0 110 2h-9zm29.308-28.894l-28.6 28.601-1.415-1.415 28.601-28.6 1.414 1.414z" fill="#1D4ED8"/><circle cx="155.863" cy="82.459" r="3.019" fill="#1D4ED8"/><circle cx="40.14" cy="95.541" r="3.019" fill="#1D4ED8"/><defs><linearGradient id="paint0_linear_822_12922" x1="49" y1="17" x2="98" y2="169" gradientUnits="userSpaceOnUse"><stop stop-color="#F6F6F6"/><stop offset="1" stop-color="#F6F6F6" stop-opacity="0"/></linearGradient><filter id="filter0_ddd_822_12922" x=".375" y=".376" width="264.25" height="331.248" filterUnits="userSpaceOnUse" color-interpolation-filters="sRGB"><feFlood flood-opacity="0" result="BackgroundImageFix"/><feColorMatrix in="SourceAlpha" values="0 0 0 0 0 0 0 0 0 0 0 0 0 0 0 0 0 0 127 0" result="hardAlpha"/><feOffset dx="2" dy="7"/><feGaussianBlur stdDeviation="8.5"/><feColorMatrix values="0 0 0 0 0 0 0 0 0 0 0 0 0 0 0 0 0 0 0.12 0"/><feBlend in2="BackgroundImageFix" result="effect1_dropShadow_822_12922"/><feColorMatrix in="SourceAlpha" values="0 0 0 0 0 0 0 0 0 0 0 0 0 0 0 0 0 0 127 0" result="hardAlpha"/><feOffset dx="22" dy="65"/><feGaussianBlur stdDeviation="20.5"/><feColorMatrix values="0 0 0 0 0 0 0 0 0 0 0 0 0 0 0 0 0 0 0.06 0"/><feBlend in2="effect1_dropShadow_822_12922" result="effect2_dropShadow_822_12922"/><feColorMatrix in="SourceAlpha" values="0 0 0 0 0 0 0 0 0 0 0 0 0 0 0 0 0 0 127 0" result="hardAlpha"/><feOffset dx="39" dy="115"/><feGaussianBlur stdDeviation="24.5"/><feColorMatrix values="0 0 0 0 0 0 0 0 0 0 0 0 0 0 0 0 0 0 0.02 0"/><feBlend in2="effect2_dropShadow_822_12922" result="effect3_dropShadow_822_12922"/><feBlend in="SourceGraphic" in2="effect3_dropShadow_822_12922" result="shape"/></filter></defs></svg>