<svg width="160" height="160" fill="none" xmlns="http://www.w3.org/2000/svg"><path d="M77.662 2.772a3.5 3.5 0 014.676 0l4.707 4.226a4.5 4.5 0 005.044.664l5.64-2.864a3.5 3.5 0 014.518 1.21l3.452 5.301a4.501 4.501 0 004.701 1.947l6.189-1.307a3.5 3.5 0 014.05 2.338l1.963 6.014a4.501 4.501 0 004.036 3.097l6.317.34a3.5 3.5 0 013.307 3.307l.34 6.316a4.5 4.5 0 003.097 4.037l6.013 1.963a3.5 3.5 0 012.339 4.05l-1.307 6.19a4.5 4.5 0 001.947 4.7l5.301 3.452a3.5 3.5 0 011.21 4.517l-2.864 5.64a4.499 4.499 0 00.664 5.045l4.226 4.707a3.499 3.499 0 010 4.676l-4.226 4.707a4.499 4.499 0 00-.664 5.044l2.864 5.64a3.5 3.5 0 01-1.21 4.518l-5.301 3.452a4.502 4.502 0 00-1.947 4.701l1.307 6.189a3.5 3.5 0 01-2.339 4.05l-6.013 1.963a4.5 4.5 0 00-3.097 4.036l-.34 6.317a3.5 3.5 0 01-3.307 3.307l-6.317.34a4.5 4.5 0 00-4.036 3.097l-1.963 6.013a3.5 3.5 0 01-4.05 2.339l-6.189-1.307a4.502 4.502 0 00-4.701 1.947l-3.452 5.301a3.5 3.5 0 01-4.517 1.21l-5.64-2.864a4.499 4.499 0 00-5.045.664l-4.707 4.226a3.499 3.499 0 01-4.676 0l-4.707-4.226a4.499 4.499 0 00-5.044-.664l-5.64 2.864a3.5 3.5 0 01-4.518-1.21l-3.452-5.301a4.5 4.5 0 00-4.7-1.947l-6.19 1.307a3.5 3.5 0 01-4.05-2.339l-1.963-6.013a4.5 4.5 0 00-4.037-3.097l-6.316-.34a3.5 3.5 0 01-3.307-3.307l-.34-6.317a4.501 4.501 0 00-3.097-4.036l-6.013-1.963a3.5 3.5 0 01-2.339-4.05l1.307-6.189a4.501 4.501 0 00-1.947-4.701l-5.3-3.452a3.5 3.5 0 01-1.211-4.517l2.864-5.64a4.5 4.5 0 00-.664-5.045l-4.226-4.707a3.5 3.5 0 010-4.676l4.226-4.707a4.5 4.5 0 00.664-5.044l-2.864-5.64a3.5 3.5 0 011.21-4.518l5.301-3.452a4.5 4.5 0 001.947-4.7l-1.307-6.19a3.5 3.5 0 012.338-4.05l6.014-1.963a4.5 4.5 0 003.097-4.037l.34-6.316a3.5 3.5 0 013.307-3.307l6.316-.34a4.5 4.5 0 004.037-3.097l1.963-6.013a3.5 3.5 0 014.05-2.339l6.19 1.307a4.5 4.5 0 004.7-1.947l3.452-5.3a3.5 3.5 0 014.517-1.211l5.64 2.864a4.5 4.5 0 005.045-.664l4.707-4.226z" fill="#fff" stroke="url(#paint0_linear_10_430)"/><path d="M133.143 88.293c.076-.807.322-1.505.735-2.094a3.78 3.78 0 011.644-1.32c.682-.293 1.465-.402 2.35-.329a4.97 4.97 0 011.74.449c.518.25.955.574 1.311.975.355.405.614.867.777 1.387a4.19 4.19 0 01.165 1.685c-.062.652-.202 1.191-.419 1.62a4.047 4.047 0 01-.861 1.138l-1.544-1.062c.26-.196.462-.442.607-.738.148-.295.24-.627.275-.995a2.593 2.593 0 00-.08-.992 1.982 1.982 0 00-.415-.766 2.113 2.113 0 00-.722-.516 3.03 3.03 0 00-.989-.24c-.51-.042-.955.015-1.336.171-.38.16-.685.407-.913.74-.225.334-.36.745-.407 1.232-.033.35-.01.701.069 1.053.082.356.236.698.462 1.029l-1.748.71a4.28 4.28 0 01-.6-1.356c-.131-.517-.165-1.11-.101-1.78zm-.459 5.483l8.091 2.11-.875 2.925c-.23.77-.587 1.341-1.072 1.711-.48.371-1.059.469-1.737.292a1.667 1.667 0 01-.64-.318 1.835 1.835 0 01-.441-.528c-.11-.2-.184-.411-.221-.634-.276.366-.63.627-1.062.782-.434.158-.897.173-1.39.045-.482-.126-.866-.348-1.153-.668a2.198 2.198 0 01-.541-1.17c-.072-.466-.024-.982.146-1.551l.895-2.996zm.881 2.161l-.283.945c-.116.389-.118.702-.007.94.112.24.337.403.676.491.324.085.602.056.835-.085.236-.136.409-.388.518-.755l.3-1.004-2.039-.532zm3.357.876l-.266.89a1.266 1.266 0 00-.051.587c.03.178.106.328.227.449.121.124.283.213.488.266.296.078.553.044.771-.1.217-.142.377-.386.48-.731l.258-.864-1.907-.497zm-6.67 5.124l2.066 3.294c.415-.392.871-.641 1.368-.747.494-.102.997-.036 1.507.198.524.24.906.552 1.145.936.239.385.342.821.308 1.309-.029.49-.187 1.007-.472 1.55l-1.448 2.758-7.542-3.456.878-1.67 2.774 1.271.335-.639-1.923-2.892 1.004-1.912zm2.55 5.083l-.533 1.016 1.863.854.521-.991c.179-.342.248-.646.204-.911-.039-.264-.221-.47-.544-.618-.323-.148-.611-.164-.864-.047-.25.119-.465.351-.647.697zm-12.737 10.279l5.318.355 1.403 4.361-1.423 1.643-1.368-4.4-5.389-.272 1.459-1.687zm6.289-7.265l1.339 4.781 4.947.436-1.463 1.691-4.802-.47-1.424-4.817 1.403-1.621zm-3.244 3.748l2.776 2.097.894-1.033 1.287.972-.894 1.033 2.468 1.865-1.252 1.447-2.468-1.865-.902 1.042-1.287-.973.901-1.041-2.776-2.097 1.253-1.447zm-6.411 6.953l5.137 6.209-1.561 1.127-3.211-3.88.519 5.824-1.566 1.131-5.137-6.208 1.561-1.128 3.252 3.929-.551-5.879 1.557-1.125zm-10.38 6.87l3.008 5.47 1.99-.956.831 1.511-5.764 2.766-.83-1.511 1.99-.955-3.007-5.469 1.782-.856zm-6.141 2.859l2.563 7.473-5.622 1.683-.528-1.538 3.726-1.115-.476-1.387-3.125.935-.487-1.42 3.125-.935-.54-1.575-3.771 1.129-.533-1.553 5.668-1.697zm-12.518 2.811c.86-.109 1.643-.04 2.349.206a3.837 3.837 0 011.743 1.205c.456.556.744 1.246.863 2.068.088.6.06 1.161-.082 1.685a3.774 3.774 0 01-.728 1.41 4.101 4.101 0 01-1.275 1.015 5.011 5.011 0 01-1.722.524c-.694.088-1.288.08-1.784-.023a4.453 4.453 0 01-1.379-.532l.767-1.641c.262.193.564.322.904.388.341.07.708.08 1.1.031.389-.05.728-.147 1.018-.293a2.14 2.14 0 00.707-.548c.182-.223.308-.48.378-.772.071-.292.081-.61.031-.954-.068-.474-.226-.867-.473-1.179a2.071 2.071 0 00-.975-.668c-.399-.131-.858-.163-1.377-.097a4.04 4.04 0 00-1.083.295 3.383 3.383 0 00-.971.65l-1.13-1.435a4.765 4.765 0 011.283-.847c.51-.235 1.123-.397 1.836-.488zm-6.032.775l-.421 7.837-1.99-.094.143-2.658-1.372-.065c-.623-.029-1.171-.158-1.643-.386-.477-.224-.843-.537-1.097-.938-.26-.401-.374-.874-.345-1.419.022-.41.114-.773.275-1.087.161-.314.39-.577.685-.787a2.984 2.984 0 011.052-.456 5.26 5.26 0 011.4-.103l3.313.156zm-2.073 1.463l-1.277-.06c-.419-.02-.749.041-.989.184-.244.145-.375.397-.395.755-.019.359.089.624.324.796.23.175.544.272.94.291l1.288.06.109-2.026zm-16.069-4.283c.823.259 1.492.645 2.007 1.158.516.513.846 1.114.99 1.802.144.688.074 1.425-.21 2.211a4.328 4.328 0 01-.874 1.476 4.124 4.124 0 01-1.322.962 4.424 4.424 0 01-1.625.381 5.099 5.099 0 01-1.792-.245c-.663-.209-1.193-.462-1.587-.76a4.103 4.103 0 01-.983-1.049l1.467-1.153c.143.282.351.523.625.724.273.204.596.365.972.483.371.117.721.17 1.05.159.324-.008.622-.074.895-.197.268-.124.504-.303.705-.535a2.63 2.63 0 00.482-.842c.163-.453.208-.871.135-1.253a1.897 1.897 0 00-.556-1.003c-.295-.282-.69-.501-1.187-.658a4.076 4.076 0 00-1.111-.184 3.576 3.576 0 00-1.18.179l-.329-1.754a5.05 5.05 0 011.551-.227c.57.001 1.195.11 1.877.325zm-9.882-3.773l-4.79 6.445-1.637-1.062 1.776-2.389-2.72-1.765-1.776 2.39-1.636-1.062 4.79-6.445 1.637 1.061-1.978 2.661 2.72 1.765 1.978-2.661 1.636 1.062zm-7.855-5.045l-8.225 3.337-1.603-1.553 3.847-7.577 1.558 1.509-.814 1.504 2.09 2.025 1.63-.713 1.517 1.468zm-4.655.02l-1.458-1.412-1.357 2.593 2.815-1.181zm-3.214-7.658l-7.153 4.115-1.004-1.523 2.838-5.134.42.627-6.108.183-1-1.517 7.152-4.115 1.013 1.537-5.005 2.84-.078-.344 4.8-.102.696 1.054-2.209 4.036-.286-.211 4.967-2.897.956 1.451zm-6.423-10.113l-7.95 2.534-.637-1.745 4.969-1.584-6.067-1.424-.64-1.75 7.95-2.535.637 1.746-5.03 1.603 6.133 1.415.635 1.74zm-4.454-32.954c-.078.807-.327 1.505-.747 2.094a3.838 3.838 0 01-1.672 1.32c-.693.293-1.49.402-2.389.329a5.118 5.118 0 01-1.77-.449 4.169 4.169 0 01-1.332-.975 3.795 3.795 0 01-.79-1.387 4.125 4.125 0 01-.168-1.685c.063-.651.205-1.191.426-1.62.222-.428.514-.807.876-1.138l1.57 1.062c-.265.196-.47.442-.617.738a2.746 2.746 0 00-.28.995c-.036.365-.008.696.081.992.086.292.227.547.422.766.196.215.44.386.734.516a3.12 3.12 0 001.006.24c.518.042.97-.015 1.357-.171a2.08 2.08 0 00.93-.74c.227-.334.365-.745.412-1.232a3.26 3.26 0 00-.07-1.053 3.008 3.008 0 00-.47-1.028l1.778-.71c.269.385.472.837.61 1.355.134.517.168 1.11.103 1.78zm.466-5.483l-8.225-2.11.889-2.925c.234-.77.597-1.34 1.09-1.711.488-.371 1.077-.468 1.766-.292.25.065.468.17.65.319.184.147.333.323.448.527.113.2.188.411.226.634.28-.366.64-.627 1.08-.782.44-.158.912-.173 1.413-.044.49.125.88.347 1.171.667.293.315.476.706.55 1.17.074.466.025.983-.148 1.551l-.91 2.996zm-.895-2.161l.287-.945c.118-.389.12-.702.007-.94-.113-.24-.342-.403-.687-.491-.329-.084-.612-.056-.849.085-.24.136-.415.388-.527.755L24.5 63.53l2.074.532zm-3.413-.876l.27-.89c.066-.216.083-.412.052-.587a.797.797 0 00-.231-.449 1.04 1.04 0 00-.495-.266c-.302-.078-.564-.044-.785.101-.22.141-.383.385-.488.73l-.262.864 1.939.497zm6.781-5.124l-2.1-3.294c-.423.392-.886.641-1.391.747-.503.102-1.014.036-1.532-.197-.533-.24-.921-.553-1.165-.937a2.108 2.108 0 01-.313-1.31c.03-.489.19-1.006.48-1.55l1.473-2.757 7.667 3.456-.892 1.67-2.82-1.27-.342.638 1.956 2.892-1.02 1.912zM27.35 52.98l.543-1.016-1.895-.854-.53.991c-.182.342-.251.646-.207.912.04.263.225.47.553.617.329.148.622.164.88.047.253-.12.472-.351.656-.697zM40.298 42.7l-5.406-.354-1.426-4.36 1.446-1.644 1.392 4.4 5.478.272-1.484 1.687zm-6.393 7.266l-1.362-4.781-5.03-.436 1.489-1.69 4.881.47 1.449 4.816-1.427 1.621zm3.298-3.748l-2.822-2.097-.909 1.033-1.309-.972.909-1.033-2.51-1.865 1.274-1.447 2.51 1.865.916-1.042 1.309.973-.917 1.041 2.822 2.097-1.273 1.447zm6.517-6.953l-5.222-6.209 1.587-1.127 3.265 3.88-.528-5.824 1.592-1.131 5.223 6.208-1.588 1.128-3.305-3.93.56 5.88-1.584 1.125zm10.553-6.87l-3.057-5.47-2.024.956-.844-1.511 5.86-2.766.844 1.51-2.024.956 3.058 5.47-1.813.855zm6.244-2.859l-2.606-7.473 5.716-1.682.536 1.537-3.787 1.115.484 1.387 3.177-.935.495 1.42-3.177.935.549 1.575 3.834-1.129.541 1.553-5.762 1.697zm12.727-2.811c-.875.109-1.67.04-2.388-.206a3.905 3.905 0 01-1.772-1.204c-.464-.557-.757-1.247-.878-2.069-.089-.6-.06-1.161.084-1.684.147-.528.394-.998.74-1.41.349-.414.78-.752 1.296-1.016a5.17 5.17 0 011.75-.524c.706-.088 1.31-.08 1.814.023.503.103.97.28 1.402.532l-.78 1.641a2.274 2.274 0 00-.919-.388c-.347-.07-.72-.08-1.118-.03a3.2 3.2 0 00-1.034.292 2.184 2.184 0 00-.72.548c-.184.223-.313.48-.384.772-.072.292-.083.61-.032.954.07.474.23.867.482 1.179.255.311.586.534.991.668.405.13.872.163 1.4.097a4.138 4.138 0 001.1-.295 3.43 3.43 0 00.988-.65l1.148 1.436c-.35.326-.784.608-1.303.846-.52.235-1.142.397-1.867.488zm6.132-.775l.429-7.837 2.022.094-.145 2.659 1.395.064c.634.03 1.19.158 1.67.386.485.224.857.537 1.116.938.263.401.38.874.35 1.419-.023.41-.116.773-.28 1.087a2.183 2.183 0 01-.696.787 3.052 3.052 0 01-1.07.456c-.416.093-.89.127-1.422.103l-3.369-.156zm2.108-1.463l1.298.06c.426.02.761-.041 1.005-.184.248-.145.382-.397.402-.755.02-.359-.09-.624-.33-.796-.234-.175-.552-.272-.954-.29l-1.31-.061-.111 2.026zM97.82 28.77c-.836-.258-1.516-.645-2.04-1.158a3.501 3.501 0 01-1.006-1.802c-.147-.688-.076-1.425.213-2.211.21-.574.506-1.066.888-1.476a4.18 4.18 0 011.344-.962 4.54 4.54 0 011.653-.38 5.263 5.263 0 011.822.244c.674.209 1.212.462 1.614.76.401.298.734.648.999 1.049l-1.492 1.153a2.04 2.04 0 00-.635-.724 3.3 3.3 0 00-.988-.483 3.257 3.257 0 00-1.068-.16c-.33.01-.633.075-.91.198a2.128 2.128 0 00-.717.535 2.612 2.612 0 00-.49.842c-.166.453-.211.87-.137 1.253.078.383.267.717.565 1.003.3.282.703.501 1.207.658.363.112.74.173 1.13.184.396.008.796-.051 1.199-.179l.335 1.754c-.472.15-.997.226-1.577.228-.579-.002-1.215-.11-1.909-.325zm10.047 3.774l4.871-6.446 1.663 1.062-1.806 2.389 2.766 1.765 1.806-2.39 1.663 1.062-4.871 6.445-1.663-1.061 2.011-2.661-2.766-1.765-2.011 2.661-1.663-1.061zm7.986 5.044l8.362-3.337 1.63 1.553-3.911 7.578-1.584-1.51.828-1.504-2.126-2.025-1.657.713-1.542-1.468zm4.733-.02l1.482 1.412 1.38-2.593-2.862 1.18zm3.268 7.658l7.272-4.115 1.02 1.523-2.885 5.134-.427-.627 6.21-.183 1.017 1.517-7.272 4.115-1.029-1.537 5.088-2.84.08.344-4.882.102-.706-1.054 2.245-4.036.292.21-5.05 2.898-.973-1.451zm6.529 10.114l8.082-2.535.648 1.745-5.051 1.584 6.168 1.424.65 1.75-8.081 2.535-.649-1.745 5.115-1.604-6.236-1.415-.646-1.74z" fill="#374251"/><path d="M97.328 64.702a1 1 0 011.414 1.414l-1.414-1.414zM69.434 95.01a1 1 0 01-1-1v-9a1 1 0 112 0v8h8a1 1 0 010 2h-9zm29.308-28.894l-28.6 28.6-1.415-1.413 28.6-28.601 1.415 1.414z" fill="#1D4ED8"/><circle cx="137.862" cy="73.459" r="3.019" fill="#1D4ED8"/><circle cx="22.138" cy="86.541" r="3.019" fill="#1D4ED8"/><defs><linearGradient id="paint0_linear_10_430" x1="31" y1="8" x2="80" y2="160" gradientUnits="userSpaceOnUse"><stop stop-color="#F6F6F6"/><stop offset="1" stop-color="#F6F6F6" stop-opacity="0"/></linearGradient></defs></svg>