<svg width="104" height="21" fill="none" xmlns="http://www.w3.org/2000/svg"><g clip-path="url(#clip0_520_15657)"><path d="M6.53 20.235a.916.916 0 01-.909-1.021l.64-5.895a.565.565 0 00-.562-.626H.919a.918.918 0 01-.762-1.435L7.403.405a.918.918 0 011.074-.35.919.919 0 01.597.92l-.64 5.941a.565.565 0 00.562.626h4.78a.917.917 0 01.918.968.921.921 0 01-.156.467L7.293 19.83a.92.92 0 01-.762.405z" fill="#88B9FF"/><path d="M26.399 7.596h-1.393c-1.376 0-1.923 1.181-1.923 2.874v4.198h-2.169V5.779h2.17v1.57c.44-1.129 1.128-1.57 2.274-1.57h1.04v1.817zm7.041 4.109h2.117c-.335 1.887-1.993 3.104-4.18 3.104-2.91 0-4.532-2.293-4.532-4.62 0-2.346 1.446-4.55 4.356-4.55 2.98 0 4.32 2.168 4.32 4.285 0 .3-.017.564-.034.74h-6.561c.159 1.429 1.076 2.346 2.451 2.346 1.111 0 1.835-.458 2.064-1.305zM31.202 7.26c-1.217 0-1.993.635-2.222 1.975h4.374c-.089-1.129-.865-1.975-2.152-1.975zm9.379-1.622c2.258 0 3.845 1.305 3.845 3.316v5.714h-2.134v-1.323c-.37.882-1.393 1.464-2.663 1.464-1.764 0-2.963-1.129-2.963-2.663 0-1.729 1.34-2.804 3.333-2.804h1.64c.441 0 .653-.247.653-.6 0-.864-.67-1.481-1.817-1.481-1.146 0-1.834.723-1.869 1.516h-1.94c.106-1.763 1.605-3.139 3.915-3.139zm-.44 7.566c1.357 0 2.151-.952 2.151-2.293v-.14h-1.993c-.917 0-1.534.51-1.534 1.287 0 .688.564 1.146 1.375 1.146zm9.847 1.605c-2.663 0-4.232-1.87-4.232-4.585 0-2.716 1.57-4.586 4.197-4.586 1.164 0 2.099.494 2.61 1.217V1.97h2.152v12.698h-2.152v-1.111c-.511.776-1.499 1.252-2.575 1.252zm.318-1.87c1.446 0 2.398-1.075 2.398-2.716 0-1.64-.952-2.715-2.398-2.715-1.446 0-2.399 1.075-2.399 2.715s.953 2.716 2.399 2.716zM64.48 5.78l-3.105 8.465L60 18.265h-2.064l1.252-3.597-3.245-8.889h2.205l2.063 6.102 2.046-6.102h2.222zm4.77 9.029c-2.769 0-4.515-2.046-4.515-4.585 0-2.54 1.746-4.586 4.515-4.586 2.24 0 4.056 1.34 4.25 3.386h-2.15c-.159-.882-1.023-1.516-2.046-1.516-1.5 0-2.31 1.164-2.31 2.715 0 1.552.829 2.716 2.345 2.716 1.023 0 1.817-.582 2.029-1.463h2.186c-.282 1.94-2.01 3.333-4.303 3.333zm9.872 0c-2.716 0-4.656-1.94-4.656-4.585 0-2.646 1.94-4.586 4.656-4.586 2.698 0 4.638 1.94 4.638 4.585 0 2.646-1.94 4.586-4.638 4.586zm0-1.87c1.464 0 2.452-1.11 2.452-2.716 0-1.604-.988-2.715-2.452-2.715-1.481 0-2.469 1.11-2.469 2.715 0 1.605.988 2.716 2.47 2.716zm9.859 1.87c-2.663 0-4.233-1.87-4.233-4.585 0-2.716 1.57-4.586 4.198-4.586 1.164 0 2.098.494 2.61 1.217V1.97h2.151v12.698h-2.151v-1.111c-.512.776-1.5 1.252-2.575 1.252zm.317-1.87c1.447 0 2.399-1.075 2.399-2.716 0-1.64-.952-2.715-2.399-2.715-1.446 0-2.398 1.075-2.398 2.715s.952 2.716 2.398 2.716zm12.587-1.234h2.116c-.335 1.887-1.993 3.104-4.18 3.104-2.91 0-4.532-2.293-4.532-4.62 0-2.346 1.446-4.55 4.356-4.55 2.98 0 4.321 2.168 4.321 4.285 0 .3-.018.564-.036.74h-6.56c.158 1.429 1.076 2.346 2.451 2.346 1.111 0 1.834-.458 2.064-1.305zm-2.24-4.444c-1.217 0-1.993.635-2.222 1.975h4.373c-.088-1.129-.864-1.975-2.151-1.975z" fill="#fff"/></g><defs><clipPath id="clip0_520_15657"><path fill="#fff" d="M0 0h104v20.235H0z"/></clipPath></defs></svg>