<svg width="196" height="38" fill="none" xmlns="http://www.w3.org/2000/svg"><g clip-path="url(#clip0_33_1957)"><path d="M12.248 37.95a1.72 1.72 0 01-1.458-.816 1.727 1.727 0 01-.247-1.1l1.071-9.88a2.12 2.12 0 00-2.108-2.35H1.725A1.721 1.721 0 01.002 21.99c.017-.313.118-.616.293-.875L13.884.759a1.723 1.723 0 012.015-.655 1.723 1.723 0 011.12 1.725l-1.074 9.969a2.12 2.12 0 002.108 2.347h7.783a1.721 1.721 0 011.723 1.816 1.727 1.727 0 01-.294.875L13.678 37.19a1.724 1.724 0 01-1.43.76z" fill="#1D4ED8"/><path d="M50.144 14.245h-3.25c-2.58 0-3.605 2.216-3.605 5.391v7.872h-4.068v-16.67h4.068v2.944c.827-2.117 2.117-2.944 4.267-2.944h2.588v3.407zm13.524 7.706h3.97c-.63 3.54-3.738 5.822-7.84 5.822-5.457 0-8.5-4.3-8.5-8.666 0-4.4 2.712-8.534 8.17-8.534 5.59 0 8.103 4.069 8.103 8.038 0 .562-.033 1.058-.066 1.389H55.201c.297 2.68 2.017 4.4 4.597 4.4 2.084 0 3.44-.86 3.87-2.448zm-4.2-8.335c-2.283 0-3.738 1.191-4.168 3.705h8.203c-.166-2.117-1.62-3.705-4.035-3.705zm17.592-3.043c4.233 0 7.21 2.448 7.21 6.219v10.716h-4.002v-2.48c-.695 1.653-2.613 2.745-4.994 2.745-3.308 0-5.557-2.117-5.557-4.995 0-3.241 2.514-5.259 6.251-5.259h3.076c.827 0 1.224-.463 1.224-1.124 0-1.62-1.257-2.779-3.407-2.779-2.15 0-3.44 1.357-3.506 2.845h-3.638c.198-3.308 3.01-5.888 7.343-5.888zm-.827 14.19c2.547 0 4.035-1.786 4.035-4.3v-.265h-3.737c-1.72 0-2.878.96-2.878 2.415 0 1.29 1.058 2.15 2.58 2.15zm18.469 3.01c-4.994 0-7.938-3.506-7.938-8.6 0-5.093 2.944-8.6 7.872-8.6 2.183 0 3.936.927 4.895 2.283V3.694h4.035v23.814h-4.035v-2.084c-.96 1.456-2.811 2.349-4.829 2.349zm.595-3.506c2.713 0 4.499-2.018 4.499-5.094 0-3.076-1.786-5.093-4.499-5.093-2.712 0-4.498 2.017-4.498 5.093s1.786 5.094 4.498 5.094zm26.582-13.429l-5.821 15.876-2.58 7.542h-3.87l2.348-6.748-6.086-16.67h4.135l3.87 11.444 3.836-11.444h4.168zm8.948 16.935c-5.193 0-8.468-3.837-8.468-8.6s3.275-8.6 8.468-8.6c4.2 0 7.607 2.514 7.971 6.351h-4.035c-.298-1.654-1.919-2.845-3.837-2.845-2.812 0-4.333 2.183-4.333 5.094 0 2.91 1.554 5.094 4.399 5.094 1.918 0 3.407-1.092 3.804-2.745h4.101c-.529 3.638-3.771 6.25-8.07 6.25zm18.514 0c-5.094 0-8.732-3.639-8.732-8.6s3.638-8.6 8.732-8.6c5.061 0 8.699 3.639 8.699 8.6 0 4.962-3.638 8.6-8.699 8.6zm0-3.506c2.745 0 4.597-2.084 4.597-5.094 0-3.01-1.852-5.093-4.597-5.093-2.778 0-4.631 2.083-4.631 5.093s1.853 5.094 4.631 5.094zm18.49 3.506c-4.995 0-7.939-3.506-7.939-8.6 0-5.093 2.944-8.6 7.872-8.6 2.183 0 3.936.927 4.896 2.283V3.694h4.035v23.814h-4.035v-2.084c-.96 1.456-2.812 2.349-4.829 2.349zm.595-3.506c2.712 0 4.498-2.018 4.498-5.094 0-3.076-1.786-5.093-4.498-5.093s-4.498 2.017-4.498 5.093 1.786 5.094 4.498 5.094zm23.605-2.316H196c-.629 3.54-3.738 5.822-7.839 5.822-5.458 0-8.501-4.3-8.501-8.666 0-4.4 2.713-8.534 8.17-8.534 5.59 0 8.104 4.069 8.104 8.038 0 .562-.033 1.058-.066 1.389h-12.305c.298 2.68 2.018 4.4 4.598 4.4 2.084 0 3.44-.86 3.87-2.448zm-4.201-8.335c-2.282 0-3.737 1.191-4.167 3.705h8.202c-.165-2.117-1.62-3.705-4.035-3.705z" fill="#0F1015"/></g><defs><clipPath id="clip0_33_1957"><path fill="#fff" d="M0 0h196v37.949H0z"/></clipPath></defs></svg>