<svg width="43" height="44" fill="none" xmlns="http://www.w3.org/2000/svg"><circle cx="21.5" cy="22.379" r="21.5" fill="url(#paint0_linear_561_13204)"/><g clip-path="url(#clip0_561_13204)" fill="#fff"><path d="M19.998 26.973c0-3.678 2.812-6.71 6.398-7.062v-7.417a.615.615 0 00-.615-.615H12.615a.615.615 0 00-.615.615V30.91c0 .34.275.615.615.615h9.04a7.062 7.062 0 01-1.657-4.552zm-5.332-8.532v-3.28c0-.34.275-.616.615-.616h7.875c.34 0 .616.275.616.615v3.281c0 .34-.276.616-.616.616h-7.875a.615.615 0 01-.615-.616zm1.6 9.803h-.657a.615.615 0 110-1.23h.657a.615.615 0 110 1.23zm0-3.281h-.657a.615.615 0 010-1.23h.657a.615.615 0 010 1.23zm0-3.281h-.657a.615.615 0 110-1.23h.657a.615.615 0 110 1.23zm3.28 0h-.655a.615.615 0 010-1.23h.656a.615.615 0 010 1.23z"/><path d="M26.918 21.11a5.872 5.872 0 00-5.691 5.863c0 3.233 2.632 5.906 5.865 5.906 3.234 0 5.906-2.672 5.906-5.906 0-3.316-2.797-5.964-6.08-5.863zm.79 8.526v.129a.615.615 0 01-1.23 0v-.06c-.284-.049-.543-.155-.87-.37a.615.615 0 11.673-1.029c.3.197.397.212.807.209a.584.584 0 00.585-.497c.027-.164-.004-.383-.309-.49-.51-.181-1.034-.388-1.405-.68-.845-.662-.59-2.176.518-2.578v-.09a.615.615 0 011.23 0v.035c.304.085.548.24.716.41a.615.615 0 01-.877.864c-.034-.034-.224-.192-.634-.068-.164.049-.208.219-.218.27-.02.106.009.178.024.19.232.182.664.348 1.056.486 1.622.574 1.424 2.73-.066 3.27zm-11.81-13.861h6.645v2.051h-6.645v-2.05z"/></g><defs><linearGradient id="paint0_linear_561_13204" x1="0" y1="37.879" x2="45.429" y2="17.195" gradientUnits="userSpaceOnUse"><stop stop-color="#0052CC"/><stop offset="1" stop-color="#0F93F2"/></linearGradient><clipPath id="clip0_561_13204"><path fill="#fff" transform="translate(12 11.879)" d="M0 0h21v21H0z"/></clipPath></defs></svg>