<svg width="43" height="44" fill="none" xmlns="http://www.w3.org/2000/svg"><circle cx="21.5" cy="22.379" r="21.5" fill="url(#paint0_linear_561_13196)"/><g clip-path="url(#clip0_561_13196)" fill="#fff"><path d="M21.5 18.686a4.928 4.928 0 00-4.922 4.921c0 2.737 2.208 4.963 4.922 4.963 2.714 0 4.922-2.226 4.922-4.963a4.928 4.928 0 00-4.922-4.921zm1.846 5.537h-2.461V20.53h1.23v2.461h1.23v1.23z"/><path d="M28.812 16.015c-.632-.736-1.285-1.497-1.878-2.387l-1.127-1.691v2.032c0 .81-.525 1.32-1.017 1.528-.486.204-1.21.223-1.784-.337-.412-.403-.713-.903-.922-1.53l-.584-1.75-.584 1.75c-.209.627-.51 1.127-.922 1.53-.573.56-1.297.541-1.784.337-.492-.207-1.017-.717-1.017-1.528v-2.032l-1.127 1.69c-.572.86-1.215 1.61-1.837 2.336C12.564 17.905 10.992 19.74 11 23.2c.006 2.573 1.029 5 2.88 6.836a9.692 9.692 0 006.86 2.84h1.515c2.6 0 5.052-1.021 6.903-2.876 1.838-1.842 2.848-4.276 2.842-6.851-.008-3.43-1.552-5.23-3.188-7.135zM21.5 29.8c-3.392 0-6.152-2.778-6.152-6.193a6.16 6.16 0 016.152-6.153 6.16 6.16 0 016.152 6.153c0 3.415-2.76 6.193-6.152 6.193z"/></g><defs><linearGradient id="paint0_linear_561_13196" x1="0" y1="37.879" x2="45.429" y2="17.195" gradientUnits="userSpaceOnUse"><stop stop-color="#0052CC"/><stop offset="1" stop-color="#0F93F2"/></linearGradient><clipPath id="clip0_561_13196"><path fill="#fff" transform="translate(11 11.879)" d="M0 0h21v21H0z"/></clipPath></defs></svg>