<svg width="43" height="44" fill="none" xmlns="http://www.w3.org/2000/svg"><circle cx="21.5" cy="22.379" r="21.5" fill="url(#paint0_linear_561_13237)"/><g clip-path="url(#clip0_561_13237)" fill="#fff"><path d="M31.462 20.094l-1.53-.306a8.752 8.752 0 00-.667-1.61l.866-1.3a.615.615 0 00-.077-.776l-2.32-2.32a.615.615 0 00-.777-.077l-1.299.866a8.758 8.758 0 00-1.61-.666l-.306-1.531a.615.615 0 00-.603-.495h-3.282a.615.615 0 00-.603.495l-.306 1.53a8.757 8.757 0 00-1.61.667l-1.3-.866a.615.615 0 00-.776.077l-2.32 2.32a.615.615 0 00-.077.777l.866 1.299a8.758 8.758 0 00-.666 1.61l-1.531.306a.615.615 0 00-.495.603v3.282c0 .293.207.545.495.603l1.53.306c.17.558.392 1.097.668 1.61l-.866 1.3a.615.615 0 00.076.775l2.32 2.32c.208.208.533.24.777.077l1.272-.848V26.26a5.708 5.708 0 01-1.555-3.922 5.742 5.742 0 1111.484 0 5.708 5.708 0 01-1.555 3.922v3.862l1.272.848a.614.614 0 00.776-.076l2.32-2.32a.615.615 0 00.078-.777l-.866-1.299a8.757 8.757 0 00.666-1.61l1.531-.306a.615.615 0 00.495-.604v-3.28a.615.615 0 00-.495-.604z"/><path d="M23.447 18.967a.505.505 0 00-.754.365l-.375 2.596h-1.64l-.375-2.596a.505.505 0 00-.754-.365 3.91 3.91 0 00-1.947 3.371c0 1.5.84 2.84 2.19 3.5l.065.032v6.394c0 .34.276.615.616.615h2.05c.34 0 .616-.275.616-.615V25.87l.064-.032a3.87 3.87 0 002.192-3.5 3.91 3.91 0 00-1.948-3.371z"/></g><defs><linearGradient id="paint0_linear_561_13237" x1="0" y1="37.879" x2="45.429" y2="17.195" gradientUnits="userSpaceOnUse"><stop stop-color="#0052CC"/><stop offset="1" stop-color="#0F93F2"/></linearGradient><clipPath id="clip0_561_13237"><path fill="#fff" transform="translate(11 11.879)" d="M0 0h21v21H0z"/></clipPath></defs></svg>