<svg width="43" height="44" fill="none" xmlns="http://www.w3.org/2000/svg"><circle cx="21.5" cy="22.379" r="21.5" fill="url(#paint0_linear_561_13213)"/><g clip-path="url(#clip0_561_13213)" fill="#fff"><path d="M29.9 29.891c3.095-3.571 2.715-8.957-.778-12.082 1.794 6.287-2.95 12.568-9.487 12.568l-2.358-.014a8.603 8.603 0 006.09 2.516l8.021-.041a.616.616 0 00.43-1.054l-1.919-1.893z"/><path d="M19.634 29.146c4.76 0 8.633-3.873 8.633-8.633 0-4.761-3.873-8.634-8.633-8.634-4.76 0-8.633 3.873-8.633 8.634a8.57 8.57 0 002.101 5.646l-1.918 1.893a.616.616 0 00.429 1.053l8.02.041zm-3.67-11.689h7.382a.615.615 0 010 1.23h-7.383a.615.615 0 010-1.23zm0 2.461h7.382a.615.615 0 110 1.23h-7.383a.615.615 0 110-1.23zm-.616 3.076c0-.34.275-.615.615-.615h7.383a.615.615 0 010 1.23h-7.383a.615.615 0 01-.615-.615z"/></g><defs><linearGradient id="paint0_linear_561_13213" x1="0" y1="37.879" x2="45.429" y2="17.195" gradientUnits="userSpaceOnUse"><stop stop-color="#0052CC"/><stop offset="1" stop-color="#0F93F2"/></linearGradient><clipPath id="clip0_561_13213"><path fill="#fff" transform="translate(11 11.879)" d="M0 0h21v21H0z"/></clipPath></defs></svg>