<svg width="43" height="44" fill="none" xmlns="http://www.w3.org/2000/svg"><circle cx="21.5" cy="22.379" r="21.5" fill="url(#paint0_linear_561_13230)"/><g clip-path="url(#clip0_561_13230)" fill="#fff"><path d="M30.687 24.394c0-3.047-2.546-5.515-5.688-5.515-3.14 0-5.686 2.467-5.686 5.515-.725 0-1.313.57-1.313 1.273v4.242c0 .703.588 1.273 1.313 1.273h2.625a.43.43 0 00.436-.424v-2.97c0-.467-.175-1.19-.39-1.608l-.921-1.786c0-2.11 1.761-3.818 3.937-3.818 2.174 0 3.938 1.709 3.938 3.818l-.922 1.787c-.215.417-.391 1.14-.391 1.607v3.067a4.945 4.945 0 01-2.625.751h-.875v1.273H25a6.266 6.266 0 004.306-1.697h1.381c.725 0 1.313-.57 1.313-1.273v-4.242c0-.703-.588-1.273-1.313-1.273zm-5.57-7.438c.3 0 .593.024.883.058v-3.443c0-.93-.795-1.692-1.765-1.692h-11.47c-.97 0-1.765.762-1.765 1.692v5.077c0 .93.794 1.692 1.765 1.692v2.539l4.412-2.539h1.838c1.222-2.02 3.497-3.384 6.102-3.384zm-3.529-1.693c.488 0 .882.379.882.846 0 .468-.394.847-.882.847-.487 0-.882-.379-.882-.846 0-.468.395-.847.882-.847zm-6.176 1.693c-.487 0-.882-.379-.882-.846 0-.468.395-.846.882-.846.488 0 .882.378.882.846 0 .467-.395.846-.882.846zm2.206-.846c0-.468.395-.846.882-.846.488 0 .882.378.882.846 0 .468-.395.846-.882.846s-.882-.379-.882-.846z"/></g><defs><linearGradient id="paint0_linear_561_13230" x1="0" y1="37.879" x2="45.429" y2="17.195" gradientUnits="userSpaceOnUse"><stop stop-color="#0052CC"/><stop offset="1" stop-color="#0F93F2"/></linearGradient><clipPath id="clip0_561_13230"><path fill="#fff" transform="translate(11 11.879)" d="M0 0h21v21H0z"/></clipPath></defs></svg>