<svg width="822" height="822" fill="none" xmlns="http://www.w3.org/2000/svg"><path d="M658.384 283.75c24.169 43.671 37.953 93.855 37.953 147.201 0 168.177-136.821 304.998-304.998 304.998S86.343 599.128 86.343 430.953c0-168.174 136.819-304.997 304.996-304.997 52.007 0 101.008 13.098 143.897 36.146l62.806-62.806c-61.407-38.435-132.47-59.019-206.705-59.019-104.352 0-202.461 40.637-276.25 114.427C41.297 228.493.66 326.6.66 430.954c0 104.353 40.637 202.462 114.427 276.249 73.791 73.792 171.898 114.429 276.25 114.429 104.353 0 202.462-40.637 276.249-114.429 73.792-73.789 114.429-171.896 114.429-276.249 0-75.499-21.284-147.723-60.994-209.84l-62.637 62.636z" fill="url(#paint0_linear_310_15297)"/><path d="M421.236 358.756c-28.123-11.524-61.773-5.987-84.582 16.824-30.431 30.431-30.431 79.52 0 109.716 30.419 30.418 79.507 30.418 109.7 0 22.823-22.827 28.348-56.474 16.824-84.583l222.869-222.869 37.116 4.837 98.176-98.188-74.206-9.902L737.217.373l-98.188 98.413 4.85 37.104-222.643 222.866z" fill="url(#paint1_linear_310_15297)"/><path d="M536.666 405.466a147.77 147.77 0 012.21 25.487c0 81.353-66.183 147.538-147.539 147.538-81.351 0-147.538-66.183-147.538-147.538 0-81.352 66.185-147.537 147.538-147.537 7.155 0 14.188.522 21.073 1.51l69.063-69.063c-27.744-11.67-58.198-18.128-90.136-18.128-128.596 0-233.217 104.621-233.217 233.218 0 128.596 104.621 233.219 233.217 233.219 128.597 0 233.22-104.623 233.22-233.219 0-33.313-7.037-65.008-19.675-93.702l-68.216 68.215z" fill="url(#paint2_linear_310_15297)"/><defs><linearGradient id="paint0_linear_310_15297" x1="411" y1=".373" x2="411" y2="411.432" gradientUnits="userSpaceOnUse"><stop stop-color="#fff"/><stop offset="1" stop-color="#F4F6F9"/></linearGradient><linearGradient id="paint1_linear_310_15297" x1="411" y1=".373" x2="411" y2="411.432" gradientUnits="userSpaceOnUse"><stop stop-color="#fff"/><stop offset="1" stop-color="#F4F6F9"/></linearGradient><linearGradient id="paint2_linear_310_15297" x1="411" y1=".373" x2="411" y2="411.432" gradientUnits="userSpaceOnUse"><stop stop-color="#fff"/><stop offset="1" stop-color="#F4F6F9"/></linearGradient></defs></svg>