<svg width="43" height="44" fill="none" xmlns="http://www.w3.org/2000/svg"><circle cx="21.5" cy="22.379" r="21.5" fill="url(#paint0_linear_561_13222)"/><path d="M19.656 22.994h3.692v1.23h-3.692v-1.23z" fill="#fff"/><path d="M28.037 24.224h-3.46v.616c0 .34-.276.615-.616.615h-4.922a.615.615 0 01-.615-.615v-.616h-3.461a1.844 1.844 0 01-1.75-1.261L11 16.325v13.437c0 1.017.828 1.845 1.846 1.845h17.308A1.848 1.848 0 0032 29.762V16.326l-2.212 6.637a1.843 1.843 0 01-1.751 1.261z" fill="#fff"/><path d="M23.961 13.15h-4.922a1.848 1.848 0 00-1.846 1.846v.615H12.06l2.32 6.963c.084.251.319.42.584.42h3.46v-.615c0-.34.276-.615.616-.615h4.922c.34 0 .615.275.615.615v.615h3.461c.265 0 .5-.169.584-.42l2.32-6.963h-5.134v-.615a1.848 1.848 0 00-1.846-1.846zm-5.537 2.461v-.615c0-.34.276-.615.615-.615h4.922c.34 0 .615.276.615.615v.615h-6.152z" fill="#fff"/><defs><linearGradient id="paint0_linear_561_13222" x1="0" y1="37.879" x2="45.429" y2="17.195" gradientUnits="userSpaceOnUse"><stop stop-color="#0052CC"/><stop offset="1" stop-color="#0F93F2"/></linearGradient></defs></svg>