<svg width="30" height="30" fill="none" xmlns="http://www.w3.org/2000/svg"><path d="M7.967 21.563a.47.47 0 00.002.937.469.469 0 10-.002-.938" stroke="#1D4ED8" stroke-width="1.5" stroke-linecap="round" stroke-linejoin="round"/><path clip-rule="evenodd" d="M8.125 26.25v0a4.375 4.375 0 01-4.375-4.375V6.25a2.5 2.5 0 012.5-2.5H10a2.5 2.5 0 012.5 2.5v15.625a4.375 4.375 0 01-4.375 4.375z" stroke="#1D4ED8" stroke-width="1.5" stroke-linecap="round" stroke-linejoin="round"/><path d="M11.219 24.969L23.358 12.83a2.5 2.5 0 000-3.535l-2.652-2.651a2.5 2.5 0 00-3.534 0L12.5 11.312" stroke="#1D4ED8" stroke-width="1.5" stroke-linecap="round" stroke-linejoin="round"/><path d="M18.688 17.5h5.062a2.5 2.5 0 012.5 2.5v3.75a2.5 2.5 0 01-2.5 2.5H8.125" stroke="#1D4ED8" stroke-width="1.5" stroke-linecap="round" stroke-linejoin="round"/></svg>