<svg width="30" height="30" fill="none" xmlns="http://www.w3.org/2000/svg"><path d="M18.732 13.135l-4.668 4.668-2.799-2.801" stroke="#1D4ED8" stroke-width="1.5" stroke-linecap="round" stroke-linejoin="round"/><path clip-rule="evenodd" d="M3.662 16.953l1.594 2.085.346 2.595a3.216 3.216 0 002.762 2.765l2.601.348 2.084 1.59a3.21 3.21 0 003.904 0l2.086-1.593h-.003l2.597-.345a3.216 3.216 0 002.765-2.763l.348-2.601c0 .002.806-1.054 1.593-2.083a3.215 3.215 0 000-3.905l-1.593-2.086-.346-2.594A3.216 3.216 0 0021.638 5.6l-2.604-.345-2.083-1.592a3.215 3.215 0 00-3.905 0l-2.085 1.592h.002l-2.597.343A3.216 3.216 0 005.602 8.36l-.348 2.602c0-.003-.807 1.053-1.594 2.083a3.223 3.223 0 00.002 3.907z" stroke="#1D4ED8" stroke-width="1.5" stroke-linecap="round" stroke-linejoin="round"/></svg>