<svg width="30" height="30" fill="none" xmlns="http://www.w3.org/2000/svg"><path fill="#fff" d="M0 0h30v30H0z"/><path d="M11.508 10.781a4.068 4.068 0 00-5.481.248l-2.536 2.536a6.834 6.834 0 016.014 1.786m5.144 5.144a6.834 6.834 0 011.786 6.014l2.536-2.536a4.068 4.068 0 00.248-5.482m6.73-7.674l-6.766-6.766m-9.052 16.835a2.02 2.02 0 002.125.475c3.188-1.166 7.544-2.532 10.31-5.298 5.56-5.56 4.315-12.944 4.315-12.944s-7.384-1.245-12.944 4.315c-2.766 2.766-4.132 7.122-5.298 10.31a2.02 2.02 0 00.475 2.125l1.017 1.017zm-2.816 1.8a2.034 2.034 0 010 2.876C6.52 26.356 3 27 3 27s.644-3.52 1.438-4.314a2.034 2.034 0 012.877 0zm12.251-10.219a2.034 2.034 0 11-4.067 0 2.034 2.034 0 014.067 0z" stroke="#1D4ED8" stroke-width="1.5" stroke-miterlimit="10" stroke-linecap="round" stroke-linejoin="round"/><path d="M7.315 22.686a2.034 2.034 0 010 2.876C6.52 26.356 3 27 3 27s.644-3.52 1.438-4.314a2.034 2.034 0 012.877 0zm10.217-8.185a2.034 2.034 0 100-4.067 2.034 2.034 0 000 4.067z" stroke="#1D4ED8" stroke-width="1.5" stroke-miterlimit="10" stroke-linecap="round" stroke-linejoin="round"/></svg>