<svg width="30" height="30" fill="none" xmlns="http://www.w3.org/2000/svg"><path clip-rule="evenodd" d="M24.375 21.875H20c-.375 0-.75.25-1 .5l-.5.75c-.25.375-.625.625-1 .625h-6.25c-.375 0-.75-.25-1-.5l-.5-.75c-.25-.375-.625-.5-1-.5H4.375c-.75 0-1.25.5-1.25 1.25v1.25c0 1.375 1.125 2.5 2.5 2.5h17.5c1.375 0 2.5-1.125 2.5-2.5v-1.25c0-.875-.5-1.375-1.25-1.375v0z" stroke="#1D4ED8" stroke-width="1.5" stroke-linecap="round" stroke-linejoin="round"/><path d="M13.875 6.875h-7.25c-1.25 0-2.25.875-2.25 2v13m20 0V15.25m-7.5-5.25c-.125 0-.125.125-.125.125 0 .125.125.125.125.125l.125-.125S17 10 16.875 10M20 10c-.125 0-.125.125-.125.125 0 .125.125.125.125.125.125 0 .125-.125.125-.125S20.125 10 20 10m3.125 0c-.125 0-.125.125-.125.125l.125.125.125-.125s0-.125-.125-.125" stroke="#1D4ED8" stroke-width="1.5" stroke-linecap="round" stroke-linejoin="round"/><path clip-rule="evenodd" d="M20 16.875c-1.125 0-2.25-.25-3.125-.75l-3.625.75.75-3.625c-.5-1-.75-2-.75-3.25 0-3.75 3.125-6.875 6.875-6.875s6.75 3.125 6.75 6.875S23.75 16.875 20 16.875z" stroke="#1D4ED8" stroke-width="1.5" stroke-linecap="round" stroke-linejoin="round"/></svg>