<svg width="320" height="318" fill="none" xmlns="http://www.w3.org/2000/svg"><g opacity=".05" clip-path="url(#clip0_214_17671)" fill-rule="evenodd" clip-rule="evenodd"><path d="M515.934 403.308C480.28 230.478 345.446 95.334 172.768 59.356.09 23.378-177.455 93.432-279.101 237.654v-36.59C-186.513 66.259-29.778-9.763 133.345 1.01c163.124 10.774 345.461 99.465 419.539 245.276l-36.95 157.022z" fill="url(#paint0_linear_214_17671)"/><path d="M100.389 122.96c141.935 30.757 254.138 139.418 289.492 280.347H237.552c-15.366-110.626-95.479-202.891-205.211-232.31C-87.444 138.885-214.082 189.28-279.1 294.926v-36.59C-188.625 144.671-41.543 92.202 100.389 122.96z" fill="url(#paint1_linear_214_17671)"/><path d="M-58.197 233.354c88.554 14.221 158.965 81.976 176.615 169.954H-3.662c-15.033-60.825-67.223-105.242-129.641-110.335-62.418-5.092-121.111 30.278-145.797 87.862v-41.363c44.282-78.034 132.35-120.339 220.903-106.113" fill="url(#paint2_linear_214_17671)"/></g><defs><linearGradient id="paint0_linear_214_17671" x1="-279.101" y1="-198.459" x2="840.705" y2="443.414" gradientUnits="userSpaceOnUse"><stop stop-color="#fff"/><stop offset="1" stop-color="#1A76FF"/></linearGradient><linearGradient id="paint1_linear_214_17671" x1="-255.285" y1="36.851" x2="484.005" y2="633.396" gradientUnits="userSpaceOnUse"><stop offset="0" stop-color="#fff" stop-opacity="0"/><stop offset=".901" stop-color="#1A76FF"/></linearGradient><linearGradient id="paint2_linear_214_17671" x1="-223.472" y1="176.498" x2="133.007" y2="627.987" gradientUnits="userSpaceOnUse"><stop stop-color="#fff"/><stop offset="1" stop-color="#0067FF"/></linearGradient><clipPath id="clip0_214_17671"><path fill="#fff" transform="matrix(-1 0 0 1 597.794 0)" d="M0 0h876.895v466H0z"/></clipPath></defs></svg>