<svg width="1920" height="1002" fill="none" xmlns="http://www.w3.org/2000/svg"><g opacity=".05" clip-path="url(#clip0_214_17384)" fill-rule="evenodd" clip-rule="evenodd"><path d="M1944 1010c-89.29-432.817-426.95-771.255-859.39-861.355C652.176 58.545 207.553 233.98-47 595.155v-91.633C184.868 165.932 577.378-24.45 985.887 2.53 1394.4 29.51 1851.02 251.619 2036.53 616.77L1944 1010z" fill="url(#paint0_linear_214_17384)"/><path d="M903.352 307.928C1258.8 384.952 1539.79 657.072 1628.32 1010h-381.47c-38.48-277.04-239.11-508.1-513.912-581.773C432.962 347.809 115.824 474.012-47 738.582v-91.634C179.575 362.299 547.91 230.9 903.352 307.928z" fill="url(#paint1_linear_214_17384)"/><path d="M506.203 584.387C727.969 620 904.3 789.677 948.5 1010H642.778c-37.65-152.323-168.347-263.558-324.661-276.311C161.804 720.936 14.821 809.514-47 953.721V850.136C63.895 654.717 284.442 548.773 506.203 584.398" fill="url(#paint2_linear_214_17384)"/></g><defs><linearGradient id="paint0_linear_214_17384" x1="-47" y1="-497" x2="2757.32" y2="1110.44" gradientUnits="userSpaceOnUse"><stop stop-color="#fff"/><stop offset="1" stop-color="#1A76FF"/></linearGradient><linearGradient id="paint1_linear_214_17384" x1="12.638" y1="92.287" x2="1864.04" y2="1586.21" gradientUnits="userSpaceOnUse"><stop offset="0" stop-color="#fff" stop-opacity="0"/><stop offset=".901" stop-color="#1A76FF"/></linearGradient><linearGradient id="paint2_linear_214_17384" x1="92.309" y1="442.002" x2="985.035" y2="1572.66" gradientUnits="userSpaceOnUse"><stop stop-color="#fff"/><stop offset="1" stop-color="#0067FF"/></linearGradient><clipPath id="clip0_214_17384"><path fill="#fff" transform="matrix(-1 0 0 1 2149 0)" d="M0 0h2196v1167H0z"/></clipPath></defs></svg>