<svg width="768" height="797" fill="none" xmlns="http://www.w3.org/2000/svg"><g opacity=".05" clip-path="url(#clip0_214_17463)" fill-rule="evenodd" clip-rule="evenodd"><path d="M1089.9 824.79c-72.92-353.449-348.661-629.825-701.799-703.403C34.962 47.81-328.127 191.074-536.001 486.018v-74.83C-346.652 135.504-26.12-19.967 307.479 2.066 641.077 24.098 1013.97 205.478 1165.46 503.67l-75.56 321.12z" fill="url(#paint0_linear_214_17463)"/><path d="M240.079 251.462C530.344 314.361 759.807 536.58 832.107 824.79H520.585c-31.425-226.237-195.26-414.926-419.67-475.09-244.968-65.671-503.95 37.389-636.916 253.443v-74.83c185.027-232.451 485.818-339.754 776.08-276.851z" fill="url(#paint1_linear_214_17463)"/><path d="M-84.242 477.224c181.1 29.083 325.095 167.646 361.19 347.566H27.288C-3.457 700.4-110.188 609.563-237.837 599.148c-127.649-10.414-247.68 61.921-298.164 179.684v-84.591c90.559-159.583 270.663-246.1 451.76-217.007" fill="url(#paint2_linear_214_17463)"/></g><defs><linearGradient id="paint0_linear_214_17463" x1="-536.001" y1="-405.862" x2="1754.07" y2="906.811" gradientUnits="userSpaceOnUse"><stop stop-color="#fff"/><stop offset="1" stop-color="#1A76FF"/></linearGradient><linearGradient id="paint1_linear_214_17463" x1="-487.299" y1="75.364" x2="1024.6" y2="1295.34" gradientUnits="userSpaceOnUse"><stop offset="0" stop-color="#fff" stop-opacity="0"/><stop offset=".901" stop-color="#1A76FF"/></linearGradient><linearGradient id="paint2_linear_214_17463" x1="-422.238" y1="360.95" x2="306.784" y2="1284.27" gradientUnits="userSpaceOnUse"><stop stop-color="#fff"/><stop offset="1" stop-color="#0067FF"/></linearGradient><clipPath id="clip0_214_17463"><path fill="#fff" transform="matrix(-1 0 0 1 1257.31 0)" d="M0 0h1793.31v953H0z"/></clipPath></defs></svg>