<svg width="132" height="30" fill="none" xmlns="http://www.w3.org/2000/svg"><g clip-path="url(#clip0_276_9381)" fill-rule="evenodd" clip-rule="evenodd"><path d="M132 9.52l-.204.52c-.205.518-.35.825-.546 1.244-.125.26-.268.564-.466 1.005l-4.203 10.072c-.732 1.792-2.196 2.818-4.005 2.818a5.419 5.419 0 01-1.778-.349l-.376-.153.167-.366c.585-1.206.961-1.594 2.179-1.692.462-.036.965-.561 1.321-1.378l.178-.42-3.803-8.534c-.204-.458-.353-.81-.507-1.167-.153-.356-.292-.66-.474-1.066l-.237-.533h1.871c1.083 0 1.563.322 1.978 1.344 0 0 2.092 5.021 2.249 5.386.137.412.249.83.335 1.255h.096c.072-.427.171-.849.297-1.263.165-.457 2.028-5.372 2.028-5.372.39-1.008.922-1.358 2.026-1.358L132 9.52zm-23.403-.133c-1.272 0-2.842 1.058-3.187 2.412v-.81c0-.717-.444-1.468-1.84-1.468h-1.043v11.734h2.956v-4.87c-.014-.63.07-1.259.25-1.864.443-1.4 1.541-2.305 2.792-2.305.188.001.374.019.558.054l.491.112V9.485l-.337-.05a5.196 5.196 0 00-.64-.048zm8.586 0c-1.268 0-2.834 1.058-3.183 2.412v-.81c0-.717-.438-1.468-1.84-1.468h-1.047v11.734h2.958v-4.87a6.19 6.19 0 01.25-1.864c.443-1.4 1.541-2.305 2.794-2.305.188 0 .374.019.558.054l.487.112V9.485l-.333-.05a5.282 5.282 0 00-.644-.048zm-62.227.269c-3.691 0-6.472 2.625-6.472 6.1 0 3.476 2.78 6.152 6.472 6.152 3.643 0 6.497-2.704 6.497-6.152 0-3.48-2.79-6.1-6.497-6.1zm0 9.666c-1.976 0-3.475-1.53-3.475-3.56 0-2.028 1.495-3.518 3.475-3.518 1.981 0 3.492 1.511 3.492 3.518 0 2.008-1.5 3.56-3.492 3.56zM41.54 9.656a5.343 5.343 0 00-3.488 1.215h-.086c.054-.43.082-.864.086-1.297v-2.22c0-1.196-.603-1.771-1.83-1.771H35.09v10.278c.147 3.739 2.549 6.053 6.276 6.053 3.432 0 6.022-2.635 6.022-6.13s-2.514-6.128-5.849-6.128zm-.491 9.686c-1.901 0-3.116-1.787-3.116-3.518 0-2.626 1.738-3.56 3.16-3.56 1.636 0 3.31 1.326 3.31 3.542 0 2.216-1.706 3.536-3.354 3.536zm40.496-9.686a5.368 5.368 0 00-3.491 1.215h-.084c.052-.43.08-.864.084-1.297v-2.22c0-1.196-.597-1.771-1.826-1.771h-1.13v10.278c.145 3.739 2.549 6.053 6.267 6.053 3.437 0 6.027-2.635 6.027-6.13s-2.513-6.128-5.847-6.128zm-.492 9.686c-1.902 0-3.116-1.787-3.116-3.518 0-2.626 1.738-3.56 3.16-3.56 1.636 0 3.314 1.326 3.314 3.542 0 2.216-1.707 3.536-3.358 3.536z" fill="#E51A4B"/><path d="M71.864 19.083l-2.407-3.698 2.045-2.966c.372-.543.662-.928.973-1.338.225-.295.452-.59.707-.952l.431-.59h-2.228c-1.255 0-1.723.263-2.394 1.34 0 0-.903 1.44-1.022 1.643-.118.203-.43.87-.435.887h-.082s-.28-.622-.448-.887l-1.038-1.65c-.71-1.07-1.182-1.333-2.39-1.333h-2.232l.451.604c.538.736.849 1.167 1.31 1.816l2.387 3.434-2.026 3.237a39.97 39.97 0 01-.975 1.334c-.227.3-.452.59-.71.949l-.427.602h2.224c1.253 0 1.725-.258 2.396-1.334 0 0 .9-1.44 1.022-1.646.123-.204.431-.871.442-.887h.081s.276.618.444.887l1.04 1.65c.71 1.072 1.178 1.33 2.388 1.33h2.224l-.453-.602c-.528-.734-.839-1.175-1.299-1.83zm26.81-.774a2.415 2.415 0 00-.959.27l-.043.017c-.627.28-1.392.62-2.297.62-1.542 0-3.537-.919-3.713-2.934h8.523c.051-.414.079-.83.084-1.248 0-3.3-2.261-5.51-5.606-5.51-3.571 0-6.073 2.523-6.073 6.13 0 3.542 2.962 6.128 6.676 6.128a6.919 6.919 0 002.577-.465 6.726 6.726 0 002.193-1.383l.204-.197-.118-.25c-.276-.543-.677-1.18-1.452-1.18l.004.002zm-3.794-6.553c1.261 0 2.588.75 2.588 2.34h-5.77c.195-1.218 1.481-2.34 3.182-2.34zM12.06 22.933a3.295 3.295 0 011.07-.692 3.395 3.395 0 012.525 0c.4.16.764.396 1.069.692.622.602.97 1.415.97 2.263 0 .849-.348 1.662-.97 2.263a3.28 3.28 0 01-1.068.696 3.382 3.382 0 01-2.528 0 3.278 3.278 0 01-1.067-.696 3.164 3.164 0 01-.963-2.263c0-.846.346-1.66.963-2.263zm5.533-5.366a3.162 3.162 0 00-.964 2.263c0 .847.346 1.66.964 2.263.306.296.67.53 1.07.691a3.402 3.402 0 002.527 0c.4-.16.764-.395 1.07-.691a3.162 3.162 0 00.964-2.263c0-.847-.346-1.66-.964-2.263a3.298 3.298 0 00-1.07-.692 3.398 3.398 0 00-2.527 0c-.401.16-.765.395-1.07.692zm5.547-5.377a3.151 3.151 0 00-.968 2.264c0 .848.348 1.661.969 2.263a3.28 3.28 0 001.068.696 3.382 3.382 0 002.529 0 3.28 3.28 0 001.068-.696c.62-.602.967-1.416.967-2.263 0-.848-.347-1.661-.967-2.263a3.279 3.279 0 00-1.068-.697 3.38 3.38 0 00-2.53 0c-.4.162-.763.399-1.067.697zM6.512 17.567a3.151 3.151 0 00-.969 2.263c0 .848.348 1.661.969 2.263.306.296.67.53 1.07.691a3.402 3.402 0 002.527 0c.4-.16.764-.395 1.07-.691a3.162 3.162 0 00.964-2.263c0-.847-.346-1.66-.964-2.263a3.297 3.297 0 00-1.07-.692 3.398 3.398 0 00-2.527 0c-.4.16-.764.395-1.07.692zM.967 12.19a3.148 3.148 0 00-.97 2.264c0 .848.348 1.662.97 2.263a3.28 3.28 0 001.068.696 3.381 3.381 0 002.529 0 3.28 3.28 0 001.068-.696c.62-.602.969-1.415.969-2.263a3.15 3.15 0 00-.97-2.263 3.28 3.28 0 00-1.067-.697 3.38 3.38 0 00-2.53 0 3.28 3.28 0 00-1.067.697zm11.096.001a3.159 3.159 0 00-.965 2.263c0 .848.347 1.66.965 2.263a3.28 3.28 0 001.069.698 3.381 3.381 0 002.532 0c.4-.162.764-.4 1.068-.698a3.15 3.15 0 00.97-2.263c0-.848-.349-1.661-.97-2.263a3.294 3.294 0 00-1.07-.694 3.395 3.395 0 00-2.529 0c-.4.161-.764.397-1.07.694zM6.512 6.815a3.151 3.151 0 00-.969 2.263c0 .848.348 1.661.969 2.263.305.297.669.533 1.07.693a3.394 3.394 0 002.528 0c.4-.16.764-.396 1.069-.693a3.162 3.162 0 00.964-2.263c0-.847-.346-1.66-.964-2.263a3.28 3.28 0 00-1.068-.697 3.381 3.381 0 00-2.53 0 3.28 3.28 0 00-1.069.697zm11.081 0a3.162 3.162 0 00-.964 2.263c0 .847.346 1.66.964 2.263.305.297.669.533 1.07.693a3.393 3.393 0 002.528 0c.4-.16.764-.396 1.069-.693a3.162 3.162 0 00.964-2.263c0-.847-.346-1.66-.964-2.263a3.28 3.28 0 00-1.068-.697 3.381 3.381 0 00-2.53 0 3.28 3.28 0 00-1.07.697z" fill="#E51A4B"/><path d="M12.062 1.439a3.293 3.293 0 011.07-.695 3.394 3.394 0 012.53 0c.4.162.763.398 1.069.695.619.602.966 1.415.966 2.263 0 .847-.347 1.66-.966 2.263-.306.297-.67.533-1.07.693a3.396 3.396 0 01-2.53 0c-.4-.16-.764-.396-1.07-.693a3.162 3.162 0 01-.963-2.263c0-.847.346-1.66.964-2.263z" fill="#B0CB1F"/><path d="M38.22 26.43v2.87h-.517v-2.413H36.35v2.412h-.519V26.43h2.388zm1.475 0v1.895l2.026-2.115v3.09h-.511v-1.915L39.183 29.5v-3.07h.51zm5.316.805a1.172 1.172 0 00-.412-.317 1.217 1.217 0 00-.514-.112 1.13 1.13 0 00-.733.34 1.049 1.049 0 00-.297.728c0 .27.106.53.297.728.191.198.453.32.733.34a1.29 1.29 0 00.528-.123c.165-.078.31-.19.425-.326v.59a1.62 1.62 0 01-.939.297 1.626 1.626 0 01-.618-.099 1.58 1.58 0 01-.528-.323 1.512 1.512 0 01-.355-.497 1.464 1.464 0 01.355-1.68 1.58 1.58 0 01.528-.323c.197-.072.407-.106.618-.099.329-.004.65.092.918.276l-.006.6zm.805-.805h.514v1.1h.527a1.237 1.237 0 01.895.282.827.827 0 01.23.606.836.836 0 01-.267.641c-.253.234-.574.24-.866.24h-1.033V26.43zm.996 2.428a.96.96 0 00.458-.076.424.424 0 00.145-.158.405.405 0 00.047-.206.38.38 0 00-.042-.206.4.4 0 00-.146-.156.83.83 0 00-.456-.083h-.482v.886h.476zm2.228-2.648l1.226 2.336 1.196-2.336.714 3.09h-.532l-.388-1.776L50.25 29.5l-1.016-1.976-.38 1.775h-.53l.716-3.089zm6.028.22h.515v2.87h-.515v-.394a1.216 1.216 0 01-.445.36c-.176.085-.37.127-.567.124-.746 0-1.431-.51-1.431-1.521 0-1.012.68-1.5 1.431-1.5.196-.005.39.035.567.118a1.2 1.2 0 01.445.358v-.415zm-1.922 1.433c0 .616.356 1.078.967 1.078s.983-.504.983-1.07c0-.742-.525-1.065-.983-1.065-.507 0-.963.358-.963 1.057h-.004zm5.578-1.433v1.895l2.028-2.115v3.09h-.513v-1.915L58.21 29.5v-3.07h.513zm7.04 0v2.87h-.513v-2.413h-1.355v2.412h-.513V26.43h2.381zm.78 1.443c0-.3.092-.591.264-.84a1.56 1.56 0 01.705-.557c.287-.114.602-.144.907-.086.305.059.584.203.804.414a1.462 1.462 0 01.34 1.647c-.119.276-.32.512-.578.678a1.613 1.613 0 01-.872.255 1.579 1.579 0 01-.609-.103 1.532 1.532 0 01-.515-.326 1.464 1.464 0 01-.34-.497 1.418 1.418 0 01-.106-.585zm.53 0a.968.968 0 00.054.407 1.029 1.029 0 00.567.589 1.076 1.076 0 001.183-.238.97.97 0 00.275-.759c0-.702-.5-1.066-1.04-1.066a1.057 1.057 0 00-.766.31.95.95 0 00-.273.756zm5.703-.638a1.173 1.173 0 00-.412-.317 1.217 1.217 0 00-.514-.112 1.13 1.13 0 00-.733.34 1.05 1.05 0 00-.297.728c0 .27.106.53.297.728.191.198.453.32.733.34a1.3 1.3 0 00.528-.123c.165-.077.31-.189.424-.326v.59c-.271.193-.6.297-.938.297a1.626 1.626 0 01-.618-.099 1.58 1.58 0 01-.529-.323 1.512 1.512 0 01-.355-.497 1.462 1.462 0 010-1.182 1.53 1.53 0 01.355-.497 1.58 1.58 0 01.529-.324c.197-.072.407-.106.618-.099.329-.004.65.092.918.276l-.006.6zm.817-.805h.517v1.1h.523a1.25 1.25 0 01.902.282.841.841 0 01.229.606.848.848 0 01-.264.641c-.255.234-.579.24-.87.24h-1.037V26.43zm.993 2.428a.946.946 0 00.456-.076.41.41 0 00.146-.158.393.393 0 00.044-.206.38.38 0 00-.04-.206.399.399 0 00-.144-.156.826.826 0 00-.454-.083h-.484v.886h.476zm1.534-2.428h.513v2.87h-.513v-2.87zm3.709 2.87h-.513v-2.413h-1.053v1.293c.03.293-.051.588-.23.828a.881.881 0 01-.32.233 1.035 1.035 0 01-.547.059v-.463a.693.693 0 00.111.014.421.421 0 00.215-.049.402.402 0 00.157-.148.86.86 0 00.099-.492v-1.75h2.08V29.3zm1.484-2.87v1.177l1.2-1.177h.627l-1.282 1.28 1.44 1.59h-.67l-1.154-1.256-.161.142v1.113h-.51V26.43h.51zm3.012 0v1.895l2.023-2.115v3.09h-.51v-1.915L83.812 29.5v-3.07h.513z" fill="#E51A4B"/></g><defs><clipPath id="clip0_276_9381"><path fill="#fff" transform="translate(0 .5)" d="M0 0h132v29H0z"/></clipPath></defs></svg>