<svg width="108" height="14" fill="none" xmlns="http://www.w3.org/2000/svg"><g clip-path="url(#clip0_44_16048)"><path d="M1.567.663a1.944 1.944 0 00-.943 1.033C.544 1.916.5 3.982.5 7.766v5.733h2.584V9.901H6.52l.899 1.8.887 1.798H9.8c.81 0 1.483-.035 1.483-.07 0-.046-.46-.998-1.033-2.112L9.229 9.275l.27-.175c1.516-1.032 2.19-3.063 1.785-5.385-.258-1.415-.92-2.414-1.943-2.878C8.768.57 8.667.56 5.33.535c-2.697-.023-3.494 0-3.764.128zm6.516 2.623c.18.07.36.279.46.545.214.523.236 1.857.045 2.252-.483.963-1.078 1.149-3.617 1.149H3.084V3.17h2.348c1.291 0 2.482.046 2.65.116zm7.02-2.68c-1.111.347-1.909 1.171-2.246 2.297-.27.905-.562 3.04-.562 4.074 0 .998.27 3.029.506 3.853.415 1.427 1.123 2.158 2.426 2.506.562.151 1.157.175 3.067.14 2.19-.035 2.415-.07 2.966-.314 1.584-.73 2.269-2.588 2.269-6.162-.011-3.76-.72-5.617-2.393-6.256-.595-.22-.854-.243-3.201-.232-1.405 0-2.674.047-2.831.093zm5.224 2.83c.753 1.069.742 6.326-.022 7.104-.225.243-4.55.255-4.74.023-.529-.662-.72-4.48-.315-6.267.168-.708.258-.929.45-1.01.134-.058 1.201-.093 2.358-.081 1.899.023 2.134.046 2.27.232zm5.628-2.68c-.247.15-.55.453-.674.673-.224.395-.236.604-.27 5.246-.022 3.238.012 4.99.09 5.315.192.72.686 1.242 1.36 1.381.696.163 5.65.163 6.538.012 1.73-.29 2.617-1.335 2.74-3.25.08-1.079-.09-1.88-.527-2.6l-.326-.522.416-.835c.404-.801.415-.882.415-2.008 0-.963-.056-1.277-.258-1.752-.326-.732-.719-1.161-1.427-1.544l-.561-.313-3.539-.035C26.427.5 26.393.5 25.955.756zm6.954 2.553c.157.163.258.94.157 1.3a1.805 1.805 0 01-.393.662c-.28.278-.326.278-2.64.313l-2.348.035v-2.46l2.573.034c1.415.023 2.606.07 2.65.116zm-.494 5.176c.449.186.696.685.685 1.347-.011.417-.068.626-.202.73-.146.117-.854.152-2.708.152h-2.505v-2.46l2.225.046c1.213.034 2.347.116 2.505.185zm7.088-7.74c-1.09.44-1.64 1.23-2.067 2.97-.213.882-.247 1.347-.247 3.285 0 2.112.022 2.344.303 3.424.349 1.311.674 1.88 1.326 2.379.809.592 1.056.638 3.92.638 2.865 0 3.112-.046 3.92-.638.652-.5.978-1.068 1.326-2.38.281-1.079.304-1.31.304-3.423 0-1.938-.034-2.403-.247-3.285-.427-1.764-.978-2.541-2.101-2.97-.573-.221-.854-.244-3.235-.233-2.348 0-2.663.023-3.202.232zm5.415 2.541c.303.116.438.476.651 1.787.27 1.613.034 4.654-.416 5.362-.168.279-.18.279-2.415.279-2.628 0-2.471.08-2.763-1.463-.416-2.135-.079-5.698.55-5.965.337-.14 4.033-.14 4.393 0z" fill="#276EB8"/><path d="M50.387.86l-.348.36v11.49l.326.337c.292.29.416.336.988.336.55 0 .708-.046.91-.267.394-.43.472-.928.472-2.948V8.277h1.651l.832.742c1.662 1.474 2.235 2.264 2.235 3.053 0 .44.056.58.382.917.337.348.45.394.955.394.472 0 .63-.058.932-.336.36-.325.371-.372.36-1.219-.011-.731-.068-.998-.36-1.613-.393-.813-1.539-2.263-2.258-2.855l-.471-.383.73-.685c.876-.836 1.685-1.915 2.067-2.762.213-.488.28-.836.292-1.486.011-.835 0-.882-.36-1.207-.325-.301-.449-.336-1.078-.336-.652 0-.753.035-.955.302-.157.208-.236.475-.236.824 0 .278-.067.673-.157.882-.191.487-1.045 1.45-2.078 2.367l-.832.731h-1.65V3.716c0-1.033-.057-2.078-.113-2.31-.169-.627-.573-.905-1.303-.905-.506 0-.64.046-.933.36zm14.3-.197c-1.516.5-2.347 1.613-2.931 3.888-.27 1.021-.292 1.37-.337 4.318-.068 3.481-.023 3.864.494 4.282.37.302 1.326.313 1.674.023.404-.336.494-.661.494-1.868v-1.172h5.841v1.288c0 1.265 0 1.288.326 1.625.292.29.416.336.966.336.573 0 .674-.035.978-.371l.326-.372-.034-3.713c-.045-3.436-.068-3.796-.292-4.573C71.652 2.52 70.866 1.37 69.81.86c-.584-.279-.741-.302-2.64-.325-1.438-.024-2.157.011-2.482.127zm3.876 2.635c.618.22 1.146 1.625 1.292 3.377l.056.79h-5.864l.079-.93c.135-1.636.753-3.168 1.326-3.284.55-.104 2.774-.07 3.111.047zM76.045.663c-1.101.36-1.719.917-2.1 1.927-.192.51-.248.882-.248 1.799 0 1.857.54 2.913 1.809 3.551.505.255.707.279 2.92.337 2.292.058 2.393.07 2.64.325.326.336.36 1.323.056 1.798l-.19.314H77.91c-2.854 0-3.034.011-3.303.232-.63.51-.652 1.625-.056 2.147l.337.29h3.269c1.82 0 3.46-.058 3.684-.116.618-.174 1.281-.847 1.697-1.718.348-.73.37-.835.37-2.054 0-1.137-.033-1.346-.292-1.915-.37-.812-.876-1.416-1.426-1.694-.36-.186-.775-.232-2.977-.279-2.977-.07-2.887-.023-2.887-1.218 0-1.207-.169-1.15 3.415-1.219l3.1-.058.303-.313c.27-.279.304-.418.349-1.3L83.549.5 80.02.512c-2.516 0-3.65.047-3.976.151zm11.121 0a7.5 7.5 0 00-.786.325c-1.45.79-2.056 3.436-1.225 5.316.349.789.73 1.207 1.45 1.601.539.302.629.314 2.808.348 1.236.012 2.381.093 2.55.151.393.163.584.755.483 1.451-.124.882-.034.859-3.438.859h-3.044l-.326.336c-.28.302-.325.43-.325.998 0 .57.044.697.325.999l.326.336h3.393c3.774 0 3.864-.011 4.65-.79.686-.684 1-1.496 1.056-2.83.068-1.544-.213-2.45-1.044-3.297-.371-.383-.742-.65-1.023-.731-.247-.07-1.37-.128-2.527-.128s-2.247-.035-2.438-.07c-.404-.08-.584-.44-.584-1.148s.18-1.068.584-1.15c.191-.034 1.55-.069 3.033-.069 3.494 0 3.572-.046 3.572-1.799v-.87l-3.504.011c-2.506 0-3.651.047-3.966.151zm12.312.07c-.326.116-.775.36-.988.534-.9.708-1.708 2.565-1.933 4.456-.168 1.323-.157 6.476 0 6.952.158.453.607.708 1.27.708.404 0 .584-.07.876-.336l.37-.337.034-1.288.045-1.289h5.685l.044 1.289.034 1.288.371.337c.292.278.46.336.921.336s.629-.058.921-.336l.371-.337-.011-3.644c-.012-3.331-.023-3.702-.247-4.538-.506-1.915-1.259-3.076-2.348-3.633-.641-.325-.697-.336-2.73-.36-1.831-.034-2.146-.011-2.685.198zm4.494 2.901c.449.546.786 1.706.853 2.867l.068.963H99.13v-.708c0-1.474.629-3.191 1.258-3.47.146-.058.932-.093 1.764-.081l1.494.023.326.406z" fill="#D61E2F"/></g><defs><clipPath id="clip0_44_16048"><path fill="#fff" transform="translate(.5 .5)" d="M0 0h107v13H0z"/></clipPath></defs></svg>