<svg width="74" height="36" fill="none" xmlns="http://www.w3.org/2000/svg"><path d="M35.848.526H.5v34.937h35.348V.526zM73.5.5H38.086v35H73.5V.5z" fill="#0155A5"/><path d="M71.824 2.16H39.8v31.65h32.023V2.16z" fill="#fff"/><path fill-rule="evenodd" clip-rule="evenodd" d="M19.615 25.159c-.388-.468-.585-1.084-.585-1.828 0-.762.188-1.377.56-1.825.404-.493.998-.742 1.769-.742h.06v-1.272h-.06c-1.202 0-2.128.371-2.756 1.106-.57.664-.86 1.587-.86 2.746 0 1.12.314 2.041.933 2.737.652.732 1.56 1.107 2.7 1.107h.061v-1.28h-.06c-.752 0-1.343-.252-1.76-.75h-.002zm-4.576 0c-.388-.468-.585-1.083-.585-1.828 0-.762.188-1.377.56-1.825.403-.493.998-.742 1.769-.742h.063v-1.272h-.059c-1.201 0-2.127.371-2.757 1.106-.57.664-.86 1.587-.86 2.746 0 1.12.315 2.041.934 2.737.652.732 1.56 1.107 2.701 1.107h.06v-1.28h-.06c-.752 0-1.344-.252-1.76-.75h-.006zm4.207-12.401v3.541h1.366V8.963h-1.366v2.557H18.5c-.306 0-.535-.07-.68-.205a.508.508 0 01-.154-.394V8.963H16.3v2.096a1.535 1.535 0 00.573 1.218c.382.322.87.495 1.373.483l.999-.002zm13.07 6.554l-.095.1-2.731 2.822v-2.568h-1.194v7.297h1.194v-2.996l1.73-1.812c.011.262.175 4.808.175 4.808h1.215l-.294-7.65zm-8.937-3.01h1.366v-6.118h1.15V8.967h-3.65v1.217h1.134v6.118zm3.146 3.114l-2.73 2.818v-2.568h-1.193v7.297h1.193v-2.996l1.731-1.812.173 4.808h1.217l-.295-7.65-.096.099v.004zm2.458-9.232h.493c.353 0 .595.104.742.319.117.179.201.524.255.995h-1.524c0-.148.03-1.175.034-1.316v.002zm-.059 2.536h1.706l.384 3.582h1.376l-.63-5.364c0-.703-.225-1.234-.653-1.569-.345-.269-.818-.406-1.405-.406h-2.024l-.252 7.34h1.366l.132-3.583zM5.112 10.184h1.692v6.118H8.17V8.963H3.746v7.34h1.366v-6.12zm.64 13.466c-.1.187-.213.281-.336.281-.124 0-.224-.08-.317-.248a1.672 1.672 0 01-.144-.774v-2.145h.05c.283 0 .498.154.66.47.16.317.248.848.248 1.55a1.93 1.93 0 01-.157.864l-.005.002zm-.748-3.973H3.738v7.282h1.213v-2.114c.207.2.482.316.771.326.403 0 .74-.21 1-.627.29-.467.437-1.16.437-2.058a3.774 3.774 0 00-.35-1.66c-.367-.757-.974-1.142-1.805-1.142v-.007zm8.127-5.17c-.178.475-.427.71-.763.71s-.567-.234-.745-.715c-.186-.504-.28-1.142-.28-1.898 0-.775.092-1.414.274-1.898.175-.468.42-.69.75-.69.37 0 .633.229.806.697.159.43.24 1.059.24 1.869 0 .781-.095 1.43-.282 1.928v-.003zm1.055.83c.405-.691.611-1.62.611-2.757 0-1.138-.212-2.048-.631-2.74-.419-.69-1.035-1.063-1.798-1.063-.728 0-1.307.36-1.72 1.07-.405.694-.611 1.616-.611 2.743 0 1.164.197 2.102.584 2.796.387.694.985 1.066 1.747 1.066.761 0 1.387-.375 1.821-1.116h-.003zm-3.42 9.868c-.16.48-.396.723-.7.723-.303 0-.52-.247-.68-.733a6.226 6.226 0 01-.25-1.911c0-.775.082-1.422.245-1.909.157-.467.388-.704.686-.704.336 0 .579.234.735.713.144.435.215 1.067.215 1.881 0 .787-.084 1.439-.252 1.94zm.902-4.662c-.38-.697-.918-1.051-1.599-1.051-.647 0-1.16.355-1.528 1.057-.369.703-.54 1.607-.54 2.726 0 1.158.175 2.094.52 2.78.347.686.874 1.053 1.551 1.053.678 0 1.232-.371 1.618-1.106.36-.686.543-1.608.543-2.74 0-1.132-.188-2.035-.56-2.723l-.005.004z" fill="#FEFEFE"/><path fill-rule="evenodd" clip-rule="evenodd" d="M48.826 11.823c.262.572.692 1.157 1.862 1.948.262.178.551.546.33 1.063-.22.517-.634 1.254-.386 1.54.249.287 1.131.436 1.848.15.093.268.234.516.414.736 0 0-.124.245-.538.123a.965.965 0 01-.056.763 1.012 1.012 0 01-.69-.52c-.132.217-.336.38-.577.465 0 0-.318-.163-.248-.79a1.214 1.214 0 01-.952.654s-.413-.517.124-1.218c0 0-.386.342-1.09.178 0 0-.111-.354.525-.846 0 0-.718-.026-.994-.625 0 0 .304-.369 1.048-.287a1.19 1.19 0 01-.565-.361 1.168 1.168 0 01-.275-.607s.496-.313 1.283.191a1.862 1.862 0 00-.47-.518c-.325-.254-.73-.977-.593-2.04zm2.884 8.22a1.995 1.995 0 01-.241-.406c.123.996.169 1.66.71 2.303 0 0 .327-.43.112-1.476a1.007 1.007 0 01-.288-.133c.074.277.09.567.047.85 0 0-.196-.14-.34-1.138zm-.938-.103a3.06 3.06 0 01-.254-.373c-.046.575-.199 2.091.315 2.565 0 0 .352-.255.476-2.464-.08.116-.17.225-.269.326 0 0 .086.702-.169 1.196.001.004-.254-.191-.099-1.25zm-1.222 1.159c.433-.512.56-2.042.56-2.042a2.6 2.6 0 00.252-.193c0 .057 0 .11.007.172-.062.92-.136 1.87-.426 2.344-.203.3-.483.542-.81.702-.491-.863.103-2.024.6-2.83a1.93 1.93 0 00.186-.082c-.173.62-.504 1.36-.368 1.928zm-1.218-2.659a.7.7 0 00.053.284c-.412.4-.717.78-1.327 1.62a2.187 2.187 0 01-1.578.87c.093-.678.28-1.217.797-1.792a10.757 10.757 0 011.666-1.458.905.905 0 00.495.069l.048-.006a.696.696 0 00-.127.246c-.368.21-1.436.745-1.87 1.61 0 0 .677-.21 1.843-1.443zm-.764-.845l.04-.071a.532.532 0 01.044-.067c-.398.154-1.814.682-2.272.916-.458.233-1.12.774-1.482 1.851a2.64 2.64 0 001.745-.56c.784-.646 1.706-1.55 2.1-1.832a.757.757 0 01-.091-.1s-1.069.935-2.196 1.338c.176-.292.41-.546.687-.747.542-.382.949-.51 1.425-.728zm-.812-.638l.047-.11c-.467.095-1.635.232-2.157.39-.523.159-1.465.536-2.025 1.59 0 0 .822.252 2.373-.47 1.55-.721 2.036-.87 2.333-.947a1.11 1.11 0 01-.491-.148c-.618.27-1.446.594-2.267.614.262-.177.54-.33.83-.456.441-.185.895-.34 1.357-.463zm.04-.76c.146.071.304.114.467.127a1.159 1.159 0 00-.303.275c-.546.156-1.478.325-3.015.435-1.537.11-2.351-.17-2.351-.17a6.992 6.992 0 011.963-.761c.576-.11 2.092-.099 2.757-.187.07.055.142.105.219.15-.56.05-1.75.105-2.365.412.001 0 1.135.15 2.628-.28zm-.118-.869a1.9 1.9 0 01.284-.132c-.777-.233-1.846-.605-3.452-.709-1.18-.077-2.03-.01-2.47.103 0 0 1.072.748 2.3 1.012 1.228.263 2.224.096 2.953.103a1.26 1.26 0 01.188-.23c-.852 0-2.27-.214-2.778-.38 0-.003 1.237-.259 2.975.233zm-.001-.908a1.053 1.053 0 00.603.696c-1.092-.473-3.247-.745-4.401-1.217-1.568-.642-1.848-1.438-1.848-1.438 1.353-.035 2.447.292 3.29.546.987.3 2.49.853 3.016 1.086a1.16 1.16 0 00-.594.185c-.57-.226-1.153-.42-1.745-.581a6.43 6.43 0 00-1.245-.206c.384.23.796.414 1.226.544.555.171 1.123.3 1.698.385zm-.084-1.178c.045.076.173.26.224.332-1.728-.287-3.627-1.578-4.215-2.379-.588-.8-.42-1.991-.42-1.991.57.11 1.809 1.168 2.128 1.485.319.316 1.29 1.248 1.96 1.77l.21.6a73.775 73.775 0 00-1.68-1.281c-.327-.245-.817-.59-1.302-.754.24.311.511.598.808.858.375.294.773.559 1.19.79.31.173.47.27 1.097.57z" fill="#0155A5"/><path fill-rule="evenodd" clip-rule="evenodd" d="M51.466 18.02a1.86 1.86 0 00.136-.13c.192.23.353.484.477.756.1.281.205.664.258.885.073.286.175.563.305.827a.893.893 0 01-.732-.308 1.915 1.915 0 01-.458-1.072 3.991 3.991 0 01.014-.958zm-.663.054c.043.06.098.112.161.15l.056.03.06-.02a1.07 1.07 0 00.145-.058c.052.126.086.258.102.393.04.243.036.492-.014.734a1.51 1.51 0 01-.369.594 1.917 1.917 0 01-.354-.547c-.096-.28-.1-.584-.01-.866.048-.15.124-.288.223-.41zm-.951.029a1.39 1.39 0 00.655-.254c.06.13.077.276.05.417a1.017 1.017 0 01-.361.544c-.284.222-.664.435-1.083.37 0 0-.096-.31.739-1.077zm-.314-.519a.97.97 0 00.179.464c-.099.116-.448.718-1.193.616 0 0-.199-.41.293-.735.22-.151.464-.268.72-.345zm.062-.514a1.61 1.61 0 01-.767 0l-.085-.02-.024-.081c-.38.306-.831.356-.986.632a.661.661 0 00.684.284 1.652 1.652 0 001.12-.612c.014-.07.034-.137.058-.203zm-.852-.43a2.38 2.38 0 01.265-.423 2.704 2.704 0 00-1 .012c-.449.085-.918.192-1.15.873 0 0 .293.246.821.14.449-.09.84-.282 1.064-.602zm-.191-.74a1.115 1.115 0 01-.295-.39l-.04-.085c-.391-.16-.802-.24-1.203-.093a1.065 1.065 0 00-.609.468s.448.367.956.382c.509.014.985-.131 1.19-.283zm.117-.8c.074-.028.151-.05.23-.065a1.363 1.363 0 01-.43-.728 1.923 1.923 0 01-.8-.029 1.03 1.03 0 00-.85.111s.098.501.754.673c.62.165.844.123 1.096.039zm-.237-.977l.086-.055a.94.94 0 01.41-.11c-.212-.156-.713-.572-1.07-.775-.389-.221-1.035-.501-1.363-.544 0 0 .308.8.672 1.12.364.322.627.463 1.265.364zm.666-.368a2.378 2.378 0 01-.372-.808c-.075-.267-.243-.93-.345-1.106-.102-.176-.464-.775-1.172-.96 0 0-.188.783.168 1.403.308.538.938 1.102 1.72 1.471zm3.929 3.642c.091.09.198.162.315.214a1.053 1.053 0 01-.048.941c-.23.433-.436.878-.616 1.334 0 0-.148-.021-.311-.828-.112-.546-.25-.684-.395-.87.093.049.194.084.297.106l.112.018.05-.097a1.097 1.097 0 00.12-.65.53.53 0 00.44-.186l.013-.016.023.034z" fill="#0155A5"/><path fill-rule="evenodd" clip-rule="evenodd" d="M47.014 11.213v.247l.014.193c-.42-.53-.92-1.166-1.398-1.747a3.72 3.72 0 00-.913-.84A4.17 4.17 0 0045.77 10.7c.328.296.803.797 1.267 1.106l.045.152c.037.145.094.284.168.414.117.2.258.385.419.553a8.721 8.721 0 00-.448-.202l-.144-.059c-1.275-.664-2.541-2.053-3.053-3.018-.512-.965-.299-2.082-.163-2.682A12.864 12.864 0 0145.64 8.91a18.23 18.23 0 011.373 2.278v.025zm17.889 4.115a1.917 1.917 0 00-.286-.132c.777-.233 1.846-.605 3.453-.709 1.18-.077 2.03-.01 2.47.103 0 0-1.072.748-2.3 1.012-1.229.263-2.224.096-2.953.103a1.271 1.271 0 00-.187-.23c.85 0 2.27-.214 2.777-.38 0-.003-1.236-.259-2.974.233zm.007-.908a1.045 1.045 0 01-.602.696c1.09-.473 3.247-.745 4.4-1.217 1.568-.642 1.85-1.438 1.85-1.438-1.352-.035-2.449.292-3.29.546-.988.3-2.492.853-3.018 1.086.212.007.418.07.596.185.57-.226 1.152-.42 1.744-.581a6.4 6.4 0 011.244-.206c-.386.231-.8.414-1.232.544-.553.171-1.118.3-1.691.385zm.083-1.178c-.044.076-.173.26-.224.332 1.73-.287 3.628-1.578 4.216-2.379.588-.8.419-1.991.419-1.991-.569.11-1.807 1.168-2.127 1.485-.32.316-1.29 1.248-1.96 1.77l-.212.597c.575-.456 1.258-.966 1.68-1.282.327-.244.815-.588 1.303-.753a6.061 6.061 0 01-.81.857 8.932 8.932 0 01-1.19.795c-.31.172-.47.269-1.094.569zm-.42-2.029v.247l-.015.193c.42-.53.92-1.166 1.399-1.747a3.72 3.72 0 01.911-.84 4.156 4.156 0 01-1.051 1.634c-.328.296-.804.797-1.267 1.106l-.045.152a1.73 1.73 0 01-.168.414c-.118.2-.259.385-.419.553.134-.065.29-.137.448-.202l.143-.059c1.277-.664 2.542-2.053 3.055-3.018.513-.965.3-2.082.162-2.682a12.821 12.821 0 00-1.78 1.946 18.224 18.224 0 00-1.373 2.278v.025zm-15.927 7.614c-.526.519-1.635 1.685-1.53 2.95 0 0 1.03-.318 1.456-1.065.427-.747.686-1.217.864-1.382a1.167 1.167 0 01-.336 0l-.093-.015c-.261.47-.783 1.24-1.245 1.51 0 0-.12-.625 1.251-1.889a1.12 1.12 0 01.08-.177 1.177 1.177 0 01-.428.067h-.02zm14.109-7.004c-.263.572-.693 1.157-1.862 1.948-.262.178-.55.546-.33 1.063.22.517.634 1.254.385 1.54-.248.287-1.13.436-1.847.15a2.401 2.401 0 01-.413.736s.124.245.537.123a.968.968 0 00.055.763 1.012 1.012 0 00.69-.52c.133.217.337.38.578.465 0 0 .317-.163.249-.79a1.193 1.193 0 00.95.654s.415-.517-.123-1.218c0 0 .387.342 1.09.178 0 0 .112-.354-.524-.846 0 0 .717-.026.992-.625 0 0-.303-.369-1.047-.287 0 0 .689-.15.84-.968 0 0-.495-.313-1.281.191.12-.2.28-.377.468-.518.335-.254.736-.977.593-2.04zm-2.882 8.22a1.98 1.98 0 00.24-.406c-.122.996-.168 1.66-.71 2.303 0 0-.326-.43-.111-1.476a.998.998 0 00.291-.133 2.12 2.12 0 00-.047.85s.196-.14.337-1.138zm.937-.103a3.06 3.06 0 00.255-.373c.045.575.198 2.091-.315 2.565 0 0-.353-.255-.477-2.464.08.116.17.225.27.326 0 0-.086.702.168 1.196 0 .004.252-.191.099-1.25zm1.227 1.159c-.432-.512-.56-2.042-.56-2.042a2.625 2.625 0 01-.25-.193c0 .058-.002.115-.008.172.063.92.136 1.87.428 2.344.202.3.481.542.808.702.492-.863-.102-2.024-.6-2.83a1.717 1.717 0 01-.185-.082c.172.62.503 1.36.367 1.928zm1.217-2.659a.666.666 0 01-.052.284c.41.4.717.78 1.327 1.62a2.21 2.21 0 001.578.87c-.094-.678-.28-1.217-.797-1.792a10.811 10.811 0 00-1.666-1.458.9.9 0 01-.494.069l-.048-.006c.057.073.1.157.126.246.368.21 1.437.745 1.87 1.61 0 0-.676-.21-1.844-1.443zm.766-.845l-.04-.071a.69.69 0 00-.044-.067c.396.154 1.813.682 2.271.916.458.233 1.12.774 1.48 1.851a2.635 2.635 0 01-1.743-.56c-.784-.646-1.707-1.55-2.1-1.832a.773.773 0 00.092-.1s1.067.935 2.194 1.338a2.54 2.54 0 00-.686-.747c-.543-.382-.95-.51-1.425-.728zm.809-.638l-.048-.11c.467.095 1.636.232 2.157.39.522.159 1.465.536 2.025 1.59 0 0-.821.252-2.373-.47-1.552-.721-2.035-.87-2.332-.947.173-.01.34-.061.49-.148.62.27 1.446.594 2.266.614a5.063 5.063 0 00-.83-.46 10.53 10.53 0 00-1.355-.459zm-.041-.76a1.307 1.307 0 01-.468.127c.117.073.22.166.304.275.546.156 1.477.325 3.014.435 1.537.11 2.357-.17 2.357-.17a7.016 7.016 0 00-1.966-.761c-.578-.11-2.094-.099-2.76-.187a1.972 1.972 0 01-.223.15c.56.05 1.75.105 2.365.412.005 0-1.129.15-2.623-.28z" fill="#0155A5"/><path fill-rule="evenodd" clip-rule="evenodd" d="M60.122 18.02a1.545 1.545 0 01-.136-.13c-.193.23-.353.485-.476.758a9.597 9.597 0 00-.259.886 4.277 4.277 0 01-.306.826.893.893 0 00.733-.307c.26-.302.42-.677.458-1.073.034-.32.03-.642-.014-.96zm.659.054a.542.542 0 01-.16.15l-.055.03-.06-.02a1.24 1.24 0 01-.146-.058 1.526 1.526 0 00-.1.393c-.02.19-.06.489.013.734.074.223.2.426.367.594.149-.161.269-.346.355-.547.096-.28.1-.584.01-.866a1.224 1.224 0 00-.224-.41zm.949.029a1.394 1.394 0 01-.656-.254.68.68 0 00-.05.417c.057.216.184.407.361.544.284.222.664.435 1.083.37 0 0 .097-.31-.738-1.077zm.32-.519a.973.973 0 01-.179.464c.099.116.448.718 1.191.616 0 0 .2-.41-.292-.735a2.582 2.582 0 00-.72-.345zm-.066-.514c.253.061.516.061.768 0l.084-.02.026-.081c.38.306.83.356.984.632a.662.662 0 01-.68.289 1.656 1.656 0 01-1.12-.613 1.422 1.422 0 00-.062-.207zm.853-.43a2.469 2.469 0 00-.267-.423 2.704 2.704 0 011.001.012c.455.085.919.192 1.15.873 0 0-.292.246-.822.14-.449-.09-.84-.282-1.062-.602zm.194-.74a1.14 1.14 0 00.295-.39l.039-.085c.394-.16.804-.24 1.204-.093.255.075.472.242.609.468 0 0-.448.367-.956.382-.509.014-.985-.131-1.19-.283zm-.12-.8a1.37 1.37 0 00-.224-.064 1.36 1.36 0 00.43-.729c.265.047.538.037.8-.029a1.029 1.029 0 01.85.111s-.096.502-.754.673c-.622.165-.85.123-1.102.039zm.234-.977l-.087-.055a.932.932 0 00-.41-.11c.212-.156.714-.572 1.072-.775.387-.221 1.033-.501 1.362-.544 0 0-.308.8-.667 1.12-.358.322-.632.463-1.27.364zm-.661-.368c.175-.244.301-.518.373-.808.074-.267.244-.93.345-1.106.1-.176.462-.775 1.172-.96 0 0 .189.783-.169 1.403-.308.538-.937 1.102-1.72 1.471zm-3.933 3.642a1.05 1.05 0 01-.313.214 1.054 1.054 0 00.047.941c.23.433.436.878.616 1.334 0 0 .147-.021.31-.828.113-.546.252-.684.397-.87a1.122 1.122 0 01-.299.106l-.112.018-.05-.097a1.096 1.096 0 01-.118-.65.53.53 0 01-.448-.186l-.012-.016-.018.034z" fill="#0155A5"/><path fill-rule="evenodd" clip-rule="evenodd" d="M62.94 18.827c.525.519 1.634 1.685 1.528 2.95 0 0-1.029-.318-1.455-1.065-.427-.747-.685-1.217-.865-1.382.112.016.225.016.336 0l.093-.015c.261.47.784 1.24 1.245 1.51 0 0 .12-.625-1.25-1.889a1.25 1.25 0 00-.087-.176c.138.049.283.071.43.067h.025zM54.988 8.738c0-.093.36-.17.804-.17.444 0 .804.077.804.17 0 .093-.36.172-.804.172-.444 0-.804-.078-.804-.172zm-2.73.915c0-.052.232-.093.518-.093.287 0 .519.041.519.093s-.233.092-.519.092c-.285 0-.518-.041-.518-.092zm3.692-.543a.156.156 0 01-.097.147.16.16 0 01-.174-.034.157.157 0 01.114-.268.155.155 0 01.158.156zm-1.019-.532c-.267-.63-.447-1.095-.438-1.251 0-.095.117-.165.223-.197a.302.302 0 01.274.014c.139.111.268.958.316 1.312a1.13 1.13 0 00-.375.122zm.491-.142c.067-.007.136-.011.208-.014a8.817 8.817 0 00-.232-1.123c-.07-.221-.158-.382-.304-.423.073.206.132.416.175.63.063.321.111.63.153.93zm-.852 1.129c.295-.07.597-.381.597-.381-.474.068-.596.381-.596.381zm.443-.028a1.672 1.672 0 01-.872.199c.097-.2.245-.37.43-.494.252-.153.546-.225.842-.205a1.067 1.067 0 01-.4.5zm-1.537.668v-.033a6.02 6.02 0 01-.883.03.462.462 0 00.195.332c.027-.324.688-.332.688-.332v.003zm-1.343-.43c.328.115.674.17 1.022.164.512-.025 1.456-.036 1.76-.181a.515.515 0 01-.295.299.422.422 0 01.254.11.544.544 0 01-.29.24s.39.401.805.372c0 0-.192.236-.618.145a.966.966 0 01-.64-.42c.027.103.037.21.028.316a.507.507 0 01-.335-.194c.06.104.102.216.127.333a.59.59 0 01-.327-.111c.029.078.046.16.052.243 0 0-.494-.157-.733-.378-.001.08.001.16.008.24 0 0-.759-.07-.817-1.177h-.001zm-.116.078c.015.223.07.44.166.643 0 0-.302-.221-.376-.414-.073-.192-.091-.32.21-.229zm-.603.909a.124.124 0 00.123-.148.126.126 0 00-.248.026.122.122 0 00.125.122zm.736-.145c.146.077.276.18.382.305a1.55 1.55 0 00-.44.156.875.875 0 00-1.068 0 .618.618 0 01-.224-.841c.158-.229.515-.188.684-.15.11.34.485.449.666.53zm.45.381c.11.146.233.281.368.404 0 0-.784-.007-.986.664 0 0-.272-.411-.073-.68.21-.289.41-.325.69-.387z" fill="#0155A5"/><path fill-rule="evenodd" clip-rule="evenodd" d="M53.46 11.165l.337.096v-.215c.083.022.168.04.254.05 0 0 .253.56.448.785a.583.583 0 01-.1.314c-.1-.219-.236-.42-.4-.596a2.93 2.93 0 00-.538-.434zm-.67-.119c.24.065.47.162.684.288.247.173.416.374.39.719a1.633 1.633 0 00-.419-.396 2.462 2.462 0 01-.656-.611zm.012-2.533c.075 0 .224.036.224.154s-.19.407-.24.537c-.05-.13-.24-.417-.24-.537 0-.12.148-.154.225-.154h.031zm-.167.931c-.036-.169-.103-.606-.208-.702a.452.452 0 00-.32-.096.14.14 0 00-.103.06.136.136 0 00-.017.118c.12.221.254.436.4.642.082-.012.165-.02.248-.022zm.287 0c.037-.169.103-.606.208-.702a.452.452 0 01.32-.096.139.139 0 01.127.117.135.135 0 01-.006.06c-.12.222-.253.437-.4.643a2.385 2.385 0 00-.25-.022zm.21-1.517h-.253v-.278h-.206v.278h-.255v.175h.255v.327h.206v-.327h.253v-.175zm-3.079 1.791c0-.053.004-.106.01-.16a1.13 1.13 0 000-.346c-.182.069-.306.111-.56.515.009 0 .41-.245.55-.009zm.351.637c.027-.217.08-.43.155-.637.088-.302.06-.626-.08-.908a1.227 1.227 0 01-.164-.69c-.13.043-.256.097-.376.162-.02.279.143.553.224.716.07.184.088.383.05.576-.037.275.03.554.191.781zm.028-2.13a.32.32 0 01.008-.155s.374-.36.69-.421a.433.433 0 01.38.096.418.418 0 00-.279.122c-.168.135-.376.297-.535.338a.515.515 0 01-.264.02zm1.106-.454c.141.14.26.287.258.414-.002.128-.158.465-.24.592-.082.128-.2.291-.187.494.02.111.077.213.161.289 0 0-.458-.11-.514-.389a.784.784 0 01.133-.564c.068-.13.28-.434.335-.561a.477.477 0 00.054-.275zm2.681 3.157c.092.303.227.592.402.857.126.208.199.443.212.685 0 0 .208-.452.101-.774a1.248 1.248 0 00-.715-.768zm.519.105s.314 0 .462.1c.23.176.386.432.437.716a1.05 1.05 0 01-.474-.21 1.763 1.763 0 01-.425-.606zm-1.632.561a2.321 2.321 0 00-.301.064c.143.04.279.104.402.187a.766.766 0 01.258.48c.07.284.18.557.327.811h.025c-.038-.232.112-.714.147-.784a1.295 1.295 0 01-.31-.27 1.672 1.672 0 00-.548-.488zm1.394.726c.078.177.285.492.188.82-.098.33-.314.47-.448.749a4.037 4.037 0 01-.083-.885.807.807 0 01.343-.684zm.606.013s.313.6.37.835a.578.578 0 01-.103.528 3.847 3.847 0 00-.447.59 1.399 1.399 0 01-.219-.384c-.013-.195.006-.39.056-.58.041-.131.204-.555.343-.989zm.161 1.915c-.07.073-.434.506-.484.634-.049.127-.133.366-.02.53.16.223.365.41.603.546 0 0-.248-.381-.224-.694.015-.2.171-.378.201-.5a.858.858 0 00-.076-.516zm-.717-.241a.977.977 0 01.167.443c.01.202-.028.402-.112.587a7.563 7.563 0 01-.409.866 3.068 3.068 0 01-.266-.458c.145-.196.273-.404.383-.621.106-.264.186-.537.237-.817zm-.123-.14s-.112.853-.624 1.487c-.343.43-.622.579-.807.579a.76.76 0 01-.654-.494c-.095-.263-.065-.67.112-.815 0 0 .168.512.525.53.408.022.93-.424 1.448-1.287z" fill="#0155A5"/><path fill-rule="evenodd" clip-rule="evenodd" d="M54.012 13.51c.05.2.05.408 0 .608a.846.846 0 01-.343.51.51.51 0 01-.731-.247s.738.056 1.074-.87zm1.209 3.442c.1.257.464.581.461.781-.006.532-.24.857-.296 1.032 0 0-.43-.338-.508-.726-.038-.197.007-.794.343-1.087zm-.48.375c.05-.138.209-.513.392-.644 0 0 .235-.682-.518-1.1-.178.237-.31.504-.392.788-.087.38.328.617.518.956zm-.944-1.719c-.121.143-.291.343-.424.405a2.39 2.39 0 00-.02.507c.038.3.234.607.317.832 0 0 .328-.426.368-.676.039-.25.03-.456.043-.574a7.83 7.83 0 01-.284-.494zm-.866 1.458c-.093-.14-.395-.655-.4-1.03 0 0 .372.194.683.052 0 0 .042.487-.019.651a.639.639 0 01-.264.327zm.085.104c.094-.08.184-.167.268-.258.106.188.202.38.288.578a.331.331 0 01-.257-.067 1.872 1.872 0 01-.3-.253zm1.141-.261c-.03.11-.428.664-.497.727.035.168.095.33.178.482.119.22.275.418.463.585 0 0 .245-.424.319-.61a.767.767 0 00.037-.503c-.083-.183-.372-.449-.5-.681zm.595 1.431c.088.176.354.465.395.693a.805.805 0 01-.045.449c-.096.187-.201.37-.316.547 0 0-.363-.338-.448-.581a.844.844 0 01.05-.602c.091-.162.282-.338.364-.506zm-1.03-.049c.095.203.319.405.37.584a.748.748 0 01-.021.588c-.092.216-.203.34-.24.471 0 0-.296-.377-.345-.534a1.045 1.045 0 010-.581c.058-.165.163-.379.236-.528zm1.454 1.439s-.508.606-.496.928c.014.4.284.664.322.914a3.14 3.14 0 00.368-.498c.112-.221.2-.416.17-.67-.028-.255-.099-.42-.364-.674zm-.931-.061c.08.116.308.513.243.75-.065.235-.315.568-.398.71a4.482 4.482 0 01-.247-.595c-.046-.187-.006-.49.402-.865zm5.079-10.016c0-.052-.231-.093-.518-.093-.286 0-.517.041-.517.093s.232.092.517.092c.286 0 .518-.041.518-.092zm-3.527-1.571c.033-.23.302-.718.302-.932a.303.303 0 00-.096-.203.31.31 0 00-.519.203c0 .214.27.702.303.932h.01zm.857.496c.268-.63.447-1.095.438-1.251 0-.095-.117-.165-.224-.197a.298.298 0 00-.273.01c-.14.11-.27.957-.318 1.311.132.02.26.063.377.127zm-.486-.142a3.203 3.203 0 00-.207-.014c.051-.379.128-.754.23-1.123.069-.221.157-.382.304-.423a4.916 4.916 0 00-.177.63c-.056.321-.11.63-.15.93zm.25.748s.301.312.596.381c0 0-.122-.313-.596-.381zm-.246-.144c.295-.021.59.05.842.202.184.124.333.294.431.491a1.675 1.675 0 01-.873-.199 1.074 1.074 0 01-.4-.494zm2.62 1.493a.463.463 0 00.194-.332 5.99 5.99 0 01-.882-.03v.033s.662 0 .688.332v-.003zm-.17.426c.008-.08.01-.16.009-.24-.24.22-.734.378-.734.378a.89.89 0 01.052-.243.59.59 0 01-.328.11 1.15 1.15 0 01.128-.332.502.502 0 01-.335.194.951.951 0 01.029-.317.954.954 0 01-.637.419c-.427.09-.618-.145-.618-.145.416.028.806-.372.806-.372a.543.543 0 01-.291-.24.424.424 0 01.254-.111.52.52 0 01-.295-.299c.306.145 1.248.156 1.76.182.348.006.694-.05 1.023-.164-.052 1.103-.823 1.18-.823 1.18zm.942-1.106a1.78 1.78 0 01-.166.643s.302-.221.375-.414c.074-.192.093-.32-.209-.229zm.726.786a.123.123 0 00-.077-.115.126.126 0 00-.172.09.123.123 0 00.053.127.126.126 0 00.158-.015.123.123 0 00.037-.087zm-.2-.547c.17-.039.526-.08.684.15a.618.618 0 01-.224.84.875.875 0 00-1.067 0 1.564 1.564 0 00-.448-.155 1.3 1.3 0 01.383-.306c.2-.085.569-.194.676-.529h-.004zm-1.104.906c-.11.146-.234.281-.369.404 0 0 .784-.007.987.664 0 0 .272-.411.074-.68-.215-.289-.412-.325-.692-.387z" fill="#0155A5"/><path fill-rule="evenodd" clip-rule="evenodd" d="M58.123 11.165l-.336.096v-.215a2.12 2.12 0 01-.253.05s-.254.56-.448.785a.58.58 0 00.099.314c.1-.219.235-.42.4-.596a3 3 0 01.538-.434zm.665-.119c-.24.065-.47.162-.684.288-.247.173-.416.374-.39.719.114-.155.256-.29.418-.396a2.45 2.45 0 00.656-.611zm-.002-2.533c-.075 0-.224.036-.224.154s.19.407.24.537c.05-.13.24-.417.24-.537 0-.12-.147-.154-.224-.154h-.032zm.164.931c.034-.169.101-.606.206-.702a.451.451 0 01.32-.096.138.138 0 01.126.117c.003.02 0 .041-.006.06a6.29 6.29 0 01-.4.643 2.354 2.354 0 00-.247-.022zm-.287 0c-.036-.169-.103-.606-.209-.702a.451.451 0 00-.319-.096.14.14 0 00-.104.06.136.136 0 00-.017.118c.12.221.254.436.4.642.082-.012.165-.02.249-.022zm-.21-1.517h.253v-.278h.205v.278h.255v.175h-.255v.327h-.205v-.327h-.253v-.175zm-3.055-1.645h.253v-.279h.206v.28h.256v.174h-.255v.328h-.206v-.328h-.254v-.175zm6.132 3.436a1.09 1.09 0 00-.01-.16 1.172 1.172 0 01-.006-.346c.183.069.307.111.56.515-.002 0-.403-.245-.543-.009zm-.35.637a2.964 2.964 0 00-.153-.637 1.258 1.258 0 01.079-.908c.121-.21.178-.45.164-.69.13.043.255.097.375.162.023.279-.142.553-.224.716a1.046 1.046 0 00-.053.58c.037.274-.03.55-.187.777zm-.027-2.13a.32.32 0 00-.01-.155s-.373-.36-.688-.421a.431.431 0 00-.38.096.417.417 0 01.277.122c.169.135.376.297.535.338a.52.52 0 00.266.02zm-1.106-.454c-.141.14-.26.287-.258.414.002.128.157.465.24.592.083.128.201.291.187.494a.512.512 0 01-.162.289s.46-.11.515-.389a.795.795 0 00-.132-.564c-.069-.13-.28-.434-.335-.561a.488.488 0 01-.055-.275zm-2.684 3.157a3.334 3.334 0 01-.402.857c-.127.208-.2.443-.213.685 0 0-.207-.452-.1-.774a1.244 1.244 0 01.715-.768zm-.519.105s-.313 0-.46.1a1.167 1.167 0 00-.439.716c.174-.029.337-.101.475-.21.183-.17.328-.377.424-.606zm1.632.561c.101.014.2.036.299.064-.143.04-.278.104-.4.187a.764.764 0 00-.258.48 3.06 3.06 0 01-.328.811h-.024c.037-.232-.112-.714-.148-.784a1.29 1.29 0 00.31-.27 1.66 1.66 0 01.549-.488zm-1.394.726c-.078.177-.285.492-.19.82.095.33.314.47.448.749.06-.291.087-.588.082-.885-.022-.393-.164-.543-.34-.684zm-1.284.92c.014-.192.465-.656.443-.907-.023-.251-.362-.428-.448-.465-.083.037-.421.214-.448.465-.027.251.428.715.441.906h.012zm.686-.907s-.314.6-.37.835a.578.578 0 00.102.528c.168.183.318.38.448.59.093-.116.166-.245.217-.384a1.764 1.764 0 00-.056-.58c-.042-.131-.208-.555-.341-.989zm-.688 2.319c.132-.113.238-.253.31-.41a.4.4 0 00-.045-.384c-.112-.144-.256-.305-.265-.435h-.007c-.011.13-.152.29-.266.435a.405.405 0 00-.044.384c.073.157.18.297.311.41h.006zm.521-.404c.069.073.434.506.483.634.05.127.133.366.019.53a1.896 1.896 0 01-.6.546s.246-.381.224-.694c-.016-.2-.173-.378-.203-.5a.86.86 0 01.077-.516zm.72-.241a.966.966 0 00-.168.443c-.01.202.028.402.112.587.117.297.253.586.408.866a3.12 3.12 0 00.266-.458 4.198 4.198 0 01-.382-.621 3.94 3.94 0 01-.236-.817zm.119-.14s.112.853.624 1.487c.344.43.623.579.808.579a.76.76 0 00.653-.494c.095-.263.065-.67-.112-.815 0 0-.168.512-.525.53-.405.022-.926-.424-1.448-1.287z" fill="#0155A5"/><path fill-rule="evenodd" clip-rule="evenodd" d="M57.577 13.51c-.05.2-.05.408 0 .608a.842.842 0 00.343.51.51.51 0 00.73-.247s-.739.056-1.073-.87zm-1.782 2.535a.63.63 0 00.313-.268.834.834 0 00.134-.593c-.063-.233-.19-.326-.266-.47a.989.989 0 01-.178.146.998.998 0 01-.18-.147c-.075.145-.203.238-.265.47a.852.852 0 00.133.594.63.63 0 00.313.268h-.004zm-.002 1.438c.051-.221.53-.664.485-.9-.066-.356-.298-.28-.482-.431-.184.15-.419.075-.485.43-.043.238.431.675.483.901h-.001zm.571-.531c-.102.257-.465.581-.462.781.006.532.24.857.297 1.032 0 0 .43-.338.506-.726.038-.197-.006-.794-.341-1.087zm.484.375c-.051-.138-.21-.513-.392-.644 0 0-.234-.682.519-1.1.178.237.311.504.393.788.081.38-.33.617-.52.956zm.942-1.719c.12.143.29.343.423.405.024.168.03.338.019.507-.038.3-.233.607-.316.832 0 0-.33-.426-.367-.676-.038-.25-.032-.456-.045-.574 0 .001.184-.294.285-.494zm.866 1.458c.093-.14.397-.655.4-1.03 0 0-.372.194-.683.052 0 0-.041.487.02.651.048.136.14.25.263.327zm-.086.104a2.909 2.909 0 01-.27-.258 6.22 6.22 0 00-.288.578.331.331 0 00.257-.067 1.92 1.92 0 00.3-.253zm-1.142-.261c.03.11.43.664.497.727a1.736 1.736 0 01-.178.482c-.12.22-.276.418-.463.585 0 0-.245-.424-.318-.61a.767.767 0 01-.038-.503c.083-.183.372-.449.5-.681zm-1.634 3.235c.038-.15.267-.332.364-.587a.6.6 0 00-.008-.457c-.072-.143-.33-.495-.36-.596-.031.101-.285.453-.358.596a.6.6 0 00-.008.457c.096.26.326.437.364.587h.006zm1.036-1.804c-.088.176-.353.465-.394.693a.805.805 0 00.044.449c.05.124.21.364.316.547 0 0 .363-.338.442-.581a.837.837 0 00-.048-.602c-.088-.162-.276-.338-.36-.506zm1.03-.049c-.096.203-.321.405-.373.584a.747.747 0 00.023.588c.09.216.2.34.238.471 0 0 .296-.377.345-.534.055-.19.055-.391 0-.581-.057-.165-.162-.379-.234-.528zm-2.068 4.753c.019-.185.405-.757.424-1.363.01-.304-.265-.775-.42-.96h-.009c-.155.18-.429.656-.42.96.02.606.405 1.178.424 1.363zm.613-3.314s.508.606.497.928c-.016.4-.284.664-.323.914a3.212 3.212 0 01-.368-.498c-.112-.221-.2-.416-.17-.67.03-.255.099-.42.364-.674zm.935-.061c-.08.116-.307.513-.243.75.064.235.315.568.399.71.096-.192.178-.39.246-.595.045-.187.003-.49-.402-.865z" fill="#0155A5"/><path fill-rule="evenodd" clip-rule="evenodd" d="M56.141 24.018c.03-.471.301-.755.348-.996a1.017 1.017 0 00-.176-.839c-.13.447-.3.88-.509 1.296 0 .008-.008.015-.011.024l-.01-.024a7.43 7.43 0 01-.51-1.296 1.028 1.028 0 00-.177.839c.049.246.319.529.349.996.03.467-.508.653-.508.653.182.063.388.092.716-.215a.677.677 0 00.14-.181.7.7 0 00.14.181c.328.307.534.278.715.215 0 0-.537-.182-.507-.653zm-1.694-3.138c.056.176.223.502.245.601.04.187-.014.414-.36.655a1 1 0 01-.31-.358.365.365 0 01.05-.422 4.15 4.15 0 00.375-.476zm.728.698c0 .095-.071.63-.223.894-.215.373-.533.65-.81.65-.258 0-.311-.152-.439-.214 0 0 .065-.323.354-.409.354-.104.898-.524 1.118-.921z" fill="#0155A5"/><path fill-rule="evenodd" clip-rule="evenodd" d="M54.247 22.258a.91.91 0 01-.182-.158c-.175.067-.342.15-.5.251-.21.157-.399.337-.565.538 0 0 .336.086.552-.01a.825.825 0 01.318-.461c.056-.031.224-.079.377-.16zm-.279-.273a.658.658 0 01-.135-.46s-.474.296-.617.41c-.184.157-.353.33-.505.516 0 0 .36-.076.635-.168.218-.075.427-.175.622-.298zm-.806.508c-.255.09-.831.182-1.072.252-.24.07-.414.194-.645.443 0 0 .354.097.542.157.198-.132.409-.243.63-.332.212-.078.318-.3.545-.52zm-.537 1.675a.221.221 0 00.072-.27c-.038-.103-.247-.216-.373-.277a9.795 9.795 0 00-.964-.302 1.054 1.054 0 00-.142.222c-.022.044.007.09.088.103.16.027.542-.044.635.016.093.06.066.152.066.238a.534.534 0 01.284-.08c.16.031.247.102.334.35zm-.508-.785c.169.054.33.129.482.221.06-.026.11-.07.143-.125.046-.084.242-.37.421-.407a1.648 1.648 0 01-.24-.042 3.263 3.263 0 00-.318.1c-.17.069-.333.153-.488.253zm1.477-.36a.543.543 0 01-.224.047s-.504.346-.56.689c-.05.294.112.436.182.472.07.037.427.18.656-.284 0 0-.39.126-.495-.059-.105-.185.065-.455.171-.532a.83.83 0 01.541-.145 1.305 1.305 0 00-.27-.188z" fill="#0155A5"/><path fill-rule="evenodd" clip-rule="evenodd" d="M50.298 26.967c.056-.262.138-.518.247-.764.224-.475.783-1.74 1.946-1.965.112-.021-.125-.288-.23-.275a1.46 1.46 0 00-.403.205v-.317c0-.048-.046-.067-.092-.065-.046.002-.326 0-.414.099-.265.303-.712 1.119-.965 1.725-.253.606-.428.792-.694.7-.267-.094-.427-.397-.896-.304a.903.903 0 00-.48.298c.038.073.087.164.305.164.305.01.603.096.866.25.231.16.476.213.81.249zm4.642-3.926c.04.202.115.395.224.57 0 0-.352 1.615-1.632 1.739a.854.854 0 01.404-.589c.38-.255.946-.65.905-1.25 0 0-.101.02-.282.245-.182.225-.583.875-1.2.886a.962.962 0 01.364-.48c.275-.175.623-.4.784-.67.094-.191.245-.349.433-.45zm-.604 5.878l.778 1.076.59-1.038-.21-.37c-.153.274-.318.569-.412.729l-.526-.728-.22.33z" fill="#0155A5"/><path fill-rule="evenodd" clip-rule="evenodd" d="M54.132 28.007l-1.791-2.482.294-.209-.928-.35.017.996.315-.221 1.874 2.597.22-.33zm-6.396-5.898c.23-.247.618-.034 1.008.323.39.358.64.72.41.967-.21.228-.617.035-1.007-.322-.39-.356-.64-.721-.41-.968z" fill="#0155A5"/><path fill-rule="evenodd" clip-rule="evenodd" d="M48.365 26.494l-.036-.03a1.004 1.004 0 01-.327-.762c0-.28.113-.55.313-.747a1.076 1.076 0 011.513 0c.2.198.313.467.313.747 0 .078-.015.207-.015.207.048-.09.224-.494.26-.567a1.347 1.347 0 00-.44-.674 1.373 1.373 0 00-2.1.444c.083-.533.352-1.012.542-1.19.18-.143.39-.239.616-.28-.254.04-.589-.111-.964-.455-.355-.324-.538-.605-.55-.84.035.265.007.536-.083.789-.13.37-.483 1.049-.357 1.816.07.421.379 1.049.896 1.561a.73.73 0 01.165.374s.762 0 .944.016c0 0 .18-.016.176-.128-.003-.111-.102-.14-.193-.14-.09 0-.47.009-.673-.14zm4.22.256a7.54 7.54 0 01-1.443.339 4.342 4.342 0 01-.88.047.266.266 0 01-.024.154c.033.04.052.088.056.138.3.012.6-.006.896-.053a7.731 7.731 0 001.578-.378l-.183-.247zm.801-.037c.65-.352 1.285-.893 1.857-1.758l.103-.17a.668.668 0 01-.358.022c-.008.014-.035.053-.047.074a4.805 4.805 0 01-1.73 1.591l.175.241zm-4.292.277a2.6 2.6 0 00-.547.019c-.187.029-.4.066-.422.168-.021.102.046.202.141.348.058.09.197.04.274.01.208-.093.405-.206.59-.338.075-.077.103-.186-.036-.208zm.454.29a.337.337 0 00-.28-.029c-.12.045-.554.297-.582.415a.155.155 0 00.042.173.158.158 0 00.055.032.92.92 0 00.209.058.34.34 0 00.269-.122c.056-.068.258-.31.287-.364.03-.054.046-.137 0-.163zm.052.262c-.062.07-.238.28-.259.315a.06.06 0 00.034.08.06.06 0 00.032.003c.184-.014.362-.066.524-.152.172-.116.286-.339.168-.42-.117-.082-.3-.045-.5.174zm.097-.642c-.057-.014-.28-.07-.335 0-.06.093-.017.192.157.275.175.083.506.15.57.06.065-.09-.02-.24-.392-.334zm7.439-6.02c-.056.176-.224.502-.246.601-.04.187.015.414.36.655.131-.093.238-.216.312-.358a.364.364 0 00-.052-.422 4.15 4.15 0 01-.374-.476zm-.726.698c0 .095.072.63.224.894.215.373.532.65.81.65.257 0 .31-.152.438-.214 0 0-.064-.323-.353-.409-.354-.104-.898-.524-1.119-.921z" fill="#0155A5"/><path fill-rule="evenodd" clip-rule="evenodd" d="M57.336 22.258a.91.91 0 00.184-.158c.174.067.34.15.498.251.207.157.395.337.56.538 0 0-.336.086-.551-.01a.83.83 0 00-.32-.461c-.046-.031-.215-.079-.371-.16zm.281-.273a.659.659 0 00.137-.46s.474.296.617.41c.183.157.352.33.505.516 0 0-.36-.076-.635-.168a3.027 3.027 0 01-.624-.298zm.805.508c.255.09.83.182 1.07.252.241.07.416.194.645.443 0 0-.352.097-.54.157a3.497 3.497 0 00-.63-.332c-.214-.078-.318-.3-.545-.52zm.534 1.675a.228.228 0 01-.07-.27c.038-.103.246-.216.372-.277.316-.116.637-.217.964-.302.057.068.104.142.142.222.022.044-.007.09-.087.103-.16.027-.544-.044-.636.016-.093.06-.065.152-.065.238a.534.534 0 00-.286-.08c-.153.031-.246.102-.334.35zm.512-.785c-.17.054-.332.129-.483.221a.312.312 0 01-.143-.125c-.046-.084-.242-.37-.42-.407.08-.008.16-.022.238-.042.108.027.215.06.32.1.17.069.333.153.488.253zm-1.478-.36a.532.532 0 00.225.047s.504.346.56.689c.05.294-.112.436-.183.472-.07.037-.426.18-.655-.284 0 0 .389.126.495-.059.106-.185-.065-.455-.171-.532a.831.831 0 00-.542-.145 1.28 1.28 0 01.272-.188z" fill="#0155A5"/><path fill-rule="evenodd" clip-rule="evenodd" d="M61.284 26.967a3.885 3.885 0 00-.246-.764c-.224-.475-.784-1.74-1.946-1.965-.112-.021.125-.288.23-.275.144.047.28.116.404.205v-.317c0-.048.046-.067.09-.065.045.002.327 0 .416.099.264.303.71 1.119.965 1.725.254.606.426.792.693.7.266-.094.428-.397.896-.304.188.046.356.15.48.298-.04.073-.088.164-.307.164-.305.01-.603.096-.865.25-.234.16-.474.213-.81.249zm-4.638-3.926a1.63 1.63 0 01-.224.57s.354 1.615 1.632 1.739a.85.85 0 00-.403-.589c-.38-.255-.946-.65-.906-1.25 0 0 .101.02.284.245.182.225.58.875 1.198.886a.962.962 0 00-.364-.48c-.273-.175-.623-.4-.784-.67a1.033 1.033 0 00-.433-.45zm-.851 1.565c.074.215.56.886.77 1.083.21.197.73.702 1.008.957 0 0-.784-.193-1.226-.589 0 0-.316.182-.544.182h-.013c-.23 0-.543-.182-.543-.182-.448.396-1.231.589-1.231.589.275-.255.791-.765 1.007-.957.216-.193.697-.868.772-1.083z" fill="#0155A5"/><path fill-rule="evenodd" clip-rule="evenodd" d="M55.796 26.395a1.13 1.13 0 00.43-.11c-.09.192-.268.492-.433.617-.167-.125-.342-.425-.434-.618.134.065.28.103.43.11h.007z" fill="#0155A5"/><path fill-rule="evenodd" clip-rule="evenodd" d="M56.47 29.996l3.072-4.255.314.221.018-.996-.93.35.295.21-2.738 3.79-1.39-2.49-.172.258-1.24 1.85-.308-.205v.984l.939-.369-.315-.206c.17-.255.842-1.258 1.068-1.593l1.387 2.45z" fill="#0155A5"/><path fill-rule="evenodd" clip-rule="evenodd" d="M57.029 28.325l-.522-.78c-.078.142-.236.422-.412.732l-.224-.387.598-1.065.172.26.616.918-.228.322zm.631.277l.224.331.309-.204.005.984-.94-.369.313-.206c-.031-.048-.08-.124-.142-.214l.23-.322zm6.19-6.493c-.23-.247-.618-.034-1.008.323-.39.358-.64.72-.41.967.211.228.617.035 1.007-.322.39-.356.64-.721.411-.968z" fill="#0155A5"/><path fill-rule="evenodd" clip-rule="evenodd" d="M63.215 26.494c.014-.01.025-.02.036-.03a1.005 1.005 0 00.328-.762 1.045 1.045 0 00-.3-.77 1.072 1.072 0 00-.77-.322 1.082 1.082 0 00-.769.322 1.056 1.056 0 00-.3.77c0 .078.015.207.015.207-.048-.09-.224-.494-.26-.567.074-.264.228-.499.44-.674a1.372 1.372 0 012.1.444c-.084-.533-.353-1.012-.543-1.19a1.393 1.393 0 00-.616-.28c.255.04.59-.111.964-.455.356-.324.54-.605.55-.84-.034.265-.006.536.084.789.13.37.482 1.049.356 1.816-.07.421-.379 1.049-.896 1.561a.703.703 0 00-.165.374s-.762 0-.944.016c0 0-.18-.016-.178-.128.004-.111.105-.14.194-.14.09 0 .47.009.674-.14zm-5.022.218c-.65-.352-1.283-.893-1.857-1.757l-.102-.17a.67.67 0 00.358.022l.047.074a4.812 4.812 0 001.728 1.591l-.174.24zm.807.038c.469.16.953.273 1.445.339.291.045.587.061.881.047a.264.264 0 00.024.154.242.242 0 00-.057.138c-.3.012-.6-.006-.896-.053a7.722 7.722 0 01-1.577-.378l.18-.247zm3.486.24a2.6 2.6 0 01.546.019c.187.029.401.066.424.168.022.102-.046.202-.142.348-.059.09-.198.04-.276.01a3.497 3.497 0 01-.588-.338c-.07-.077-.1-.186.036-.208zm-.45.29a.338.338 0 01.282-.029c.112.044.552.297.581.415a.16.16 0 01-.005.123.158.158 0 01-.092.082.927.927 0 01-.209.057.339.339 0 01-.27-.121c-.054-.068-.258-.31-.287-.364-.03-.055-.045-.138 0-.163zm-.052.262c.063.07.239.28.259.315a.06.06 0 01-.008.06.06.06 0 01-.057.023 1.323 1.323 0 01-.524-.152c-.171-.116-.287-.339-.168-.42.119-.082.3-.045.498.174zm-.099-.642c.057-.014.282-.07.336 0 .061.093.018.192-.157.275-.175.083-.505.15-.571.06-.066-.09.021-.24.392-.334z" fill="#0155A5"/></svg>