<svg width="78" height="32" fill="none" xmlns="http://www.w3.org/2000/svg"><path d="M15.204 4.99c-.88 1.002-2.286 1.793-3.692 1.68-.176-1.355.513-2.795 1.319-3.684.879-1.03 2.417-1.765 3.662-1.821.147 1.412-.425 2.795-1.29 3.825zm1.274 1.948c-2.036-.113-3.78 1.115-4.746 1.115-.982 0-2.461-1.058-4.073-1.03a6.052 6.052 0 00-5.113 2.992C.35 13.657 1.975 19.05 4.1 22.013c1.04 1.468 2.286 3.077 3.926 3.02 1.553-.056 2.169-.973 4.044-.973 1.89 0 2.432.974 4.072.946 1.7-.029 2.77-1.468 3.81-2.936 1.186-1.666 1.67-3.29 1.699-3.374-.03-.028-3.282-1.228-3.311-4.842-.03-3.02 2.564-4.46 2.681-4.545-1.465-2.089-3.75-2.314-4.541-2.37zm11.764-4.093V24.85h3.546v-7.523h4.908c4.483 0 7.632-2.964 7.632-7.255s-3.09-7.227-7.515-7.227h-8.57zm3.546 2.88h4.087c3.077 0 4.835 1.58 4.835 4.36 0 2.781-1.758 4.376-4.85 4.376h-4.072V5.724zM50.804 25.02c2.227 0 4.292-1.087 5.23-2.81h.073v2.64h3.282V13.897c0-3.176-2.637-5.223-6.695-5.223-3.766 0-6.549 2.075-6.652 4.927h3.194c.264-1.356 1.568-2.245 3.355-2.245 2.168 0 3.384.974 3.384 2.767v1.214l-4.424.254c-4.117.24-6.344 1.863-6.344 4.686 0 2.851 2.3 4.743 5.597 4.743zm.952-2.612c-1.89 0-3.091-.875-3.091-2.216 0-1.383 1.157-2.188 3.37-2.315l3.94-.24v1.242c0 2.061-1.816 3.53-4.219 3.53zm12.013 8.427c3.458 0 5.084-1.27 6.505-5.124L76.5 8.886h-3.604l-4.175 13h-.073l-4.176-13h-3.706l6.006 16.02-.322.975c-.542 1.651-1.421 2.286-2.989 2.286-.278 0-.82-.028-1.04-.056v2.64c.205.056 1.084.084 1.348.084z" fill="#0F1015"/></svg>