<svg width="84" height="24" fill="none" xmlns="http://www.w3.org/2000/svg"><g clip-path="url(#clip0_44_15884)"><path d="M1.768 1.153h25.997a.039.039 0 01.029.015.037.037 0 01.007.014l-.001.016-.599 2.125a.035.035 0 01-.013.019.038.038 0 01-.023.007H3.705a.039.039 0 01-.028-.013L1.74 1.212a.035.035 0 01-.005-.038.036.036 0 01.014-.015.039.039 0 01.02-.006z" fill="#FFA100"/><path d="M53.25 10.086c0 .077.019.081.056.014l.758-1.369a.095.095 0 01.088-.05h8.514a.081.081 0 00.047-.015.078.078 0 00.029-.038l.324-.993c.011-.034-.002-.052-.04-.052h-8.217c-.043 0-.056-.019-.037-.056l1.322-2.584a.09.09 0 01.086-.052h7.662c.034 0 .055-.015.066-.046l.314-.984c.015-.045-.003-.068-.054-.068h-7.434a.035.035 0 01-.016-.004.033.033 0 01-.017-.027c0-.005.001-.01.004-.016l1.454-2.59a.058.058 0 01.05-.029h7.736c.045 0 .061.021.05.062l-6.18 21.734a.072.072 0 01-.027.04.082.082 0 01-.048.014h-5.613a.022.022 0 01-.017-.008.022.022 0 01-.004-.009v-.01l.76-2.58a.045.045 0 01.016-.023.048.048 0 01.028-.01h4.283c.04 0 .066-.018.078-.055l.327-.983c.013-.04-.002-.06-.045-.06h-4.284a.03.03 0 01-.023-.01.027.027 0 01-.006-.011v-.013l.731-2.579c.01-.035.034-.052.071-.052h4.273c.04 0 .066-.018.077-.055l.387-1.323c.011-.04-.005-.06-.047-.06h-4.285a.049.049 0 01-.038-.018.045.045 0 01-.009-.039l.621-2.273c.009-.032.03-.048.066-.048h4.372c.037 0 .061-.017.071-.051l.298-1.023c.01-.033-.004-.05-.04-.05h-4.63a.092.092 0 00-.086.05l-6.014 11.22a.097.097 0 01-.083.048h-2.16c-.036 0-.054-.018-.054-.053v-2.51c0-.017.009-.025.027-.025H50.9a.037.037 0 00.035-.02l.549-1a.016.016 0 00-.006-.023.018.018 0 00-.01-.002h-2.707a.03.03 0 01-.02-.009.025.025 0 01-.008-.018v-2.875c0-.007.003-.013.008-.018a.028.028 0 01.02-.008h4.049c.04 0 .07-.017.087-.051l.614-1.14c.022-.042.008-.063-.042-.063h-4.681c-.036 0-.055-.018-.055-.053V12.68c0-.035.019-.053.055-.053h5.994c.04 0 .07-.017.089-.05l.59-1.078c.027-.05.011-.074-.047-.074h-6.7a.064.064 0 00-.037.012.057.057 0 00-.021.031l-3.237 11.438c-.008.03-.029.045-.062.045h-5.983c-.035 0-.049-.016-.039-.05l.713-2.488c.01-.033.032-.05.068-.05h4.543c.04 0 .067-.018.079-.056l.297-.982c.013-.04-.002-.059-.045-.059h-4.52c-.037 0-.05-.017-.04-.051l.81-2.793a.042.042 0 01.016-.022.045.045 0 01.027-.009h4.549a.08.08 0 00.046-.015.074.074 0 00.028-.038l.36-1.148a.021.021 0 00-.004-.02.023.023 0 00-.019-.008h-4.578c-.042 0-.057-.019-.046-.057l.74-2.553c.01-.037.036-.055.076-.055h4.519a.037.037 0 00.021-.007.034.034 0 00.013-.017l.289-.864a.02.02 0 00-.003-.019.022.022 0 00-.017-.009h-4.624a.04.04 0 01-.031-.013.035.035 0 01-.006-.033l.88-2.962a.03.03 0 01.012-.016.034.034 0 01.02-.007h8.483a.028.028 0 00.02-.007.025.025 0 00.007-.019v-.862c0-.018-.009-.027-.027-.027h-8.22c-.043 0-.058-.02-.046-.06l.751-2.555c.01-.034.033-.05.069-.05h7.391c.037 0 .055-.018.055-.053V3.793c0-.034-.018-.052-.055-.052H44.9c-.038 0-.053-.018-.043-.053l.661-2.53c.006-.02.02-.03.043-.03h7.663a.03.03 0 01.02.007.026.026 0 01.007.019v8.932zm23.972 9.206h-13.03a.06.06 0 01-.025-.005.054.054 0 01-.02-.015.048.048 0 01-.01-.044l.701-2.533c.008-.028.027-.043.058-.043h5.852a.05.05 0 01.039.019.045.045 0 01.008.04l-.232.855c-.01.036.004.053.043.053h1.98c.042 0 .069-.019.08-.058l.238-.81c.01-.031.031-.046.065-.046h4.724c.037 0 .061-.017.073-.051l.369-1.132a.035.035 0 00-.006-.032.038.038 0 00-.032-.015l-4.787.001c-.043 0-.058-.019-.046-.057l.232-.727c.011-.035-.002-.052-.04-.052h-4.66a.125.125 0 01-.096-.04l-1.734-1.868a.03.03 0 01-.005-.034.032.032 0 01.012-.013.034.034 0 01.018-.005l11.966-.003c.085 0 .098-.03.04-.09l-.983-1a.102.102 0 00-.075-.031h-11.52c-.038 0-.052-.017-.042-.051l.71-2.563c.009-.035.032-.052.07-.052h4.568c.035 0 .057-.016.065-.048l.308-1.142a.03.03 0 00-.005-.026.032.032 0 00-.026-.012H67.52a.041.041 0 01-.017-.005.039.039 0 01-.021-.026.035.035 0 010-.018l.742-2.52c.01-.03.03-.045.063-.045h12.479c.04 0 .067-.019.078-.056l.37-1.192c.012-.04-.003-.059-.045-.059H68.938c-.093 0-.102-.026-.027-.08l3.542-2.501a.175.175 0 01.103-.033h7.383c.021 0 .04.007.056.021l2.854 2.584a.118.118 0 01.038.126l-1.002 3.653a.06.06 0 01-.062.046H75.81a.042.042 0 01-.033-.015.04.04 0 01-.007-.035l.285-1.093c.01-.04-.006-.06-.049-.06h-2.12c-.041 0-.068.02-.079.058l-.838 2.92c-.011.036.003.055.042.055h4.41c.03 0 .055.01.076.03l2.916 2.92a.086.086 0 01.022.083l-2.214 7.737a.147.147 0 01-.058.08l-3.699 2.636a.138.138 0 01-.083.026h-7.194a.284.284 0 01-.195-.076l-2.515-2.363c-.05-.047-.04-.07.03-.07h11.057c.04 0 .076-.01.11-.032l1.563-1.018c.049-.032.044-.048-.015-.048zm-42.567-9.88h5.229c.005 0 .01.002.015.004a.034.034 0 01.019.023v.015l-1.456 5.16a.033.033 0 01-.012.019.037.037 0 01-.022.007h-5.41a.036.036 0 00-.021.007.034.034 0 00-.013.018l-.785 2.912a.032.032 0 00.006.03.036.036 0 00.028.013h5.326a.034.034 0 01.035.027l-.001.015-1.555 5.265a.034.034 0 01-.013.018.036.036 0 01-.02.006H24.12a.036.036 0 01-.028-.013.033.033 0 01-.006-.014.031.031 0 010-.016l.799-2.599a.034.034 0 01.012-.017.037.037 0 01.021-.007h10.4a.034.034 0 00.034-.024l.296-.979a.032.032 0 00-.005-.029.034.034 0 00-.029-.013H25.21a.035.035 0 01-.028-.013.032.032 0 01-.006-.03l.749-2.729a.034.034 0 01.012-.018.037.037 0 01.022-.007h5.124a.034.034 0 00.034-.026l.264-1.083a.032.032 0 00-.007-.028.035.035 0 00-.027-.013h-5.053a.035.035 0 01-.035-.027.032.032 0 010-.016l.807-2.73a.035.035 0 01.034-.024h10.53a.035.035 0 00.034-.024l.298-.952a.033.033 0 00-.006-.03.035.035 0 00-.028-.013H27.371a.036.036 0 01-.027-.014.032.032 0 01-.006-.029l.75-2.52a.034.034 0 01.012-.018.036.036 0 01.021-.006h5.33a.036.036 0 00.02-.007.033.033 0 00.014-.017l.353-1.188a.033.033 0 00-.017-.04.037.037 0 00-.016-.003h-5.27a.036.036 0 01-.027-.013.032.032 0 01-.006-.029l.707-2.546a.033.033 0 01.012-.018.036.036 0 01.022-.008h10.706a.036.036 0 00.022-.006.034.034 0 00.012-.019l.343-1.213a.032.032 0 00-.006-.03.035.035 0 00-.028-.012H29.583a.036.036 0 01-.028-.013.032.032 0 01-.006-.029l.706-2.52a.033.033 0 01.013-.019.036.036 0 01.021-.007h12.019c.005 0 .01.001.015.004a.034.034 0 01.02.023l-.001.015-1.41 5.343a.033.033 0 01-.013.019.036.036 0 01-.021.007H35.44a.036.036 0 00-.021.007.034.034 0 00-.013.018l-.785 2.782a.034.034 0 000 .015c0 .005.003.01.006.013a.034.034 0 00.013.01c.004.002.01.003.015.003z" fill="#0186D4"/><path d="M5.264 4.996H26.68c.006 0 .01.001.015.003a.033.033 0 01.018.023.03.03 0 010 .014l-.603 2.131a.032.032 0 01-.012.017.035.035 0 01-.02.007H7.207a.035.035 0 01-.025-.011L5.238 5.049a.032.032 0 01-.005-.034A.033.033 0 015.246 5a.035.035 0 01.018-.005zM8.818 8.89H25.58l.015.003a.033.033 0 01.018.023.03.03 0 010 .014l-.61 2.157a.033.033 0 01-.013.018.035.035 0 01-.02.006H10.786a.034.034 0 01-.025-.011L8.793 8.943a.031.031 0 01-.005-.034.033.033 0 01.012-.014.035.035 0 01.018-.005zm74.68 2.182v.041c-.096.062-.12.018-.071-.13.011-.038.024-.038.038 0l.033.09zm-71.042 1.79H24.45a.04.04 0 01.03.014.036.036 0 01.008.032l-.607 2.149a.037.037 0 01-.014.02.04.04 0 01-.023.007h-9.426a.04.04 0 01-.028-.013l-1.963-2.148a.036.036 0 01-.006-.04.037.037 0 01.014-.015.04.04 0 01.02-.006zm3.53 3.868h7.376a.036.036 0 01.035.029c.002.005.001.01 0 .015l-.6 2.127a.036.036 0 01-.035.025h-4.835a.037.037 0 01-.027-.012l-1.942-2.126a.034.034 0 01-.008-.018.034.034 0 01.003-.02.035.035 0 01.013-.014.038.038 0 01.02-.006zm3.548 3.895h2.73c.006 0 .01.001.015.003a.035.035 0 01.012.01.033.033 0 01.006.012v.015l-.648 2.284a.032.032 0 01-.024.023.034.034 0 01-.033-.01l-2.084-2.285a.03.03 0 01-.005-.034.032.032 0 01.012-.013.034.034 0 01.019-.005z" fill="#FFA100"/></g><defs><clipPath id="clip0_44_15884"><path fill="#fff" transform="translate(.5 .5)" d="M0 0h83v23H0z"/></clipPath></defs></svg>