<svg width="72" height="18" fill="none" xmlns="http://www.w3.org/2000/svg"><g clip-path="url(#clip0_44_16053)"><path d="M37.561 4.953h-2.325l-1.645 3.053h-.847L32.717 1.4h-2.201v11.93h2.2l.028-3.274h.841l2.185 3.274h2.439L35.36 8.99l2.201-4.037zm16.656 3.93a5.71 5.71 0 00-1.441-.712l-.486-.194-.129-.05c-.302-.12-.62-.246-.631-.57a.595.595 0 01.059-.277.56.56 0 01.178-.213c.16-.116.346-.183.54-.194a1.69 1.69 0 011.176.37l.059.04 1.176-1.43-.06-.05a2.97 2.97 0 00-.474-.365 3.063 3.063 0 00-.976-.381 3.418 3.418 0 00-1.5 0 2.716 2.716 0 00-1.316.57 2.476 2.476 0 00-.606.742 2.614 2.614 0 00-.29.931 2.512 2.512 0 00.4 1.675c.43.503.994.86 1.617 1.025l.098.034.22.08c.8.284 1.026.398 1.155.569.06.086.095.19.097.296 0 .404-.469.57-.787.672a1.57 1.57 0 01-.672-.013 1.615 1.615 0 01-.612-.295 2.746 2.746 0 01-.745-.791c-.124.137-1.343 1.406-1.321 1.43l.038.056a4.07 4.07 0 002.33 1.526c.21.043.423.072.637.086h.22a3.229 3.229 0 002.03-.666 2.59 2.59 0 00.879-1.196 2.463 2.463 0 00-.195-1.97 2.347 2.347 0 00-.668-.735zm7.113 0a5.672 5.672 0 00-1.435-.712l-.49-.194-.125-.05c-.307-.12-.62-.246-.636-.57a.64.64 0 01.066-.276.608.608 0 01.176-.214 1.01 1.01 0 01.54-.194c.421-.03.839.102 1.176.37l.054.04 1.176-1.429-.054-.051a3.044 3.044 0 00-1.451-.746 3.437 3.437 0 00-1.505 0 2.76 2.76 0 00-1.317.57 2.473 2.473 0 00-.61.738 2.606 2.606 0 00-.296.93c-.07.591.072 1.189.4 1.674.43.504.993.86 1.617 1.025l.092.034.221.08c.804.285 1.03.399 1.16.57a.47.47 0 01.092.296c0 .404-.464.569-.782.671-.224.045-.453.04-.675-.013a1.625 1.625 0 01-.614-.294 2.899 2.899 0 01-.745-.792c-.119.137-1.338 1.407-1.322 1.43l.043.057a4.071 4.071 0 002.331 1.526c.21.043.423.072.637.085h.22a3.23 3.23 0 002.03-.666 2.59 2.59 0 00.879-1.196 2.465 2.465 0 00-.195-1.97 2.364 2.364 0 00-.658-.73zM44.79 4.954v.82h-.097a3.154 3.154 0 00-2.271-1.003 3.552 3.552 0 00-1.523.31 3.73 3.73 0 00-1.272.937 4.637 4.637 0 00-1.079 3.098 4.787 4.787 0 001.08 3.16c.348.404.774.724 1.25.938.475.214.99.318 1.506.304a3.538 3.538 0 002.32-.94h.086v.735h2.288v-8.36H44.79zm.114 4.208a2.836 2.836 0 01-.6 1.85 2.013 2.013 0 01-.707.537c-.27.122-.563.18-.857.17a1.81 1.81 0 01-.826-.184 1.907 1.907 0 01-.668-.545 2.893 2.893 0 01-.583-1.874c-.018-.658.193-1.3.593-1.805.185-.229.415-.412.674-.536.26-.124.542-.186.826-.181.292-.01.583.049.85.172.268.123.507.307.698.54.41.52.622 1.18.6 1.856zm24.765-4.209v.82h-.097a3.154 3.154 0 00-2.266-1.002 3.574 3.574 0 00-1.525.31 3.75 3.75 0 00-1.275.937 4.637 4.637 0 00-1.079 3.098 4.787 4.787 0 001.08 3.16c.347.404.774.724 1.25.938.475.214.989.318 1.506.304a3.54 3.54 0 002.32-.94h.086v.735h2.288v-8.36h-2.288zm.113 4.209a2.807 2.807 0 01-.599 1.85 2.012 2.012 0 01-.707.537c-.27.122-.563.18-.857.17a1.81 1.81 0 01-.826-.184 1.911 1.911 0 01-.669-.545 2.894 2.894 0 01-.582-1.874c-.018-.658.193-1.3.593-1.805.185-.229.415-.412.674-.536.26-.124.542-.186.826-.182.292-.01.582.05.85.173.268.123.506.307.698.54.411.518.625 1.18.6 1.856z" fill="#0F1015"/><path d="M15.487 0c-4.749 0-8.526 4.044-8.526 9 0 5.013 3.831 9 8.526 9s8.527-4.044 8.527-9-3.832-9-8.527-9zm0 12.304c-1.727 0-3.184-1.538-3.184-3.361 0-1.823 1.457-3.36 3.184-3.36s3.184 1.537 3.184 3.36c-.054 1.88-1.457 3.36-3.184 3.36z" fill="url(#paint0_linear_44_16053)"/><path d="M6.907 2.563v13.102H3.885L0 2.563h6.907z" fill="url(#paint1_linear_44_16053)"/></g><defs><linearGradient id="paint0_linear_44_16053" x1="15.487" y1="0" x2="15.487" y2="18" gradientUnits="userSpaceOnUse"><stop stop-color="#0160D1"/><stop offset="1" stop-color="#00479C"/></linearGradient><linearGradient id="paint1_linear_44_16053" x1="3.454" y1="2.563" x2="3.454" y2="15.665" gradientUnits="userSpaceOnUse"><stop stop-color="#0160D1"/><stop offset="1" stop-color="#00479C"/></linearGradient><clipPath id="clip0_44_16053"><path fill="#fff" d="M0 0h72v18H0z"/></clipPath></defs></svg>