<svg width="70" height="40" fill="none" xmlns="http://www.w3.org/2000/svg"><path d="M19.778 39.028c10.51 0 19.028-8.52 19.028-19.028C38.806 9.491 30.287.972 19.778.972 9.268.972.75 9.492.75 20c0 10.509 8.518 19.028 19.028 19.028z" fill="#EC0020"/><path d="M50.223 39.028c10.51 0 19.028-8.52 19.028-19.028C69.251 9.491 60.733.972 50.223.972 39.713.972 31.195 9.492 31.195 20c0 10.509 8.519 19.028 19.028 19.028z" fill="#FE9A0C"/><path fill-rule="evenodd" clip-rule="evenodd" d="M13.781 25.266H12.08l1.557-8.664h-.029l-3.181 8.664H8.36l-.038-8.664h-.03L7.03 25.266H5.316l1.865-10.641h2.664l.114 8.29h.03l3.018-8.29h2.633l-1.854 10.641h-.005zm12.822-5.936a9.283 9.283 0 00-2.283-.166c-.923.11-1.123.39-1.181.712-.212 1.192 3.988.049 3.478 2.81a3.216 3.216 0 01-3.297 2.666 6.648 6.648 0 01-2.719-.367l.25-1.459c.855.184 1.73.262 2.604.235A1.445 1.445 0 0024.868 23c.231-1.258-3.958-.305-3.451-3.118a2.78 2.78 0 013.076-2.218 8.55 8.55 0 012.346.357l-.231 1.312-.005-.003zm.962-.352l.624-2.812h1.702l-.365 1.409h1.06l-.26 1.402h-1.065l-.749 4.062c-.078.446-.096.61.595.61.12-.001.24-.013.357-.034l-.241 1.513c-.27.012-.577.2-.846.2h-.212a1.286 1.286 0 01-1.279-.462 1.29 1.29 0 01-.152-1.352l.827-4.542.004.006zm4.101 3.242a1.213 1.213 0 00.632 1.516c.183.084.385.121.586.107a4.512 4.512 0 002.97-.858l-.27 1.403a4.45 4.45 0 01-3.027.857c-1.816 0-3.045-1.012-2.47-4.086.173-.9.97-3.796 3.796-3.796 1.278 0 2.913 1.095 2.283 4.513l-.058.344h-4.442zm2.924-1.46c.127-1.217-.48-1.77-1.027-1.77a1.993 1.993 0 00-1.608 1.77h2.643-.008zm2.644-3.051h1.625l-.24 1.147h.034a2.467 2.467 0 012.048-1.48c.115 0 .365.055.471.066l-.625 1.949a1.978 1.978 0 00-2.268 1.758l-.711 4.192h-1.702l1.37-7.632h-.002zm10.276-.812a2.825 2.825 0 00-2.124-.379c-.865.152-2.283.668-2.816 3.529-.27 1.458-.125 3.206 1.277 3.539a3.44 3.44 0 002.836-.545l-.457 1.837c-.202.078-.385.59-2.489.457-2.326-.152-3.662-1.827-3.018-5.32.644-3.529 2.74-5.356 4.997-5.328a2.817 2.817 0 012.106.945l-.305 1.27-.008-.005zm15.34 8.373h-1.668l.172-1.15h-.02a2.467 2.467 0 01-2.085 1.124c-1.923 0-2.366-1.96-1.991-4.018.48-2.587 1.979-3.864 3.403-3.864a1.613 1.613 0 011.654 1.17h.029l.653-3.882h1.701l-1.841 10.616-.007.004zm-2.883-1.64a2.238 2.238 0 001.903-2.15c.22-1.202.145-2.415-1.018-2.415a2.324 2.324 0 00-1.865 2.306c-.164.878-.106 2.259.98 2.259zm-7.382-.167s-.163.802-.201 1.202l-.087.675h-1.509a6.59 6.59 0 010-1.176 3.095 3.095 0 01-2.283 1.08 1.59 1.59 0 01-1.568-2.171 2.72 2.72 0 012.327-2.393l1.576-.268c.279-.044.624.168.711-.256a.835.835 0 00-.21-.76.84.84 0 00-.75-.241 5.97 5.97 0 00-2.605.49l.384-1.459a5.12 5.12 0 012.71-.491c.914.035 2.518.324 2.21 2.131l-.7 3.629-.005.008zm-1.335-2.06c-.373.23-.795.368-1.232.402a1.37 1.37 0 00-1.355 1.134.657.657 0 00.063.624.654.654 0 00.561.279 1.868 1.868 0 001.79-1.482l.173-.957zm2.912-3.696h1.624l-.236 1.288h.029a2.47 2.47 0 012.047-1.481c.116 0 .366.056.472.067l-.626 1.947a1.862 1.862 0 00-.365-.023 1.765 1.765 0 00-1.903 1.64l-.71 4.191h-1.702l1.37-7.632v.003zm-33.946 5.756s-.163.802-.203 1.202l-.085.676h-1.52a6.901 6.901 0 010-1.177 3.133 3.133 0 01-2.284 1.175 1.679 1.679 0 01-1.377-.722 1.667 1.667 0 01-.189-1.544 2.725 2.725 0 012.326-2.393l1.577-.268a.762.762 0 00.71-.59c.145-.833-.527-.704-.96-.716a5.99 5.99 0 00-2.606.49l.385-1.458a5.115 5.115 0 012.711-.49c.914.035 2.518.324 2.21 2.13l-.701 3.678.006.007zm-1.337-2.06c-.371.23-.793.368-1.23.402a1.37 1.37 0 00-1.354 1.134.657.657 0 00.062.624.655.655 0 00.562.279 1.868 1.868 0 001.788-1.482l.172-.957z" fill="#fff"/><path fill-rule="evenodd" clip-rule="evenodd" d="M13.781 25.266H12.08l1.557-8.664h-.029l-3.181 8.664H8.36l-.038-8.664h-.03L7.03 25.266H5.316l1.865-10.641h2.664l.114 8.29h.03l3.018-8.29h2.633l-1.854 10.641h-.005zm12.822-5.936a9.283 9.283 0 00-2.283-.166c-.923.11-1.123.39-1.181.712-.212 1.192 3.988.049 3.478 2.81a3.216 3.216 0 01-3.297 2.666 6.648 6.648 0 01-2.719-.367l.25-1.459c.855.184 1.73.262 2.604.235A1.445 1.445 0 0024.868 23c.231-1.258-3.958-.305-3.451-3.118a2.78 2.78 0 013.076-2.218 8.55 8.55 0 012.346.357l-.231 1.312-.005-.003zm.962-.352l.624-2.812h1.702l-.365 1.409h1.06l-.26 1.402h-1.065l-.749 4.062c-.078.446-.096.61.595.61.12-.001.24-.013.357-.034l-.241 1.513c-.27.012-.577.2-.846.2h-.212a1.286 1.286 0 01-1.279-.462 1.29 1.29 0 01-.152-1.352l.827-4.542.004.006zm4.101 3.242a1.213 1.213 0 00.632 1.516c.183.084.385.121.586.107a4.512 4.512 0 002.97-.858l-.27 1.403a4.45 4.45 0 01-3.027.857c-1.816 0-3.045-1.012-2.47-4.086.173-.9.97-3.796 3.796-3.796 1.278 0 2.913 1.095 2.283 4.513l-.058.344h-4.442zm2.924-1.46c.127-1.217-.48-1.77-1.027-1.77a1.993 1.993 0 00-1.608 1.77h2.643-.008zm2.644-3.051h1.625l-.24 1.147h.034a2.467 2.467 0 012.048-1.48c.115 0 .365.055.471.066l-.625 1.949a1.978 1.978 0 00-2.268 1.758l-.711 4.192h-1.702l1.37-7.632h-.002zm10.276-.812a2.825 2.825 0 00-2.124-.379c-.865.152-2.283.668-2.816 3.529-.27 1.458-.125 3.206 1.277 3.539a3.44 3.44 0 002.836-.545l-.457 1.837c-.202.078-.385.59-2.489.457-2.326-.152-3.662-1.827-3.018-5.32.644-3.529 2.74-5.356 4.997-5.328a2.817 2.817 0 012.106.945l-.305 1.27-.008-.005zm15.34 8.373h-1.668l.172-1.15h-.02a2.467 2.467 0 01-2.085 1.124c-1.923 0-2.366-1.96-1.991-4.018.48-2.587 1.979-3.864 3.403-3.864a1.613 1.613 0 011.654 1.17h.029l.653-3.882h1.701l-1.841 10.616-.007.004zm-2.883-1.64a2.238 2.238 0 001.903-2.15c.22-1.202.145-2.415-1.018-2.415a2.324 2.324 0 00-1.865 2.306c-.164.878-.106 2.259.98 2.259zm-7.382-.167s-.163.802-.201 1.202l-.087.675h-1.509a6.59 6.59 0 010-1.176 3.095 3.095 0 01-2.283 1.08 1.59 1.59 0 01-1.568-2.171 2.72 2.72 0 012.327-2.393l1.576-.268c.279-.044.624.168.711-.256a.835.835 0 00-.21-.76.84.84 0 00-.75-.241 5.97 5.97 0 00-2.605.49l.384-1.459a5.12 5.12 0 012.71-.491c.914.035 2.518.324 2.21 2.131l-.7 3.629-.005.008zm-1.335-2.06c-.373.23-.795.368-1.232.402a1.37 1.37 0 00-1.355 1.134.657.657 0 00.063.624.654.654 0 00.561.279 1.868 1.868 0 001.79-1.482l.173-.957zm2.912-3.696h1.624l-.236 1.288h.029a2.47 2.47 0 012.047-1.481c.116 0 .366.056.472.067l-.626 1.947a1.862 1.862 0 00-.365-.023 1.765 1.765 0 00-1.903 1.64l-.71 4.191h-1.702l1.37-7.632v.003zm-33.946 5.756s-.163.802-.203 1.202l-.085.676h-1.52a6.901 6.901 0 010-1.177 3.133 3.133 0 01-2.284 1.175 1.679 1.679 0 01-1.377-.722 1.667 1.667 0 01-.189-1.544 2.725 2.725 0 012.326-2.393l1.577-.268a.762.762 0 00.71-.59c.145-.833-.527-.704-.96-.716a5.99 5.99 0 00-2.606.49l.385-1.458a5.115 5.115 0 012.711-.49c.914.035 2.518.324 2.21 2.13l-.701 3.678.006.007zm-1.337-2.06c-.371.23-.793.368-1.23.402a1.37 1.37 0 00-1.354 1.134.657.657 0 00.062.624.655.655 0 00.562.279 1.868 1.868 0 001.788-1.482l.172-.957z" fill="#fff"/></svg>