<svg width="82" height="36" fill="none" xmlns="http://www.w3.org/2000/svg"><g clip-path="url(#clip0_44_16042)" fill="#FF8C00"><path d="M25.244 22.349c.545.221.755 1.082.796 1.457.084.685-.104.95-.313.95-.21 0-.503-.265-.817-.795-.314-.53-.44-1.126-.272-1.436.104-.199.334-.286.606-.176zm-3.182 2.495c.335 0 .712.155 1.047.464.649.574.838 1.236.503 1.722a1.079 1.079 0 01-.859.397c-.356 0-.733-.132-.984-.375-.586-.53-.753-1.414-.377-1.899.147-.199.377-.309.67-.309zm-7.328 6.381c-7.957 0-14.406-6.8-14.406-15.191 0-8.39 6.45-15.19 14.405-15.19 7.957 0 14.406 6.8 14.406 15.19 0 2.848-.753 5.52-2.03 7.795-.042.066-.147.044-.168-.045-.502-3.731-2.66-5.785-5.8-6.403-.272-.044-.314-.22.042-.265.963-.088 2.324-.066 3.036.066.041-.375.063-.773.063-1.17 0-5.542-4.272-10.047-9.528-10.047-5.255 0-9.527 4.505-9.527 10.047 0 5.542 4.272 10.047 9.528 10.047h.44a14.274 14.274 0 01-.19-2.716c.022-.619.148-.707.399-.221 1.319 2.407 3.204 4.57 6.888 5.432 3.015.707 6.03 1.523 9.276 5.873.293.375-.146.773-.481.464-3.308-3.092-6.323-4.108-9.067-4.108-3.078.023-5.17.442-7.286.442zm38.643-6.723V10.84a.389.389 0 00-.102-.27.35.35 0 00-.256-.109h-2.634a.332.332 0 00-.256.108.372.372 0 00-.102.27v13.664a.39.39 0 00.102.27.348.348 0 00.256.109h2.634a.348.348 0 00.255-.108.371.371 0 00.103-.27zM74.3 10.623c-.127-.109-.255-.163-.358-.163H71a.341.341 0 00-.208.077.375.375 0 00-.124.193l-2.328 8.09-2.558-8.09a.332.332 0 00-.333-.244h-2.072a.352.352 0 00-.2.069.383.383 0 00-.132.175l-2.558 8.09-2.327-8.09c-.052-.162-.18-.27-.333-.27h-2.942c-.102 0-.23.054-.281.163a.375.375 0 00-.051.323l4.349 13.69a.33.33 0 00.332.245h2.353a.35.35 0 00.201-.07.383.383 0 00.131-.174l2.532-7.98 2.534 7.98c.051.163.18.244.333.244h2.353a.352.352 0 00.201-.068.383.383 0 00.131-.175l4.349-13.69c.025-.11.025-.245-.052-.325zm4.45.216c-.025-.216-.178-.379-.357-.379h-2.635a.332.332 0 00-.255.108.374.374 0 00-.102.27v13.664a.39.39 0 00.102.27.349.349 0 00.255.109h2.635a.348.348 0 00.255-.108.373.373 0 00.103-.27V10.838z"/><path fill-rule="evenodd" clip-rule="evenodd" d="M48.492 24.395c.153.189.025.459-.206.459h-3.223a.394.394 0 01-.184-.04.416.416 0 01-.148-.123l-.537-.703c-1.125.757-2.456 1.218-3.863 1.218-3.938 0-7.136-3.382-7.136-7.55 0-4.166 3.198-7.548 7.136-7.548 3.94 0 7.137 3.382 7.137 7.549a7.93 7.93 0 01-1.125 4.085l2.148 2.652zm-7.803-4.844l1.407 1.813c-.536.297-1.15.487-1.765.46-2.173 0-3.76-1.922-3.76-4.167s1.587-4.194 3.76-4.194c2.175 0 3.76 1.949 3.76 4.194 0 .487-.076.974-.23 1.407h-2.967c-.23 0-.358.297-.205.487z"/></g><defs><clipPath id="clip0_44_16042"><path fill="#fff" transform="translate(0 .5)" d="M0 0h82v35H0z"/></clipPath></defs></svg>