<svg width="70" height="20" fill="none" xmlns="http://www.w3.org/2000/svg"><path fill-rule="evenodd" clip-rule="evenodd" d="M17.553 19.017V8.303h-.473l-3.395 10.714H9.642L6.26 8.303h-.47v10.714H0V.983h5.798a3.368 3.368 0 013.234 2.376l2.383 8.335h.502l2.387-8.335a3.372 3.372 0 013.25-2.376h5.797v18.034h-5.798zm22.172 0V8.397h-.457l-3.954 8.897a2.929 2.929 0 01-2.673 1.723h-5.067V.982h5.835v10.62h.479l4.003-8.91.031-.068v-.007A2.927 2.927 0 0140.555.982h5.067v18.035h-5.897zm23.009-5.295h-6.95v5.296h-5.901V9.47h19.606a7.235 7.235 0 01-6.755 4.252z" fill="#52B461"/><path fill-rule="evenodd" clip-rule="evenodd" d="M69.858 7.348H58.644c-4.87 0-8.92-2.941-9.773-6.366h14.387C66.982.982 70 3.565 70 6.324c0 .346-.047.69-.142 1.024z" fill="url(#paint0_linear_44_15990)"/><defs><linearGradient id="paint0_linear_44_15990" x1="18747.7" y1="612.045" x2="18327.1" y2="612.045" gradientUnits="userSpaceOnUse"><stop stop-color="#198ECA"/><stop offset="1" stop-color="#1DB5E4"/></linearGradient></defs></svg>