<svg width="82" height="24" fill="none" xmlns="http://www.w3.org/2000/svg"><g clip-path="url(#clip0_276_9426)"><path fill-rule="evenodd" clip-rule="evenodd" d="M12.848 17.593H9.312c-5.516 0-1.509-11.621 3.135-11.621h5.587c.895 0 2.475.163 3.253-2.035L22.489.523h-7.661c-4.15 0-7.379 1.45-9.712 3.882C1.085 8.567-.282 15.068.684 18.178c.92 2.876 3.418 4.77 7.331 4.817l3.041.023h3.748l.92-2.736c.683-1.94-.85-2.689-2.877-2.689zm43.043-4.817l1.155-3.718H44.718c-2.051 0-2.97.562-3.324 1.73l-1.155 3.719h12.329c2.05 0 2.97-.562 3.323-1.73zm-17.49 6.548l-1.156 3.718h12.329c2.027 0 2.97-.562 3.324-1.73l1.155-3.719H41.724c-2.027 0-2.946.561-3.324 1.73zm20.366-15.06L59.922.548H47.594c-2.051 0-2.97.561-3.324 1.73l-1.155 3.718h12.328c2.028 0 2.947-.561 3.324-1.73zm-18.622.749c-.519-3.46-2.381-4.466-6.907-4.466h-8.25l-4.81 13.96h3.041c1.816 0 2.735.023 3.701-2.55l2.004-5.985h3.064c2.617 0 2.028 3.25.708 6.407-1.179 2.782-3.23 5.238-5.705 5.238h-5.115c-2.051 0-2.994.56-3.371 1.73l-1.273 3.718h3.748l3.677-.023c3.253-.024 5.917-.258 9.029-3.04 3.3-2.97 7.119-10.593 6.459-14.989zm41.44-4.49h-7.142L67.725 7.61c-.778.818-1.58 1.636-2.358 2.595h-.07l3.347-9.68h-5.822l-7.85 22.518h5.822l2.499-7.086 2.593-2.174 2.05 6.407c.637 1.987 1.298 2.853 2.712 2.853h4.455l-4.573-12.58L81.586.522z" fill="#00B33C"/></g><defs><clipPath id="clip0_276_9426"><path fill="#fff" transform="translate(0 .5)" d="M0 0h82v23H0z"/></clipPath></defs></svg>