<svg width="74" height="44" fill="none" xmlns="http://www.w3.org/2000/svg"><path d="M10.55.883h3.584c2.09 0 3.05 1.18 2.602 2.883-.49 1.922-2.346 2.905-4.308 2.905h-1.472l-.64 2.49H8.375L10.551.883zm2.368 4.172c.96 0 1.664-.546 1.856-1.267.213-.808-.277-1.245-1.237-1.245h-1.493l-.661 2.534h1.535v-.022zm4.27-.045C17.807 2.653 20.281.73 22.99.73c2.71 0 4.16 1.9 3.541 4.28-.618 2.36-3.093 4.282-5.802 4.282-2.709 0-4.16-1.9-3.54-4.281zm7.317 0c.362-1.42-.427-2.599-1.984-2.599s-2.944 1.158-3.306 2.6c-.363 1.42.426 2.599 1.983 2.599 1.558 0 2.944-1.158 3.307-2.6zM28.77.883h1.791l2.773 5.09 1.344-5.09h1.898l-2.175 8.256h-1.643l-2.88-5.242-1.364 5.242h-1.92L28.769.883zm10.768 5.002L37.468.883h2.262l1.237 3.32 3.008-3.32h2.197L41.479 5.84l-.853 3.298h-1.941l.853-3.254zM7.672 11.913h6.612l-.426 1.616H9.165l-.448 1.682h4.138l-.427 1.617H8.29l-.448 1.747h4.778l-.426 1.617H5.496l2.176-8.279zm9.364 4.063l-1.877-4.063h2.261l1.13 2.687 2.56-2.687h2.197l-3.988 4.041 1.962 4.238H19.02l-1.237-2.84-2.73 2.84h-2.198l4.181-4.216zm7.487-4.063h3.584c2.09 0 3.05 1.18 2.602 2.883-.49 1.922-2.346 2.905-4.309 2.905h-1.47l-.64 2.49h-1.941l2.175-8.278zm2.368 4.172c.96 0 1.664-.546 1.856-1.267.213-.808-.277-1.245-1.237-1.245h-1.494l-.66 2.534h1.535v-.022zm5.632-4.172h4.01c1.11 0 1.899.306 2.347.83.362.459.469 1.114.256 1.922-.342 1.333-1.344 2.184-2.56 2.556l1.365 2.949h-2.26l-1.195-2.622h-1.493l-.704 2.644h-1.941l2.175-8.279zm2.837 4.02c.939 0 1.6-.481 1.792-1.202.213-.787-.277-1.18-1.216-1.18h-1.92l-.618 2.381h1.962zm5.886-4.02h6.634l-.427 1.616H42.74l-.448 1.682h4.16l-.427 1.617h-4.16l-.447 1.747h4.778l-.427 1.617H39.07l2.176-8.279zm5.567 7.077l1.471-1.289c.64.612 1.365 1.005 2.368 1.005.79 0 1.344-.306 1.472-.808.128-.459-.128-.7-1.493-1.049-1.664-.415-2.688-.895-2.24-2.555.384-1.507 1.941-2.49 3.733-2.49 1.28 0 2.282.371 2.986 1.048l-1.365 1.376c-.64-.502-1.323-.808-2.07-.808-.746 0-1.215.328-1.322.743-.149.546.192.72 1.621 1.092 1.664.437 2.517 1.048 2.134 2.512-.427 1.638-2.006 2.555-3.904 2.555-1.322 0-2.56-.458-3.392-1.332zm7.55 0l1.472-1.289c.64.612 1.365 1.005 2.368 1.005.789 0 1.343-.306 1.471-.808.129-.459-.127-.7-1.493-1.049-1.663-.415-2.687-.895-2.24-2.555.385-1.507 1.942-2.49 3.733-2.49 1.28 0 2.283.371 2.987 1.048l-1.365 1.376c-.64-.502-1.323-.808-2.07-.808-.746 0-1.215.328-1.322.743-.15.546.192.72 1.621 1.092 1.664.437 2.517 1.048 2.133 2.512-.426 1.638-2.005 2.555-3.903 2.555-1.344 0-2.56-.458-3.392-1.332z" fill="#008752"/><path d="M37.279 24.977l-1.45 5.527h24.678l-6.975 7.142 3.818 3.888 16.148-16.556h-36.22z" fill="#7AC143"/></svg>