<svg width="68" height="22" fill="none" xmlns="http://www.w3.org/2000/svg"><path fill-rule="evenodd" clip-rule="evenodd" d="M62.4 21.653s-.488-2.976-.651-3.722h-7.05c-.195.584-1.17 3.722-1.17 3.722h-5.751l8.156-19.45A2.692 2.692 0 0158.793.419h4.257l4.45 21.234h-5.1zM59.572 7.971l-.39-1.816c-.26.811-.748 2.076-.715 2.043 0 0-1.755 4.7-2.176 5.93h4.548c-.224-1.072-1.267-6.157-1.267-6.157zM47.745 5.315a9.213 9.213 0 00-4.093-.811c-2.178 0-3.153.908-3.185 1.815 0 1.005 1.17 1.652 3.117 2.625 3.153 1.497 4.615 3.338 4.583 5.767-.033 4.375-3.77 7.226-9.554 7.226a16.758 16.758 0 01-6.111-1.132l.748-4.764.749.356a11.083 11.083 0 005.133 1.134c1.593 0 3.281-.648 3.315-2.074 0-.94-.715-1.621-2.86-2.657-2.079-1.005-4.841-2.69-4.809-5.737.032-4.115 3.834-7 9.26-7 1.686-.01 3.36.285 4.94.873l-.749 4.602-.484-.223zM23.572 21.653L27.016.419h5.487l-3.442 21.234h-5.489zm-13.22 0L5.455 3.233c-.167-.097-.343-.186-.514-.28H8.22l1.211.858 2.221 3.39.943 2.605.423 2.151.585 2.917L18.995.42h5.817l-8.643 21.234h-5.817z" fill="#1470B0"/><path fill-rule="evenodd" clip-rule="evenodd" d="M7.858 5.707a12.538 12.538 0 00-2.112-1.343l-.313-1.177A22.005 22.005 0 00.5 1.109V.452h8.436a2.211 2.211 0 012.156 1.746l1.826 9.296a23.007 23.007 0 00-5.06-5.787z" fill="#FFB927"/></svg>