<svg width="112" height="36" fill="none" xmlns="http://www.w3.org/2000/svg"><path d="M12.273.5l.999.006a.453.453 0 00.174-.013l.244.017c.768.075 1.351.159 1.75.253l.778.185c4.81 1.325 8.337 5.456 8.927 10.352.069.568.099 1.154.09 1.76l-.01.766c-.002 3.459 0 6.917.008 10.375a.13.13 0 01-.07.123c-1.715.949-3.546 1.806-5.426 2.375a.025.025 0 01-.01 0 .025.025 0 01-.01-.003.025.025 0 01-.008-.008.023.023 0 01-.003-.01c-.184-2.57-1.558-5.228-3.976-6.395-1.937-.934-4.171-.64-5.854.673-1.794 1.4-2.773 3.633-2.904 5.856 0 .003 0 .005-.002.007a.015.015 0 01-.004.005.015.015 0 01-.007.003h-.007A31.87 31.87 0 01.5 24.268c.023-.081.034-.205.035-.37.003-3.853.003-7.704.002-11.554.038-.19.048-.386.03-.588a.17.17 0 01.005-.107c.059-.332.102-.61.13-.832.009-.07.02-.14.033-.21a12.23 12.23 0 012.171-5.042 11.97 11.97 0 011.388-1.604C5.96 2.368 7.93 1.312 10.204.793c.17-.04.394-.071.59-.116.082-.019.176-.014.262-.036a.882.882 0 01.192-.03.785.785 0 00.26-.055.212.212 0 01.112-.012c.014.014.035.02.064.02.125-.004.249-.021.37-.051A.427.427 0 0112.273.5zm5.622 13.99c0-1.2-.48-2.35-1.333-3.197a4.566 4.566 0 00-3.218-1.325 4.566 4.566 0 00-3.218 1.325 4.506 4.506 0 00-.986 4.927c.228.548.563 1.047.986 1.466a4.567 4.567 0 004.96.98 4.52 4.52 0 002.81-4.177zm60.452-6.844l-.047.11c-.022-.014-.042-.006-.059.023-.839 1.486-1.676 2.966-2.513 4.44a.212.212 0 00-.01.189l2.685 6.201c.02.045.045.075.077.089l.042.112.001.007a.014.014 0 01-.007.01.014.014 0 01-.007.002h-3.246c-.085 0-.122-.033-.11-.098l-1.502-4.446c-.005-.017-.017-.023-.034-.017-.03.009-.049.037-.058.084-.058.048-.07.13-.099.182-.113.206-.342.548-.342.781l-.006 3.512h-2.92c-.02 0-.03-.01-.03-.03l-.002-.122c.02.002.03-.01.03-.036a101668.376 101668.376 0 00.003-15.632.03.03 0 01.016-.016.031.031 0 01.012-.002l2.859-.004a.03.03 0 01.02.009.029.029 0 01.01.02c-.001 3.121.002 6.244.01 9.37 0 .043 0 .068.003.075.023.072.047.072.07 0 .155-.471.31-.934.509-1.403.48-1.133.96-2.264 1.44-3.392a.055.055 0 01.05-.034l3.095-.006c.01 0 .018.004.024.012.007.01.02.014.036.01z" fill="#1AA954"/><path d="M50.678 4.576a.17.17 0 01.033.102 528.97 528.97 0 00-.002 2.872.073.073 0 00.074.073l2.057.004c.009 0 .017.004.023.01.006.005.01.013.01.022l.007 2.09h-2.123c-.026-.001-.039.011-.04.036-.01 1.282-.01 2.906.004 4.871.004.48 0 .772.131 1.14.216.603.797.784 1.391.649.006-.007.014-.01.026-.009a.42.42 0 00.263-.024.049.049 0 01.067.044l.029 1.955c.015.14.01.26-.014.363l-.902.14a.157.157 0 00-.038.012.102.102 0 01-.04.008c-.3-.005-.617.026-.894.018a9.04 9.04 0 01-.44-.021c-1.4-.12-2.258-1.11-2.447-2.462a3.022 3.022 0 00-.034-.202c-.04-.197-.028-.396-.058-.595l-.033-5.922-1.25-.002a.037.037 0 01-.026-.01.035.035 0 01-.01-.026l.014-2.102 1.231.013c.047 0 .07-.023.07-.07-.017-.74-.022-1.48-.016-2.22 0-.017.012-.035.035-.053l2.818-.684.084-.02zm-8.162 2.849l.526.095c1.373.386 1.915 1.692 2.059 2.985.005.048.026.089.026.136 0 .138.01.278.032.42l.015 7.75c0 .012-.005.017-.015.017h-2.943v-6.914c0-.527-.046-1.328-.457-1.721-.444-.423-1.166-.268-1.484.224-.175.27-.291.582-.348.934a4.536 4.536 0 00-.072.654 3103.1 3103.1 0 00-.001 6.823h-2.895c-.034-.02-.049-.048-.043-.08a.93.93 0 00.012-.068V11.4c0-.158-.01-.397-.028-.717l-.026-.632c.017-.43.006-.86-.032-1.287l-.022-.27.008-.836a.033.033 0 01.01-.023.034.034 0 01.024-.01l2.534-.002.005.065c-.012.1-.011.2.003.3.02.144.031.242.036.295.008.102.024.208.047.316.01.017.013.041.011.074a.295.295 0 00.008.193.027.027 0 00.03.016.029.029 0 00.01-.004c.017-.011.025-.024.025-.038.004-.011.009-.016.013-.014.056-.06.105-.116.15-.171.583-.736 1.346-1.144 2.288-1.222l.494-.008zm15.896.002c1.7.135 2.731 1.254 3.173 2.815.13.46.21.85.239 1.17.02.23.042.4.064.51.02.007.024.035.014.086a.116.116 0 00-.019.06c.02.575.02 1.105.002 1.59-.002.029.008.042.03.039l-.025.111a.904.904 0 00-.038.394c.001.057-.023.086-.073.086h-5.125c-.025 0-.04.01-.057.028-.012.008-.018.016-.018.023.01.19.032.38.064.567.186 1.094 1.031 1.762 2.14 1.746l.343-.002a6.025 6.025 0 001.714-.292c.055-.017.094-.04.115-.069.017 0 .035.006.054.019a.053.053 0 01.024.037c.12.665.243 1.328.371 1.991a.145.145 0 00.014.045.054.054 0 01-.006.068.056.056 0 01-.021.013 7.932 7.932 0 01-2.062.448c-.053.004-.093.023-.136.024-.26.003-.519.01-.778.02a5.024 5.024 0 01-1.23-.12c-2.242-.471-3.267-2.407-3.414-4.521a.053.053 0 00-.035-.049l-.01-.089a.168.168 0 00.02-.089c-.01-.445-.01-.89.003-1.336a.06.06 0 00-.005-.026l-.01-.022.003-.117c.02-.003.032-.02.034-.05.165-2.142 1.19-4.43 3.489-5.008.111-.028.331-.06.66-.096l.492-.004zM56.63 12.17h2.5a.072.072 0 00.042-.012.08.08 0 00.026-.038 1.04 1.04 0 00-.014-.428.258.258 0 01-.016-.114.731.731 0 00-.003-.228c-.079-.593-.239-1.45-.888-1.688-.819-.299-1.317.58-1.498 1.206a3.824 3.824 0 00-.149 1.302zm11.635-4.74l.56.002.216.042c.018.003.028.014.03.031.008.053-.012.118-.012.157v2.537c0 .066.047.192-.027.262l-.05-.011c-1.02-.213-1.867.317-2.238 1.254-.13.331-.182.598-.213.991-.013.177-.02.399-.02.664.003 1.82.004 3.643.002 5.468H63.55c-.003-2.398-.003-4.794.001-7.187.001-.727-.02-1.493-.027-2.24 0-.029-.009-.047-.026-.054l-.014-.317c.02-.358.01-.715-.027-1.072a.642.642 0 01-.005-.252c.002-.012-.005-.03-.022-.052.02-.02.042-.031.063-.031a154.2 154.2 0 002.495 0l.013.003.042.015.02.125c-.018.153-.006.306.036.459.013.028.017.06.013.094-.013.135-.003.273.032.412.014.008.02.031.016.07a.89.89 0 00.01.343c.033.114.073.116.12.006.3-.706.929-1.485 1.73-1.662.082-.018.163-.037.245-.057z" fill="#2C3E50"/><path d="M82.931 7.432h.706c.12.02.239.033.359.041.019.001.028-.006.027-.02l.1.006a.92.92 0 00.01.011.044.044 0 00.027.017c1.256.2 2.184.813 2.643 2.01.188.492.304 1 .347 1.524.003.037.016.054.036.051l.017.137c-.028-.002-.04.016-.038.053.009.138.013.277.013.415-.007 1.732.003 3.464.03 5.195a.664.664 0 01.021.351c.006.44.039.878.1 1.316.01.072.033.17.07.29h-2.69l-.125-.853-.026-.118c.026-.032.032-.065.016-.1a.046.046 0 00-.061-.023.046.046 0 00-.018.016c-.578.813-1.39 1.23-2.377 1.247-1.57.027-2.638-1.181-2.881-2.629-.18-1.07-.019-2.153.607-3.048a3.984 3.984 0 011.524-1.273 6.465 6.465 0 012.504-.62l.3-.02c.009 0 .015 0 .019-.003a.06.06 0 00.027-.054c-.013-.218-.005-.466-.05-.656-.139-.577-.638-.966-1.226-1.024a3.15 3.15 0 00-.774.019c-.03.004-.038.014-.024.029l-.127-.001a3.41 3.41 0 00-1.54.54.056.056 0 01-.085-.032l-.503-1.864a.108.108 0 01.054-.124 6.247 6.247 0 011.464-.562.882.882 0 00.152-.048.072.072 0 01.036-.008.449.449 0 00.2-.04.094.094 0 01.04-.008.553.553 0 00.229-.043.107.107 0 01.048-.008.619.619 0 00.244-.032.016.016 0 00.01-.011c0-.005.001-.01.003-.014a.167.167 0 01.086-.007c.158.024.317.016.476-.025zm1.343 5.955a.608.608 0 00-.225.018.71.71 0 00-.32.013c-.01.003-.014.01-.015.024l-.085.03c.002-.006.003-.012.002-.018-.001-.012-.008-.017-.02-.015-.713.126-1.314.475-1.554 1.191-.139.412-.137.857.006 1.333.177.59.707 1.01 1.34.772.664-.251.912-.78.912-1.45 0-.631.003-1.262.007-1.894a.03.03 0 00-.004-.014.03.03 0 00-.025-.015.03.03 0 00-.014.003c-.016.009-.018.016-.005.022zM92.77 7.43l.751.076a.126.126 0 01.06.006.032.032 0 00-.004.015c0 .01.005.017.015.02a5.3 5.3 0 011.11.376.04.04 0 01.022.046l-.497 2.107a.043.043 0 01-.045.033.044.044 0 01-.019-.006c-.595-.343-1.564-.636-2.193-.232a.76.76 0 00-.37.646.96.96 0 00.011.314.575.575 0 00.143.369c.45.502 1.118.805 1.662 1.186.91.64 1.563 1.544 1.667 2.695 0 .005.003.008.008.008.006 0 .01.002.013.004.015.038.02.08.012.125-.014.004-.022.018-.024.041a1.2 1.2 0 00.019.336.44.44 0 01-.013.201c-.07.4-.118.65-.147.75-.398 1.387-1.613 2.206-3.032 2.366-.037.005-.054.016-.053.036l-.135.016c-.006-.023-.02-.034-.041-.032a6.803 6.803 0 01-1.003.004c-.017-.001-.03.007-.038.024l-.138-.015c0-.021-.014-.034-.04-.037-.61-.067-1.202-.232-1.734-.54-.049-.029-.066-.07-.053-.123l.516-2.102c.005-.02.016-.025.034-.015a4.135 4.135 0 001.783.584c.059.005.099-.008.12-.038l.104.017c.206.03.41-.003.614-.098.677-.32.684-1.232.198-1.707a4.238 4.238 0 00-.885-.655c-1.102-.621-2.049-1.454-2.263-2.764-.12-.725-.008-1.446.335-2.161.372-.776.99-1.322 1.854-1.638.298-.11.643-.186 1.034-.23l.642-.008zm6.689.002l.61-.002c.247.026.492.056.735.091.019.003.028-.003.029-.016a.076.076 0 01.047.005c-.004.008-.006.015-.004.021.001.005.005.009.014.01.385.088.757.214 1.116.379a.042.042 0 01.021.02.045.045 0 01.003.027l-.495 2.105a.049.049 0 01-.01.02.05.05 0 01-.039.016.044.044 0 01-.021-.006c-.511-.3-1.318-.551-1.911-.362-.425.136-.647.433-.667.891-.016.366.168.633.45.851.376.291.708.485 1.213.791.396.24.769.576 1.12 1.006.432.53.676 1.169.733 1.92l.002.513a5.356 5.356 0 01-.177.92c-.343 1.138-1.288 1.887-2.426 2.17-.027.007-.036.02-.028.037l-.098.026c.004-.003.005-.007.003-.013a.015.015 0 00-.006-.01.015.015 0 00-.011-.002 6.168 6.168 0 01-1.638.094c-.024-.001-.036.008-.038.027-.077.003-.13-.008-.158-.03a6.774 6.774 0 01-1.251-.305 2.787 2.787 0 01-.583-.291.037.037 0 01-.015-.017.037.037 0 01-.001-.023l.522-2.13c.007-.029.024-.036.052-.021a4.595 4.595 0 001.675.555c.122.014.269-.007.406.013.113.015.285-.024.519-.12.316-.13.475-.363.532-.7.13-.777-.524-1.26-1.157-1.62a7.216 7.216 0 01-1.047-.705c-.24-.2-.54-.513-.724-.772a3.076 3.076 0 01-.559-1.509 3.623 3.623 0 01.347-1.979c.45-.92 1.361-1.593 2.357-1.784a1.98 1.98 0 00.23-.054.087.087 0 01.049-.004c.107.021.2.01.279-.033zm7.573 0h.73c.132.02.263.035.394.042.025.001.039-.005.041-.018a.168.168 0 01.097.007c.001.018.014.028.038.032 1.009.15 1.897.645 2.399 1.575.222.41.372.833.452 1.271.083.455.134.944.154 1.468.008 1.717-.015 3.439.029 5.158-.028.26-.026.504.008.73.004.024.015.036.034.034l.011.1a.328.328 0 00-.02.19c.036.266.071.535.104.805l-2.656-.011-.127-.889c-.016-.012-.025-.047-.028-.105.045-.058.029-.085-.046-.078a.054.054 0 00-.037.02c-.428.602-.969.98-1.674 1.15a1.87 1.87 0 00-.267.084c-.004.005-.015.007-.033.008.001-.012-.004-.019-.015-.019-.279.006-.586.021-.845-.017-.998-.146-1.779-.854-2.156-1.757-.158-.377-.249-.695-.275-.956a13.308 13.308 0 00-.055-.49l.023-.595a3.86 3.86 0 01.586-1.733c.759-1.174 2.157-1.784 3.553-1.955.023-.003.034-.014.035-.036l.135-.012c-.001.014.004.022.015.023a.596.596 0 00.26-.032l.413-.013a.04.04 0 00.029-.013.058.058 0 00.008-.013.08.08 0 00.002-.016l-.021-.4c-.041-.543-.28-.924-.716-1.143-.219-.11-.498-.166-.838-.17a3.987 3.987 0 00-2.166.601.048.048 0 01-.048.003c-.074-.034-.064-.152-.078-.203-.143-.515-.28-1.03-.413-1.548-.016-.06-.061-.13-.051-.215a.047.047 0 01.026-.038 5.86 5.86 0 011.321-.535c.124-.033.217-.06.282-.079.082-.025.163-.024.248-.049.083-.024.186-.02.271-.059a.147.147 0 01.047-.013l.82-.091zm1.142 5.968c-.528.006-.986.14-1.372.4-.418.283-.644.684-.677 1.204l.008.516a1.41 1.41 0 00.158.672c.445.874 1.448.738 1.914 0 .146-.232.221-.515.226-.85.008-.651.009-1.302.001-1.952a.018.018 0 00-.003-.01.016.016 0 00-.009-.006.018.018 0 00-.011 0 .019.019 0 00-.008.007c-.012.02-.013.026-.002.019a.473.473 0 00-.225 0z" fill="#1AA954"/><path d="M31.871 7.62l2.906.005a.05.05 0 01.035.014.049.049 0 01.015.035v11.154h-2.935a.02.02 0 01-.02-.02V7.62z" fill="#2C3E50"/><path d="M75.807 22.515l.065-.01c-.02.303-.026.6-.016.89.001.019.01.033.026.04l.748.005c.035 0 .053.018.054.053l.005.35c0 .032-.014.048-.046.048l-.153.004-.57-.008a.07.07 0 00-.072.07c-.007.604 0 1.22.02 1.845.01.307.222.514.531.447a.362.362 0 01.13-.03c.098.002.14.051.123.147l.03.26a.236.236 0 01-.222.09v.003c0 .002 0 .002.003.002a.16.16 0 01.054.007c-.164.033-.33.039-.496.02-.321-.055-.58-.187-.672-.513-.033-.117-.077-.22-.077-.346l.003-1.946a.06.06 0 00-.062-.061l-.393.007a.052.052 0 01-.053-.05l-.013-.335c-.002-.045.02-.067.065-.066l.405.005a.05.05 0 00.046-.031.05.05 0 00.004-.02l-.012-.655a.097.097 0 01.072-.095l.473-.127zm-19.162.921l.004.42a.034.034 0 01-.034.034l-.795.01c-.002.018-.01.031-.01.049 0 .53.002 1.058.007 1.587.005.494.08.828.678.698.073-.015.111.014.115.088l.013.243c.004.076-.031.121-.106.136l-.227.047-.315-.005c-.109-.03-.236-.048-.33-.098-.33-.18-.379-.485-.413-.829a2.083 2.083 0 01-.015-.265c0-.522.004-1.043.009-1.564a.109.109 0 00-.024-.068c0-.029-.012-.042-.039-.042-.143 0-.29.01-.44.028v-.45a.03.03 0 01.007-.02.032.032 0 01.017-.011.041.041 0 01.036.007h.442v-.78l.548-.125c.033-.008.05.005.049.039l-.02.816a.07.07 0 00.021.05.069.069 0 00.05.02l.772-.015zm45.046 3.317l-.276-.013c-.457-.06-.701-.386-.707-.824-.009-.632-.012-1.297-.009-1.994a.048.048 0 00-.003-.017.043.043 0 00-.01-.014.045.045 0 00-.014-.01.043.043 0 00-.017-.002l-.419.008c-.033.001-.049-.015-.048-.047v-.35c0-.033.016-.05.049-.05l.392.003a.069.069 0 00.048-.019.063.063 0 00.014-.021.056.056 0 00.005-.026l-.001-.678c0-.021.01-.035.031-.042.124-.04.261-.053.37-.122a.104.104 0 01.158.087l-.002.771a.058.058 0 00.058.058h.737c.015 0 .029.006.04.016s.017.025.017.04l.004.307c0 .043-.021.064-.064.064l-.735.001a.06.06 0 00-.023.005.06.06 0 00-.033.033.06.06 0 00-.004.023c.011.569.015 1.116.01 1.641-.001.108.01.282.048.384.097.259.294.353.591.283a.392.392 0 01.109-.01c.012 0 .023.005.031.013.009.008.014.02.015.031l.016.295a.128.128 0 01-.027.086.13.13 0 01-.079.046l-.272.044zM34.13 23.368l.376.112a.08.08 0 01.04.027c.035.04.088.044.122.07.449.33.557.718.656 1.237v.418c-.124.691-.404 1.318-1.17 1.48a1.047 1.047 0 00-.153.045.807.807 0 01-.391-.011 1.562 1.562 0 00-.17-.059 1.022 1.022 0 01-.566-.385c-.01-.012-.018-.012-.026.002-.006.01-.002.02.01.034a.073.073 0 00-.018.011c-.005.004-.008.01-.008.02.002.54.002 1.078.001 1.615a.026.026 0 01-.026.026h-.558a.024.024 0 01-.023-.024c-.002-1.382.026-2.77-.027-4.15l.008-.327a.07.07 0 01.07-.068l.407-.001a.06.06 0 01.06.057l.017.427c.003.058.021.064.055.016a1.36 1.36 0 01.557-.466c.1-.044.22-.066.333-.104l.424-.002zm-1.277 1.347a3.341 3.341 0 00-.01.753c.02.28.14.495.358.645.731.504 1.5-.098 1.5-.893l-.01-.345a1.009 1.009 0 00-.406-.869.877.877 0 00-.947-.057c-.297.159-.459.414-.485.766zm4.51-1.343c.661.102.983.587.981 1.226-.002.793-.001 1.32.004 1.583 0 .027.01.043.026.049a.44.44 0 01.012.175.309.309 0 00-.001.192.065.065 0 01-.061.084l-.325.005a.217.217 0 01-.166-.026.535.535 0 00-.033-.375.02.02 0 00-.026.003c-.13.162-.29.284-.482.367-.095.04-.221.058-.33.104l-.108.01a.228.228 0 00-.16-.003.317.317 0 01-.104-.016c.004.003.007.001.008-.005.002-.006 0-.01-.006-.011-.352-.081-.605-.245-.726-.58a1.426 1.426 0 01-.042-.567c.107-.625.829-.89 1.389-.937.025-.002.038-.013.04-.034l.13-.011.33.02a.038.038 0 00.037-.019c.01-.017.008-.028-.007-.032.012-.026.016-.045.012-.056.03-.914-1.033-.786-1.543-.498-.016.01-.03.007-.043-.007l-.04-.045c-.019-.01-.027-.031-.027-.06.022-.081-.067-.156-.045-.272.236-.13.494-.215.774-.253l.532-.011zm.06 1.69a1.121 1.121 0 00-.746.17c-.494.326-.325 1.138.343 1.079l.03.002c.02.002.036-.007.05-.027l.087-.021.007.01c.005.008.012.011.02.008.283-.086.529-.342.552-.644.02-.24.017-.435-.006-.585a.703.703 0 00-.337.008zm6.751-1.69c.303.067.539.25.708.55a.422.422 0 00.016-.004c-.021.024-.022.044-.002.06a.027.027 0 00.033.001.028.028 0 00.008-.008c.184-.316.46-.517.827-.601h.4c.599.135.885.65.887 1.222l.003 2.002c0 .07-.034.1-.104.093a.909.909 0 00-.302.006.33.33 0 01-.118 0c-.026-.036-.039-.093-.037-.171.008-.413.005-.99-.01-1.73a1.602 1.602 0 00-.075-.49c-.167-.494-.747-.595-1.114-.247-.165.156-.248.322-.25.5-.007.685-.008 1.38-.005 2.086a.027.027 0 01-.026.027l-.51.024c.002.005-.013.005-.044.002-.013-.679-.017-1.358-.013-2.037.002-.328-.143-.638-.439-.764a.592.592 0 00-.472.005c-.407.182-.542.546-.536.971.007.585.008 1.169.004 1.753 0 .018-.01.038-.027.058l-.52-.003a.041.041 0 01-.04-.04c.008-1.05.024-2.086-.014-3.128a.06.06 0 01.036-.057.062.062 0 01.023-.006l.381-.01c.044-.001.068.02.072.064l.02.196.02.23c.039-.037.09-.1.155-.189.146-.202.417-.302.677-.367l.388.002zm5.395-.006c-.009.009-.015.013-.02.012-.033-.007-.033-.007 0-.002.481.085.81.356.984.813.102.268.15.554.143.859.008.11-.024.152-.094.125l-2.167-.016a.04.04 0 00-.03.015c-.009.01-.01.018-.002.022-.019.02-.018.062.003.125a.82.82 0 00.16.534c.392.537 1.139.519 1.705.308a2.58 2.58 0 01.07-.024.045.045 0 01.043.006c.086.061.012.175.095.234l.034.109a1.089 1.089 0 01-.647.229 1.3 1.3 0 00-.252.032h-.347c-.597-.092-1.027-.272-1.286-.848-.099-.22-.15-.378-.15-.475-.005-.276-.024-.584.04-.836.164-.64.566-1.084 1.241-1.213l.477-.009zm-1.16 1.302l-.027.07c.04.02.089.027.147.023.164-.01.348-.008.506-.01.34-.004.668-.004.983.002.062.002.089-.028.08-.09-.074-.549-.322-.942-.963-.86-.426.055-.69.447-.755.847a.02.02 0 00.014.02c.005.002.01.002.014-.002zm4.807-1.303c.388.09.661.308.82.651.081.173.131.435.13.626 0 .66 0 1.322.004 1.983 0 .016-.005.025-.01.042l-.536-.004a.048.048 0 01-.048-.05c.011-.282.017-.536.017-.76 0-.413-.01-.825-.032-1.235-.027-.017-.04-.055-.036-.114.041-.143-.127-.395-.232-.481a.699.699 0 00-.74-.12c-.38.148-.572.445-.573.891-.003.606-.002 1.212.002 1.82 0 .031-.017.053-.032.08l-.021.002-.475-.02a.049.049 0 01-.032-.014.047.047 0 01-.014-.033l-.007-2.617c0-.077-.008-.188-.022-.331l.002-.234.474-.004c.02 0 .033.01.036.03l.011.072.02.2a.286.286 0 00.018.133v.054c0 .022.007.024.019.006l.075-.114c.193-.234.441-.382.747-.443l.435-.016zm6.824.007c.668.085.984.57.99 1.208.003.437.003.874.002 1.31 0 .158.001.358.04.515.022.024.025.046.011.066l-.01.176a.031.031 0 01-.01.02.031.031 0 01-.022.01l-.44-.002a.037.037 0 01-.038-.03l-.04-.193-.025-.114.005-.025c0-.005 0-.01-.002-.015a.023.023 0 00-.026-.011.023.023 0 00-.012.008 1.154 1.154 0 01-.565.38 6.73 6.73 0 00-.251.082.64.64 0 01-.356-.01c-.437-.1-.693-.336-.768-.705-.184-.904.62-1.324 1.39-1.4.175-.017.326-.02.497-.012a.047.047 0 00.033-.012.046.046 0 00.015-.033c.005-.55-.308-.834-.861-.772-.271.03-.493.097-.665.201-.044.026-.074.016-.092-.031l-.09-.25a.093.093 0 01.042-.113c.295-.164.481-.17.75-.247l.497-.001zm.114 1.681a1.35 1.35 0 00-.752.168c-.21.114-.312.31-.307.583.007.34.297.543.603.513.445-.043.695-.267.75-.674l.007-.548a.065.065 0 00-.07-.065l-.231.023zm3.543-1.682l.563.13a.08.08 0 01.05.035.08.08 0 01.009.06l-.082.314c.004.028-.007.054-.032.08a2.556 2.556 0 01-.174-.056c-.977-.356-1.795.308-1.664 1.319.118.913.993 1.246 1.79.878a.036.036 0 01.043.007c.089.09.053.253.113.36l-.008.061c-.225.1-.47.16-.737.181l-.34.008a29.329 29.329 0 01-.255-.05c-.978-.196-1.393-1.205-1.16-2.076.193-.717.682-1.13 1.468-1.242a1.15 1.15 0 01.416-.009zm2.946-.004c.22.02.436.072.65.155l-.11.43a.043.043 0 01-.06.027c-.794-.384-1.828.046-1.774 1.017a.255.255 0 01.006.117c-.028.35.081.639.327.863.383.352.967.387 1.416.168.052-.026.087-.01.103.045l.08.283c.02.069-.005.11-.075.125l-.676.148-.35-.003c-.88-.117-1.365-.63-1.455-1.538a.42.42 0 010-.212c.063-.752.428-1.256 1.096-1.512.056-.021.132-.034.194-.054.1-.034.197-.014.299-.058l.33-.001zm2.828.003c.264.087.45.133.66.327.365.342.484.958.424 1.437a.032.032 0 01-.01.02.034.034 0 01-.023.009 971.43 971.43 0 00-2.207-.003c-.014 0-.022.01-.025.031l-.01.084c.043 1.053 1.17 1.19 1.934.869.049-.02.079-.005.09.046l.064.276a.099.099 0 01-.067.116 3.4 3.4 0 01-.804.161h-.38c-.649-.078-1.14-.407-1.327-1.043a2.847 2.847 0 01-.076-.288 2.2 2.2 0 01.264-1.358c.208-.36.547-.586 1.017-.68l.476-.004zm-1.121 1.394l1.625-.017a.04.04 0 00.037-.025.04.04 0 00.003-.016v-.023a.938.938 0 00-.256-.638.824.824 0 00-.604-.26h-.006a.805.805 0 00-.324.073.847.847 0 00-.274.2.91.91 0 00-.18.296.957.957 0 00-.062.347v.024a.04.04 0 00.041.039zm4.888-1.394c.548.14.9.481 1.058 1.023.025.088.05.175.073.263.033.121.033.34 0 .654a1.85 1.85 0 01-.19.655c-.226.446-.599.701-1.09.785a.698.698 0 01-.393-.004c-.33-.059-.584-.21-.76-.451-.028-.04-.042-.036-.042.013l.017 1.705-.61-.003c.014-1.32.017-2.635.01-3.948 0-.16-.007-.32-.018-.477-.016-.033-.016-.07 0-.114a.074.074 0 00.026-.016.056.056 0 01.037-.013l.415-.002c.022 0 .034.01.037.032.003.03.012.056.026.079a.702.702 0 00.025.283.104.104 0 00-.014.1c.008.021.019.023.032.005l.04-.05c.244-.311.496-.42.869-.516l.452-.004zm.326 2.536a.137.137 0 00.034-.04 1.75 1.75 0 00.195-.972 1.35 1.35 0 00-.205-.653.904.904 0 00-1.234-.267c-.313.193-.462.567-.465.92-.004.482-.036.943.41 1.236a.904.904 0 001.227-.186.276.276 0 01.038-.038zm5.089-2.534c.471.068.776.314.916.74.04.12.05.277.085.418l.025 1.66a.908.908 0 00.02.399.073.073 0 01-.013.064.074.074 0 01-.059.029l-.435.002c-.039.021-.063-.028-.072-.148a.356.356 0 00.014-.232c-.004-.015-.014-.021-.03-.017-.037.01-.047.031-.031.065l-.068.047c-.291.223-.453.273-.751.354a.886.886 0 01-.353-.007c-.923-.173-1.08-1.307-.34-1.8.222-.148.484-.24.785-.277a2.3 2.3 0 01.645-.037.068.068 0 00.074-.065c.004-.095-.02-.148-.03-.222-.03-.242-.167-.408-.407-.497-.035-.013-.06-.014-.077-.003a.249.249 0 01-.106-.023.372.372 0 00-.288.008.26.26 0 01-.114.019c-.19.006-.38.075-.572.21l-.125-.363a.06.06 0 01.028-.072c.227-.125.47-.204.732-.239.182-.032.365-.036.547-.013zm.053 1.687c-.477-.036-1.056.213-1.002.767.015.15.07.266.167.352.301.267.787.125 1.03-.153.24-.277.18-.63.172-.963a.018.018 0 00-.018-.017c-.015 0-.02.008-.012.024-.01-.03-.035-.042-.073-.038l-.264.028zm3.722-1.691c.318.066.557.217.716.455.168.25.224.543.224.87 0 .667 0 1.334-.003 2.001a3.882 3.882 0 00-.024-.003l-.477-.011a.071.071 0 01-.069-.072 70.7 70.7 0 00-.007-1.78c-.006-.369-.09-.773-.466-.921-.418-.165-.878.056-1.056.467a1.242 1.242 0 00-.079.47c-.01.593-.01 1.188 0 1.786a.046.046 0 01-.029.044.047.047 0 01-.018.004l-.457.001a.066.066 0 01-.063-.041.07.07 0 01-.005-.026 162.9 162.9 0 01-.003-2.209 6.134 6.134 0 00-.042-.821l.01-.129.484-.01c.02-.001.033.009.037.03l.023.137.017.214c-.02.05-.022.085-.008.106.012.017.024.017.035 0 .192-.299.477-.483.854-.552l.406-.01zm3.612.004l.597.146c.026.007.035.023.027.048l-.116.385c-.008.026-.024.034-.048.023-.754-.32-1.624-.064-1.782.806-.198 1.092.718 1.822 1.764 1.361.054-.024.087-.007.097.052l.055.303c.009.052-.012.086-.063.1a4.648 4.648 0 01-.659.148h-.345a3.98 3.98 0 01-.313-.064c-.501-.123-.843-.423-1.026-.9a1.915 1.915 0 01-.111-.999c.1-.629.45-1.06 1.048-1.295.117-.045.277-.08.481-.105.129-.028.26-.031.394-.01zm2.783 0c.199.029.378.1.537.212.465.328.632.995.563 1.534a.05.05 0 01-.05.043h-2.186a.06.06 0 00-.043.018.059.059 0 00-.016.044c.089 1.103 1.113 1.257 1.97.914.018-.007.032-.004.044.01.09.1.048.241.116.351l-.004.084a.467.467 0 00-.008-.017c-.005-.01-.013-.014-.024-.01-.127.048-.249.099-.383.122-.148.026-.297.048-.449.068l-.415-.002c-.095-.028-.207-.035-.287-.056-.722-.187-1.001-.698-1.126-1.387l-.003-.388c.014-.043.032-.137.052-.282.019-.13.086-.3.203-.511.221-.403.568-.649 1.039-.738.142-.032.299-.035.47-.01zM87.7 24.578l-.028.065c-.031.012-.04.04-.024.085a.046.046 0 00.032.03c.02.007.04.008.06.003a.2.2 0 01.043-.006l1.507-.006a.092.092 0 00.079-.044.09.09 0 00.002-.09.214.214 0 01-.027-.09c-.028-.474-.411-.778-.873-.735-.411.04-.708.367-.79.764-.002.015.004.023.019.024zm16.561-1.208c.268.045.492.154.671.328.356.344.481.919.434 1.412-.003.034-.022.051-.056.051h-2.184a.06.06 0 00-.043.02.074.074 0 00-.012.02.063.063 0 00-.002.024c.017.17.041.35.117.501.346.686 1.243.659 1.851.41a.05.05 0 01.02-.003.045.045 0 01.034.018.04.04 0 01.009.018l.081.341c.003.015-.002.026-.016.033-.263.139-.499.156-.856.204l-.359-.001a5.855 5.855 0 00-.237-.049 1.396 1.396 0 01-1.024-.736 2 2 0 01-.184-.6l-.001-.5c.062-.457.234-.825.517-1.105a1.44 1.44 0 01.764-.379c.154-.027.313-.03.476-.006zm.521 1.343l-.015-.209c-.021-.26-.126-.453-.313-.579a.82.82 0 00-.586-.128c-.461.063-.719.471-.787.904a.045.045 0 00.002.02.04.04 0 00.009.018.048.048 0 00.036.016l1.63-.004a.038.038 0 00.02-.006.026.026 0 00.01-.015c.001-.004-.001-.01-.006-.017zm3.119-1.33a.959.959 0 01.672.59.04.04 0 00.01.015.034.034 0 00.017.006c.007 0 .013 0 .018-.004a.03.03 0 00.013-.012c.185-.32.463-.521.834-.603l.415-.005c.68.168.882.78.87 1.399a49.97 49.97 0 00-.004 1.857.052.052 0 01-.014.035.053.053 0 01-.036.016l-.422.011a.08.08 0 01-.072.007c-.016-.005-.024-.016-.024-.033l-.027-1.94a.843.843 0 00-.063-.458c-.271-.648-1.117-.49-1.311.123a.883.883 0 00-.042.192c-.012.2-.016.552-.013 1.056l-.001.007a.045.045 0 01-.007.012.018.018 0 00-.003.01c-.006.316-.002.632.014.948a.075.075 0 01-.003.022.066.066 0 01-.012.018.043.043 0 01-.017.013.057.057 0 01-.021.005l-.454.014c-.016.019-.033.022-.052.011a.044.044 0 01-.022-.039c.001-.675.026-1.363-.026-2.035a.153.153 0 00.02-.124c-.073-.241-.119-.434-.353-.567-.282-.162-.635-.07-.85.168a.978.978 0 00-.254.67c-.002.623-.002 1.245.002 1.867a.04.04 0 01-.012.027.037.037 0 01-.027.011l-.508.004c-.019-.008-.028-.03-.028-.067.004-.572.004-1.413.001-2.522a6.862 6.862 0 00-.026-.547c-.006-.069.025-.103.094-.103h.377a.09.09 0 01.044.013l.031.02.008.3c-.014.05-.014.1.001.15.006.018.013.019.023.003.136-.217.345-.417.595-.491a5.5 5.5 0 00.178-.057c.153-.023.309-.02.467.007zm-15.039-.013l.43.002c.18.02.364.07.548.152a.087.087 0 01.047.107l-.109.328c.008 0 .006.006-.007.018a.078.078 0 01-.074 0 1.034 1.034 0 00-.511-.14l-.21.002c-.218-.01-.352.08-.403.273a.56.56 0 00.001.304.813.813 0 00.414.32c.39.142.837.316.973.736.117.358.011.83-.33 1.045a1.538 1.538 0 01-.656.224l-.334.003c-.328-.042-.53-.096-.721-.193-.033-.017-.044-.043-.033-.079l.117-.354a.046.046 0 01.048-.03c.007 0 .014.002.02.006.24.146.5.216.782.21a.316.316 0 01.13-.036c.015.018.04.022.078.01.28-.088.401-.26.367-.518-.026-.19-.214-.392-.385-.445-.382-.12-.816-.317-.984-.637-.218-.416-.023-.89.348-1.14.082-.056.234-.112.454-.168zm5.794.004l.449-.001c.182.026.36.078.532.156a.074.074 0 01.04.09l-.102.315c.01-.005.003.013-.022.056a1.585 1.585 0 00-.548-.152l-.247-.002c-.305.02-.447.18-.427.483.017.245.381.404.587.474.225.077.648.278.758.504.3.618.027 1.185-.61 1.386-.095.03-.209.032-.313.062l-.335-.002a3.44 3.44 0 01-.555-.12c-.057-.017-.103-.052-.155-.076-.032-.015-.043-.039-.032-.072l.118-.357c.01-.033.031-.04.062-.023.235.14.49.21.762.21a.428.428 0 01.143-.033c.03.015.062.016.098.004.275-.094.395-.267.36-.522-.031-.216-.221-.375-.413-.45-.42-.164-1.011-.36-1.029-.911-.004-.128-.009-.268.039-.386.139-.345.419-.556.84-.633zm-59.819.05c.02-.003.034 0 .04.01l.535.003a.078.078 0 01.072.05c.243.655.486 1.313.729 1.976.063.173.113.331.15.474.018.072.039.073.062.003.02-.06.027-.127.046-.183.253-.751.509-1.509.768-2.271a.062.062 0 01.058-.042l.526-.01a.04.04 0 01.032.017.039.039 0 01.004.036c-.361.954-.731 1.911-1.108 2.872-.186.472-.39.852-.613 1.138a1.871 1.871 0 01-.914.64.073.073 0 01-.08-.023.073.073 0 01-.014-.026l-.11-.35a.084.084 0 01.048-.104 1.78 1.78 0 00.934-.875.364.364 0 00.026-.311c-.392-.978-.787-1.955-1.184-2.931-.014-.034-.005-.059-.007-.093zM96.65 25.38c-.21.548-.362.928-.454 1.141-.297.691-.679 1.363-1.436 1.61a.095.095 0 01-.12-.06l-.108-.344a.069.069 0 01.04-.085c.433-.178.752-.479.957-.903.086-.177.044-.24-.035-.433-.374-.927-.752-1.858-1.135-2.792a.053.053 0 01.025-.067.054.054 0 01.025-.007l.546-.002c.022 0 .037.01.044.031l.913 2.51a.013.013 0 00.013.008.014.014 0 00.008-.002.014.014 0 00.004-.007c.068-.258.145-.512.23-.761l.593-1.742c.008-.022.024-.034.047-.034l.51-.002a.054.054 0 01.044.022.052.052 0 01.006.05c-.242.631-.48 1.255-.717 1.87z" fill="#58585A"/><path d="M15.982 35.175c-.787.202-1.6.311-2.436.33l-.771.004c-2.337-.077-4.576-.8-6.713-1.83-.349-.169-.704-.373-1.055-.565a27.562 27.562 0 01-4.282-2.919c-.138-.114-.19-.186-.189-.376l.001-3.398a.206.206 0 00-.021-.078c.022-.007.038-.008.046-.004 2.6 1.363 5.391 2.457 8.252 3.138 1.523.363 3.07.576 4.597.572 1.7-.005 3.44-.285 5.078-.736a29.33 29.33 0 006.694-2.764.03.03 0 01.014-.003.028.028 0 01.028.027c-.007 1.097-.003 2.186.01 3.266a.362.362 0 01-.123.287 44.15 44.15 0 01-.798.696c-.297.252-.794.628-1.493 1.126-.733.524-1.497 1-2.29 1.43l-.545.294c-.13.07-.264.137-.402.2l-.41.187a18.04 18.04 0 01-3.192 1.116z" fill="#62BC4D"/></svg>