<svg width="84" height="38" fill="none" xmlns="http://www.w3.org/2000/svg"><g clip-path="url(#clip0_276_9445)"><path d="M67.259 8.977l3.316 3.579 3.192-3.58h6.818l-6.663 7.338 6.754 7.398h-7.092l-3.285-3.608-3.255 3.608h-6.849l6.695-7.367-6.695-7.368h7.064zm-7.065-.001v4.98H52.61v4.568h7.583v5.188H47.038V.5h13.154v5.174H52.61v3.302h7.583z" fill="#FF5900"/><path d="M41.491.5V10h-.061c-1.23-1.383-2.764-1.864-4.545-1.864-3.648 0-6.396 2.43-7.36 5.64-1.101-3.538-3.939-5.707-8.146-5.707-3.416 0-6.114 1.502-7.522 3.95V8.975H6.795V5.674h7.707V.5H.5v23.212h6.295v-9.757h6.275a9.068 9.068 0 00-.287 2.295c0 4.841 3.777 8.24 8.596 8.24 4.053 0 6.725-1.864 8.137-5.261H24.12c-.73 1.021-1.283 1.323-2.742 1.323-1.691 0-3.15-1.445-3.15-3.158h10.985c.477 3.846 3.536 7.162 7.733 7.162 1.81 0 3.468-.872 4.482-2.345h.061v1.503h5.549V.5H41.49zM18.405 14.024c.35-1.475 1.518-2.438 2.975-2.438 1.605 0 2.713.934 3.005 2.438h-5.98zm19.718 6.154c-2.046 0-3.318-1.867-3.318-3.816 0-2.083 1.106-4.086 3.318-4.086 2.292 0 3.206 2.003 3.206 4.086 0 1.975-.968 3.816-3.206 3.816zm8.917 15.141V27h4.692v.621h-3.919v3.067h3.753v.62h-3.753v3.388h4.093v.622H47.04zm5.429 0l2.288-2.988-2.17-2.826h.88l1.771 2.31 1.736-2.31h.88l-2.205 2.826 2.298 2.987h-.89l-1.901-2.47-1.806 2.47h-.881zm6.966 2.181h-.716v-6.26c0-.574 0-1.159-.035-1.734h.705l.023.873c.444-.69 1.031-1.01 1.912-1.01 1.83 0 2.614 1.48 2.614 3.042 0 1.564-.785 3.045-2.614 3.045-.822 0-1.467-.31-1.889-.977V37.5zm3.742-5.089c0-1.24-.53-2.458-1.936-2.458-1.325 0-1.806 1.069-1.806 2.458 0 1.39.481 2.458 1.806 2.458 1.408 0 1.936-1.217 1.936-2.458zm4.44-2.367c-1.185 0-1.597.978-1.597 1.988v3.287h-.716v-4.103c0-.563-.011-1.136-.035-1.71h.706l.046.838c.352-.665.94-.976 1.725-.976.106 0 .223.011.329.023v.701c-.165-.025-.294-.048-.458-.048zm1.336 2.494c0 1.308.632 2.388 1.934 2.388 1.007 0 1.477-.654 1.653-1.309h.68c-.317 1.218-1.08 1.84-2.428 1.84-1.806 0-2.605-1.31-2.605-2.941 0-1.666.833-3.148 2.699-3.148 1.888 0 2.393 1.619 2.393 3.17h-4.326zm.022-.528h3.542c0-1.138-.55-2.114-1.677-2.114-1.02-.001-1.725.757-1.865 2.114zm7.1 3.446c-1.22 0-2.134-.564-2.134-1.839h.716c0 .873.586 1.31 1.455 1.31.81 0 1.442-.38 1.442-1.16 0-.7-.739-.885-1.512-1.103-.938-.264-1.96-.552-1.96-1.677 0-1.251 1.068-1.619 2.065-1.619 1.148 0 2.006.435 2.04 1.642h-.716c-.034-.689-.539-1.08-1.301-1.08-.598 0-1.326.23-1.326.988 0 .69.728.886 1.502 1.092.94.252 1.97.528 1.97 1.654 0 1.309-1.032 1.792-2.241 1.792zm4.958 0c-1.22 0-2.135-.564-2.135-1.839h.717c0 .873.585 1.31 1.455 1.31.81 0 1.442-.38 1.442-1.16 0-.7-.74-.885-1.513-1.103-.938-.264-1.958-.552-1.958-1.677 0-1.251 1.067-1.619 2.065-1.619 1.148 0 2.005.435 2.04 1.642h-.716c-.035-.689-.54-1.08-1.302-1.08-.598 0-1.325.23-1.325.988 0 .69.727.886 1.502 1.092.939.252 1.97.528 1.97 1.654-.001 1.309-1.034 1.792-2.242 1.792z" fill="#2A007C"/></g><defs><clipPath id="clip0_276_9445"><path fill="#fff" transform="translate(.5 .5)" d="M0 0h83v37H0z"/></clipPath></defs></svg>