<svg width="92" height="24" fill="none" xmlns="http://www.w3.org/2000/svg"><g clip-path="url(#clip0_44_15934)"><path d="M29.42 5.1c-.19 0-.35.129-.38.305l-2.192 13.107a.318.318 0 00.081.27.374.374 0 00.27.117h2.6a.38.38 0 00.38-.306l.643-3.848a.378.378 0 01.38-.306h2.363c2.761 0 5.105-1.9 5.533-4.475.432-2.595-1.719-4.86-4.767-4.865h-4.912zm2.526 2.925h1.89c1.557 0 2.064.866 1.904 1.824-.16.96-.947 1.667-2.453 1.667h-1.925l.584-3.49zm12.439.891c-.657.002-1.412.13-2.26.462-1.944.764-2.878 2.344-3.275 3.496 0 0-1.262 3.514 1.59 5.444 0 0 2.645 1.859 5.622-.114l-.051.308a.32.32 0 00.081.27.374.374 0 00.27.118h2.467c.19 0 .35-.13.38-.306l1.501-8.976a.317.317 0 00-.08-.27.374.374 0 00-.27-.118h-2.468c-.19 0-.35.13-.38.306l-.08.483s-1.078-1.11-3.047-1.103zm.08 2.835c.284 0 .543.037.775.107 1.065.323 1.669 1.287 1.494 2.332-.215 1.288-1.335 2.236-2.77 2.236a2.69 2.69 0 01-.776-.107c-1.064-.323-1.672-1.287-1.497-2.333.216-1.287 1.339-2.235 2.774-2.235z" fill="#003087"/><path d="M64.95 5.1a.377.377 0 00-.379.305l-2.192 13.107a.317.317 0 00.081.27.373.373 0 00.27.117h2.6c.19 0 .35-.13.38-.306l.644-3.848a.378.378 0 01.38-.306h2.363c2.76 0 5.104-1.9 5.532-4.475.432-2.595-1.719-4.86-4.767-4.865h-4.911zm2.527 2.925h1.891c1.557 0 2.064.866 1.903 1.824-.16.96-.947 1.667-2.453 1.667h-1.924l.583-3.49zm12.439.891c-.657.002-1.412.13-2.26.462-1.945.764-2.878 2.344-3.275 3.496 0 0-1.262 3.514 1.59 5.444 0 0 2.645 1.859 5.623-.114l-.052.308a.317.317 0 00.081.27.374.374 0 00.27.117h2.468c.19 0 .35-.13.38-.306l1.501-8.975a.317.317 0 00-.08-.27.374.374 0 00-.27-.118h-2.469c-.19 0-.35.13-.38.306l-.08.483s-1.078-1.11-3.047-1.103zm.08 2.835c.284 0 .543.037.775.107 1.065.323 1.668 1.287 1.494 2.332-.216 1.288-1.335 2.236-2.77 2.236a2.69 2.69 0 01-.776-.107c-1.064-.323-1.671-1.287-1.497-2.333.216-1.287 1.339-2.235 2.774-2.235z" fill="#0070E0"/><path d="M51.883 9.23c-.196 0-.335.18-.275.355l2.705 7.916-2.446 3.73c-.119.181.02.415.245.415h2.89c.084 0 .165-.02.237-.058a.47.47 0 00.175-.16l7.555-11.786c.116-.18-.023-.413-.247-.413h-2.89a.504.504 0 00-.239.06.468.468 0 00-.175.163l-2.974 4.735-1.51-4.7a.383.383 0 00-.368-.258h-2.683z" fill="#003087"/><path d="M89.045 5.1a.379.379 0 00-.38.305l-2.192 13.107a.319.319 0 00.081.27.375.375 0 00.27.118h2.6a.38.38 0 00.38-.306l2.191-13.107a.316.316 0 00-.08-.27.355.355 0 00-.27-.118h-2.6z" fill="#0070E0"/><path d="M7.75 5.1a.73.73 0 00-.456.158.655.655 0 00-.238.4L5.902 12.56c.054-.322.349-.56.695-.56h3.38c3.403 0 6.29-2.34 6.817-5.512.04-.237.062-.476.067-.716-.865-.427-1.88-.672-2.993-.672H7.75z" fill="#001C64"/><path d="M16.863 5.771c-.005.24-.027.48-.067.716-.527 3.172-3.414 5.512-6.817 5.512H6.6c-.346 0-.641.238-.695.56l-1.06 6.34-.665 3.979a.508.508 0 00.13.433c.053.06.12.107.195.14a.6.6 0 00.239.049h3.67a.722.722 0 00.456-.16.655.655 0 00.237-.4l.967-5.78a.655.655 0 01.238-.401.73.73 0 01.457-.16h2.16c3.403 0 6.29-2.34 6.817-5.512.375-2.251-.827-4.3-2.882-5.316z" fill="#0070E0"/><path d="M3.581.5a.691.691 0 00-.694.56L.007 18.277c-.055.327.213.622.564.622h4.27l1.06-6.34 1.154-6.9a.655.655 0 01.238-.401.73.73 0 01.457-.16h6.117c1.113 0 2.129.246 2.993.673C16.92 2.884 14.393.5 10.92.5H3.58z" fill="#003087"/></g><defs><clipPath id="clip0_44_15934"><path fill="#fff" transform="translate(0 .5)" d="M0 0h92v23H0z"/></clipPath></defs></svg>