<svg width="86" height="22" fill="none" xmlns="http://www.w3.org/2000/svg"><g clip-path="url(#clip0_276_9659)" fill-rule="evenodd" clip-rule="evenodd"><path d="M85.5.775S83.918.582 82.051.582c-1.82 0-3.353.193-3.353.193v6.039h6.8V.774zm0 14.251h-6.8v6.136s1.915.193 3.447.193c1.533 0 3.352-.241 3.352-.241v-6.088z" fill="#E4003E"/><path d="M74.628.775h-8.38l-5.842 7.392h-2.73V.775h-7.23V21.21h7.23v-7.682h2.634l5.89 7.682h8.955l-8.763-10.87L74.628.775zm-51.286 0H.5V21.21h7.327V6.572h8.188v14.639h7.327V.775zm3.544 5.411L25.832.776S32.68.243 36.942.243s9.386.531 9.386.531 1.58 4.155 1.58 10c0 5.846-1.628 10.436-1.628 10.436s-4.885.531-9.386.531c-4.502 0-11.062-.531-11.062-.531l1.053-5.411s4.598.338 8.524.338c3.927 0 5.46-.338 5.46-.338s.191-1.014.287-2.174H31.77V8.408h9.434c-.096-1.352-.288-2.174-.288-2.174s-3.208-.338-5.938-.338c-2.777-.048-8.093.29-8.093.29z" fill="#242265"/></g><defs><clipPath id="clip0_276_9659"><path fill="#fff" transform="translate(.5)" d="M0 0h85v22H0z"/></clipPath></defs></svg>