<svg width="52" height="20" fill="none" xmlns="http://www.w3.org/2000/svg"><g clip-path="url(#clip0_44_15976)"><path fill-rule="evenodd" clip-rule="evenodd" d="M3.965.5l-.867 2.466H15.11L15.977.5H3.965zm-1.3 3.698l-.867 2.466H13.81l.867-2.466H2.665zM1.367 7.897L.5 10.363h12.012l.866-2.466H1.367z" fill="#009FDF"/><mask id="a" style="mask-type:luminance" maskUnits="userSpaceOnUse" x="18" y="4" width="34" height="16"><path d="M18.523 19.352h32.882V4.246H18.523v15.106z" fill="#fff"/></mask><g mask="url(#a)"><path fill-rule="evenodd" clip-rule="evenodd" d="M26.038 11.302v.052a5.04 5.04 0 011.348.81c.85.732 1.224 1.7 1.224 2.954 0 2.065-1.049 3.555-2.772 4.025-.524.157-1.073.21-2.097.21h-5.218V4.245h4.62c.948 0 1.597.052 2.171.209 1.673.47 2.771 1.673 2.771 3.58 0 1.02-.35 1.883-.923 2.457-.25.261-.6.575-1.124.81zm-4.619 1.595v3.972h1.998c.599 0 1.148-.052 1.548-.444.4-.392.574-.889.574-1.542 0-.496-.125-.967-.375-1.307-.424-.549-.948-.68-1.847-.68h-1.898zm-.025-2.614h1.623c.5 0 .749 0 .999-.078.674-.21 1.099-.836 1.099-1.7 0-1.018-.45-1.463-1.1-1.672-.274-.078-.548-.104-1.098-.104h-1.523v3.554zm11.56 9.07V6.78h-4.17V4.246H40.37l-.823 2.535H35.85v12.571h-2.896zm8.314 0V4.245h9.388l-.824 2.535H44.14v3.345h2.322c1.873 0 2.847.47 3.52 1.072.525.47 1.424 1.515 1.424 3.58 0 2.04-.924 3.163-1.698 3.738-.898.653-1.847.836-3.77.836h-4.67zm2.871-2.536h2.173c.823 0 1.323-.21 1.672-.68.175-.235.425-.653.425-1.437s-.25-1.333-.75-1.725c-.298-.235-.698-.365-1.372-.365h-2.148v4.207z" fill="#0A2973"/></g></g><defs><clipPath id="clip0_44_15976"><path fill="#fff" transform="translate(.5 .5)" d="M0 0h51v19H0z"/></clipPath></defs></svg>