<svg width="122" height="18" fill="none" xmlns="http://www.w3.org/2000/svg"><g clip-path="url(#clip0_276_9429)" fill="#D40511"><path d="M.5 16.225h14.672l-.843 1.19H.5v-1.19zm120.999 1.19h-17.96l.928-1.19h17.117v1.19h-.085zM.5 14.015h16.358l-.927 1.19H.5v-1.19zm0-2.21h18.045l-.928 1.19H.5v-1.19zm121 3.4h-16.273l.927-1.19h15.431v1.19h-.085zm-13.744-3.4H121.5v1.19h-14.672l.928-1.19zm-91.404 5.61L24.109 6.96h9.613c1.096 0 1.096.425.505 1.105-.505.68-1.433 1.955-1.939 2.635-.253.425-.759 1.02.843 1.02h12.901c-1.011 1.53-4.553 5.78-10.793 5.78-5.059-.085-18.887-.085-18.887-.085zm44.438-5.61L56.572 17.5H45.527l4.216-5.695H60.79zm16.103 0L72.677 17.5h-11.13l4.216-5.695h11.13zm3.625 0s-.843 1.105-1.18 1.615c-1.434 1.87-.169 4.08 4.385 4.08h17.876l4.216-5.695H80.518z"/><path d="M21.832.5l-3.879 5.185h21.08c1.096 0 1.096.425.506 1.105-.506.68-1.433 1.955-1.94 2.635-.252.34-.758 1.02.844 1.02h8.6s1.434-1.87 2.53-3.485c1.602-2.125.169-6.545-5.48-6.545C39.032.5 21.832.5 21.832.5zm55.991 9.945H50.672L58.092.5h11.13l-4.216 5.695h4.975L74.197.5h11.13l-7.504 9.945zM100.67.5l-7.42 9.945H81.445L88.865.5h11.805z"/></g><defs><clipPath id="clip0_276_9429"><path fill="#fff" transform="translate(.5 .5)" d="M0 0h121v17H0z"/></clipPath></defs></svg>