<svg width="100" height="22" fill="none" xmlns="http://www.w3.org/2000/svg"><g clip-path="url(#clip0_44_15961)" fill="#EF3124"><path fill-rule="evenodd" clip-rule="evenodd" d="M96.573 4.57L93.16 8.49V4.57h-2.47v9.897h2.47V10.3l3.652 4.167h3.189L95.51 9.28l4.167-4.711h-3.105zM86.336 8.261h-3.412V4.57h-2.47v9.897h2.47v-3.902h3.412v3.902h2.469V4.57h-2.47v3.69zM14.663 9.929c-.059 1.846-.29 2.214-1.304 2.214v2.324h.378c2.524 0 3.13-1.336 3.224-4.306l.103-3.289h2.366v7.599h2.47V4.57h-7.065l-.172 5.359zm13.184 2.358h-1.595V9.774h1.595c.857 0 1.372.387 1.372 1.213 0 .896-.497 1.3-1.372 1.3zm.189-4.711h-1.784V4.57h-2.47v9.897h4.287c2.691 0 3.652-1.793 3.652-3.48.002-2.184-1.337-3.411-3.685-3.411zm11.728 4.729v-5.59C41.136 6.906 42 7.957 42 9.505s-.857 2.602-2.23 2.796l-.006.003zm-2.47 0c-1.373-.194-2.23-1.248-2.23-2.796 0-1.548.858-2.602 2.23-2.795v5.591zm2.47-7.965V.666h-2.47V4.34c-2.828.24-4.731 2.304-4.731 5.166 0 2.862 1.903 4.941 4.732 5.187v3.728h2.47v-3.725c2.83-.23 4.733-2.304 4.733-5.19 0-2.886-1.904-4.936-4.734-5.166zm11.522 6.433c0 1.143-.79 1.793-1.818 1.793-.892 0-1.594-.334-1.594-1.319 0-.985.771-1.126 1.44-1.126h1.972v.652zm2.47.65V8.1c0-2.426-1.51-3.955-4.046-3.955-2.624 0-4.013 1.616-4.133 3.305h2.504c.085-.37.462-1.003 1.63-1.003.96 0 1.576.457 1.576 1.653h-2.454c-2.196 0-3.497 1.178-3.497 3.147 0 2.06 1.425 3.467 3.48 3.467 1.51 0 2.345-.73 2.71-1.283.325.668 1.046 1.037 1.989 1.037h.857V12.18c-.446 0-.617-.21-.617-.754l.001-.003zm10.458.547h-2.641V8.38h2.64c1.373 0 2.144.65 2.144 1.793 0 1.178-.77 1.793-2.143 1.793v.004zm.12-5.995h-2.761V3.181h6.396V.666h-8.985v13.8h5.353c2.966 0 4.667-1.51 4.667-4.289-.006-2.618-1.704-4.202-4.67-4.202zm11.644 4.798c0 1.143-.789 1.793-1.818 1.793-.89 0-1.595-.334-1.595-1.319 0-.985.773-1.126 1.441-1.126h1.972v.652zm2.471.65V8.1c0-2.426-1.51-3.955-4.047-3.955-2.62.004-4.014 1.62-4.13 3.31h2.503c.087-.37.464-1.004 1.63-1.004.96 0 1.578.457 1.578 1.653h-2.457c-2.196 0-3.499 1.178-3.499 3.147 0 2.056 1.426 3.463 3.482 3.463 1.51 0 2.343-.73 2.708-1.283.327.668 1.047 1.037 1.99 1.037h.857V12.18c-.445 0-.616-.21-.616-.754l.001-.003z"/><path d="M13.203 18.687H0V21.5h13.203v-2.813z"/><path fill-rule="evenodd" clip-rule="evenodd" d="M4.715 9.246l1.851-5.65h.069l1.749 5.65h-3.67zM9 2.56C8.624 1.41 8.19.5 6.704.5c-1.487 0-1.95.905-2.345 2.06L.273 14.467h2.71l.943-2.83H9.14l.877 2.83H12.9L9.001 2.56z"/></g><defs><clipPath id="clip0_44_15961"><path fill="#fff" transform="translate(0 .5)" d="M0 0h100v21H0z"/></clipPath></defs></svg>