<svg width="64" height="38" fill="none" xmlns="http://www.w3.org/2000/svg"><path d="M32.145 33c3.8-3.5 6.2-8.5 6.2-14 0-5.6-2.4-10.6-6.2-14-3.4-3-7.8-4.9-12.7-4.9-10.5 0-19 8.5-19 18.9 0 10.5 8.5 19 19 19 4.9-.1 9.3-2 12.7-5z" fill="#3362AB"/><path d="M32.145 33c3.8-3.5 6.2-8.5 6.2-14 0-5.6-2.4-10.6-6.2-14" fill="#3362AB"/><path d="M32.145 33c3.8-3.5 6.2-8.5 6.2-14 0-5.6-2.4-10.6-6.2-14" stroke="#3362AB" stroke-width=".31"/><path d="M44.846 0c-4.9 0-9.4 1.9-12.7 4.9-.7.6-1.3 1.3-1.9 2h3.8c.5.6 1 1.3 1.4 2h-6.7c-.4.6-.8 1.3-1.1 2h8.9c.3.7.6 1.3.8 2h-10.5c-.2.7-.4 1.3-.6 2h11.6c.3 1.3.4 2.6.4 4 0 2.1-.3 4.1-1 6h-10.5c.2.7.5 1.4.8 2h8.9c-.3.7-.7 1.4-1.1 2h-6.7c.4.7.9 1.4 1.4 2h3.8c-.6.7-1.2 1.4-1.9 2 3.4 3 7.8 4.9 12.7 4.9 10.5 0 18.9-8.5 18.9-19 .3-10.3-8.2-18.8-18.7-18.8z" fill="#C9191B"/><path d="M17.044 23.6h-2.4l1.4-7.4-3.2 7.4h-2.1l-.4-7.3-1.4 7.3h-2.1l1.8-9.6h3.7l.2 6 2.6-6h3.8l-1.9 9.6zm26.4 0c-.6.2-1.2.3-1.7.3-1.2 0-1.9-.6-1.9-1.7 0-.2 0-.5.1-.7l.1-.8.1-.6 1.1-6h2.3l-.3 1.8h1.2l-.3 1.9h-1.2l-.6 3.3v.3c0 .4.3.6.8.6.3 0 .5 0 .6-.1l-.3 1.7zm6.802-7.7c-.2-.1-.2-.1-.3-.1h-.5c-.8 0-1.3.3-2.1 1.3l.2-1.2h-1.9l-1.4 7.8h2.4c.8-4.8 1.2-5.6 2.3-5.6h.3l.3.1.7-2.3zm-16.202 2.4c0 1 .6 1.7 1.8 2.2 1 .4 1.1.5 1.1.9 0 .5-.4.7-1.4.7-.7 0-1.4-.1-2.1-.3l-.3 1.8h.1l.4.1c.1 0 .4.1.6.1.6 0 1 .1 1.3.1 2.5 0 3.7-.8 3.7-2.6 0-1.1-.5-1.7-1.7-2.2-1-.4-1.1-.5-1.1-.9s.4-.6 1.2-.6c.5 0 1.1 0 1.7.1l.3-1.8c-.6-.1-1.5-.2-2.1-.2-2.6 0-3.5 1.2-3.5 2.6zm-10.998 1.9h-.5c-1.3 0-2 .4-2 1.2 0 .5.3.8.8.8.9-.1 1.6-.9 1.7-2zm1.7 3.4h-2l.1-.8c-.6.6-1.4.9-2.5.9-1.3 0-2.1-.9-2.1-2.1 0-1.9 1.5-3 4.1-3 .3 0 .6 0 1 .1.1-.3.1-.4.1-.5 0-.5-.4-.7-1.5-.7-.7 0-1.4.1-1.9.2l-.3.1-.2.1.3-1.8c1.2-.3 1.9-.4 2.8-.4 2 0 3.1.8 3.1 2.3 0 .4 0 .7-.2 1.5l-.5 2.8-.1.5-.1.4v.3l-.1.1zm6.501-4.8v-.4c0-.6-.4-1-1.1-1-.8 0-1.3.5-1.5 1.4h2.6zm1.2 4.7c-.8.2-1.6.3-2.4.3-2.6 0-4-1.2-4-3.5 0-2.7 1.7-4.7 4.1-4.7 1.9 0 3.2 1.1 3.2 2.8 0 .6-.1 1.1-.3 1.9h-4.7v.2c0 .9.7 1.4 2.1 1.4.8 0 1.6-.2 2.5-.5l-.5 2.1zm22.697-4.4c0-.8-.3-1.6-1.3-1.6-1.2 0-1.9 1.4-1.9 2.7 0 1.1.5 1.8 1.4 1.8.5 0 1.6-.7 1.8-1.9v-1zm2.5 1c-.4 2.6-2.2 3.8-4.6 3.8-2.7 0-3.7-1.6-3.7-3.6 0-2.8 1.8-4.6 4.6-4.6 2.5 0 3.7 1.5 3.7 3.5.1.4.1.4 0 .9z" fill="#fff"/></svg>