<svg width="102" height="32" fill="none" xmlns="http://www.w3.org/2000/svg"><path fill-rule="evenodd" clip-rule="evenodd" d="M.5.102h101v31.796H.5V.102z" fill="#CC1626"/><path fill-rule="evenodd" clip-rule="evenodd" d="M35.741 14.917c.37 0 .733-.098 1.047-.293.622-.377.964-1.033.964-1.76 0-.747-.363-1.43-1.02-1.8a1.971 1.971 0 00-.99-.266c-.357 0-.699.09-1.006.272-.642.377-.999 1.054-.999 1.795 0 .719.335 1.375.95 1.752.314.202.677.3 1.054.3zm-9.062-2.841v-3.31h1.78c.454 0 .845.168 1.166.489v.007c.335.314.489.698.489 1.152 0 .46-.168.845-.489 1.173a1.598 1.598 0 01-1.166.489h-1.78zm0 1.654h1.78c.44 0 .873-.09 1.285-.265a3.468 3.468 0 001.054-.712c.3-.3.538-.656.705-1.047a3.17 3.17 0 00.266-1.292 3.1 3.1 0 00-.266-1.278 3.337 3.337 0 00-.705-1.047 3.6 3.6 0 00-1.054-.712 3.273 3.273 0 00-1.285-.258h-3.428v9.16h1.648V13.73zm11.178 1.767c-.573.607-1.39.935-2.242.935-1.99 0-3.442-1.606-3.442-3.567 0-1.955 1.446-3.582 3.442-3.582.852 0 1.67.335 2.242.95V9.36h1.556v6.988h-1.556v-.851zm8.182-.112c-.496.6-1.27.887-2.053.887-2.038 0-3.057-1.41-3.057-3.352V9.367h1.57v3.47c0 1.159.468 1.92 1.69 1.92 1.313 0 1.864-.95 1.864-2.179V9.367h1.55v6.011c0 2.095-1.299 3.54-3.428 3.54-1.11 0-2.164-.356-3.016-1.069l-.09-.07.907-.97.077.042c.67.405 1.326.622 2.122.622 1.166 0 1.864-.629 1.864-1.809v-.279z" fill="#fff"/><path fill-rule="evenodd" clip-rule="evenodd" d="M72.675 11.252l.05-.098c.006-.007.006-.021.013-.028v-.007l.049-.09h.007l.014-.029.014-.014.014-.035h.007a.612.612 0 01.042-.07l.007-.013a.149.149 0 00.02-.035l.008-.007.028-.035v-.007c.028-.042.055-.077.083-.112v-.007a.121.121 0 00.028-.035h.007a3.456 3.456 0 012.751-1.361h.147c1.954.042 3.365 1.633 3.365 3.567 0 1.962-1.445 3.582-3.442 3.582a2.694 2.694 0 01-2.025-.908v3.296h-1.557v-6.123h.007c.014-.433.112-.859.287-1.264l.006-.014.007-.028.014-.02.014-.036.014-.034.021-.035zM49.168 7.104h1.655v9.16h-1.655v-9.16zm3.91 4.594l3.819 4.594h-2.179l-3.679-4.594 3.68-4.594h2.178l-3.82 4.594zm5.222 1.6c.056 1.095.936 1.66 1.997 1.66.74 0 1.48-.202 2.122-.579l.07-.041.873.928-.098.077c-.859.656-1.871 1.061-2.967 1.061-2.095 0-3.61-1.466-3.61-3.568 0-2.052 1.452-3.581 3.526-3.581 1.41 0 2.541.677 3.1 1.969.237.558.307 1.417.125 1.996l-.027.077H58.3zm7.7 0c.057 1.095.936 1.66 1.998 1.66.747 0 1.487-.202 2.122-.579l.077-.041.865.928-.09.077c-.866.656-1.878 1.061-2.974 1.061-2.095 0-3.603-1.466-3.603-3.568 0-2.052 1.445-3.581 3.526-3.581 1.403 0 2.534.677 3.093 1.969.244.558.307 1.417.125 1.996l-.02.077H66zm15.863 0c.056 1.095.936 1.66 1.997 1.66.74 0 1.487-.202 2.122-.579l.077-.048.866.935-.098.077c-.859.656-1.871 1.061-2.967 1.061-2.095 0-3.603-1.466-3.603-3.568 0-2.052 1.446-3.581 3.526-3.581 1.403 0 2.534.677 3.093 1.969.244.558.307 1.417.126 1.996l-.021.077h-5.118zm-8.015-.462c0 2.842 3.917 2.605 3.917 0 0-2.604-3.917-2.841-3.917 0zm-15.457-.781h3.588a1.586 1.586 0 00-.118-.35c-.307-.649-.915-1.005-1.634-1.005-.782 0-1.522.426-1.787 1.194-.021.049-.035.105-.05.16zm7.7 0h3.596a1.603 1.603 0 00-.126-.35c-.307-.649-.914-1.005-1.626-1.005-.79 0-1.53.426-1.795 1.194-.014.049-.034.105-.049.16zm15.863 0h3.596a1.609 1.609 0 00-.126-.35c-.307-.649-.915-1.005-1.627-1.005-.789 0-1.529.426-1.794 1.187-.021.056-.035.112-.05.168zm7.861-1.78c.622-.692 1.494-1 2.437-1h.363l.007 1.558h-.677c-1.494 0-2.116 1.019-2.116 2.415v3.072h-1.612V9.353h1.598v.921z" fill="#FC0"/><path fill-rule="evenodd" clip-rule="evenodd" d="M27.265 22.157h-1.787v2.779h-.447v-3.198h2.688v3.198h-.454v-2.779zm3.638 0h-1.34c0 .635-.008 1.466-.168 2.08-.077.287-.21.594-.51.699a.93.93 0 01-.335.049c-.105 0-.258-.021-.356-.05l-.07-.02.084-.426.084.02a.942.942 0 00.21.043.584.584 0 00.153-.021c.21-.056.286-.321.328-.503.146-.6.146-1.431.146-2.052v-.238h2.228v3.198h-.454v-2.779zm3.49.845v-.028c0-.587-.355-.852-.92-.852-.336 0-.63.084-.922.23l-.077.042-.168-.404.07-.035c.363-.168.705-.266 1.11-.266.37 0 .754.084 1.02.356.244.245.334.573.334.915v1.976h-.446v-.37c-.28.293-.664.44-1.082.44-.643 0-1.257-.336-1.257-1.048 0-.775.733-1.068 1.41-1.068.328 0 .621.035.929.112zm2.102-.845h-1.138v-.419h2.73v.419h-1.145v2.779h-.447v-2.779zm2.43 1.375c.077.587.495 1.04 1.11 1.04.405 0 .712-.16.984-.453l.056-.056.321.286-.056.063c-.37.391-.768.594-1.32.594-.935 0-1.57-.775-1.57-1.676 0-.873.614-1.669 1.522-1.669.95 0 1.48.79 1.48 1.676 0 .042-.007.084-.007.126l-.014.07h-2.506zm.258-2.143v-.635h.573v.635h-.573zm.977 0v-.635h.566v.635h-.566zm2.85 1.745l-1.293-1.396h.587l1.627 1.808v-1.808h.453v1.808l1.627-1.808h.587l-1.292 1.396 1.348 1.802h-.559l-1.09-1.473-.62.677v.796h-.454v-.796l-.622-.677-1.089 1.473h-.551l1.34-1.802zm4.565-.048h1.864v-1.348h.454v3.198h-.454v-1.424h-1.864v1.424h-.447v-3.198h.447v1.348zm5.355-.084v-.028c0-.587-.363-.852-.922-.852-.335 0-.628.084-.921.23l-.077.042-.167-.404.07-.035c.362-.168.705-.266 1.11-.266.37 0 .746.084 1.019.356.244.245.335.573.335.915v1.976h-.447v-.37c-.286.293-.663.44-1.082.44-.65 0-1.257-.336-1.257-1.048 0-.775.733-1.068 1.41-1.068.329 0 .615.035.929.112zm1.99.691c-.454-.126-.817-.468-.817-.97 0-.678.58-.985 1.194-.985h1.445v3.198h-.454v-1.173h-.886l-.901 1.173h-.566l.985-1.243zm6.8-1.536h-1.787v2.779h-.454v-3.198h2.688v3.198h-.447v-2.779zm3.637 0h-1.34c0 .635-.007 1.466-.175 2.08-.076.287-.202.594-.51.699a.872.872 0 01-.327.049 1.51 1.51 0 01-.357-.05l-.07-.02.084-.426.084.02c.05.015.154.043.21.043a.584.584 0 00.153-.021c.203-.056.28-.321.328-.503.14-.6.14-1.431.14-2.052v-.238h2.227v3.198h-.447v-2.779zm3.491.845v-.028c0-.587-.363-.852-.921-.852-.336 0-.629.084-.922.23l-.077.042-.167-.404.07-.035c.363-.168.705-.266 1.11-.266.37 0 .747.084 1.019.356.244.245.328.573.328.915v1.976h-.44v-.37a1.49 1.49 0 01-1.089.44c-.642 0-1.25-.336-1.25-1.048 0-.775.733-1.068 1.41-1.068.329 0 .615.035.93.112zm2.102-.845h-1.145v-.419h2.73v.419h-1.138v2.779h-.447v-2.779zm4.014 2.59c-.216.16-.433.259-.726.259-.936 0-1.32-.852-1.32-1.683 0-.824.384-1.662 1.32-1.662.3 0 .51.098.726.266V20.6h.447v1.327a1.09 1.09 0 01.726-.266c.936 0 1.32.845 1.32 1.676 0 .824-.391 1.669-1.32 1.669-.321 0-.51-.084-.726-.252v1.138h-.447v-1.145zm4.678.259c-.936 0-1.64-.747-1.64-1.67 0-.92.718-1.675 1.647-1.675.935 0 1.64.754 1.64 1.676a1.65 1.65 0 01-1.647 1.669zm2.841-2.751c.294-.363.67-.594 1.173-.594.922 0 1.557.782 1.557 1.676 0 .887-.642 1.669-1.557 1.669-.488 0-.88-.21-1.173-.566v1.452h-.453v-4.154h.453v.517zm5.07 1.173l1.2-1.69h.377v3.198h-.447v-2.374l-1.145 1.578-1.13-1.571v2.367h-.44v-3.198h.383l1.201 1.69zm4.621-.426v-.028c0-.587-.363-.852-.922-.852-.335 0-.628.084-.921.23l-.077.042-.168-.404.07-.035c.363-.168.705-.266 1.11-.266.37 0 .747.084 1.02.356.244.245.335.573.335.915v1.976h-.447v-.37c-.286.293-.663.44-1.082.44-.65 0-1.257-.336-1.257-1.048 0-.775.733-1.068 1.41-1.068.329 0 .615.035.929.112zm-57.773.433a3.945 3.945 0 00-.957-.119c-.419 0-.914.14-.914.642 0 .447.398.615.795.615.503 0 1.076-.294 1.076-.86v-.278zm4.53-.322h2.04c-.07-.551-.398-1.026-1.006-1.026-.586 0-.963.489-1.033 1.026zm14.006.322a4.033 4.033 0 00-.956-.119c-.42 0-.915.14-.915.642 0 .447.398.615.796.615.502 0 1.075-.294 1.075-.86v-.278zm3.351-.091v-1.187h-.95c-.376 0-.76.154-.76.58 0 .425.398.607.775.607h.935zm12.567.09a4.031 4.031 0 00-.956-.118c-.42 0-.915.14-.915.642 0 .447.398.615.796.615.503 0 1.075-.294 1.075-.86v-.278zm6.11.817v-1.836c-.196-.195-.413-.314-.699-.314-.698 0-.88.656-.88 1.243 0 .614.16 1.222.88 1.222.286 0 .503-.112.698-.314zm.446-1.836v1.837c.195.202.412.314.698.314.72 0 .873-.622.873-1.23 0-.585-.182-1.235-.873-1.235-.286 0-.502.119-.698.314zm4.238 2.158c.67 0 1.166-.594 1.166-1.236 0-.656-.503-1.243-1.173-1.243s-1.166.587-1.166 1.243c0 .663.496 1.236 1.173 1.236zm3.98-.007c.705 0 1.11-.552 1.11-1.23 0-.655-.433-1.235-1.11-1.235-.678 0-1.166.587-1.166 1.243 0 .65.495 1.222 1.165 1.222zm8.552-1.131a4.033 4.033 0 00-.956-.119c-.42 0-.915.14-.915.642 0 .447.398.615.796.615.503 0 1.075-.294 1.075-.86v-.278zm-78.186-7.121l4.6-4.601-4.6-4.594h3.435l4.6 4.594-4.6 4.6h-3.435zm-6.054 0l4.601-4.601-4.6-4.594h3.434l4.601 4.594-4.6 4.6H7.94z" fill="#fff"/></svg>