<svg width="64" height="32" fill="none" xmlns="http://www.w3.org/2000/svg"><g clip-path="url(#clip0_44_15996)"><path d="M30.269 16.529v7.567h-2.363V5.382h6.143a5.76 5.76 0 014.016 1.627c1.102.977 1.654 2.441 1.654 3.987 0 1.546-.552 2.93-1.654 3.987-1.102 1.058-2.441 1.627-4.016 1.627l-3.78-.081zm0-8.869v6.51h3.937c.866 0 1.733-.326 2.284-.977 1.26-1.22 1.26-3.255.079-4.475l-.079-.082c-.63-.65-1.418-1.057-2.284-.976H30.27zm14.884 3.255c1.732 0 3.07.488 4.095 1.464 1.023.976 1.496 2.278 1.496 3.906v7.81h-2.205v-1.79h-.079c-.945 1.465-2.284 2.198-3.859 2.198-1.338 0-2.52-.407-3.465-1.221-.866-.814-1.417-1.953-1.417-3.173 0-1.302.472-2.36 1.417-3.174.945-.813 2.284-1.139 3.859-1.139 1.418 0 2.52.245 3.386.814v-.57c0-.813-.315-1.627-.945-2.115a3.369 3.369 0 00-2.283-.895c-1.34 0-2.363.57-3.072 1.709l-2.047-1.302c1.26-1.709 2.913-2.522 5.119-2.522zM42.16 20.19c0 .651.315 1.22.788 1.546.55.407 1.18.651 1.81.651.946 0 1.89-.407 2.6-1.14.787-.731 1.18-1.626 1.18-2.603-.708-.57-1.732-.895-3.07-.895-.946 0-1.733.244-2.363.733-.63.406-.945.976-.945 1.708zm21.34-8.869l-7.796 18.47h-2.362l2.913-6.428-5.118-11.96h2.52l3.701 9.194h.079l3.622-9.194h2.442v-.082z" fill="#5F6368"/><path d="M20.896 14.901c0-.732-.079-1.464-.158-2.196h-9.843v4.15h5.59c-.235 1.301-.944 2.521-2.047 3.254v2.685h3.386c1.97-1.872 3.072-4.638 3.072-7.893z" fill="#4285F4"/><path d="M10.894 25.397c2.835 0 5.198-.976 6.93-2.603l-3.386-2.685c-.945.65-2.126 1.057-3.544 1.057-2.677 0-5.04-1.87-5.827-4.475H1.602v2.767c1.81 3.661 5.355 5.94 9.292 5.94z" fill="#34A853"/><path d="M5.068 16.691c-.473-1.301-.473-2.766 0-4.15V9.776H1.603c-1.497 3.01-1.497 6.59 0 9.683l3.465-2.767z" fill="#FBBC04"/><path d="M10.893 8.148a5.76 5.76 0 014.017 1.628l2.992-3.092c-1.89-1.79-4.41-2.848-6.93-2.767-3.937 0-7.56 2.279-9.292 5.94l3.465 2.767c.708-2.604 3.07-4.476 5.748-4.476z" fill="#EA4335"/></g><defs><clipPath id="clip0_44_15996"><path fill="#fff" transform="translate(.5 .5)" d="M0 0h63v31H0z"/></clipPath></defs></svg>