<svg width="100" height="24" fill="none" xmlns="http://www.w3.org/2000/svg"><g clip-path="url(#clip0_276_9417)" fill-rule="evenodd" clip-rule="evenodd"><path d="M4.82 14.988l9.49 4.232-.83 1.44-10.73-2 2.07-3.673zm-2.514 4.45L0 23.49h12.024l.882-1.89-10.6-2.162zM12.55 1.35l5.99 10.617-1.016 1.782-7.217-8.314 2.24-4.085h.003zM7.756 9.86l8.422 6.28.804-1.41L9.87 6.174 7.756 9.859zm-2.507 4.414l9.597 4.172.822-1.5-8.348-6.372-2.071 3.7zm7.778 9.216l6.065-10.679 5.996 10.664-3.234.002-2.756-4.894-2.768 4.9-3.303.007z" fill="#F6A200"/><path d="M49.886 15.462h1.949v5.107l4.371-5.109h1.733v8.027h-1.946V18.33l-4.455 5.16h-1.65v-8.028h-.002zm-11.284 8.032l4.523-8.04 1.569.012 4.5 8.017h-2.41l-2.954-5.24-2.934 5.25h-2.294zM60 15.462h1.9v3.073h4.055v-3.083h1.939v8.031h-1.949v-3.116h-4.043v3.122h-1.897v-8.027H60zm9.956 0h1.954v5.107l4.37-5.109h1.735v8.027h-1.947V18.33l-4.453 5.16h-1.65v-8.028h-.01zm10.111 0h1.953v5.092l4.353-5.092h1.707v8.032h-1.908v-5.176L81.685 23.5H80.06l.006-8.038zm7.11-13.18h1.948v8.033h-1.948V2.282zm4 0l8.813.031-1.016 1.753h-7.8V2.282h.002zm0 3.084h7.086l-1.039 1.83h-6.03v-1.84l-.018.01zm-63.13 3.112L32.522.5H34.1l4.48 7.97 1.145.018v4.14h-1.846v-2.313h-9.156v2.313h-1.848V8.484h1.173l-.002-.006zm5.21-5.16l-2.9 5.162h5.804l-2.904-5.162zm7.782-1.028h8.804L48.82 4.075h-7.78V2.282l-.002.008zm10.99.021l-4.488 8.017h2.296l2.94-5.236 2.951 5.236h2.41L53.62 2.28l-1.595.023.004.008zM41.04 5.366h7.06l-1.037 1.83h-6.027V5.367l.005-.002zm0 3.124h5.296l-1.005 1.83h-4.29V8.482v.008zm20.3-6.267c1.465-.309 3.096-.222 4.402.59 1.998 1.295 2.261 4.55.648 6.26-1.088 1.068-2.671 1.44-4.14 1.335-1.166-.08-2.368-.498-3.161-1.412-1.03-1.217-1.185-3.055-.587-4.51.498-1.186 1.62-2.004 2.839-2.261v-.002zm.352 1.85c-1.635.493-1.946 2.968-.665 4.01.896.65 2.145.666 3.13.226 1.382-.616 1.559-2.75.572-3.803-.83-.7-2.043-.734-3.037-.433zm7.422-1.787h5.368c.618-.01 1.287.167 1.715.65.579.804.478 2.136-.434 2.641 1.607.527 1.808 2.835.792 4.009-.603.596-1.47.727-2.268.736h-5.17v-8.03l-.003-.006zm1.894 1.727v1.344c1.025-.02 2.05.033 3.07-.02.669-.027.7-1.305 0-1.312-1.023-.049-2.047 0-3.072-.012h.002zm0 2.907v1.669c1.162-.027 2.33.063 3.49-.045.843 0 .926-1.505.11-1.61-1.205-.043-2.4 0-3.6-.014zm7.955-4.638h1.896V5.13c1.318.072 2.656-.125 3.958.113 1.165.233 1.596 1.577 1.48 2.652.04 1.3-1.09 2.384-2.332 2.403-1.666.035-3.333 0-4.996.012V2.28l-.006.003zm1.892 4.522v1.772c.966-.018 1.939.064 2.9-.043.853-.07.824-1.659-.035-1.694-.952-.084-1.91-.016-2.867-.035h.002zm10.34 1.678h5.312l-1.014 1.827h-4.31l.011-1.827z" fill="#231F20"/></g><defs><clipPath id="clip0_276_9417"><path fill="#fff" transform="translate(0 .5)" d="M0 0h100v23H0z"/></clipPath></defs></svg>