<svg width="24" height="24" fill="none" xmlns="http://www.w3.org/2000/svg"><rect width="24" height="24" rx="12" fill="#1D4ED8"/><path d="M11.17 12.83a9.16 9.16 0 01-1.912-2.762.543.543 0 01.12-.6l.594-.593c.487-.486.487-1.174.062-1.6l-.852-.85a1.45 1.45 0 00-2.05 0l-.473.472c-.537.538-.76 1.313-.616 2.081.358 1.895 1.459 3.969 3.234 5.745 1.776 1.775 3.85 2.876 5.745 3.234.768.145 1.543-.08 2.08-.616l.473-.472a1.45 1.45 0 000-2.05l-.85-.851a1.087 1.087 0 00-1.539 0l-.654.655a.543.543 0 01-.6.12 9.176 9.176 0 01-2.761-1.914z" fill="#fff" stroke="#fff" stroke-width=".5" stroke-linecap="round" stroke-linejoin="round"/></svg>