<svg width="40" height="40" fill="none" xmlns="http://www.w3.org/2000/svg"><path d="M29.687 9.15v1.233l-5.9-3.417c-2.233-1.283-5.35-1.283-7.567 0l-5.9 3.434V9.15c0-3.75 2.05-5.817 5.8-5.817h7.767c3.75 0 5.8 2.067 5.8 5.817z" fill="#fff"/><path d="M29.736 13.28l-.233-.116-2.267-1.3-4.7-2.717c-1.433-.833-3.633-.833-5.067 0l-4.7 2.7-2.266 1.333-.3.15c-2.917 1.967-3.117 2.334-3.117 5.484v7.533c0 3.15.2 3.517 3.183 5.533l7.2 4.15c.717.434 1.617.617 2.534.617.9 0 1.816-.2 2.533-.617l7.267-4.2c2.933-1.966 3.116-2.316 3.116-5.483v-7.533c0-3.15-.2-3.517-3.183-5.534zm-5.083 9.217l-1.017 1.25a1.207 1.207 0 00-.267.783l.1 1.6c.067.984-.633 1.484-1.55 1.134l-1.483-.6a1.475 1.475 0 00-.85 0l-1.483.583c-.917.367-1.617-.15-1.55-1.133l.1-1.6c.016-.25-.1-.6-.267-.784l-1.033-1.233c-.634-.75-.35-1.583.6-1.833l1.55-.4c.25-.067.533-.3.666-.5l.867-1.334c.533-.833 1.383-.833 1.933 0l.867 1.334c.133.216.433.433.667.5l1.55.4c.95.25 1.233 1.083.6 1.833z" fill="#fff"/></svg>