<svg width="70" height="70" fill="none" xmlns="http://www.w3.org/2000/svg"><path d="M38.188 9.433v10.765a2.693 2.693 0 002.687 2.691h10.75M38.187 9.433H19.375a5.371 5.371 0 00-3.8 1.576A5.386 5.386 0 0014 14.815v37.679c0 1.427.566 2.796 1.574 3.806a5.371 5.371 0 003.801 1.576h13.438m5.374-48.443l13.438 13.456m0 0V35m-1.344 18.84L57 60.567m-18.813-12.11c0 1.784.708 3.496 1.968 4.757a6.714 6.714 0 009.502 0 6.733 6.733 0 000-9.515 6.714 6.714 0 00-9.502 0 6.733 6.733 0 00-1.968 4.758z" stroke="#1D4ED8" stroke-width="2" stroke-linecap="round" stroke-linejoin="round"/></svg>