<svg width="70" height="70" fill="none" xmlns="http://www.w3.org/2000/svg"><path d="M21.67 48.406a.924.924 0 00-.92.925.922.922 0 10.92-.924" stroke="#1D4ED8" stroke-width="2" stroke-linecap="round" stroke-linejoin="round"/><path clip-rule="evenodd" d="M21.98 57.625v0a8.604 8.604 0 01-8.605-8.604V18.29c0-2.716 2.2-4.916 4.917-4.916h7.375c2.716 0 4.916 2.2 4.916 4.917V49.02a8.604 8.604 0 01-8.604 8.604z" stroke="#1D4ED8" stroke-width="2" stroke-linecap="round" stroke-linejoin="round"/><path d="M28.064 55.106l23.872-23.873a4.916 4.916 0 000-6.952l-5.214-5.215a4.916 4.916 0 00-6.952 0l-9.187 9.182" stroke="#1D4ED8" stroke-width="2" stroke-linecap="round" stroke-linejoin="round"/><path d="M42.752 40.416h9.956c2.717 0 4.917 2.2 4.917 4.917v7.375c0 2.717-2.2 4.917-4.917 4.917H21.98" stroke="#1D4ED8" stroke-width="2" stroke-linecap="round" stroke-linejoin="round"/></svg>