<svg width="31" height="31" fill="none" xmlns="http://www.w3.org/2000/svg"><path d="M1.41 15.588c0-7.732 6.268-14 14-14s14 6.268 14 14-6.268 14-14 14c-2.448 0-4.749-.629-6.75-1.733a1.594 1.594 0 00-1.18-.157l-3.2.857a1.5 1.5 0 01-1.836-1.837l.857-3.199a1.6 1.6 0 00-.158-1.18 13.936 13.936 0 01-1.733-6.75z" stroke="#0F1015" stroke-width="2" stroke-miterlimit="10" stroke-linecap="round" stroke-linejoin="round"/><path d="M11.926 12.539a3.486 3.486 0 116.083 2.323l-1.436 1.606a4.563 4.563 0 00-1.162 3.041v0m0 2.668V23" stroke="#1D4ED8" stroke-width="2" stroke-miterlimit="10" stroke-linecap="round" stroke-linejoin="round"/></svg>