<svg width="44" height="43" fill="none" xmlns="http://www.w3.org/2000/svg"><path d="M34.792 5.823H9.708a4.927 4.927 0 00-4.927 4.927v21.5a4.927 4.927 0 004.927 4.927h25.084a4.927 4.927 0 004.927-4.927v-21.5a4.927 4.927 0 00-4.927-4.927z" fill="#B4D1FC"/><path d="M19.62 20.614l-5.374 5.415a1.35 1.35 0 01-.954.398 1.344 1.344 0 01-.953-2.291l4.43-4.462-4.422-4.388a1.344 1.344 0 111.893-1.908l5.375 5.335a1.34 1.34 0 01.008 1.9l-.002.001zm11.59 6.708H20.46a1.344 1.344 0 000 2.688h10.75a1.344 1.344 0 000-2.688z" fill="#5992E8"/></svg>