<svg width="44" height="43" fill="none" xmlns="http://www.w3.org/2000/svg"><path d="M37.823 11.777V40.23a2.77 2.77 0 01-2.77 2.77H9.45a2.77 2.77 0 01-2.77-2.77V2.77A2.77 2.77 0 019.45 0h16.596l11.777 11.777z" fill="#B4D1FC"/><path d="M30.21 21.588H14.286v1.77h15.926v-1.77zm0 3.952H14.286v1.77h15.926v-1.77zm0 3.952H14.286v1.77h15.926v-1.77zm-4.6 3.952H14.286v1.77h11.326v-1.77z" fill="#5992E8"/><path d="M27.652 11.52l10.171 4.191v-3.934l-5.766-1.703-4.405 1.447z" fill="#1D4ED8"/><path d="M37.82 11.777h-9.007a2.77 2.77 0 01-2.77-2.77V0l11.778 11.777z" fill="#5992E8"/></svg>