<svg width="44" height="43" fill="none" xmlns="http://www.w3.org/2000/svg"><path d="M34.292 4.031H9.208a4.931 4.931 0 00-4.927 4.927v8.959c0 .741.602 1.343 1.344 1.343h32.25c.742 0 1.344-.602 1.344-1.343V8.958a4.931 4.931 0 00-4.927-4.927z" fill="#1D4ED8"/><path d="M17.272 11.198h-1.791a1.344 1.344 0 010-2.687h1.791a1.344 1.344 0 010 2.687zm-5.375 0h-1.792a1.344 1.344 0 010-2.687h1.792a1.344 1.344 0 010 2.687z" fill="#5992E8"/><path d="M37.875 14.781H5.625c-.742 0-1.344.602-1.344 1.344v17.917a4.931 4.931 0 004.927 4.927h25.084a4.931 4.931 0 004.927-4.927V16.125c0-.742-.602-1.344-1.344-1.344z" fill="#B4D1FC"/><path d="M12.043 25.07c0 .264.195.46.437.46h1.218a3.127 3.127 0 013.123 3.123 3.132 3.132 0 01-3.123 3.148H10.7a1.344 1.344 0 010-2.687h3c.24 0 .435-.195.435-.435 0-.264-.195-.46-.436-.46H12.48a3.127 3.127 0 01-3.125-3.124 3.132 3.132 0 013.125-3.148h2.998a1.344 1.344 0 010 2.688H12.48a.436.436 0 00-.437.435zm8.797-.435h3a1.344 1.344 0 000-2.688h-3a3.132 3.132 0 00-3.123 3.148 3.127 3.127 0 003.123 3.123h1.218c.242 0 .438.195.438.46 0 .24-.196.436-.438.436h-2.997a1.344 1.344 0 000 2.687h2.997a3.132 3.132 0 003.125-3.147 3.127 3.127 0 00-3.125-3.123H20.84c-.24 0-.435-.196-.435-.46 0-.24.195-.436.435-.436zm11.958 4.479h-3.435V23.29a1.344 1.344 0 00-2.688 0v7.167c0 .741.602 1.343 1.344 1.343h4.779a1.344 1.344 0 000-2.687z" fill="#5992E8"/></svg>