<svg width="44" height="43" fill="none" xmlns="http://www.w3.org/2000/svg"><path d="M35.687 29.18c-.14 0-.283-.022-.424-.07l-3.8-1.267a1.346 1.346 0 01-.852-1.7 1.342 1.342 0 011.7-.85l3.8 1.267a1.345 1.345 0 01-.424 2.62zm-7.337 7.49c-.493 0-.968-.272-1.205-.743l-1.791-3.583a1.345 1.345 0 012.404-1.202l1.792 3.583a1.341 1.341 0 01-.602 1.802 1.33 1.33 0 01-.599.144zM16.682 12.709a1.348 1.348 0 01-1.276-.92l-1.266-3.8a1.345 1.345 0 012.552-.851l1.267 3.802a1.345 1.345 0 01-1.276 1.77zm-5.178 5.331c-.2 0-.407-.046-.599-.142l-3.583-1.792a1.344 1.344 0 111.2-2.403l3.584 1.792a1.344 1.344 0 01-.602 2.546v-.002z" fill="#549BFF"/><path d="M12.88 37.084c-1.72 0-3.44-.654-4.749-1.964a6.73 6.73 0 010-9.501l3.8-3.802a1.344 1.344 0 111.901 1.9l-3.8 3.803a4.037 4.037 0 000 5.7 4.039 4.039 0 005.703 0l7.6-7.601a4.005 4.005 0 001.181-2.85 4.01 4.01 0 00-1.18-2.851 1.344 1.344 0 111.9-1.901 6.676 6.676 0 011.97 4.75c0 1.793-.701 3.48-1.97 4.751l-7.6 7.602a6.696 6.696 0 01-4.752 1.964h-.003z" fill="#BAD7FF"/><path d="M19.215 25.377c-.343 0-.688-.13-.95-.394a6.677 6.677 0 01-1.968-4.75c0-1.793.7-3.48 1.969-4.751l7.6-7.602a6.73 6.73 0 019.503 0 6.73 6.73 0 010 9.501l-3.8 3.802a1.344 1.344 0 11-1.9-1.9l3.8-3.803a4.037 4.037 0 000-5.7 4.039 4.039 0 00-5.704 0l-7.6 7.601a4.005 4.005 0 00-1.18 2.85c0 1.077.419 2.09 1.18 2.851a1.344 1.344 0 01-.95 2.295z" fill="#1D4ED8"/></svg>