<svg width="160" height="314" fill="none" xmlns="http://www.w3.org/2000/svg"><g opacity=".16" clip-path="url(#clip0_3_15056)"><path d="M119.767 22.82C53.731-15.357 0 15.195 0 91.279s53.731 168.115 119.767 206.237c66.036 38.122 119.821 7.624 119.821-68.245S185.964 60.996 119.767 22.82zm13.594 224.761a3.277 3.277 0 01-1.397 3.114 3.385 3.385 0 01-3.492-.322l-17.356-10.041a9.56 9.56 0 01-3.492-3.651 9.328 9.328 0 01-1.397-4.779V121.294c0-1.719.43-2.792 1.397-3.276a3.602 3.602 0 013.492.484l17.356 10.04a9.781 9.781 0 013.492 3.598 10.087 10.087 0 011.397 4.832v110.609zm.967-141.322a3.056 3.056 0 01-1.504 3.115 3.609 3.609 0 01-3.6-.43l-18.752-10.739a9.4 9.4 0 01-3.493-3.597 9.62 9.62 0 01-1.451-4.833V72.594a3.71 3.71 0 011.451-3.437 3.497 3.497 0 013.493.376l18.483 11.007a9.995 9.995 0 013.708 3.759 9.828 9.828 0 011.397 5.047l.268 16.913z" fill="url(#paint0_linear_3_15056)"/><path d="M111.116 118.501a3.603 3.603 0 00-3.653-.375c-.967.483-1.397 1.557-1.397 3.275V232.01a9.325 9.325 0 001.397 4.778 9.563 9.563 0 003.492 3.652l17.355 10.04a3.487 3.487 0 003.493.322 3.324 3.324 0 001.397-3.167v-8.108l-9.618-5.692a9.553 9.553 0 01-3.492-3.651 9.71 9.71 0 01-1.397-4.779V122.851l-7.577-4.35z" fill="url(#paint1_linear_3_15056)"/><path d="M132.233 16.108c-34.98-19.92-66.359-20.726-88.227-6.014C64.478 2.63 91.02 6.228 119.767 22.819c66.197 38.176 119.821 130.583 119.821 206.452 0 35.814-12.036 61.318-31.594 74.473C234.86 294.079 252 265.675 252 222.828c0-75.869-53.624-168.33-119.767-206.72z" fill="url(#paint2_linear_3_15056)"/><path d="M110.31 69.8a3.494 3.494 0 00-3.492-.375 3.71 3.71 0 00-1.451 3.436v16.806a9.6 9.6 0 001.451 4.833 9.405 9.405 0 003.492 3.597l18.753 10.739a3.608 3.608 0 003.6.43 3.062 3.062 0 001.504-3.115v-7.893l-11.445-6.604a9.56 9.56 0 01-3.492-3.651 9.381 9.381 0 01-1.397-4.832v-9.29l-7.523-4.08z" fill="url(#paint3_linear_3_15056)"/><path style="mix-blend-mode:screen" d="M106.549 119.252a2.595 2.595 0 00-1.451 0c-.967.484-1.397 1.558-1.397 3.276v110.77a9.4 9.4 0 001.397 4.832 9.937 9.937 0 003.493 3.651l17.355 9.987a3.384 3.384 0 003.493.376c.433-.28.785-.669 1.021-1.128a5.031 5.031 0 01-1.988-.644l-17.356-10.041a9.56 9.56 0 01-3.492-3.651 9.328 9.328 0 01-1.397-4.778V121.293a5.374 5.374 0 01.322-2.041z" fill="url(#paint4_radial_3_15056)"/><path style="mix-blend-mode:screen" d="M117.242 24.269c66.197 38.176 119.821 130.583 119.821 206.613 0 37.209-12.949 63.412-33.905 76.084 22.514-12.189 36.43-39.036 36.43-77.695 0-75.869-53.731-168.276-119.821-206.452C85.97 3.382 55.666 1.88 33.851 15.034c21.6-11.598 50.99-9.665 83.391 9.235z" fill="url(#paint5_radial_3_15056)"/><path style="mix-blend-mode:screen" d="M105.851 70.284a2.579 2.579 0 00-1.558.322 3.544 3.544 0 00-1.451 3.383v17.29a9.285 9.285 0 001.451 4.778 9.554 9.554 0 003.492 3.651l18.752 10.739a3.606 3.606 0 003.6.429 2.146 2.146 0 001.129-1.235 4.24 4.24 0 01-2.203-.644l-18.752-10.739a9.4 9.4 0 01-3.493-3.597 9.61 9.61 0 01-1.451-4.832V72.593a5.36 5.36 0 01.484-2.309z" fill="url(#paint6_radial_3_15056)"/></g><defs><linearGradient id="paint0_linear_3_15056" x1="70.012" y1="251.41" x2="179.741" y2="71.898" gradientUnits="userSpaceOnUse"><stop stop-color="#fff" stop-opacity=".47"/><stop offset="1" stop-color="#fff"/></linearGradient><linearGradient id="paint1_linear_3_15056" x1="115.811" y1="107.167" x2="192.865" y2="162.382" gradientUnits="userSpaceOnUse"><stop offset=".109" stop-color="#fff" stop-opacity=".21"/><stop offset="1" stop-color="#fff"/></linearGradient><linearGradient id="paint2_linear_3_15056" x1="118.625" y1="-24.223" x2="249.936" y2="292.029" gradientUnits="userSpaceOnUse"><stop offset=".109" stop-color="#fff" stop-opacity=".21"/><stop offset="1" stop-color="#fff"/></linearGradient><linearGradient id="paint3_linear_3_15056" x1="115.692" y1="65.899" x2="132.662" y2="108.502" gradientUnits="userSpaceOnUse"><stop offset=".109" stop-color="#fff" stop-opacity=".21"/><stop offset="1" stop-color="#fff"/></linearGradient><radialGradient id="paint4_radial_3_15056" cx="0" cy="0" r="1" gradientUnits="userSpaceOnUse" gradientTransform="matrix(48.0896 0 0 48.0557 117.081 185.832)"><stop stop-color="#6CF"/><stop offset="1"/></radialGradient><radialGradient id="paint5_radial_3_15056" cx="0" cy="0" r="1" gradientUnits="userSpaceOnUse" gradientTransform="matrix(128.74 0 0 128.65 136.746 156.624)"><stop stop-color="#6CF"/><stop offset="1"/></radialGradient><radialGradient id="paint6_radial_3_15056" cx="0" cy="0" r="1" gradientUnits="userSpaceOnUse" gradientTransform="matrix(17.6239 0 0 17.6115 117.081 90.688)"><stop stop-color="#6CF"/><stop offset="1"/></radialGradient><clipPath id="clip0_3_15056"><path fill="#fff" d="M0 0h252v314H0z"/></clipPath></defs></svg>