<svg width="36" height="38" fill="none" xmlns="http://www.w3.org/2000/svg"><path d="M23.49 23.06l-8.779.024a2.195 2.195 0 01-2.203-2.196v-6.615c0-1.213.983-2.197 2.196-2.197h17.573a2.196 2.196 0 012.197 2.197v6.59a2.196 2.196 0 01-2.197 2.196L28 23.084" stroke="#0F1015" stroke-width="2" stroke-miterlimit="10" stroke-linecap="round" stroke-linejoin="round"/><path d="M12.507 15.371l-8.78.026A2.195 2.195 0 011.523 13.2V5.487c0-1.213.984-2.197 2.197-2.197h16.475c1.213 0 2.196.984 2.196 2.197v6.59h-7.688a2.194 2.194 0 00-2.196 2.196v1.098zM34.473 4.388a2.196 2.196 0 00-2.196-2.197h-3.295a2.194 2.194 0 00-2.197 2.197v1.098a2.196 2.196 0 002.197 2.197h3.295a2.196 2.196 0 002.196-2.197V4.388zM14.701 23.09a2.196 2.196 0 01-2.196-2.196v-1.098H7.013a2.196 2.196 0 00-2.197 2.197v2.196a2.197 2.197 0 002.197 2.197h5.492a2.198 2.198 0 002.196-2.197v-1.098z" stroke="#0F1015" stroke-width="2" stroke-miterlimit="10" stroke-linecap="round" stroke-linejoin="round"/><path d="M23.49 32.944l-3.749-3.75a2.198 2.198 0 01-.643-1.553v-1.288a3.294 3.294 0 013.294-3.293h1.099v3.295-7.689a2.196 2.196 0 014.393 0v4.394l5.088 1.695a2.197 2.197 0 011.502 2.084v3.65c0 .831-.47 1.592-1.214 1.964l-.983.491v2.197h-8.786v-2.197z" stroke="#1D4ED8" stroke-width="2" stroke-miterlimit="10" stroke-linecap="round" stroke-linejoin="round"/></svg>