<svg width="168" height="329" fill="none" xmlns="http://www.w3.org/2000/svg"><g opacity=".16" clip-path="url(#clip0_3_14870)"><path d="M125.262 24.358C56.197-15.527 0 16.392 0 95.882s56.197 175.584 125.262 215.469c69.066 39.885 125.319 7.966 125.319-71.299S194.496 64.243 125.262 24.358zm0 258.328C69.909 250.766 25.064 173.521 25.064 110.075c0-63.446 44.957-88.914 100.198-57.051 55.241 31.863 100.255 109.165 100.255 172.611 0 63.446-44.901 89.026-100.255 57.051zm0-200.94c-41.473-23.898-75.135-4.769-75.135 42.802 0 47.57 33.718 105.462 75.135 129.416 41.417 23.953 75.191 4.768 75.191-42.802 0-47.571-33.662-105.463-75.191-129.416zm0 143.496c-27.648-15.931-50.071-54.582-50.071-86.277s22.479-44.485 50.071-28.498c27.593 15.988 50.128 54.583 50.128 86.39 0 31.807-22.423 44.373-50.128 28.385zm0-86.109c-13.824-7.966-25.063-1.571-25.063 14.305a55.174 55.174 0 007.317 24.709 55.305 55.305 0 0017.746 18.71c13.881 7.966 25.064 1.571 25.064-14.305a55.072 55.072 0 00-7.306-24.716 55.18 55.18 0 00-17.758-18.703z" fill="url(#paint0_linear_3_14870)"/><path d="M97.108 104.185c-13.263 2.692-21.917 15.09-21.917 34.78 0 31.695 22.479 70.346 50.071 86.277 16.859 9.649 31.526 8.751 40.63-.449a40.968 40.968 0 01-28.098-6.282c-27.705-15.988-50.127-54.583-50.127-86.334a38.717 38.717 0 019.44-27.992z" fill="url(#paint1_linear_3_14870)"/><path d="M143.639 197.867l10.508-5.61a16.844 16.844 0 006.984-7.005 16.801 16.801 0 001.839-9.712 54.955 54.955 0 00-7.331-24.557 55.064 55.064 0 00-17.676-18.581 18.564 18.564 0 00-16.185-2.413v-.504l-15.004 8.19a17.217 17.217 0 0118.32 1.29 55.186 55.186 0 0117.696 18.58 55.073 55.073 0 017.367 24.559 17.835 17.835 0 01-6.518 15.763z" fill="url(#paint2_linear_3_14870)"/><path d="M25.064 110.075c0 63.446 44.957 140.692 100.198 172.611 30.29 17.446 57.377 17.558 75.753 3.871-17.252 6.17-39.338 3.197-63.277-10.659C82.384 243.979 37.483 166.733 37.483 103.343c0-28.721 9.272-49.59 24.502-60.921-22.648 8.078-36.921 31.807-36.921 67.653z" fill="url(#paint3_linear_3_14870)"/><path d="M212.872 204.43c0-47.571-33.718-105.519-75.135-129.473-20.736-11.892-39.337-13.126-53.05-5.61l-11.632 6.62c13.543-7.292 32.032-5.946 52.375 5.61 41.529 23.953 75.191 81.902 75.191 129.416 0 23.505-8.205 39.997-21.523 47.851l10.34-5.61c14.33-7.236 23.434-24.178 23.434-48.804z" fill="url(#paint4_linear_3_14870)"/><path d="M137.738 17.346C104.75-1.39 74.854-3.97 52.488 6.968l-1.911 1.01-2.08 1.178-9.16 4.824c22.479-11.219 52.488-8.75 85.7 10.378 69.234 39.886 125.319 136.429 125.319 215.694 0 38.763-13.488 66.082-35.292 79.321l7.924-4.319c24.445-12.117 39.787-40.446 39.787-81.79.225-79.209-55.859-175.808-125.037-215.918z" fill="url(#paint5_linear_3_14870)"/><path style="mix-blend-mode:screen" d="M22.479 111.59c0 63.39 44.957 140.692 100.198 172.555 28.38 16.38 53.949 17.558 72.157 6.395-18.039 9.48-42.485 7.685-69.516-7.854-55.41-31.919-100.254-109.165-100.254-172.611 0-30.91 10.733-52.731 28.098-63.39-18.938 9.93-30.683 32.369-30.683 64.905z" fill="url(#paint6_radial_3_14870)"/><path style="mix-blend-mode:screen" d="M177.075 260.022c14.387-7.405 23.378-24.29 23.378-48.861 0-47.514-33.718-105.462-75.191-129.416-21.411-12.341-40.686-13.126-54.398-4.544 13.487-6.955 31.695-5.61 51.757 6.059 41.529 23.841 75.191 81.846 75.191 129.416 0 23-7.924 39.268-20.737 47.346z" fill="url(#paint7_radial_3_14870)"/><path style="mix-blend-mode:screen" d="M88.566 107.719c-9.89 4.992-16.016 16.212-16.016 33.041 0 31.695 22.479 70.346 50.071 86.277 14.555 8.359 27.593 8.752 36.753 2.749-8.992 4.376-20.905 3.366-34.112-4.263-27.648-15.932-50.07-54.583-50.07-86.278 0-15.314 5.113-26.085 13.374-31.526z" fill="url(#paint8_radial_3_14870)"/><path style="mix-blend-mode:screen" d="M141.559 198.877a16.399 16.399 0 007.072-7.019 16.357 16.357 0 001.695-9.81 55.07 55.07 0 00-7.368-24.56 55.183 55.183 0 00-17.696-18.579 16.876 16.876 0 00-18.882-.785 18.237 18.237 0 0116.241 2.3 55.075 55.075 0 0117.708 18.572 54.969 54.969 0 017.356 24.566 18.037 18.037 0 01-6.126 15.315z" fill="url(#paint9_radial_3_14870)"/><path style="mix-blend-mode:screen" d="M125.262 24.358C89.915 3.995 58.22 2.424 35.404 16.168c22.591-12.06 53.33-10.041 87.217 9.705C191.855 65.758 247.94 162.301 247.94 241.735c0 38.819-13.544 66.251-35.461 79.433 23.547-12.734 38.102-40.726 38.102-81.116 0-79.265-56.084-175.809-125.319-215.694z" fill="url(#paint10_radial_3_14870)"/></g><defs><linearGradient id="paint0_linear_3_14870" x1="73.224" y1="263.201" x2="187.822" y2="75.538" gradientUnits="userSpaceOnUse"><stop stop-color="#fff" stop-opacity=".47"/><stop offset="1" stop-color="#fff"/></linearGradient><linearGradient id="paint1_linear_3_14870" x1="107.73" y1="93.99" x2="161.661" y2="228.498" gradientUnits="userSpaceOnUse"><stop offset=".109" stop-color="#fff" stop-opacity=".21"/><stop offset="1" stop-color="#fff"/></linearGradient><linearGradient id="paint2_linear_3_14870" x1="126.972" y1="123.635" x2="152.974" y2="198.528" gradientUnits="userSpaceOnUse"><stop offset=".109" stop-color="#fff" stop-opacity=".21"/><stop offset="1" stop-color="#fff"/></linearGradient><linearGradient id="paint3_linear_3_14870" x1="88.187" y1="22.184" x2="197.033" y2="287.469" gradientUnits="userSpaceOnUse"><stop offset=".109" stop-color="#fff" stop-opacity=".21"/><stop offset="1" stop-color="#fff"/></linearGradient><linearGradient id="paint4_linear_3_14870" x1="123.215" y1="49.169" x2="204.193" y2="254.234" gradientUnits="userSpaceOnUse"><stop offset=".109" stop-color="#fff" stop-opacity=".21"/><stop offset="1" stop-color="#fff"/></linearGradient><linearGradient id="paint5_linear_3_14870" x1="119.497" y1="-24.92" x2="255.103" y2="309.289" gradientUnits="userSpaceOnUse"><stop offset=".109" stop-color="#fff" stop-opacity=".21"/><stop offset="1" stop-color="#fff"/></linearGradient><radialGradient id="paint6_radial_3_14870" cx="0" cy="0" r="1" gradientUnits="userSpaceOnUse" gradientTransform="matrix(107.841 0 0 107.65 108.628 172.287)"><stop stop-color="#6CF"/><stop offset="1"/></radialGradient><radialGradient id="paint7_radial_3_14870" cx="0" cy="0" r="1" gradientUnits="userSpaceOnUse" gradientTransform="matrix(80.9793 0 0 80.836 135.658 165.779)"><stop stop-color="#6CF"/><stop offset="1"/></radialGradient><radialGradient id="paint8_radial_3_14870" cx="0" cy="0" r="1" gradientUnits="userSpaceOnUse" gradientTransform="matrix(54.1173 0 0 54.0215 115.934 170.66)"><stop stop-color="#6CF"/><stop offset="1"/></radialGradient><radialGradient id="paint9_radial_3_14870" cx="0" cy="0" r="1" gradientUnits="userSpaceOnUse" gradientTransform="matrix(27.1991 0 0 27.151 128.353 167.35)"><stop stop-color="#6CF"/><stop offset="1"/></radialGradient><radialGradient id="paint10_radial_3_14870" cx="0" cy="0" r="1" gradientUnits="userSpaceOnUse" gradientTransform="matrix(134.647 0 0 134.409 143.021 164.152)"><stop stop-color="#6CF"/><stop offset="1"/></radialGradient><clipPath id="clip0_3_14870"><path fill="#fff" transform="translate(0 .518)" d="M0 0h263v328H0z"/></clipPath></defs></svg>