<svg width="181" height="375" fill="none" xmlns="http://www.w3.org/2000/svg"><g opacity=".16" clip-path="url(#clip0_3_15142)"><path d="M142.548 177.117L36.012 116.042v21.716l106.536 61.074v-21.715zm132.287-23.141L28.675 12.011C12.978 2.986.273 10.18.273 28.162v152.077a62.378 62.378 0 008.335 27.86 62.46 62.46 0 0020.065 21.067l246.161 141.966c15.695 9.025 28.4 1.764 28.4-16.219V202.836a62.38 62.38 0 00-8.35-27.822 62.48 62.48 0 00-20.05-21.038zm13.588 192.251c0 8.347-5.979 11.74-13.588 7.532L28.675 211.794a29.132 29.132 0 01-9.357-9.817 29.088 29.088 0 01-3.893-12.984V71.253l272.659 157.235.339 117.739z" fill="url(#paint0_linear_3_15142)"/><path d="M158.039 190.622v-21.716L51.503 107.831l-15.49 7.872 106.535 61.414v21.716c5.02-3 10.19-5.741 15.491-8.211z" fill="url(#paint1_linear_3_15142)"/><path d="M15.425 71.254v117.739a29.088 29.088 0 003.893 12.984 29.124 29.124 0 009.356 9.817l246.161 141.965c7.27 4.208 13.588.815 13.588-7.532v-1.968L44.166 203.583a29.123 29.123 0 01-9.372-9.847 29.09 29.09 0 01-3.877-13.022V80.212l-15.492-8.958z" fill="url(#paint2_linear_3_15142)"/><path d="M318.726 194.693a62.585 62.585 0 00-8.356-27.848 62.683 62.683 0 00-20.044-21.08L44.166 3.8a20.398 20.398 0 00-19.16-2.375L8.699 9.907a20.406 20.406 0 0119.975 2.104l246.161 141.965a62.48 62.48 0 0120.05 21.038 62.38 62.38 0 018.35 27.822v152.077a20.808 20.808 0 01-6.794 16.965l11.346-5.972a13.177 13.177 0 003.873-2.035l1.155-.611a21.625 21.625 0 005.843-16.219l.068-152.348z" fill="url(#paint3_linear_3_15142)"/><path d="M7.068 10.722c.408 0 .815-.746 1.223-1.018l-1.223 1.018z" fill="url(#paint4_linear_3_15142)"/><path d="M12.232 73.086v117.739a29.09 29.09 0 004.042 13.037 29.128 29.128 0 009.547 9.764l245.82 141.965a8.427 8.427 0 005.402 1.957 8.427 8.427 0 005.401-1.957 10.337 10.337 0 01-7.609-1.56L28.675 211.794a29.133 29.133 0 01-9.357-9.817 29.088 29.088 0 01-3.893-12.984V74.647l-3.193-1.561z" fill="url(#paint5_linear_3_15142)"/><path d="M142.548 198.833v-21.716L36.012 115.703v3.665l103.343 59.582v17.983l3.193 1.9z" fill="#fff"/><path style="mix-blend-mode:screen" d="M274.834 153.976L28.674 12.011a18.835 18.835 0 00-21.606-.882 21.02 21.02 0 0118.345 2.714L271.64 156.08a62.598 62.598 0 0120.051 21.076 62.514 62.514 0 018.35 27.852v151.737a20.34 20.34 0 01-6.795 17.033 18.678 18.678 0 008-7.852 18.647 18.647 0 002.056-11.013V202.836a62.375 62.375 0 00-8.38-27.832 62.461 62.461 0 00-20.089-21.028z" fill="url(#paint6_radial_3_15142)"/></g><defs><linearGradient id="paint0_linear_3_15142" x1="88.805" y1="300.42" x2="216.102" y2="79.67" gradientUnits="userSpaceOnUse"><stop stop-color="#fff" stop-opacity=".47"/><stop offset="1" stop-color="#fff"/></linearGradient><linearGradient id="paint1_linear_3_15142" x1="79.79" y1="100.578" x2="102.328" y2="206.878" gradientUnits="userSpaceOnUse"><stop offset=".109" stop-color="#fff" stop-opacity=".21"/><stop offset="1" stop-color="#fff"/></linearGradient><linearGradient id="paint2_linear_3_15142" x1="113.365" y1="48.594" x2="207.838" y2="367.66" gradientUnits="userSpaceOnUse"><stop offset=".109" stop-color="#fff" stop-opacity=".21"/><stop offset="1" stop-color="#fff"/></linearGradient><linearGradient id="paint3_linear_3_15142" x1="119.923" y1="-29.588" x2="258.565" y2="377.003" gradientUnits="userSpaceOnUse"><stop offset=".109" stop-color="#fff" stop-opacity=".21"/><stop offset="1" stop-color="#fff"/></linearGradient><linearGradient id="paint4_linear_3_15142" x1="7.816" y1="10.247" x2="7.951" y2="10.79" gradientUnits="userSpaceOnUse"><stop stop-color="#CDD2F3"/><stop offset=".25" stop-color="#E5E9FF"/><stop offset=".36" stop-color="#EFF2FF"/><stop offset=".48" stop-color="#fff"/><stop offset=".51" stop-color="#F6F7FC"/><stop offset=".64" stop-color="#D7DBF2"/><stop offset=".77" stop-color="#C1C6EB"/><stop offset=".89" stop-color="#B4BAE6"/><stop offset="1" stop-color="#AFB6E5"/></linearGradient><linearGradient id="paint5_linear_3_15142" x1="109.172" y1="50.414" x2="204.553" y2="369.088" gradientUnits="userSpaceOnUse"><stop offset=".109" stop-color="#fff" stop-opacity=".21"/><stop offset="1" stop-color="#fff"/></linearGradient><radialGradient id="paint6_radial_3_15142" cx="0" cy="0" r="1" gradientUnits="userSpaceOnUse" gradientTransform="matrix(166.462 0 0 166.26 155.185 191.028)"><stop stop-color="#6CF"/><stop offset="1"/></radialGradient><clipPath id="clip0_3_15142"><path fill="#fff" transform="translate(.274)" d="M0 0h318.452v375H0z"/></clipPath></defs></svg>