<svg width="36" height="36" fill="none" xmlns="http://www.w3.org/2000/svg"><g clip-path="url(#clip0_51_8570)" stroke-width="2" stroke-miterlimit="10" stroke-linecap="round" stroke-linejoin="round"><path d="M24.68 13.774V4.987a3.298 3.298 0 00-3.295-3.295H8.205c-.879 0-1.713.348-2.334.966a3.302 3.302 0 00-.96 2.33v26.359c0 .874.345 1.712.96 2.33.62.617 1.455.965 2.334.965h13.18a3.298 3.298 0 003.295-3.295v-1.099M13.148 6.085h3.295" stroke="#0F1015"/><path d="M24.68 18.167v-6.59a3.297 3.297 0 00-3.295-3.295 3.293 3.293 0 00-3.295 3.295v6.59" stroke="#1D4ED8"/><path d="M29.077 13.774s.967 10.68 1.346 14.842a1.5 1.5 0 01-1.489 1.633h-15.09c-.423 0-.824-.177-1.11-.488a1.489 1.489 0 01-.384-1.145l1.351-14.842h15.376z" stroke="#1D4ED8"/></g><defs><clipPath id="clip0_51_8570"><path fill="#fff" transform="translate(.164 .667)" d="M0 0h35v35H0z"/></clipPath></defs></svg>