<svg width="40" height="39" fill="none" xmlns="http://www.w3.org/2000/svg"><g clip-path="url(#clip0_51_15262)" stroke-width="2" stroke-miterlimit="10" stroke-linecap="round" stroke-linejoin="round"><path d="M34.971 19.034c0 8.985-5.99 17.969-5.99 17.969H11.014s-5.99-8.984-5.99-17.969h29.948z" stroke="#0F1015"/><path d="M27.096 25.023a67.19 67.19 0 01-1.026 5.99m-12.142 0a67.19 67.19 0 01-1.026-5.99" stroke="#1D4ED8"/><path d="M5.023 19.034H2.328m35.34 0h-2.695M11.013 7.055l-5.99 11.979M28.98 7.055l5.99 11.979" stroke="#0F1015"/><path d="M19.996 25.023v5.99m0-29.349v8.385m-2.992-2.994l2.995 2.995 2.995-2.995" stroke="#1D4ED8"/></g><defs><clipPath id="clip0_51_15262"><path fill="#fff" transform="translate(.836 .167)" d="M0 0h38.333v38.333H0z"/></clipPath></defs></svg>