<svg width="40" height="40" fill="none" xmlns="http://www.w3.org/2000/svg"><g clip-path="url(#clip0_51_5675)" stroke-width="2" stroke-miterlimit="10"><path d="M23.683 8.45h12.233c1.176 0 2.128.953 2.128 2.128v18.62a2.128 2.128 0 01-2.128 2.128H4.085a2.128 2.128 0 01-2.128-2.128v-18.62c0-1.175.953-2.128 2.128-2.128h12.234m8.923 27.593v-4.717m-10.484 0v4.717m-12.801-8.98h36.087" stroke="#0F1015"/><path d="M10.902 36.043H29.1" stroke="#0F1015" stroke-linecap="round"/><path d="M14.758 21.58l-2.746-7.368L19.25 3.125h1.497l7.24 11.087-2.747 7.369" stroke="#1D4ED8" stroke-linejoin="round"/><path d="M20 3.125v9.69m-5.242 13.414V21.58H25.24v4.649m-5.243-9.342a2.036 2.036 0 100-4.072 2.036 2.036 0 000 4.072z" stroke="#1D4ED8"/></g><defs><clipPath id="clip0_51_5675"><path fill="#fff" transform="translate(.832 .833)" d="M0 0h38.333v38.333H0z"/></clipPath></defs></svg>