<svg width="177" height="328" fill="none" xmlns="http://www.w3.org/2000/svg"><g opacity=".16" clip-path="url(#clip0_1_404)"><path d="M252.405 185.387l-13.752-7.888-78.42-135.082c-2.341-4.031-6.203-6.251-8.544-4.908l-4.682 2.688c-2.341 1.344-2.341 5.843 0 9.757l65.252 112.296L47.871 67.482l65.193-37.1c2.341-1.345 2.341-5.843 0-9.758l-4.681-8.063c-2.341-4.031-6.145-6.251-8.544-4.908l-78.361 44.93-13.812-8.238C3.453 41.891 0 43.878 0 48.727v19.34a16.91 16.91 0 002.26 7.512 16.956 16.956 0 005.406 5.692l9.422 5.434 22.473 131.81a28.784 28.784 0 004.343 10.756 28.832 28.832 0 008.24 8.174l155.785 89.743c5.852 3.506 11.353 1.695 12.64-4.382l22.414-105.927 9.422 5.434c4.272 2.454 7.667.467 7.667-4.382V198.65a16.872 16.872 0 00-7.667-13.263zm-172.99 42.126c0 3.564-2.517 4.966-5.853 3.213l-6.554-3.798a12.331 12.331 0 01-5.852-9.699v-82.381c0-3.564 2.516-4.966 5.852-3.155l6.554 3.739a12.462 12.462 0 014.095 4.147 12.43 12.43 0 011.757 5.552v82.382zm39.677 22.844c0 3.564-2.516 5.025-5.852 3.214l-6.554-3.739a12.452 12.452 0 01-5.853-9.699v-82.382c0-3.564 2.517-5.024 5.853-3.213l6.554 3.798a12.196 12.196 0 015.852 9.64v82.381zm39.678 22.904c0 3.564-2.516 4.966-5.852 3.213l-6.496-3.798a12.16 12.16 0 01-4.113-4.101 12.132 12.132 0 01-1.739-5.539v-82.382c0-3.564 2.516-5.024 5.852-3.213l6.496 3.739a12.438 12.438 0 015.852 9.699v82.382zm39.678 22.903c0 3.564-2.516 4.966-5.852 3.155l-6.496-3.739a12.46 12.46 0 01-4.095-4.147 12.426 12.426 0 01-1.757-5.552v-82.382c0-3.564 2.516-4.966 5.852-3.213l6.496 3.798a12.32 12.32 0 015.852 9.64v82.44z" fill="url(#paint0_linear_1_404)"/><path d="M113.474 158.336l-6.554-3.797c-3.102-1.812-5.852-.351-5.852 3.213v82.381a12.449 12.449 0 005.852 9.699l6.554 3.74c3.102 1.811 5.852.35 5.852-3.214v-9.231a12.38 12.38 0 01-3.862-8.238v-73.15a8.076 8.076 0 00-1.99-1.403z" fill="url(#paint1_linear_1_404)"/><path d="M108.383 12.562l4.681 8.063c2.341 4.031 2.341 8.413 0 9.757l-65.193 37.1 164.388 94.769-13.284-22.962L61.799 60.238l65.194-36.867c2.341-1.344 2.341-5.843 0-9.816l-4.682-8.238c-2.341-4.09-5.852-6.252-8.544-4.908l-12.173 6.894a9.48 9.48 0 016.789 5.259z" fill="url(#paint2_linear_1_404)"/><path d="M73.796 135.433l-6.554-3.74c-3.102-1.811-5.852-.409-5.852 3.155v82.382a12.316 12.316 0 005.852 9.699l6.554 3.797c3.102 1.753 5.852.351 5.852-3.213v-9.231a12.496 12.496 0 01-3.862-8.297v-73.15a12.26 12.26 0 00-1.99-1.402z" fill="url(#paint3_linear_1_404)"/><path d="M153.152 181.123l-6.496-3.74c-3.16-1.811-5.852-.35-5.852 3.214v82.323a12.154 12.154 0 005.852 9.64l6.496 3.798c3.102 1.811 5.852.35 5.852-3.214v-9.114a12.492 12.492 0 01-3.862-8.297v-73.091a6.898 6.898 0 00-1.99-1.519z" fill="url(#paint4_linear_1_404)"/><path d="M266.334 178.143l-13.753-7.946-78.419-135.14c-2.341-4.032-6.204-6.252-8.545-4.909l-4.681 2.63a3.378 3.378 0 00-.82.993l-.468-.701-6.73 4.09a8.85 8.85 0 014.358 1.578 8.817 8.817 0 012.957 3.563l78.42 135.082 13.753 7.888a16.903 16.903 0 015.451 5.766 16.869 16.869 0 012.215 7.614v19.339a5.834 5.834 0 01-1.522 4.148l12.466-6.485a4.67 4.67 0 002.984-5.025v-19.222a16.892 16.892 0 00-7.666-13.263z" fill="url(#paint5_linear_1_404)"/><path d="M7.666 44.346l13.812 8.238 13.284-7.596-13.167-7.887a4.686 4.686 0 00-6.262.409L3.102 43.645a5.862 5.862 0 014.564.7z" fill="url(#paint6_linear_1_404)"/><path style="mix-blend-mode:screen" d="M45.12 69.06l164.389 94.768-2.751-4.733L47.871 67.482l-2.75 1.578z" fill="url(#paint7_radial_1_404)"/><path style="mix-blend-mode:screen" d="M62.15 132.512c-1.931 0-3.277 1.344-3.277 3.914v82.382c.138 1.963.74 3.866 1.757 5.552a12.463 12.463 0 004.095 4.147l6.555 3.797c2.282 1.286 4.155.818 5.091-.876a4.696 4.696 0 01-2.34-.701l-6.555-3.798a12.331 12.331 0 01-5.852-9.699v-82.381a5.485 5.485 0 01.526-2.337z" fill="url(#paint8_radial_1_404)"/><path style="mix-blend-mode:screen" d="M7.666 44.345a4.625 4.625 0 00-5.163-.474 4.621 4.621 0 00-1.391 1.175 5.86 5.86 0 013.804.877l13.81 7.946L97.147 9.23c2.341-1.344 5.853.818 8.545 4.908l4.623 8.004c2.341 4.09 2.399 8.472 0 9.816l2.75-1.578c2.341-1.343 2.341-5.842 0-9.757l-4.681-8.063c-2.341-4.031-6.145-6.251-8.545-4.908l-78.36 44.93-13.812-8.238z" fill="url(#paint9_radial_1_404)"/><path style="mix-blend-mode:screen" d="M141.565 178.26c-1.931 0-3.336 1.344-3.336 3.914v82.382a12.372 12.372 0 001.751 5.556 12.402 12.402 0 004.101 4.143l6.496 3.797c2.282 1.286 4.214.818 5.092-.876a4.863 4.863 0 01-2.341-.701l-6.496-3.798a12.157 12.157 0 01-5.852-9.64v-82.382a4.837 4.837 0 01.585-2.395z" fill="url(#paint10_radial_1_404)"/><path style="mix-blend-mode:screen" d="M101.828 155.415c-1.93 0-3.277 1.285-3.277 3.915v82.381a12.458 12.458 0 005.852 9.699l6.555 3.739c2.282 1.286 4.214.877 5.091-.818a4.98 4.98 0 01-2.341-.759l-6.554-3.74a12.449 12.449 0 01-5.852-9.698v-82.382a5.144 5.144 0 01.526-2.337z" fill="url(#paint11_radial_1_404)"/><path style="mix-blend-mode:screen" d="M151.689 37.51l-4.682 2.688 1.931-1.11c2.341-1.344 6.204.876 8.545 4.907l78.419 135.024 13.753 7.946a16.871 16.871 0 017.842 13.263v19.339a6.24 6.24 0 01-1.171 3.681c2.283 0 3.863-2.045 3.863-5.258v-19.34a16.876 16.876 0 00-7.667-13.263L238.77 177.5 160.233 42.418c-2.224-4.032-6.203-6.252-8.544-4.908z" fill="url(#paint12_radial_1_404)"/></g><defs><linearGradient id="paint0_linear_1_404" x1="75.998" y1="263.559" x2="188.788" y2="72.069" gradientUnits="userSpaceOnUse"><stop stop-color="#fff" stop-opacity=".47"/><stop offset="1" stop-color="#fff"/></linearGradient><linearGradient id="paint1_linear_1_404" x1="107.618" y1="145.743" x2="163.308" y2="181.298" gradientUnits="userSpaceOnUse"><stop offset=".109" stop-color="#fff" stop-opacity=".21"/><stop offset="1" stop-color="#fff"/></linearGradient><linearGradient id="paint2_linear_1_404" x1="106.846" y1="-12.92" x2="158.358" y2="170.66" gradientUnits="userSpaceOnUse"><stop offset=".109" stop-color="#fff" stop-opacity=".21"/><stop offset="1" stop-color="#fff"/></linearGradient><linearGradient id="paint3_linear_1_404" x1="67.94" y1="122.886" x2="123.626" y2="158.444" gradientUnits="userSpaceOnUse"><stop offset=".109" stop-color="#fff" stop-opacity=".21"/><stop offset="1" stop-color="#fff"/></linearGradient><linearGradient id="paint4_linear_1_404" x1="147.333" y1="168.592" x2="202.93" y2="203.994" gradientUnits="userSpaceOnUse"><stop offset=".109" stop-color="#fff" stop-opacity=".21"/><stop offset="1" stop-color="#fff"/></linearGradient><linearGradient id="paint5_linear_1_404" x1="196.373" y1="14.423" x2="284.452" y2="209.477" gradientUnits="userSpaceOnUse"><stop offset=".109" stop-color="#fff" stop-opacity=".21"/><stop offset="1" stop-color="#fff"/></linearGradient><linearGradient id="paint6_linear_1_404" x1="14.46" y1="34.779" x2="17.377" y2="54.476" gradientUnits="userSpaceOnUse"><stop offset=".109" stop-color="#fff" stop-opacity=".21"/><stop offset="1" stop-color="#fff"/></linearGradient><radialGradient id="paint7_radial_1_404" cx="0" cy="0" r="1" gradientUnits="userSpaceOnUse" gradientTransform="matrix(67.3588 0 0 67.249 127.285 115.684)"><stop stop-color="#6CF"/><stop offset="1"/></radialGradient><radialGradient id="paint8_radial_1_404" cx="0" cy="0" r="1" gradientUnits="userSpaceOnUse" gradientTransform="matrix(36.1081 0 0 36.0492 67.476 182.759)"><stop stop-color="#6CF"/><stop offset="1"/></radialGradient><radialGradient id="paint9_radial_1_404" cx="0" cy="0" r="1" gradientUnits="userSpaceOnUse" gradientTransform="matrix(43.4818 0 0 43.4109 57.995 30.557)"><stop stop-color="#6CF"/><stop offset="1"/></radialGradient><radialGradient id="paint10_radial_1_404" cx="0" cy="0" r="1" gradientUnits="userSpaceOnUse" gradientTransform="matrix(36.1081 0 0 36.0492 146.89 228.507)"><stop stop-color="#6CF"/><stop offset="1"/></radialGradient><radialGradient id="paint11_radial_1_404" cx="0" cy="0" r="1" gradientUnits="userSpaceOnUse" gradientTransform="matrix(36.1081 0 0 36.0492 107.213 205.662)"><stop stop-color="#6CF"/><stop offset="1"/></radialGradient><radialGradient id="paint12_radial_1_404" cx="0" cy="0" r="1" gradientUnits="userSpaceOnUse" gradientTransform="matrix(77.0735 0 0 76.9478 203.54 130.174)"><stop stop-color="#6CF"/><stop offset="1"/></radialGradient><clipPath id="clip0_1_404"><path fill="#fff" d="M0 0h274v328H0z"/></clipPath></defs></svg>