<svg width="36" height="36" fill="none" xmlns="http://www.w3.org/2000/svg"><g clip-path="url(#clip0_51_15607)"><path d="M28.334 34.475h3.055a3.08 3.08 0 003.08-3.08V4.605a3.08 3.08 0 00-3.08-3.08H4.6a3.08 3.08 0 00-3.08 3.08v26.79a3.08 3.08 0 003.08 3.08h23.735zM1.52 9.729h32.949M13.824 5.627h16.543" stroke="#0F1015" stroke-width="2" stroke-miterlimit="10" stroke-linecap="round" stroke-linejoin="round"/><path d="M6.648 5.627a1.025 1.025 0 11-2.05 0 1.025 1.025 0 012.05 0zm4.102 0a1.025 1.025 0 11-2.05 0 1.025 1.025 0 012.05 0z" fill="#0F1015"/><path d="M26.938 20.634L25.14 26.27H13.063l-2.149-8.874h13.66a2.483 2.483 0 012.364 3.238z" stroke="#1D4ED8" stroke-width="2" stroke-miterlimit="10" stroke-linecap="round" stroke-linejoin="round"/><path d="M16.559 28.322a2.05 2.05 0 11-4.102 0 2.05 2.05 0 014.102 0zm9.636 0a2.05 2.05 0 11-4.101 0 2.05 2.05 0 014.101 0zM11.61 20.266l-1.54-6.436m.002.001H6.195" stroke="#1D4ED8" stroke-width="2" stroke-miterlimit="10" stroke-linecap="round" stroke-linejoin="round"/></g><defs><clipPath id="clip0_51_15607"><path fill="#fff" transform="translate(.5 .5)" d="M0 0h35v35H0z"/></clipPath></defs></svg>