<svg width="310" height="187" fill="none" xmlns="http://www.w3.org/2000/svg"><g opacity=".05"><path d="M433.18 243.704s-1.667-2.3-4.808-6.112c-3.14-3.812-7.904-9.2-14.547-16.184a236.208 236.208 0 00-25.219-22.415 172.264 172.264 0 00-37.779-21.948 111.408 111.408 0 00-51.153-9.026 95.79 95.79 0 00-27.927 6.27 64.195 64.195 0 01-27.417 5.694 44.435 44.435 0 01-13.567-2.964 58.785 58.785 0 01-12.7-7.273 126.324 126.324 0 01-21.529-22.165 282.471 282.471 0 00-42.211-47.147 68.904 68.904 0 00-28.916-13.133 74.422 74.422 0 00-31.752 1.372c-10.296 2.404-19.737 6.94-29.329 10.174a140.569 140.569 0 01-28.992 7.317 63.51 63.51 0 01-28.388-2.578A82.47 82.47 0 01-16.512 89.25C-30.18 77.415-42.203 65.044-54.31 54.934a318.33 318.33 0 00-63.678-42.358c-8.366-4.188-15.238-7.12-19.442-9.267l-7.469-3.187 6.957 3.145c4.524 2.019 11.076 5.08 19.335 9.31A322.908 322.908 0 01-55.44 55.511c12.043 10.26 23.898 22.823 37.478 34.445A76.94 76.94 0 005.947 105.1a65.681 65.681 0 0029.178 3.004 146.325 146.325 0 0029.547-7.168 305.18 305.18 0 0129.244-9.77 71.437 71.437 0 0130.025-1.049 64.197 64.197 0 0127.744 13.604 283.533 283.533 0 0141.293 47.02 127.12 127.12 0 0021.445 22.571 55.735 55.735 0 0013.468 7.954 47.313 47.313 0 0015.338 3.367l3.797.207 3.944-.347a41.467 41.467 0 007.569-1.185 41.145 41.145 0 007.12-1.994l6.714-2.698a93.372 93.372 0 0126.542-5.713 106.686 106.686 0 0149.617 8.9 162.482 162.482 0 0136.286 21.929 228.89 228.89 0 0124.473 22.096c6.493 6.92 10.915 12.074 14.184 16.206s4.509 5.985 4.509 5.985l5.197-4.316z" fill="url(#paint0_linear_3_15814)"/><path d="M426.89 258.855s-1.667-2.301-4.807-6.113c-3.141-3.812-7.905-9.2-14.547-16.184a228.877 228.877 0 00-25.22-22.415 172.24 172.24 0 00-37.779-21.948 111.405 111.405 0 00-51.452-9.153 95.773 95.773 0 00-27.927 6.27 64.206 64.206 0 01-27.416 5.694 44.448 44.448 0 01-13.568-2.964 58.782 58.782 0 01-12.699-7.274 126.283 126.283 0 01-21.103-21.717 282.421 282.421 0 00-42.21-47.147 67.751 67.751 0 00-28.916-13.133 72.922 72.922 0 00-31.795 1.265c-10.296 2.404-19.737 6.94-29.329 10.175a140.667 140.667 0 01-28.992 7.317 63.525 63.525 0 01-28.388-2.579 82.441 82.441 0 01-23.459-14.336c-13.666-11.835-25.69-24.206-37.797-34.316a318.31 318.31 0 00-63.679-42.358c-8.366-4.187-15.237-7.12-19.441-9.267l-7.853-3.527 6.956 3.145c4.482 1.912 11.076 5.08 19.336 9.31a322.913 322.913 0 0163.252 43.147c12.043 10.26 23.898 22.823 37.479 34.444A78.983 78.983 0 00-.557 120.337a65.681 65.681 0 0029.178 3.004 146.324 146.324 0 0029.547-7.168c9.74-3.172 19.182-7.707 29.201-9.877a73.401 73.401 0 0130.196-1.241 64.758 64.758 0 0127.743 13.605 286.997 286.997 0 0141.336 47.126 127.117 127.117 0 0021.445 22.57 62.594 62.594 0 0013.469 7.955 47.326 47.326 0 0015.338 3.366l3.796.208 3.945-.348a41.479 41.479 0 007.569-1.184 41.109 41.109 0 007.12-1.995l6.713-2.697a89.695 89.695 0 0126.585-5.607 105.193 105.193 0 0148.636 8.923 162.515 162.515 0 0136.5 22.461 229.006 229.006 0 0124.473 22.097c6.322 6.494 10.915 12.074 14.013 15.779 3.098 3.706 4.509 5.986 4.509 5.986l6.135-4.445z" fill="url(#paint1_linear_3_15814)"/><path d="M420.601 274.005s-1.667-2.301-4.808-6.113c-3.141-3.812-7.904-9.2-14.547-16.184a222.152 222.152 0 00-25.219-22.415 172.27 172.27 0 00-37.78-21.948 111.408 111.408 0 00-51.75-9.281 95.8 95.8 0 00-27.927 6.271 64.535 64.535 0 01-27.416 5.693 44.441 44.441 0 01-13.568-2.964 58.785 58.785 0 01-12.7-7.273 126.356 126.356 0 01-21.102-21.718 282.506 282.506 0 00-43.233-46.612 68.92 68.92 0 00-28.916-13.133 74.433 74.433 0 00-31.752 1.372c-10.297 2.404-19.737 6.94-29.33 10.175a140.6 140.6 0 01-28.991 7.316 63.51 63.51 0 01-28.453-3.047 79.59 79.59 0 01-23.352-14.379c-13.773-11.792-25.798-24.163-37.904-34.273a323.28 323.28 0 00-63.721-42.464c-8.324-4.081-15.195-7.014-19.399-9.16l-6.809-3.7 6.957 3.145c4.524 2.018 11.076 5.079 19.335 9.31a326.48 326.48 0 0163.167 42.934c12.044 10.26 23.898 22.822 37.479 34.444a79.022 79.022 0 0023.907 15.146 65.696 65.696 0 0029.178 3.003 146.324 146.324 0 0029.547-7.168c9.741-3.171 19.181-7.707 29.201-9.876a73.382 73.382 0 0130.537-1.007 64.19 64.19 0 0127.744 13.604 283.533 283.533 0 0141.293 47.02 127.15 127.15 0 0021.445 22.57 58.443 58.443 0 0013.469 7.954 47.301 47.301 0 0015.338 3.367l3.796.207 3.945-.347a41.394 41.394 0 007.569-1.185 42.147 42.147 0 007.119-1.994l6.714-2.697a93.347 93.347 0 0126.542-5.714 106.69 106.69 0 0148.679 9.03 162.482 162.482 0 0136.286 21.929 228.89 228.89 0 0124.473 22.096c6.962 6.856 11.556 12.435 14.653 16.141 3.098 3.706 4.509 5.985 4.509 5.985l5.795-4.06z" fill="url(#paint2_linear_3_15814)"/><path d="M413.671 289.412s-1.666-2.301-4.807-6.113c-3.141-3.812-7.904-9.2-14.547-16.184a228.958 228.958 0 00-25.219-22.415 172.27 172.27 0 00-37.78-21.948 111.407 111.407 0 00-51.409-9.665 95.79 95.79 0 00-27.927 6.27 64.543 64.543 0 01-27.417 5.694 44.435 44.435 0 01-13.567-2.964 58.785 58.785 0 01-12.7-7.273 126.282 126.282 0 01-21.102-21.718 282.484 282.484 0 00-42.935-46.484 68.904 68.904 0 00-28.916-13.134 74.43 74.43 0 00-31.752 1.372c-10.297 2.404-19.737 6.94-29.329 10.175a140.667 140.667 0 01-28.992 7.317 63.524 63.524 0 01-28.453-3.048 79.59 79.59 0 01-23.352-14.379c-13.772-11.792-25.797-24.163-38.437-34.059a318.327 318.327 0 00-63.678-42.357c-8.366-4.188-15.237-7.12-19.442-9.268l-7.02-2.995 6.957 3.145c4.481 1.912 11.075 5.079 19.335 9.31a322.91 322.91 0 0163.167 42.934c12.043 10.259 23.897 22.822 37.478 34.444a79.023 79.023 0 0023.908 15.146 63.744 63.744 0 0029.241 2.854 136.833 136.833 0 0030.144-7.532c9.74-3.171 19.181-7.706 29.201-9.876a73.4 73.4 0 0130.537-1.007 64.776 64.776 0 0127.744 13.604 287.092 287.092 0 0141.336 47.127 127.075 127.075 0 0021.444 22.57 58.443 58.443 0 0013.469 7.954 47.307 47.307 0 0015.338 3.367l3.796.207 3.945-.347a41.394 41.394 0 007.569-1.185 55.248 55.248 0 007.12-1.994l6.713-2.697a93.354 93.354 0 0126.542-5.714 106.7 106.7 0 0148.679 9.03 162.508 162.508 0 0136.501 22.461 228.995 228.995 0 0124.472 22.097c6.322 6.494 10.916 12.074 14.014 15.779 3.097 3.706 4.508 5.985 4.508 5.985l5.623-4.486z" fill="url(#paint3_linear_3_15814)"/><path d="M407.169 304.647s-1.667-2.3-4.808-6.112c-3.14-3.812-7.904-9.2-14.547-16.184a221.97 221.97 0 00-25.219-22.415 172.27 172.27 0 00-37.78-21.948 111.402 111.402 0 00-51.152-9.026 95.79 95.79 0 00-27.927 6.27 64.543 64.543 0 01-27.417 5.694 44.435 44.435 0 01-13.567-2.964 58.785 58.785 0 01-12.7-7.273 126.282 126.282 0 01-21.102-21.718 282.446 282.446 0 00-42.979-47.209 68.904 68.904 0 00-28.916-13.134 74.443 74.443 0 00-31.645 1.329c-10.297 2.405-19.737 6.94-29.329 10.175a140.54 140.54 0 01-28.992 7.317 63.51 63.51 0 01-28.56-3.005 77.975 77.975 0 01-23.351-14.379c-13.773-11.792-25.691-24.206-37.905-34.273a323.274 323.274 0 00-63.721-42.464c-8.323-4.081-15.194-7.013-19.399-9.16l-7.02-2.996 6.957 3.145c4.481 1.912 11.075 5.08 19.335 9.31a322.904 322.904 0 0163.167 42.934c12.043 10.259 23.898 22.822 37.478 34.444a79.001 79.001 0 0023.908 15.146 65.71 65.71 0 0029.178 3.004 146.325 146.325 0 0029.546-7.169c9.742-3.171 19.182-7.706 29.202-9.876a73.4 73.4 0 0130.537-1.007 64.185 64.185 0 0127.743 13.604 283.493 283.493 0 0141.294 47.02 127.045 127.045 0 0021.445 22.57 58.419 58.419 0 0013.468 7.955 47.332 47.332 0 0015.338 3.366l3.796.208 3.945-.348a41.479 41.479 0 007.569-1.184 57.396 57.396 0 007.12-1.995l6.713-2.697a93.422 93.422 0 0126.542-5.714 106.7 106.7 0 0148.679 9.03 162.503 162.503 0 0136.287 21.929 228.986 228.986 0 0124.472 22.096c6.365 6.601 10.916 12.074 14.013 15.78 3.098 3.705 4.509 5.985 4.509 5.985l5.795-4.061z" fill="url(#paint4_linear_3_15814)"/><path d="M400.666 319.883s-1.667-2.3-4.808-6.113c-3.14-3.812-7.904-9.199-14.547-16.183a222.075 222.075 0 00-25.219-22.416 172.26 172.26 0 00-37.779-21.947 111.395 111.395 0 00-51.153-9.026 95.758 95.758 0 00-27.927 6.27 66.38 66.38 0 01-27.417 5.694 44.465 44.465 0 01-13.567-2.964 58.789 58.789 0 01-12.7-7.274 126.277 126.277 0 01-21.102-21.717 282.439 282.439 0 00-42.765-47.295 68.909 68.909 0 00-28.916-13.134 74.417 74.417 0 00-31.944 1.202c-10.297 2.404-19.738 6.94-29.33 10.175a140.601 140.601 0 01-28.991 7.316 63.503 63.503 0 01-28.261-2.877 79.568 79.568 0 01-23.352-14.379c-13.773-11.792-25.798-24.163-38.437-34.059a318.31 318.31 0 00-63.188-42.06c-8.366-4.187-15.237-7.12-19.441-9.267l-7.021-2.995 6.957 3.145c4.481 1.912 11.076 5.079 19.335 9.31a322.923 322.923 0 0163.167 42.934c12.043 10.259 23.898 22.822 37.479 34.444a79.023 79.023 0 0023.907 15.146 63.967 63.967 0 0029.135 2.897 138.943 138.943 0 0029.59-7.062c9.74-3.171 19.181-7.706 29.201-9.876a73.4 73.4 0 0130.537-1.007 64.777 64.777 0 0127.744 13.604 288.237 288.237 0 0141.293 47.02 126.316 126.316 0 0021.488 22.677 62.607 62.607 0 0013.468 7.954 47.313 47.313 0 0015.338 3.367l3.797.207 3.944-.347a41.467 41.467 0 007.569-1.185 57.392 57.392 0 007.12-1.994l6.714-2.697a93.34 93.34 0 0126.542-5.714 106.687 106.687 0 0148.891 8.325 162.483 162.483 0 0136.5 22.462 229.006 229.006 0 0124.473 22.097c6.322 6.494 10.915 12.073 14.013 15.779 3.098 3.706 4.509 5.985 4.509 5.985l5.154-4.422z" fill="url(#paint5_linear_3_15814)"/><path d="M394.163 335.119s-1.667-2.301-4.807-6.113c-3.141-3.812-7.905-9.2-14.547-16.184a222.173 222.173 0 00-25.22-22.415 172.24 172.24 0 00-37.779-21.948 111.392 111.392 0 00-51.153-9.025 95.773 95.773 0 00-27.927 6.27 64.55 64.55 0 01-27.416 5.694 44.443 44.443 0 01-13.568-2.965 58.785 58.785 0 01-12.7-7.273 126.32 126.32 0 01-21.102-21.718 282.47 282.47 0 00-42.381-46.954 68.9 68.9 0 00-28.916-13.133 74.423 74.423 0 00-32.414.647c-10.296 2.405-19.737 6.94-29.329 10.175a140.54 140.54 0 01-28.992 7.317 63.498 63.498 0 01-27.962-2.75 79.57 79.57 0 01-23.352-14.379c-13.772-11.792-25.797-24.163-37.904-34.273a323.265 323.265 0 00-64.019-41.973c-8.323-4.081-15.194-7.013-19.399-9.16l-7.02-2.996 6.957 3.145c4.481 1.912 11.075 5.079 19.335 9.31a322.886 322.886 0 0163.167 42.934c12.043 10.259 23.897 22.822 37.478 34.444A79.004 79.004 0 00-32.9 196.942a65.348 65.348 0 0029.285 2.961 144.138 144.138 0 0029.44-7.126 305.415 305.415 0 0129.202-9.876 73.4 73.4 0 0130.537-1.007 64.768 64.768 0 0127.743 13.604 287.045 287.045 0 0141.336 47.127 127.15 127.15 0 0021.445 22.57 62.549 62.549 0 0013.469 7.954 47.301 47.301 0 0015.338 3.367l3.903.165 3.838-.305a41.394 41.394 0 007.569-1.185 57.44 57.44 0 007.12-1.994l6.713-2.697a93.354 93.354 0 0126.542-5.714 106.694 106.694 0 0148.401 8.646 162.512 162.512 0 0136.501 22.462 228.986 228.986 0 0124.472 22.096c6.322 6.495 10.916 12.074 14.013 15.78 3.098 3.706 4.509 5.985 4.509 5.985l5.687-4.636z" fill="url(#paint6_linear_3_15814)"/><path d="M387.66 350.355s-1.667-2.301-4.807-6.113c-3.141-3.812-7.904-9.2-14.547-16.184a222.076 222.076 0 00-25.22-22.415 172.24 172.24 0 00-37.779-21.948 110.144 110.144 0 00-51.153-9.026 95.807 95.807 0 00-27.927 6.271 66.391 66.391 0 01-27.416 5.693 44.448 44.448 0 01-13.568-2.964 58.778 58.778 0 01-12.699-7.273 126.325 126.325 0 01-21.103-21.718 282.496 282.496 0 00-42.786-47.039 68.9 68.9 0 00-28.916-13.133 74.423 74.423 0 00-32.094.519c-10.297 2.405-19.737 6.94-29.329 10.175a140.604 140.604 0 01-28.992 7.317 63.51 63.51 0 01-28.388-2.579 79.57 79.57 0 01-23.352-14.379c-13.773-11.792-25.798-24.163-38.438-34.059a323.247 323.247 0 00-63.059-42.358c-8.323-4.081-15.195-7.014-19.399-9.161l-7.021-2.996 6.957 3.146c4.481 1.912 11.076 5.079 19.335 9.31a322.897 322.897 0 0163.167 42.934c12.043 10.259 23.898 22.822 37.479 34.444a79.023 79.023 0 0023.907 15.146 63.744 63.744 0 0029.242 2.854 136.863 136.863 0 0029.483-7.019c9.848-3.214 19.181-7.707 29.201-9.876a73.384 73.384 0 0130.537-1.007 66.262 66.262 0 0127.851 13.561 294.945 294.945 0 0141.186 47.063 126.316 126.316 0 0021.488 22.677 62.607 62.607 0 0013.468 7.954 47.313 47.313 0 0015.338 3.367l3.903.164 3.838-.304a41.467 41.467 0 007.569-1.185 57.392 57.392 0 007.12-1.994l6.714-2.697a93.34 93.34 0 0126.542-5.714 106.689 106.689 0 0148.699 8.773 162.503 162.503 0 0136.287 21.929 228.899 228.899 0 0124.472 22.097c6.322 6.494 10.916 12.074 14.014 15.779 3.097 3.706 4.508 5.985 4.508 5.985l5.688-4.017z" fill="url(#paint7_linear_3_15814)"/><path d="M381.157 365.59s-1.666-2.3-4.807-6.112c-3.141-3.813-7.904-9.2-14.547-16.184a222.055 222.055 0 00-25.219-22.415 172.27 172.27 0 00-37.78-21.948 111.402 111.402 0 00-51.152-9.026 95.804 95.804 0 00-27.928 6.27 66.376 66.376 0 01-27.416 5.694 44.435 44.435 0 01-13.567-2.964 58.785 58.785 0 01-12.7-7.273 126.325 126.325 0 01-21.103-21.718 282.477 282.477 0 00-42.871-47.252 68.913 68.913 0 00-29.13-13.048 74.428 74.428 0 00-31.88.434c-10.297 2.404-19.738 6.94-29.33 10.175a140.6 140.6 0 01-28.992 7.316 63.51 63.51 0 01-28.388-2.578 79.592 79.592 0 01-23.352-14.379c-13.773-11.792-25.797-24.163-38.437-34.059a323.288 323.288 0 00-63.06-42.359c-8.323-4.081-15.194-7.013-19.399-9.16l-7.446-2.825 6.956 3.146c4.482 1.912 11.076 5.079 19.336 9.309a322.985 322.985 0 0163.167 42.934c12.043 10.26 23.897 22.823 37.478 34.445a79.021 79.021 0 0023.907 15.146 63.743 63.743 0 0029.242 2.854 136.863 136.863 0 0029.483-7.019c9.848-3.214 19.182-7.707 29.201-9.876a73.367 73.367 0 0130.537-1.007 66.257 66.257 0 0127.85 13.561 293.421 293.421 0 0141.23 47.169 127.156 127.156 0 0021.445 22.571 62.59 62.59 0 0013.469 7.954 47.301 47.301 0 0015.338 3.367l3.903.164 3.838-.304a41.48 41.48 0 007.569-1.185 57.426 57.426 0 007.119-1.994l6.714-2.698a92.673 92.673 0 0126.542-5.713 106.683 106.683 0 0149.425 8.73 167.44 167.44 0 0136.607 22.418 242.501 242.501 0 0124.366 22.14c6.322 6.494 10.915 12.074 14.013 15.779 3.098 3.706 4.509 5.985 4.509 5.985l5.26-4.465z" fill="url(#paint8_linear_3_15814)"/><path d="M374.655 380.826s-1.667-2.3-4.808-6.113c-3.14-3.812-7.904-9.199-14.547-16.183a222.075 222.075 0 00-25.219-22.416 172.243 172.243 0 00-37.78-21.947 111.389 111.389 0 00-51.152-9.026 95.758 95.758 0 00-27.927 6.27 66.38 66.38 0 01-27.417 5.694 44.465 44.465 0 01-13.567-2.964 58.789 58.789 0 01-12.7-7.274 126.246 126.246 0 01-21.102-21.718 282.487 282.487 0 00-42.958-47.465 68.916 68.916 0 00-28.916-13.133 74.431 74.431 0 00-31.752 1.372c-10.296 2.404-19.737 6.94-29.328 10.175a140.6 140.6 0 01-28.992 7.316 63.51 63.51 0 01-28.389-2.578 79.59 79.59 0 01-23.352-14.379c-13.772-11.792-25.691-24.206-37.904-34.273a323.228 323.228 0 00-63.935-42.997c-8.323-4.081-15.195-7.013-19.399-9.161l-7.148-2.697 6.957 3.146c4.588 1.869 11.075 5.079 19.335 9.31a319.418 319.418 0 0163.167 42.934c12.043 10.259 23.855 22.715 37.478 34.444a79.022 79.022 0 0023.908 15.146 65.122 65.122 0 0029.242 2.854 136.862 136.862 0 0029.483-7.019c9.847-3.214 19.181-7.707 29.2-9.876a73.383 73.383 0 0130.538-1.007 64.762 64.762 0 0127.744 13.604 288.179 288.179 0 0141.293 47.02 126.31 126.31 0 0021.487 22.677 62.614 62.614 0 0013.469 7.954 47.301 47.301 0 0015.338 3.367l3.903.164 3.838-.304a41.48 41.48 0 007.569-1.185 57.392 57.392 0 007.12-1.994l6.713-2.698a92.673 92.673 0 0126.542-5.713 105.885 105.885 0 0149.425 8.73 167.403 167.403 0 0136.393 21.886 242.491 242.491 0 0124.366 22.139c6.322 6.494 10.916 12.074 14.013 15.779 3.098 3.706 4.509 5.986 4.509 5.986l5.262-3.847z" fill="url(#paint9_linear_3_15814)"/><path d="M368.152 396.062s-1.667-2.301-4.808-6.113c-3.14-3.812-7.904-9.2-14.547-16.184a229.594 229.594 0 00-25.262-22.521 174.863 174.863 0 00-37.779-21.948 111.406 111.406 0 00-51.153-9.026 95.805 95.805 0 00-27.927 6.27 68.227 68.227 0 01-27.416 5.694 44.441 44.441 0 01-13.568-2.964 58.826 58.826 0 01-12.7-7.273 126.356 126.356 0 01-21.102-21.718 282.47 282.47 0 00-43-47.572 68.903 68.903 0 00-28.703-13.219 74.431 74.431 0 00-31.752 1.372C18.14 243.264 8.698 247.8-.894 251.035a140.6 140.6 0 01-28.992 7.316 63.51 63.51 0 01-28.388-2.578 79.591 79.591 0 01-23.352-14.379c-13.773-11.792-25.691-24.206-38.437-34.059a323.235 323.235 0 00-63.616-43.125c-8.323-4.082-15.194-7.014-19.398-9.161-4.205-2.147-7.021-2.996-7.021-2.996l6.957 3.145c4.588 1.87 11.076 5.08 19.335 9.31a314.541 314.541 0 0163.167 42.934c12.043 10.26 23.898 22.823 37.478 34.445a79.023 79.023 0 0023.908 15.146 63.75 63.75 0 0028.923 3.601 136.921 136.921 0 0029.483-7.019c9.848-3.214 19.181-7.707 29.201-9.876a73.383 73.383 0 0130.537-1.008 66.27 66.27 0 0127.85 13.562 294.88 294.88 0 0141.187 47.063 126.316 126.316 0 0021.488 22.677 62.607 62.607 0 0013.468 7.954 47.339 47.339 0 0015.338 3.367l3.903.164 3.838-.305a54.06 54.06 0 007.569-1.184 57.392 57.392 0 007.12-1.994l6.714-2.698a92.673 92.673 0 0126.542-5.713 105.88 105.88 0 0149.914 8.409 167.413 167.413 0 0136.608 22.419 242.48 242.48 0 0124.365 22.139c6.323 6.494 11.023 12.031 14.014 15.779 2.991 3.749 4.508 5.985 4.508 5.985l4.835-4.293z" fill="url(#paint10_linear_3_15814)"/><path d="M361.649 411.298s-1.667-2.301-4.85-6.22c-3.184-3.918-7.905-9.199-14.505-16.077a229.614 229.614 0 00-25.262-22.522 174.9 174.9 0 00-37.779-21.947 110.131 110.131 0 00-51.153-9.026 95.568 95.568 0 00-27.82 6.227 65.707 65.707 0 01-27.417 5.694 43.205 43.205 0 01-13.567-2.964 58.826 58.826 0 01-12.7-7.273 126.282 126.282 0 01-21.102-21.718 282.483 282.483 0 00-42.21-47.147 68.908 68.908 0 00-29.472-13.9 74.43 74.43 0 00-31.752 1.372c-10.297 2.404-19.737 6.94-29.33 10.175a140.667 140.667 0 01-28.991 7.317 63.525 63.525 0 01-28.389-2.579A79.59 79.59 0 01-88 256.331c-13.773-11.792-25.692-24.206-37.905-34.273a323.262 323.262 0 00-63.721-42.464c-8.323-4.081-15.194-7.013-19.399-9.161l-7.02-2.995 6.957 3.145c4.587 1.869 11.075 5.079 19.335 9.31a314.528 314.528 0 0163.167 42.934c12.043 10.259 23.855 22.716 37.478 34.444A79.022 79.022 0 00-65.2 272.417a65.121 65.121 0 0028.581 3.367 136.862 136.862 0 0029.483-7.019 303.287 303.287 0 0129.201-9.876 73.383 73.383 0 0130.537-1.007 66.257 66.257 0 0127.85 13.561 294.834 294.834 0 0141.187 47.063 127.949 127.949 0 0021.488 22.677 62.575 62.575 0 0014.257 7.761 47.313 47.313 0 0015.338 3.367l3.903.164 3.838-.304a41.48 41.48 0 007.569-1.185 57.392 57.392 0 007.12-1.994l6.714-2.698a92.666 92.666 0 0126.541-5.713 105.876 105.876 0 0148.679 9.029 167.419 167.419 0 0136.393 21.886 242.392 242.392 0 0124.366 22.14c6.322 6.494 11.022 12.031 14.014 15.779 2.991 3.748 4.508 5.985 4.508 5.985l5.283-4.102z" fill="url(#paint11_linear_3_15814)"/><path d="M355.146 426.533s-1.667-2.3-4.807-6.112c-3.141-3.812-7.905-9.2-14.547-16.184a229.797 229.797 0 00-25.262-22.522 174.935 174.935 0 00-37.78-21.948 110.141 110.141 0 00-51.152-9.025 94.96 94.96 0 00-27.821 6.227 65.706 65.706 0 01-27.416 5.694 43.211 43.211 0 01-13.568-2.964 58.789 58.789 0 01-12.7-7.274 126.32 126.32 0 01-21.102-21.718 282.514 282.514 0 00-42.21-47.146 68.903 68.903 0 00-28.917-13.133 74.415 74.415 0 00-31.751 1.371c-10.297 2.405-19.738 6.94-29.33 10.175a140.588 140.588 0 01-30.42 7.149 63.51 63.51 0 01-28.389-2.579 79.569 79.569 0 01-23.352-14.379c-13.772-11.792-25.797-24.163-38.437-34.059a323.262 323.262 0 00-63.721-42.464c-8.323-4.081-15.194-7.013-19.399-9.16l-7.02-2.996 6.957 3.145c4.481 1.912 11.075 5.079 19.335 9.31a314.556 314.556 0 0163.167 42.934c12.043 10.26 23.855 22.716 37.478 34.444a80.379 80.379 0 0023.907 15.146 63.732 63.732 0 0030.202 2.469 136.862 136.862 0 0029.482-7.019 303.284 303.284 0 0129.202-9.876 73.4 73.4 0 0130.537-1.007 66.257 66.257 0 0127.85 13.561 294.93 294.93 0 0141.187 47.063 127.943 127.943 0 0021.487 22.677c4.309 3.128 9 5.693 13.959 7.634a47.326 47.326 0 0015.338 3.366l3.903.165 3.369-.24a41.48 41.48 0 007.569-1.185 57.44 57.44 0 007.12-1.994l6.713-2.697a92.674 92.674 0 0126.542-5.714 105.893 105.893 0 0148.679 9.029 167.483 167.483 0 0136.607 22.419 242.501 242.501 0 0124.366 22.14c6.322 6.494 11.022 12.031 14.013 15.779 2.991 3.749 4.509 5.985 4.509 5.985l5.623-4.487z" fill="url(#paint12_linear_3_15814)"/><path d="M348.643 441.769s-1.666-2.3-4.85-6.219c-3.183-3.919-7.904-9.2-14.504-16.077a229.603 229.603 0 00-25.262-22.522 174.911 174.911 0 00-37.78-21.948 110.14 110.14 0 00-51.152-9.026 94.993 94.993 0 00-27.821 6.228 67.53 67.53 0 01-27.416 5.693 45.005 45.005 0 01-13.568-2.964 58.785 58.785 0 01-12.7-7.273 126.356 126.356 0 01-21.102-21.718 282.474 282.474 0 00-42.21-47.146 68.891 68.891 0 00-28.916-13.133 74.415 74.415 0 00-31.752 1.371c-10.297 2.405-19.737 6.94-29.33 10.175a140.573 140.573 0 01-30.207 7.063 63.51 63.51 0 01-28.388-2.579 79.565 79.565 0 01-23.352-14.379c-13.773-11.792-25.691-24.205-37.905-34.273a323.262 323.262 0 00-63.721-42.464c-8.323-4.081-15.194-7.013-19.399-9.16l-6.914-3.039 6.851 3.188c4.481 1.912 11.075 5.079 19.335 9.31a319.461 319.461 0 0163.167 42.934c12.043 10.26 23.855 22.716 37.478 34.444a78.987 78.987 0 0023.908 15.146 65.115 65.115 0 0029.668 2.683 136.862 136.862 0 0029.483-7.019 303.285 303.285 0 0129.201-9.876 73.4 73.4 0 0130.537-1.007 66.27 66.27 0 0127.85 13.561 294.918 294.918 0 0141.187 47.063 127.912 127.912 0 0021.488 22.677 62.585 62.585 0 0013.659 7.506 47.313 47.313 0 0015.339 3.367l3.902.164 3.583-.325a41.47 41.47 0 007.568-1.185 57.392 57.392 0 007.12-1.994l6.714-2.697a92.674 92.674 0 0126.542-5.714 105.867 105.867 0 0149.191 9.69 167.38 167.38 0 0136.393 21.886 242.382 242.382 0 0124.366 22.139c6.322 6.494 11.022 12.031 14.014 15.78 2.991 3.748 4.466 5.878 4.466 5.878l5.239-4.209z" fill="url(#paint13_linear_3_15814)"/><path d="M342.141 457.005s-1.667-2.301-4.808-6.113c-3.14-3.812-7.904-9.2-14.547-16.184a222.249 222.249 0 00-25.219-22.415 172.27 172.27 0 00-37.78-21.948 110.139 110.139 0 00-51.152-9.025 94.967 94.967 0 00-27.821 6.227 67.531 67.531 0 01-27.416 5.694 45.065 45.065 0 01-13.568-2.964 58.813 58.813 0 01-12.7-7.274 126.35 126.35 0 01-21.102-21.717 282.467 282.467 0 00-42.21-47.147 68.903 68.903 0 00-28.916-13.133 74.415 74.415 0 00-31.752 1.371c-10.297 2.405-19.737 6.94-29.33 10.175a140.596 140.596 0 01-30.037 6.871 63.496 63.496 0 01-28.388-2.579 79.546 79.546 0 01-23.352-14.379c-13.773-11.792-25.691-24.205-38.437-34.059a323.306 323.306 0 00-63.721-42.464c-8.323-4.081-15.195-7.013-19.399-9.16l-6.914-3.039 6.85 3.188c4.588 1.87 11.076 5.079 19.335 9.31a314.541 314.541 0 0163.167 42.934c12.043 10.26 23.855 22.716 37.479 34.445a80.386 80.386 0 0023.907 15.145 65.1 65.1 0 0030.201 2.469 136.862 136.862 0 0029.483-7.019 303.296 303.296 0 0129.201-9.876 73.4 73.4 0 0130.537-1.007 66.258 66.258 0 0127.85 13.562 294.847 294.847 0 0141.187 47.062 127.914 127.914 0 0021.488 22.677 62.598 62.598 0 0013.361 7.379 49.037 49.037 0 0015.338 3.366l3.903.165 3.795-.411a54.209 54.209 0 007.569-1.185 57.392 57.392 0 007.12-1.994l6.714-2.697a92.668 92.668 0 0126.541-5.714 105.884 105.884 0 0148.979 9.775 167.483 167.483 0 0136.607 22.419 250.197 250.197 0 0124.323 22.033c6.365 6.601 11.065 12.138 14.056 15.886 2.992 3.748 4.509 5.985 4.509 5.985l5.069-4.635z" fill="url(#paint14_linear_3_15814)"/><path d="M335.638 472.241s-1.667-2.301-4.85-6.22c-3.184-3.918-7.905-9.199-14.505-16.077a229.706 229.706 0 00-25.262-22.522 174.9 174.9 0 00-37.779-21.947 110.131 110.131 0 00-51.153-9.026 94.999 94.999 0 00-27.821 6.227 67.528 67.528 0 01-27.416 5.694 44.992 44.992 0 01-13.567-2.964 63.41 63.41 0 01-12.7-7.273 126.303 126.303 0 01-21.102-21.718 282.472 282.472 0 00-42.21-47.147 68.904 68.904 0 00-28.917-13.133 74.415 74.415 0 00-31.752 1.372c-10.297 2.404-19.737 6.94-29.329 10.174a140.584 140.584 0 01-29.781 6.892 62.374 62.374 0 01-28.282-2.621 77.888 77.888 0 01-23.459-14.336c-13.772-11.793-25.691-24.206-38.437-34.059a323.218 323.218 0 00-63.721-42.464c-8.323-4.082-15.194-7.014-19.399-9.161l-6.914-3.039 6.851 3.188c4.587 1.87 11.075 5.08 19.335 9.31a314.598 314.598 0 0163.167 42.934c12.043 10.26 23.855 22.716 37.478 34.445a80.398 80.398 0 0023.907 15.145 65.123 65.123 0 0029.242 2.855 136.921 136.921 0 0029.483-7.019 303.28 303.28 0 0129.202-9.876 73.384 73.384 0 0130.537-1.008 66.271 66.271 0 0127.85 13.562 294.826 294.826 0 0141.186 47.063 126.33 126.33 0 0021.488 22.677 62.602 62.602 0 0014.021 6.865 51.906 51.906 0 0015.339 3.367l3.903.165 4.008-.497a54.209 54.209 0 007.569-1.185 57.392 57.392 0 007.12-1.994l6.713-2.697a92.674 92.674 0 0126.542-5.714 105.889 105.889 0 0148.766 9.861 167.43 167.43 0 0136.607 22.419 242.491 242.491 0 0124.366 22.139c6.322 6.494 11.022 12.031 14.013 15.78 2.991 3.748 4.466 5.878 4.466 5.878l5.197-4.315z" fill="url(#paint15_linear_3_15814)"/><path d="M329.092 487.37s-1.624-2.194-4.807-6.113c-3.184-3.919-7.905-9.2-14.505-16.077a229.614 229.614 0 00-25.262-22.522 174.904 174.904 0 00-37.779-21.948 110.143 110.143 0 00-51.153-9.025 94.953 94.953 0 00-27.82 6.227 65.707 65.707 0 01-27.417 5.694 45.036 45.036 0 01-13.567-2.965 63.313 63.313 0 01-12.7-7.273A126.274 126.274 0 0192.98 391.65a282.505 282.505 0 00-42.21-47.146 68.891 68.891 0 00-28.917-13.133 74.415 74.415 0 00-31.752 1.371c-10.296 2.405-19.737 6.94-29.328 10.175a140.55 140.55 0 01-29.569 6.806 62.373 62.373 0 01-28.282-2.621 77.87 77.87 0 01-23.458-14.336c-13.773-11.793-25.691-24.206-38.438-34.059a323.189 323.189 0 00-63.721-42.464c-8.323-4.082-15.194-7.014-19.398-9.161l-7.021-2.996 6.914 3.039c4.631 1.976 11.119 5.186 19.378 9.416a314.541 314.541 0 0163.167 42.934c12.043 10.26 23.855 22.716 37.478 34.445a82.213 82.213 0 0023.908 15.145 65.108 65.108 0 0029.242 2.855 136.921 136.921 0 0029.483-7.019 303.285 303.285 0 0129.201-9.876 73.367 73.367 0 0130.537-1.007 66.258 66.258 0 0127.85 13.561 294.874 294.874 0 0141.187 47.063 127.917 127.917 0 0021.488 22.677 62.583 62.583 0 0013.468 7.954 49.038 49.038 0 0015.338 3.367l3.903.164 3.838-.304a54.209 54.209 0 007.569-1.185 57.392 57.392 0 007.12-1.994l6.82-2.741a92.592 92.592 0 0126.435-5.67 105.887 105.887 0 0149.19 8.453 167.417 167.417 0 0136.607 22.418 242.621 242.621 0 0124.366 22.14c6.322 6.494 11.022 12.031 14.013 15.779 2.992 3.749 4.509 5.985 4.509 5.985l5.197-4.315z" fill="url(#paint16_linear_3_15814)"/><path d="M322.632 502.712s-1.667-2.301-4.85-6.219c-3.184-3.919-7.904-9.2-14.504-16.077a229.695 229.695 0 00-25.262-22.522 172.27 172.27 0 00-37.78-21.948 110.142 110.142 0 00-51.152-9.026 94.993 94.993 0 00-27.821 6.228 67.53 67.53 0 01-27.416 5.693 45.005 45.005 0 01-13.568-2.964 63.362 63.362 0 01-12.7-7.273 126.33 126.33 0 01-21.102-21.718 288.667 288.667 0 00-42.104-47.189 70.624 70.624 0 00-29.022-13.091 74.431 74.431 0 00-31.752 1.372c-10.297 2.404-19.738 6.94-29.33 10.175a140.602 140.602 0 01-28.991 7.317 62.36 62.36 0 01-28.282-2.622 77.832 77.832 0 01-23.458-14.336c-13.773-11.792-25.692-24.205-38.438-34.059a323.262 323.262 0 00-63.721-42.464c-8.323-4.081-15.194-7.013-19.399-9.16l-6.914-3.039 6.851 3.188c4.588 1.869 11.075 5.079 19.335 9.31a314.5 314.5 0 0163.167 42.934c12.043 10.26 23.855 22.716 37.478 34.444a80.377 80.377 0 0023.908 15.146 65.12 65.12 0 0029.241 2.855 136.923 136.923 0 0029.483-7.02 303.56 303.56 0 0129.202-9.876 73.4 73.4 0 0130.537-1.007 66.259 66.259 0 0127.85 13.562 294.863 294.863 0 0141.187 47.062 127.918 127.918 0 0021.487 22.677 62.549 62.549 0 0013.469 7.954 49.026 49.026 0 0015.338 3.367l3.903.165 3.838-.305a54.209 54.209 0 007.569-1.185 57.44 57.44 0 007.12-1.994l6.82-2.74a92.586 92.586 0 0126.435-5.671 105.897 105.897 0 0148.528 7.729 167.407 167.407 0 0136.607 22.419 242.491 242.491 0 0124.366 22.139c6.322 6.494 11.022 12.031 14.013 15.78 2.991 3.748 4.466 5.878 4.466 5.878l5.368-3.889z" fill="url(#paint17_linear_3_15814)"/><path d="M316.087 517.841s-1.624-2.194-4.808-6.112c-3.183-3.919-7.904-9.2-14.504-16.078a229.594 229.594 0 00-25.262-22.521 174.846 174.846 0 00-37.78-21.948 110.127 110.127 0 00-51.152-9.026 94.999 94.999 0 00-27.821 6.227 67.515 67.515 0 01-27.416 5.694 42.714 42.714 0 01-13.611-3.071 58.885 58.885 0 01-12.699-7.273 126.276 126.276 0 01-21.103-21.718 288.704 288.704 0 00-42.103-47.189 70.622 70.622 0 00-29.023-13.09 74.415 74.415 0 00-31.752 1.371c-10.297 2.405-19.737 6.94-29.329 10.175a140.539 140.539 0 01-28.992 7.317 62.375 62.375 0 01-28.282-2.621 77.872 77.872 0 01-23.458-14.336c-13.773-11.793-25.691-24.206-37.905-34.274a323.277 323.277 0 00-63.721-42.464c-8.323-4.081-15.237-7.12-19.398-9.16l-6.914-3.039 6.807 3.082c4.631 1.976 11.118 5.185 19.378 9.416a314.5 314.5 0 0163.167 42.934c12.043 10.26 23.855 22.716 37.478 34.444a82.215 82.215 0 0023.908 15.146 65.121 65.121 0 0029.242 2.855 136.982 136.982 0 0029.483-7.019 303.292 303.292 0 0129.201-9.877 73.4 73.4 0 0130.537-1.007 66.259 66.259 0 0127.85 13.562 294.862 294.862 0 0141.187 47.062 127.875 127.875 0 0021.487 22.677 62.586 62.586 0 0013.469 7.955 49.065 49.065 0 0015.338 3.366l3.305-.709 3.838-.304a54.209 54.209 0 007.569-1.185 57.426 57.426 0 007.119-1.994l6.821-2.74a92.545 92.545 0 0126.435-5.671 105.881 105.881 0 0148.679 9.03 167.407 167.407 0 0136.052 22.27 250.08 250.08 0 0124.323 22.033c6.365 6.6 11.065 12.137 14.056 15.886 2.992 3.748 4.466 5.878 4.466 5.878l5.838-3.954z" fill="url(#paint18_linear_3_15814)"/><path d="M309.584 533.077s-1.624-2.194-4.808-6.113c-3.183-3.918-7.904-9.199-14.504-16.077a229.706 229.706 0 00-25.262-22.522 172.264 172.264 0 00-37.779-21.948 108.873 108.873 0 00-51.153-9.025 94.999 94.999 0 00-27.821 6.227 67.528 67.528 0 01-27.416 5.694 42.702 42.702 0 01-13.61-3.071 58.878 58.878 0 01-12.7-7.273 126.329 126.329 0 01-21.103-21.718 282.465 282.465 0 00-42.21-47.146 68.906 68.906 0 00-28.916-13.134 74.431 74.431 0 00-31.752 1.372c-10.296 2.404-19.737 6.94-29.329 10.175a138.49 138.49 0 01-28.885 7.274 63.284 63.284 0 01-28.495-2.536 79.574 79.574 0 01-23.352-14.379c-13.773-11.792-25.691-24.206-38.437-34.059a323.262 323.262 0 00-63.721-42.464c-8.323-4.081-15.195-7.013-19.399-9.16l-6.914-3.039 6.807 3.081c4.631 1.976 11.119 5.186 19.378 9.417a314.5 314.5 0 0163.167 42.934c12.044 10.259 23.855 22.716 37.479 34.444a80.372 80.372 0 0023.907 15.146 65.109 65.109 0 0029.135 2.897 136.862 136.862 0 0029.483-7.019 303.285 303.285 0 0129.202-9.876 73.4 73.4 0 0130.537-1.007 66.269 66.269 0 0127.85 13.561 294.918 294.918 0 0141.187 47.063 127.909 127.909 0 0021.487 22.677 62.136 62.136 0 0013.575 7.911 46.737 46.737 0 0015.232 3.41l3.903.164 3.838-.304a54.209 54.209 0 007.569-1.185 57.44 57.44 0 007.12-1.994l6.82-2.74a92.552 92.552 0 0126.435-5.671 105.881 105.881 0 0148.679 9.03 167.394 167.394 0 0136.221 20.841 250.197 250.197 0 0124.323 22.033c6.365 6.6 11.065 12.137 14.056 15.886 2.991 3.748 4.466 5.878 4.466 5.878l5.71-3.655z" fill="url(#paint19_linear_3_15814)"/><path d="M303.081 548.313s-1.624-2.194-4.807-6.113c-3.184-3.918-7.905-9.2-14.505-16.077a229.603 229.603 0 00-25.262-22.522 174.904 174.904 0 00-37.779-21.948 110.13 110.13 0 00-51.153-9.025 94.953 94.953 0 00-27.82 6.227 67.536 67.536 0 01-27.417 5.694 45.065 45.065 0 01-13.567-2.964 63.367 63.367 0 01-12.7-7.274 132.5 132.5 0 01-21.102-21.718 288.708 288.708 0 00-42.104-47.189 70.623 70.623 0 00-29.023-13.09 74.415 74.415 0 00-31.752 1.371c-10.296 2.405-19.737 6.94-29.329 10.175a140.54 140.54 0 01-28.992 7.317 62.372 62.372 0 01-28.281-2.621 77.877 77.877 0 01-23.459-14.336c-13.773-11.793-25.691-24.206-37.904-34.274a323.306 323.306 0 00-63.721-42.464c-8.323-4.081-15.238-7.12-19.399-9.16l-6.914-3.039 6.85 3.188c4.588 1.87 11.076 5.079 19.335 9.31a314.541 314.541 0 0163.167 42.934c12.043 10.26 23.855 22.716 37.479 34.445a82.215 82.215 0 0023.907 15.145 65.114 65.114 0 0028.474 2.792 136.865 136.865 0 0029.483-7.019 303.285 303.285 0 0129.201-9.876 73.366 73.366 0 0130.537-1.007 66.257 66.257 0 0127.85 13.561 294.87 294.87 0 0141.187 47.063 127.943 127.943 0 0021.488 22.677 62.603 62.603 0 0013.468 7.954 51.932 51.932 0 0015.339 3.367l3.902.164 3.839-.304a54.232 54.232 0 007.569-1.185 57.426 57.426 0 007.119-1.994l6.82-2.74a91.858 91.858 0 0126.436-5.671 105.893 105.893 0 0148.679 9.029 167.436 167.436 0 0136.648 21.289 241.869 241.869 0 0124.323 22.033c6.365 6.6 11.065 12.137 14.056 15.886 2.991 3.748 4.125 6.263 4.125 6.263l5.709-4.274z" fill="url(#paint20_linear_3_15814)"/><path d="M296.578 563.548s-1.624-2.194-4.807-6.112c-3.184-3.919-7.905-9.2-14.505-16.078a229.605 229.605 0 00-25.262-22.521 172.24 172.24 0 00-37.779-21.948 108.874 108.874 0 00-51.153-9.026 94.997 94.997 0 00-27.863 6.121 67.531 67.531 0 01-27.416 5.694 45.034 45.034 0 01-13.568-2.964 63.372 63.372 0 01-12.7-7.274 126.323 126.323 0 01-21.102-21.717 288.669 288.669 0 00-42.104-47.19 70.636 70.636 0 00-29.022-13.09 74.414 74.414 0 00-31.752 1.371c-10.297 2.405-19.738 6.94-29.33 10.175a138.489 138.489 0 01-28.885 7.274 62.008 62.008 0 01-28.388-2.578 77.872 77.872 0 01-23.458-14.336c-13.773-11.793-25.692-24.206-38.438-34.059a323.189 323.189 0 00-63.721-42.464c-8.323-4.082-15.237-7.12-19.399-9.161l-6.914-3.039 6.808 3.082c4.63 1.976 11.118 5.186 19.378 9.416a314.541 314.541 0 0163.167 42.934c12.043 10.26 23.855 22.716 37.478 34.445a82.212 82.212 0 0023.908 15.145 65.117 65.117 0 0028.964 2.472 136.99 136.99 0 0029.59-7.062 302.898 302.898 0 0129.094-9.834 73.4 73.4 0 0130.537-1.007 66.26 66.26 0 0127.85 13.562 294.862 294.862 0 0141.187 47.062 127.91 127.91 0 0021.487 22.677 65.997 65.997 0 0013.469 7.954 49.035 49.035 0 0015.338 3.367l3.903.165 3.838-.305a54.209 54.209 0 007.569-1.185 57.392 57.392 0 007.12-1.994l6.82-2.74a91.918 91.918 0 0126.435-5.671 105.892 105.892 0 0148.679 9.03 167.383 167.383 0 0136.607 22.419 250.2 250.2 0 0124.323 22.032c6.365 6.601 11.065 12.138 14.057 15.886 2.991 3.749 4.379 5.047 4.379 5.047l5.581-3.975z" fill="url(#paint21_linear_3_15814)"/><path d="M290.075 578.784s-1.624-2.194-4.807-6.112c-3.183-3.919-7.904-9.2-14.504-16.078a229.686 229.686 0 00-25.262-22.521 172.27 172.27 0 00-37.78-21.948 108.87 108.87 0 00-51.152-9.026 94.961 94.961 0 00-27.821 6.228 67.53 67.53 0 01-27.416 5.693 42.713 42.713 0 01-13.61-3.071 58.898 58.898 0 01-12.7-7.273 126.289 126.289 0 01-21.103-21.718 295.926 295.926 0 00-42.21-47.146 70.61 70.61 0 00-29.023-13.09 74.415 74.415 0 00-31.752 1.371c-10.296 2.405-19.737 6.94-29.329 10.175a138.492 138.492 0 01-28.885 7.274 62.02 62.02 0 01-28.388-2.579 77.837 77.837 0 01-23.459-14.336c-13.773-11.792-25.691-24.205-37.904-34.273a323.262 323.262 0 00-63.721-42.464c-8.323-4.081-15.237-7.12-19.399-9.16l-6.914-3.039s2.39 1.02 6.85 3.188c4.46 2.168 11.076 5.079 19.335 9.31a314.5 314.5 0 0163.167 42.934c12.043 10.26 23.855 22.716 37.479 34.444a82.197 82.197 0 0023.907 15.146 65.106 65.106 0 0028.452 2.429 136.858 136.858 0 0029.483-7.019 303.296 303.296 0 0129.202-9.876 73.4 73.4 0 0130.537-1.007 66.257 66.257 0 0127.85 13.561 294.912 294.912 0 0141.187 47.063 127.943 127.943 0 0021.487 22.677 59.02 59.02 0 0013.575 7.911 49.38 49.38 0 0015.232 3.41l3.903.164 3.838-.304a54.209 54.209 0 007.569-1.185 57.426 57.426 0 007.119-1.994l6.821-2.74a91.852 91.852 0 0126.435-5.671 105.893 105.893 0 0148.679 9.029 167.483 167.483 0 0136.607 22.419 250.197 250.197 0 0124.323 22.033c6.365 6.601 11.065 12.138 14.056 15.886 2.991 3.748 4.593 4.961 4.593 4.961l5.453-3.676z" fill="url(#paint22_linear_3_15814)"/><path d="M283.573 594.02s-1.624-2.194-4.808-6.113a217.17 217.17 0 00-14.547-16.183 236.108 236.108 0 00-25.219-22.416 167.647 167.647 0 00-37.78-21.947 108.857 108.857 0 00-51.152-9.026 94.999 94.999 0 00-27.821 6.227 67.531 67.531 0 01-27.416 5.694 42.713 42.713 0 01-13.61-3.071 58.898 58.898 0 01-12.7-7.273 132.162 132.162 0 01-21.103-21.718 295.883 295.883 0 00-42.21-47.146 70.624 70.624 0 00-29.023-13.091 74.431 74.431 0 00-31.752 1.372c-10.296 2.404-19.737 6.94-29.328 10.175a138.553 138.553 0 01-28.886 7.274 62.02 62.02 0 01-28.388-2.579 77.87 77.87 0 01-23.459-14.336c-13.772-11.792-25.734-24.312-38.437-34.059a323.262 323.262 0 00-63.721-42.464c-8.323-4.081-15.237-7.12-19.399-9.161l-6.914-3.038 6.808 3.081c4.63 1.976 11.118 5.186 19.378 9.417a314.556 314.556 0 0163.167 42.934c12.043 10.259 23.855 22.716 37.478 34.444a82.215 82.215 0 0023.908 15.146 65.113 65.113 0 0028.899 2.002 136.922 136.922 0 0029.483-7.019 303.285 303.285 0 0129.201-9.876 73.384 73.384 0 0130.537-1.008 66.271 66.271 0 0127.85 13.562 287.84 287.84 0 0141.187 47.063 127.943 127.943 0 0021.488 22.677 62.124 62.124 0 0013.575 7.911 49.381 49.381 0 0015.231 3.41l3.903.164 3.838-.305a54.06 54.06 0 007.569-1.184 57.392 57.392 0 007.12-1.994l6.82-2.741a93.387 93.387 0 0126.542-5.713 104.968 104.968 0 0148.572 9.072 167.413 167.413 0 0136.608 22.419 250.197 250.197 0 0124.323 22.033c6.365 6.6 11.065 12.137 14.056 15.886 2.991 3.748 4.805 4.876 4.805 4.876l5.327-3.378z" fill="url(#paint23_linear_3_15814)"/><path d="M277.07 609.256s-1.624-2.194-4.808-6.113c-3.183-3.919-7.797-9.243-14.547-16.184a236.208 236.208 0 00-25.219-22.415 170.89 170.89 0 00-37.673-21.991 110.125 110.125 0 00-51.259-8.982 94.967 94.967 0 00-27.821 6.227 67.543 67.543 0 01-27.416 5.694 42.74 42.74 0 01-13.61-3.071 58.895 58.895 0 01-12.7-7.273 132.159 132.159 0 01-21.102-21.718 295.933 295.933 0 00-42.21-47.147 70.635 70.635 0 00-29.023-13.09 74.415 74.415 0 00-31.752 1.372c-10.297 2.404-19.737 6.939-29.33 10.174a138.489 138.489 0 01-28.885 7.274 62.008 62.008 0 01-28.388-2.578 77.872 77.872 0 01-23.458-14.336c-13.773-11.792-25.734-24.312-38.438-34.059a323.233 323.233 0 00-63.721-42.464c-8.323-4.082-15.237-7.12-19.398-9.161l-6.915-3.038 6.808 3.081c4.631 1.976 11.118 5.186 19.378 9.416a314.504 314.504 0 0163.167 42.935c12.043 10.259 23.855 22.715 37.478 34.444a82.236 82.236 0 0023.908 15.146 65.122 65.122 0 0029.242 2.854 136.859 136.859 0 0029.483-7.019 303.285 303.285 0 0129.2-9.876 73.383 73.383 0 0130.538-1.007 66.257 66.257 0 0127.85 13.561 294.871 294.871 0 0141.187 47.063 127.943 127.943 0 0021.487 22.677 66.021 66.021 0 0013.084 6.995 51.896 51.896 0 0015.338 3.367l3.903.164 3.838-.304a54.218 54.218 0 007.569-1.185 57.426 57.426 0 007.119-1.994l6.821-2.74a93.34 93.34 0 0126.541-5.714 106.227 106.227 0 0148.573 9.072 167.445 167.445 0 0136.607 22.419 241.76 241.76 0 0124.323 22.033c6.365 6.6 11.065 12.138 14.056 15.886 2.991 3.748 4.466 5.878 4.466 5.878l5.709-4.273z" fill="url(#paint24_linear_3_15814)"/><path d="M270.567 624.491s-1.624-2.193-4.807-6.112c-3.184-3.919-7.798-9.243-14.547-16.184a236.316 236.316 0 00-25.22-22.415 170.85 170.85 0 00-37.673-21.991 110.139 110.139 0 00-51.259-8.983 94.986 94.986 0 00-27.82 6.228 67.533 67.533 0 01-27.417 5.693 42.711 42.711 0 01-13.61-3.07 58.939 58.939 0 01-12.7-7.273 132.202 132.202 0 01-21.102-21.718 295.935 295.935 0 00-42.21-47.147 70.623 70.623 0 00-29.023-13.09 74.415 74.415 0 00-31.752 1.371c-10.297 2.405-19.737 6.94-29.329 10.175a140.527 140.527 0 01-28.992 7.317 62.375 62.375 0 01-28.282-2.621 77.872 77.872 0 01-23.458-14.336c-13.773-11.793-25.734-24.313-37.905-34.274a323.277 323.277 0 00-63.721-42.464c-8.323-4.081-15.237-7.12-19.398-9.16l-6.915-3.039 6.808 3.082c4.631 1.976 11.118 5.185 19.378 9.416a314.541 314.541 0 0163.167 42.934c12.043 10.26 23.855 22.716 37.478 34.445a82.233 82.233 0 0023.908 15.145 65.122 65.122 0 0029.242 2.855 136.937 136.937 0 0029.59-7.062 302.625 302.625 0 0129.094-9.833 73.384 73.384 0 0130.537-1.008 66.26 66.26 0 0127.85 13.562 294.862 294.862 0 0141.187 47.062 127.875 127.875 0 0021.488 22.677 62.1 62.1 0 0012.763 7.124 49.38 49.38 0 0015.232 3.41l3.902.164 3.839-.304a54.212 54.212 0 007.569-1.185 57.404 57.404 0 007.119-1.994l6.82-2.74a93.354 93.354 0 0126.542-5.714 106.223 106.223 0 0148.572 9.072 167.45 167.45 0 0136.394 21.886 241.869 241.869 0 0124.323 22.033c6.365 6.601 11.022 12.031 14.056 15.886 3.034 3.855 4.466 5.879 4.466 5.879l5.816-3.699z" fill="url(#paint25_linear_3_15814)"/></g><defs><linearGradient id="paint0_linear_3_15814" x1="76.496" y1="80.66" x2="158.571" y2="284.591" gradientUnits="userSpaceOnUse"><stop stop-color="#fff" stop-opacity=".18"/><stop offset=".382" stop-color="#fff"/><stop offset="1" stop-color="#fff" stop-opacity="0"/></linearGradient><linearGradient id="paint1_linear_3_15814" x1="76.496" y1="80.66" x2="158.571" y2="284.591" gradientUnits="userSpaceOnUse"><stop stop-color="#fff" stop-opacity=".18"/><stop offset=".382" stop-color="#fff"/><stop offset="1" stop-color="#fff" stop-opacity="0"/></linearGradient><linearGradient id="paint2_linear_3_15814" x1="76.496" y1="80.66" x2="158.571" y2="284.591" gradientUnits="userSpaceOnUse"><stop stop-color="#fff" stop-opacity=".18"/><stop offset=".382" stop-color="#fff"/><stop offset="1" stop-color="#fff" stop-opacity="0"/></linearGradient><linearGradient id="paint3_linear_3_15814" x1="76.496" y1="80.66" x2="158.571" y2="284.591" gradientUnits="userSpaceOnUse"><stop stop-color="#fff" stop-opacity=".18"/><stop offset=".382" stop-color="#fff"/><stop offset="1" stop-color="#fff" stop-opacity="0"/></linearGradient><linearGradient id="paint4_linear_3_15814" x1="76.496" y1="80.66" x2="158.571" y2="284.591" gradientUnits="userSpaceOnUse"><stop stop-color="#fff" stop-opacity=".18"/><stop offset=".382" stop-color="#fff"/><stop offset="1" stop-color="#fff" stop-opacity="0"/></linearGradient><linearGradient id="paint5_linear_3_15814" x1="76.496" y1="80.66" x2="158.571" y2="284.591" gradientUnits="userSpaceOnUse"><stop stop-color="#fff" stop-opacity=".18"/><stop offset=".382" stop-color="#fff"/><stop offset="1" stop-color="#fff" stop-opacity="0"/></linearGradient><linearGradient id="paint6_linear_3_15814" x1="76.496" y1="80.66" x2="158.571" y2="284.591" gradientUnits="userSpaceOnUse"><stop stop-color="#fff" stop-opacity=".18"/><stop offset=".382" stop-color="#fff"/><stop offset="1" stop-color="#fff" stop-opacity="0"/></linearGradient><linearGradient id="paint7_linear_3_15814" x1="76.496" y1="80.66" x2="158.571" y2="284.591" gradientUnits="userSpaceOnUse"><stop stop-color="#fff" stop-opacity=".18"/><stop offset=".382" stop-color="#fff"/><stop offset="1" stop-color="#fff" stop-opacity="0"/></linearGradient><linearGradient id="paint8_linear_3_15814" x1="76.496" y1="80.66" x2="158.571" y2="284.591" gradientUnits="userSpaceOnUse"><stop stop-color="#fff" stop-opacity=".18"/><stop offset=".382" stop-color="#fff"/><stop offset="1" stop-color="#fff" stop-opacity="0"/></linearGradient><linearGradient id="paint9_linear_3_15814" x1="76.496" y1="80.66" x2="158.571" y2="284.591" gradientUnits="userSpaceOnUse"><stop stop-color="#fff" stop-opacity=".18"/><stop offset=".382" stop-color="#fff"/><stop offset="1" stop-color="#fff" stop-opacity="0"/></linearGradient><linearGradient id="paint10_linear_3_15814" x1="76.496" y1="80.66" x2="158.571" y2="284.591" gradientUnits="userSpaceOnUse"><stop stop-color="#fff" stop-opacity=".18"/><stop offset=".382" stop-color="#fff"/><stop offset="1" stop-color="#fff" stop-opacity="0"/></linearGradient><linearGradient id="paint11_linear_3_15814" x1="76.496" y1="80.66" x2="158.571" y2="284.591" gradientUnits="userSpaceOnUse"><stop stop-color="#fff" stop-opacity=".18"/><stop offset=".382" stop-color="#fff"/><stop offset="1" stop-color="#fff" stop-opacity="0"/></linearGradient><linearGradient id="paint12_linear_3_15814" x1="76.496" y1="80.66" x2="158.571" y2="284.591" gradientUnits="userSpaceOnUse"><stop stop-color="#fff" stop-opacity=".18"/><stop offset=".382" stop-color="#fff"/><stop offset="1" stop-color="#fff" stop-opacity="0"/></linearGradient><linearGradient id="paint13_linear_3_15814" x1="76.496" y1="80.66" x2="158.571" y2="284.591" gradientUnits="userSpaceOnUse"><stop stop-color="#fff" stop-opacity=".18"/><stop offset=".382" stop-color="#fff"/><stop offset="1" stop-color="#fff" stop-opacity="0"/></linearGradient><linearGradient id="paint14_linear_3_15814" x1="76.496" y1="80.66" x2="158.571" y2="284.591" gradientUnits="userSpaceOnUse"><stop stop-color="#fff" stop-opacity=".18"/><stop offset=".382" stop-color="#fff"/><stop offset="1" stop-color="#fff" stop-opacity="0"/></linearGradient><linearGradient id="paint15_linear_3_15814" x1="76.496" y1="80.66" x2="158.571" y2="284.591" gradientUnits="userSpaceOnUse"><stop stop-color="#fff" stop-opacity=".18"/><stop offset=".382" stop-color="#fff"/><stop offset="1" stop-color="#fff" stop-opacity="0"/></linearGradient><linearGradient id="paint16_linear_3_15814" x1="76.496" y1="80.66" x2="158.571" y2="284.591" gradientUnits="userSpaceOnUse"><stop stop-color="#fff" stop-opacity=".18"/><stop offset=".382" stop-color="#fff"/><stop offset="1" stop-color="#fff" stop-opacity="0"/></linearGradient><linearGradient id="paint17_linear_3_15814" x1="76.496" y1="80.66" x2="158.571" y2="284.591" gradientUnits="userSpaceOnUse"><stop stop-color="#fff" stop-opacity=".18"/><stop offset=".382" stop-color="#fff"/><stop offset="1" stop-color="#fff" stop-opacity="0"/></linearGradient><linearGradient id="paint18_linear_3_15814" x1="76.496" y1="80.66" x2="158.571" y2="284.591" gradientUnits="userSpaceOnUse"><stop stop-color="#fff" stop-opacity=".18"/><stop offset=".382" stop-color="#fff"/><stop offset="1" stop-color="#fff" stop-opacity="0"/></linearGradient><linearGradient id="paint19_linear_3_15814" x1="76.496" y1="80.66" x2="158.571" y2="284.591" gradientUnits="userSpaceOnUse"><stop stop-color="#fff" stop-opacity=".18"/><stop offset=".382" stop-color="#fff"/><stop offset="1" stop-color="#fff" stop-opacity="0"/></linearGradient><linearGradient id="paint20_linear_3_15814" x1="76.496" y1="80.66" x2="158.571" y2="284.591" gradientUnits="userSpaceOnUse"><stop stop-color="#fff" stop-opacity=".18"/><stop offset=".382" stop-color="#fff"/><stop offset="1" stop-color="#fff" stop-opacity="0"/></linearGradient><linearGradient id="paint21_linear_3_15814" x1="76.496" y1="80.66" x2="158.571" y2="284.591" gradientUnits="userSpaceOnUse"><stop stop-color="#fff" stop-opacity=".18"/><stop offset=".382" stop-color="#fff"/><stop offset="1" stop-color="#fff" stop-opacity="0"/></linearGradient><linearGradient id="paint22_linear_3_15814" x1="76.496" y1="80.66" x2="158.571" y2="284.591" gradientUnits="userSpaceOnUse"><stop stop-color="#fff" stop-opacity=".18"/><stop offset=".382" stop-color="#fff"/><stop offset="1" stop-color="#fff" stop-opacity="0"/></linearGradient><linearGradient id="paint23_linear_3_15814" x1="76.496" y1="80.66" x2="158.571" y2="284.591" gradientUnits="userSpaceOnUse"><stop stop-color="#fff" stop-opacity=".18"/><stop offset=".382" stop-color="#fff"/><stop offset="1" stop-color="#fff" stop-opacity="0"/></linearGradient><linearGradient id="paint24_linear_3_15814" x1="76.496" y1="80.66" x2="158.571" y2="284.591" gradientUnits="userSpaceOnUse"><stop stop-color="#fff" stop-opacity=".18"/><stop offset=".382" stop-color="#fff"/><stop offset="1" stop-color="#fff" stop-opacity="0"/></linearGradient><linearGradient id="paint25_linear_3_15814" x1="76.496" y1="80.66" x2="158.571" y2="284.591" gradientUnits="userSpaceOnUse"><stop stop-color="#fff" stop-opacity=".18"/><stop offset=".382" stop-color="#fff"/><stop offset="1" stop-color="#fff" stop-opacity="0"/></linearGradient></defs></svg>