<svg width="168" height="323" fill="none" xmlns="http://www.w3.org/2000/svg"><g opacity=".16" clip-path="url(#clip0_3_14758)"><path d="M123.173 23.43C55.259-15.806 0 15.693 0 93.943c0 78.249 55.26 172.966 123.173 212.201 67.913 39.236 123.228 7.737 123.228-70.236S191.142 62.665 123.173 23.43zm-7.681 65.981A307.49 307.49 0 0181.01 64.6c8.455-19.562 20.667-29.675 34.482-26.47v51.282zm0 17.684v44.208l-45.976-26.58a196.182 196.182 0 016.52-46.254 331.888 331.888 0 0039.456 28.626zm0 62.058v44.208a233.293 233.293 0 00-39.455-17.13 307.6 307.6 0 01-6.52-53.825l45.975 26.747zm0 62.113v51.282c-13.815-12.71-26.027-36.969-34.482-66.313a217.446 217.446 0 0134.482 15.031zm15.417 8.897a312.58 312.58 0 0134.482 25.088c-8.455 19.563-20.722 29.676-34.482 26.47v-51.558zm0-17.684v-44.208l45.921 26.193a196.945 196.945 0 01-6.576 46.309 325.737 325.737 0 00-39.345-28.294zm0-62.058v-44.374a232.913 232.913 0 0039.4 17.131 307.696 307.696 0 016.521 53.769l-45.921-26.526zm0-62.113V47.026c13.76 12.71 26.027 37.025 34.482 66.313a210.403 210.403 0 01-34.482-15.03zm33.156-24.038a252.985 252.985 0 0133.874 45.148 95.5 95.5 0 01-17.739-2.045 265.95 265.95 0 00-15.859-43.103h-.276zm-98.14-23.044c-6.374-6.005-12.287-12.14-17.739-18.402a58.518 58.518 0 0133.874-6.079 67.196 67.196 0 00-16.136 24.48zm-4.753 14.091a212.929 212.929 0 00-7.073 50.73L15.804 93.943c1.547-23.928 9.45-42.11 22.104-53.548a300.011 300.011 0 0023.264 24.922zm-7.073 68.413a332.138 332.138 0 007.073 58.909 96.892 96.892 0 00-23.485-2.211 214.964 214.964 0 01-22.104-78.802L54.1 133.73zm11.825 78.526a257.244 257.244 0 0016.136 43.048 252.975 252.975 0 01-33.874-45.313 91.843 91.843 0 0117.738 2.265zm114.553 66.313c6.299 6.024 12.267 12.158 17.738 18.402a58.516 58.516 0 01-33.874 6.079 68.638 68.638 0 0016.136-24.702v.221zm4.752-14.091a210.317 210.317 0 007.018-50.73l38.35 22.105c-1.547 23.928-9.45 42.108-22.104 53.547a299.983 299.983 0 00-23.264-25.143v.221zm7.018-68.413a326.458 326.458 0 00-7.018-58.853 99.45 99.45 0 0023.485 2.155 215.51 215.51 0 0122.104 78.802l-38.571-22.104z" fill="url(#paint0_linear_3_14758)"/><path d="M130.909 160.256l45.92 26.691a126.6 126.6 0 00-.829-14.423l-32.326-18.789v-31.388a298.258 298.258 0 01-12.599-6.355l-.166 44.264z" fill="url(#paint1_linear_3_14758)"/><path d="M130.909 47.026v51.282a210.417 210.417 0 0034.482 14.976c-1.327-4.531-2.763-8.897-4.255-13.207-5.802-2.487-11.66-5.25-17.628-8.455V62.555a84.378 84.378 0 00-12.599-15.529z" fill="url(#paint2_linear_3_14758)"/><path d="M130.909 291.446a22.82 22.82 0 0021.164-6.521 20.37 20.37 0 01-8.565 0v-36.251c-4.2-2.873-8.344-5.526-12.599-8.4v51.172z" fill="url(#paint3_linear_3_14758)"/><path d="M130.909 222.48a325.514 325.514 0 0139.4 28.459 138.311 138.311 0 003.15-14.036 340.127 340.127 0 00-29.785-21.11v-30.449l-12.599-7.294-.166 44.43z" fill="url(#paint4_linear_3_14758)"/><path d="M198.215 296.751l-1.548-1.658a62.724 62.724 0 01-19.727 1.05 54.905 54.905 0 009.615-11.771c-1.989-1.989-3.979-4.034-6.078-6.023a68.637 68.637 0 01-16.136 24.48 58.524 58.524 0 0033.874-6.078z" fill="url(#paint5_linear_3_14758)"/><path d="M82.06 255.305a256.031 256.031 0 01-16.136-43.103 96.032 96.032 0 00-17.738-2.211 252.956 252.956 0 0033.874 45.314z" fill="url(#paint6_linear_3_14758)"/><path d="M180.477 117.374a95.565 95.565 0 0017.738 2.045 252.986 252.986 0 00-33.874-45.148 266.062 266.062 0 0116.136 43.103z" fill="url(#paint7_linear_3_14758)"/><path d="M65.924 51.226a79.688 79.688 0 016.52-12.544c-3.536-3.592-6.907-7.129-10.167-10.776a53.494 53.494 0 00-14.091 5.029c5.49 6.19 11.402 12.286 17.738 18.291z" fill="url(#paint8_linear_3_14758)"/><path d="M37.687 40.395c-12.434 11.44-20.336 29.62-22.104 53.548l38.295 22.105c0-4.642.386-9.118.773-13.484L28.403 87.257A86.154 86.154 0 0141.444 44.65c-1.215-1.437-2.763-2.819-3.757-4.256z" fill="url(#paint9_linear_3_14758)"/><path d="M135.772 16.578C103.5-1.88 74.213-4.366 52.22 6.299l-.663.387a46.41 46.41 0 00-4.31 2.321l-6.466 3.482C62.885 2.43 91.454 5.194 123.173 23.54c67.969 39.235 123.228 134.56 123.228 212.478 0 38.682-13.483 65.429-35.145 78.415l10.278-5.526C244.577 296.53 259 268.954 259 229.222c0-77.918-55.315-173.243-123.228-212.644z" fill="url(#paint10_linear_3_14758)"/><path d="M76.037 78.636a197.12 197.12 0 00-6.52 46.308l45.975 26.581v-13.981l-33.156-19.231a216.841 216.841 0 013.371-32.328c-3.37-2.431-6.631-4.752-9.67-7.35z" fill="url(#paint11_linear_3_14758)"/><path d="M115.492 260.334a175.53 175.53 0 01-17.683-37.633 178.357 178.357 0 00-16.578-6.41c8.455 29.288 20.667 53.548 34.482 66.313l-.221-22.27z" fill="url(#paint12_linear_3_14758)"/><path d="M82.889 150.364l-13.428-7.736a307.589 307.589 0 006.52 53.824 233.292 233.292 0 0139.455 17.131v-12.986a211.017 211.017 0 00-27.021-10.776 305.54 305.54 0 01-5.526-39.457z" fill="url(#paint13_linear_3_14758)"/><path d="M37.687 190.429a96.94 96.94 0 0123.485 2.21c-.608-2.873-1.105-5.526-1.658-8.62a87.138 87.138 0 00-9.228 0 225.534 225.534 0 01-20.28-64.213l-14.202-8.179a214.968 214.968 0 0021.883 78.802z" fill="url(#paint14_linear_3_14758)"/><path d="M106.871 37.964C96.648 39.843 87.641 49.016 81.01 64.6a307.49 307.49 0 0034.482 24.812V74.325c-7.515-5.194-14.865-10.554-22.104-16.578a58.084 58.084 0 0113.483-19.783z" fill="url(#paint15_linear_3_14758)"/><path style="mix-blend-mode:screen" d="M35.09 41.888c-12.434 11.439-20.336 29.62-22.104 53.548L51.28 117.54v-2.874L15.805 93.944c1.437-22.547 8.62-39.899 19.838-51.448l-.553-.608z" fill="url(#paint16_radial_3_14758)"/><path style="mix-blend-mode:screen" d="M63.327 52.719c.387-.995.884-1.88 1.271-2.763-5.526-5.526-11.052-11.052-16.19-16.91-.94.442-1.935.774-2.82 1.27 5.49 6.227 11.403 12.36 17.74 18.403z" fill="url(#paint17_radial_3_14758)"/><path style="mix-blend-mode:screen" d="M98.859 41.169c-8.013 3.758-15.03 12.323-20.446 24.923a319.999 319.999 0 0034.482 24.812v-3.205a315.778 315.778 0 01-31.885-23.1 50.232 50.232 0 0117.849-23.43z" fill="url(#paint18_radial_3_14758)"/><path style="mix-blend-mode:screen" d="M246.401 235.909c0-77.918-55.259-173.243-123.228-212.479-34.758-20.004-65.87-21.496-88.304-7.957 22.214-11.937 52.44-9.947 85.707 9.45 67.969 39.18 123.228 134.505 123.228 212.699 0 38.185-13.373 65.152-34.869 78.194 23.154-12.6 37.466-40.175 37.466-79.907z" fill="url(#paint19_radial_3_14758)"/><path style="mix-blend-mode:screen" d="M195.618 298.409a58.637 58.637 0 01-31.056 4.863 65.197 65.197 0 0014.809-21.718l-1.27-1.271a67.206 67.206 0 01-16.136 24.481 58.52 58.52 0 0033.653-6.355z" fill="url(#paint20_radial_3_14758)"/><path style="mix-blend-mode:screen" d="M177.879 118.811a91.422 91.422 0 0017.739 2.1l-1.106-1.713a104.06 104.06 0 01-14.035-1.824 277.697 277.697 0 00-12.047-34.151c-2.21-2.542-4.421-5.084-6.686-7.46a257.3 257.3 0 0116.135 43.048z" fill="url(#paint21_radial_3_14758)"/><path style="mix-blend-mode:screen" d="M35.09 191.92a99.504 99.504 0 0123.485 2.155c0-.607 0-1.271-.387-1.934a96.83 96.83 0 00-20.501-1.713 216.182 216.182 0 01-21.606-75.652l-2.874-1.658A215.526 215.526 0 0035.09 191.92z" fill="url(#paint22_radial_3_14758)"/><path style="mix-blend-mode:screen" d="M112.895 279.841c-12.268-12.821-23.21-34.649-31.056-60.787l-3.426-1.216c8.455 29.288 20.722 53.603 34.482 66.313v-4.31z" fill="url(#paint23_radial_3_14758)"/><path style="mix-blend-mode:screen" d="M69.682 145.723l-2.763-1.603a307.589 307.589 0 006.52 53.824 231.43 231.43 0 0139.456 17.131v-2.818a231.65 231.65 0 00-36.858-15.805 306.098 306.098 0 01-6.355-50.729z" fill="url(#paint24_radial_3_14758)"/><path style="mix-blend-mode:screen" d="M75.318 81.62c-.608-.497-1.27-.94-1.879-1.492a197.125 197.125 0 00-6.52 46.309l45.976 26.58v-2.984l-43.379-25.088a198.945 198.945 0 015.802-43.325z" fill="url(#paint25_radial_3_14758)"/><path style="mix-blend-mode:screen" d="M128.312 292.882a21.39 21.39 0 0016.578-3.039 21.108 21.108 0 01-14.036 1.547v-48.242l-2.597-1.713.055 51.447z" fill="url(#paint26_radial_3_14758)"/><path style="mix-blend-mode:screen" d="M45.589 211.648a252.995 252.995 0 0033.874 45.149c-1.437-2.874-2.763-5.913-4.09-8.953a250.138 250.138 0 01-26.082-35.975c-1.215-.055-2.542-.221-3.702-.221z" fill="url(#paint27_radial_3_14758)"/><path style="mix-blend-mode:screen" d="M128.312 161.859l45.976 26.58v-3.094l-43.379-25.089v-41.445l-2.597-1.327v44.375z" fill="url(#paint28_radial_3_14758)"/><path style="mix-blend-mode:screen" d="M128.312 223.972a336.506 336.506 0 0139.455 28.404c0-.884.442-1.934.663-2.929a338.93 338.93 0 00-37.521-26.967v-41.446l-2.597-1.492v44.43z" fill="url(#paint29_radial_3_14758)"/><path style="mix-blend-mode:screen" d="M128.312 48.519V99.8a215.575 215.575 0 0034.482 14.975c-.277-.884-.608-1.768-.884-2.707a212.318 212.318 0 01-31.001-13.76V51.17c-.884-.884-1.713-1.879-2.597-2.652z" fill="url(#paint30_radial_3_14758)"/></g><defs><linearGradient id="paint0_linear_3_14758" x1="72.003" y1="258.686" x2="184.939" y2="74.025" gradientUnits="userSpaceOnUse"><stop stop-color="#fff" stop-opacity=".47"/><stop offset="1" stop-color="#fff"/></linearGradient><linearGradient id="paint1_linear_3_14758" x1="147.383" y1="110.337" x2="179.276" y2="182.936" gradientUnits="userSpaceOnUse"><stop offset=".109" stop-color="#fff" stop-opacity=".21"/><stop offset="1" stop-color="#fff"/></linearGradient><linearGradient id="paint2_linear_3_14758" x1="143.279" y1="41.745" x2="177.307" y2="104.032" gradientUnits="userSpaceOnUse"><stop offset=".109" stop-color="#fff" stop-opacity=".21"/><stop offset="1" stop-color="#fff"/></linearGradient><linearGradient id="paint3_linear_3_14758" x1="138.502" y1="236.157" x2="168.039" y2="278.718" gradientUnits="userSpaceOnUse"><stop offset=".109" stop-color="#fff" stop-opacity=".21"/><stop offset="1" stop-color="#fff"/></linearGradient><linearGradient id="paint4_linear_3_14758" x1="146.174" y1="172.24" x2="181.198" y2="244.153" gradientUnits="userSpaceOnUse"><stop offset=".109" stop-color="#fff" stop-opacity=".21"/><stop offset="1" stop-color="#fff"/></linearGradient><linearGradient id="paint5_linear_3_14758" x1="176.493" y1="276.363" x2="182.583" y2="305.493" gradientUnits="userSpaceOnUse"><stop offset=".109" stop-color="#fff" stop-opacity=".21"/><stop offset="1" stop-color="#fff"/></linearGradient><linearGradient id="paint6_linear_3_14758" x1="60.339" y1="206.38" x2="78.717" y2="254.701" gradientUnits="userSpaceOnUse"><stop offset=".109" stop-color="#fff" stop-opacity=".21"/><stop offset="1" stop-color="#fff"/></linearGradient><linearGradient id="paint7_linear_3_14758" x1="176.493" y1="70.672" x2="194.754" y2="118.861" gradientUnits="userSpaceOnUse"><stop offset=".109" stop-color="#fff" stop-opacity=".21"/><stop offset="1" stop-color="#fff"/></linearGradient><linearGradient id="paint8_linear_3_14758" x1="56.889" y1="26.048" x2="64.128" y2="52.534" gradientUnits="userSpaceOnUse"><stop offset=".109" stop-color="#fff" stop-opacity=".21"/><stop offset="1" stop-color="#fff"/></linearGradient><linearGradient id="paint9_linear_3_14758" x1="29.599" y1="34.366" x2="68.613" y2="105.23" gradientUnits="userSpaceOnUse"><stop offset=".109" stop-color="#fff" stop-opacity=".21"/><stop offset="1" stop-color="#fff"/></linearGradient><linearGradient id="paint10_linear_3_14758" x1="119.068" y1="-25.073" x2="253.713" y2="303.586" gradientUnits="userSpaceOnUse"><stop offset=".109" stop-color="#fff" stop-opacity=".21"/><stop offset="1" stop-color="#fff"/></linearGradient><linearGradient id="paint11_linear_3_14758" x1="86.01" y1="72.826" x2="119.341" y2="146.773" gradientUnits="userSpaceOnUse"><stop offset=".109" stop-color="#fff" stop-opacity=".21"/><stop offset="1" stop-color="#fff"/></linearGradient><linearGradient id="paint12_linear_3_14758" x1="93.602" y1="211.006" x2="127.673" y2="273.32" gradientUnits="userSpaceOnUse"><stop offset=".109" stop-color="#fff" stop-opacity=".21"/><stop offset="1" stop-color="#fff"/></linearGradient><linearGradient id="paint13_linear_3_14758" x1="85.955" y1="136.973" x2="117.822" y2="209.6" gradientUnits="userSpaceOnUse"><stop offset=".109" stop-color="#fff" stop-opacity=".21"/><stop offset="1" stop-color="#fff"/></linearGradient><linearGradient id="paint14_linear_3_14758" x1="32.08" y1="105.17" x2="71.995" y2="183.792" gradientUnits="userSpaceOnUse"><stop offset=".109" stop-color="#fff" stop-opacity=".21"/><stop offset="1" stop-color="#fff"/></linearGradient><linearGradient id="paint15_linear_3_14758" x1="93.38" y1="33.863" x2="115.957" y2="87.085" gradientUnits="userSpaceOnUse"><stop offset=".109" stop-color="#fff" stop-opacity=".21"/><stop offset="1" stop-color="#fff"/></linearGradient><radialGradient id="paint16_radial_3_14758" cx="0" cy="0" r="1" gradientUnits="userSpaceOnUse" gradientTransform="matrix(30.0058 0 0 30.0067 32.437 79.741)"><stop stop-color="#6CF"/><stop offset="1"/></radialGradient><radialGradient id="paint17_radial_3_14758" cx="0" cy="0" r="1" gradientUnits="userSpaceOnUse" gradientTransform="matrix(9.67036 0 0 9.67066 55.093 42.882)"><stop stop-color="#6CF"/><stop offset="1"/></radialGradient><radialGradient id="paint18_radial_3_14758" cx="0" cy="0" r="1" gradientUnits="userSpaceOnUse" gradientTransform="matrix(21.3853 0 0 21.386 95.654 66.036)"><stop stop-color="#6CF"/><stop offset="1"/></radialGradient><radialGradient id="paint19_radial_3_14758" cx="0" cy="0" r="1" gradientUnits="userSpaceOnUse" gradientTransform="matrix(132.401 0 0 132.405 140.635 161.085)"><stop stop-color="#6CF"/><stop offset="1"/></radialGradient><radialGradient id="paint20_radial_3_14758" cx="0" cy="0" r="1" gradientUnits="userSpaceOnUse" gradientTransform="matrix(14.8647 0 0 14.8652 178.653 292.275)"><stop stop-color="#6CF"/><stop offset="1"/></radialGradient><radialGradient id="paint21_radial_3_14758" cx="0" cy="0" r="1" gradientUnits="userSpaceOnUse" gradientTransform="matrix(19.9486 0 0 19.9492 178.653 98.31)"><stop stop-color="#6CF"/><stop offset="1"/></radialGradient><radialGradient id="paint22_radial_3_14758" cx="0" cy="0" r="1" gradientUnits="userSpaceOnUse" gradientTransform="matrix(32.824 0 0 32.825 35.863 153.569)"><stop stop-color="#6CF"/><stop offset="1"/></radialGradient><radialGradient id="paint23_radial_3_14758" cx="0" cy="0" r="1" gradientUnits="userSpaceOnUse" gradientTransform="matrix(26.4139 0 0 26.4147 95.654 250.884)"><stop stop-color="#6CF"/><stop offset="1"/></radialGradient><radialGradient id="paint24_radial_3_14758" cx="0" cy="0" r="1" gradientUnits="userSpaceOnUse" gradientTransform="matrix(29.8952 0 0 29.8961 89.907 179.598)"><stop stop-color="#6CF"/><stop offset="1"/></radialGradient><radialGradient id="paint25_radial_3_14758" cx="0" cy="0" r="1" gradientUnits="userSpaceOnUse" gradientTransform="matrix(30.4478 0 0 30.4488 89.907 116.545)"><stop stop-color="#6CF"/><stop offset="1"/></radialGradient><radialGradient id="paint26_radial_3_14758" cx="0" cy="0" r="1" gradientUnits="userSpaceOnUse" gradientTransform="matrix(19.2302 0 0 19.2308 136.601 267.573)"><stop stop-color="#6CF"/><stop offset="1"/></radialGradient><radialGradient id="paint27_radial_3_14758" cx="0" cy="0" r="1" gradientUnits="userSpaceOnUse" gradientTransform="matrix(19.9486 0 0 19.9492 62.498 234.195)"><stop stop-color="#6CF"/><stop offset="1"/></radialGradient><radialGradient id="paint28_radial_3_14758" cx="0" cy="0" r="1" gradientUnits="userSpaceOnUse" gradientTransform="matrix(29.8952 0 0 29.8961 151.3 152.962)"><stop stop-color="#6CF"/><stop offset="1"/></radialGradient><radialGradient id="paint29_radial_3_14758" cx="0" cy="0" r="1" gradientUnits="userSpaceOnUse" gradientTransform="matrix(29.3979 0 0 29.3988 148.371 215.959)"><stop stop-color="#6CF"/><stop offset="1"/></radialGradient><radialGradient id="paint30_radial_3_14758" cx="0" cy="0" r="1" gradientUnits="userSpaceOnUse" gradientTransform="matrix(26.4139 0 0 26.4147 145.553 81.62)"><stop stop-color="#6CF"/><stop offset="1"/></radialGradient><clipPath id="clip0_3_14758"><path fill="#fff" d="M0 0h259v323H0z"/></clipPath></defs></svg>