<svg width="36" height="36" fill="none" xmlns="http://www.w3.org/2000/svg"><g clip-path="url(#clip0_51_12858)" stroke-width="2" stroke-miterlimit="10" stroke-linecap="round" stroke-linejoin="round"><path d="M32.259 19.786v4.102a2.05 2.05 0 01-2.051 2.05h-6.24m-14.178.001H3.414a2.05 2.05 0 01-2.05-2.051V3.243" stroke="#0F1015"/><path d="M32.258 19.787h2.05v-8.203h-2.05a4.102 4.102 0 100 8.203z" stroke="#0F1015"/><path d="M28.16 5.295v-2.05a2.05 2.05 0 00-2.05-2.052H3.413a2.05 2.05 0 000 4.102H30.21a2.05 2.05 0 012.05 2.05v4.239" stroke="#0F1015"/><path d="M16.877 34.143a9.897 9.897 0 01-7.178-9.516v-4.84l7.178-2.05 7.178 2.05v4.84a9.897 9.897 0 01-7.178 9.516z" stroke="#1D4ED8"/><path d="M13.8 25.939l2.052 2.05 4.101-4.101" stroke="#1D4ED8"/></g><defs><clipPath id="clip0_51_12858"><path fill="#fff" transform="translate(.332 .166)" d="M0 0h35v35H0z"/></clipPath></defs></svg>