<svg width="168" height="354" fill="none" xmlns="http://www.w3.org/2000/svg"><g opacity=".16" clip-path="url(#clip0_3_14960)"><path d="M229.959 238.685a152.12 152.12 0 00-1.303-18.47l24.814-3.137c3.554-.415 5.271-4.381 4.028-9.709a292.433 292.433 0 00-8.765-28.651 18.295 18.295 0 00-10.246-11.129l-28.308-8.525a238.667 238.667 0 00-21.853-37.649l7.107-28.534a17.758 17.758 0 00-4.56-14.385 278.182 278.182 0 00-20.669-21.784c-3.968-3.73-8.291-4.203-10.482-1.421l-15.22 19.654a149.842 149.842 0 00-15.457-10.36 114.136 114.136 0 00-15.398-7.459L98.309 19.95A17.76 17.76 0 0087.826 9.235a94.14 94.14 0 00-20.668-2.071c-3.731 0-5.508 3.966-4.56 9.175l6.751 36.288a48.39 48.39 0 00-21.971 12.49l-28.13-24.093c-4.028-3.492-8.351-3.847-10.246-.71A90.436 90.436 0 00.415 59.198a17.278 17.278 0 004.027 14.207l24.814 31.73a118.365 118.365 0 00-1.303 16.99c.057 6.177.492 12.345 1.303 18.47l-24.814 3.137c-3.554.474-5.33 4.381-4.027 9.708a276.793 276.793 0 008.587 28.652 18.285 18.285 0 0010.245 11.129l28.13 8.524a251.77 251.77 0 0021.854 37.709l-6.752 28.474a17.754 17.754 0 004.56 14.385 278.398 278.398 0 0020.669 21.785c3.968 3.729 8.291 4.203 10.482 1.421l15.22-19.654a159.971 159.971 0 0015.398 10.419 121.6 121.6 0 0015.457 7.399l15.635 37.236a17.755 17.755 0 0010.482 10.655 90.696 90.696 0 0020.668 2.072c3.731 0 5.508-3.907 4.561-9.116l-6.811-36.348a47.791 47.791 0 0021.557-12.194l28.308 23.679c4.027 3.492 8.35 3.907 10.245.769a95.738 95.738 0 008.588-18.529 17.762 17.762 0 00-4.028-14.385l-24.814-31.729a117.772 117.772 0 001.303-17.108zm-101.032-11.84a89.52 89.52 0 01-28.641-30.145 89.478 89.478 0 01-11.927-39.826c0-25.692 18.182-36.051 40.568-23.087a89.17 89.17 0 0128.664 30.097 89.123 89.123 0 0111.903 39.815c0 25.81-18.122 36.17-40.567 23.265v-.119z" fill="url(#paint0_linear_3_14960)"/><path d="M128.926 226.963c14.391 8.288 27.006 6.926 34.231-1.835a34.307 34.307 0 01-21.083-5.328 89.282 89.282 0 01-28.665-30.13 89.226 89.226 0 01-11.902-39.841 33.136 33.136 0 016.396-21.311c-11.845 1.48-19.544 11.839-19.544 28.474a89.482 89.482 0 0011.927 39.826 89.527 89.527 0 0028.64 30.145z" fill="url(#paint1_linear_3_14960)"/><path d="M69.349 52.627v-1.42l-7.699 4.32a52.954 52.954 0 017.699-2.9z" fill="url(#paint2_linear_3_14960)"/><path d="M170.086 56.71a278.357 278.357 0 0120.668 21.786 17.763 17.763 0 014.679 14.385l-6.811 28.533a238.667 238.667 0 0121.853 37.649l28.308 8.525a18.297 18.297 0 019.95 11.129 292.3 292.3 0 018.764 28.474 8.691 8.691 0 01-1.362 8.228l10.364-5.92c3.553-.414 5.33-4.38 4.027-9.649a276.768 276.768 0 00-8.528-28.178 17.762 17.762 0 00-10.245-11.129l-28.249-8.583a251.186 251.186 0 00-21.853-37.65l6.751-28.533a17.742 17.742 0 00-4.56-14.385 289.05 289.05 0 00-20.668-21.785 8.055 8.055 0 00-8.824-2.605v-.355l-13.858 7.696c2.605-1.48 6.159-1.066 9.594 2.368z" fill="url(#paint3_linear_3_14960)"/><path d="M4.442 143.732l24.814-3.137c0-1.836-.356-3.611-.533-5.447l-10.956 1.421a4.441 4.441 0 00-1.955.829v-.296l-13.976 7.696a4.853 4.853 0 012.606-1.066z" fill="url(#paint4_linear_3_14960)"/><path d="M67.158 7.163a94.142 94.142 0 0120.668 2.072A17.768 17.768 0 0198.31 19.95l15.22 37.176a114.054 114.054 0 0115.397 7.459 149.642 149.642 0 0115.457 10.36l8.232-10.597c-3.435-2.486-6.988-4.854-10.541-6.926a121.618 121.618 0 00-15.457-7.4l-15.22-37.235a17.768 17.768 0 00-10.719-10.715A94.149 94.149 0 0080.246 0c-.52.059-1.023.22-1.48.474L65.143 7.696a5.035 5.035 0 012.014-.533z" fill="url(#paint5_linear_3_14960)"/><path d="M118.444 289.358l-4.856-3.493-15.28 19.654-.592.414 11.845-5.92h.473a4.146 4.146 0 001.54-1.124l6.87-9.531z" fill="url(#paint6_linear_3_14960)"/><path d="M19.247 41.025l28.13 24.093a49.153 49.153 0 0111.845-8.406l-26.828-22.85a8.351 8.351 0 00-8.705-2.368L11.31 38.538a8.531 8.531 0 017.936 2.487z" fill="url(#paint7_linear_3_14960)"/><path style="mix-blend-mode:screen" d="M188.504 121.415l6.929-28.534a17.757 17.757 0 00-4.56-14.385 278.387 278.387 0 00-20.669-21.784c-3.968-3.73-8.291-4.203-10.482-1.421a9.123 9.123 0 017.699 3.02 268.105 268.105 0 0120.668 21.784 17.758 17.758 0 014.442 14.621l-6.811 28.474a242.022 242.022 0 0121.853 37.709l28.308 8.525a18.298 18.298 0 0110.246 11.129 292.326 292.326 0 018.528 28.414 8.821 8.821 0 01-1.303 8.111c3.553-.415 5.271-4.381 4.027-9.709a292.363 292.363 0 00-8.646-28.651 18.31 18.31 0 00-10.246-11.13l-28.308-8.524a238.71 238.71 0 00-21.675-37.649z" fill="url(#paint8_radial_3_14960)"/><path style="mix-blend-mode:screen" d="M110.745 287.404l-15.22 19.654a4.387 4.387 0 002.784-1.539l13.384-17.345-.948-.77z" fill="url(#paint9_radial_3_14960)"/><path style="mix-blend-mode:screen" d="M66.625 54.225v-.65a48.814 48.814 0 00-10.246 4.735 47.805 47.805 0 0110.246-4.085z" fill="url(#paint10_radial_3_14960)"/><path style="mix-blend-mode:screen" d="M98.96 131.893c-8.173 3.788-13.325 13.023-13.325 26.698a89.24 89.24 0 0011.889 39.798 89.277 89.277 0 0028.619 30.114c11.844 6.926 22.623 7.163 30.025 2.012-7.165 3.375-16.7 2.487-27.242-3.551a89.527 89.527 0 01-28.64-30.145 89.483 89.483 0 01-11.927-39.827 28.816 28.816 0 0110.601-25.099z" fill="url(#paint11_radial_3_14960)"/><path style="mix-blend-mode:screen" d="M26.472 142.074v-1.243L4.56 143.613a4.502 4.502 0 00-2.783 1.599l24.695-3.138z" fill="url(#paint12_radial_3_14960)"/><path style="mix-blend-mode:screen" d="M16.464 42.623l28.249 24.034 2.31-2.013-27.776-23.679c-3.85-3.315-7.876-3.729-9.89-1.065a9.064 9.064 0 017.107 2.723z" fill="url(#paint13_radial_3_14960)"/><path style="mix-blend-mode:screen" d="M128.926 64.585a114.067 114.067 0 00-15.397-7.459L98.309 19.95A17.758 17.758 0 0087.826 9.235a94.14 94.14 0 00-20.668-2.071A4.088 4.088 0 0063.9 8.88h.473a90.703 90.703 0 0120.669 2.072 17.765 17.765 0 0110.482 10.656l15.22 37.117a117.273 117.273 0 0115.398 7.4 160.435 160.435 0 0115.457 10.418l1.777-2.309a142.72 142.72 0 00-14.451-9.649z" fill="url(#paint14_radial_3_14960)"/></g><defs><linearGradient id="paint0_linear_3_14960" x1="75.355" y1="283.212" x2="201.464" y2="86.082" gradientUnits="userSpaceOnUse"><stop stop-color="#fff" stop-opacity=".47"/><stop offset="1" stop-color="#fff"/></linearGradient><linearGradient id="paint1_linear_3_14960" x1="115.193" y1="120.23" x2="158.577" y2="230.001" gradientUnits="userSpaceOnUse"><stop offset=".109" stop-color="#fff" stop-opacity=".21"/><stop offset="1" stop-color="#fff"/></linearGradient><linearGradient id="paint2_linear_3_14960" x1="65.026" y1="52.627" x2="65.558" y2="54.107" gradientUnits="userSpaceOnUse"><stop stop-color="#CDD2F3"/><stop offset=".25" stop-color="#E5E9FF"/><stop offset=".36" stop-color="#EFF2FF"/><stop offset=".48" stop-color="#fff"/><stop offset=".51" stop-color="#F6F7FC"/><stop offset=".64" stop-color="#D7DBF2"/><stop offset=".77" stop-color="#C1C6EB"/><stop offset=".89" stop-color="#B4BAE6"/><stop offset="1" stop-color="#AFB6E5"/></linearGradient><linearGradient id="paint3_linear_3_14960" x1="200.12" y1="33.136" x2="275.444" y2="206.48" gradientUnits="userSpaceOnUse"><stop offset=".109" stop-color="#fff" stop-opacity=".21"/><stop offset="1" stop-color="#fff"/></linearGradient><linearGradient id="paint4_linear_3_14960" x1="11.673" y1="134.379" x2="12.84" y2="146.041" gradientUnits="userSpaceOnUse"><stop offset=".109" stop-color="#fff" stop-opacity=".21"/><stop offset="1" stop-color="#fff"/></linearGradient><linearGradient id="paint5_linear_3_14960" x1="96.525" y1="-5.976" x2="117.562" y2="80.381" gradientUnits="userSpaceOnUse"><stop offset=".109" stop-color="#fff" stop-opacity=".21"/><stop offset="1" stop-color="#fff"/></linearGradient><linearGradient id="paint6_linear_3_14960" x1="105.152" y1="284.266" x2="111.42" y2="307.036" gradientUnits="userSpaceOnUse"><stop offset=".109" stop-color="#fff" stop-opacity=".21"/><stop offset="1" stop-color="#fff"/></linearGradient><linearGradient id="paint7_linear_3_14960" x1="28.5" y1="28.398" x2="36.55" y2="68.286" gradientUnits="userSpaceOnUse"><stop offset=".109" stop-color="#fff" stop-opacity=".21"/><stop offset="1" stop-color="#fff"/></linearGradient><radialGradient id="paint8_radial_3_14960" cx="0" cy="0" r="1" gradientUnits="userSpaceOnUse" gradientTransform="matrix(67.5131 0 0 67.4851 208.758 135.267)"><stop stop-color="#6CF"/><stop offset="1"/></radialGradient><radialGradient id="paint9_radial_3_14960" cx="0" cy="0" r="1" gradientUnits="userSpaceOnUse" gradientTransform="matrix(9.00175 0 0 8.99801 103.639 297.231)"><stop stop-color="#6CF"/><stop offset="1"/></radialGradient><radialGradient id="paint10_radial_3_14960" cx="0" cy="0" r="1" gradientUnits="userSpaceOnUse" gradientTransform="matrix(4.0271 0 0 4.02543 61.413 55.942)"><stop stop-color="#6CF"/><stop offset="1"/></radialGradient><radialGradient id="paint11_radial_3_14960" cx="0" cy="0" r="1" gradientUnits="userSpaceOnUse" gradientTransform="matrix(43.9427 0 0 43.9245 120.872 182.98)"><stop stop-color="#6CF"/><stop offset="1"/></radialGradient><radialGradient id="paint12_radial_3_14960" cx="0" cy="0" r="1" gradientUnits="userSpaceOnUse" gradientTransform="matrix(8.8833 0 0 8.87961 14.095 143.14)"><stop stop-color="#6CF"/><stop offset="1"/></radialGradient><radialGradient id="paint13_radial_3_14960" cx="0" cy="0" r="1" gradientUnits="userSpaceOnUse" gradientTransform="matrix(16.7006 0 0 16.6937 28.19 52.45)"><stop stop-color="#6CF"/><stop offset="1"/></radialGradient><radialGradient id="paint14_radial_3_14960" cx="0" cy="0" r="1" gradientUnits="userSpaceOnUse" gradientTransform="matrix(37.3099 0 0 37.2944 103.639 41.853)"><stop stop-color="#6CF"/><stop offset="1"/></radialGradient><clipPath id="clip0_3_14960"><path fill="#fff" d="M0 0h271v353.645H0z"/></clipPath></defs></svg>