<svg width="44" height="44" fill="none" xmlns="http://www.w3.org/2000/svg"><g opacity=".1" fill="#fff"><path fill-rule="evenodd" clip-rule="evenodd" d="M8 12.8A4.8 4.8 0 0112.8 8h22.4a4.8 4.8 0 014.8 4.8v4.8H8v-4.8zm4.8-1.6a1.6 1.6 0 000 3.2H16a1.6 1.6 0 000-3.2h-3.2z"/><path d="M40 35.2V20.8H8v14.4a4.8 4.8 0 004.8 4.8h22.4a4.8 4.8 0 004.8-4.8z"/></g><path fill-rule="evenodd" clip-rule="evenodd" d="M5 9.8A4.8 4.8 0 019.8 5h22.4A4.8 4.8 0 0137 9.8v4.8H5V9.8zm4.8-1.6a1.6 1.6 0 000 3.2H13a1.6 1.6 0 000-3.2H9.8z" fill="url(#paint0_linear_3_15527)"/><path fill-rule="evenodd" clip-rule="evenodd" d="M5 9.8A4.8 4.8 0 019.8 5h22.4A4.8 4.8 0 0137 9.8v4.8H5V9.8zm4.8-1.6a1.6 1.6 0 000 3.2H13a1.6 1.6 0 000-3.2H9.8z" fill="url(#paint1_linear_3_15527)"/><path d="M37 32.2V17.8H5v14.4A4.8 4.8 0 009.8 37h22.4a4.8 4.8 0 004.8-4.8z" fill="url(#paint2_linear_3_15527)"/><path d="M37 32.2V17.8H5v14.4A4.8 4.8 0 009.8 37h22.4a4.8 4.8 0 004.8-4.8z" fill="url(#paint3_linear_3_15527)"/><defs><linearGradient id="paint0_linear_3_15527" x1="9.199" y1="16.781" x2="28.354" y2="40.855" gradientUnits="userSpaceOnUse"><stop stop-color="#0052CC"/><stop offset="1" stop-color="#0F93F2"/></linearGradient><linearGradient id="paint1_linear_3_15527" x1="10.464" y1="42.42" x2="27.694" y2="3.177" gradientUnits="userSpaceOnUse"><stop stop-color="#0045CC"/><stop offset="1" stop-color="#24A3FF"/></linearGradient><linearGradient id="paint2_linear_3_15527" x1="9.199" y1="16.781" x2="28.354" y2="40.855" gradientUnits="userSpaceOnUse"><stop stop-color="#0052CC"/><stop offset="1" stop-color="#0F93F2"/></linearGradient><linearGradient id="paint3_linear_3_15527" x1="10.464" y1="42.42" x2="27.694" y2="3.177" gradientUnits="userSpaceOnUse"><stop stop-color="#0045CC"/><stop offset="1" stop-color="#24A3FF"/></linearGradient></defs></svg>