<svg width="44" height="44" fill="none" xmlns="http://www.w3.org/2000/svg"><g opacity=".1" fill="#fff"><path d="M20.878 27.06a.938.938 0 100-1.876.938.938 0 000 1.876z"/><path d="M23.532 16.836l-1.716 1.714h-7.569a.938.938 0 00-.901.68l-5.31 18.574a.936.936 0 001.16 1.16l18.574-5.31a.938.938 0 00.68-.901v-7.569l1.714-1.716-6.632-6.632zm-.665 11.276c-.764.764-1.962 1.104-3.181.529l-4.78 4.779a.938.938 0 11-1.326-1.327l4.779-4.778c-.493-1.045-.333-2.32.529-3.182a2.82 2.82 0 013.98 0 2.817 2.817 0 010 3.98zm16.858-11.536l-6.246 6.23a.938.938 0 01-1.325-.001l-7.959-7.959a.938.938 0 010-1.326l6.228-6.245a.94.94 0 011.329 0l7.973 7.973a.94.94 0 010 1.328z"/></g><path d="M17.878 24.06a.938.938 0 100-1.876.938.938 0 000 1.876z" fill="#fff"/><path d="M20.532 13.836l-1.716 1.714h-7.569a.938.938 0 00-.901.68l-5.31 18.574a.936.936 0 001.16 1.16l18.574-5.31a.938.938 0 00.68-.901v-7.569l1.714-1.716-6.632-6.632zm-.665 11.276c-.764.764-1.962 1.104-3.181.529l-4.78 4.779a.938.938 0 11-1.326-1.327l4.779-4.778c-.493-1.045-.333-2.32.529-3.182a2.82 2.82 0 013.98 0 2.817 2.817 0 010 3.98zm16.858-11.536l-6.246 6.23a.938.938 0 01-1.325-.001l-7.959-7.959a.938.938 0 010-1.326l6.228-6.245a.94.94 0 011.329 0l7.973 7.973a.94.94 0 010 1.328z" fill="#fff"/></svg>