<svg width="768" height="420" fill="none" xmlns="http://www.w3.org/2000/svg"><path d="M31.61 102.637c62.812 0 62.812 160 125.624 160 62.813 0 62.813-160 125.633-160 62.821 0 62.813 160 125.625 160 62.813 0 62.813-160 125.633-160 62.821 0 62.813 160 125.625 160 62.813 0 62.805-160 125.625-160 62.821 0 62.813 160 125.625 160" stroke="url(#paint0_linear_523_15386)" stroke-width="3" stroke-miterlimit="10"/><path opacity=".6" d="M33.236 27.749c-1.017 0-1.871-.215-2.562-.644a4.03 4.03 0 01-1.54-1.778c-.345-.756-.518-1.629-.518-2.618 0-.99.173-1.867.518-2.632a4.104 4.104 0 011.554-1.792c.69-.439 1.545-.658 2.562-.658.737 0 1.381.121 1.932.364.55.233.994.57 1.33 1.008.345.43.574.942.686 1.54h-1.456a1.99 1.99 0 00-.854-1.134c-.43-.28-.98-.42-1.652-.42-.747 0-1.349.172-1.806.518a2.96 2.96 0 00-.98 1.358 5.09 5.09 0 00-.308 1.792c0 .662.107 1.278.322 1.848.215.57.555 1.026 1.022 1.372.467.345 1.064.518 1.792.518.448 0 .845-.06 1.19-.182.345-.13.635-.313.868-.546.233-.243.392-.523.476-.84h1.554a3.402 3.402 0 01-.742 1.568 3.628 3.628 0 01-1.414 1.008c-.57.233-1.227.35-1.974.35zm8.917-.028c-.766 0-1.414-.154-1.947-.462a3.111 3.111 0 01-1.218-1.33c-.27-.57-.405-1.228-.405-1.974 0-.756.135-1.414.406-1.974.28-.57.686-1.013 1.218-1.33.532-.327 1.185-.49 1.96-.49.765 0 1.413.163 1.945.49.532.317.934.76 1.204 1.33.271.57.406 1.232.406 1.988 0 .737-.14 1.39-.42 1.96a3.024 3.024 0 01-1.203 1.33c-.523.308-1.172.462-1.946.462zm0-1.288c.504 0 .91-.112 1.218-.336.317-.224.55-.523.7-.896.149-.374.224-.784.224-1.232a3.29 3.29 0 00-.224-1.232 1.955 1.955 0 00-.7-.91c-.309-.234-.715-.35-1.218-.35-.495 0-.901.116-1.218.35a1.953 1.953 0 00-.7.896c-.14.373-.21.788-.21 1.246 0 .448.07.858.21 1.232.149.373.382.672.7.896.317.224.723.336 1.218.336zm8.255 1.288c-.774 0-1.423-.159-1.946-.476a3.005 3.005 0 01-1.162-1.316c-.252-.57-.378-1.223-.378-1.96 0-.728.131-1.377.392-1.946a3.096 3.096 0 011.204-1.358c.542-.336 1.209-.504 2.002-.504.542 0 1.022.093 1.442.28.42.177.761.443 1.022.798.271.345.448.78.532 1.302h-1.442c-.121-.383-.326-.658-.616-.826a1.896 1.896 0 00-.994-.252c-.513 0-.924.121-1.232.364a2.076 2.076 0 00-.672.938 3.7 3.7 0 00-.196 1.204c0 .438.07.844.21 1.218.15.373.374.676.672.91.308.224.71.336 1.204.336.374 0 .719-.08 1.036-.238.318-.168.523-.448.616-.84h1.484c-.084.541-.28.99-.588 1.344-.308.345-.69.602-1.148.77a4.073 4.073 0 01-1.442.252zm6.31-.084v-6.09h-2.492v-1.288h6.426v1.288H58.16v6.09h-1.442zm7.26.084c-.327 0-.645-.042-.953-.126a2.727 2.727 0 01-.825-.406 2.19 2.19 0 01-.589-.686c-.14-.28-.21-.607-.21-.98 0-.448.084-.817.252-1.106.178-.299.411-.528.7-.686.29-.168.621-.285.994-.35.383-.075.78-.112 1.19-.112h1.806c0-.364-.056-.682-.168-.952a1.299 1.299 0 00-.531-.644c-.234-.159-.547-.238-.939-.238-.233 0-.457.028-.671.084a1.387 1.387 0 00-.533.238.85.85 0 00-.307.448H61.68c.056-.355.183-.658.379-.91.195-.262.438-.476.727-.644.29-.168.598-.29.925-.364a4.198 4.198 0 011.022-.126c.709 0 1.283.14 1.722.42.447.28.774.681.98 1.204.205.522.307 1.143.307 1.862v3.99h-1.245l-.056-.91c-.215.27-.462.48-.742.63a2.78 2.78 0 01-.855.28 4.708 4.708 0 01-.867.084zm.252-1.218c.429 0 .802-.07 1.12-.21.317-.15.56-.36.728-.63.177-.28.266-.612.266-.994v-.294h-1.316c-.271 0-.537.01-.799.028-.26.01-.499.046-.713.112a.965.965 0 00-.49.294c-.122.14-.183.34-.183.602 0 .252.066.457.196.616.131.158.304.28.518.364.215.074.44.112.672.112zm5.244 1.134v-7.378h3.108c.317 0 .635.023.952.07.326.037.62.121.882.252.27.13.485.322.644.574.168.242.252.564.252.966 0 .242-.037.462-.112.658a1.563 1.563 0 01-.322.518c-.13.14-.299.261-.504.364.467.121.803.34 1.008.658.215.308.322.676.322 1.106 0 .392-.075.728-.224 1.008-.15.28-.35.508-.602.686a2.645 2.645 0 01-.854.392 3.813 3.813 0 01-.98.126h-3.57zm1.47-1.26h1.848c.261 0 .5-.024.714-.07.224-.056.401-.154.532-.294.14-.14.21-.332.21-.574 0-.252-.056-.444-.168-.574a.883.883 0 00-.434-.294 2.24 2.24 0 00-.574-.098 6.673 6.673 0 00-.602-.028h-1.526v1.932zm0-3.024h1.092c.168 0 .36-.01.574-.028.215-.028.42-.075.616-.14.205-.066.368-.159.49-.28.13-.13.196-.308.196-.532 0-.299-.084-.504-.252-.616a1.07 1.07 0 00-.574-.21 5.302 5.302 0 00-.658-.042h-1.484v1.848zm5.624 4.298v-1.288a.962.962 0 00.504-.126c.15-.094.28-.224.392-.392.121-.187.215-.448.28-.784.065-.336.112-.686.14-1.05.037-.439.06-.873.07-1.302.019-.43.033-.85.042-1.26.019-.41.028-.808.028-1.19h5.334v7.378h-1.442v-6.09h-2.52c-.01.308-.023.63-.042.966a34.662 34.662 0 01-.112 1.988c-.019.373-.07.77-.154 1.19-.075.42-.22.798-.434 1.134-.215.326-.48.546-.798.658-.308.112-.737.168-1.288.168zm11.808.07c-.775 0-1.423-.159-1.946-.476a3.066 3.066 0 01-1.19-1.316c-.261-.57-.392-1.223-.392-1.96 0-.747.135-1.405.406-1.974.28-.57.681-1.018 1.204-1.344.532-.327 1.171-.49 1.918-.49.55 0 1.031.102 1.442.308.42.196.77.471 1.05.826.29.345.5.737.63 1.176.13.438.191.9.182 1.386l-.028.294c0 .093-.005.191-.014.294h-5.334c.028.373.121.714.28 1.022.168.308.401.555.7.742.299.177.667.266 1.106.266.243 0 .476-.028.7-.084a1.91 1.91 0 00.616-.294 1.11 1.11 0 00.392-.532h1.456c-.121.494-.34.905-.658 1.232-.308.317-.686.55-1.134.7-.439.15-.9.224-1.386.224zm-2.044-4.424h3.92A2.033 2.033 0 0090 22.33a1.69 1.69 0 00-.658-.672c-.28-.168-.616-.252-1.008-.252-.43 0-.789.088-1.078.266-.28.177-.5.41-.658.7-.15.28-.238.588-.266.924zm6.835 4.34v-7.378h1.442v3.108h3.402v-3.108h1.442v7.378h-1.442V24.64H94.61v2.996h-1.442zm8.053 0v-7.378h1.442v5.222c.065-.112.149-.234.252-.364.103-.14.182-.252.238-.336l3.374-4.522h1.344v7.378h-1.442v-5.194a8.31 8.31 0 01-.238.364c-.084.112-.163.214-.238.308l-3.374 4.522h-1.358zm11.656.084c-.775 0-1.423-.159-1.946-.476a3.066 3.066 0 01-1.19-1.316c-.261-.57-.392-1.223-.392-1.96 0-.747.135-1.405.406-1.974a3.23 3.23 0 011.204-1.344c.532-.327 1.171-.49 1.918-.49.551 0 1.031.102 1.442.308.42.196.77.471 1.05.826.289.345.499.737.63 1.176.131.438.191.9.182 1.386l-.028.294c0 .093-.005.191-.014.294h-5.334c.028.373.121.714.28 1.022.168.308.401.555.7.742.299.177.667.266 1.106.266.243 0 .476-.028.7-.084a1.91 1.91 0 00.616-.294 1.11 1.11 0 00.392-.532h1.456a2.625 2.625 0 01-.658 1.232c-.308.317-.686.55-1.134.7-.439.15-.901.224-1.386.224zm-2.044-4.424h3.92a2.026 2.026 0 00-.252-.966 1.691 1.691 0 00-.658-.672c-.28-.168-.616-.252-1.008-.252-.429 0-.789.088-1.078.266a1.89 1.89 0 00-.658.7c-.149.28-.238.588-.266.924zm-79.528 24.34v-8.54h-3.136v-1.358h7.742v1.358h-3.122v8.54h-1.484zm8.996.112a6.69 6.69 0 01-1.442-.154 4.273 4.273 0 01-1.232-.504 2.703 2.703 0 01-.882-.868c-.224-.364-.345-.803-.364-1.316h1.456c.028.27.117.5.266.686.15.186.341.34.574.462.234.112.49.196.77.252.28.056.565.084.854.084.224 0 .467-.019.728-.056a2.55 2.55 0 00.756-.224c.234-.112.425-.276.574-.49.15-.215.224-.495.224-.84 0-.327-.056-.588-.168-.784a1.084 1.084 0 00-.476-.462 2.086 2.086 0 00-.728-.224 6.592 6.592 0 00-.896-.056H39.04v-1.288h.826c.308 0 .602-.028.882-.084.29-.056.542-.14.756-.252.215-.122.388-.28.518-.476.131-.196.196-.43.196-.7 0-.41-.102-.719-.308-.924a1.697 1.697 0 00-.77-.434 3.498 3.498 0 00-1.96.028 1.85 1.85 0 00-.784.476c-.196.205-.294.466-.294.784h-1.47c.01-.448.098-.83.266-1.148.168-.318.388-.579.658-.784a3.47 3.47 0 01.91-.504c.327-.122.654-.206.98-.252a6.34 6.34 0 01.896-.07c.42 0 .826.046 1.218.14.392.084.747.228 1.064.434.327.205.584.476.77.812.187.336.28.742.28 1.218 0 .233-.032.48-.098.742-.065.252-.196.5-.392.742-.186.233-.471.452-.854.658.57.13 1.004.42 1.302.868.308.448.462.966.462 1.554-.009.532-.121.984-.336 1.358a2.66 2.66 0 01-.854.91 3.885 3.885 0 01-1.204.518 5.642 5.642 0 01-1.4.168zm9.145-.112v-7.378h1.441v5.222a3.24 3.24 0 01.252-.364c.103-.14.183-.252.239-.336l3.373-4.522h1.344v7.378h-1.441v-5.194a8.044 8.044 0 01-.239.364c-.084.112-.163.214-.238.308l-3.373 4.522h-1.358zm12.25 0v-7.378h6.313v7.378h-1.441v-6.09h-3.43v6.09h-1.443zm11.37.084c-.766 0-1.414-.154-1.946-.462a3.111 3.111 0 01-1.218-1.33c-.271-.57-.406-1.228-.406-1.974 0-.756.135-1.414.406-1.974.28-.57.686-1.013 1.218-1.33.532-.327 1.185-.49 1.96-.49.765 0 1.414.163 1.946.49.532.317.933.76 1.204 1.33.27.57.406 1.232.406 1.988 0 .737-.14 1.39-.42 1.96a3.024 3.024 0 01-1.204 1.33c-.523.308-1.172.462-1.946.462zm0-1.288c.504 0 .91-.112 1.218-.336.317-.224.55-.523.7-.896.149-.374.224-.784.224-1.232a3.29 3.29 0 00-.224-1.232 1.955 1.955 0 00-.7-.91c-.308-.234-.714-.35-1.218-.35-.495 0-.901.116-1.218.35a1.953 1.953 0 00-.7.896c-.14.373-.21.788-.21 1.246 0 .448.07.858.21 1.232.149.373.382.672.7.896.317.224.723.336 1.218.336zm5.05 1.204v-7.378h5.165v1.288h-3.724v6.09h-1.442zm6.33 2.688V40.259h1.372l.07 1.064a2.345 2.345 0 011.035-.868 3.27 3.27 0 011.373-.294c.727 0 1.33.168 1.805.504a3.02 3.02 0 011.065 1.358c.233.57.35 1.213.35 1.932 0 .718-.122 1.362-.365 1.932a2.874 2.874 0 01-1.092 1.344c-.485.326-1.106.49-1.862.49-.364 0-.69-.038-.98-.112a2.53 2.53 0 01-.755-.322 4.199 4.199 0 01-.575-.476v3.514h-1.441zm3.584-3.892c.504 0 .905-.112 1.204-.336a1.94 1.94 0 00.643-.91 3.66 3.66 0 00.197-1.218c0-.458-.07-.873-.21-1.246a1.82 1.82 0 00-.659-.91c-.298-.234-.7-.35-1.203-.35-.458 0-.845.116-1.163.35a2.13 2.13 0 00-.727.91 3.22 3.22 0 00-.239 1.246c0 .457.075.877.225 1.26.158.373.396.667.714.882.326.214.732.322 1.217.322zm5.2 4.438v-1.428c.429 0 .774-.052 1.035-.154a1.49 1.49 0 00.672-.504 4.37 4.37 0 00.518-.882l-3.192-7.644h1.694l2.31 5.978 1.862-5.978h1.61l-2.03 5.992a24.08 24.08 0 01-.364 1.036c-.13.373-.28.746-.448 1.12-.158.373-.34.718-.546 1.036a3.082 3.082 0 01-.686.77 2.83 2.83 0 01-.616.392 2.3 2.3 0 01-.728.21c-.28.037-.644.056-1.092.056zm6.77-3.234l2.283-3.864-2.1-3.514h1.526l1.792 3.08h1.078v-3.08h1.456v3.08h1.078l1.778-3.08h1.54l-2.1 3.514 2.282 3.864h-1.652l-1.736-3.052h-1.19v3.052h-1.456v-3.052h-1.176l-1.75 3.052H100zm14.764.084c-.775 0-1.424-.159-1.946-.476a3.06 3.06 0 01-1.19-1.316c-.262-.57-.392-1.223-.392-1.96 0-.747.135-1.405.406-1.974a3.23 3.23 0 011.204-1.344c.532-.327 1.171-.49 1.918-.49.55 0 1.031.102 1.442.308.42.196.77.471 1.05.826.289.345.499.737.63 1.176.13.438.191.9.182 1.386l-.028.294c0 .093-.005.191-.014.294h-5.334c.028.373.121.714.28 1.022.168.308.401.555.7.742.298.177.667.266 1.106.266.242 0 .476-.028.7-.084a1.92 1.92 0 00.616-.294c.186-.14.317-.318.392-.532h1.456a2.633 2.633 0 01-.658 1.232c-.308.317-.686.55-1.134.7-.439.15-.901.224-1.386.224zm-2.044-4.424h3.92a2.05 2.05 0 00-.252-.966 1.691 1.691 0 00-.658-.672c-.28-.168-.616-.252-1.008-.252-.43 0-.789.088-1.078.266-.28.177-.5.41-.658.7-.15.28-.238.588-.266.924zm6.835 4.34v-7.378h1.442v3.108h3.402v-3.108h1.442v7.378h-1.442V44.64h-3.402v2.996h-1.442zm8.053 0v-7.378h1.442v5.222c.065-.112.149-.234.252-.364.102-.14.182-.252.238-.336l3.374-4.522h1.344v7.378h-1.442v-5.194a8.31 8.31 0 01-.238.364 14.32 14.32 0 01-.238.308l-3.374 4.522h-1.358zm11.656.084c-.775 0-1.424-.159-1.946-.476a3.06 3.06 0 01-1.19-1.316c-.262-.57-.392-1.223-.392-1.96 0-.747.135-1.405.406-1.974a3.23 3.23 0 011.204-1.344c.532-.327 1.171-.49 1.918-.49.55 0 1.031.102 1.442.308.42.196.77.471 1.05.826.289.345.499.737.63 1.176.13.438.191.9.182 1.386l-.028.294c0 .093-.005.191-.014.294h-5.334c.028.373.121.714.28 1.022.168.308.401.555.7.742.298.177.667.266 1.106.266.242 0 .476-.028.7-.084a1.92 1.92 0 00.616-.294c.186-.14.317-.318.392-.532h1.456a2.633 2.633 0 01-.658 1.232c-.308.317-.686.55-1.134.7-.439.15-.901.224-1.386.224zm-2.044-4.424h3.92a2.05 2.05 0 00-.252-.966 1.691 1.691 0 00-.658-.672c-.28-.168-.616-.252-1.008-.252-.43 0-.789.088-1.078.266-.28.177-.5.41-.658.7-.15.28-.238.588-.266.924zM28.882 67.637v-7.378h3.108c.317 0 .635.023.952.07.327.037.62.121.882.252.27.13.485.322.644.574.168.242.252.564.252.966 0 .242-.037.462-.112.658a1.563 1.563 0 01-.322.518c-.13.14-.299.261-.504.364.467.121.803.34 1.008.658.215.308.322.676.322 1.106 0 .392-.075.728-.224 1.008-.15.28-.35.508-.602.686a2.645 2.645 0 01-.854.392 3.813 3.813 0 01-.98.126h-3.57zm1.47-1.26H32.2c.261 0 .5-.024.714-.07.224-.056.401-.154.532-.294.14-.14.21-.332.21-.574 0-.252-.056-.444-.168-.574a.883.883 0 00-.434-.294 2.24 2.24 0 00-.574-.098 6.673 6.673 0 00-.602-.028h-1.526v1.932zm0-3.024h1.092c.168 0 .36-.01.574-.028.215-.028.42-.075.616-.14a1.2 1.2 0 00.49-.28c.13-.13.196-.308.196-.532 0-.299-.084-.504-.252-.616a1.07 1.07 0 00-.574-.21 5.302 5.302 0 00-.658-.042h-1.484v1.848zm10.11 4.284v-7.378h6.314v7.378h-1.442v-6.09h-3.43v6.09h-1.442zm8.08 2.688V60.259h1.372l.07 1.064a2.345 2.345 0 011.036-.868c.43-.196.887-.294 1.372-.294.728 0 1.33.168 1.806.504.476.336.83.788 1.064 1.358.233.57.35 1.213.35 1.932 0 .718-.121 1.362-.364 1.932a2.876 2.876 0 01-1.092 1.344c-.485.326-1.106.49-1.862.49-.364 0-.69-.038-.98-.112a2.528 2.528 0 01-.756-.322 4.199 4.199 0 01-.574-.476v3.514h-1.442zm3.584-3.892c.504 0 .906-.112 1.204-.336.299-.234.514-.537.644-.91.13-.374.196-.78.196-1.218 0-.458-.07-.873-.21-1.246a1.82 1.82 0 00-.658-.91c-.298-.234-.7-.35-1.204-.35-.457 0-.844.116-1.162.35-.317.224-.56.527-.728.91a3.22 3.22 0 00-.238 1.246c0 .457.075.877.224 1.26.159.373.397.667.714.882.327.214.733.322 1.218.322zm8.21 1.288c-.765 0-1.414-.154-1.946-.462a3.111 3.111 0 01-1.218-1.33c-.27-.57-.406-1.228-.406-1.974 0-.756.135-1.414.406-1.974.28-.57.686-1.013 1.218-1.33.532-.327 1.185-.49 1.96-.49.765 0 1.414.163 1.946.49.532.317.933.76 1.204 1.33.27.57.406 1.232.406 1.988 0 .737-.14 1.39-.42 1.96a3.024 3.024 0 01-1.204 1.33c-.523.308-1.171.462-1.946.462zm0-1.288c.504 0 .91-.112 1.218-.336.317-.224.55-.523.7-.896.15-.374.224-.784.224-1.232a3.29 3.29 0 00-.224-1.232 1.955 1.955 0 00-.7-.91c-.308-.234-.714-.35-1.218-.35-.495 0-.9.116-1.218.35-.317.224-.55.522-.7.896-.14.373-.21.788-.21 1.246 0 .448.07.858.21 1.232.15.373.383.672.7.896.317.224.723.336 1.218.336zm8.298 1.288c-.775 0-1.423-.159-1.946-.476a3.066 3.066 0 01-1.19-1.316c-.261-.57-.392-1.223-.392-1.96 0-.747.135-1.405.406-1.974.28-.57.681-1.018 1.204-1.344.532-.327 1.171-.49 1.918-.49.55 0 1.031.102 1.442.308.42.196.77.471 1.05.826.29.345.5.737.63 1.176.13.438.191.9.182 1.386l-.028.294c0 .093-.005.191-.014.294h-5.334c.028.373.121.714.28 1.022.168.308.401.555.7.742.299.177.667.266 1.106.266.243 0 .476-.028.7-.084a1.91 1.91 0 00.616-.294 1.11 1.11 0 00.392-.532h1.456c-.121.494-.34.905-.658 1.232-.308.317-.686.55-1.134.7-.439.15-.9.224-1.386.224zm-2.044-4.424h3.92a2.033 2.033 0 00-.252-.966 1.69 1.69 0 00-.658-.672c-.28-.168-.616-.252-1.008-.252-.43 0-.789.088-1.078.266-.28.177-.5.41-.658.7-.15.28-.238.588-.266.924zm6.835 4.34v-7.378h1.442v3.066h1.232l2.058-3.066h1.652l-2.422 3.5 2.562 3.878h-1.68l-2.03-3.038h-1.372v3.038h-1.442zm9.242 0v-6.09h-2.492v-1.288H86.6v1.288h-2.492v6.09h-1.442z" fill="#fff"/><circle cx="35.5" cy="103.137" r="16" stroke="#1D4ED8"/><circle cx="35.5" cy="103.137" r="8.5" fill="#fff"/><g clip-path="url(#clip0_523_15386)"><path d="M37 136.887v-4.905a5.232 5.232 0 011.849 1.192l2.613 2.615a5.212 5.212 0 011.193 1.848H37.75a.749.749 0 01-.75-.75zm6 2.613v6.387a3.754 3.754 0 01-3.75 3.75h-7.5a3.754 3.754 0 01-3.75-3.75v-10.5a3.756 3.756 0 013.75-3.75h3.386a4.9 4.9 0 01.364.018v5.232a2.252 2.252 0 002.25 2.25h5.232c.008.12.018.241.018.363zm-6 6.387a.752.752 0 00-.75-.75H32.5a.752.752 0 00-.75.75.75.75 0 00.75.75h3.75a.749.749 0 00.75-.75zm2.25-3a.752.752 0 00-.75-.75h-6a.752.752 0 00-.75.75.75.75 0 00.75.75h6a.749.749 0 00.75-.75z" fill="#fff"/></g><circle cx="156.5" cy="261.258" r="8.5" fill="#fff"/><circle cx="156.5" cy="261.258" r="16" stroke="#1D4ED8"/><g clip-path="url(#clip1_523_15386)"><path d="M158.386 219.09l2.783 2.782-10.008 10.007a3.004 3.004 0 01-2.121.879h-1.54v-1.54c0-.796.316-1.558.879-2.121l10.007-10.007zm6.473-3.691a1.969 1.969 0 00-2.783 0l-2.63 2.63 2.783 2.783 2.63-2.63a1.969 1.969 0 000-2.783zm-8.159 3.256l-1.125-1.125-1.69 1.69a.751.751 0 01-1.061-1.061l1.69-1.69-.942-.942a2.623 2.623 0 00-3.712 0l-1.591 1.59a2.626 2.626 0 000 3.713l3.128 3.128 5.303-5.303zm-.4 10.207l3.128 3.128a2.626 2.626 0 003.713 0l1.59-1.591a2.623 2.623 0 000-3.712l-.942-.942-1.689 1.689a.748.748 0 01-1.281-.53c0-.192.074-.384.22-.53l1.69-1.69-1.125-1.125-5.303 5.303h-.001z" fill="#fff"/></g><path opacity=".6" d="M92.365 306.758v-9.898h7.938v9.898h-1.484v-8.554h-4.97v8.554h-1.484zm9.988 2.688V299.38h1.372l.07 1.064a2.335 2.335 0 011.036-.868 3.261 3.261 0 011.372-.294c.728 0 1.33.168 1.806.504.476.336.83.788 1.064 1.358.233.569.35 1.213.35 1.932 0 .718-.122 1.362-.364 1.932a2.887 2.887 0 01-1.092 1.344c-.486.326-1.106.49-1.862.49-.364 0-.691-.038-.98-.112a2.525 2.525 0 01-.756-.322 4.232 4.232 0 01-.574-.476v3.514h-1.442zm3.584-3.892c.504 0 .905-.112 1.204-.336.298-.234.513-.537.644-.91.13-.374.196-.78.196-1.218 0-.458-.07-.873-.21-1.246a1.82 1.82 0 00-.658-.91c-.299-.234-.7-.35-1.204-.35-.458 0-.845.116-1.162.35-.318.224-.56.527-.728.91a3.212 3.212 0 00-.238 1.246c0 .457.074.877.224 1.26.158.373.396.667.714.882.326.214.732.322 1.218.322zm8.21 1.288c-.766 0-1.414-.154-1.946-.462a3.117 3.117 0 01-1.218-1.33c-.271-.57-.406-1.228-.406-1.974 0-.756.135-1.414.406-1.974.28-.57.686-1.013 1.218-1.33.532-.327 1.185-.49 1.96-.49.765 0 1.414.163 1.946.49.532.317.933.76 1.204 1.33.27.569.406 1.232.406 1.988 0 .737-.14 1.39-.42 1.96a3.032 3.032 0 01-1.204 1.33c-.523.308-1.172.462-1.946.462zm0-1.288c.504 0 .91-.112 1.218-.336.317-.224.55-.523.7-.896.149-.374.224-.784.224-1.232 0-.448-.075-.859-.224-1.232a1.959 1.959 0 00-.7-.91c-.308-.234-.714-.35-1.218-.35-.495 0-.901.116-1.218.35a1.953 1.953 0 00-.7.896c-.14.373-.21.788-.21 1.246 0 .448.07.858.21 1.232.149.373.382.672.7.896.317.224.723.336 1.218.336zm6.785 1.204v-6.09h-2.492v-1.288h6.426v1.288h-2.492v6.09h-1.442zm8.226.084c-.765 0-1.414-.154-1.946-.462a3.117 3.117 0 01-1.218-1.33c-.27-.57-.406-1.228-.406-1.974 0-.756.136-1.414.406-1.974.28-.57.686-1.013 1.218-1.33.532-.327 1.186-.49 1.96-.49.766 0 1.414.163 1.946.49.532.317.934.76 1.204 1.33.271.569.406 1.232.406 1.988 0 .737-.14 1.39-.42 1.96a3.026 3.026 0 01-1.204 1.33c-.522.308-1.171.462-1.946.462zm0-1.288c.504 0 .91-.112 1.218-.336.318-.224.551-.523.7-.896.15-.374.224-.784.224-1.232 0-.448-.074-.859-.224-1.232a1.946 1.946 0 00-.7-.91c-.308-.234-.714-.35-1.218-.35-.494 0-.9.116-1.218.35-.317.224-.55.522-.7.896-.14.373-.21.788-.21 1.246 0 .448.07.858.21 1.232.15.373.383.672.7.896.318.224.724.336 1.218.336zm6.786 1.204v-6.09h-2.492v-1.288h6.426v1.288h-2.492v6.09h-1.442zm4.936 0v-7.378h1.442v5.222c.065-.112.149-.234.252-.364.103-.14.182-.252.238-.336l3.374-4.522h1.344v7.378h-1.442v-5.194a9.026 9.026 0 01-.238.364c-.084.112-.163.214-.238.308l-3.374 4.522h-1.358zm8.408 0v-7.378h6.314v7.378h-1.442v-6.09h-3.43v6.09h-1.442zm8.08 0v-7.378h1.442v5.222c.066-.112.15-.234.252-.364.103-.14.182-.252.238-.336l3.374-4.522h1.344v7.378h-1.442v-5.194a8.06 8.06 0 01-.238.364c-.084.112-.163.214-.238.308l-3.374 4.522h-1.358zm8.409 2.688V299.38h1.372l.07 1.064a2.335 2.335 0 011.036-.868 3.261 3.261 0 011.372-.294c.728 0 1.33.168 1.806.504.476.336.83.788 1.064 1.358.233.569.35 1.213.35 1.932 0 .718-.122 1.362-.364 1.932a2.887 2.887 0 01-1.092 1.344c-.486.326-1.106.49-1.862.49-.364 0-.691-.038-.98-.112a2.525 2.525 0 01-.756-.322 4.232 4.232 0 01-.574-.476v3.514h-1.442zm3.584-3.892c.504 0 .905-.112 1.204-.336.298-.234.513-.537.644-.91.13-.374.196-.78.196-1.218 0-.458-.07-.873-.21-1.246a1.82 1.82 0 00-.658-.91c-.299-.234-.7-.35-1.204-.35-.458 0-.845.116-1.162.35-.318.224-.56.527-.728.91a3.212 3.212 0 00-.238 1.246c0 .457.074.877.224 1.26.158.373.396.667.714.882.326.214.732.322 1.218.322zm8.209 1.288c-.765 0-1.414-.154-1.946-.462a3.117 3.117 0 01-1.218-1.33c-.27-.57-.406-1.228-.406-1.974 0-.756.136-1.414.406-1.974.28-.57.686-1.013 1.218-1.33.532-.327 1.186-.49 1.96-.49.766 0 1.414.163 1.946.49.532.317.934.76 1.204 1.33.271.569.406 1.232.406 1.988 0 .737-.14 1.39-.42 1.96a3.026 3.026 0 01-1.204 1.33c-.522.308-1.171.462-1.946.462zm0-1.288c.504 0 .91-.112 1.218-.336.318-.224.551-.523.7-.896.15-.374.224-.784.224-1.232 0-.448-.074-.859-.224-1.232a1.946 1.946 0 00-.7-.91c-.308-.234-.714-.35-1.218-.35-.494 0-.9.116-1.218.35-.317.224-.55.522-.7.896-.14.373-.21.788-.21 1.246 0 .448.07.858.21 1.232.15.373.383.672.7.896.318.224.724.336 1.218.336zm5.05 1.204v-7.378h3.108c.318 0 .635.023.952.07.327.037.621.121.882.252.271.13.486.322.644.574.168.242.252.564.252.966 0 .242-.037.462-.112.658a1.559 1.559 0 01-.322.518 1.74 1.74 0 01-.504.364c.467.121.803.34 1.008.658.215.308.322.676.322 1.106 0 .392-.074.728-.224 1.008-.149.28-.35.508-.602.686a2.647 2.647 0 01-.854.392 3.812 3.812 0 01-.98.126h-3.57zm1.47-1.26h1.848c.262 0 .5-.024.714-.07.224-.056.402-.154.532-.294.14-.14.21-.332.21-.574 0-.252-.056-.444-.168-.574a.88.88 0 00-.434-.294 2.215 2.215 0 00-.574-.098 6.525 6.525 0 00-.602-.028h-1.526v1.932zm0-3.024h1.092c.168 0 .36-.01.574-.028.215-.028.42-.075.616-.14.206-.066.369-.159.49-.28.131-.131.196-.308.196-.532 0-.299-.084-.504-.252-.616a1.056 1.056 0 00-.574-.21 5.299 5.299 0 00-.658-.042h-1.484v1.848zm8.593 4.368a3.6 3.6 0 01-.952-.126 2.744 2.744 0 01-.826-.406 2.194 2.194 0 01-.588-.686c-.14-.28-.21-.607-.21-.98 0-.448.084-.817.252-1.106.177-.299.41-.528.7-.686.289-.168.62-.285.994-.35a6.167 6.167 0 011.19-.112h1.806c0-.364-.056-.682-.168-.952a1.3 1.3 0 00-.532-.644c-.234-.159-.546-.238-.938-.238-.234 0-.458.028-.672.084a1.37 1.37 0 00-.532.238.844.844 0 00-.308.448h-1.512c.056-.355.182-.658.378-.91.196-.262.438-.476.728-.644.289-.168.597-.29.924-.364a4.194 4.194 0 011.022-.126c.709 0 1.283.14 1.722.42.448.28.774.681.98 1.204.205.522.308 1.143.308 1.862v3.99h-1.246l-.056-.91c-.215.27-.462.48-.742.63a2.8 2.8 0 01-.854.28 4.71 4.71 0 01-.868.084zm.252-1.218c.429 0 .802-.07 1.12-.21.317-.15.56-.36.728-.63.177-.28.266-.612.266-.994v-.294h-1.316c-.271 0-.537.009-.798.028-.262.009-.5.046-.714.112a.96.96 0 00-.49.294c-.122.14-.182.34-.182.602 0 .252.065.457.196.616.13.158.303.28.518.364.214.074.438.112.672.112zm5.244 1.134v-7.378h1.442v3.108h3.402v-3.108h1.442v7.378h-1.442v-2.996h-3.402v2.996h-1.442zm8.053 0v-7.378h1.442v5.222c.065-.112.149-.234.252-.364.102-.14.182-.252.238-.336l3.374-4.522h1.344v7.378h-1.442v-5.194a9.026 9.026 0 01-.238.364c-.084.112-.164.214-.238.308l-3.374 4.522h-1.358zm11.656.084c-.775 0-1.424-.159-1.946-.476a3.064 3.064 0 01-1.19-1.316c-.262-.57-.392-1.223-.392-1.96 0-.747.135-1.405.406-1.974.28-.57.681-1.018 1.204-1.344.532-.327 1.171-.49 1.918-.49.55 0 1.031.102 1.442.308.42.196.77.471 1.05.826.289.345.499.737.63 1.176.13.438.191.9.182 1.386l-.028.294c0 .093-.005.191-.014.294h-5.334c.028.373.121.714.28 1.022.168.308.401.555.7.742.298.177.667.266 1.106.266.242 0 .476-.028.7-.084a1.92 1.92 0 00.616-.294c.186-.14.317-.318.392-.532h1.456a2.639 2.639 0 01-.658 1.232c-.308.317-.686.55-1.134.7a4.283 4.283 0 01-1.386.224zm-2.044-4.424h3.92a2.05 2.05 0 00-.252-.966 1.682 1.682 0 00-.658-.672c-.28-.168-.616-.252-1.008-.252-.43 0-.789.088-1.078.266-.28.177-.5.41-.658.7-.15.28-.238.588-.266.924z" fill="#fff"/><path d="M245.383 48v-9.898h3.57c.737 0 1.372.117 1.904.35.541.233.956.597 1.246 1.092.289.485.434 1.115.434 1.89 0 .747-.168 1.372-.504 1.876a3.111 3.111 0 01-1.344 1.148c-.57.252-1.218.378-1.946.378h-1.876V48h-1.484zm1.484-4.508h1.82c.709 0 1.278-.163 1.708-.49.429-.336.644-.873.644-1.61 0-.644-.178-1.125-.532-1.442-.355-.327-.892-.49-1.61-.49h-2.03v4.032zm9.296 4.592a3.6 3.6 0 01-.952-.126 2.732 2.732 0 01-.826-.406 2.183 2.183 0 01-.588-.686c-.14-.28-.21-.607-.21-.98 0-.448.084-.817.252-1.106.177-.299.411-.527.7-.686a2.98 2.98 0 01.994-.35 6.198 6.198 0 011.19-.112h1.806a2.48 2.48 0 00-.168-.952 1.297 1.297 0 00-.532-.644c-.233-.159-.546-.238-.938-.238-.233 0-.457.028-.672.084a1.387 1.387 0 00-.532.238.85.85 0 00-.308.448h-1.512c.056-.355.182-.658.378-.91a2.42 2.42 0 01.728-.644c.289-.168.597-.29.924-.364a4.2 4.2 0 011.022-.126c.709 0 1.283.14 1.722.42.448.28.775.681.98 1.204.205.523.308 1.143.308 1.862V48h-1.246l-.056-.91a2.37 2.37 0 01-.742.63c-.271.14-.555.233-.854.28a4.71 4.71 0 01-.868.084zm.252-1.218c.429 0 .803-.07 1.12-.21.317-.15.56-.36.728-.63a1.82 1.82 0 00.266-.994v-.294h-1.316c-.271 0-.537.01-.798.028a2.84 2.84 0 00-.714.112.965.965 0 00-.49.294c-.121.14-.182.34-.182.602 0 .252.065.457.196.616.131.159.303.28.518.364.215.075.439.112.672.112zm8.044 1.218c-.373 0-.742-.033-1.106-.098a3.816 3.816 0 01-1.022-.364 2.186 2.186 0 01-.756-.672c-.196-.28-.308-.635-.336-1.064h1.414c.038.233.159.42.364.56.206.14.439.243.7.308a3.494 3.494 0 001.47.014c.252-.056.462-.159.63-.308.178-.159.266-.383.266-.672 0-.261-.065-.457-.196-.588-.13-.13-.303-.22-.518-.266a3.356 3.356 0 00-.714-.07h-1.302v-1.176h1.05c.178 0 .35-.014.518-.042a1.93 1.93 0 00.448-.154.937.937 0 00.336-.294.89.89 0 00.126-.49c0-.233-.07-.415-.21-.546a1.048 1.048 0 00-.518-.294 2.592 2.592 0 00-.658-.084c-.224 0-.452.023-.686.07a1.419 1.419 0 00-.602.266.83.83 0 00-.308.546h-1.4c.038-.541.206-.966.504-1.274a2.54 2.54 0 011.134-.672c.448-.13.896-.196 1.344-.196.336 0 .668.033.994.098.327.065.626.177.896.336.28.15.5.355.658.616.159.261.238.583.238.966 0 .317-.074.607-.224.868-.14.252-.364.457-.672.616.439.15.747.383.924.7.178.308.266.672.266 1.092 0 .41-.088.76-.266 1.05a2.27 2.27 0 01-.7.7 3.263 3.263 0 01-.98.392 4.899 4.899 0 01-1.106.126zm4.474 2.604V40.622h1.372l.07 1.064a2.34 2.34 0 011.036-.868 3.261 3.261 0 011.372-.294c.728 0 1.33.168 1.806.504.476.336.83.789 1.064 1.358.233.57.35 1.213.35 1.932 0 .719-.122 1.363-.364 1.932a2.884 2.884 0 01-1.092 1.344c-.486.327-1.106.49-1.862.49-.364 0-.691-.037-.98-.112a2.518 2.518 0 01-.756-.322 4.18 4.18 0 01-.574-.476v3.514h-1.442zm3.584-3.892c.504 0 .905-.112 1.204-.336.298-.233.513-.537.644-.91.13-.373.196-.78.196-1.218 0-.457-.07-.873-.21-1.246a1.822 1.822 0 00-.658-.91c-.299-.233-.7-.35-1.204-.35-.458 0-.845.117-1.162.35-.318.224-.56.527-.728.91a3.215 3.215 0 00-.238 1.246c0 .457.074.877.224 1.26.158.373.396.667.714.882.326.215.732.322 1.218.322zm7.244 1.288a3.6 3.6 0 01-.952-.126 2.72 2.72 0 01-.826-.406 2.183 2.183 0 01-.588-.686c-.14-.28-.21-.607-.21-.98 0-.448.084-.817.252-1.106.177-.299.41-.527.7-.686a2.98 2.98 0 01.994-.35 6.19 6.19 0 011.19-.112h1.806a2.48 2.48 0 00-.168-.952 1.302 1.302 0 00-.532-.644c-.234-.159-.546-.238-.938-.238-.234 0-.458.028-.672.084a1.38 1.38 0 00-.532.238.845.845 0 00-.308.448h-1.512c.056-.355.182-.658.378-.91.196-.261.438-.476.728-.644.289-.168.597-.29.924-.364a4.194 4.194 0 011.022-.126c.709 0 1.283.14 1.722.42.448.28.774.681.98 1.204.205.523.308 1.143.308 1.862V48h-1.246l-.056-.91a2.37 2.37 0 01-.742.63 2.8 2.8 0 01-.854.28 4.71 4.71 0 01-.868.084zm.252-1.218c.429 0 .802-.07 1.12-.21.317-.15.56-.36.728-.63a1.82 1.82 0 00.266-.994v-.294h-1.316c-.271 0-.537.01-.798.028-.262.01-.5.047-.714.112a.96.96 0 00-.49.294c-.122.14-.182.34-.182.602 0 .252.065.457.196.616.13.159.303.28.518.364.214.075.438.112.672.112zm8.506 1.218c-.485 0-.919-.07-1.302-.21a2.86 2.86 0 01-.98-.588 3.422 3.422 0 01-.672-.91 5.067 5.067 0 01-.406-1.148 6.772 6.772 0 01-.126-1.33c0-.71.023-1.367.07-1.974a5.978 5.978 0 01.336-1.624 2.77 2.77 0 01.84-1.19c.383-.317.905-.55 1.568-.7.373-.084.747-.154 1.12-.21.383-.056.775-.107 1.176-.154.224-.037.42-.065.588-.084.168-.028.322-.051.462-.07.149-.028.285-.051.406-.07v1.386a1.474 1.474 0 01-.322.084c-.112.019-.229.037-.35.056a4.794 4.794 0 01-.364.042c-.121.01-.243.023-.364.042a4.14 4.14 0 00-.35.042c-.355.028-.723.06-1.106.098a4.416 4.416 0 00-1.064.238 1.596 1.596 0 00-.812.644 2.38 2.38 0 00-.266.532 3.56 3.56 0 00-.168.644 8.046 8.046 0 00-.056.644c.196-.28.429-.504.7-.672.28-.168.574-.29.882-.364.308-.075.602-.112.882-.112.672 0 1.241.145 1.708.434.467.28.821.677 1.064 1.19.243.504.364 1.087.364 1.75 0 .69-.14 1.307-.42 1.848a3.014 3.014 0 01-1.19 1.274c-.513.308-1.129.462-1.848.462zm.014-1.274c.439 0 .803-.103 1.092-.308.299-.205.523-.48.672-.826.159-.345.238-.719.238-1.12a2.34 2.34 0 00-.238-1.064 1.77 1.77 0 00-.658-.77c-.289-.187-.649-.28-1.078-.28-.42 0-.784.098-1.092.294a1.926 1.926 0 00-.686.784 2.398 2.398 0 00-.238 1.064c0 .383.075.747.224 1.092.149.345.369.62.658.826.289.205.658.308 1.106.308zm8.217 1.274c-.765 0-1.414-.154-1.946-.462a3.112 3.112 0 01-1.218-1.33c-.271-.57-.406-1.227-.406-1.974 0-.756.135-1.414.406-1.974.28-.57.686-1.013 1.218-1.33.532-.327 1.185-.49 1.96-.49.765 0 1.414.163 1.946.49.532.317.933.76 1.204 1.33.271.57.406 1.232.406 1.988 0 .737-.14 1.39-.42 1.96a3.027 3.027 0 01-1.204 1.33c-.523.308-1.171.462-1.946.462zm0-1.288c.504 0 .91-.112 1.218-.336.317-.224.551-.523.7-.896.149-.373.224-.784.224-1.232 0-.448-.075-.859-.224-1.232a1.954 1.954 0 00-.7-.91c-.308-.233-.714-.35-1.218-.35-.495 0-.901.117-1.218.35a1.963 1.963 0 00-.7.896c-.14.373-.21.789-.21 1.246 0 .448.07.859.21 1.232.149.373.383.672.7.896.317.224.723.336 1.218.336zM303.536 48v-6.09h-2.492v-1.288h6.426v1.288h-2.492V48h-1.442zm4.936 0v-7.378h1.442v3.066h1.232l2.058-3.066h1.652l-2.422 3.5L314.996 48h-1.68l-2.03-3.038h-1.372V48h-1.442zm9.693.084a3.6 3.6 0 01-.952-.126 2.732 2.732 0 01-.826-.406 2.183 2.183 0 01-.588-.686c-.14-.28-.21-.607-.21-.98 0-.448.084-.817.252-1.106.177-.299.411-.527.7-.686a2.98 2.98 0 01.994-.35 6.198 6.198 0 011.19-.112h1.806a2.48 2.48 0 00-.168-.952 1.297 1.297 0 00-.532-.644c-.233-.159-.546-.238-.938-.238-.233 0-.457.028-.672.084a1.387 1.387 0 00-.532.238.85.85 0 00-.308.448h-1.512c.056-.355.182-.658.378-.91a2.42 2.42 0 01.728-.644c.289-.168.597-.29.924-.364a4.2 4.2 0 011.022-.126c.709 0 1.283.14 1.722.42.448.28.775.681.98 1.204.205.523.308 1.143.308 1.862V48h-1.246l-.056-.91a2.37 2.37 0 01-.742.63c-.271.14-.555.233-.854.28a4.71 4.71 0 01-.868.084zm.252-1.218c.429 0 .803-.07 1.12-.21.317-.15.56-.36.728-.63a1.82 1.82 0 00.266-.994v-.294h-1.316c-.271 0-.537.01-.798.028a2.84 2.84 0 00-.714.112.965.965 0 00-.49.294c-.121.14-.182.34-.182.602 0 .252.065.457.196.616.131.159.303.28.518.364.215.075.439.112.672.112zm-62.76 23.332v-3.472c.261 0 .471-.07.63-.21a1.48 1.48 0 00.378-.546c.093-.224.163-.471.21-.742.056-.28.102-.55.14-.812.046-.42.074-.845.084-1.274.018-.439.028-.803.028-1.092.009-.233.014-.467.014-.7v-.728h5.474v6.104h.952v3.472h-1.414V68h-5.082v2.198h-1.414zm2.156-3.472h3.346V61.91h-2.688c0 .364-.005.765-.014 1.204-.01.439-.028.854-.056 1.246-.019.224-.042.476-.07.756-.028.28-.08.56-.154.84a2.34 2.34 0 01-.364.77zM264.708 68v-7.378h1.442v5.222c.066-.112.15-.233.252-.364.103-.14.182-.252.238-.336l3.374-4.522h1.344V68h-1.442v-5.194a7.534 7.534 0 01-.238.364c-.084.112-.163.215-.238.308L266.066 68h-1.358zm11.208.084c-.373 0-.742-.033-1.106-.098a3.816 3.816 0 01-1.022-.364 2.186 2.186 0 01-.756-.672c-.196-.28-.308-.635-.336-1.064h1.414c.038.233.159.42.364.56.206.14.439.243.7.308a3.494 3.494 0 001.47.014c.252-.056.462-.159.63-.308.178-.159.266-.383.266-.672 0-.261-.065-.457-.196-.588-.13-.13-.303-.22-.518-.266a3.356 3.356 0 00-.714-.07h-1.302v-1.176h1.05c.178 0 .35-.014.518-.042a1.93 1.93 0 00.448-.154.937.937 0 00.336-.294.89.89 0 00.126-.49c0-.233-.07-.415-.21-.546a1.048 1.048 0 00-.518-.294 2.592 2.592 0 00-.658-.084c-.224 0-.452.023-.686.07a1.419 1.419 0 00-.602.266.83.83 0 00-.308.546h-1.4c.038-.541.206-.966.504-1.274a2.54 2.54 0 011.134-.672c.448-.13.896-.196 1.344-.196.336 0 .668.033.994.098.327.065.626.177.896.336.28.15.5.355.658.616.159.261.238.583.238.966 0 .317-.074.607-.224.868-.14.252-.364.457-.672.616.439.15.747.383.924.7.178.308.266.672.266 1.092 0 .41-.088.76-.266 1.05a2.27 2.27 0 01-.7.7 3.263 3.263 0 01-.98.392 4.899 4.899 0 01-1.106.126zm6.798 0a3.6 3.6 0 01-.952-.126 2.72 2.72 0 01-.826-.406 2.183 2.183 0 01-.588-.686c-.14-.28-.21-.607-.21-.98 0-.448.084-.817.252-1.106.177-.299.41-.527.7-.686a2.98 2.98 0 01.994-.35 6.19 6.19 0 011.19-.112h1.806a2.48 2.48 0 00-.168-.952 1.302 1.302 0 00-.532-.644c-.234-.159-.546-.238-.938-.238-.234 0-.458.028-.672.084a1.38 1.38 0 00-.532.238.845.845 0 00-.308.448h-1.512c.056-.355.182-.658.378-.91.196-.261.438-.476.728-.644.289-.168.597-.29.924-.364a4.194 4.194 0 011.022-.126c.709 0 1.283.14 1.722.42.448.28.774.681.98 1.204.205.523.308 1.143.308 1.862V68h-1.246l-.056-.91a2.37 2.37 0 01-.742.63 2.8 2.8 0 01-.854.28 4.71 4.71 0 01-.868.084zm.252-1.218c.429 0 .802-.07 1.12-.21.317-.15.56-.36.728-.63a1.82 1.82 0 00.266-.994v-.294h-1.316c-.271 0-.537.01-.798.028-.262.01-.5.047-.714.112a.96.96 0 00-.49.294c-.122.14-.182.34-.182.602 0 .252.065.457.196.616.13.159.303.28.518.364.214.075.438.112.672.112zM288.21 68v-7.378h1.442v5.222a3.19 3.19 0 01.252-.364c.103-.14.182-.252.238-.336l3.374-4.522h1.344V68h-1.442v-5.194a8.37 8.37 0 01-.238.364c-.084.112-.163.215-.238.308L289.568 68h-1.358zm3.43-8.274c-.765 0-1.367-.168-1.806-.504-.429-.345-.649-.854-.658-1.526h1.26c.019.336.135.579.35.728.215.15.504.224.868.224s.653-.075.868-.224c.215-.15.331-.392.35-.728h1.26c0 .439-.103.812-.308 1.12a1.945 1.945 0 01-.868.686c-.364.15-.803.224-1.316.224zM296.618 68v-7.378h1.442v3.108h3.402v-3.108h1.442V68h-1.442v-2.996h-3.402V68h-1.442zm10.377.084a3.6 3.6 0 01-.952-.126 2.732 2.732 0 01-.826-.406 2.183 2.183 0 01-.588-.686c-.14-.28-.21-.607-.21-.98 0-.448.084-.817.252-1.106.177-.299.411-.527.7-.686a2.98 2.98 0 01.994-.35 6.198 6.198 0 011.19-.112h1.806a2.48 2.48 0 00-.168-.952 1.297 1.297 0 00-.532-.644c-.233-.159-.546-.238-.938-.238-.233 0-.457.028-.672.084a1.387 1.387 0 00-.532.238.85.85 0 00-.308.448h-1.512c.056-.355.182-.658.378-.91a2.42 2.42 0 01.728-.644c.289-.168.597-.29.924-.364a4.2 4.2 0 011.022-.126c.709 0 1.283.14 1.722.42.448.28.775.681.98 1.204.205.523.308 1.143.308 1.862V68h-1.246l-.056-.91a2.37 2.37 0 01-.742.63c-.271.14-.555.233-.854.28a4.71 4.71 0 01-.868.084zm.252-1.218c.429 0 .803-.07 1.12-.21.317-.15.56-.36.728-.63a1.82 1.82 0 00.266-.994v-.294h-1.316c-.271 0-.537.01-.798.028a2.84 2.84 0 00-.714.112.965.965 0 00-.49.294c-.121.14-.182.34-.182.602 0 .252.065.457.196.616.131.159.303.28.518.364.215.075.439.112.672.112z" fill="#fff"/><circle cx="283.5" cy="103.5" r="8.5" fill="#fff"/><circle cx="283.5" cy="103.5" r="16" stroke="#1D4ED8"/><g clip-path="url(#clip2_523_15386)"><path d="M287.305 142.022l5.195 5.196V150h-2.782l-5.196-5.195 2.783-2.783zm-12.229-6.663l4.581 4.581 2.783-2.783-4.581-4.581a1.969 1.969 0 00-2.783 2.783zm6.575 7.49a3.755 3.755 0 00-5.31 0C274.875 144.316 274.5 150 274.5 150s5.684-.375 7.151-1.841a3.755 3.755 0 000-5.31zm10.273-10.273a1.969 1.969 0 00-2.783 0l-8.094 8.095a5.23 5.23 0 011.664 1.117c.492.493.862 1.06 1.117 1.665l8.095-8.094a1.968 1.968 0 000-2.782l.001-.001z" fill="#fff"/></g><g clip-path="url(#clip3_523_15386)"><path d="M416 214.758h-12c-1.655 0-3 1.345-3 3v9c0 1.654 1.345 3 3 3h2.192l2.811 2.367a1.51 1.51 0 001.004.382c.35 0 .698-.123.969-.364l2.885-2.385H416c1.655 0 3-1.346 3-3v-9c0-1.655-1.345-3-3-3zm-9.53 8.032l1.937 1.938a.749.749 0 11-1.061 1.06l-1.937-1.937a2.253 2.253 0 010-3.182l1.937-1.938a.75.75 0 111.061 1.061l-1.937 1.937a.75.75 0 000 1.061zm8.121 1.061l-1.938 1.937a.748.748 0 01-1.06 0 .749.749 0 010-1.06l1.937-1.938a.75.75 0 000-1.061l-1.937-1.937a.75.75 0 011.06-1.061l1.938 1.938a2.253 2.253 0 010 3.182z" fill="#fff"/></g><circle cx="410" cy="261.258" r="16" stroke="#1D4ED8"/><circle cx="410" cy="261.258" r="8.5" fill="#fff"/><path opacity=".6" d="M336.212 306.758v-9.898h3.766c.476 0 .91.042 1.302.126.402.074.747.21 1.036.406.29.186.509.443.658.77.159.317.238.718.238 1.204 0 .476-.107.905-.322 1.288-.214.373-.541.653-.98.84.588.13 1.032.406 1.33.826.308.41.462.942.462 1.596 0 .55-.102 1.012-.308 1.386a2.31 2.31 0 01-.854.868 3.993 3.993 0 01-1.26.462 8.451 8.451 0 01-1.498.126h-3.57zm1.484-1.358h2.114c.28 0 .56-.014.84-.042.28-.038.537-.108.77-.21.243-.103.434-.257.574-.462.15-.206.224-.481.224-.826 0-.29-.056-.528-.168-.714a1.25 1.25 0 00-.448-.462 1.943 1.943 0 00-.658-.238 3.958 3.958 0 00-.756-.07h-2.492v3.024zm0-4.298h1.876c.318 0 .607-.028.868-.084.271-.056.504-.15.7-.28.196-.131.346-.294.448-.49.112-.196.168-.439.168-.728 0-.383-.084-.663-.252-.84a1.262 1.262 0 00-.686-.378 4.094 4.094 0 00-.938-.098h-2.184v2.898zm10.768 5.74c-.775 0-1.423-.159-1.946-.476a3.07 3.07 0 01-1.19-1.316c-.261-.57-.392-1.223-.392-1.96 0-.747.135-1.405.406-1.974.28-.57.681-1.018 1.204-1.344.532-.327 1.171-.49 1.918-.49.551 0 1.031.102 1.442.308.42.196.77.471 1.05.826.289.345.499.737.63 1.176.131.438.191.9.182 1.386l-.028.294c0 .093-.005.191-.014.294h-5.334c.028.373.121.714.28 1.022.168.308.401.555.7.742.299.177.667.266 1.106.266.243 0 .476-.028.7-.084a1.91 1.91 0 00.616-.294 1.11 1.11 0 00.392-.532h1.456a2.63 2.63 0 01-.658 1.232c-.308.317-.686.55-1.134.7a4.283 4.283 0 01-1.386.224zm-2.044-4.424h3.92a2.026 2.026 0 00-.252-.966 1.682 1.682 0 00-.658-.672c-.28-.168-.616-.252-1.008-.252-.429 0-.789.088-1.078.266a1.89 1.89 0 00-.658.7c-.149.28-.238.588-.266.924zm3.556-4.06a.934.934 0 01-.644-.238c-.168-.159-.252-.374-.252-.644 0-.271.084-.486.252-.644a.902.902 0 01.644-.252c.252 0 .467.084.644.252.177.158.266.373.266.644 0 .27-.089.485-.266.644a.934.934 0 01-.644.238zm-3.248 0a.934.934 0 01-.644-.238c-.177-.159-.266-.374-.266-.644 0-.271.089-.486.266-.644a.902.902 0 01.644-.252c.252 0 .467.084.644.252.177.158.266.373.266.644 0 .27-.089.485-.266.644a.904.904 0 01-.644.238zm6.527 11.088V299.38h1.372l.07 1.064a2.34 2.34 0 011.036-.868 3.265 3.265 0 011.372-.294c.728 0 1.33.168 1.806.504.476.336.831.788 1.064 1.358.233.569.35 1.213.35 1.932 0 .718-.121 1.362-.364 1.932a2.875 2.875 0 01-1.092 1.344c-.485.326-1.106.49-1.862.49-.364 0-.691-.038-.98-.112a2.547 2.547 0 01-.756-.322 4.232 4.232 0 01-.574-.476v3.514h-1.442zm3.584-3.892c.504 0 .905-.112 1.204-.336.299-.234.513-.537.644-.91a3.66 3.66 0 00.196-1.218c0-.458-.07-.873-.21-1.246a1.82 1.82 0 00-.658-.91c-.299-.234-.7-.35-1.204-.35-.457 0-.845.116-1.162.35-.317.224-.56.527-.728.91a3.212 3.212 0 00-.238 1.246c0 .457.075.877.224 1.26.159.373.397.667.714.882.327.214.733.322 1.218.322zm8.263 1.288c-.775 0-1.424-.159-1.946-.476a3.002 3.002 0 01-1.162-1.316c-.252-.57-.378-1.223-.378-1.96 0-.728.13-1.377.392-1.946a3.085 3.085 0 011.204-1.358c.541-.336 1.208-.504 2.002-.504.541 0 1.022.093 1.442.28.42.177.76.443 1.022.798.27.345.448.779.532 1.302h-1.442c-.122-.383-.327-.658-.616-.826a1.897 1.897 0 00-.994-.252c-.514 0-.924.121-1.232.364a2.07 2.07 0 00-.672.938 3.688 3.688 0 00-.196 1.204c0 .438.07.844.21 1.218.149.373.373.676.672.91.308.224.709.336 1.204.336.373 0 .718-.08 1.036-.238.317-.168.522-.448.616-.84h1.484c-.084.541-.28.989-.588 1.344a2.812 2.812 0 01-1.148.77 4.075 4.075 0 01-1.442.252zm6.309-.084v-6.09h-2.492v-1.288h6.426v1.288h-2.492v6.09h-1.442zm4.936 0v-7.378h1.442v3.066h1.232l2.058-3.066h1.652l-2.422 3.5 2.562 3.878h-1.68l-2.03-3.038h-1.372v3.038h-1.442zm9.693.084a3.6 3.6 0 01-.952-.126 2.756 2.756 0 01-.826-.406 2.194 2.194 0 01-.588-.686c-.14-.28-.21-.607-.21-.98 0-.448.084-.817.252-1.106.177-.299.411-.528.7-.686a2.98 2.98 0 01.994-.35 6.175 6.175 0 011.19-.112h1.806c0-.364-.056-.682-.168-.952a1.295 1.295 0 00-.532-.644c-.233-.159-.546-.238-.938-.238-.233 0-.457.028-.672.084a1.377 1.377 0 00-.532.238.85.85 0 00-.308.448h-1.512c.056-.355.182-.658.378-.91a2.41 2.41 0 01.728-.644c.289-.168.597-.29.924-.364a4.2 4.2 0 011.022-.126c.709 0 1.283.14 1.722.42.448.28.775.681.98 1.204.205.522.308 1.143.308 1.862v3.99h-1.246l-.056-.91c-.215.27-.462.48-.742.63-.271.14-.555.233-.854.28a4.71 4.71 0 01-.868.084zm.252-1.218c.429 0 .803-.07 1.12-.21.317-.15.56-.36.728-.63.177-.28.266-.612.266-.994v-.294h-1.316c-.271 0-.537.009-.798.028a2.753 2.753 0 00-.714.112.965.965 0 00-.49.294c-.121.14-.182.34-.182.602 0 .252.065.457.196.616.131.158.303.28.518.364.215.074.439.112.672.112zm9.086 1.134v-7.378h1.442v5.222c.065-.112.149-.234.252-.364.103-.14.182-.252.238-.336l3.374-4.522h1.344v7.378h-1.442v-5.194a9.026 9.026 0 01-.238.364c-.084.112-.163.214-.238.308l-3.374 4.522h-1.358zm12.25 0v-7.378h1.442v5.222c.065-.112.149-.234.252-.364.103-.14.182-.252.238-.336l3.374-4.522h1.344v7.378h-1.442v-5.194a9.026 9.026 0 01-.238.364c-.084.112-.163.214-.238.308l-3.374 4.522h-1.358zm8.408 0v-7.378h1.442v3.108h3.402v-3.108h1.442v7.378h-1.442v-2.996h-3.402v2.996h-1.442zm9.789 0v-6.09h-2.492v-1.288h6.426v1.288h-2.492v6.09h-1.442zm8.184.084c-.775 0-1.423-.159-1.946-.476a3.07 3.07 0 01-1.19-1.316c-.261-.57-.392-1.223-.392-1.96 0-.747.135-1.405.406-1.974.28-.57.681-1.018 1.204-1.344.532-.327 1.171-.49 1.918-.49.551 0 1.031.102 1.442.308.42.196.77.471 1.05.826.289.345.499.737.63 1.176.131.438.191.9.182 1.386l-.028.294c0 .093-.005.191-.014.294h-5.334c.028.373.121.714.28 1.022.168.308.401.555.7.742.299.177.667.266 1.106.266.243 0 .476-.028.7-.084a1.91 1.91 0 00.616-.294 1.11 1.11 0 00.392-.532h1.456a2.63 2.63 0 01-.658 1.232c-.308.317-.686.55-1.134.7a4.283 4.283 0 01-1.386.224zm-2.044-4.424h3.92a2.026 2.026 0 00-.252-.966 1.682 1.682 0 00-.658-.672c-.28-.168-.616-.252-1.008-.252-.429 0-.789.088-1.078.266a1.89 1.89 0 00-.658.7c-.149.28-.238.588-.266.924zm6.835 4.34v-7.378h5.166v1.288h-3.724v6.09H438.8zm6.33 2.688V299.38h1.372l.07 1.064a2.34 2.34 0 011.036-.868 3.265 3.265 0 011.372-.294c.728 0 1.33.168 1.806.504.476.336.831.788 1.064 1.358.233.569.35 1.213.35 1.932 0 .718-.121 1.362-.364 1.932a2.875 2.875 0 01-1.092 1.344c-.485.326-1.106.49-1.862.49-.364 0-.691-.038-.98-.112a2.547 2.547 0 01-.756-.322 4.232 4.232 0 01-.574-.476v3.514h-1.442zm3.584-3.892c.504 0 .905-.112 1.204-.336.299-.234.513-.537.644-.91a3.66 3.66 0 00.196-1.218c0-.458-.07-.873-.21-1.246a1.82 1.82 0 00-.658-.91c-.299-.234-.7-.35-1.204-.35-.457 0-.845.116-1.162.35-.317.224-.56.527-.728.91a3.212 3.212 0 00-.238 1.246c0 .457.075.877.224 1.26.159.373.397.667.714.882.327.214.733.322 1.218.322zm7.244 1.288a3.6 3.6 0 01-.952-.126 2.756 2.756 0 01-.826-.406 2.194 2.194 0 01-.588-.686c-.14-.28-.21-.607-.21-.98 0-.448.084-.817.252-1.106.177-.299.411-.528.7-.686a2.98 2.98 0 01.994-.35 6.175 6.175 0 011.19-.112h1.806c0-.364-.056-.682-.168-.952a1.295 1.295 0 00-.532-.644c-.233-.159-.546-.238-.938-.238-.233 0-.457.028-.672.084a1.377 1.377 0 00-.532.238.85.85 0 00-.308.448h-1.512c.056-.355.182-.658.378-.91a2.41 2.41 0 01.728-.644c.289-.168.597-.29.924-.364a4.2 4.2 0 011.022-.126c.709 0 1.283.14 1.722.42.448.28.775.681.98 1.204.205.522.308 1.143.308 1.862v3.99h-1.246l-.056-.91c-.215.27-.462.48-.742.63-.271.14-.555.233-.854.28a4.71 4.71 0 01-.868.084zm.252-1.218c.429 0 .803-.07 1.12-.21.317-.15.56-.36.728-.63.177-.28.266-.612.266-.994v-.294h-1.316c-.271 0-.537.009-.798.028a2.753 2.753 0 00-.714.112.965.965 0 00-.49.294c-.121.14-.182.34-.182.602 0 .252.065.457.196.616.131.158.303.28.518.364.215.074.439.112.672.112zm10.97 3.332v-2.198h-5.726v-7.378h1.442v6.104h3.29v-6.104h1.47v6.104h.952v3.472h-1.428zm2.573-2.198v-7.378h1.442v5.222c.065-.112.149-.234.252-.364.103-.14.182-.252.238-.336l3.374-4.522h1.344v7.378h-1.442v-5.194a9.026 9.026 0 01-.238.364c-.084.112-.163.214-.238.308l-3.374 4.522h-1.358zm7.946 0l1.946-2.856c-.513-.15-.924-.402-1.232-.756-.298-.355-.448-.808-.448-1.358 0-.467.07-.854.21-1.162.14-.308.341-.551.602-.728.262-.187.57-.318.924-.392a5.362 5.362 0 011.204-.126h3.136v7.378h-1.442v-2.618h-1.498l-1.708 2.618h-1.694zm3.962-3.836h.938v-2.282h-1.526c-.252 0-.48.014-.686.042a1.476 1.476 0 00-.518.168.823.823 0 00-.336.336c-.074.14-.112.331-.112.574 0 .27.066.485.196.644.14.149.318.261.532.336.215.074.453.126.714.154.271.018.537.028.798.028zm-98.259 23.836v-7.378h6.314v7.378h-1.442v-6.09h-3.43v6.09h-1.442zm8.08 2.688V319.38h1.372l.07 1.064a2.335 2.335 0 011.036-.868 3.261 3.261 0 011.372-.294c.728 0 1.33.168 1.806.504.476.336.83.788 1.064 1.358.233.569.35 1.213.35 1.932 0 .718-.122 1.362-.364 1.932a2.887 2.887 0 01-1.092 1.344c-.486.326-1.106.49-1.862.49-.364 0-.691-.038-.98-.112a2.525 2.525 0 01-.756-.322 4.232 4.232 0 01-.574-.476v3.514h-1.442zm3.584-3.892c.504 0 .905-.112 1.204-.336.298-.234.513-.537.644-.91.13-.374.196-.78.196-1.218 0-.458-.07-.873-.21-1.246a1.82 1.82 0 00-.658-.91c-.299-.234-.7-.35-1.204-.35-.458 0-.845.116-1.162.35-.318.224-.56.527-.728.91a3.212 3.212 0 00-.238 1.246c0 .457.074.877.224 1.26.158.373.396.667.714.882.326.214.732.322 1.218.322zm8.21 1.288c-.766 0-1.414-.154-1.946-.462a3.117 3.117 0 01-1.218-1.33c-.271-.57-.406-1.228-.406-1.974 0-.756.135-1.414.406-1.974.28-.57.686-1.013 1.218-1.33.532-.327 1.185-.49 1.96-.49.765 0 1.414.163 1.946.49.532.317.933.76 1.204 1.33.27.569.406 1.232.406 1.988 0 .737-.14 1.39-.42 1.96a3.032 3.032 0 01-1.204 1.33c-.523.308-1.172.462-1.946.462zm0-1.288c.504 0 .91-.112 1.218-.336.317-.224.55-.523.7-.896.149-.374.224-.784.224-1.232 0-.448-.075-.859-.224-1.232a1.959 1.959 0 00-.7-.91c-.308-.234-.714-.35-1.218-.35-.495 0-.901.116-1.218.35a1.953 1.953 0 00-.7.896c-.14.373-.21.788-.21 1.246 0 .448.07.858.21 1.232.149.373.382.672.7.896.317.224.723.336 1.218.336zm8.297 1.288c-.774 0-1.423-.159-1.946-.476a3.076 3.076 0 01-1.19-1.316c-.261-.57-.392-1.223-.392-1.96 0-.747.136-1.405.406-1.974.28-.57.682-1.018 1.204-1.344.532-.327 1.172-.49 1.918-.49.551 0 1.032.102 1.442.308.42.196.77.471 1.05.826.29.345.5.737.63 1.176.131.438.192.9.182 1.386-.009.102-.018.2-.028.294 0 .093-.004.191-.014.294h-5.334c.028.373.122.714.28 1.022.168.308.402.555.7.742.299.177.668.266 1.106.266.243 0 .476-.028.7-.084a1.9 1.9 0 00.616-.294c.187-.14.318-.318.392-.532h1.456c-.121.494-.34.905-.658 1.232-.308.317-.686.55-1.134.7-.438.149-.9.224-1.386.224zm-2.044-4.424h3.92a2.026 2.026 0 00-.252-.966 1.676 1.676 0 00-.658-.672c-.28-.168-.616-.252-1.008-.252-.429 0-.788.088-1.078.266a1.89 1.89 0 00-.658.7c-.149.28-.238.588-.266.924zm6.835 4.34v-7.378h1.442v3.066h1.232l2.058-3.066h1.652l-2.422 3.5 2.562 3.878h-1.68l-2.03-3.038h-1.372v3.038h-1.442zm9.242 0v-6.09h-2.492v-1.288h6.426v1.288h-2.492v6.09h-1.442zm7.26.084a3.6 3.6 0 01-.952-.126 2.756 2.756 0 01-.826-.406 2.194 2.194 0 01-.588-.686c-.14-.28-.21-.607-.21-.98 0-.448.084-.817.252-1.106.177-.299.411-.528.7-.686a2.98 2.98 0 01.994-.35 6.175 6.175 0 011.19-.112h1.806c0-.364-.056-.682-.168-.952a1.295 1.295 0 00-.532-.644c-.233-.159-.546-.238-.938-.238-.233 0-.457.028-.672.084a1.377 1.377 0 00-.532.238.85.85 0 00-.308.448h-1.512c.056-.355.182-.658.378-.91a2.41 2.41 0 01.728-.644c.289-.168.597-.29.924-.364a4.2 4.2 0 011.022-.126c.709 0 1.283.14 1.722.42.448.28.775.681.98 1.204.205.522.308 1.143.308 1.862v3.99h-1.246l-.056-.91c-.215.27-.462.48-.742.63-.271.14-.555.233-.854.28a4.71 4.71 0 01-.868.084zm.252-1.218c.429 0 .803-.07 1.12-.21.317-.15.56-.36.728-.63.177-.28.266-.612.266-.994v-.294h-1.316c-.271 0-.537.009-.798.028a2.753 2.753 0 00-.714.112.965.965 0 00-.49.294c-.121.14-.182.34-.182.602 0 .252.065.457.196.616.131.158.303.28.518.364.215.074.439.112.672.112z" fill="#fff"/><g clip-path="url(#clip4_523_15386)"><g clip-path="url(#clip5_523_15386)" fill="#fff"><path d="M667.071 215.979c.988.18 1.753.956 1.944 1.925.035.177.051.407.049.689-.005.488-.005.973-.001 1.455a.015.015 0 01-.004.01.013.013 0 01-.01.004h-16.093c-.012 0-.018-.006-.018-.018-.001-.603 0-1.207.005-1.812.001-.131.023-.284.068-.46a2.45 2.45 0 011.412-1.642c.341-.148.689-.195 1.068-.194 3.654.003 7.326.003 11.015 0 .215-.001.403.014.565.043zm-10.573 2.208a.562.562 0 10-1.123 0 .562.562 0 001.123 0zm1.875 0a.557.557 0 00-.562-.562.558.558 0 00-.561.562.562.562 0 101.123 0zm1.875 0a.562.562 0 10-1.123 0 .562.562 0 001.123 0zm8.771 11.901a2.439 2.439 0 01-1.905 1.924 3.548 3.548 0 01-.692.052c-3.575-.005-7.151-.005-10.726.001a5.05 5.05 0 01-.688-.032 2.435 2.435 0 01-2.022-1.937 3.339 3.339 0 01-.048-.651c.003-2.738.003-5.487.001-8.246 0-.003.001-.006.003-.008a.011.011 0 01.008-.003h16.093c.014 0 .021.006.021.02-.002 2.739-.002 5.482.001 8.23 0 .276-.015.493-.046.65zm-11.41-5.026l-.696-.696c-.434-.434-1.141-.002-.939.578a.697.697 0 00.177.253c.222.218.446.441.67.668a.021.021 0 01.004.011.015.015 0 01-.004.009l-.714.714a.563.563 0 00.613.919.87.87 0 00.256-.195c.207-.212.42-.425.64-.641a.021.021 0 01.011-.004c.004 0 .008.002.011.004.208.205.427.425.658.661.088.09.172.15.25.18.572.22 1.027-.495.598-.926l-.713-.713a.016.016 0 01-.003-.009l.003-.009c.202-.203.428-.43.681-.679.161-.159.24-.351.183-.573a.562.562 0 00-.764-.382c-.076.03-.181.115-.315.254-.201.208-.392.4-.576.576-.01.01-.021.01-.031 0zm5.625 1.124l-1.075-1.074c-.438-.438-1.142.014-.931.596a.71.71 0 00.179.245c.492.485.968.961 1.428 1.429a.568.568 0 00.816.012c.777-.775 1.528-1.527 2.256-2.255a.563.563 0 10-.818-.773l-1.82 1.82c-.012.012-.023.012-.035 0z"/></g></g><circle cx="660.5" cy="261.258" r="16" stroke="#1D4ED8"/><circle cx="660.5" cy="261.258" r="8.5" fill="#fff"/><path opacity=".6" d="M585.04 306.758v-8.54h-3.136v-1.358h7.742v1.358h-3.122v8.54h-1.484zm8.223.084c-.775 0-1.424-.159-1.946-.476a3.064 3.064 0 01-1.19-1.316c-.262-.57-.392-1.223-.392-1.96 0-.747.135-1.405.406-1.974.28-.57.681-1.018 1.204-1.344.532-.327 1.171-.49 1.918-.49.55 0 1.031.102 1.442.308.42.196.77.471 1.05.826.289.345.499.737.63 1.176.13.438.191.9.182 1.386l-.028.294c0 .093-.005.191-.014.294h-5.334c.028.373.121.714.28 1.022.168.308.401.555.7.742.298.177.667.266 1.106.266.242 0 .476-.028.7-.084a1.92 1.92 0 00.616-.294c.186-.14.317-.318.392-.532h1.456a2.639 2.639 0 01-.658 1.232c-.308.317-.686.55-1.134.7a4.283 4.283 0 01-1.386.224zm-2.044-4.424h3.92a2.05 2.05 0 00-.252-.966 1.682 1.682 0 00-.658-.672c-.28-.168-.616-.252-1.008-.252-.43 0-.789.088-1.078.266-.28.177-.5.41-.658.7-.15.28-.238.588-.266.924zm10.041 4.424c-.775 0-1.423-.159-1.946-.476a3.008 3.008 0 01-1.162-1.316c-.252-.57-.378-1.223-.378-1.96 0-.728.131-1.377.392-1.946a3.091 3.091 0 011.204-1.358c.541-.336 1.209-.504 2.002-.504.541 0 1.022.093 1.442.28.42.177.761.443 1.022.798.271.345.448.779.532 1.302h-1.442c-.121-.383-.327-.658-.616-.826a1.895 1.895 0 00-.994-.252c-.513 0-.924.121-1.232.364a2.07 2.07 0 00-.672.938 3.688 3.688 0 00-.196 1.204c0 .438.07.844.21 1.218.149.373.373.676.672.91.308.224.709.336 1.204.336.373 0 .719-.08 1.036-.238.317-.168.523-.448.616-.84h1.484c-.084.541-.28.989-.588 1.344a2.812 2.812 0 01-1.148.77 4.075 4.075 0 01-1.442.252zm6.309-.084v-6.09h-2.492v-1.288h6.426v1.288h-2.492v6.09h-1.442zm4.936 0v-7.378h1.442v5.222c.065-.112.149-.234.252-.364.103-.14.182-.252.238-.336l3.374-4.522h1.344v7.378h-1.442v-5.194a9.026 9.026 0 01-.238.364c-.084.112-.163.214-.238.308l-3.374 4.522h-1.358zm8.408 2.688V299.38h1.372l.07 1.064a2.346 2.346 0 011.036-.868c.43-.196.887-.294 1.372-.294.728 0 1.33.168 1.806.504.476.336.831.788 1.064 1.358.234.569.35 1.213.35 1.932 0 .718-.121 1.362-.364 1.932a2.875 2.875 0 01-1.092 1.344c-.485.326-1.106.49-1.862.49-.364 0-.69-.038-.98-.112a2.547 2.547 0 01-.756-.322 4.294 4.294 0 01-.574-.476v3.514h-1.442zm3.584-3.892c.504 0 .906-.112 1.204-.336.299-.234.514-.537.644-.91a3.66 3.66 0 00.196-1.218c0-.458-.07-.873-.21-1.246a1.815 1.815 0 00-.658-.91c-.298-.234-.7-.35-1.204-.35-.457 0-.844.116-1.162.35-.317.224-.56.527-.728.91a3.23 3.23 0 00-.238 1.246c0 .457.075.877.224 1.26.159.373.397.667.714.882.327.214.733.322 1.218.322zm8.21 1.288c-.765 0-1.414-.154-1.946-.462a3.117 3.117 0 01-1.218-1.33c-.271-.57-.406-1.228-.406-1.974 0-.756.135-1.414.406-1.974.28-.57.686-1.013 1.218-1.33.532-.327 1.185-.49 1.96-.49.765 0 1.414.163 1.946.49.532.317.933.76 1.204 1.33.271.569.406 1.232.406 1.988 0 .737-.14 1.39-.42 1.96a3.032 3.032 0 01-1.204 1.33c-.523.308-1.171.462-1.946.462zm0-1.288c.504 0 .91-.112 1.218-.336.317-.224.551-.523.7-.896.149-.374.224-.784.224-1.232 0-.448-.075-.859-.224-1.232a1.952 1.952 0 00-.7-.91c-.308-.234-.714-.35-1.218-.35-.495 0-.901.116-1.218.35a1.96 1.96 0 00-.7.896c-.14.373-.21.788-.21 1.246 0 .448.07.858.21 1.232.149.373.383.672.7.896.317.224.723.336 1.218.336zm5.05 1.204v-7.378h3.108c.317 0 .635.023.952.07.327.037.621.121.882.252.271.13.485.322.644.574.168.242.252.564.252.966 0 .242-.037.462-.112.658a1.575 1.575 0 01-.322.518c-.131.14-.299.261-.504.364.467.121.803.34 1.008.658.215.308.322.676.322 1.106 0 .392-.075.728-.224 1.008-.149.28-.35.508-.602.686a2.657 2.657 0 01-.854.392 3.812 3.812 0 01-.98.126h-3.57zm1.47-1.26h1.848c.261 0 .499-.024.714-.07.224-.056.401-.154.532-.294.14-.14.21-.332.21-.574 0-.252-.056-.444-.168-.574a.884.884 0 00-.434-.294 2.223 2.223 0 00-.574-.098 6.525 6.525 0 00-.602-.028h-1.526v1.932zm0-3.024h1.092c.168 0 .359-.01.574-.028.215-.028.42-.075.616-.14a1.2 1.2 0 00.49-.28c.131-.131.196-.308.196-.532 0-.299-.084-.504-.252-.616a1.06 1.06 0 00-.574-.21 5.299 5.299 0 00-.658-.042h-1.484v1.848zm8.592 4.368c-.326 0-.644-.042-.952-.126a2.756 2.756 0 01-.826-.406 2.22 2.22 0 01-.588-.686c-.14-.28-.21-.607-.21-.98 0-.448.084-.817.252-1.106.178-.299.411-.528.7-.686.29-.168.621-.285.994-.35.383-.075.78-.112 1.19-.112h1.806c0-.364-.056-.682-.168-.952a1.295 1.295 0 00-.532-.644c-.233-.159-.546-.238-.938-.238-.233 0-.457.028-.672.084a1.383 1.383 0 00-.532.238.85.85 0 00-.308.448h-1.512c.056-.355.182-.658.378-.91a2.41 2.41 0 01.728-.644c.29-.168.598-.29.924-.364a4.2 4.2 0 011.022-.126c.71 0 1.284.14 1.722.42.448.28.775.681.98 1.204.206.522.308 1.143.308 1.862v3.99h-1.246l-.056-.91c-.214.27-.462.48-.742.63-.27.14-.555.233-.854.28a4.702 4.702 0 01-.868.084zm.252-1.218c.43 0 .803-.07 1.12-.21.318-.15.56-.36.728-.63.178-.28.266-.612.266-.994v-.294h-1.316c-.27 0-.536.009-.798.028a2.753 2.753 0 00-.714.112.969.969 0 00-.49.294c-.121.14-.182.34-.182.602 0 .252.066.457.196.616.131.158.304.28.518.364.215.074.439.112.672.112zm5.245 1.134v-7.378h1.442v3.108h3.402v-3.108h1.442v7.378h-1.442v-2.996h-3.402v2.996h-1.442zm8.052 0v-7.378h1.442v5.222c.066-.112.15-.234.252-.364.103-.14.182-.252.238-.336l3.374-4.522h1.344v7.378h-1.442v-5.194a8.06 8.06 0 01-.238.364c-.084.112-.163.214-.238.308l-3.374 4.522h-1.358zm11.657.084c-.775 0-1.424-.159-1.946-.476a3.064 3.064 0 01-1.19-1.316c-.262-.57-.392-1.223-.392-1.96 0-.747.135-1.405.406-1.974.28-.57.681-1.018 1.204-1.344.532-.327 1.171-.49 1.918-.49.55 0 1.031.102 1.442.308.42.196.77.471 1.05.826.289.345.499.737.63 1.176.13.438.191.9.182 1.386l-.028.294c0 .093-.005.191-.014.294h-5.334c.028.373.121.714.28 1.022.168.308.401.555.7.742.298.177.667.266 1.106.266.242 0 .476-.028.7-.084a1.92 1.92 0 00.616-.294c.186-.14.317-.318.392-.532h1.456a2.639 2.639 0 01-.658 1.232c-.308.317-.686.55-1.134.7a4.283 4.283 0 01-1.386.224zm-2.044-4.424h3.92a2.05 2.05 0 00-.252-.966 1.682 1.682 0 00-.658-.672c-.28-.168-.616-.252-1.008-.252-.43 0-.789.088-1.078.266-.28.177-.5.41-.658.7-.15.28-.238.588-.266.924zm10.676 4.34v-7.378h1.442v5.222c.066-.112.15-.234.252-.364.103-.14.182-.252.238-.336l3.374-4.522h1.344v7.378h-1.442v-5.194a8.06 8.06 0 01-.238.364c-.084.112-.163.214-.238.308l-3.374 4.522h-1.358zm15.05.084c-.373 0-.742-.033-1.106-.098a3.826 3.826 0 01-1.022-.364 2.186 2.186 0 01-.756-.672c-.196-.28-.308-.635-.336-1.064h1.414c.038.233.159.42.364.56.206.14.439.242.7.308a3.494 3.494 0 001.47.014c.252-.056.462-.159.63-.308.178-.159.266-.383.266-.672 0-.262-.065-.458-.196-.588a1.007 1.007 0 00-.518-.266 3.337 3.337 0 00-.714-.07h-1.302v-1.176h1.05c.178 0 .35-.014.518-.042.168-.038.318-.089.448-.154a.942.942 0 00.336-.294.89.89 0 00.126-.49c0-.234-.07-.416-.21-.546a1.048 1.048 0 00-.518-.294 2.592 2.592 0 00-.658-.084c-.224 0-.452.023-.686.07a1.406 1.406 0 00-.602.266.827.827 0 00-.308.546h-1.4c.038-.542.206-.966.504-1.274a2.528 2.528 0 011.134-.672 4.767 4.767 0 011.344-.196c.336 0 .668.032.994.098.327.065.626.177.896.336.28.149.5.354.658.616.159.261.238.583.238.966 0 .317-.074.606-.224.868-.14.252-.364.457-.672.616.439.149.747.382.924.7.178.308.266.672.266 1.092 0 .41-.088.76-.266 1.05a2.27 2.27 0 01-.7.7 3.271 3.271 0 01-.98.392 4.899 4.899 0 01-1.106.126zm6.798 0a3.6 3.6 0 01-.952-.126 2.744 2.744 0 01-.826-.406 2.194 2.194 0 01-.588-.686c-.14-.28-.21-.607-.21-.98 0-.448.084-.817.252-1.106.177-.299.41-.528.7-.686.289-.168.62-.285.994-.35a6.167 6.167 0 011.19-.112h1.806c0-.364-.056-.682-.168-.952a1.3 1.3 0 00-.532-.644c-.234-.159-.546-.238-.938-.238-.234 0-.458.028-.672.084a1.37 1.37 0 00-.532.238.844.844 0 00-.308.448h-1.512c.056-.355.182-.658.378-.91.196-.262.438-.476.728-.644.289-.168.597-.29.924-.364a4.194 4.194 0 011.022-.126c.709 0 1.283.14 1.722.42.448.28.774.681.98 1.204.205.522.308 1.143.308 1.862v3.99h-1.246l-.056-.91c-.215.27-.462.48-.742.63a2.8 2.8 0 01-.854.28 4.71 4.71 0 01-.868.084zm.252-1.218c.429 0 .802-.07 1.12-.21.317-.15.56-.36.728-.63.177-.28.266-.612.266-.994v-.294h-1.316c-.271 0-.537.009-.798.028-.262.009-.5.046-.714.112a.96.96 0 00-.49.294c-.122.14-.182.34-.182.602 0 .252.065.457.196.616.13.158.303.28.518.364.214.074.438.112.672.112zm5.244 1.134v-7.378h6.314v7.378h-1.442v-6.09h-3.43v6.09h-1.442zm8.36 3.234v-1.428c.43 0 .775-.052 1.036-.154.271-.103.495-.271.672-.504a4.37 4.37 0 00.518-.882l-3.192-7.644h1.694l2.31 5.978 1.862-5.978h1.61l-2.03 5.992c-.102.317-.224.662-.364 1.036-.13.373-.28.746-.448 1.12-.158.373-.34.718-.546 1.036a3.083 3.083 0 01-.686.77 2.83 2.83 0 01-.616.392 2.335 2.335 0 01-.728.21c-.28.037-.644.056-1.092.056zm10.706-3.15c-.775 0-1.424-.159-1.946-.476a3.002 3.002 0 01-1.162-1.316c-.252-.57-.378-1.223-.378-1.96 0-.728.13-1.377.392-1.946a3.085 3.085 0 011.204-1.358c.541-.336 1.208-.504 2.002-.504.541 0 1.022.093 1.442.28.42.177.76.443 1.022.798.27.345.448.779.532 1.302h-1.442c-.122-.383-.327-.658-.616-.826a1.897 1.897 0 00-.994-.252c-.514 0-.924.121-1.232.364a2.07 2.07 0 00-.672.938 3.688 3.688 0 00-.196 1.204c0 .438.07.844.21 1.218.149.373.373.676.672.91.308.224.709.336 1.204.336.373 0 .718-.08 1.036-.238.317-.168.522-.448.616-.84h1.484c-.084.541-.28.989-.588 1.344a2.812 2.812 0 01-1.148.77 4.075 4.075 0 01-1.442.252zm4.573-.084v-7.378h1.442v3.066h1.232l2.058-3.066h1.652l-2.422 3.5 2.562 3.878h-1.68l-2.03-3.038h-1.372v3.038h-1.442zm-137.32 20v-7.378h1.442v5.222c.065-.112.149-.234.252-.364.102-.14.182-.252.238-.336l3.374-4.522h1.344v7.378h-1.442v-5.194a9.026 9.026 0 01-.238.364c-.084.112-.164.214-.238.308l-3.374 4.522h-1.358zm8.408 0v-7.378h1.442v3.108h3.402v-3.108h1.442v7.378h-1.442v-2.996h-3.402v2.996h-1.442zm9.788 0v-6.09h-2.492v-1.288h6.426v1.288h-2.492v6.09h-1.442zm8.184.084c-.774 0-1.423-.159-1.946-.476a3.076 3.076 0 01-1.19-1.316c-.261-.57-.392-1.223-.392-1.96 0-.747.136-1.405.406-1.974.28-.57.682-1.018 1.204-1.344.532-.327 1.172-.49 1.918-.49.551 0 1.032.102 1.442.308.42.196.77.471 1.05.826.29.345.5.737.63 1.176.131.438.192.9.182 1.386-.009.102-.018.2-.028.294 0 .093-.004.191-.014.294h-5.334c.028.373.122.714.28 1.022.168.308.402.555.7.742.299.177.668.266 1.106.266.243 0 .476-.028.7-.084a1.9 1.9 0 00.616-.294c.187-.14.318-.318.392-.532h1.456c-.121.494-.34.905-.658 1.232-.308.317-.686.55-1.134.7-.438.149-.9.224-1.386.224zm-2.044-4.424h3.92a2.026 2.026 0 00-.252-.966 1.676 1.676 0 00-.658-.672c-.28-.168-.616-.252-1.008-.252-.429 0-.788.088-1.078.266a1.89 1.89 0 00-.658.7c-.149.28-.238.588-.266.924zm6.835 7.028V319.38h1.372l.07 1.064a2.346 2.346 0 011.036-.868c.43-.196.887-.294 1.372-.294.728 0 1.33.168 1.806.504.476.336.831.788 1.064 1.358.234.569.35 1.213.35 1.932 0 .718-.121 1.362-.364 1.932a2.875 2.875 0 01-1.092 1.344c-.485.326-1.106.49-1.862.49-.364 0-.69-.038-.98-.112a2.547 2.547 0 01-.756-.322 4.294 4.294 0 01-.574-.476v3.514h-1.442zm3.584-3.892c.504 0 .906-.112 1.204-.336.299-.234.514-.537.644-.91a3.66 3.66 0 00.196-1.218c0-.458-.07-.873-.21-1.246a1.815 1.815 0 00-.658-.91c-.298-.234-.7-.35-1.204-.35-.457 0-.844.116-1.162.35-.317.224-.56.527-.728.91a3.23 3.23 0 00-.238 1.246c0 .457.075.877.224 1.26.159.373.397.667.714.882.327.214.733.322 1.218.322zm4.92 1.204v-7.378h1.442v3.108h3.402v-3.108h1.442v7.378h-1.442v-2.996h-3.402v2.996h-1.442zm11.301.084c-.775 0-1.423-.159-1.946-.476a3.07 3.07 0 01-1.19-1.316c-.261-.57-.392-1.223-.392-1.96 0-.747.135-1.405.406-1.974.28-.57.681-1.018 1.204-1.344.532-.327 1.171-.49 1.918-.49.551 0 1.031.102 1.442.308.42.196.77.471 1.05.826.289.345.499.737.63 1.176.131.438.191.9.182 1.386l-.028.294c0 .093-.005.191-.014.294h-5.334c.028.373.121.714.28 1.022.168.308.401.555.7.742.299.177.667.266 1.106.266.243 0 .476-.028.7-.084a1.91 1.91 0 00.616-.294 1.11 1.11 0 00.392-.532h1.456a2.63 2.63 0 01-.658 1.232c-.308.317-.686.55-1.134.7a4.283 4.283 0 01-1.386.224zm-2.044-4.424h3.92a2.026 2.026 0 00-.252-.966 1.682 1.682 0 00-.658-.672c-.28-.168-.616-.252-1.008-.252-.429 0-.789.088-1.078.266a1.89 1.89 0 00-.658.7c-.149.28-.238.588-.266.924zm8.571 4.34v-6.09h-2.492v-1.288h6.426v1.288h-2.492v6.09h-1.442zm5.034-3.332v-1.316h4.48v1.316h-4.48zm6.341 3.332v-7.378h1.848l2.268 3.528 2.226-3.528h1.82v7.378h-1.442v-5.628l-2.422 3.864h-.42l-2.436-3.878v5.642h-1.442zm12.25.084c-.326 0-.644-.042-.952-.126a2.756 2.756 0 01-.826-.406 2.22 2.22 0 01-.588-.686c-.14-.28-.21-.607-.21-.98 0-.448.084-.817.252-1.106.178-.299.411-.528.7-.686.29-.168.621-.285.994-.35.383-.075.78-.112 1.19-.112h1.806c0-.364-.056-.682-.168-.952a1.295 1.295 0 00-.532-.644c-.233-.159-.546-.238-.938-.238-.233 0-.457.028-.672.084a1.383 1.383 0 00-.532.238.85.85 0 00-.308.448h-1.512c.056-.355.182-.658.378-.91a2.41 2.41 0 01.728-.644c.29-.168.598-.29.924-.364a4.2 4.2 0 011.022-.126c.71 0 1.284.14 1.722.42.448.28.775.681.98 1.204.206.522.308 1.143.308 1.862v3.99h-1.246l-.056-.91c-.214.27-.462.48-.742.63-.27.14-.555.233-.854.28a4.702 4.702 0 01-.868.084zm.252-1.218c.43 0 .803-.07 1.12-.21.318-.15.56-.36.728-.63.178-.28.266-.612.266-.994v-.294h-1.316c-.27 0-.536.009-.798.028a2.753 2.753 0 00-.714.112.969.969 0 00-.49.294c-.121.14-.182.34-.182.602 0 .252.066.457.196.616.131.158.304.28.518.364.215.074.439.112.672.112zm5.245 1.134v-7.378h5.166v1.288h-3.724v6.09h-1.442zm8.449.084a3.6 3.6 0 01-.952-.126 2.744 2.744 0 01-.826-.406 2.194 2.194 0 01-.588-.686c-.14-.28-.21-.607-.21-.98 0-.448.084-.817.252-1.106.177-.299.41-.528.7-.686.289-.168.62-.285.994-.35a6.167 6.167 0 011.19-.112h1.806c0-.364-.056-.682-.168-.952a1.3 1.3 0 00-.532-.644c-.234-.159-.546-.238-.938-.238-.234 0-.458.028-.672.084a1.37 1.37 0 00-.532.238.844.844 0 00-.308.448h-1.512c.056-.355.182-.658.378-.91.196-.262.438-.476.728-.644.289-.168.597-.29.924-.364a4.194 4.194 0 011.022-.126c.709 0 1.283.14 1.722.42.448.28.774.681.98 1.204.205.522.308 1.143.308 1.862v3.99h-1.246l-.056-.91c-.215.27-.462.48-.742.63a2.8 2.8 0 01-.854.28 4.71 4.71 0 01-.868.084zm.252-1.218c.429 0 .802-.07 1.12-.21.317-.15.56-.36.728-.63.177-.28.266-.612.266-.994v-.294h-1.316c-.271 0-.537.009-.798.028-.262.009-.5.046-.714.112a.96.96 0 00-.49.294c-.122.14-.182.34-.182.602 0 .252.065.457.196.616.13.158.303.28.518.364.214.074.438.112.672.112zm8.044 1.218c-.374 0-.742-.033-1.106-.098a3.814 3.814 0 01-1.022-.364 2.186 2.186 0 01-.756-.672c-.196-.28-.308-.635-.336-1.064h1.414c.037.233.158.42.364.56.205.14.438.242.7.308.261.056.504.084.728.084.242 0 .49-.024.742-.07.252-.056.462-.159.63-.308.177-.159.266-.383.266-.672 0-.262-.066-.458-.196-.588a1.015 1.015 0 00-.518-.266 3.35 3.35 0 00-.714-.07h-1.302v-1.176h1.05c.177 0 .35-.014.518-.042.168-.038.317-.089.448-.154a.942.942 0 00.336-.294.89.89 0 00.126-.49c0-.234-.07-.416-.21-.546a1.057 1.057 0 00-.518-.294 2.598 2.598 0 00-.658-.084c-.224 0-.453.023-.686.07a1.401 1.401 0 00-.602.266.823.823 0 00-.308.546h-1.4c.037-.542.205-.966.504-1.274a2.528 2.528 0 011.134-.672 4.767 4.767 0 011.344-.196c.336 0 .667.032.994.098.326.065.625.177.896.336.28.149.499.354.658.616.158.261.238.583.238.966 0 .317-.075.606-.224.868-.14.252-.364.457-.672.616.438.149.746.382.924.7.177.308.266.672.266 1.092 0 .41-.089.76-.266 1.05-.178.28-.411.513-.7.7-.29.177-.616.308-.98.392a4.905 4.905 0 01-1.106.126zm4.473-.084v-7.378h1.442v5.222c.066-.112.15-.234.252-.364.103-.14.182-.252.238-.336l3.374-4.522h1.344v7.378h-1.442v-5.194a8.06 8.06 0 01-.238.364c-.084.112-.163.214-.238.308l-3.374 4.522h-1.358zm8.408 0v-7.378h1.442v3.108h3.402v-3.108h1.442v7.378h-1.442v-2.996h-3.402v2.996h-1.442zm10.377.084c-.326 0-.644-.042-.952-.126a2.756 2.756 0 01-.826-.406 2.22 2.22 0 01-.588-.686c-.14-.28-.21-.607-.21-.98 0-.448.084-.817.252-1.106.178-.299.411-.528.7-.686.29-.168.621-.285.994-.35.383-.075.78-.112 1.19-.112h1.806c0-.364-.056-.682-.168-.952a1.295 1.295 0 00-.532-.644c-.233-.159-.546-.238-.938-.238-.233 0-.457.028-.672.084a1.383 1.383 0 00-.532.238.85.85 0 00-.308.448h-1.512c.056-.355.182-.658.378-.91a2.41 2.41 0 01.728-.644c.29-.168.598-.29.924-.364a4.2 4.2 0 011.022-.126c.71 0 1.284.14 1.722.42.448.28.775.681.98 1.204.206.522.308 1.143.308 1.862v3.99h-1.246l-.056-.91c-.214.27-.462.48-.742.63-.27.14-.555.233-.854.28a4.702 4.702 0 01-.868.084zm.252-1.218c.43 0 .803-.07 1.12-.21.318-.15.56-.36.728-.63.178-.28.266-.612.266-.994v-.294h-1.316c-.27 0-.536.009-.798.028a2.753 2.753 0 00-.714.112.969.969 0 00-.49.294c-.121.14-.182.34-.182.602 0 .252.066.457.196.616.131.158.304.28.518.364.215.074.439.112.672.112zM467.198 48v-9.898h7.938V48h-1.484v-8.554h-4.97V48h-1.484zm9.988 2.688V40.622h1.372l.07 1.064a2.34 2.34 0 011.036-.868 3.261 3.261 0 011.372-.294c.728 0 1.33.168 1.806.504.476.336.83.789 1.064 1.358.233.57.35 1.213.35 1.932 0 .719-.122 1.363-.364 1.932a2.884 2.884 0 01-1.092 1.344c-.486.327-1.106.49-1.862.49-.364 0-.691-.037-.98-.112a2.518 2.518 0 01-.756-.322 4.18 4.18 0 01-.574-.476v3.514h-1.442zm3.584-3.892c.504 0 .905-.112 1.204-.336.298-.233.513-.537.644-.91.13-.373.196-.78.196-1.218 0-.457-.07-.873-.21-1.246a1.822 1.822 0 00-.658-.91c-.299-.233-.7-.35-1.204-.35-.458 0-.845.117-1.162.35-.318.224-.56.527-.728.91a3.215 3.215 0 00-.238 1.246c0 .457.074.877.224 1.26.158.373.396.667.714.882.326.215.732.322 1.218.322zm8.21 1.288c-.766 0-1.414-.154-1.946-.462a3.112 3.112 0 01-1.218-1.33c-.271-.57-.406-1.227-.406-1.974 0-.756.135-1.414.406-1.974.28-.57.686-1.013 1.218-1.33.532-.327 1.185-.49 1.96-.49.765 0 1.414.163 1.946.49.532.317.933.76 1.204 1.33.27.57.406 1.232.406 1.988 0 .737-.14 1.39-.42 1.96a3.027 3.027 0 01-1.204 1.33c-.523.308-1.172.462-1.946.462zm0-1.288c.504 0 .91-.112 1.218-.336a1.97 1.97 0 00.7-.896c.149-.373.224-.784.224-1.232 0-.448-.075-.859-.224-1.232a1.96 1.96 0 00-.7-.91c-.308-.233-.714-.35-1.218-.35-.495 0-.901.117-1.218.35a1.957 1.957 0 00-.7.896c-.14.373-.21.789-.21 1.246 0 .448.07.859.21 1.232.149.373.382.672.7.896.317.224.723.336 1.218.336zM494.029 48v-7.378h5.166v1.288h-3.724V48h-1.442zm6.331 2.688V40.622h1.372l.07 1.064a2.34 2.34 0 011.036-.868 3.261 3.261 0 011.372-.294c.728 0 1.33.168 1.806.504.476.336.83.789 1.064 1.358.233.57.35 1.213.35 1.932 0 .719-.122 1.363-.364 1.932a2.884 2.884 0 01-1.092 1.344c-.486.327-1.106.49-1.862.49-.364 0-.691-.037-.98-.112a2.518 2.518 0 01-.756-.322 4.18 4.18 0 01-.574-.476v3.514h-1.442zm3.584-3.892c.504 0 .905-.112 1.204-.336.298-.233.513-.537.644-.91.13-.373.196-.78.196-1.218 0-.457-.07-.873-.21-1.246a1.822 1.822 0 00-.658-.91c-.299-.233-.7-.35-1.204-.35-.458 0-.845.117-1.162.35-.318.224-.56.527-.728.91a3.215 3.215 0 00-.238 1.246c0 .457.074.877.224 1.26.158.373.396.667.714.882.326.215.732.322 1.218.322zm7.243 1.288c-.326 0-.644-.042-.952-.126a2.732 2.732 0 01-.826-.406 2.209 2.209 0 01-.588-.686c-.14-.28-.21-.607-.21-.98 0-.448.084-.817.252-1.106.178-.299.411-.527.7-.686.29-.168.621-.285.994-.35.383-.075.78-.112 1.19-.112h1.806a2.48 2.48 0 00-.168-.952 1.297 1.297 0 00-.532-.644c-.233-.159-.546-.238-.938-.238-.233 0-.457.028-.672.084a1.394 1.394 0 00-.532.238.85.85 0 00-.308.448h-1.512c.056-.355.182-.658.378-.91a2.42 2.42 0 01.728-.644c.29-.168.598-.29.924-.364a4.2 4.2 0 011.022-.126c.71 0 1.284.14 1.722.42.448.28.775.681.98 1.204.206.523.308 1.143.308 1.862V48h-1.246l-.056-.91a2.36 2.36 0 01-.742.63c-.27.14-.555.233-.854.28a4.702 4.702 0 01-.868.084zm.252-1.218c.43 0 .803-.07 1.12-.21.318-.15.56-.36.728-.63.178-.28.266-.611.266-.994v-.294h-1.316c-.27 0-.536.01-.798.028a2.84 2.84 0 00-.714.112.969.969 0 00-.49.294c-.121.14-.182.34-.182.602 0 .252.066.457.196.616.131.159.304.28.518.364.215.075.439.112.672.112zM516.684 48v-7.378h1.848l2.268 3.528 2.226-3.528h1.82V48h-1.442v-5.628l-2.422 3.864h-.42l-2.436-3.878V48h-1.442zm9.926 0v-7.378h1.848l2.268 3.528 2.226-3.528h1.82V48h-1.442v-5.628l-2.422 3.864h-.42l-2.436-3.878V48h-1.442zm9.925 0v-7.378h1.442v5.222c.066-.112.15-.233.252-.364.103-.14.182-.252.238-.336l3.374-4.522h1.344V48h-1.442v-5.194a7.534 7.534 0 01-.238.364c-.084.112-.163.215-.238.308L537.893 48h-1.358zm8.409 2.688V40.622h1.372l.07 1.064a2.34 2.34 0 011.036-.868 3.261 3.261 0 011.372-.294c.728 0 1.33.168 1.806.504.476.336.83.789 1.064 1.358.233.57.35 1.213.35 1.932 0 .719-.122 1.363-.364 1.932a2.884 2.884 0 01-1.092 1.344c-.486.327-1.106.49-1.862.49-.364 0-.691-.037-.98-.112a2.518 2.518 0 01-.756-.322 4.18 4.18 0 01-.574-.476v3.514h-1.442zm3.584-3.892c.504 0 .905-.112 1.204-.336.298-.233.513-.537.644-.91.13-.373.196-.78.196-1.218 0-.457-.07-.873-.21-1.246a1.822 1.822 0 00-.658-.91c-.299-.233-.7-.35-1.204-.35-.458 0-.845.117-1.162.35-.318.224-.56.527-.728.91a3.215 3.215 0 00-.238 1.246c0 .457.074.877.224 1.26.158.373.396.667.714.882.326.215.732.322 1.218.322zm8.209 1.288c-.765 0-1.414-.154-1.946-.462a3.112 3.112 0 01-1.218-1.33c-.27-.57-.406-1.227-.406-1.974 0-.756.136-1.414.406-1.974.28-.57.686-1.013 1.218-1.33.532-.327 1.186-.49 1.96-.49.766 0 1.414.163 1.946.49.532.317.934.76 1.204 1.33.271.57.406 1.232.406 1.988 0 .737-.14 1.39-.42 1.96a3.02 3.02 0 01-1.204 1.33c-.522.308-1.171.462-1.946.462zm0-1.288c.504 0 .91-.112 1.218-.336.318-.224.551-.523.7-.896.15-.373.224-.784.224-1.232 0-.448-.074-.859-.224-1.232a1.947 1.947 0 00-.7-.91c-.308-.233-.714-.35-1.218-.35-.494 0-.9.117-1.218.35a1.97 1.97 0 00-.7.896c-.14.373-.21.789-.21 1.246 0 .448.07.859.21 1.232.15.373.383.672.7.896.318.224.724.336 1.218.336zm5.05 1.204v-7.378h3.108c.318 0 .635.023.952.07.327.037.621.121.882.252.271.13.486.322.644.574.168.243.252.565.252.966 0 .243-.037.462-.112.658a1.552 1.552 0 01-.322.518 1.74 1.74 0 01-.504.364c.467.121.803.34 1.008.658.215.308.322.677.322 1.106 0 .392-.074.728-.224 1.008a1.94 1.94 0 01-.602.686 2.64 2.64 0 01-.854.392 3.812 3.812 0 01-.98.126h-3.57zm1.47-1.26h1.848c.262 0 .5-.023.714-.07.224-.056.402-.154.532-.294.14-.14.21-.331.21-.574 0-.252-.056-.443-.168-.574a.88.88 0 00-.434-.294 2.228 2.228 0 00-.574-.098 6.632 6.632 0 00-.602-.028h-1.526v1.932zm0-3.024h1.092c.168 0 .36-.01.574-.028.215-.028.42-.075.616-.14.206-.065.369-.159.49-.28.131-.13.196-.308.196-.532 0-.299-.084-.504-.252-.616a1.067 1.067 0 00-.574-.21 5.299 5.299 0 00-.658-.042h-1.484v1.848zm8.593 4.368a3.6 3.6 0 01-.952-.126 2.72 2.72 0 01-.826-.406 2.183 2.183 0 01-.588-.686c-.14-.28-.21-.607-.21-.98 0-.448.084-.817.252-1.106.177-.299.41-.527.7-.686a2.98 2.98 0 01.994-.35 6.19 6.19 0 011.19-.112h1.806a2.48 2.48 0 00-.168-.952 1.302 1.302 0 00-.532-.644c-.234-.159-.546-.238-.938-.238-.234 0-.458.028-.672.084a1.38 1.38 0 00-.532.238.845.845 0 00-.308.448h-1.512c.056-.355.182-.658.378-.91.196-.261.438-.476.728-.644.289-.168.597-.29.924-.364a4.194 4.194 0 011.022-.126c.709 0 1.283.14 1.722.42.448.28.774.681.98 1.204.205.523.308 1.143.308 1.862V48h-1.246l-.056-.91a2.37 2.37 0 01-.742.63 2.8 2.8 0 01-.854.28 4.71 4.71 0 01-.868.084zm.252-1.218c.429 0 .802-.07 1.12-.21.317-.15.56-.36.728-.63a1.82 1.82 0 00.266-.994v-.294H572.9c-.271 0-.537.01-.798.028-.262.01-.5.047-.714.112a.96.96 0 00-.49.294c-.122.14-.182.34-.182.602 0 .252.065.457.196.616.13.159.303.28.518.364.214.075.438.112.672.112zM577.346 48v-7.378h1.442v3.108h3.402v-3.108h1.442V48h-1.442v-2.996h-3.402V48h-1.442zm8.053 0v-7.378h1.442v5.222a3.19 3.19 0 01.252-.364c.102-.14.182-.252.238-.336l3.374-4.522h1.344V48h-1.442v-5.194a8.37 8.37 0 01-.238.364 14.32 14.32 0 01-.238.308L586.757 48h-1.358zm11.656.084c-.775 0-1.424-.159-1.946-.476a3.06 3.06 0 01-1.19-1.316c-.262-.57-.392-1.223-.392-1.96 0-.747.135-1.405.406-1.974a3.23 3.23 0 011.204-1.344c.532-.327 1.171-.49 1.918-.49.55 0 1.031.103 1.442.308.42.196.77.471 1.05.826.289.345.499.737.63 1.176.13.439.191.9.182 1.386l-.028.294c0 .093-.005.191-.014.294h-5.334c.028.373.121.714.28 1.022.168.308.401.555.7.742.298.177.667.266 1.106.266.242 0 .476-.028.7-.084a1.88 1.88 0 00.616-.294c.186-.14.317-.317.392-.532h1.456a2.634 2.634 0 01-.658 1.232c-.308.317-.686.55-1.134.7-.439.15-.901.224-1.386.224zm-2.044-4.424h3.92a2.05 2.05 0 00-.252-.966 1.691 1.691 0 00-.658-.672c-.28-.168-.616-.252-1.008-.252-.43 0-.789.089-1.078.266-.28.177-.5.41-.658.7-.15.28-.238.588-.266.924zm-84.727 24.354v-1.288a.962.962 0 00.504-.126 1.31 1.31 0 00.392-.392c.121-.187.215-.448.28-.784.065-.336.112-.686.14-1.05.037-.439.061-.873.07-1.302.019-.43.033-.85.042-1.26.019-.41.028-.807.028-1.19h5.334V68h-1.442v-6.09h-2.52c-.009.308-.023.63-.042.966a33.959 33.959 0 01-.112 1.988 8.21 8.21 0 01-.154 1.19c-.075.42-.219.798-.434 1.134-.215.327-.481.546-.798.658-.308.112-.737.168-1.288.168zm11.85.07c-.765 0-1.414-.154-1.946-.462a3.112 3.112 0 01-1.218-1.33c-.271-.57-.406-1.227-.406-1.974 0-.756.135-1.414.406-1.974.28-.57.686-1.013 1.218-1.33.532-.327 1.185-.49 1.96-.49.765 0 1.414.163 1.946.49.532.317.933.76 1.204 1.33.271.57.406 1.232.406 1.988 0 .737-.14 1.39-.42 1.96a3.027 3.027 0 01-1.204 1.33c-.523.308-1.171.462-1.946.462zm0-1.288c.504 0 .91-.112 1.218-.336.317-.224.551-.523.7-.896.149-.373.224-.784.224-1.232 0-.448-.075-.859-.224-1.232a1.954 1.954 0 00-.7-.91c-.308-.233-.714-.35-1.218-.35-.495 0-.901.117-1.218.35a1.963 1.963 0 00-.7.896c-.14.373-.21.789-.21 1.246 0 .448.07.859.21 1.232.149.373.383.672.7.896.317.224.723.336 1.218.336zm5.05 1.204v-7.378h5.166v1.288h-3.724V68h-1.442zm6.33 0v-7.378h1.442v5.222a3.19 3.19 0 01.252-.364c.103-.14.182-.252.238-.336l3.374-4.522h1.344V68h-1.442v-5.194a8.37 8.37 0 01-.238.364c-.084.112-.163.215-.238.308L534.872 68h-1.358zm8.408 0v-7.378h1.442v3.066h1.232l2.058-3.066h1.652l-2.422 3.5L548.446 68h-1.68l-2.03-3.038h-1.372V68h-1.442zm7.506 0v-7.378h1.442v5.222a3.19 3.19 0 01.252-.364c.103-.14.182-.252.238-.336l3.374-4.522h1.344V68h-1.442v-5.194a8.37 8.37 0 01-.238.364c-.084.112-.163.215-.238.308L550.786 68h-1.358z" fill="#fff"/><circle cx="533.5" cy="103.5" r="16" stroke="#1D4ED8"/><circle cx="533.5" cy="103.5" r="8.5" fill="#fff"/><g clip-path="url(#clip6_523_15386)"><path d="M541.25 143.566l-.375-.216a7.438 7.438 0 000-2.717l.375-.217a2.51 2.51 0 00.925-3.416 2.511 2.511 0 00-1.516-1.167 2.49 2.49 0 00-1.9.25l-.375.217a7.481 7.481 0 00-2.384-1.375v-.434c0-1.375-1.125-2.5-2.5-2.5a2.507 2.507 0 00-2.5 2.5v.434a7.476 7.476 0 00-2.383 1.375l-.375-.217a2.516 2.516 0 00-1.9-.25 2.513 2.513 0 00-1.517 1.167 2.513 2.513 0 00.917 3.416l.375.217a7.516 7.516 0 000 2.717l-.375.216a2.513 2.513 0 00-.925 3.417 2.51 2.51 0 001.517 1.167 2.491 2.491 0 001.9-.25l.375-.217c.7.6 1.508 1.067 2.383 1.375v.433c0 1.375 1.125 2.5 2.5 2.5s2.5-1.125 2.5-2.5v-.433a7.476 7.476 0 002.383-1.375l.375.217a2.48 2.48 0 001.9.25 2.51 2.51 0 001.517-1.167 2.514 2.514 0 00-.917-3.417zm-10.075-.533a.83.83 0 01-.591 1.417.856.856 0 01-.592-.242l-1.008-1.008a1.65 1.65 0 010-2.342l1.008-1.008a.83.83 0 111.175 1.175l-1.008 1.008 1.008.992.008.008zm3.809-4.208l-1.334 6.666a.822.822 0 01-.816.667c-.05 0-.109 0-.167-.017a.83.83 0 01-.65-.983l1.333-6.667a.832.832 0 01.984-.65c.45.092.741.525.65.984zm3.033 4.375l-1.008 1.008a.818.818 0 01-.592.242.83.83 0 01-.592-1.417l1.009-1.008-1.009-1A.83.83 0 11537 139.85l1.009 1.008c.65.65.65 1.7 0 2.342h.008z" fill="#fff"/></g><g opacity=".2" stroke-width="4" stroke-miterlimit="10" stroke-dasharray="9 9"><path d="M-237.31 488.013c58.362-61.114 127.054-116.065 208.427-138.832 81.374-22.767 177.304-7.556 234.767 54.467 40.644 43.904 57.774 108.41 44.268 166.704-13.506 58.293-57.243 108.67-113.041 130.198-109.344 42.181-240.219-24.437-346.696 24.335-83.169 38.126-123.89 141.846-105.021 231.41 18.868 89.565 87.406 162.925 168.228 205.825 28.603 15.19 59.284 27.37 84.106 48.16 24.822 20.79 43.298 53.17 36.684 84.87-8.285 39.76-52.735 62.64-93.332 62.91-40.597.27-58.263-14.96-97.438-25.68" stroke="url(#paint1_linear_523_15386)"/><path d="M-237.31 488.013c58.362-61.114 127.054-116.065 208.427-138.832 81.374-22.767 177.304-7.556 234.767 54.467 40.644 43.904 57.774 108.41 44.268 166.704-13.506 58.293-57.243 108.67-113.041 130.198-109.344 42.181-240.219-24.437-346.696 24.335-83.169 38.126-123.89 141.846-105.021 231.41 18.868 89.565 87.406 162.925 168.228 205.825 28.603 15.19 59.284 27.37 84.106 48.16 24.822 20.79 43.298 53.17 36.684 84.87-8.285 39.76-52.735 62.64-93.332 62.91-40.597.27-58.263-14.96-97.438-25.68" stroke="url(#paint2_linear_523_15386)"/></g><defs><clipPath id="clip0_523_15386"><path fill="#fff" transform="translate(26.5 131.637)" d="M0 0h18v18H0z"/></clipPath><clipPath id="clip1_523_15386"><path fill="#fff" transform="translate(147.5 214.758)" d="M0 0h18v18H0z"/></clipPath><clipPath id="clip2_523_15386"><path fill="#fff" transform="translate(274.5 132)" d="M0 0h18v18H0z"/></clipPath><clipPath id="clip3_523_15386"><path fill="#fff" transform="translate(401 214.758)" d="M0 0h18v18H0z"/></clipPath><clipPath id="clip4_523_15386"><path fill="#fff" transform="translate(651.5 214.758)" d="M0 0h18v18H0z"/></clipPath><clipPath id="clip5_523_15386"><path fill="#fff" transform="translate(652 215)" d="M0 0h18v18H0z"/></clipPath><clipPath id="clip6_523_15386"><path fill="#fff" transform="translate(523.5 132)" d="M0 0h20v20H0z"/></clipPath><linearGradient id="paint0_linear_523_15386" x1="31.609" y1="177.426" x2="812.816" y2="156.037" gradientUnits="userSpaceOnUse"><stop stop-color="#0052CC"/><stop offset=".581" stop-color="#0D8BED"/><stop offset=".88" stop-color="#0F1015"/><stop offset="1" stop-color="#0F1015"/></linearGradient><linearGradient id="paint1_linear_523_15386" x1="222.321" y1="730.289" x2="26.674" y2="346.369" gradientUnits="userSpaceOnUse"><stop stop-color="#fff"/><stop offset="1" stop-color="#fff" stop-opacity="0"/></linearGradient><linearGradient id="paint2_linear_523_15386" x1="249.02" y1="854" x2="-28" y2="299" gradientUnits="userSpaceOnUse"><stop stop-color="#fff"/><stop offset="1" stop-color="#fff" stop-opacity="0"/></linearGradient></defs></svg>