<svg width="44" height="44" fill="none" xmlns="http://www.w3.org/2000/svg"><g opacity=".1" fill="#fff"><path d="M37.31 10.746A3.751 3.751 0 0033.564 7H11.746A3.751 3.751 0 008 10.746v2.978h29.31v-2.978zm-24.483 2.018a1.2 1.2 0 01-1.213-1.201c0-.66.529-1.2 1.201-1.2h.012c.66 0 1.2.54 1.2 1.2 0 .672-.54 1.2-1.2 1.2zm3.602 0a1.2 1.2 0 01-1.212-1.201c0-.66.528-1.2 1.2-1.2h.012c.66 0 1.201.54 1.201 1.2 0 .672-.54 1.2-1.2 1.2zm3.603 0a1.2 1.2 0 01-1.213-1.201c0-.66.528-1.2 1.2-1.2h.013c.66 0 1.2.54 1.2 1.2 0 .672-.54 1.2-1.2 1.2zm11.683 9.066l5.595 3.914v-9.618H8v16.45a3.751 3.751 0 003.746 3.746h11.876c0-.18.948-11.167.948-11.167a4.56 4.56 0 012.618-3.722 4.564 4.564 0 014.527.396z"/><path d="M39.075 29.91l-8.741-6.11a2.136 2.136 0 00-2.137-.193 2.124 2.124 0 00-1.237 1.765l-.925 10.627c-.084.937.42 1.79 1.285 2.162a2.12 2.12 0 002.462-.553l.66-.732 1.165 2.51c.36.78 1.14 1.236 1.957 1.236.3 0 .612-.06.9-.204l2.582-1.2a2.117 2.117 0 001.105-1.214c.204-.54.18-1.128-.072-1.645l-1.165-2.51.985-.023a2.122 2.122 0 002.005-1.525c.06-.216.096-.42.096-.625a2.16 2.16 0 00-.925-1.765z"/></g><path d="M34.31 6.746A3.751 3.751 0 0030.564 3H8.746A3.751 3.751 0 005 6.746v2.978h29.31V6.746zM9.827 8.764a1.2 1.2 0 01-1.213-1.201c0-.66.529-1.2 1.201-1.2h.012c.66 0 1.2.54 1.2 1.2 0 .672-.54 1.2-1.2 1.2zm3.602 0a1.2 1.2 0 01-1.213-1.201c0-.66.529-1.2 1.201-1.2h.012c.66 0 1.201.54 1.201 1.2 0 .672-.54 1.2-1.2 1.2zm3.603 0a1.2 1.2 0 01-1.213-1.201c0-.66.528-1.2 1.2-1.2h.013c.66 0 1.2.54 1.2 1.2 0 .672-.54 1.2-1.2 1.2zm11.683 9.066l5.595 3.914v-9.618H5v16.45a3.751 3.751 0 003.746 3.746h11.876c0-.18.948-11.167.948-11.167a4.56 4.56 0 012.618-3.722 4.564 4.564 0 014.527.396z" fill="#fff"/><path d="M36.075 25.91l-8.741-6.11a2.136 2.136 0 00-2.137-.193 2.124 2.124 0 00-1.237 1.765l-.925 10.627c-.084.937.42 1.79 1.285 2.162a2.12 2.12 0 002.462-.553l.66-.732 1.165 2.51c.36.78 1.14 1.236 1.957 1.236.3 0 .612-.06.9-.204l2.582-1.2a2.117 2.117 0 001.105-1.214c.204-.54.18-1.128-.072-1.645l-1.165-2.51.985-.023a2.122 2.122 0 002.005-1.525c.06-.216.096-.42.096-.625a2.16 2.16 0 00-.925-1.765z" fill="#fff"/></svg>