<svg width="44" height="44" fill="none" xmlns="http://www.w3.org/2000/svg"><g opacity=".1" fill="#fff"><path fill-rule="evenodd" clip-rule="evenodd" d="M8 12.8A4.8 4.8 0 0112.8 8h22.4a4.8 4.8 0 014.8 4.8v4.8H8v-4.8zm4.8-1.6a1.6 1.6 0 000 3.2H16a1.6 1.6 0 000-3.2h-3.2z"/><path d="M40 35.2V20.8H8v14.4a4.8 4.8 0 004.8 4.8h22.4a4.8 4.8 0 004.8-4.8z"/></g><path fill-rule="evenodd" clip-rule="evenodd" d="M5 9.8A4.8 4.8 0 019.8 5h22.4A4.8 4.8 0 0137 9.8v4.8H5V9.8zm4.8-1.6a1.6 1.6 0 000 3.2H13a1.6 1.6 0 000-3.2H9.8z" fill="#fff"/><path d="M37 32.2V17.8H5v14.4A4.8 4.8 0 009.8 37h22.4a4.8 4.8 0 004.8-4.8z" fill="#fff"/></svg>