<svg width="44" height="44" fill="none" xmlns="http://www.w3.org/2000/svg"><path opacity=".1" fill-rule="evenodd" clip-rule="evenodd" d="M17.533 9A8.533 8.533 0 009 17.533v14.934A8.533 8.533 0 0017.533 41h14.934A8.533 8.533 0 0041 32.467V17.533A8.533 8.533 0 0032.467 9H17.533zm5.334 16c0 .302-.129.59-.354.793l-5.333 4.8a1.067 1.067 0 01-1.427-1.586L20.206 25l-4.453-4.007a1.067 1.067 0 011.427-1.586l5.334 4.8c.224.202.353.49.353.793zm10.666 5.867a1.067 1.067 0 100-2.134H25a1.067 1.067 0 000 2.134h8.533z" fill="#fff"/><path fill-rule="evenodd" clip-rule="evenodd" d="M13.533 5A8.533 8.533 0 005 13.533v14.934A8.533 8.533 0 0013.533 37h14.934A8.533 8.533 0 0037 28.467V13.533A8.533 8.533 0 0028.467 5H13.533zm5.334 16c0 .302-.129.59-.354.793l-5.333 4.8a1.067 1.067 0 01-1.427-1.586L16.206 21l-4.453-4.007a1.067 1.067 0 011.427-1.586l5.334 4.8c.224.202.353.49.353.793zm10.666 5.867a1.067 1.067 0 100-2.134H21a1.067 1.067 0 000 2.134h8.533z" fill="#fff"/></svg>