<svg width="1634" height="355" fill="none" xmlns="http://www.w3.org/2000/svg"><path d="M9 87c132.997 0 132.997 181 265.993 181C407.99 268 407.99 87 541.003 87 674.017 87 674 268 806.997 268c132.996 0 132.996-181 266.013-181C1206.02 87 1206 268 1339 268s132.98-181 265.99-181c133.02 0 133 181 266 181" stroke="url(#paint0_linear_276_9059)" stroke-width="3" stroke-miterlimit="10"/><circle cx="16.5" cy="87.5" r="16" stroke="#1D4ED8"/><circle cx="16.5" cy="87.5" r="8.5" fill="#fff"/><circle cx="272.5" cy="266.5" r="8.5" fill="#fff"/><circle cx="272.5" cy="266.5" r="16" stroke="#1D4ED8"/><circle cx="812.5" cy="266.5" r="16" stroke="#1D4ED8"/><circle cx="1331.5" cy="266.5" r="16" stroke="#1D4ED8"/><circle cx="1072.5" cy="87.5" r="16" stroke="#1D4ED8"/><circle cx="812.5" cy="266.5" r="8.5" fill="#fff"/><circle cx="1331.5" cy="266.5" r="8.5" fill="#fff"/><circle cx="541.5" cy="87.5" r="8.5" fill="#fff"/><circle cx="541.5" cy="87.5" r="16" stroke="#1D4ED8"/><circle cx="1072.5" cy="87.5" r="8.5" fill="#fff"/><path d="M15.016 16.208c-.597 0-1.115.112-1.552.336a3.076 3.076 0 00-1.056.896c-.277.373-.485.81-.624 1.312a6.126 6.126 0 00-.192 1.552c0 .555.07 1.083.208 1.584.139.501.347.944.624 1.328.288.373.65.672 1.088.896.437.224.955.336 1.552.336.736 0 1.35-.16 1.84-.48.501-.32.816-.752.944-1.296h1.856a3.685 3.685 0 01-.544 1.456c-.267.427-.603.79-1.008 1.088a4.782 4.782 0 01-1.408.672 6.326 6.326 0 01-1.712.224c-.885 0-1.664-.144-2.336-.432a4.635 4.635 0 01-1.664-1.2 5.063 5.063 0 01-1.008-1.824 7.62 7.62 0 01-.336-2.32c0-.821.112-1.584.336-2.288a5.237 5.237 0 011.024-1.84 4.548 4.548 0 011.664-1.216c.672-.299 1.45-.448 2.336-.448 1.248 0 2.277.293 3.088.88.81.587 1.301 1.45 1.472 2.592h-1.824a2.156 2.156 0 00-.928-1.312c-.48-.33-1.093-.496-1.84-.496zm10.159 1.216c.672 0 1.264.107 1.776.32.512.213.944.512 1.296.896.362.373.634.827.816 1.36a5.49 5.49 0 01.272 1.776c0 .661-.091 1.259-.272 1.792a3.67 3.67 0 01-.784 1.36 3.44 3.44 0 01-1.312.88c-.512.203-1.11.304-1.792.304-.672 0-1.264-.101-1.776-.304a3.72 3.72 0 01-1.296-.88 3.966 3.966 0 01-.784-1.376 5.809 5.809 0 01-.256-1.776c0-.65.085-1.243.256-1.776.181-.533.448-.987.8-1.36a3.618 3.618 0 011.296-.896c.512-.213 1.098-.32 1.76-.32zm0 7.104c.416 0 .768-.07 1.056-.208.298-.15.538-.347.72-.592.192-.245.33-.533.416-.864a3.83 3.83 0 00.144-1.072 3.83 3.83 0 00-.144-1.072 2.32 2.32 0 00-.416-.88 1.839 1.839 0 00-.72-.576c-.288-.139-.64-.208-1.056-.208-.384 0-.731.07-1.04.208-.299.139-.544.33-.736.576-.182.245-.32.539-.416.88-.086.33-.128.688-.128 1.072 0 .384.042.741.128 1.072a2.7 2.7 0 00.416.864c.192.245.432.443.72.592.298.139.65.208 1.056.208zm9.529 1.584c-.672 0-1.264-.101-1.776-.304a3.59 3.59 0 01-1.264-.88 3.924 3.924 0 01-.752-1.36 6.106 6.106 0 01-.24-1.76c0-.64.085-1.227.256-1.76.181-.533.448-.992.8-1.376a3.835 3.835 0 011.28-.912c.501-.224 1.083-.336 1.744-.336.47 0 .901.053 1.296.16.405.096.763.261 1.072.496.31.224.576.512.8.864.224.341.379.757.464 1.248h-1.888a1.333 1.333 0 00-.624-.832c-.31-.203-.693-.304-1.152-.304-.405 0-.752.075-1.04.224-.288.15-.523.352-.704.608a2.642 2.642 0 00-.4.896 4.683 4.683 0 00.016 2.096c.085.33.219.619.4.864.192.235.432.427.72.576.288.139.635.208 1.04.208.48 0 .875-.107 1.184-.32.32-.213.523-.496.608-.848h1.872c-.085.48-.245.896-.48 1.248-.224.352-.501.64-.832.864-.33.224-.699.39-1.104.496a5.61 5.61 0 01-1.296.144zm11.848-8.544v1.584h-2.848V26h-1.808v-6.848h-2.848v-1.584h7.504zm6.49 7.392a2.498 2.498 0 01-1.105.88c-.458.181-.97.272-1.536.272-.448 0-.858-.053-1.232-.16a2.9 2.9 0 01-.96-.48 2.438 2.438 0 01-.656-.816c-.16-.33-.24-.704-.24-1.12 0-.459.091-.848.272-1.168a2.21 2.21 0 01.736-.8c.32-.203.694-.352 1.12-.448a5.52 5.52 0 011.344-.16h2.16c0-.619-.138-1.099-.416-1.44-.277-.341-.762-.517-1.456-.528a2.5 2.5 0 00-1.056.208c-.288.139-.48.368-.576.688H47.57c.064-.448.208-.827.432-1.136.235-.31.512-.565.832-.768a3.461 3.461 0 011.088-.432 5.89 5.89 0 011.216-.128 4.9 4.9 0 011.456.208c.448.139.838.373 1.168.704.374.384.624.843.752 1.376.128.533.192 1.115.192 1.744V26h-1.584l-.08-1.04zm-.097-2.704h-1.76c-.309 0-.618.027-.928.08a1.59 1.59 0 00-.8.336c-.213.17-.32.421-.32.752 0 .405.144.715.432.928.299.203.662.304 1.088.304.331 0 .635-.043.912-.128.288-.085.534-.224.736-.416.203-.203.358-.453.464-.752.118-.31.176-.677.176-1.104zm3.719-4.688h3.6c.373 0 .752.021 1.136.064.384.032.73.123 1.04.272.32.15.576.368.768.656.203.277.31.656.32 1.136 0 .373-.085.72-.256 1.04-.17.32-.443.581-.816.784.512.139.885.384 1.12.736.245.341.368.752.368 1.232 0 .448-.09.837-.272 1.168a2.31 2.31 0 01-.72.784 3.39 3.39 0 01-1.04.432c-.395.085-.81.128-1.248.128h-4v-8.432zm1.84 1.52v1.936h1.856c.267-.01.501-.048.704-.112.213-.064.384-.165.512-.304.139-.139.208-.336.208-.592 0-.224-.053-.395-.16-.512a.89.89 0 00-.368-.288 1.506 1.506 0 00-.512-.112 8.717 8.717 0 00-.512-.016h-1.728zm1.856 5.376c.213 0 .421-.01.624-.032.213-.021.4-.07.56-.144.17-.085.31-.192.416-.32.106-.139.16-.32.16-.544 0-.405-.128-.677-.384-.816-.245-.139-.55-.208-.912-.208h-2.32v2.064h1.856zm6.057-2.48c.053-.725.085-1.445.096-2.16l.064-2.256h6.304V26h-1.84v-6.848h-2.768l-.064 1.568a37.55 37.55 0 01-.064 1.536c-.011.192-.032.421-.064.688a10.43 10.43 0 01-.096.784 4.13 4.13 0 01-.192.736 3.126 3.126 0 01-.32.624c-.224.32-.523.555-.896.704-.363.139-.784.208-1.264.208h-.448v-1.568c.32 0 .576-.075.768-.224a1.44 1.44 0 00.448-.592 3.16 3.16 0 00.224-.784c.053-.288.09-.57.112-.848zm9.954.416c.021.31.085.597.192.864s.25.501.432.704c.181.192.405.347.672.464.277.117.597.176.96.176.384 0 .736-.07 1.056-.208.33-.139.57-.379.72-.72h1.872a2.872 2.872 0 01-.528 1.104c-.235.31-.517.565-.848.768-.32.192-.677.336-1.072.432a5.673 5.673 0 01-1.232.128c-.672 0-1.264-.101-1.776-.304a3.336 3.336 0 01-1.264-.88 3.791 3.791 0 01-.768-1.36 6.227 6.227 0 01-.24-1.792c0-.64.09-1.221.272-1.744.181-.533.443-.992.784-1.376a3.687 3.687 0 011.264-.896c.49-.224 1.05-.336 1.68-.336.661 0 1.232.112 1.712.336.48.213.88.507 1.2.88.33.373.576.81.736 1.312.16.501.24 1.045.24 1.632 0 .277-.016.55-.048.816h-6.016zm4.288-1.376c-.032-.661-.24-1.163-.624-1.504-.373-.341-.864-.512-1.472-.512-.341 0-.64.053-.896.16-.256.107-.475.25-.656.432a2.21 2.21 0 00-.416.64 2.742 2.742 0 00-.208.784h4.272zM84.086 26v-8.432h1.824v3.472h3.744v-3.472h1.824V26h-1.824v-3.376H85.91V26h-1.824zm11.07 0h-1.695v-8.432h1.824v5.792l4.288-5.792h1.648V26h-1.824v-5.68c-.01.021-1.424 1.915-4.24 5.68zm9.559-3.6c.021.31.085.597.192.864.106.267.25.501.432.704.181.192.405.347.672.464.277.117.597.176.96.176.384 0 .736-.07 1.056-.208.33-.139.57-.379.72-.72h1.872a2.88 2.88 0 01-.528 1.104c-.235.31-.518.565-.848.768-.32.192-.678.336-1.072.432a5.675 5.675 0 01-1.232.128c-.672 0-1.264-.101-1.776-.304a3.328 3.328 0 01-1.264-.88 3.77 3.77 0 01-.768-1.36 6.227 6.227 0 01-.24-1.792c0-.64.09-1.221.272-1.744a3.95 3.95 0 01.784-1.376 3.684 3.684 0 011.264-.896c.49-.224 1.05-.336 1.68-.336.661 0 1.232.112 1.712.336.48.213.88.507 1.2.88.33.373.576.81.736 1.312.16.501.24 1.045.24 1.632 0 .277-.016.55-.048.816h-6.016zm4.288-1.376c-.032-.661-.24-1.163-.624-1.504-.374-.341-.864-.512-1.472-.512-.342 0-.64.053-.896.16-.256.107-.475.25-.656.432a2.19 2.19 0 00-.416.64 2.732 2.732 0 00-.208.784h4.272zM14.6 50h-1.856v-9.648h-3.6v-1.664h9.04v1.664H14.6V50zm8.632.112c-.331 0-.747-.032-1.248-.096a4.944 4.944 0 01-1.456-.432 3.805 3.805 0 01-1.264-1.008c-.352-.437-.56-1.024-.624-1.76h1.808c.042.373.176.672.4.896.234.213.49.373.768.48.277.107.57.176.88.208.309.032.581.048.816.048.266 0 .544-.021.832-.064a2.62 2.62 0 00.8-.272 1.66 1.66 0 00.608-.544c.16-.235.24-.539.24-.912 0-.395-.086-.699-.256-.912a1.417 1.417 0 00-.64-.48 2.472 2.472 0 00-.816-.192 11.26 11.26 0 00-.816-.032h-1.44v-1.584h1.28a5.08 5.08 0 00.784-.096c.266-.053.506-.139.72-.256a1.68 1.68 0 00.528-.496c.138-.213.218-.48.24-.8 0-.33-.075-.597-.224-.8a1.43 1.43 0 00-.544-.496 2.205 2.205 0 00-.72-.24 4.953 4.953 0 00-.784-.064c-.288 0-.576.032-.864.096a2.427 2.427 0 00-.752.272 1.699 1.699 0 00-.544.48 1.232 1.232 0 00-.224.688h-1.808c0-.555.112-1.03.336-1.424a2.95 2.95 0 01.928-.992 3.998 3.998 0 011.36-.576 6.64 6.64 0 011.616-.192c.501 0 .992.048 1.472.144.48.085.906.24 1.28.464.384.224.693.528.928.912.234.373.352.848.352 1.424 0 .213-.027.437-.08.672a2.213 2.213 0 01-.24.656 2.426 2.426 0 01-.464.624 2.888 2.888 0 01-.72.512c.64.16 1.125.485 1.456.976.341.48.512 1.05.512 1.712 0 .64-.128 1.184-.384 1.632a3.083 3.083 0 01-.992 1.072 4.161 4.161 0 01-1.408.576 7.575 7.575 0 01-1.632.176zM35.36 50h-1.696v-8.432h1.824v5.792l4.288-5.792h1.648V50H39.6v-5.68c-.01.021-1.424 1.915-4.24 5.68zm12.366 0v-8.432h7.392V50h-1.824v-6.848H49.55V50h-1.824zm13.167-8.576c.672 0 1.264.107 1.776.32.512.213.944.512 1.296.896.363.373.635.827.816 1.36a5.47 5.47 0 01.272 1.776c0 .661-.09 1.259-.272 1.792a3.67 3.67 0 01-.784 1.36 3.432 3.432 0 01-1.312.88c-.512.203-1.109.304-1.792.304-.672 0-1.264-.101-1.776-.304a3.72 3.72 0 01-1.296-.88 3.962 3.962 0 01-.784-1.376 5.806 5.806 0 01-.256-1.776c0-.65.086-1.243.256-1.776.182-.533.448-.987.8-1.36a3.618 3.618 0 011.296-.896c.512-.213 1.099-.32 1.76-.32zm0 7.104c.416 0 .768-.07 1.056-.208a1.98 1.98 0 00.72-.592c.192-.245.331-.533.416-.864a3.83 3.83 0 00.144-1.072 3.83 3.83 0 00-.144-1.072 2.322 2.322 0 00-.416-.88 1.84 1.84 0 00-.72-.576c-.288-.139-.64-.208-1.056-.208-.384 0-.73.07-1.04.208-.298.139-.544.33-.736.576a2.69 2.69 0 00-.416.88c-.085.33-.128.688-.128 1.072 0 .384.043.741.128 1.072.096.33.235.619.416.864.192.245.432.443.72.592.299.139.651.208 1.056.208zM66.711 50v-8.432h6.096v1.584h-4.272V50H66.71zm9.199 3.28h-1.824V41.568h1.728l.096 1.2a2.95 2.95 0 011.2-.992 3.656 3.656 0 011.568-.352c.576 0 1.093.107 1.552.32.458.203.848.49 1.168.864.33.373.576.827.736 1.36.17.523.256 1.12.256 1.792 0 .63-.08 1.21-.24 1.744-.16.533-.4.997-.72 1.392a3.15 3.15 0 01-1.168.896c-.459.213-1.019.32-1.68.32a4.53 4.53 0 01-1.472-.24 2.98 2.98 0 01-1.2-.832v4.24zm2.384-4.752c.394 0 .736-.07 1.024-.208.288-.15.522-.347.704-.592.192-.245.33-.533.416-.864a3.83 3.83 0 00.144-1.072 3.83 3.83 0 00-.144-1.072 2.322 2.322 0 00-.416-.88 1.84 1.84 0 00-.72-.576c-.288-.139-.635-.208-1.04-.208a2.29 2.29 0 00-1.008.224c-.299.15-.55.347-.752.592a2.564 2.564 0 00-.464.88 3.65 3.65 0 00-.144 1.024 4 4 0 00.144 1.088c.096.33.24.619.432.864.202.235.453.427.752.576.298.15.656.224 1.072.224zm11.746-6.96h2l-2.432 7.088c-.31.875-.592 1.648-.848 2.32-.245.672-.539 1.232-.88 1.68a3.22 3.22 0 01-1.264 1.008c-.49.235-1.136.352-1.936.352h-.272v-1.632h.128c.32 0 .603-.037.848-.112.256-.075.485-.187.688-.336.203-.15.379-.347.528-.592.15-.235.288-.507.416-.816l-3.744-8.96h2.144l2.544 6.672 2.08-6.672zM97.708 50v-3.408h-1.312L94.444 50H92.3l2.672-4.416-2.448-4.016h2.032l1.968 3.456h1.184v-3.456h1.808v3.456h1.184l1.968-3.456h2.032l-2.448 4.016L104.924 50h-2.144l-1.952-3.408h-1.312V50h-1.808zm9.694-3.6c.022.31.086.597.192.864.107.267.251.501.432.704.182.192.406.347.672.464.278.117.598.176.96.176.384 0 .736-.07 1.056-.208.331-.139.571-.379.72-.72h1.872a2.852 2.852 0 01-.528 1.104c-.234.31-.517.565-.848.768-.32.192-.677.336-1.072.432a5.668 5.668 0 01-1.232.128c-.672 0-1.264-.101-1.776-.304a3.344 3.344 0 01-1.264-.88 3.8 3.8 0 01-.768-1.36 6.227 6.227 0 01-.24-1.792c0-.64.091-1.221.272-1.744a3.98 3.98 0 01.784-1.376 3.694 3.694 0 011.264-.896c.491-.224 1.051-.336 1.68-.336.662 0 1.232.112 1.712.336.48.213.88.507 1.2.88.331.373.576.81.736 1.312.16.501.24 1.045.24 1.632 0 .277-.016.55-.048.816h-6.016zm4.288-1.376c-.032-.661-.24-1.163-.624-1.504-.373-.341-.864-.512-1.472-.512-.341 0-.64.053-.896.16-.256.107-.474.25-.656.432a2.23 2.23 0 00-.416.64 2.765 2.765 0 00-.208.784h4.272zM115.117 50v-8.432h1.824v3.472h3.744v-3.472h1.824V50h-1.824v-3.376h-3.744V50h-1.824zm11.071 0h-1.696v-8.432h1.824v5.792l4.288-5.792h1.648V50h-1.824v-5.68c-.011.021-1.424 1.915-4.24 5.68zm9.558-3.6c.021.31.085.597.192.864s.251.501.432.704c.181.192.405.347.672.464.277.117.597.176.96.176.384 0 .736-.07 1.056-.208.331-.139.571-.379.72-.72h1.872a2.88 2.88 0 01-.528 1.104c-.235.31-.517.565-.848.768-.32.192-.677.336-1.072.432a5.675 5.675 0 01-1.232.128c-.672 0-1.264-.101-1.776-.304a3.336 3.336 0 01-1.264-.88 3.8 3.8 0 01-.768-1.36 6.227 6.227 0 01-.24-1.792c0-.64.091-1.221.272-1.744.181-.533.443-.992.784-1.376a3.684 3.684 0 011.264-.896c.491-.224 1.051-.336 1.68-.336.661 0 1.232.112 1.712.336.48.213.88.507 1.2.88.331.373.576.81.736 1.312.16.501.24 1.045.24 1.632 0 .277-.016.55-.048.816h-6.016zm4.288-1.376c-.032-.661-.24-1.163-.624-1.504-.373-.341-.864-.512-1.472-.512-.341 0-.64.053-.896.16-.256.107-.475.25-.656.432a2.21 2.21 0 00-.416.64 2.732 2.732 0 00-.208.784h4.272zm7.739-3.456h3.6c.374 0 .752.021 1.136.064a2.93 2.93 0 011.04.272c.32.15.576.368.768.656.203.277.31.656.32 1.136 0 .373-.085.72-.256 1.04-.17.32-.442.581-.816.784.512.139.886.384 1.12.736.246.341.368.752.368 1.232 0 .448-.09.837-.272 1.168-.181.32-.421.581-.72.784a3.378 3.378 0 01-1.04.432c-.394.085-.81.128-1.248.128h-4v-8.432zm1.84 1.52v1.936h1.856c.267-.01.502-.048.704-.112.214-.064.384-.165.512-.304.139-.139.208-.336.208-.592 0-.224-.053-.395-.16-.512a.886.886 0 00-.368-.288 1.503 1.503 0 00-.512-.112 8.706 8.706 0 00-.512-.016h-1.728zm1.856 5.376c.214 0 .422-.01.624-.032.214-.021.4-.07.56-.144.171-.085.31-.192.416-.32.107-.139.16-.32.16-.544 0-.405-.128-.677-.384-.816-.245-.139-.549-.208-.912-.208h-2.32v2.064h1.856zM161.055 50v-8.432h7.392V50h-1.824v-6.848h-3.744V50h-1.824zm11.199 3.28h-1.824V41.568h1.728l.096 1.2a2.935 2.935 0 011.2-.992 3.655 3.655 0 011.568-.352 3.64 3.64 0 011.552.32c.458.203.848.49 1.168.864.33.373.576.827.735 1.36.171.523.257 1.12.257 1.792 0 .63-.08 1.21-.24 1.744-.16.533-.4.997-.72 1.392a3.15 3.15 0 01-1.168.896c-.459.213-1.019.32-1.68.32-.512 0-1.003-.08-1.472-.24a2.976 2.976 0 01-1.2-.832v4.24zm2.384-4.752c.394 0 .736-.07 1.024-.208.288-.15.522-.347.704-.592.192-.245.33-.533.416-.864a3.83 3.83 0 00.144-1.072 3.83 3.83 0 00-.144-1.072 2.331 2.331 0 00-.416-.88 1.849 1.849 0 00-.72-.576c-.288-.139-.635-.208-1.04-.208a2.29 2.29 0 00-1.008.224 2.28 2.28 0 00-.752.592 2.549 2.549 0 00-.464.88 3.65 3.65 0 00-.144 1.024 4 4 0 00.144 1.088c.096.33.24.619.432.864.202.235.453.427.752.576.298.15.656.224 1.072.224zm9.49-7.104c.672 0 1.264.107 1.776.32.512.213.944.512 1.296.896.362.373.634.827.816 1.36a5.5 5.5 0 01.272 1.776c0 .661-.091 1.259-.272 1.792a3.675 3.675 0 01-.784 1.36 3.44 3.44 0 01-1.312.88c-.512.203-1.11.304-1.792.304-.672 0-1.264-.101-1.776-.304a3.72 3.72 0 01-1.296-.88 3.948 3.948 0 01-.784-1.376 5.797 5.797 0 01-.256-1.776c0-.65.085-1.243.256-1.776a3.672 3.672 0 012.096-2.256c.512-.213 1.098-.32 1.76-.32zm0 7.104c.416 0 .768-.07 1.056-.208.298-.15.538-.347.72-.592.192-.245.33-.533.416-.864a3.83 3.83 0 00.144-1.072 3.83 3.83 0 00-.144-1.072 2.331 2.331 0 00-.416-.88 1.849 1.849 0 00-.72-.576c-.288-.139-.64-.208-1.056-.208-.384 0-.731.07-1.04.208a1.97 1.97 0 00-.736.576c-.182.245-.32.539-.416.88a4.25 4.25 0 00-.128 1.072c0 .384.042.741.128 1.072a2.7 2.7 0 00.416.864c.192.245.432.443.72.592.298.139.65.208 1.056.208zm7.321-2.128c.021.31.085.597.192.864s.251.501.432.704c.181.192.405.347.672.464.277.117.597.176.96.176.384 0 .736-.07 1.056-.208.331-.139.571-.379.72-.72h1.872a2.88 2.88 0 01-.528 1.104c-.235.31-.517.565-.848.768-.32.192-.677.336-1.072.432a5.675 5.675 0 01-1.232.128c-.672 0-1.264-.101-1.776-.304a3.336 3.336 0 01-1.264-.88 3.8 3.8 0 01-.768-1.36 6.227 6.227 0 01-.24-1.792c0-.64.091-1.221.272-1.744.181-.533.443-.992.784-1.376a3.684 3.684 0 011.264-.896c.491-.224 1.051-.336 1.68-.336.661 0 1.232.112 1.712.336.48.213.88.507 1.2.88.331.373.576.81.736 1.312.16.501.24 1.045.24 1.632 0 .277-.016.55-.048.816h-6.016zm4.288-1.376c-.032-.661-.24-1.163-.624-1.504-.373-.341-.864-.512-1.472-.512-.341 0-.64.053-.896.16-.256.107-.475.25-.656.432a2.21 2.21 0 00-.416.64 2.732 2.732 0 00-.208.784h4.272zM199.164 50v-8.432h1.808v3.44h1.296l2.16-3.44h2.08l-2.672 4.016 2.88 4.416h-2.112l-2.224-3.408h-1.408V50h-1.808zm15.154-8.432v1.584h-2.848V50h-1.808v-6.848h-2.848v-1.584h7.504zM198.703 314v-11.312h9.072V314h-1.696v-9.776h-5.68V314h-1.696zm11.414 3.072v-11.504h1.568l.08 1.216a2.683 2.683 0 011.184-.992 3.734 3.734 0 011.568-.336c.832 0 1.52.192 2.064.576.544.384.95.901 1.216 1.552.267.651.4 1.387.4 2.208 0 .821-.138 1.557-.416 2.208a3.275 3.275 0 01-1.248 1.536c-.554.373-1.264.56-2.128.56-.416 0-.789-.043-1.12-.128a2.9 2.9 0 01-.864-.368 4.849 4.849 0 01-.656-.544v4.016h-1.648zm4.096-4.448c.576 0 1.035-.128 1.376-.384.342-.267.587-.613.736-1.04.15-.427.224-.891.224-1.392 0-.523-.08-.997-.24-1.424a2.08 2.08 0 00-.752-1.04c-.341-.267-.8-.4-1.376-.4-.522 0-.965.133-1.328.4a2.45 2.45 0 00-.832 1.04 3.686 3.686 0 00-.272 1.424c0 .523.086 1.003.256 1.44.182.427.454.763.816 1.008.374.245.838.368 1.392.368zm9.383 1.472c-.875 0-1.616-.176-2.224-.528a3.556 3.556 0 01-1.392-1.52c-.309-.651-.464-1.403-.464-2.256 0-.864.155-1.616.464-2.256a3.556 3.556 0 011.392-1.52c.608-.373 1.355-.56 2.24-.56.875 0 1.616.187 2.224.56a3.455 3.455 0 011.376 1.52c.309.651.464 1.408.464 2.272 0 .843-.16 1.589-.48 2.24a3.455 3.455 0 01-1.376 1.52c-.597.352-1.339.528-2.224.528zm0-1.472c.576 0 1.04-.128 1.392-.384.363-.256.629-.597.8-1.024.171-.427.256-.896.256-1.408 0-.512-.085-.981-.256-1.408a2.235 2.235 0 00-.8-1.04c-.352-.267-.816-.4-1.392-.4-.565 0-1.029.133-1.392.4a2.242 2.242 0 00-.8 1.024c-.16.427-.24.901-.24 1.424 0 .512.08.981.24 1.408.171.427.437.768.8 1.024.363.256.827.384 1.392.384zm7.755 1.376v-6.96h-2.848v-1.472h7.344v1.472h-2.848V314h-1.648zm9.401.096c-.874 0-1.616-.176-2.224-.528a3.556 3.556 0 01-1.392-1.52c-.309-.651-.464-1.403-.464-2.256 0-.864.155-1.616.464-2.256a3.556 3.556 0 011.392-1.52c.608-.373 1.355-.56 2.24-.56.875 0 1.616.187 2.224.56a3.455 3.455 0 011.376 1.52c.31.651.464 1.408.464 2.272 0 .843-.16 1.589-.48 2.24a3.455 3.455 0 01-1.376 1.52c-.597.352-1.338.528-2.224.528zm0-1.472c.576 0 1.04-.128 1.392-.384.363-.256.63-.597.8-1.024.171-.427.256-.896.256-1.408 0-.512-.085-.981-.256-1.408a2.228 2.228 0 00-.8-1.04c-.352-.267-.816-.4-1.392-.4-.565 0-1.029.133-1.392.4a2.248 2.248 0 00-.8 1.024c-.16.427-.24.901-.24 1.424 0 .512.08.981.24 1.408.171.427.438.768.8 1.024.363.256.827.384 1.392.384zm7.756 1.376v-6.96h-2.848v-1.472h7.344v1.472h-2.848V314h-1.648zm5.641 0v-8.432h1.648v5.968c.074-.128.17-.267.288-.416.117-.16.208-.288.272-.384l3.856-5.168h1.536V314h-1.648v-5.936a9.84 9.84 0 01-.272.416c-.096.128-.187.245-.272.352L255.701 314h-1.552zm9.609 0v-8.432h7.216V314h-1.648v-6.96h-3.92V314h-1.648zm9.234 0v-8.432h1.648v5.968a3.77 3.77 0 01.288-.416c.118-.16.208-.288.272-.384l3.856-5.168h1.536V314h-1.648v-5.936a8.945 8.945 0 01-.272.416c-.096.128-.186.245-.272.352L274.544 314h-1.552zm9.61 3.072v-11.504h1.568l.08 1.216a2.672 2.672 0 011.184-.992 3.728 3.728 0 011.568-.336c.832 0 1.52.192 2.064.576.544.384.949.901 1.216 1.552.266.651.4 1.387.4 2.208 0 .821-.139 1.557-.416 2.208a3.287 3.287 0 01-1.248 1.536c-.555.373-1.264.56-2.128.56-.416 0-.79-.043-1.12-.128a2.877 2.877 0 01-.864-.368 4.788 4.788 0 01-.656-.544v4.016h-1.648zm4.096-4.448c.576 0 1.034-.128 1.376-.384.341-.267.586-.613.736-1.04.149-.427.224-.891.224-1.392 0-.523-.08-.997-.24-1.424-.15-.437-.4-.784-.752-1.04-.342-.267-.8-.4-1.376-.4-.523 0-.966.133-1.328.4-.363.256-.64.603-.832 1.04a3.668 3.668 0 00-.272 1.424c0 .523.085 1.003.256 1.44.181.427.453.763.816 1.008.373.245.837.368 1.392.368zm9.383 1.472c-.875 0-1.616-.176-2.224-.528a3.556 3.556 0 01-1.392-1.52c-.31-.651-.464-1.403-.464-2.256 0-.864.154-1.616.464-2.256a3.556 3.556 0 011.392-1.52c.608-.373 1.354-.56 2.24-.56.874 0 1.616.187 2.224.56a3.46 3.46 0 011.376 1.52c.309.651.464 1.408.464 2.272 0 .843-.16 1.589-.48 2.24a3.46 3.46 0 01-1.376 1.52c-.598.352-1.339.528-2.224.528zm0-1.472c.576 0 1.04-.128 1.392-.384.362-.256.629-.597.8-1.024.17-.427.256-.896.256-1.408 0-.512-.086-.981-.256-1.408a2.241 2.241 0 00-.8-1.04c-.352-.267-.816-.4-1.392-.4-.566 0-1.03.133-1.392.4-.363.256-.63.597-.8 1.024-.16.427-.24.901-.24 1.424 0 .512.08.981.24 1.408.17.427.437.768.8 1.024.362.256.826.384 1.392.384zm5.771 1.376v-8.432h3.552c.362 0 .725.027 1.088.08.373.043.709.139 1.008.288.309.149.554.368.736.656.192.277.288.645.288 1.104 0 .277-.043.528-.128.752a1.8 1.8 0 01-.368.592c-.15.16-.342.299-.576.416.533.139.917.389 1.152.752.245.352.368.773.368 1.264 0 .448-.086.832-.256 1.152-.171.32-.4.581-.688.784a3.024 3.024 0 01-.976.448 4.36 4.36 0 01-1.12.144h-4.08zm1.68-1.44h2.112c.298 0 .57-.027.816-.08.256-.064.458-.176.608-.336.16-.16.24-.379.24-.656 0-.288-.064-.507-.192-.656a1.011 1.011 0 00-.496-.336 2.578 2.578 0 00-.656-.112 7.729 7.729 0 00-.688-.032h-1.744v2.208zm0-3.456h1.248c.192 0 .41-.011.656-.032.245-.032.48-.085.704-.16.234-.075.421-.181.56-.32.149-.149.224-.352.224-.608 0-.341-.096-.576-.288-.704a1.218 1.218 0 00-.656-.24 6.065 6.065 0 00-.752-.048h-1.696v2.112zm9.82 4.992c-.374 0-.736-.048-1.088-.144a3.114 3.114 0 01-.944-.464 2.487 2.487 0 01-.672-.784c-.16-.32-.24-.693-.24-1.12 0-.512.096-.933.288-1.264.202-.341.469-.603.8-.784.33-.192.709-.325 1.136-.4.437-.085.89-.128 1.36-.128h2.064c0-.416-.064-.779-.192-1.088a1.487 1.487 0 00-.608-.736c-.267-.181-.624-.272-1.072-.272-.267 0-.523.032-.768.096a1.573 1.573 0 00-.608.272.97.97 0 00-.352.512h-1.728c.064-.405.208-.752.432-1.04.224-.299.501-.544.832-.736.33-.192.682-.331 1.056-.416a4.796 4.796 0 011.168-.144c.81 0 1.466.16 1.968.48.512.32.885.779 1.12 1.376.234.597.352 1.307.352 2.128V314h-1.424l-.064-1.04a2.722 2.722 0 01-.848.72 3.18 3.18 0 01-.976.32 5.386 5.386 0 01-.992.096zm.288-1.392c.49 0 .917-.08 1.28-.24.362-.171.64-.411.832-.72.202-.32.304-.699.304-1.136v-.336h-1.504c-.31 0-.614.011-.912.032a3.185 3.185 0 00-.816.128 1.098 1.098 0 00-.56.336c-.139.16-.208.389-.208.688 0 .288.074.523.224.704.149.181.346.32.592.416.245.085.501.128.768.128zm5.993 1.296v-8.432h1.648v3.552h3.888v-3.552h1.648V314h-1.648v-3.424h-3.888V314h-1.648zm9.203 0v-8.432h1.648v5.968a3.77 3.77 0 01.288-.416c.117-.16.208-.288.272-.384l3.856-5.168h1.536V314h-1.648v-5.936a8.945 8.945 0 01-.272.416c-.096.128-.187.245-.272.352L330.388 314h-1.552zm13.322.096c-.886 0-1.627-.181-2.224-.544a3.5 3.5 0 01-1.36-1.504c-.299-.651-.448-1.397-.448-2.24 0-.853.154-1.605.464-2.256a3.684 3.684 0 011.376-1.536c.608-.373 1.338-.56 2.192-.56.629 0 1.178.117 1.648.352.48.224.88.539 1.2.944.33.395.57.843.72 1.344.149.501.218 1.029.208 1.584l-.032.336a3.6 3.6 0 01-.017.336h-6.096c.033.427.139.816.321 1.168.192.352.458.635.8.848.341.203.762.304 1.264.304.277 0 .544-.032.8-.096.266-.075.501-.187.704-.336.213-.16.362-.363.448-.608h1.664c-.139.565-.39 1.035-.752 1.408a3.17 3.17 0 01-1.296.8 4.878 4.878 0 01-1.584.256zm-2.336-5.056h4.48a2.332 2.332 0 00-.288-1.104 1.93 1.93 0 00-.752-.768c-.32-.192-.704-.288-1.152-.288-.491 0-.902.101-1.232.304-.32.203-.571.469-.752.8-.171.32-.272.672-.304 1.056zM463.617 50V38.688h4.08c.843 0 1.568.133 2.176.4a2.962 2.962 0 011.424 1.248c.331.555.496 1.275.496 2.16 0 .853-.192 1.568-.576 2.144a3.548 3.548 0 01-1.536 1.312c-.651.288-1.392.432-2.224.432h-2.144V50h-1.696zm1.696-5.152h2.08c.811 0 1.461-.187 1.952-.56.491-.384.736-.997.736-1.84 0-.736-.203-1.285-.608-1.648-.405-.373-1.019-.56-1.84-.56h-2.32v4.608zm10.624 5.248c-.373 0-.736-.048-1.088-.144a3.126 3.126 0 01-.944-.464 2.513 2.513 0 01-.672-.784c-.16-.32-.24-.693-.24-1.12 0-.512.096-.933.288-1.264.203-.341.47-.603.8-.784a3.43 3.43 0 011.136-.4 7.097 7.097 0 011.36-.128h2.064c0-.416-.064-.779-.192-1.088a1.48 1.48 0 00-.608-.736c-.266-.181-.624-.272-1.072-.272-.266 0-.522.032-.768.096a1.59 1.59 0 00-.608.272.974.974 0 00-.352.512h-1.728c.064-.405.208-.752.432-1.04.224-.299.502-.544.832-.736.331-.192.683-.33 1.056-.416a4.802 4.802 0 011.168-.144c.811 0 1.467.16 1.968.48.512.32.886.779 1.12 1.376.235.597.352 1.307.352 2.128V50h-1.424l-.064-1.04c-.245.31-.528.55-.848.72a3.17 3.17 0 01-.976.32 5.377 5.377 0 01-.992.096zm.288-1.392c.491 0 .918-.08 1.28-.24.363-.17.64-.41.832-.72.203-.32.304-.699.304-1.136v-.336h-1.504c-.309 0-.613.01-.912.032a3.2 3.2 0 00-.816.128 1.107 1.107 0 00-.56.336c-.138.16-.208.39-.208.688 0 .288.075.523.224.704.15.181.347.32.592.416.246.085.502.128.768.128zm9.194 1.392c-.427 0-.848-.037-1.264-.112a4.354 4.354 0 01-1.168-.416 2.499 2.499 0 01-.864-.768c-.224-.32-.352-.725-.384-1.216h1.616c.043.267.181.48.416.64.235.16.501.277.8.352.299.064.576.096.832.096.277 0 .56-.027.848-.08.288-.064.528-.181.72-.352.203-.181.304-.437.304-.768 0-.299-.075-.523-.224-.672a1.164 1.164 0 00-.592-.304 3.846 3.846 0 00-.816-.08h-1.488v-1.344h1.2c.203 0 .4-.016.592-.048.192-.043.363-.101.512-.176a1.07 1.07 0 00.384-.336c.096-.15.144-.336.144-.56 0-.267-.08-.475-.24-.624a1.203 1.203 0 00-.592-.336 2.965 2.965 0 00-.752-.096 4.02 4.02 0 00-.784.08 1.617 1.617 0 00-.688.304.947.947 0 00-.352.624h-1.6c.043-.619.235-1.104.576-1.456a2.902 2.902 0 011.296-.768 5.464 5.464 0 011.536-.224c.384 0 .763.037 1.136.112.373.075.715.203 1.024.384.32.17.571.405.752.704.181.299.272.667.272 1.104 0 .363-.085.693-.256.992-.16.288-.416.523-.768.704.501.17.853.437 1.056.8.203.352.304.768.304 1.248 0 .47-.101.87-.304 1.2-.203.32-.469.587-.8.8a3.735 3.735 0 01-1.12.448 5.601 5.601 0 01-1.264.144zm5.112 2.976V41.568h1.568l.08 1.216a2.685 2.685 0 011.184-.992 3.734 3.734 0 011.568-.336c.832 0 1.52.192 2.064.576.544.384.95.901 1.216 1.552.267.65.4 1.387.4 2.208 0 .821-.138 1.557-.416 2.208a3.278 3.278 0 01-1.248 1.536c-.554.373-1.264.56-2.128.56-.416 0-.789-.043-1.12-.128a2.907 2.907 0 01-.864-.368 4.827 4.827 0 01-.656-.544v4.016h-1.648zm4.096-4.448c.576 0 1.035-.128 1.376-.384.342-.267.587-.613.736-1.04.15-.427.224-.89.224-1.392 0-.523-.08-.997-.24-1.424a2.078 2.078 0 00-.752-1.04c-.341-.267-.8-.4-1.376-.4-.522 0-.965.133-1.328.4a2.45 2.45 0 00-.832 1.04 3.687 3.687 0 00-.272 1.424c0 .523.086 1.003.256 1.44.182.427.454.763.816 1.008.374.245.838.368 1.392.368zm8.279 1.472c-.373 0-.736-.048-1.088-.144a3.126 3.126 0 01-.944-.464 2.513 2.513 0 01-.672-.784c-.16-.32-.24-.693-.24-1.12 0-.512.096-.933.288-1.264.203-.341.47-.603.8-.784a3.43 3.43 0 011.136-.4 7.097 7.097 0 011.36-.128h2.064c0-.416-.064-.779-.192-1.088a1.48 1.48 0 00-.608-.736c-.266-.181-.624-.272-1.072-.272-.266 0-.522.032-.768.096a1.59 1.59 0 00-.608.272.974.974 0 00-.352.512h-1.728c.064-.405.208-.752.432-1.04.224-.299.502-.544.832-.736.331-.192.683-.33 1.056-.416a4.802 4.802 0 011.168-.144c.811 0 1.467.16 1.968.48.512.32.886.779 1.12 1.376.235.597.352 1.307.352 2.128V50h-1.424l-.064-1.04c-.245.31-.528.55-.848.72a3.17 3.17 0 01-.976.32 5.377 5.377 0 01-.992.096zm.288-1.392c.491 0 .918-.08 1.28-.24.363-.17.64-.41.832-.72.203-.32.304-.699.304-1.136v-.336h-1.504c-.309 0-.613.01-.912.032a3.2 3.2 0 00-.816.128 1.107 1.107 0 00-.56.336c-.138.16-.208.39-.208.688 0 .288.075.523.224.704.15.181.347.32.592.416.246.085.502.128.768.128zm9.722 1.392c-.555 0-1.051-.08-1.488-.24a3.26 3.26 0 01-1.12-.672 3.898 3.898 0 01-.768-1.04 5.743 5.743 0 01-.464-1.312 7.74 7.74 0 01-.144-1.52c0-.81.026-1.563.08-2.256a6.779 6.779 0 01.384-1.856c.202-.544.522-.997.96-1.36.437-.363 1.034-.63 1.792-.8.426-.096.853-.176 1.28-.24.437-.064.885-.123 1.344-.176.256-.043.48-.075.672-.096.192-.032.368-.059.528-.08.17-.032.325-.059.464-.08v1.584c-.107.043-.23.075-.368.096a34.61 34.61 0 01-.4.064 5.614 5.614 0 01-.416.048c-.139.01-.278.027-.416.048-.139.01-.272.027-.4.048-.406.032-.827.07-1.264.112a5.04 5.04 0 00-1.216.272c-.374.128-.683.373-.928.736-.118.17-.219.373-.304.608a4.03 4.03 0 00-.192.736 9.063 9.063 0 00-.064.736c.224-.32.49-.576.8-.768.32-.192.656-.33 1.008-.416a4.281 4.281 0 011.008-.128c.768 0 1.418.165 1.952.496.533.32.938.773 1.216 1.36.277.576.416 1.243.416 2 0 .79-.16 1.493-.48 2.112a3.45 3.45 0 01-1.36 1.456c-.587.352-1.291.528-2.112.528zm.016-1.456c.501 0 .917-.117 1.248-.352a2.17 2.17 0 00.768-.944c.181-.395.272-.821.272-1.28 0-.448-.091-.853-.272-1.216a2.029 2.029 0 00-.752-.88c-.331-.213-.742-.32-1.232-.32-.48 0-.896.112-1.248.336a2.194 2.194 0 00-.784.896 2.737 2.737 0 00-.272 1.216c0 .437.085.853.256 1.248.17.395.421.71.752.944.33.235.752.352 1.264.352zm9.391 1.456c-.875 0-1.616-.176-2.224-.528a3.556 3.556 0 01-1.392-1.52c-.31-.65-.464-1.403-.464-2.256 0-.864.154-1.616.464-2.256.32-.65.784-1.157 1.392-1.52.608-.373 1.354-.56 2.24-.56.874 0 1.616.187 2.224.56a3.46 3.46 0 011.376 1.52c.309.65.464 1.408.464 2.272 0 .843-.16 1.59-.48 2.24a3.46 3.46 0 01-1.376 1.52c-.598.352-1.339.528-2.224.528zm0-1.472c.576 0 1.04-.128 1.392-.384a2.25 2.25 0 00.8-1.024c.17-.427.256-.896.256-1.408 0-.512-.086-.981-.256-1.408a2.24 2.24 0 00-.8-1.04c-.352-.267-.816-.4-1.392-.4-.566 0-1.03.133-1.392.4-.363.256-.63.597-.8 1.024-.16.427-.24.901-.24 1.424 0 .512.08.981.24 1.408.17.427.437.768.8 1.024.362.256.826.384 1.392.384zM530.078 50v-6.96h-2.848v-1.472h7.344v1.472h-2.848V50h-1.648zm5.641 0v-8.432h1.648v3.504h1.408l2.352-3.504h1.888l-2.768 4L543.175 50h-1.92l-2.32-3.472h-1.568V50h-1.648zm11.078.096c-.374 0-.736-.048-1.088-.144a3.114 3.114 0 01-.944-.464 2.487 2.487 0 01-.672-.784c-.16-.32-.24-.693-.24-1.12 0-.512.096-.933.288-1.264.202-.341.469-.603.8-.784.33-.192.709-.325 1.136-.4.437-.085.89-.128 1.36-.128h2.064c0-.416-.064-.779-.192-1.088a1.486 1.486 0 00-.608-.736c-.267-.181-.624-.272-1.072-.272-.267 0-.523.032-.768.096a1.577 1.577 0 00-.608.272.968.968 0 00-.352.512h-1.728c.064-.405.208-.752.432-1.04.224-.299.501-.544.832-.736.33-.192.682-.33 1.056-.416a4.796 4.796 0 011.168-.144c.81 0 1.466.16 1.968.48.512.32.885.779 1.12 1.376.234.597.352 1.307.352 2.128V50h-1.424l-.064-1.04c-.246.31-.528.55-.848.72a3.18 3.18 0 01-.976.32 5.386 5.386 0 01-.992.096zm.288-1.392c.49 0 .917-.08 1.28-.24.362-.17.64-.41.832-.72.202-.32.304-.699.304-1.136v-.336h-1.504c-.31 0-.614.01-.912.032-.299.01-.571.053-.816.128a1.098 1.098 0 00-.56.336c-.139.16-.208.39-.208.688 0 .288.074.523.224.704.149.181.346.32.592.416.245.085.501.128.768.128zm9.68 3.808v-3.968c.299 0 .539-.08.72-.24.181-.16.325-.368.432-.624.107-.256.187-.539.24-.848.064-.32.117-.63.16-.928.053-.48.085-.965.096-1.456.021-.501.032-.917.032-1.248.011-.267.016-.533.016-.8v-.832h6.256v6.976h1.088v3.968h-1.616V50h-5.808v2.512h-1.616zm2.464-3.968h3.824V43.04h-3.072c0 .416-.005.875-.016 1.376-.011.501-.032.976-.064 1.424-.021.256-.048.544-.08.864a6.1 6.1 0 01-.176.96c-.085.32-.224.613-.416.88zM567.11 50v-8.432h1.648v5.968c.074-.128.17-.267.288-.416.117-.16.208-.288.272-.384l3.856-5.168h1.536V50h-1.648v-5.936a9.84 9.84 0 01-.272.416c-.096.128-.187.245-.272.352L568.662 50h-1.552zm12.809.096c-.427 0-.848-.037-1.264-.112a4.354 4.354 0 01-1.168-.416 2.499 2.499 0 01-.864-.768c-.224-.32-.352-.725-.384-1.216h1.616c.043.267.181.48.416.64.235.16.501.277.8.352.299.064.576.096.832.096.277 0 .56-.027.848-.08.288-.064.528-.181.72-.352.203-.181.304-.437.304-.768 0-.299-.075-.523-.224-.672a1.164 1.164 0 00-.592-.304 3.846 3.846 0 00-.816-.08h-1.488v-1.344h1.2c.203 0 .4-.016.592-.048.192-.043.363-.101.512-.176a1.07 1.07 0 00.384-.336c.096-.15.144-.336.144-.56 0-.267-.08-.475-.24-.624a1.203 1.203 0 00-.592-.336 2.965 2.965 0 00-.752-.096 4.02 4.02 0 00-.784.08 1.617 1.617 0 00-.688.304.947.947 0 00-.352.624h-1.6c.043-.619.235-1.104.576-1.456a2.902 2.902 0 011.296-.768 5.464 5.464 0 011.536-.224c.384 0 .763.037 1.136.112.373.075.715.203 1.024.384.32.17.571.405.752.704.181.299.272.667.272 1.104 0 .363-.085.693-.256.992-.16.288-.416.523-.768.704.501.17.853.437 1.056.8.203.352.304.768.304 1.248 0 .47-.101.87-.304 1.2-.203.32-.469.587-.8.8a3.735 3.735 0 01-1.12.448 5.601 5.601 0 01-1.264.144zm7.768 0c-.373 0-.736-.048-1.088-.144a3.126 3.126 0 01-.944-.464 2.513 2.513 0 01-.672-.784c-.16-.32-.24-.693-.24-1.12 0-.512.096-.933.288-1.264.203-.341.47-.603.8-.784a3.43 3.43 0 011.136-.4 7.097 7.097 0 011.36-.128h2.064c0-.416-.064-.779-.192-1.088a1.48 1.48 0 00-.608-.736c-.266-.181-.624-.272-1.072-.272-.266 0-.522.032-.768.096a1.59 1.59 0 00-.608.272.974.974 0 00-.352.512h-1.728c.064-.405.208-.752.432-1.04.224-.299.502-.544.832-.736.331-.192.683-.33 1.056-.416a4.802 4.802 0 011.168-.144c.811 0 1.467.16 1.968.48.512.32.886.779 1.12 1.376.235.597.352 1.307.352 2.128V50h-1.424l-.064-1.04c-.245.31-.528.55-.848.72a3.17 3.17 0 01-.976.32 5.377 5.377 0 01-.992.096zm.288-1.392c.491 0 .918-.08 1.28-.24.363-.17.64-.41.832-.72.203-.32.304-.699.304-1.136v-.336h-1.504c-.309 0-.613.01-.912.032a3.2 3.2 0 00-.816.128 1.107 1.107 0 00-.56.336c-.138.16-.208.39-.208.688 0 .288.075.523.224.704.15.181.347.32.592.416.246.085.502.128.768.128zM593.969 50v-8.432h1.648v5.968a3.77 3.77 0 01.288-.416c.117-.16.208-.288.272-.384l3.856-5.168h1.536V50h-1.648v-5.936a8.945 8.945 0 01-.272.416c-.096.128-.187.245-.272.352L595.521 50h-1.552zm3.92-9.456c-.875 0-1.563-.192-2.064-.576-.491-.395-.741-.976-.752-1.744h1.44c.021.384.155.661.4.832.245.17.576.256.992.256.416 0 .747-.085.992-.256.245-.17.379-.448.4-.832h1.44c0 .501-.117.928-.352 1.28a2.223 2.223 0 01-.992.784c-.416.17-.917.256-1.504.256zM603.578 50v-8.432h1.648v3.552h3.888v-3.552h1.648V50h-1.648v-3.424h-3.888V50h-1.648zm11.859.096c-.373 0-.736-.048-1.088-.144a3.126 3.126 0 01-.944-.464 2.513 2.513 0 01-.672-.784c-.16-.32-.24-.693-.24-1.12 0-.512.096-.933.288-1.264.203-.341.47-.603.8-.784a3.43 3.43 0 011.136-.4 7.097 7.097 0 011.36-.128h2.064c0-.416-.064-.779-.192-1.088a1.48 1.48 0 00-.608-.736c-.266-.181-.624-.272-1.072-.272-.266 0-.522.032-.768.096a1.59 1.59 0 00-.608.272.974.974 0 00-.352.512h-1.728c.064-.405.208-.752.432-1.04.224-.299.502-.544.832-.736.331-.192.683-.33 1.056-.416a4.802 4.802 0 011.168-.144c.811 0 1.467.16 1.968.48.512.32.886.779 1.12 1.376.235.597.352 1.307.352 2.128V50h-1.424l-.064-1.04c-.245.31-.528.55-.848.72a3.17 3.17 0 01-.976.32 5.377 5.377 0 01-.992.096zm.288-1.392c.491 0 .918-.08 1.28-.24.363-.17.64-.41.832-.72.203-.32.304-.699.304-1.136v-.336h-1.504c-.309 0-.613.01-.912.032a3.2 3.2 0 00-.816.128 1.107 1.107 0 00-.56.336c-.138.16-.208.39-.208.688 0 .288.075.523.224.704.15.181.347.32.592.416.246.085.502.128.768.128zM1004.93 26h-1.85v-9.648h-5.474V26h-1.856V14.688h9.18V26zm4.14 3.28h-1.83V17.568h1.73l.1 1.2a2.95 2.95 0 011.2-.992 3.63 3.63 0 011.56-.352c.58 0 1.1.107 1.56.32.45.203.84.49 1.16.864.33.373.58.827.74 1.36.17.523.26 1.12.26 1.792 0 .63-.08 1.21-.24 1.744-.16.533-.4.997-.72 1.392-.31.384-.7.683-1.17.896-.46.213-1.02.32-1.68.32-.51 0-1-.08-1.47-.24-.46-.17-.86-.448-1.2-.832v4.24zm2.38-4.752c.39 0 .74-.07 1.02-.208.29-.15.53-.347.71-.592.19-.245.33-.533.41-.864.1-.33.15-.688.15-1.072 0-.384-.05-.741-.15-1.072a2.264 2.264 0 00-.41-.88 1.82 1.82 0 00-.72-.576c-.29-.139-.64-.208-1.04-.208-.36 0-.7.075-1.01.224-.3.15-.55.347-.75.592-.2.245-.36.539-.47.88-.09.33-.14.672-.14 1.024 0 .384.05.747.14 1.088.1.33.24.619.44.864.2.235.45.427.75.576.3.15.65.224 1.07.224zm9.49-7.104c.67 0 1.26.107 1.78.32.51.213.94.512 1.29.896.36.373.64.827.82 1.36.18.533.27 1.125.27 1.776 0 .661-.09 1.259-.27 1.792-.17.523-.43.976-.79 1.36a3.43 3.43 0 01-1.31.88c-.51.203-1.11.304-1.79.304-.67 0-1.26-.101-1.78-.304a3.696 3.696 0 01-1.29-.88 4.14 4.14 0 01-.79-1.376c-.17-.533-.25-1.125-.25-1.776 0-.65.08-1.243.25-1.776.19-.533.45-.987.8-1.36a3.72 3.72 0 011.3-.896c.51-.213 1.1-.32 1.76-.32zm0 7.104c.42 0 .77-.07 1.06-.208.29-.15.53-.347.72-.592.19-.245.33-.533.41-.864.1-.33.15-.688.15-1.072 0-.384-.05-.741-.15-1.072a2.264 2.264 0 00-.41-.88 1.972 1.972 0 00-.72-.576c-.29-.139-.64-.208-1.06-.208-.38 0-.73.07-1.04.208-.3.139-.54.33-.74.576-.18.245-.32.539-.41.88-.09.33-.13.688-.13 1.072 0 .384.04.741.13 1.072.09.33.23.619.41.864.2.245.44.443.72.592.3.139.65.208 1.06.208zm5.82 1.472v-8.432h6.09v1.584h-4.27V26h-1.82zm9.2 3.28h-1.83V17.568h1.73l.1 1.2a2.95 2.95 0 011.2-.992 3.63 3.63 0 011.56-.352c.58 0 1.1.107 1.56.32.46.203.84.49 1.16.864.34.373.58.827.74 1.36.17.523.26 1.12.26 1.792 0 .63-.08 1.21-.24 1.744-.16.533-.4.997-.72 1.392-.31.384-.7.683-1.17.896-.46.213-1.02.32-1.68.32-.51 0-1-.08-1.47-.24-.46-.17-.86-.448-1.2-.832v4.24zm2.38-4.752c.4 0 .74-.07 1.02-.208.29-.15.53-.347.71-.592.19-.245.33-.533.41-.864.1-.33.15-.688.15-1.072 0-.384-.05-.741-.15-1.072a2.264 2.264 0 00-.41-.88 1.82 1.82 0 00-.72-.576c-.29-.139-.64-.208-1.04-.208-.36 0-.7.075-1.01.224-.3.15-.55.347-.75.592-.2.245-.36.539-.47.88-.09.33-.14.672-.14 1.024 0 .384.05.747.14 1.088.1.33.24.619.44.864.2.235.45.427.75.576.3.15.65.224 1.07.224zm11.14.432a2.52 2.52 0 01-1.11.88c-.45.181-.97.272-1.53.272-.45 0-.86-.053-1.23-.16a2.766 2.766 0 01-.96-.48c-.28-.224-.5-.496-.66-.816-.16-.33-.24-.704-.24-1.12 0-.459.09-.848.27-1.168.18-.33.43-.597.74-.8a3.48 3.48 0 011.12-.448c.43-.107.87-.16 1.34-.16h2.16c0-.619-.14-1.099-.41-1.44-.28-.341-.77-.517-1.46-.528-.4 0-.76.07-1.06.208-.28.139-.48.368-.57.688h-1.87c.06-.448.2-.827.43-1.136.23-.31.51-.565.83-.768a3.42 3.42 0 011.09-.432c.4-.085.81-.128 1.21-.128.53 0 1.01.07 1.46.208.45.139.84.373 1.17.704.37.384.62.843.75 1.376.13.533.19 1.115.19 1.744V26h-1.58l-.08-1.04zm-.1-2.704h-1.76c-.31 0-.62.027-.93.08-.3.043-.57.155-.8.336-.21.17-.32.421-.32.752 0 .405.15.715.44.928.3.203.66.304 1.08.304.34 0 .64-.043.92-.128s.53-.224.73-.416c.21-.203.36-.453.47-.752.11-.31.17-.677.17-1.104zm3.72-4.688h2.19l2.55 4.016 2.53-4.016h2.14V26h-1.79v-6.048l-2.67 4.16h-.44l-2.72-4.16V26h-1.79v-8.432zm11.41 0h2.19l2.54 4.016 2.53-4.016h2.15V26h-1.8v-6.048l-2.67 4.16h-.43l-2.72-4.16V26h-1.79v-8.432zm13.1 8.432h-1.7v-8.432h1.83v5.792l4.29-5.792h1.64V26h-1.82v-5.68c-.01.021-1.42 1.915-4.24 5.68zm9.88 3.28h-1.83V17.568h1.73l.1 1.2a2.95 2.95 0 011.2-.992c.5-.235 1.02-.352 1.57-.352.57 0 1.09.107 1.55.32.46.203.85.49 1.17.864.33.373.57.827.73 1.36.17.523.26 1.12.26 1.792 0 .63-.08 1.21-.24 1.744-.16.533-.4.997-.72 1.392-.31.384-.7.683-1.17.896-.46.213-1.02.32-1.68.32-.51 0-1-.08-1.47-.24-.46-.17-.86-.448-1.2-.832v4.24zm2.38-4.752c.4 0 .74-.07 1.03-.208.28-.15.52-.347.7-.592.19-.245.33-.533.42-.864.09-.33.14-.688.14-1.072 0-.384-.05-.741-.14-1.072a2.43 2.43 0 00-.42-.88 1.82 1.82 0 00-.72-.576c-.29-.139-.63-.208-1.04-.208-.36 0-.7.075-1.01.224-.3.15-.55.347-.75.592-.2.245-.36.539-.46.88-.1.33-.15.672-.15 1.024 0 .384.05.747.15 1.088.09.33.24.619.43.864.2.235.45.427.75.576.3.15.66.224 1.07.224zm9.49-7.104c.67 0 1.27.107 1.78.32.51.213.94.512 1.29.896.37.373.64.827.82 1.36.18.533.27 1.125.27 1.776 0 .661-.09 1.259-.27 1.792a3.68 3.68 0 01-.78 1.36 3.47 3.47 0 01-1.32.88c-.51.203-1.11.304-1.79.304-.67 0-1.26-.101-1.77-.304a3.647 3.647 0 01-1.3-.88c-.34-.384-.6-.843-.78-1.376a5.825 5.825 0 01-.26-1.776c0-.65.09-1.243.26-1.776.18-.533.44-.987.8-1.36.35-.384.78-.683 1.29-.896.51-.213 1.1-.32 1.76-.32zm0 7.104c.42 0 .77-.07 1.06-.208.3-.15.54-.347.72-.592.19-.245.33-.533.41-.864.1-.33.15-.688.15-1.072 0-.384-.05-.741-.15-1.072a2.264 2.264 0 00-.41-.88 1.82 1.82 0 00-.72-.576c-.29-.139-.64-.208-1.06-.208-.38 0-.73.07-1.04.208-.3.139-.54.33-.73.576-.19.245-.32.539-.42.88-.09.33-.13.688-.13 1.072 0 .384.04.741.13 1.072.1.33.23.619.42.864.19.245.43.443.72.592.29.139.65.208 1.05.208zm5.82-6.96h3.6c.37 0 .75.021 1.14.064.38.032.73.123 1.04.272.32.15.57.368.76.656.21.277.31.656.32 1.136 0 .373-.08.72-.25 1.04-.17.32-.45.581-.82.784.51.139.89.384 1.12.736.25.341.37.752.37 1.232 0 .448-.09.837-.27 1.168-.18.32-.42.581-.72.784-.3.192-.65.336-1.04.432-.4.085-.81.128-1.25.128h-4v-8.432zm1.84 1.52v1.936h1.86c.26-.01.5-.048.7-.112.21-.064.38-.165.51-.304.14-.139.21-.336.21-.592 0-.224-.05-.395-.16-.512a.918.918 0 00-.37-.288 1.508 1.508 0 00-.51-.112c-.18-.01-.35-.016-.51-.016h-1.73zm1.86 5.376c.21 0 .42-.01.62-.032.21-.021.4-.07.56-.144.17-.085.31-.192.42-.32.1-.139.16-.32.16-.544 0-.405-.13-.677-.39-.816-.24-.139-.55-.208-.91-.208h-2.32v2.064h1.86zm10.71.496a2.52 2.52 0 01-1.11.88c-.45.181-.97.272-1.53.272-.45 0-.86-.053-1.23-.16a2.766 2.766 0 01-.96-.48c-.28-.224-.5-.496-.66-.816-.16-.33-.24-.704-.24-1.12 0-.459.09-.848.27-1.168.18-.33.43-.597.74-.8a3.48 3.48 0 011.12-.448c.42-.107.87-.16 1.34-.16h2.16c0-.619-.14-1.099-.41-1.44-.28-.341-.77-.517-1.46-.528-.41 0-.76.07-1.06.208-.28.139-.48.368-.57.688h-1.87c.06-.448.2-.827.43-1.136.23-.31.51-.565.83-.768a3.42 3.42 0 011.09-.432c.4-.085.81-.128 1.21-.128.53 0 1.01.07 1.46.208.45.139.84.373 1.17.704.37.384.62.843.75 1.376.13.533.19 1.115.19 1.744V26h-1.58l-.08-1.04zm-.1-2.704h-1.76c-.31 0-.62.027-.93.08a1.61 1.61 0 00-.8.336c-.21.17-.32.421-.32.752 0 .405.15.715.44.928.29.203.66.304 1.08.304.33 0 .64-.043.92-.128s.53-.224.73-.416c.2-.203.36-.453.47-.752.11-.31.17-.677.17-1.104zm3.72 3.744v-8.432h1.82v3.472h3.75v-3.472h1.82V26h-1.82v-3.376h-3.75V26h-1.82zm11.07 0h-1.69v-8.432h1.82v5.792l4.29-5.792h1.65V26h-1.83v-5.68c-.01.021-1.42 1.915-4.24 5.68zm9.56-3.6a3 3 0 00.19.864c.11.267.25.501.43.704.19.192.41.347.68.464.27.117.59.176.96.176.38 0 .73-.07 1.05-.208.33-.139.57-.379.72-.72h1.87c-.1.427-.28.795-.52 1.104-.24.31-.52.565-.85.768-.32.192-.68.336-1.07.432-.39.085-.8.128-1.24.128-.67 0-1.26-.101-1.77-.304-.5-.203-.92-.496-1.27-.88a3.784 3.784 0 01-.76-1.36 6.227 6.227 0 01-.24-1.792c0-.64.09-1.221.27-1.744.18-.533.44-.992.78-1.376.35-.384.78-.683 1.27-.896.49-.224 1.05-.336 1.68-.336.66 0 1.23.112 1.71.336.48.213.88.507 1.2.88.33.373.57.81.73 1.312.16.501.24 1.045.24 1.632 0 .277-.01.55-.04.816h-6.02zm4.29-1.376c-.03-.661-.24-1.163-.63-1.504-.37-.341-.86-.512-1.47-.512-.34 0-.64.053-.89.16-.26.107-.48.25-.66.432-.17.181-.31.395-.42.64-.1.245-.17.507-.2.784h4.27zm-101 24.96c.05-.725.08-1.445.09-2.16.02-.725.05-1.477.07-2.256h6.3V50h-1.84v-6.848h-2.77l-.06 1.568c-.01.512-.03 1.024-.06 1.536-.02.192-.04.421-.07.688-.02.256-.05.517-.09.784-.05.256-.11.501-.2.736-.08.224-.19.432-.32.624-.22.32-.52.555-.89.704a3.59 3.59 0 01-1.27.208h-.44v-1.568c.32 0 .57-.075.76-.224.21-.16.36-.357.45-.592.11-.245.18-.507.23-.784.05-.288.09-.57.11-.848zm12.24-4.56c.67 0 1.26.107 1.78.32.51.213.94.512 1.29.896.36.373.64.827.82 1.36.18.533.27 1.125.27 1.776 0 .661-.09 1.259-.27 1.792-.17.523-.43.976-.79 1.36a3.43 3.43 0 01-1.31.88c-.51.203-1.11.304-1.79.304-.67 0-1.26-.101-1.78-.304a3.696 3.696 0 01-1.29-.88 4.14 4.14 0 01-.79-1.376c-.17-.533-.25-1.125-.25-1.776 0-.65.08-1.243.25-1.776.19-.533.45-.987.8-1.36a3.72 3.72 0 011.3-.896c.51-.213 1.1-.32 1.76-.32zm0 7.104c.42 0 .77-.07 1.06-.208.29-.15.53-.347.72-.592.19-.245.33-.533.41-.864.1-.33.15-.688.15-1.072 0-.384-.05-.741-.15-1.072a2.264 2.264 0 00-.41-.88 1.972 1.972 0 00-.72-.576c-.29-.139-.64-.208-1.06-.208-.38 0-.73.07-1.04.208-.3.139-.54.33-.74.576-.18.245-.32.539-.41.88-.09.33-.13.688-.13 1.072 0 .384.04.741.13 1.072.09.33.23.619.41.864.2.245.44.443.72.592.3.139.65.208 1.06.208zm5.82 1.472v-8.432h6.09v1.584h-4.27V50h-1.82zm9.07 0h-1.7v-8.432h1.83v5.792l4.28-5.792h1.65V50h-1.82v-5.68c-.01.021-1.43 1.915-4.24 5.68zm8.05 0v-8.432h1.81v3.44h1.3l2.16-3.44h2.08l-2.68 4.016 2.88 4.416h-2.11l-2.22-3.408h-1.41V50h-1.81zm10.28 0h-1.7v-8.432h1.82v5.792l4.29-5.792h1.65V50h-1.82v-5.68c-.01.021-1.43 1.915-4.24 5.68zM727.718 314v-11.312h4.496c.48 0 .939.043 1.376.128.448.085.837.235 1.168.448.341.213.613.501.816.864.203.363.304.827.304 1.392 0 .544-.112 1.029-.336 1.456-.224.427-.592.763-1.104 1.008.693.171 1.2.496 1.52.976.32.469.48 1.045.48 1.728 0 .715-.144 1.291-.432 1.728a2.987 2.987 0 01-1.104.992 4.761 4.761 0 01-1.488.48c-.533.075-1.045.112-1.536.112h-4.16zm1.856-9.648v3.104h2.16c.267 0 .539-.021.816-.064.288-.043.544-.123.768-.24.224-.128.405-.293.544-.496.149-.213.224-.491.224-.832 0-.331-.059-.592-.176-.784a1.098 1.098 0 00-.464-.448 1.64 1.64 0 00-.672-.192 5.93 5.93 0 00-.768-.048h-2.432zm0 8h2.272c.288 0 .592-.016.912-.048a3.27 3.27 0 00.896-.24c.267-.128.485-.304.656-.528.181-.224.272-.528.272-.912 0-.32-.069-.581-.208-.784a1.237 1.237 0 00-.512-.48 2.215 2.215 0 00-.72-.24 4.722 4.722 0 00-.784-.064h-.704l-1.376.016h-.704v3.28zm10.431-9.984c.341 0 .618.107.832.32.224.203.336.475.336.816 0 .341-.112.613-.336.816-.214.203-.491.304-.832.304-.331 0-.603-.101-.816-.304-.214-.203-.32-.475-.32-.816 0-.341.106-.613.32-.816.213-.213.485-.32.816-.32zm3.76 0c.341 0 .618.107.832.32.213.203.32.475.32.816 0 .341-.107.613-.32.816-.214.203-.491.304-.832.304-.342 0-.619-.101-.832-.304-.203-.203-.304-.475-.304-.816 0-.341.101-.613.304-.816.213-.213.49-.32.832-.32zm-4.128 8.032c.021.309.085.597.192.864.106.267.25.501.432.704.192.192.421.347.688.464.277.117.597.176.96.176.384 0 .736-.069 1.056-.208.32-.139.554-.379.704-.72h1.872a2.877 2.877 0 01-.528 1.104 3.092 3.092 0 01-.848.768c-.32.192-.672.336-1.056.432a5.694 5.694 0 01-1.232.128c-.672 0-1.264-.101-1.776-.304a3.314 3.314 0 01-1.28-.88 3.768 3.768 0 01-.768-1.36 6.227 6.227 0 01-.24-1.792c0-.64.09-1.221.272-1.744a3.95 3.95 0 01.784-1.376 3.68 3.68 0 011.264-.896c.49-.224 1.056-.336 1.696-.336.661 0 1.226.112 1.696.336.48.213.88.507 1.2.88.33.373.576.811.736 1.312.16.501.24 1.045.24 1.632 0 .277-.016.549-.048.816h-6.016zm4.288-1.376c-.022-.64-.224-1.136-.608-1.488-.384-.352-.88-.528-1.488-.528-.342 0-.64.053-.896.16a2.014 2.014 0 00-.656.432 2.19 2.19 0 00-.416.64 2.732 2.732 0 00-.208.784h4.272zm5.25 8.256h-1.824v-11.712h1.728l.096 1.2a2.95 2.95 0 011.2-.992 3.654 3.654 0 011.568-.352 3.64 3.64 0 011.552.32c.459.203.848.491 1.168.864.331.373.576.827.736 1.36.171.523.256 1.12.256 1.792 0 .629-.08 1.211-.24 1.744-.16.533-.4.997-.72 1.392a3.135 3.135 0 01-1.168.896c-.458.213-1.018.32-1.68.32-.512 0-1.002-.08-1.472-.24a2.992 2.992 0 01-1.2-.832v4.24zm2.384-4.752c.395 0 .736-.069 1.024-.208.288-.149.523-.347.704-.592.192-.245.331-.533.416-.864.096-.331.144-.688.144-1.072 0-.384-.048-.741-.144-1.072a2.316 2.316 0 00-.416-.88 1.84 1.84 0 00-.72-.576c-.288-.139-.634-.208-1.04-.208-.362 0-.698.075-1.008.224a2.3 2.3 0 00-.752.592 2.583 2.583 0 00-.464.88 3.656 3.656 0 00-.144 1.024 4 4 0 00.144 1.088c.096.331.24.619.432.864.203.235.454.427.752.576.299.149.656.224 1.072.224zm9.567 1.584c-.672 0-1.264-.101-1.776-.304a3.59 3.59 0 01-1.264-.88 3.92 3.92 0 01-.752-1.36 6.105 6.105 0 01-.24-1.76c0-.64.085-1.227.256-1.76.181-.533.448-.992.8-1.376a3.838 3.838 0 011.28-.912c.501-.224 1.083-.336 1.744-.336.469 0 .901.053 1.296.16.405.096.763.261 1.072.496.309.224.576.512.8.864.224.341.379.757.464 1.248h-1.888a1.332 1.332 0 00-.624-.832c-.309-.203-.693-.304-1.152-.304-.405 0-.752.075-1.04.224a1.94 1.94 0 00-.704.608 2.645 2.645 0 00-.4.896 4.69 4.69 0 00-.112 1.04c0 .373.043.725.128 1.056.085.331.219.619.4.864.192.235.432.427.72.576.288.139.635.208 1.04.208.48 0 .875-.107 1.184-.32.32-.213.523-.496.608-.848h1.872c-.085.48-.245.896-.48 1.248-.224.352-.501.64-.832.864a3.588 3.588 0 01-1.104.496 5.607 5.607 0 01-1.296.144zm11.848-8.544v1.584h-2.848V314h-1.808v-6.848h-2.848v-1.584h7.504zm1.049 8.432v-8.432h1.808v3.44h1.296l2.16-3.44h2.08l-2.672 4.016 2.88 4.416h-2.112l-2.224-3.408h-1.408V314h-1.808zm13.862-1.04a2.492 2.492 0 01-1.104.88 4.155 4.155 0 01-1.536.272 4.46 4.46 0 01-1.232-.16 2.905 2.905 0 01-.96-.48 2.443 2.443 0 01-.656-.816 2.54 2.54 0 01-.24-1.12c0-.459.091-.848.272-1.168.181-.331.427-.597.736-.8.32-.203.693-.352 1.12-.448a5.51 5.51 0 011.344-.16h2.16c0-.619-.139-1.099-.416-1.44-.277-.341-.763-.517-1.456-.528-.405 0-.757.069-1.056.208-.288.139-.48.368-.576.688h-1.872c.064-.448.208-.827.432-1.136.235-.309.512-.565.832-.768a3.452 3.452 0 011.088-.432 5.911 5.911 0 011.216-.128 4.89 4.89 0 011.456.208 2.8 2.8 0 011.168.704c.373.384.624.843.752 1.376.128.533.192 1.115.192 1.744V314h-1.584l-.08-1.04zm-.096-2.704h-1.76c-.309 0-.619.027-.928.08a1.596 1.596 0 00-.8.336c-.213.171-.32.421-.32.752 0 .405.144.715.432.928.299.203.661.304 1.088.304.331 0 .635-.043.912-.128a1.79 1.79 0 00.736-.416c.203-.203.357-.453.464-.752.117-.309.176-.677.176-1.104zm9.727 3.744h-1.696v-8.432h1.824v5.792l4.288-5.792h1.648V314h-1.824v-5.68c-.011.021-1.424 1.915-4.24 5.68zm14.063 0h-1.696v-8.432h1.824v5.792l4.288-5.792h1.648V314h-1.824v-5.68c-.011.021-1.424 1.915-4.24 5.68zm8.054 0v-8.432h1.824v3.472h3.744v-3.472h1.824V314h-1.824v-3.376h-3.744V314h-1.824zm15.951-8.432v1.584h-2.848V314h-1.808v-6.848h-2.848v-1.584h7.504zm2.553 4.832c.021.309.085.597.192.864.106.267.25.501.432.704.181.192.405.347.672.464.277.117.597.176.96.176.384 0 .736-.069 1.056-.208.33-.139.57-.379.72-.72h1.872a2.877 2.877 0 01-.528 1.104 3.092 3.092 0 01-.848.768c-.32.192-.678.336-1.072.432a5.694 5.694 0 01-1.232.128c-.672 0-1.264-.101-1.776-.304a3.332 3.332 0 01-1.264-.88 3.768 3.768 0 01-.768-1.36 6.227 6.227 0 01-.24-1.792c0-.64.09-1.221.272-1.744a3.95 3.95 0 01.784-1.376 3.68 3.68 0 011.264-.896c.49-.224 1.05-.336 1.68-.336.661 0 1.232.112 1.712.336.48.213.88.507 1.2.88.33.373.576.811.736 1.312.16.501.24 1.045.24 1.632 0 .277-.016.549-.048.816h-6.016zm4.288-1.376c-.032-.661-.24-1.163-.624-1.504-.374-.341-.864-.512-1.472-.512-.342 0-.64.053-.896.16a2.014 2.014 0 00-.656.432 2.19 2.19 0 00-.416.64 2.732 2.732 0 00-.208.784h4.272zm3.426 4.976v-8.432h6.096v1.584h-4.272V314h-1.824zm9.199 3.28h-1.824v-11.712h1.728l.096 1.2a2.95 2.95 0 011.2-.992 3.654 3.654 0 011.568-.352 3.64 3.64 0 011.552.32c.459.203.848.491 1.168.864.331.373.576.827.736 1.36.171.523.256 1.12.256 1.792 0 .629-.08 1.211-.24 1.744-.16.533-.4.997-.72 1.392a3.135 3.135 0 01-1.168.896c-.458.213-1.018.32-1.68.32-.512 0-1.002-.08-1.472-.24a2.992 2.992 0 01-1.2-.832v4.24zm2.384-4.752c.395 0 .736-.069 1.024-.208.288-.149.523-.347.704-.592.192-.245.331-.533.416-.864.096-.331.144-.688.144-1.072 0-.384-.048-.741-.144-1.072a2.316 2.316 0 00-.416-.88 1.84 1.84 0 00-.72-.576c-.288-.139-.634-.208-1.04-.208-.362 0-.698.075-1.008.224a2.3 2.3 0 00-.752.592 2.583 2.583 0 00-.464.88 3.656 3.656 0 00-.144 1.024 4 4 0 00.144 1.088c.096.331.24.619.432.864.203.235.454.427.752.576.299.149.656.224 1.072.224zm11.139.432a2.503 2.503 0 01-1.104.88 4.155 4.155 0 01-1.536.272 4.46 4.46 0 01-1.232-.16 2.905 2.905 0 01-.96-.48 2.43 2.43 0 01-.656-.816 2.54 2.54 0 01-.24-1.12c0-.459.09-.848.272-1.168.181-.331.426-.597.736-.8.32-.203.693-.352 1.12-.448.426-.107.874-.16 1.344-.16h2.16c0-.619-.139-1.099-.416-1.44-.278-.341-.763-.517-1.456-.528-.406 0-.758.069-1.056.208-.288.139-.48.368-.576.688h-1.872c.064-.448.208-.827.432-1.136.234-.309.512-.565.832-.768.33-.203.693-.347 1.088-.432.405-.085.81-.128 1.216-.128.522 0 1.008.069 1.456.208a2.8 2.8 0 011.168.704c.373.384.624.843.752 1.376.128.533.192 1.115.192 1.744V314h-1.584l-.08-1.04zm-.096-2.704h-1.76c-.31 0-.619.027-.928.08-.31.043-.576.155-.8.336-.214.171-.32.421-.32.752 0 .405.144.715.432.928.298.203.661.304 1.088.304.33 0 .634-.043.912-.128a1.79 1.79 0 00.736-.416c.202-.203.357-.453.464-.752.117-.309.176-.677.176-1.104zm9.206 2.192v-6.88h1.824v6.88h1.136v4.016h-1.792V314h-6.656v-8.432h1.808v6.88h3.68zM883.61 314h-1.696v-8.432h1.824v5.792l4.288-5.792h1.648V314h-1.824v-5.68c-.011.021-1.424 1.915-4.24 5.68zm14.966 0h-1.808v-2.88h-1.52L893.28 314h-2.144l2.288-3.168c-.651-.16-1.147-.453-1.488-.88-.331-.427-.496-.971-.496-1.632 0-.523.085-.96.256-1.312.181-.352.427-.635.736-.848.32-.224.683-.379 1.088-.464a6.39 6.39 0 011.312-.128h3.744V314zm-1.808-6.912h-1.808c-.203 0-.405.016-.608.048a1.43 1.43 0 00-.56.176.976.976 0 00-.384.368 1.1 1.1 0 00-.144.576v.08c0 .277.08.512.24.704.16.192.368.331.624.416.256.075.491.123.704.144.213.011.427.016.64.016h1.296v-2.528zM782.305 338v-8.432h7.392V338h-1.824v-6.848h-3.744V338h-1.824zm11.199 3.28h-1.824v-11.712h1.728l.096 1.2a2.937 2.937 0 011.2-.992 3.65 3.65 0 011.568-.352c.576 0 1.093.107 1.552.32.458.203.848.491 1.168.864.33.373.576.827.735 1.36.171.523.257 1.12.257 1.792 0 .629-.08 1.211-.24 1.744-.16.533-.4.997-.72 1.392a3.15 3.15 0 01-1.168.896c-.459.213-1.019.32-1.68.32-.512 0-1.003-.08-1.472-.24a2.979 2.979 0 01-1.2-.832v4.24zm2.384-4.752c.394 0 .736-.069 1.024-.208.288-.149.522-.347.704-.592.192-.245.33-.533.416-.864.096-.331.144-.688.144-1.072 0-.384-.048-.741-.144-1.072a2.331 2.331 0 00-.416-.88 1.854 1.854 0 00-.72-.576c-.288-.139-.635-.208-1.04-.208a2.29 2.29 0 00-1.008.224 2.28 2.28 0 00-.752.592 2.549 2.549 0 00-.464.88 3.656 3.656 0 00-.144 1.024 4 4 0 00.144 1.088c.096.331.24.619.432.864.202.235.453.427.752.576.298.149.656.224 1.072.224zm9.49-7.104c.672 0 1.264.107 1.776.32.512.213.944.512 1.296.896.362.373.634.827.816 1.36.181.533.272 1.125.272 1.776 0 .661-.091 1.259-.272 1.792a3.673 3.673 0 01-.784 1.36 3.44 3.44 0 01-1.312.88c-.512.203-1.11.304-1.792.304-.672 0-1.264-.101-1.776-.304a3.72 3.72 0 01-1.296-.88 3.95 3.95 0 01-.784-1.376 5.794 5.794 0 01-.256-1.776c0-.651.085-1.243.256-1.776a3.672 3.672 0 012.096-2.256c.512-.213 1.098-.32 1.76-.32zm0 7.104c.416 0 .768-.069 1.056-.208.298-.149.538-.347.72-.592.192-.245.33-.533.416-.864.096-.331.144-.688.144-1.072 0-.384-.048-.741-.144-1.072a2.331 2.331 0 00-.416-.88 1.854 1.854 0 00-.72-.576c-.288-.139-.64-.208-1.056-.208-.384 0-.731.069-1.04.208a1.976 1.976 0 00-.736.576c-.182.245-.32.539-.416.88a4.251 4.251 0 00-.128 1.072c0 .384.042.741.128 1.072.096.331.234.619.416.864.192.245.432.443.72.592.298.139.65.208 1.056.208zm7.321-2.128c.021.309.085.597.192.864s.251.501.432.704c.181.192.405.347.672.464.277.117.597.176.96.176.384 0 .736-.069 1.056-.208.331-.139.571-.379.72-.72h1.872a2.877 2.877 0 01-.528 1.104 3.078 3.078 0 01-.848.768c-.32.192-.677.336-1.072.432a5.694 5.694 0 01-1.232.128c-.672 0-1.264-.101-1.776-.304a3.34 3.34 0 01-1.264-.88 3.797 3.797 0 01-.768-1.36 6.227 6.227 0 01-.24-1.792c0-.64.091-1.221.272-1.744.181-.533.443-.992.784-1.376a3.68 3.68 0 011.264-.896c.491-.224 1.051-.336 1.68-.336.661 0 1.232.112 1.712.336.48.213.88.507 1.2.88.331.373.576.811.736 1.312.16.501.24 1.045.24 1.632 0 .277-.016.549-.048.816h-6.016zm4.288-1.376c-.032-.661-.24-1.163-.624-1.504-.373-.341-.864-.512-1.472-.512-.341 0-.64.053-.896.16a2.014 2.014 0 00-.656.432 2.21 2.21 0 00-.416.64 2.732 2.732 0 00-.208.784h4.272zm3.427 4.976v-8.432h1.808v3.44h1.296l2.16-3.44h2.08l-2.672 4.016 2.88 4.416h-2.112l-2.224-3.408h-1.408V338h-1.808zm15.154-8.432v1.584h-2.848V338h-1.808v-6.848h-2.848v-1.584h7.504zm6.489 7.392a2.492 2.492 0 01-1.104.88 4.155 4.155 0 01-1.536.272 4.46 4.46 0 01-1.232-.16 2.905 2.905 0 01-.96-.48 2.443 2.443 0 01-.656-.816 2.54 2.54 0 01-.24-1.12c0-.459.091-.848.272-1.168.181-.331.427-.597.736-.8.32-.203.693-.352 1.12-.448a5.51 5.51 0 011.344-.16h2.16c0-.619-.139-1.099-.416-1.44-.277-.341-.763-.517-1.456-.528-.405 0-.757.069-1.056.208-.288.139-.48.368-.576.688h-1.872c.064-.448.208-.827.432-1.136.235-.309.512-.565.832-.768a3.452 3.452 0 011.088-.432 5.911 5.911 0 011.216-.128 4.89 4.89 0 011.456.208 2.8 2.8 0 011.168.704c.373.384.624.843.752 1.376.128.533.192 1.115.192 1.744V338h-1.584l-.08-1.04zm-.096-2.704h-1.76c-.309 0-.619.027-.928.08a1.596 1.596 0 00-.8.336c-.213.171-.32.421-.32.752 0 .405.144.715.432.928.299.203.661.304 1.088.304.331 0 .635-.043.912-.128a1.79 1.79 0 00.736-.416c.203-.203.357-.453.464-.752.117-.309.176-.677.176-1.104zM1164.6 314h-1.86v-9.648h-3.6v-1.664h9.04v1.664h-3.58V314zm5.43-3.6c.02.309.08.597.19.864s.25.501.43.704c.18.192.41.347.67.464.28.117.6.176.96.176.39 0 .74-.069 1.06-.208.33-.139.57-.379.72-.72h1.87c-.11.427-.28.795-.53 1.104a2.99 2.99 0 01-.84.768c-.32.192-.68.336-1.08.432-.38.085-.79.128-1.23.128-.67 0-1.26-.101-1.77-.304a3.285 3.285 0 01-1.27-.88c-.34-.384-.6-.837-.77-1.36a6.227 6.227 0 01-.24-1.792c0-.64.09-1.221.28-1.744.18-.533.44-.992.78-1.376.35-.384.77-.683 1.26-.896.49-.224 1.05-.336 1.68-.336.66 0 1.24.112 1.72.336.48.213.88.507 1.2.88.33.373.57.811.73 1.312.16.501.24 1.045.24 1.632 0 .277-.01.549-.05.816h-6.01zm4.29-1.376c-.04-.661-.24-1.163-.63-1.504-.37-.341-.86-.512-1.47-.512-.34 0-.64.053-.9.16-.25.107-.47.251-.65.432-.17.181-.31.395-.42.64-.11.245-.17.507-.21.784h4.28zm7.13 5.088c-.67 0-1.26-.101-1.77-.304-.5-.213-.92-.507-1.27-.88a3.917 3.917 0 01-.75-1.36 6.105 6.105 0 01-.24-1.76c0-.64.09-1.227.26-1.76.18-.533.45-.992.8-1.376.35-.384.78-.688 1.28-.912.5-.224 1.08-.336 1.74-.336a5 5 0 011.3.16c.4.096.76.261 1.07.496.31.224.58.512.8.864.22.341.38.757.46 1.248h-1.88c-.1-.363-.31-.64-.63-.832-.31-.203-.69-.304-1.15-.304-.41 0-.75.075-1.04.224-.29.149-.52.352-.7.608a2.4 2.4 0 00-.4.896 4.478 4.478 0 00.01 2.096c.09.331.22.619.4.864.19.235.43.427.72.576.29.139.64.208 1.04.208.48 0 .88-.107 1.19-.32.32-.213.52-.496.6-.848h1.88c-.09.48-.25.896-.48 1.248-.23.352-.51.64-.84.864-.33.224-.69.389-1.1.496-.41.096-.84.144-1.3.144zm11.85-8.544v1.584h-2.85V314h-1.8v-6.848h-2.85v-1.584h7.5zm2.75 8.432h-1.7v-8.432h1.83v5.792l4.28-5.792h1.65V314h-1.82v-5.68c-.01.021-1.43 1.915-4.24 5.68zm9.88 3.28h-1.83v-11.712h1.73l.1 1.2c.3-.437.7-.768 1.2-.992.5-.235 1.02-.352 1.56-.352.58 0 1.1.107 1.56.32.45.203.84.491 1.16.864.33.373.58.827.74 1.36.17.523.26 1.12.26 1.792 0 .629-.08 1.211-.24 1.744-.16.533-.4.997-.72 1.392-.31.384-.7.683-1.17.896-.46.213-1.02.32-1.68.32-.51 0-1.01-.08-1.47-.24a2.965 2.965 0 01-1.2-.832v4.24zm2.38-4.752c.39 0 .74-.069 1.02-.208.29-.149.53-.347.71-.592.19-.245.33-.533.41-.864.1-.331.15-.688.15-1.072 0-.384-.05-.741-.15-1.072a2.264 2.264 0 00-.41-.88 1.825 1.825 0 00-.72-.576c-.29-.139-.64-.208-1.04-.208-.37 0-.7.075-1.01.224-.3.149-.55.347-.75.592a2.51 2.51 0 00-.47.88c-.09.331-.14.672-.14 1.024 0 .384.05.747.14 1.088.1.331.24.619.44.864.2.235.45.427.75.576.3.149.65.224 1.07.224zm9.49-7.104c.67 0 1.26.107 1.78.32.51.213.94.512 1.29.896.36.373.64.827.82 1.36.18.533.27 1.125.27 1.776 0 .661-.09 1.259-.27 1.792-.17.523-.43.976-.79 1.36-.35.384-.79.677-1.31.88-.51.203-1.11.304-1.79.304-.67 0-1.26-.101-1.78-.304a3.696 3.696 0 01-1.29-.88 3.979 3.979 0 01-.79-1.376c-.17-.533-.25-1.125-.25-1.776s.08-1.243.25-1.776c.18-.533.45-.987.8-1.36a3.72 3.72 0 011.3-.896c.51-.213 1.1-.32 1.76-.32zm0 7.104c.42 0 .77-.069 1.06-.208.29-.149.53-.347.72-.592.19-.245.33-.533.41-.864.1-.331.15-.688.15-1.072 0-.384-.05-.741-.15-1.072a2.264 2.264 0 00-.41-.88 1.978 1.978 0 00-.72-.576c-.29-.139-.64-.208-1.06-.208-.38 0-.73.069-1.04.208-.3.139-.54.331-.74.576-.18.245-.32.539-.41.88-.09.331-.13.688-.13 1.072 0 .384.04.741.13 1.072.09.331.23.619.41.864.2.245.44.443.72.592.3.139.65.208 1.06.208zm5.82-6.96h3.6c.37 0 .75.021 1.13.064.39.032.73.123 1.04.272.32.149.58.368.77.656.2.277.31.656.32 1.136 0 .373-.08.72-.25 1.04-.18.32-.45.581-.82.784.51.139.88.384 1.12.736.24.341.37.752.37 1.232 0 .448-.09.837-.28 1.168-.18.32-.42.581-.71.784-.3.192-.65.336-1.04.432-.4.085-.82.128-1.25.128h-4v-8.432zm1.84 1.52v1.936h1.85c.27-.011.5-.048.71-.112.21-.064.38-.165.51-.304.14-.139.21-.336.21-.592 0-.224-.06-.395-.16-.512a.918.918 0 00-.37-.288 1.515 1.515 0 00-.51-.112 8.365 8.365 0 00-.51-.016h-1.73zm1.85 5.376c.22 0 .42-.011.63-.032.21-.021.4-.069.56-.144.17-.085.31-.192.41-.32.11-.139.16-.32.16-.544 0-.405-.12-.677-.38-.816-.25-.139-.55-.208-.91-.208h-2.32v2.064h1.85zm10.72.496a2.52 2.52 0 01-1.11.88c-.46.181-.97.272-1.53.272-.45 0-.86-.053-1.24-.16a2.964 2.964 0 01-.96-.48 2.515 2.515 0 01-.65-.816 2.54 2.54 0 01-.24-1.12c0-.459.09-.848.27-1.168.18-.331.43-.597.74-.8a3.48 3.48 0 011.12-.448c.42-.107.87-.16 1.34-.16h2.16c0-.619-.14-1.099-.42-1.44-.27-.341-.76-.517-1.45-.528-.41 0-.76.069-1.06.208-.29.139-.48.368-.57.688h-1.88c.07-.448.21-.827.44-1.136.23-.309.51-.565.83-.768.33-.203.69-.347 1.09-.432.4-.085.81-.128 1.21-.128.52 0 1.01.069 1.46.208.45.139.84.373 1.17.704.37.384.62.843.75 1.376.13.533.19 1.115.19 1.744V314h-1.58l-.08-1.04zm-.1-2.704h-1.76c-.31 0-.62.027-.93.08-.31.043-.57.155-.8.336-.21.171-.32.421-.32.752 0 .405.15.715.43.928.3.203.67.304 1.09.304.33 0 .64-.043.91-.128.29-.085.54-.224.74-.416.2-.203.36-.453.46-.752.12-.309.18-.677.18-1.104zm3.72 3.744v-8.432h1.82v3.472h3.75v-3.472h1.82V314h-1.82v-3.376h-3.75V314h-1.82zm11.07 0h-1.7v-8.432h1.83v5.792l4.29-5.792h1.64V314h-1.82v-5.68c-.01.021-1.42 1.915-4.24 5.68zm9.56-3.6c.02.309.08.597.19.864s.25.501.43.704c.18.192.41.347.67.464.28.117.6.176.96.176.39 0 .74-.069 1.06-.208.33-.139.57-.379.72-.72h1.87c-.11.427-.28.795-.53 1.104a2.99 2.99 0 01-.84.768c-.32.192-.68.336-1.08.432-.38.085-.79.128-1.23.128-.67 0-1.26-.101-1.77-.304a3.285 3.285 0 01-1.27-.88c-.34-.384-.6-.837-.77-1.36a6.227 6.227 0 01-.24-1.792c0-.64.09-1.221.28-1.744.18-.533.44-.992.78-1.376.35-.384.77-.683 1.26-.896.49-.224 1.05-.336 1.68-.336.66 0 1.24.112 1.72.336.48.213.88.507 1.2.88.33.373.57.811.73 1.312.16.501.24 1.045.24 1.632 0 .277-.01.549-.05.816h-6.01zm4.29-1.376c-.04-.661-.24-1.163-.63-1.504-.37-.341-.86-.512-1.47-.512-.34 0-.64.053-.9.16-.25.107-.47.251-.65.432-.17.181-.31.395-.42.64-.11.245-.17.507-.21.784h4.28zM1276 314h-1.7v-8.432h1.83v5.792l4.29-5.792h1.64V314h-1.82v-5.68c-.01.021-1.42 1.915-4.24 5.68zm17.9-4.512c.45.149.78.395 1 .736.21.331.32.704.32 1.12v.064c0 .533-.11.976-.32 1.328-.22.352-.51.635-.87.848-.35.203-.73.341-1.15.416-.41.075-.82.112-1.25.112-.41 0-.84-.037-1.28-.112a3.927 3.927 0 01-1.18-.432 2.72 2.72 0 01-.88-.8c-.24-.331-.37-.747-.4-1.248h1.76c.04.213.13.389.27.528.15.139.32.251.51.336.19.085.4.144.61.176.21.032.41.048.59.048.19 0 .4-.011.63-.032.22-.032.42-.085.59-.16.18-.085.33-.197.45-.336a.947.947 0 00.17-.576c0-.405-.15-.677-.46-.816-.3-.139-.68-.208-1.14-.208h-1.41v-1.44h1.27c.39 0 .73-.08 1.01-.24.27-.16.41-.437.41-.832 0-.203-.05-.368-.16-.496a.926.926 0 00-.37-.32 1.453 1.453 0 00-.49-.144 2.777 2.777 0 00-1.04 0 1.89 1.89 0 00-.55.144c-.17.075-.31.176-.43.304a.818.818 0 00-.21.496h-1.74c.04-.501.18-.912.4-1.232.22-.331.5-.592.83-.784.33-.192.69-.325 1.09-.4.4-.075.8-.112 1.2-.112.39 0 .78.037 1.15.112.39.075.74.213 1.06.416.32.203.56.448.73.736.18.277.28.64.28 1.088 0 .405-.1.752-.29 1.04-.18.288-.42.512-.71.672zm8.38 3.472a2.52 2.52 0 01-1.11.88c-.46.181-.97.272-1.53.272-.45 0-.86-.053-1.24-.16a2.964 2.964 0 01-.96-.48 2.515 2.515 0 01-.65-.816 2.54 2.54 0 01-.24-1.12c0-.459.09-.848.27-1.168.18-.331.43-.597.74-.8a3.48 3.48 0 011.12-.448c.42-.107.87-.16 1.34-.16h2.16c0-.619-.14-1.099-.42-1.44-.27-.341-.76-.517-1.45-.528-.41 0-.76.069-1.06.208-.29.139-.48.368-.57.688h-1.88c.07-.448.21-.827.44-1.136.23-.309.51-.565.83-.768.33-.203.69-.347 1.09-.432.4-.085.81-.128 1.21-.128.52 0 1.01.069 1.46.208.45.139.84.373 1.17.704.37.384.62.843.75 1.376.13.533.19 1.115.19 1.744V314h-1.58l-.08-1.04zm-.1-2.704h-1.76c-.31 0-.62.027-.93.08-.31.043-.57.155-.8.336-.21.171-.32.421-.32.752 0 .405.15.715.43.928.3.203.67.304 1.09.304.33 0 .64-.043.91-.128.29-.085.54-.224.74-.416.2-.203.36-.453.46-.752.12-.309.18-.677.18-1.104zm3.72 3.744v-8.432h7.39V314h-1.82v-6.848h-3.75V314h-1.82zm15.42-8.432h2l-2.43 7.088c-.31.875-.59 1.648-.85 2.32-.24.672-.54 1.232-.88 1.68-.34.448-.76.784-1.26 1.008-.49.235-1.14.352-1.94.352h-.27v-1.632h.13c.32 0 .6-.037.85-.112.25-.075.48-.187.68-.336.21-.149.38-.347.53-.592.15-.235.29-.507.42-.816l-3.75-8.96h2.15l2.54 6.672 2.08-6.672zm6.82 8.544c-.67 0-1.26-.101-1.77-.304a3.526 3.526 0 01-1.27-.88 3.917 3.917 0 01-.75-1.36 6.105 6.105 0 01-.24-1.76c0-.64.08-1.227.26-1.76.18-.533.44-.992.8-1.376a3.73 3.73 0 011.28-.912c.5-.224 1.08-.336 1.74-.336a5 5 0 011.3.16c.4.096.76.261 1.07.496a3.198 3.198 0 011.26 2.112h-1.89c-.09-.363-.3-.64-.62-.832-.31-.203-.69-.304-1.15-.304-.41 0-.75.075-1.04.224-.29.149-.53.352-.71.608-.18.256-.31.555-.4.896-.07.331-.11.677-.11 1.04 0 .373.04.725.13 1.056.08.331.22.619.4.864.19.235.43.427.72.576.29.139.63.208 1.04.208.48 0 .87-.107 1.18-.32.32-.213.53-.496.61-.848h1.87c-.08.48-.24.896-.48 1.248-.22.352-.5.64-.83.864-.33.224-.7.389-1.1.496-.41.096-.84.144-1.3.144zm5.27-.112v-8.432h1.81v3.44h1.3l2.16-3.44h2.08l-2.67 4.016 2.88 4.416h-2.12l-2.22-3.408h-1.41V314h-1.81zm-142.46 24h-1.69v-8.432h1.82v5.792l4.29-5.792h1.65V338h-1.83v-5.68c-.01.021-1.42 1.915-4.24 5.68zm8.06 0v-8.432h1.82v3.472h3.75v-3.472h1.82V338h-1.82v-3.376h-3.75V338h-1.82zm15.95-8.432v1.584h-2.85V338h-1.81v-6.848h-2.85v-1.584h7.51zm2.55 4.832c.02.309.09.597.19.864.11.267.25.501.44.704.18.192.4.347.67.464.27.117.59.176.96.176.38 0 .73-.069 1.05-.208.33-.139.57-.379.72-.72h1.88a3 3 0 01-.53 1.104c-.24.309-.52.565-.85.768-.32.192-.68.336-1.07.432-.39.085-.8.128-1.23.128-.68 0-1.27-.101-1.78-.304-.5-.203-.92-.496-1.26-.88-.35-.384-.6-.837-.77-1.36a6.227 6.227 0 01-.24-1.792c0-.64.09-1.221.27-1.744.18-.533.44-.992.78-1.376.36-.384.78-.683 1.27-.896.49-.224 1.05-.336 1.68-.336.66 0 1.23.112 1.71.336.48.213.88.507 1.2.88.33.373.58.811.74 1.312.16.501.24 1.045.24 1.632 0 .277-.02.549-.05.816h-6.02zm4.29-1.376c-.03-.661-.24-1.163-.62-1.504-.38-.341-.87-.512-1.48-.512-.34 0-.64.053-.89.16a1.98 1.98 0 00-.66.432c-.17.181-.31.395-.41.64-.11.245-.18.507-.21.784h4.27zm5.25 8.256h-1.82v-11.712h1.72l.1 1.2a2.95 2.95 0 011.2-.992c.5-.235 1.02-.352 1.57-.352.57 0 1.09.107 1.55.32.46.203.85.491 1.17.864.33.373.57.827.73 1.36.18.523.26 1.12.26 1.792 0 .629-.08 1.211-.24 1.744-.16.533-.4.997-.72 1.392-.31.384-.7.683-1.17.896-.46.213-1.02.32-1.68.32-.51 0-1-.08-1.47-.24a2.965 2.965 0 01-1.2-.832v4.24zm2.38-4.752c.4 0 .74-.069 1.03-.208.29-.149.52-.347.7-.592.19-.245.33-.533.42-.864.09-.331.14-.688.14-1.072 0-.384-.05-.741-.14-1.072a2.43 2.43 0 00-.42-.88 1.825 1.825 0 00-.72-.576c-.29-.139-.63-.208-1.04-.208-.36 0-.7.075-1.01.224a2.46 2.46 0 00-.75.592c-.2.245-.35.539-.46.88-.1.331-.15.672-.15 1.024 0 .384.05.747.15 1.088.09.331.24.619.43.864.2.235.45.427.75.576.3.149.66.224 1.07.224zm5.7 1.472v-8.432h1.83v3.472h3.74v-3.472h1.82V338h-1.82v-3.376h-3.74V338h-1.83zm10.88-3.6c.02.309.09.597.19.864.11.267.25.501.44.704.18.192.4.347.67.464.27.117.59.176.96.176.38 0 .73-.069 1.05-.208.33-.139.57-.379.72-.72h1.88a3 3 0 01-.53 1.104c-.24.309-.52.565-.85.768-.32.192-.68.336-1.07.432-.39.085-.8.128-1.23.128-.68 0-1.27-.101-1.78-.304-.5-.203-.92-.496-1.26-.88-.35-.384-.6-.837-.77-1.36a6.227 6.227 0 01-.24-1.792c0-.64.09-1.221.27-1.744.18-.533.44-.992.78-1.376.36-.384.78-.683 1.27-.896.49-.224 1.05-.336 1.68-.336.66 0 1.23.112 1.71.336.48.213.88.507 1.2.88.33.373.58.811.74 1.312.16.501.24 1.045.24 1.632 0 .277-.02.549-.05.816h-6.02zm4.29-1.376c-.03-.661-.24-1.163-.62-1.504-.38-.341-.87-.512-1.48-.512-.34 0-.64.053-.89.16a1.98 1.98 0 00-.66.432c-.17.181-.31.395-.41.64-.11.245-.18.507-.21.784h4.27zm10-3.456v1.584h-2.85V338h-1.8v-6.848h-2.85v-1.584h7.5zm1.16 3.072h5.11v1.568h-5.11v-1.568zm7.2-3.072h2.2l2.54 4.016 2.53-4.016h2.14V338h-1.79v-6.048l-2.67 4.16h-.43l-2.72-4.16V338h-1.8v-8.432zm16.85 7.392c-.28.395-.65.688-1.1.88-.46.181-.97.272-1.54.272-.45 0-.86-.053-1.23-.16a2.964 2.964 0 01-.96-.48c-.28-.224-.5-.496-.66-.816a2.54 2.54 0 01-.24-1.12c0-.459.09-.848.27-1.168.19-.331.43-.597.74-.8a3.48 3.48 0 011.12-.448c.43-.107.87-.16 1.34-.16h2.16c0-.619-.13-1.099-.41-1.44-.28-.341-.76-.517-1.46-.528-.4 0-.76.069-1.05.208a1.08 1.08 0 00-.58.688h-1.87c.06-.448.21-.827.43-1.136.23-.309.51-.565.83-.768.33-.203.7-.347 1.09-.432a5.95 5.95 0 011.22-.128c.52 0 1 .069 1.45.208.45.139.84.373 1.17.704.37.384.62.843.75 1.376.13.533.19 1.115.19 1.744V338h-1.58l-.08-1.04zm-.1-2.704h-1.76c-.31 0-.61.027-.92.08-.31.043-.58.155-.8.336-.22.171-.32.421-.32.752 0 .405.14.715.43.928.3.203.66.304 1.09.304.33 0 .63-.043.91-.128.29-.085.53-.224.73-.416.21-.203.36-.453.47-.752.12-.309.17-.677.17-1.104zm3.72 3.744v-8.432h6.1v1.584h-4.27V338h-1.83zm12.58-1.04c-.27.395-.64.688-1.1.88-.46.181-.97.272-1.54.272-.44 0-.86-.053-1.23-.16a2.964 2.964 0 01-.96-.48 2.39 2.39 0 01-.65-.816 2.54 2.54 0 01-.24-1.12c0-.459.09-.848.27-1.168.18-.331.42-.597.73-.8.32-.203.7-.352 1.12-.448.43-.107.88-.16 1.35-.16h2.16c0-.619-.14-1.099-.42-1.44-.28-.341-.76-.517-1.45-.528-.41 0-.76.069-1.06.208a1.08 1.08 0 00-.58.688h-1.87c.07-.448.21-.827.43-1.136.24-.309.52-.565.84-.768.33-.203.69-.347 1.08-.432a5.95 5.95 0 011.22-.128c.52 0 1.01.069 1.46.208.44.139.83.373 1.16.704.38.384.63.843.76 1.376.12.533.19 1.115.19 1.744V338h-1.59l-.08-1.04zm-.09-2.704h-1.76c-.31 0-.62.027-.93.08-.31.043-.58.155-.8.336-.21.171-.32.421-.32.752 0 .405.14.715.43.928.3.203.66.304 1.09.304.33 0 .63-.043.91-.128.29-.085.53-.224.74-.416.2-.203.35-.453.46-.752.12-.309.18-.677.18-1.104zm9.25-.768c.45.149.78.395.99.736.22.331.32.704.32 1.12v.064c0 .533-.1.976-.32 1.328-.21.352-.5.635-.86.848-.35.203-.74.341-1.15.416-.41.075-.82.112-1.25.112-.42 0-.84-.037-1.28-.112a3.927 3.927 0 01-1.18-.432 2.622 2.622 0 01-.88-.8c-.24-.331-.37-.747-.4-1.248h1.76c.04.213.13.389.27.528.15.139.32.251.51.336.19.085.39.144.61.176.21.032.41.048.59.048.19 0 .4-.011.62-.032.23-.032.43-.085.6-.16.18-.085.33-.197.44-.336.12-.149.18-.341.18-.576 0-.405-.15-.677-.46-.816-.3-.139-.68-.208-1.14-.208h-1.41v-1.44h1.27c.39 0 .73-.08 1-.24.28-.16.42-.437.42-.832 0-.203-.05-.368-.16-.496a.999.999 0 00-.37-.32 1.453 1.453 0 00-.49-.144 2.975 2.975 0 00-.48-.048c-.19 0-.37.016-.56.048-.2.021-.38.069-.55.144-.17.075-.31.176-.43.304a.818.818 0 00-.21.496h-1.74c.04-.501.17-.912.4-1.232.22-.331.5-.592.83-.784.33-.192.69-.325 1.09-.4.4-.075.8-.112 1.2-.112.39 0 .78.037 1.15.112.38.075.74.213 1.06.416.32.203.56.448.73.736.18.277.27.64.27 1.088 0 .405-.09.752-.28 1.04a2 2 0 01-.71.672zm4.63 4.512h-1.7v-8.432h1.83v5.792l4.29-5.792h1.64V338h-1.82v-5.68c-.01.021-1.42 1.915-4.24 5.68zm8.05 0v-8.432h1.83v3.472h3.74v-3.472h1.83V338h-1.83v-3.376h-3.74V338h-1.83zm14.82-1.04c-.28.395-.65.688-1.1.88a4.2 4.2 0 01-1.54.272c-.45 0-.86-.053-1.23-.16a2.776 2.776 0 01-.96-.48c-.28-.224-.5-.496-.66-.816a2.54 2.54 0 01-.24-1.12c0-.459.09-.848.27-1.168.18-.331.43-.597.74-.8a3.48 3.48 0 011.12-.448c.43-.107.87-.16 1.34-.16h2.16c0-.619-.14-1.099-.41-1.44-.28-.341-.77-.517-1.46-.528-.4 0-.76.069-1.05.208a1.08 1.08 0 00-.58.688h-1.87c.06-.448.21-.827.43-1.136.23-.309.51-.565.83-.768.33-.203.69-.347 1.09-.432.4-.085.81-.128 1.22-.128.52 0 1 .069 1.45.208.45.139.84.373 1.17.704.37.384.62.843.75 1.376.13.533.19 1.115.19 1.744V338h-1.58l-.08-1.04zm-.1-2.704h-1.76c-.31 0-.62.027-.92.08-.31.043-.58.155-.8.336-.22.171-.32.421-.32.752 0 .405.14.715.43.928.3.203.66.304 1.09.304.33 0 .63-.043.91-.128.29-.085.53-.224.73-.416.21-.203.36-.453.47-.752.11-.309.17-.677.17-1.104z" fill="#fff"/><g clip-path="url(#clip0_276_9059)"><path d="M18 121.25v-4.905a5.232 5.232 0 011.849 1.192l2.613 2.615A5.212 5.212 0 0123.655 122H18.75a.749.749 0 01-.75-.75zm6 2.614v6.386a3.754 3.754 0 01-3.75 3.75h-7.5A3.754 3.754 0 019 130.25v-10.5a3.754 3.754 0 013.75-3.75h3.386c.123 0 .243.01.364.018v5.232a2.25 2.25 0 002.25 2.25h5.232c.008.121.018.241.018.364zm-6 6.386a.748.748 0 00-.75-.75H13.5a.749.749 0 00-.53 1.28c.14.141.331.22.53.22h3.75a.749.749 0 00.75-.75zm2.25-3a.748.748 0 00-.75-.75h-6a.749.749 0 00-.53 1.28c.14.141.331.22.53.22h6a.749.749 0 00.75-.75z" fill="#fff"/></g><g clip-path="url(#clip1_276_9059)"><path d="M274.386 224.332l2.783 2.783-10.008 10.006a3 3 0 01-2.121.879h-1.54v-1.54a3 3 0 01.879-2.121l10.007-10.007zm6.473-3.691a1.969 1.969 0 00-2.783 0l-2.63 2.631 2.783 2.782 2.63-2.63a1.969 1.969 0 000-2.783zm-8.159 3.256l-1.125-1.125-1.69 1.69a.748.748 0 01-1.061 0 .75.75 0 010-1.061l1.69-1.689-.942-.942a2.624 2.624 0 00-3.712-.001l-1.591 1.591a2.625 2.625 0 000 3.712l3.128 3.128 5.303-5.303zm-.4 10.207l3.128 3.128a2.626 2.626 0 003.713 0l1.59-1.591a2.623 2.623 0 000-3.712l-.942-.942-1.689 1.69a.75.75 0 11-1.061-1.061l1.69-1.69-1.125-1.125-5.303 5.304-.001-.001z" fill="#fff"/></g><g clip-path="url(#clip2_276_9059)"><path d="M545.305 126.022l5.195 5.196V134h-2.782l-5.196-5.195 2.783-2.783zm-12.229-6.663l4.581 4.581 2.783-2.783-4.581-4.581a1.969 1.969 0 00-2.783 2.783zm6.575 7.49a3.755 3.755 0 00-5.31 0C532.875 128.316 532.5 134 532.5 134s5.684-.375 7.151-1.841a3.755 3.755 0 000-5.31zm10.273-10.273a1.969 1.969 0 00-2.783 0l-8.094 8.095a5.23 5.23 0 011.664 1.117c.492.493.862 1.06 1.117 1.665l8.095-8.094a1.968 1.968 0 000-2.782l.001-.001z" fill="#fff"/></g><g clip-path="url(#clip3_276_9059)"><path d="M818.5 220h-12c-1.655 0-3 1.345-3 3v9c0 1.655 1.345 3 3 3h2.192l2.811 2.367a1.51 1.51 0 001.004.382c.35 0 .698-.122.969-.364l2.885-2.385h2.139c1.655 0 3-1.345 3-3v-9c0-1.655-1.345-3-3-3zm-9.53 8.033l1.937 1.937a.749.749 0 11-1.061 1.06l-1.937-1.937a2.253 2.253 0 010-3.182l1.937-1.938a.75.75 0 111.061 1.061l-1.937 1.937a.751.751 0 000 1.062zm8.121 1.06l-1.938 1.937a.748.748 0 01-1.06 0 .749.749 0 010-1.06l1.937-1.937a.751.751 0 000-1.062l-1.937-1.937a.75.75 0 011.06-1.061l1.938 1.938a2.253 2.253 0 010 3.182z" fill="#fff"/></g><g clip-path="url(#clip4_276_9059)"><g clip-path="url(#clip5_276_9059)" fill="#fff"><path d="M1338.07 220.979c.99.18 1.75.956 1.94 1.925.04.177.06.407.05.689v1.465c0 .003-.01.004-.01.004h-16.09c-.02 0-.02-.006-.02-.018v-1.812a2.44 2.44 0 011.48-2.102c.34-.148.69-.195 1.07-.194 3.65.003 7.33.003 11.02 0 .21-.001.4.014.56.043zm-10.57 2.208a.547.547 0 00-.17-.397.555.555 0 00-.79 0 .547.547 0 000 .794.555.555 0 00.79 0 .547.547 0 00.17-.397zm1.87 0a.527.527 0 00-.04-.215.626.626 0 00-.12-.182.623.623 0 00-.18-.122.575.575 0 00-.62.122.58.58 0 00-.16.397c0 .149.06.292.16.397a.572.572 0 00.62.122c.06-.028.13-.07.18-.122a.626.626 0 00.12-.182.527.527 0 00.04-.215zm1.88 0a.547.547 0 00-.17-.397.555.555 0 00-.79 0 .547.547 0 000 .794.555.555 0 00.79 0 .547.547 0 00.17-.397zm8.77 11.901a2.433 2.433 0 01-1.91 1.924c-.17.035-.4.053-.69.052-3.57-.005-7.15-.005-10.72.001-.31.001-.54-.01-.69-.032a2.43 2.43 0 01-2.02-1.937c-.04-.162-.05-.379-.05-.651v-8.254c0-.002.01-.003.01-.003h16.09c.02 0 .02.006.02.02 0 2.739 0 5.482.01 8.23 0 .276-.02.493-.05.65zm-11.41-5.026c-.23-.23-.46-.462-.7-.696-.43-.434-1.14-.002-.94.578a.71.71 0 00.18.253c.22.218.45.441.67.668v.02c-.25.252-.49.49-.71.714-.28.279-.2.717.14.902.13.074.33.079.47.017a.892.892 0 00.26-.195c.2-.212.42-.425.64-.641 0-.002 0-.004.01-.004 0 0 0 .002.01.004.21.205.43.425.66.661.08.09.17.15.25.18.57.22 1.02-.495.59-.926-.25-.254-.49-.492-.71-.713v-.018c.2-.203.43-.43.68-.679.16-.159.24-.351.19-.573a.567.567 0 00-.77-.382c-.08.03-.18.115-.31.254-.2.208-.4.4-.58.576-.01.01-.02.01-.03 0zm5.62 1.124c-.35-.359-.71-.717-1.07-1.074a.563.563 0 00-.93.596c.02.072.08.154.18.245.49.485.96.961 1.42 1.429.23.229.59.244.82.012.78-.775 1.53-1.527 2.26-2.255a.563.563 0 10-.82-.773c-.6.595-1.2 1.202-1.82 1.82-.01.012-.02.012-.04 0z"/></g></g><g clip-path="url(#clip6_276_9059)"><path d="M1080.25 127.566l-.37-.216a7.8 7.8 0 000-2.717l.37-.217a2.517 2.517 0 00.93-3.416 2.542 2.542 0 00-1.52-1.167 2.49 2.49 0 00-1.9.25l-.38.217c-.7-.6-1.5-1.067-2.38-1.375v-.434c0-1.375-1.12-2.5-2.5-2.5a2.51 2.51 0 00-2.5 2.5v.434c-.87.308-1.68.775-2.38 1.375l-.38-.217a2.513 2.513 0 00-1.9-.25 2.506 2.506 0 00-.6 4.583l.38.217c-.09.45-.13.908-.13 1.358 0 .45.04.9.13 1.359l-.38.216a2.507 2.507 0 00-.92 3.417c.33.575.87.992 1.51 1.167.65.175 1.32.083 1.9-.25l.38-.217c.7.6 1.51 1.067 2.38 1.375v.433a2.51 2.51 0 002.5 2.5c1.38 0 2.5-1.125 2.5-2.5v-.433a7.456 7.456 0 002.39-1.375l.37.217c.58.333 1.25.425 1.9.25a2.542 2.542 0 001.52-1.167 2.52 2.52 0 00-.92-3.417zm-10.07-.533a.84.84 0 010 1.175.836.836 0 01-.6.242.87.87 0 01-.59-.242l-1.01-1.008a1.65 1.65 0 010-2.342l1.01-1.008a.836.836 0 011.18 0 .84.84 0 010 1.175l-1.01 1.008 1.01.992.01.008zm3.8-4.208l-1.33 6.666c-.07.4-.42.667-.82.667-.05 0-.1 0-.16-.017a.831.831 0 01-.65-.983l1.33-6.667c.09-.45.53-.741.98-.65.45.092.75.525.65.984zm3.04 4.375l-1.01 1.008a.83.83 0 01-.59.242.834.834 0 01-.59-.242.821.821 0 010-1.175l1-1.008-1-1a.821.821 0 010-1.175.824.824 0 011.17 0l1.01 1.008c.65.65.65 1.7 0 2.342h.01z" fill="#fff"/></g><defs><clipPath id="clip0_276_9059"><path fill="#fff" transform="translate(7.5 116)" d="M0 0h18v18H0z"/></clipPath><clipPath id="clip1_276_9059"><path fill="#fff" transform="translate(263.5 220)" d="M0 0h18v18H0z"/></clipPath><clipPath id="clip2_276_9059"><path fill="#fff" transform="translate(532.5 116)" d="M0 0h18v18H0z"/></clipPath><clipPath id="clip3_276_9059"><path fill="#fff" transform="translate(803.5 220)" d="M0 0h18v18H0z"/></clipPath><clipPath id="clip4_276_9059"><path fill="#fff" transform="translate(1322.5 220)" d="M0 0h18v18H0z"/></clipPath><clipPath id="clip5_276_9059"><path fill="#fff" transform="translate(1323 220)" d="M0 0h18v18H0z"/></clipPath><clipPath id="clip6_276_9059"><path fill="#fff" transform="translate(1062.5 116)" d="M0 0h20v20H0z"/></clipPath><linearGradient id="paint0_linear_276_9059" x1="9" y1="171.605" x2="1660" y2="87" gradientUnits="userSpaceOnUse"><stop stop-color="#0052CC"/><stop offset=".581" stop-color="#0D8BED"/><stop offset=".88" stop-color="#0F1015"/><stop offset="1" stop-color="#0F1015"/></linearGradient></defs></svg>