<svg width="922" height="268" fill="none" xmlns="http://www.w3.org/2000/svg"><path d="M9 83.508c64.284 0 64.284 120 128.569 120 64.285 0 64.285-120 128.577-120 64.293 0 64.285 120 128.569 120 64.285 0 64.285-120 128.578-120s64.284 120 128.569 120c64.284 0 64.276-120 128.569-120 64.293 0 64.284 120 128.569 120" stroke="url(#paint0_linear_561_16115)" stroke-width="3" stroke-miterlimit="10"/><path d="M14.74 14.718c-1.017 0-1.906-.21-2.667-.63a4.465 4.465 0 01-1.778-1.778c-.42-.77-.63-1.668-.63-2.695a5.5 5.5 0 01.371-2.051 4.864 4.864 0 011.057-1.624 4.827 4.827 0 011.617-1.064 5.384 5.384 0 012.044-.378c.747 0 1.39.093 1.932.28a4.35 4.35 0 011.428.798l-.812 1.28a2.99 2.99 0 00-1.078-.636c-.41-.14-.863-.21-1.358-.21-.546 0-1.038.084-1.477.252a3.18 3.18 0 00-1.127.72 3.146 3.146 0 00-.714 1.128 4.252 4.252 0 00-.245 1.49c0 .757.147 1.403.441 1.94.299.537.719.947 1.26 1.232.546.28 1.19.42 1.932.42.495 0 .97-.072 1.428-.217.462-.15.894-.39 1.295-.721l.728 1.323a5.186 5.186 0 01-1.617.847c-.602.196-1.279.294-2.03.294zm8.25 0c-.724 0-1.37-.166-1.94-.497a3.69 3.69 0 01-1.33-1.337 3.629 3.629 0 01-.482-1.841 3.617 3.617 0 011.057-2.576c.34-.34.74-.61 1.197-.805a3.781 3.781 0 011.505-.294c.723 0 1.367.168 1.932.504.57.331 1.015.777 1.337 1.337a3.59 3.59 0 01.483 1.834c0 .49-.094.957-.28 1.4a3.613 3.613 0 01-.777 1.176c-.336.34-.733.609-1.19.805a3.799 3.799 0 01-1.512.294zm0-1.365c.43 0 .81-.094 1.14-.28.337-.191.6-.46.792-.805.191-.346.287-.754.287-1.225 0-.471-.096-.88-.287-1.225a1.991 1.991 0 00-.791-.805 2.284 2.284 0 00-1.141-.28c-.43 0-.812.093-1.148.28a2.005 2.005 0 00-.784.805c-.187.345-.28.754-.28 1.225 0 .471.095.88.287 1.225.191.345.452.614.784.805.336.186.716.28 1.14.28zm8.552 1.365c-.728 0-1.377-.159-1.946-.476a3.583 3.583 0 01-1.344-1.31c-.322-.555-.483-1.184-.483-1.89 0-.531.096-1.019.287-1.462.191-.448.462-.838.812-1.17a3.72 3.72 0 011.232-.77 4.296 4.296 0 011.547-.272c.467 0 .898.063 1.295.189.401.121.77.31 1.106.567L33.306 9.3a2.101 2.101 0 00-.742-.427 2.73 2.73 0 00-.882-.14c-.485 0-.903.09-1.253.273-.35.182-.623.445-.819.79-.191.341-.287.755-.287 1.24 0 .723.21 1.29.63 1.7.425.412 1.001.617 1.729.617.345 0 .672-.063.98-.19.308-.13.565-.3.77-.51l.735 1.169c-.369.28-.78.5-1.232.658a4.181 4.181 0 01-1.393.238zm5.588-.21V8.852h-2.275V7.578h6.097v1.274H38.67v5.656h-1.54zm8.167.21c-.69 0-1.302-.159-1.834-.476a3.462 3.462 0 01-1.246-1.31c-.299-.555-.448-1.184-.448-1.89 0-.527.086-1.014.259-1.462.173-.448.415-.838.728-1.17a3.246 3.246 0 011.12-.77 3.637 3.637 0 011.421-.272c.681 0 1.25.144 1.708.434.462.29.814.662 1.057 1.12l-.217.329V7.578h1.372v6.93h-1.372v-1.673l.217.329c-.243.457-.595.83-1.057 1.12-.457.29-1.027.434-1.708.434zm.203-1.365c.42 0 .796-.094 1.127-.28.331-.191.59-.46.777-.805.191-.346.287-.754.287-1.225 0-.471-.096-.88-.287-1.225a1.96 1.96 0 00-.777-.805 2.256 2.256 0 00-1.127-.28 2.27 2.27 0 00-1.134.28 2.018 2.018 0 00-.777.805c-.191.345-.287.754-.287 1.225 0 .471.096.88.287 1.225.191.345.45.614.777.805.331.186.71.28 1.134.28zm5.86 1.155v-6.93h3.304c.784 0 1.412.15 1.883.448.471.298.707.746.707 1.344 0 .28-.068.53-.203.749a1.678 1.678 0 01-.56.539 2.6 2.6 0 01-.833.315l-.028-.343c.611.084 1.085.287 1.421.609.336.322.504.73.504 1.225 0 .42-.11.784-.329 1.092-.22.303-.534.539-.945.707-.41.163-.903.245-1.477.245H51.36zm1.491-1.141h1.743c.462 0 .817-.077 1.064-.231.252-.154.378-.385.378-.693 0-.303-.124-.53-.37-.68-.248-.153-.605-.23-1.072-.23h-1.946v-1.1h1.785c.434 0 .77-.065 1.008-.195.238-.136.357-.355.357-.658 0-.304-.119-.523-.357-.658-.238-.14-.574-.21-1.008-.21h-1.582v4.655zm6.187 1.26l-.54-1.386c.477-.121.824-.313 1.044-.574.224-.261.364-.626.42-1.092.06-.467.09-1.069.09-1.806V7.578h5.636v6.93h-1.54V8.852h-2.66v.917a15.6 15.6 0 01-.105 1.939c-.066.55-.187 1.02-.364 1.407a2.48 2.48 0 01-.75.952c-.317.242-.727.43-1.231.56zm11.96.09c-.746 0-1.402-.15-1.966-.454a3.345 3.345 0 01-1.323-1.288c-.313-.55-.47-1.19-.47-1.918 0-.532.092-1.022.274-1.47a3.476 3.476 0 011.932-1.946 3.85 3.85 0 011.463-.273c.574 0 1.085.102 1.533.308.448.2.819.483 1.113.847.298.364.508.79.63 1.28a3.96 3.96 0 01.063 1.583h-5.53c-.01.415.081.78.273 1.092.191.308.464.548.819.72.359.173.781.26 1.267.26.392 0 .77-.059 1.134-.175a3.277 3.277 0 001-.532l.596 1.106a3.229 3.229 0 01-.812.469 5.414 5.414 0 01-.994.287c-.346.07-.68.105-1.001.105zm-2.19-4.465h3.927c-.014-.523-.182-.934-.504-1.232-.318-.299-.77-.448-1.358-.448-.57 0-1.043.15-1.421.448-.374.298-.588.71-.644 1.232zm7.038 4.256v-6.93h1.54v2.674h3.472V7.578h1.54v6.93h-1.54v-2.982h-3.472v2.982h-1.54zm8.696 0v-6.93h1.49v4.676l3.76-4.676h1.344v6.93h-1.484V9.776l-3.794 4.732h-1.316zm11.9.21c-.747 0-1.402-.152-1.967-.455a3.346 3.346 0 01-1.323-1.288c-.313-.55-.469-1.19-.469-1.918 0-.532.091-1.022.273-1.47a3.477 3.477 0 011.932-1.946 3.85 3.85 0 011.463-.273c.574 0 1.085.102 1.533.308.448.2.819.483 1.113.847.299.364.509.79.63 1.28a3.96 3.96 0 01.063 1.583h-5.53c-.01.415.082.78.273 1.092.191.308.464.548.819.72.36.173.782.26 1.267.26.392 0 .77-.059 1.134-.175a3.275 3.275 0 001.001-.532l.595 1.106a3.227 3.227 0 01-.812.469 5.409 5.409 0 01-.994.287c-.345.07-.679.105-1.001.105zm-2.191-4.466h3.927c-.014-.523-.182-.934-.504-1.232-.317-.299-.77-.448-1.358-.448-.57 0-1.043.15-1.421.448-.373.298-.588.71-.644 1.232zM12.136 32.508v-8.365H9.378v-1.435h7.084v1.435h-2.758v8.365h-1.568zm8.681.21c-.737 0-1.41-.096-2.016-.287a4.973 4.973 0 01-1.589-.82l.742-1.26c.336.304.742.542 1.218.715.476.168.98.252 1.512.252.476 0 .887-.068 1.232-.203.35-.135.618-.324.805-.567a1.41 1.41 0 00.294-.868c0-.518-.173-.91-.518-1.176-.34-.27-.873-.406-1.596-.406H18.99v-1.26h1.792c.397 0 .74-.059 1.029-.175a1.54 1.54 0 00.672-.511c.159-.224.238-.492.238-.805 0-.303-.08-.558-.238-.763-.154-.21-.383-.369-.686-.476-.299-.112-.663-.168-1.092-.168-.462 0-.905.077-1.33.23-.425.15-.791.36-1.099.63l-.742-1.154a4.2 4.2 0 011.484-.847 5.728 5.728 0 011.876-.301c.695 0 1.297.105 1.806.315.509.205.898.504 1.169.896.275.387.413.85.413 1.386 0 .308-.072.609-.217.903a2.79 2.79 0 01-.567.77c-.229.22-.471.383-.728.49a2.79 2.79 0 011.344.896c.35.42.523.952.518 1.596a2.571 2.571 0 01-.483 1.498c-.317.448-.763.805-1.337 1.07-.57.267-1.234.4-1.995.4zm9.064-.21v-6.93h1.491v4.676l3.76-4.676h1.343v6.93h-1.483v-4.732l-3.794 4.732H29.88zm12.169 0v-6.93h6.544v6.93h-1.54v-5.656H43.59v5.656h-1.54zm11.838.21c-.723 0-1.37-.166-1.939-.497a3.69 3.69 0 01-1.33-1.337 3.629 3.629 0 01-.483-1.841 3.617 3.617 0 011.057-2.576c.34-.34.74-.61 1.197-.805a3.78 3.78 0 011.505-.294c.723 0 1.367.168 1.932.504.57.331 1.015.777 1.337 1.337a3.59 3.59 0 01.483 1.834c0 .49-.093.957-.28 1.4a3.613 3.613 0 01-.777 1.176c-.336.34-.733.609-1.19.805a3.8 3.8 0 01-1.512.294zm0-1.365c.43 0 .81-.094 1.141-.28.336-.192.6-.46.791-.805.191-.346.287-.754.287-1.225 0-.471-.096-.88-.287-1.225a1.992 1.992 0 00-.79-.805 2.284 2.284 0 00-1.142-.28c-.43 0-.812.093-1.148.28a2.004 2.004 0 00-.784.805c-.187.345-.28.753-.28 1.225 0 .471.096.88.287 1.225.191.345.453.613.784.805.336.186.717.28 1.141.28zm5.306 1.155v-6.93h4.564v1.274h-3.024v5.656h-1.54zm5.988 2.94v-9.87h1.386v.973c.276-.35.628-.635 1.057-.854.43-.22.96-.33 1.59-.33.676 0 1.276.162 1.798.484.528.317.938.754 1.232 1.309.294.55.441 1.178.441 1.883 0 .509-.084.987-.252 1.435a3.537 3.537 0 01-.72 1.169c-.309.336-.677.6-1.107.79-.424.188-.896.28-1.414.28-.541 0-1.017-.097-1.428-.293-.41-.196-.76-.46-1.05-.791v3.815h-1.533zm3.752-4.095c.43 0 .81-.094 1.141-.28.336-.192.598-.46.784-.805.192-.346.287-.754.287-1.225 0-.471-.095-.88-.287-1.225a1.991 1.991 0 00-.79-.805 2.27 2.27 0 00-1.135-.28c-.429 0-.812.093-1.148.28a2.005 2.005 0 00-.784.805c-.191.345-.287.753-.287 1.225 0 .471.096.88.287 1.225.192.345.453.613.784.805.336.186.719.28 1.148.28zm5.826 4.29c-.252 0-.5-.027-.742-.083a2.575 2.575 0 01-.714-.287l.35-1.316c.144.093.303.163.476.21.172.047.326.07.462.07.326 0 .583-.077.77-.231.186-.154.333-.392.44-.714l.232-.672-2.73-7.042h1.687l1.918 5.376 1.869-5.376h1.63l-2.995 7.93c-.215.556-.455.988-.721 1.296-.266.313-.56.53-.882.65a2.857 2.857 0 01-1.05.19zm10.58-3.135v-2.982h-1.897v-1.274h1.897v-2.674h1.54v2.674h1.89v1.274h-1.89v2.982h-1.54zm-4.487 0l2.19-3.675-1.938-3.255h1.687l1.91 3.248-2.092 3.682h-1.757zm8.715 0l-2.058-3.682 1.967-3.248h1.63l-1.938 3.178 2.226 3.752h-1.827zm6.218.21c-.747 0-1.403-.152-1.967-.455a3.345 3.345 0 01-1.323-1.288c-.313-.55-.47-1.19-.47-1.918 0-.532.092-1.022.274-1.47a3.475 3.475 0 011.932-1.946 3.85 3.85 0 011.463-.273c.574 0 1.085.103 1.533.308.448.2.819.483 1.113.847.298.364.508.79.63 1.28a3.96 3.96 0 01.063 1.583h-5.53c-.01.415.081.78.273 1.092.191.308.464.548.819.72.36.174.781.26 1.267.26.392 0 .77-.058 1.134-.175a3.277 3.277 0 001-.532l.596 1.106a3.229 3.229 0 01-.812.469 5.414 5.414 0 01-.994.287c-.346.07-.68.105-1.001.105zm-2.191-4.466h3.927c-.014-.523-.182-.933-.504-1.232-.318-.299-.77-.448-1.358-.448-.57 0-1.043.15-1.421.448-.374.299-.588.71-.644 1.232zm7.039 4.256v-6.93h1.54v2.674h3.472v-2.674h1.54v6.93h-1.54v-2.982h-3.472v2.982h-1.54zm8.695 0v-6.93h1.491v4.676l3.759-4.676h1.344v6.93h-1.484v-4.732l-3.794 4.732h-1.316zm11.9.21c-.747 0-1.402-.152-1.967-.455a3.341 3.341 0 01-1.323-1.288c-.313-.55-.469-1.19-.469-1.918 0-.532.091-1.022.273-1.47a3.48 3.48 0 011.932-1.946 3.852 3.852 0 011.463-.273c.574 0 1.085.103 1.533.308.448.2.819.483 1.113.847.299.364.509.79.63 1.28a3.96 3.96 0 01.063 1.583h-5.53c-.009.415.082.78.273 1.092.191.308.464.548.819.72.359.174.782.26 1.267.26.392 0 .77-.058 1.134-.175a3.276 3.276 0 001.001-.532l.595 1.106a3.234 3.234 0 01-.812.469 5.411 5.411 0 01-.994.287c-.345.07-.679.105-1.001.105zm-2.191-4.466h3.927c-.014-.523-.182-.933-.504-1.232-.317-.299-.77-.448-1.358-.448-.569 0-1.043.15-1.421.448-.373.299-.588.71-.644 1.232zM10.071 50.508v-6.93h3.304c.784 0 1.412.15 1.883.448.471.298.707.746.707 1.344 0 .28-.068.53-.203.749a1.677 1.677 0 01-.56.539 2.6 2.6 0 01-.833.315l-.028-.343c.611.084 1.085.287 1.421.609.336.322.504.73.504 1.225 0 .42-.11.784-.329 1.092-.22.303-.534.539-.945.707-.41.163-.903.245-1.477.245h-3.444zm1.491-1.141h1.743c.462 0 .817-.077 1.064-.231.252-.154.378-.385.378-.693 0-.303-.124-.53-.371-.68-.247-.153-.604-.23-1.071-.23h-1.946v-1.1h1.785c.434 0 .77-.065 1.008-.195.238-.136.357-.355.357-.658 0-.303-.119-.523-.357-.658-.238-.14-.574-.21-1.008-.21h-1.582v4.655zm9.87 1.14v-6.93h6.545v6.93h-1.54v-5.655h-3.465v5.656h-1.54zm8.682 2.94v-9.87H31.5v.974c.275-.35.628-.635 1.057-.854.43-.22.959-.33 1.589-.33.677 0 1.276.162 1.799.484.527.317.938.754 1.232 1.309.294.55.441 1.178.441 1.883 0 .508-.084.987-.252 1.435a3.538 3.538 0 01-.721 1.169c-.308.336-.677.6-1.106.79-.425.188-.896.28-1.414.28-.541 0-1.017-.097-1.428-.293-.41-.196-.76-.46-1.05-.791v3.815h-1.533zm3.752-4.094c.43 0 .81-.093 1.141-.28.336-.191.597-.46.784-.805.191-.346.287-.754.287-1.225 0-.471-.096-.88-.287-1.225a1.992 1.992 0 00-.791-.805 2.27 2.27 0 00-1.134-.28c-.43 0-.812.093-1.148.28a2.004 2.004 0 00-.784.805c-.191.345-.287.754-.287 1.225 0 .471.096.88.287 1.225.191.345.453.614.784.805.336.187.719.28 1.148.28zm8.524 1.365c-.723 0-1.37-.166-1.939-.497a3.69 3.69 0 01-1.33-1.337 3.629 3.629 0 01-.483-1.841 3.617 3.617 0 011.057-2.576c.34-.34.74-.61 1.197-.805a3.78 3.78 0 011.505-.294c.723 0 1.367.168 1.932.504.57.331 1.015.777 1.337 1.337a3.59 3.59 0 01.483 1.834c0 .49-.093.956-.28 1.4a3.613 3.613 0 01-.777 1.176c-.336.34-.733.609-1.19.805a3.799 3.799 0 01-1.512.294zm0-1.365c.43 0 .81-.093 1.141-.28.336-.191.6-.46.791-.805.191-.346.287-.754.287-1.225 0-.471-.096-.88-.287-1.225a1.991 1.991 0 00-.79-.805 2.284 2.284 0 00-1.142-.28c-.43 0-.812.093-1.148.28a2.005 2.005 0 00-.784.805c-.187.345-.28.754-.28 1.225 0 .471.096.88.287 1.225.191.345.453.614.784.805.336.187.716.28 1.141.28zm8.538 1.365c-.746 0-1.402-.152-1.967-.455a3.345 3.345 0 01-1.323-1.288c-.312-.55-.469-1.19-.469-1.918 0-.532.091-1.022.273-1.47a3.475 3.475 0 011.932-1.946 3.85 3.85 0 011.463-.273c.574 0 1.085.102 1.533.308.448.2.82.483 1.113.847.299.364.509.79.63 1.28a3.96 3.96 0 01.063 1.583h-5.53c-.009.415.082.78.273 1.092.192.308.465.548.82.72.359.173.781.26 1.266.26.392 0 .77-.058 1.134-.175a3.277 3.277 0 001.001-.532l.595 1.106a3.229 3.229 0 01-.812.469 5.414 5.414 0 01-.994.287c-.345.07-.679.105-1 .105zm-2.19-4.466h3.926c-.014-.523-.182-.934-.504-1.232-.317-.299-.77-.448-1.358-.448-.569 0-1.043.15-1.42.448-.374.298-.589.71-.645 1.232zm11.644 4.256l-2.296-3.682 2.135-3.248h1.645l-2.12 3.178 2.477 3.752h-1.84zm-4.606 0v-6.93h1.54v2.674h2.086v1.274h-2.086v2.982h-1.54zm9.354 0v-5.656h-2.275v-1.274h6.097v1.274H66.67v5.656h-1.54z" fill="#fff"/><circle cx="16.5" cy="83.008" r="16" stroke="#1D4ED8"/><circle cx="16.5" cy="83.008" r="8.5" fill="#fff"/><g clip-path="url(#clip0_561_16115)"><path d="M18 116.758v-4.905a5.232 5.232 0 011.849 1.192l2.613 2.615a5.212 5.212 0 011.193 1.848H18.75a.749.749 0 01-.75-.75zm6 2.614v6.386a3.754 3.754 0 01-3.75 3.75h-7.5a3.754 3.754 0 01-3.75-3.75v-10.5a3.756 3.756 0 013.75-3.75h3.386c.123 0 .243.01.364.018v5.232a2.25 2.25 0 002.25 2.25h5.232c.008.121.018.241.018.364zm-6 6.386a.752.752 0 00-.75-.75H13.5a.752.752 0 00-.75.75.75.75 0 00.75.75h3.75a.749.749 0 00.75-.75zm2.25-3a.752.752 0 00-.75-.75h-6a.752.752 0 00-.75.75.75.75 0 00.75.75h6a.749.749 0 00.75-.75z" fill="#fff"/></g><g clip-path="url(#clip1_561_16115)"><path d="M139.386 160.398l2.783 2.783-10.008 10.007a3.004 3.004 0 01-2.121.879h-1.54v-1.54c0-.796.316-1.559.879-2.121l10.007-10.008zm6.473-3.69a1.969 1.969 0 00-2.783 0l-2.63 2.63 2.783 2.782 2.63-2.63a1.968 1.968 0 000-2.782zm-8.159 3.256l-1.125-1.125-1.69 1.689a.748.748 0 01-1.061 0 .749.749 0 010-1.06l1.69-1.69-.942-.942a2.624 2.624 0 00-3.712-.001l-1.591 1.591a2.625 2.625 0 000 3.712l3.128 3.129 5.303-5.303zm-.4 10.206l3.128 3.129a2.626 2.626 0 003.713 0l1.59-1.591a2.624 2.624 0 000-3.713l-.942-.942-1.689 1.69a.75.75 0 11-1.061-1.061l1.69-1.689-1.125-1.125-5.303 5.303-.001-.001z" fill="#fff"/></g><circle cx="137.5" cy="202.566" r="16" stroke="#1D4ED8"/><path opacity=".6" d="M70.702 245.066v-9.8h7.882v9.8h-1.568v-8.365H72.27v8.365h-1.568zm10.228 2.94v-9.87h1.386v.973c.276-.35.628-.634 1.057-.854.43-.219.96-.329 1.59-.329.676 0 1.276.161 1.798.483.528.318.938.754 1.232 1.309.294.551.441 1.179.441 1.883 0 .509-.084.987-.252 1.435a3.531 3.531 0 01-.72 1.169c-.309.336-.677.6-1.107.791-.424.187-.896.28-1.414.28-.541 0-1.017-.098-1.428-.294a3.205 3.205 0 01-1.05-.791v3.815H80.93zm3.752-4.095c.43 0 .81-.093 1.141-.28.336-.191.598-.459.784-.805.192-.345.287-.753.287-1.225 0-.471-.095-.879-.287-1.225a1.994 1.994 0 00-.79-.805 2.277 2.277 0 00-1.135-.28c-.429 0-.812.094-1.148.28a2.006 2.006 0 00-.784.805c-.191.346-.287.754-.287 1.225 0 .472.096.88.287 1.225.192.346.453.614.784.805.336.187.719.28 1.148.28zm8.525 1.365c-.724 0-1.37-.165-1.94-.497a3.684 3.684 0 01-1.33-1.337 3.627 3.627 0 01-.483-1.841 3.62 3.62 0 011.058-2.576c.34-.34.74-.609 1.197-.805a3.78 3.78 0 011.504-.294c.724 0 1.368.168 1.933.504a3.618 3.618 0 011.337 1.337c.322.556.483 1.167.483 1.834 0 .49-.094.957-.28 1.4a3.599 3.599 0 01-.778 1.176 3.693 3.693 0 01-1.19.805 3.799 3.799 0 01-1.511.294zm0-1.365c.429 0 .81-.093 1.14-.28.337-.191.6-.459.791-.805.192-.345.287-.753.287-1.225 0-.471-.095-.879-.287-1.225a1.993 1.993 0 00-.79-.805 2.291 2.291 0 00-1.141-.28c-.43 0-.813.094-1.148.28a2.006 2.006 0 00-.784.805c-.187.346-.28.754-.28 1.225 0 .472.095.88.286 1.225.192.346.453.614.784.805.337.187.717.28 1.142.28zm6.852 1.155v-5.656h-2.275v-1.274h6.097v1.274h-2.282v5.656h-1.54zm8.392.21c-.724 0-1.37-.165-1.939-.497a3.682 3.682 0 01-1.33-1.337 3.627 3.627 0 01-.483-1.841 3.62 3.62 0 011.057-2.576c.34-.34.739-.609 1.197-.805a3.78 3.78 0 011.505-.294c.723 0 1.367.168 1.932.504a3.611 3.611 0 011.337 1.337c.322.556.483 1.167.483 1.834 0 .49-.094.957-.28 1.4a3.599 3.599 0 01-.777 1.176 3.697 3.697 0 01-1.19.805 3.804 3.804 0 01-1.512.294zm0-1.365c.429 0 .809-.093 1.141-.28.336-.191.599-.459.791-.805.191-.345.287-.753.287-1.225 0-.471-.096-.879-.287-1.225a1.997 1.997 0 00-.791-.805 2.294 2.294 0 00-1.141-.28c-.43 0-.812.094-1.148.28a2 2 0 00-.784.805c-.187.346-.28.754-.28 1.225 0 .472.095.88.287 1.225.191.346.452.614.784.805.336.187.716.28 1.141.28zm6.853 1.155v-5.656h-2.275v-1.274h6.097v1.274h-2.282v5.656h-1.54zm5.234 0v-6.93h1.491v4.676l3.759-4.676h1.344v6.93h-1.484v-4.732l-3.794 4.732h-1.316zm8.736 0v-6.93h6.545v6.93h-1.54v-5.656h-3.465v5.656h-1.54zm8.682 0v-6.93h1.491v4.676l3.759-4.676h1.344v6.93h-1.484v-4.732l-3.794 4.732h-1.316zm8.736 2.94v-9.87h1.386v.973c.275-.35.628-.634 1.057-.854.429-.219.959-.329 1.589-.329.677 0 1.276.161 1.799.483.527.318.938.754 1.232 1.309.294.551.441 1.179.441 1.883 0 .509-.084.987-.252 1.435a3.525 3.525 0 01-.721 1.169c-.308.336-.677.6-1.106.791-.425.187-.896.28-1.414.28-.541 0-1.017-.098-1.428-.294a3.198 3.198 0 01-1.05-.791v3.815h-1.533zm3.752-4.095c.429 0 .81-.093 1.141-.28.336-.191.597-.459.784-.805.191-.345.287-.753.287-1.225 0-.471-.096-.879-.287-1.225a1.991 1.991 0 00-.791-.805 2.275 2.275 0 00-1.134-.28c-.429 0-.812.094-1.148.28a2.006 2.006 0 00-.784.805c-.191.346-.287.754-.287 1.225 0 .472.096.88.287 1.225.191.346.453.614.784.805.336.187.719.28 1.148.28zm8.524 1.365c-.723 0-1.369-.165-1.939-.497a3.69 3.69 0 01-1.33-1.337 3.627 3.627 0 01-.483-1.841 3.62 3.62 0 011.057-2.576 3.8 3.8 0 011.197-.805 3.783 3.783 0 011.505-.294c.724 0 1.368.168 1.932.504.57.332 1.015.777 1.337 1.337.322.556.483 1.167.483 1.834 0 .49-.093.957-.28 1.4a3.599 3.599 0 01-.777 1.176 3.686 3.686 0 01-1.19.805 3.797 3.797 0 01-1.512.294zm0-1.365c.43 0 .81-.093 1.141-.28.336-.191.6-.459.791-.805.192-.345.287-.753.287-1.225 0-.471-.095-.879-.287-1.225a1.991 1.991 0 00-.791-.805 2.289 2.289 0 00-1.141-.28c-.429 0-.812.094-1.148.28a2.013 2.013 0 00-.784.805c-.186.346-.28.754-.28 1.225 0 .472.096.88.287 1.225.192.346.453.614.784.805.336.187.717.28 1.141.28zm5.306 1.155v-6.93h3.304c.784 0 1.412.15 1.883.448.471.299.707.747.707 1.344 0 .28-.068.53-.203.749a1.665 1.665 0 01-.56.539c-.238.145-.516.25-.833.315l-.028-.343c.611.084 1.085.287 1.421.609.336.322.504.731.504 1.225 0 .42-.11.784-.329 1.092-.219.304-.534.539-.945.707-.411.164-.903.245-1.477.245h-3.444zm1.491-1.141h1.743c.462 0 .817-.077 1.064-.231.252-.154.378-.385.378-.693 0-.303-.124-.529-.371-.679-.247-.154-.604-.231-1.071-.231h-1.946v-1.099h1.785c.434 0 .77-.065 1.008-.196.238-.135.357-.354.357-.658 0-.303-.119-.522-.357-.658-.238-.14-.574-.21-1.008-.21h-1.582v4.655zm9.372 1.351c-.691 0-1.302-.158-1.834-.476a3.453 3.453 0 01-1.246-1.309c-.299-.555-.448-1.185-.448-1.89 0-.527.086-1.015.259-1.463.172-.448.415-.837.728-1.169a3.245 3.245 0 011.12-.77 3.635 3.635 0 011.421-.273c.681 0 1.25.145 1.708.434.462.29.814.663 1.057 1.12l-.217.329v-1.673h1.372v6.93h-1.372v-1.673l.217.329a2.923 2.923 0 01-1.057 1.12c-.458.29-1.027.434-1.708.434zm.203-1.365c.42 0 .795-.093 1.127-.28.331-.191.59-.459.777-.805.191-.345.287-.753.287-1.225 0-.471-.096-.879-.287-1.225a1.965 1.965 0 00-.777-.805 2.265 2.265 0 00-1.127-.28c-.425 0-.803.094-1.134.28a2.016 2.016 0 00-.777.805c-.192.346-.287.754-.287 1.225 0 .472.095.88.287 1.225.191.346.45.614.777.805.331.187.709.28 1.134.28zm5.86 1.155v-6.93h1.54v2.674h3.472v-2.674h1.54v6.93h-1.54v-2.982h-3.472v2.982h-1.54zm8.695 0v-6.93h1.491v4.676l3.759-4.676h1.344v6.93h-1.484v-4.732l-3.794 4.732h-1.316zm11.901.21c-.747 0-1.403-.151-1.967-.455a3.339 3.339 0 01-1.323-1.288c-.313-.55-.469-1.19-.469-1.918 0-.532.091-1.022.273-1.47a3.48 3.48 0 011.932-1.946 3.848 3.848 0 011.463-.273c.574 0 1.085.103 1.533.308.448.201.819.483 1.113.847.298.364.508.791.63 1.281.126.486.147 1.013.063 1.582h-5.53c-.01.416.081.78.273 1.092.191.308.464.549.819.721.359.173.781.259 1.267.259.392 0 .77-.058 1.134-.175a3.266 3.266 0 001.001-.532l.595 1.106a3.213 3.213 0 01-.812.469 5.41 5.41 0 01-.994.287c-.346.07-.679.105-1.001.105zm-2.191-4.466h3.927c-.014-.522-.182-.933-.504-1.232-.318-.298-.77-.448-1.358-.448-.57 0-1.043.15-1.421.448-.374.299-.588.71-.644 1.232z" fill="#fff"/><circle cx="137.5" cy="202.566" r="8.5" fill="#fff"/><path d="M225.472 32.066v-9.8h3.549c.696 0 1.309.122 1.841.364.537.238.957.584 1.26 1.036.304.448.455.987.455 1.617 0 .65-.14 1.197-.42 1.645-.28.444-.688.782-1.225 1.015-.532.23-1.18.343-1.946.343h-1.946v3.78h-1.568zm1.568-5.124h1.967c.635 0 1.127-.133 1.477-.399.35-.27.525-.679.525-1.225 0-.54-.179-.956-.539-1.246-.359-.289-.842-.434-1.449-.434h-1.981v3.304zm9.817 5.334c-.691 0-1.302-.158-1.834-.476a3.455 3.455 0 01-1.246-1.309c-.299-.555-.448-1.185-.448-1.89 0-.527.086-1.015.259-1.463.172-.448.415-.837.728-1.169a3.24 3.24 0 011.12-.77 3.635 3.635 0 011.421-.273c.681 0 1.25.145 1.708.434.462.29.814.663 1.057 1.12l-.217.33v-1.674h1.372v6.93h-1.372v-1.673l.217.33a2.93 2.93 0 01-1.057 1.12c-.458.289-1.027.433-1.708.433zm.203-1.365c.42 0 .795-.093 1.127-.28.331-.19.59-.46.777-.805.191-.345.287-.753.287-1.225 0-.47-.096-.88-.287-1.225a1.963 1.963 0 00-.777-.805 2.257 2.257 0 00-1.127-.28c-.425 0-.803.094-1.134.28a2.014 2.014 0 00-.777.805c-.192.346-.287.754-.287 1.225 0 .472.095.88.287 1.225.191.346.45.614.777.805.331.187.709.28 1.134.28zm8.198 1.323c-.388 0-.761-.03-1.12-.09a4.967 4.967 0 01-1.015-.267 3.324 3.324 0 01-.861-.497l.672-1.043c.294.248.641.427 1.043.54.401.107.809.16 1.225.16.564 0 1.01-.081 1.337-.245.326-.168.49-.443.49-.826 0-.336-.173-.576-.518-.72-.341-.145-.838-.218-1.491-.218h-1.274v-1.162h1.232c.578 0 1.024-.065 1.337-.196.312-.135.469-.364.469-.686a.624.624 0 00-.203-.476c-.131-.126-.318-.221-.56-.287a3.196 3.196 0 00-.84-.098c-.397 0-.78.059-1.148.175a2.646 2.646 0 00-.966.54l-.574-1.03a3.667 3.667 0 011.288-.672 5.05 5.05 0 011.526-.238c.597 0 1.11.075 1.54.224.429.15.76.364.994.644.233.28.35.619.35 1.015 0 .355-.115.663-.343.924-.224.262-.551.45-.98.567.522.117.919.322 1.19.616.275.294.413.663.413 1.106 0 .467-.133.868-.399 1.204-.262.332-.635.588-1.12.77-.481.178-1.046.266-1.694.266zm4.894 2.772v-9.87h1.386v.973c.275-.35.628-.634 1.057-.854.429-.219.959-.329 1.589-.329.677 0 1.276.161 1.799.483.527.318.938.754 1.232 1.31.294.55.441 1.178.441 1.882 0 .51-.084.987-.252 1.435a3.532 3.532 0 01-.721 1.17c-.308.335-.677.6-1.106.79-.425.187-.896.28-1.414.28-.541 0-1.017-.098-1.428-.294a3.208 3.208 0 01-1.05-.79v3.814h-1.533zm3.752-4.095c.429 0 .81-.093 1.141-.28.336-.19.597-.46.784-.805.191-.345.287-.753.287-1.225 0-.47-.096-.88-.287-1.225a1.99 1.99 0 00-.791-.805 2.268 2.268 0 00-1.134-.28c-.429 0-.812.094-1.148.28a2.005 2.005 0 00-.784.805c-.191.346-.287.754-.287 1.225 0 .472.096.88.287 1.225.191.346.453.614.784.805.336.187.719.28 1.148.28zm8.3 1.365c-.69 0-1.302-.158-1.834-.476a3.47 3.47 0 01-1.246-1.309c-.298-.555-.448-1.185-.448-1.89 0-.527.087-1.015.259-1.463.173-.448.416-.837.728-1.169a3.25 3.25 0 011.12-.77 3.639 3.639 0 011.421-.273c.682 0 1.251.145 1.708.434.462.29.815.663 1.057 1.12l-.217.33v-1.674h1.372v6.93h-1.372v-1.673l.217.33a2.93 2.93 0 01-1.057 1.12c-.457.289-1.026.433-1.708.433zm.203-1.365c.42 0 .796-.093 1.127-.28.332-.19.591-.46.777-.805.192-.345.287-.753.287-1.225 0-.47-.095-.88-.287-1.225a1.95 1.95 0 00-.777-.805 2.255 2.255 0 00-1.127-.28 2.28 2.28 0 00-1.134.28 2.027 2.027 0 00-.777.805c-.191.346-.287.754-.287 1.225 0 .472.096.88.287 1.225.192.346.451.614.777.805.332.187.71.28 1.134.28zm9.248 1.365c-.583 0-1.11-.1-1.582-.3a3.299 3.299 0 01-1.204-.869 3.99 3.99 0 01-.763-1.393c-.172-.55-.259-1.176-.259-1.876 0-.77.059-1.46.175-2.072.122-.61.311-1.14.567-1.589a3.398 3.398 0 011.029-1.106c.43-.289.95-.497 1.561-.623l3.318-.672.252 1.337-3.227.623c-.541.112-.966.292-1.274.54a2.175 2.175 0 00-.679.944c-.144.383-.24.833-.287 1.351a3.33 3.33 0 011.099-.952c.439-.238.95-.357 1.533-.357.658 0 1.239.157 1.743.47.509.307.906.72 1.19 1.238.285.518.427 1.092.427 1.722 0 .49-.086.952-.259 1.386a3.381 3.381 0 01-.735 1.148 3.491 3.491 0 01-1.148.77 3.76 3.76 0 01-1.477.28zm-.035-1.365c.406 0 .768-.088 1.085-.266.322-.182.574-.436.756-.763.182-.33.273-.723.273-1.176 0-.452-.091-.842-.273-1.169a1.89 1.89 0 00-.756-.763 2.14 2.14 0 00-1.085-.273c-.406 0-.77.091-1.092.273a1.904 1.904 0 00-.749.763c-.182.327-.273.717-.273 1.17 0 .452.091.844.273 1.175.182.327.432.581.749.763.322.178.686.266 1.092.266zm8.5 1.365c-.724 0-1.37-.165-1.939-.497a3.687 3.687 0 01-1.33-1.337 3.629 3.629 0 01-.483-1.84 3.617 3.617 0 011.057-2.577c.34-.34.739-.609 1.197-.805a3.78 3.78 0 011.505-.294c.723 0 1.367.168 1.932.504a3.606 3.606 0 011.337 1.337 3.59 3.59 0 01.483 1.834c0 .49-.094.957-.28 1.4a3.613 3.613 0 01-.777 1.176 3.68 3.68 0 01-1.19.805 3.804 3.804 0 01-1.512.294zm0-1.365c.429 0 .809-.093 1.141-.28.336-.19.599-.46.791-.805.191-.345.287-.753.287-1.225 0-.47-.096-.88-.287-1.225a1.996 1.996 0 00-.791-.805 2.287 2.287 0 00-1.141-.28c-.43 0-.812.094-1.148.28a1.998 1.998 0 00-.784.805c-.187.346-.28.754-.28 1.225 0 .472.095.88.287 1.225.191.346.452.614.784.805.336.187.716.28 1.141.28zm6.852 1.155V26.41h-2.275v-1.274h6.097v1.274h-2.282v5.656h-1.54zm9.841 0l-2.296-3.682 2.135-3.248h1.645l-2.121 3.178 2.478 3.752h-1.841zm-4.606 0v-6.93h1.54v2.674h2.086v1.274h-2.086v2.982h-1.54zm10.603.21c-.691 0-1.302-.158-1.834-.476a3.455 3.455 0 01-1.246-1.309c-.299-.555-.448-1.185-.448-1.89 0-.527.086-1.015.259-1.463.172-.448.415-.837.728-1.169a3.24 3.24 0 011.12-.77 3.635 3.635 0 011.421-.273c.681 0 1.25.145 1.708.434.462.29.814.663 1.057 1.12l-.217.33v-1.674h1.372v6.93h-1.372v-1.673l.217.33a2.93 2.93 0 01-1.057 1.12c-.458.289-1.027.433-1.708.433zm.203-1.365c.42 0 .795-.093 1.127-.28.331-.19.59-.46.777-.805.191-.345.287-.753.287-1.225 0-.47-.096-.88-.287-1.225a1.963 1.963 0 00-.777-.805 2.257 2.257 0 00-1.127-.28c-.425 0-.803.094-1.134.28a2.014 2.014 0 00-.777.805c-.192.346-.287.754-.287 1.225 0 .472.095.88.287 1.225.191.346.45.614.777.805.331.187.709.28 1.134.28zm-61.267 19.155V44.41h-2.8v.917c0 .63-.038 1.2-.112 1.708a4.514 4.514 0 01-.399 1.344c-.192.383-.46.7-.805.952-.341.252-.777.437-1.309.553l-.378-1.043c.443-.107.777-.308 1.001-.602.224-.294.373-.68.448-1.162.079-.485.119-1.068.119-1.75v-2.19h5.775v6.93h-1.54zm-5.803 2.1v-3.325l.952.098.238-.147h7.546v3.374h-1.407v-2.1h-5.922v2.1h-1.407zm10.094-2.1v-6.93h1.491v4.676l3.759-4.676h1.344v6.93h-1.484v-4.732l-3.794 4.732h-1.316zm11.074.168c-.387 0-.761-.03-1.12-.09a4.984 4.984 0 01-1.015-.267 3.357 3.357 0 01-.861-.497l.672-1.043a2.75 2.75 0 001.043.54c.401.107.81.16 1.225.16.565 0 1.01-.081 1.337-.245.327-.168.49-.443.49-.826 0-.336-.173-.576-.518-.72-.341-.145-.838-.218-1.491-.218h-1.274v-1.162h1.232c.579 0 1.024-.065 1.337-.196.313-.135.469-.364.469-.686a.624.624 0 00-.203-.476c-.131-.126-.317-.221-.56-.287a3.196 3.196 0 00-.84-.098c-.397 0-.779.059-1.148.175a2.646 2.646 0 00-.966.54l-.574-1.03a3.676 3.676 0 011.288-.672 5.056 5.056 0 011.526-.238c.597 0 1.111.075 1.54.224.429.15.761.364.994.644.233.28.35.619.35 1.015 0 .355-.114.663-.343.924-.224.262-.551.45-.98.567.523.117.919.322 1.19.616.275.294.413.663.413 1.106 0 .467-.133.868-.399 1.204-.261.332-.635.588-1.12.77-.481.178-1.045.266-1.694.266zm7.828.042c-.691 0-1.302-.158-1.834-.476a3.455 3.455 0 01-1.246-1.309c-.299-.555-.448-1.185-.448-1.89 0-.527.086-1.015.259-1.463.172-.448.415-.837.728-1.169a3.24 3.24 0 011.12-.77 3.635 3.635 0 011.421-.273c.681 0 1.25.145 1.708.434.462.29.814.663 1.057 1.12l-.217.33v-1.674h1.372v6.93h-1.372v-1.673l.217.33a2.93 2.93 0 01-1.057 1.12c-.458.289-1.027.433-1.708.433zm.203-1.365c.42 0 .795-.093 1.127-.28.331-.19.59-.46.777-.805.191-.345.287-.753.287-1.225 0-.47-.096-.88-.287-1.225a1.963 1.963 0 00-.777-.805 2.257 2.257 0 00-1.127-.28c-.425 0-.803.094-1.134.28a2.014 2.014 0 00-.777.805c-.192.346-.287.754-.287 1.225 0 .472.095.88.287 1.225.191.346.45.614.777.805.331.187.709.28 1.134.28zm5.86 1.155v-6.93h1.491v4.676l3.759-4.676h1.344v6.93h-1.484v-4.732l-3.794 4.732h-1.316zm3.297-8.12c-.518 0-.973-.107-1.365-.322a2.282 2.282 0 01-.91-.889c-.215-.378-.315-.812-.301-1.302h1.288c-.019.43.088.777.322 1.043.238.262.56.392.966.392.406 0 .725-.13.959-.392.233-.266.338-.613.315-1.043h1.295a2.44 2.44 0 01-.315 1.295 2.336 2.336 0 01-.91.896c-.388.215-.836.322-1.344.322zm5.439 8.12v-6.93h1.54v2.674h3.472v-2.674h1.54v6.93h-1.54v-2.982h-3.472v2.982h-1.54zm11.628.21c-.69 0-1.302-.158-1.834-.476a3.47 3.47 0 01-1.246-1.309c-.298-.555-.448-1.185-.448-1.89 0-.527.087-1.015.259-1.463.173-.448.416-.837.728-1.169a3.25 3.25 0 011.12-.77 3.639 3.639 0 011.421-.273c.682 0 1.251.145 1.708.434.462.29.815.663 1.057 1.12l-.217.33v-1.674h1.372v6.93h-1.372v-1.673l.217.33a2.93 2.93 0 01-1.057 1.12c-.457.289-1.026.433-1.708.433zm.203-1.365c.42 0 .796-.093 1.127-.28.332-.19.591-.46.777-.805.192-.345.287-.753.287-1.225 0-.47-.095-.88-.287-1.225a1.95 1.95 0 00-.777-.805 2.255 2.255 0 00-1.127-.28 2.28 2.28 0 00-1.134.28 2.027 2.027 0 00-.777.805c-.191.346-.287.754-.287 1.225 0 .472.096.88.287 1.225.192.346.451.614.777.805.332.187.71.28 1.134.28z" fill="#fff"/><circle cx="266" cy="82.566" r="8.5" fill="#fff"/><circle cx="266" cy="82.566" r="16" stroke="#1D4ED8"/><g clip-path="url(#clip2_561_16115)"><path d="M269.805 121.089l5.195 5.195v2.782h-2.782l-5.196-5.195 2.783-2.782zm-12.229-6.664l4.581 4.581 2.783-2.783-4.581-4.581a1.969 1.969 0 00-2.783 2.783zm6.575 7.491a3.755 3.755 0 00-5.31 0c-1.466 1.466-1.841 7.15-1.841 7.15s5.684-.375 7.151-1.841a3.754 3.754 0 000-5.309zm10.273-10.274a1.969 1.969 0 00-2.783 0l-8.094 8.095a5.195 5.195 0 012.781 2.783l8.095-8.094a1.969 1.969 0 000-2.783l.001-.001z" fill="#fff"/></g><circle cx="396.5" cy="202.566" r="16" stroke="#1D4ED8"/><circle cx="396.5" cy="202.566" r="8.5" fill="#fff"/><g clip-path="url(#clip3_561_16115)"><path d="M402.5 156.066h-12c-1.655 0-3 1.346-3 3v9c0 1.655 1.345 3 3 3h2.192l2.811 2.367a1.51 1.51 0 001.004.382c.35 0 .698-.122.969-.364l2.885-2.385h2.139c1.655 0 3-1.345 3-3v-9c0-1.654-1.345-3-3-3zm-9.53 8.033l1.937 1.937a.75.75 0 11-1.061 1.061l-1.937-1.938a2.253 2.253 0 010-3.182l1.937-1.937a.75.75 0 011.061 1.06l-1.937 1.938a.75.75 0 000 1.061zm8.121 1.06l-1.938 1.938a.747.747 0 01-1.06 0 .75.75 0 010-1.061l1.937-1.937a.75.75 0 000-1.061l-1.937-1.938a.749.749 0 111.06-1.06l1.938 1.937a2.253 2.253 0 010 3.182z" fill="#fff"/></g><path opacity=".6" d="M320.432 245.066v-9.8h3.367c.938 0 1.697.21 2.275.63.579.416.868 1.029.868 1.841 0 .313-.074.609-.224.889a2.565 2.565 0 01-.567.728c-.233.21-.476.364-.728.462.532.164.976.462 1.33.896.36.434.539.969.539 1.603 0 .537-.135 1.013-.406 1.428-.27.411-.655.735-1.155.973-.499.234-1.092.35-1.778.35h-3.521zm1.568-1.232h1.687c.672 0 1.172-.13 1.498-.392.327-.266.49-.665.49-1.197 0-.527-.165-.928-.497-1.204-.326-.275-.833-.413-1.519-.413H322v3.206zm0-4.382h1.554c.378 0 .705-.06.98-.182a1.46 1.46 0 00.644-.525c.154-.228.231-.504.231-.826 0-.457-.163-.807-.49-1.05-.322-.247-.784-.371-1.386-.371H322v2.954zm10.266 5.824c-.746 0-1.402-.151-1.967-.455a3.352 3.352 0 01-1.323-1.288c-.312-.55-.469-1.19-.469-1.918 0-.532.091-1.022.273-1.47.182-.452.439-.844.77-1.176a3.526 3.526 0 011.162-.77 3.852 3.852 0 011.463-.273c.574 0 1.085.103 1.533.308.448.201.819.483 1.113.847.299.364.509.791.63 1.281.126.486.147 1.013.063 1.582h-5.53c-.009.416.082.78.273 1.092.192.308.465.549.819.721.36.173.782.259 1.267.259.392 0 .77-.058 1.134-.175a3.243 3.243 0 001.001-.532l.595 1.106a3.195 3.195 0 01-.812.469 5.365 5.365 0 01-.994.287c-.345.07-.679.105-1.001.105zm-2.191-4.466h3.927c-.014-.522-.182-.933-.504-1.232-.317-.298-.77-.448-1.358-.448-.569 0-1.043.15-1.421.448-.373.299-.588.71-.644 1.232zm.553-3.899a.98.98 0 01-.679-.266.885.885 0 01-.287-.679.94.94 0 01.133-.497.947.947 0 01.833-.455.95.95 0 01.665.266.884.884 0 01.294.686.926.926 0 01-.133.497.92.92 0 01-.357.329.95.95 0 01-.469.119zm3.031 0a.98.98 0 01-.679-.266.885.885 0 01-.287-.679.94.94 0 01.133-.497.947.947 0 01.833-.455.95.95 0 01.665.266.884.884 0 01.294.686.926.926 0 01-.133.497.92.92 0 01-.357.329.95.95 0 01-.469.119zm3.455 11.095v-9.87h1.386v.973c.275-.35.628-.634 1.057-.854.429-.219.959-.329 1.589-.329.677 0 1.276.161 1.799.483.527.318.938.754 1.232 1.309.294.551.441 1.179.441 1.883 0 .509-.084.987-.252 1.435a3.525 3.525 0 01-.721 1.169c-.308.336-.677.6-1.106.791-.425.187-.896.28-1.414.28-.541 0-1.017-.098-1.428-.294a3.198 3.198 0 01-1.05-.791v3.815h-1.533zm3.752-4.095c.429 0 .81-.093 1.141-.28.336-.191.597-.459.784-.805.191-.345.287-.753.287-1.225 0-.471-.096-.879-.287-1.225a1.991 1.991 0 00-.791-.805 2.275 2.275 0 00-1.134-.28c-.429 0-.812.094-1.148.28a2.006 2.006 0 00-.784.805c-.191.346-.287.754-.287 1.225 0 .472.096.88.287 1.225.191.346.453.614.784.805.336.187.719.28 1.148.28zm8.545 1.365c-.728 0-1.377-.158-1.946-.476a3.587 3.587 0 01-1.344-1.309c-.322-.555-.483-1.185-.483-1.89 0-.532.096-1.019.287-1.463.191-.448.462-.837.812-1.169.35-.331.761-.588 1.232-.77a4.297 4.297 0 011.547-.273c.467 0 .898.063 1.295.189.401.122.77.311 1.106.567l-.742 1.176a2.119 2.119 0 00-.742-.427 2.735 2.735 0 00-.882-.14c-.485 0-.903.091-1.253.273a1.97 1.97 0 00-.819.791c-.191.341-.287.754-.287 1.239 0 .724.21 1.291.63 1.701.425.411 1.001.616 1.729.616.345 0 .672-.063.98-.189.308-.13.565-.301.77-.511l.735 1.169c-.369.28-.779.5-1.232.658a4.175 4.175 0 01-1.393.238zm5.588-.21v-5.656h-2.275v-1.274h6.097v1.274h-2.282v5.656h-1.54zm9.84 0l-2.296-3.682 2.135-3.248h1.645l-2.121 3.178 2.478 3.752h-1.841zm-4.606 0v-6.93h1.54v2.674h2.086v1.274h-2.086v2.982h-1.54zm10.603.21c-.691 0-1.302-.158-1.834-.476a3.46 3.46 0 01-1.246-1.309c-.299-.555-.448-1.185-.448-1.89 0-.527.086-1.015.259-1.463.173-.448.415-.837.728-1.169a3.254 3.254 0 011.12-.77 3.639 3.639 0 011.421-.273c.681 0 1.251.145 1.708.434.462.29.814.663 1.057 1.12l-.217.329v-1.673h1.372v6.93h-1.372v-1.673l.217.329a2.923 2.923 0 01-1.057 1.12c-.457.29-1.027.434-1.708.434zm.203-1.365c.42 0 .796-.093 1.127-.28.331-.191.59-.459.777-.805.191-.345.287-.753.287-1.225 0-.471-.096-.879-.287-1.225a1.965 1.965 0 00-.777-.805 2.262 2.262 0 00-1.127-.28c-.425 0-.803.094-1.134.28a2.016 2.016 0 00-.777.805c-.191.346-.287.754-.287 1.225 0 .472.096.88.287 1.225.191.346.45.614.777.805.331.187.709.28 1.134.28zm9.292 1.155v-6.93h1.491v4.676l3.759-4.676h1.344v6.93h-1.484v-4.732l-3.794 4.732h-1.316zm12.168 0v-6.93h1.491v4.676l3.759-4.676h1.344v6.93h-1.484v-4.732l-3.794 4.732h-1.316zm8.736 0v-6.93h1.54v2.674h3.472v-2.674h1.54v6.93h-1.54v-2.982h-3.472v2.982h-1.54zm10.242 0v-5.656h-2.275v-1.274h6.097v1.274h-2.282v5.656h-1.54zm8.399.21c-.747 0-1.403-.151-1.967-.455a3.339 3.339 0 01-1.323-1.288c-.313-.55-.469-1.19-.469-1.918 0-.532.091-1.022.273-1.47a3.48 3.48 0 011.932-1.946 3.848 3.848 0 011.463-.273c.574 0 1.085.103 1.533.308.448.201.819.483 1.113.847.298.364.508.791.63 1.281.126.486.147 1.013.063 1.582h-5.53c-.01.416.081.78.273 1.092.191.308.464.549.819.721.359.173.781.259 1.267.259.392 0 .77-.058 1.134-.175a3.266 3.266 0 001.001-.532l.595 1.106a3.213 3.213 0 01-.812.469 5.41 5.41 0 01-.994.287c-.346.07-.679.105-1.001.105zm-2.191-4.466h3.927c-.014-.522-.182-.933-.504-1.232-.318-.298-.77-.448-1.358-.448-.57 0-1.043.15-1.421.448-.374.299-.588.71-.644 1.232zm7.038 4.256v-6.93h4.564v1.274h-3.024v5.656h-1.54zm5.989 2.94v-9.87h1.386v.973c.275-.35.627-.634 1.057-.854.429-.219.959-.329 1.589-.329.676 0 1.276.161 1.799.483.527.318.938.754 1.232 1.309.294.551.441 1.179.441 1.883 0 .509-.084.987-.252 1.435a3.541 3.541 0 01-.721 1.169c-.308.336-.677.6-1.106.791-.425.187-.896.28-1.414.28-.542 0-1.018-.098-1.428-.294a3.198 3.198 0 01-1.05-.791v3.815h-1.533zm3.752-4.095c.429 0 .809-.093 1.141-.28.336-.191.597-.459.784-.805.191-.345.287-.753.287-1.225 0-.471-.096-.879-.287-1.225a1.997 1.997 0 00-.791-.805 2.28 2.28 0 00-1.134-.28c-.43 0-.812.094-1.148.28a2 2 0 00-.784.805c-.192.346-.287.754-.287 1.225 0 .472.095.88.287 1.225.191.346.452.614.784.805.336.187.718.28 1.148.28zm8.3 1.365c-.691 0-1.302-.158-1.834-.476a3.453 3.453 0 01-1.246-1.309c-.299-.555-.448-1.185-.448-1.89 0-.527.086-1.015.259-1.463.172-.448.415-.837.728-1.169a3.245 3.245 0 011.12-.77 3.635 3.635 0 011.421-.273c.681 0 1.25.145 1.708.434.462.29.814.663 1.057 1.12l-.217.329v-1.673h1.372v6.93h-1.372v-1.673l.217.329a2.923 2.923 0 01-1.057 1.12c-.458.29-1.027.434-1.708.434zm.203-1.365c.42 0 .795-.093 1.127-.28.331-.191.59-.459.777-.805.191-.345.287-.753.287-1.225 0-.471-.096-.879-.287-1.225a1.965 1.965 0 00-.777-.805 2.265 2.265 0 00-1.127-.28c-.425 0-.803.094-1.134.28a2.016 2.016 0 00-.777.805c-.192.346-.287.754-.287 1.225 0 .472.095.88.287 1.225.191.346.45.614.777.805.331.187.709.28 1.134.28zm5.86 1.155v-6.93h1.54v5.656h3.311v-5.656h1.54v6.93h-6.391zm6.755 2.1v-2.1h-1.134v-1.274h2.548v3.374h-1.414zm2.774-2.1v-6.93h1.491v4.676l3.759-4.676h1.344v6.93h-1.484v-4.732l-3.794 4.732h-1.316zm8.253 0l2.66-3.549.336.994c-.574.005-1.064-.079-1.47-.252-.406-.177-.716-.424-.931-.742-.21-.322-.315-.702-.315-1.141 0-.471.119-.872.357-1.204.238-.336.574-.592 1.008-.77.434-.177.943-.266 1.526-.266h2.989v6.93h-1.484v-5.761h-1.351c-.494 0-.87.087-1.127.259-.252.173-.378.432-.378.777 0 .336.117.598.35.784.238.182.581.273 1.029.273h1.673v1.12h-1.218l-1.897 2.548h-1.757zm-98.002 18v-6.93h6.545v6.93h-1.54v-5.656h-3.465v5.656h-1.54zm8.682 2.94v-9.87h1.386v.973c.275-.35.627-.634 1.057-.854.429-.219.959-.329 1.589-.329.676 0 1.276.161 1.799.483.527.318.938.754 1.232 1.309.294.551.441 1.179.441 1.883 0 .509-.084.987-.252 1.435a3.541 3.541 0 01-.721 1.169c-.308.336-.677.6-1.106.791-.425.187-.896.28-1.414.28-.542 0-1.018-.098-1.428-.294a3.198 3.198 0 01-1.05-.791v3.815h-1.533zm3.752-4.095c.429 0 .809-.093 1.141-.28.336-.191.597-.459.784-.805.191-.345.287-.753.287-1.225 0-.471-.096-.879-.287-1.225a1.997 1.997 0 00-.791-.805 2.28 2.28 0 00-1.134-.28c-.43 0-.812.094-1.148.28a2 2 0 00-.784.805c-.192.346-.287.754-.287 1.225 0 .472.095.88.287 1.225.191.346.452.614.784.805.336.187.718.28 1.148.28zm8.524 1.365c-.723 0-1.37-.165-1.939-.497a3.682 3.682 0 01-1.33-1.337 3.627 3.627 0 01-.483-1.841 3.62 3.62 0 011.057-2.576 3.8 3.8 0 011.197-.805 3.78 3.78 0 011.505-.294c.723 0 1.367.168 1.932.504a3.611 3.611 0 011.337 1.337c.322.556.483 1.167.483 1.834 0 .49-.093.957-.28 1.4a3.599 3.599 0 01-.777 1.176 3.697 3.697 0 01-1.19.805 3.797 3.797 0 01-1.512.294zm0-1.365c.429 0 .81-.093 1.141-.28.336-.191.6-.459.791-.805.191-.345.287-.753.287-1.225 0-.471-.096-.879-.287-1.225a1.991 1.991 0 00-.791-.805 2.291 2.291 0 00-1.141-.28c-.429 0-.812.094-1.148.28a2.006 2.006 0 00-.784.805c-.187.346-.28.754-.28 1.225 0 .472.096.88.287 1.225.191.346.453.614.784.805.336.187.716.28 1.141.28zm8.538 1.365c-.747 0-1.402-.151-1.967-.455a3.339 3.339 0 01-1.323-1.288c-.313-.55-.469-1.19-.469-1.918 0-.532.091-1.022.273-1.47.182-.452.439-.844.77-1.176a3.516 3.516 0 011.162-.77 3.852 3.852 0 011.463-.273c.574 0 1.085.103 1.533.308.448.201.819.483 1.113.847.299.364.509.791.63 1.281.126.486.147 1.013.063 1.582h-5.53c-.009.416.082.78.273 1.092.191.308.464.549.819.721.359.173.782.259 1.267.259.392 0 .77-.058 1.134-.175a3.254 3.254 0 001.001-.532l.595 1.106a3.213 3.213 0 01-.812.469 5.388 5.388 0 01-.994.287c-.345.07-.679.105-1.001.105zm-2.191-4.466h3.927c-.014-.522-.182-.933-.504-1.232-.317-.298-.77-.448-1.358-.448-.569 0-1.043.15-1.421.448-.373.299-.588.71-.644 1.232zm11.645 4.256l-2.296-3.682 2.135-3.248h1.645l-2.121 3.178 2.478 3.752h-1.841zm-4.606 0v-6.93h1.54v2.674h2.086v1.274h-2.086v2.982h-1.54zm9.354 0v-5.656h-2.275v-1.274h6.097v1.274h-2.282v5.656h-1.54zm8.167.21c-.691 0-1.302-.158-1.834-.476a3.453 3.453 0 01-1.246-1.309c-.299-.555-.448-1.185-.448-1.89 0-.527.086-1.015.259-1.463.172-.448.415-.837.728-1.169a3.245 3.245 0 011.12-.77 3.635 3.635 0 011.421-.273c.681 0 1.25.145 1.708.434.462.29.814.663 1.057 1.12l-.217.329v-1.673h1.372v6.93h-1.372v-1.673l.217.329a2.923 2.923 0 01-1.057 1.12c-.458.29-1.027.434-1.708.434zm.203-1.365c.42 0 .795-.093 1.127-.28.331-.191.59-.459.777-.805.191-.345.287-.753.287-1.225 0-.471-.096-.879-.287-1.225a1.965 1.965 0 00-.777-.805 2.265 2.265 0 00-1.127-.28c-.425 0-.803.094-1.134.28a2.016 2.016 0 00-.777.805c-.192.346-.287.754-.287 1.225 0 .472.095.88.287 1.225.191.346.45.614.777.805.331.187.709.28 1.134.28z" fill="#fff"/><circle cx="654.5" cy="202.566" r="16" stroke="#1D4ED8"/><circle cx="654.5" cy="202.566" r="8.5" fill="#fff"/><g clip-path="url(#clip4_561_16115)"><g clip-path="url(#clip5_561_16115)" fill="#fff"><path d="M661.071 156.979c.988.18 1.753.956 1.944 1.925.035.177.051.407.049.689-.005.488-.005.973-.001 1.455a.015.015 0 01-.004.01.013.013 0 01-.01.004h-16.093c-.012 0-.018-.006-.018-.018-.001-.603 0-1.207.005-1.812.001-.131.023-.284.068-.46a2.45 2.45 0 011.412-1.642c.341-.148.689-.195 1.068-.194 3.654.003 7.326.003 11.015 0 .215-.001.403.014.565.043zm-10.573 2.208a.562.562 0 10-1.123 0 .562.562 0 001.123 0zm1.875 0a.557.557 0 00-.562-.562.558.558 0 00-.561.562.562.562 0 101.123 0zm1.875 0a.562.562 0 10-1.123 0 .562.562 0 001.123 0zm8.771 11.901a2.439 2.439 0 01-1.905 1.924 3.548 3.548 0 01-.692.052c-3.575-.005-7.151-.005-10.726.001a5.05 5.05 0 01-.688-.032 2.435 2.435 0 01-2.022-1.937 3.339 3.339 0 01-.048-.651c.003-2.738.003-5.487.001-8.246 0-.003.001-.006.003-.008a.011.011 0 01.008-.003h16.093c.014 0 .021.006.021.02-.002 2.739-.002 5.482.001 8.23 0 .276-.015.493-.046.65zm-11.41-5.026l-.696-.696c-.434-.434-1.141-.002-.939.578a.697.697 0 00.177.253c.222.218.446.441.67.668a.021.021 0 01.004.011.015.015 0 01-.004.009l-.714.714a.563.563 0 00.613.919.87.87 0 00.256-.195c.207-.212.42-.425.64-.641a.021.021 0 01.011-.004c.004 0 .008.002.011.004.208.205.427.425.658.661.088.09.172.15.25.18.572.22 1.027-.495.598-.926l-.713-.713a.016.016 0 01-.003-.009l.003-.009c.202-.203.428-.43.681-.679.161-.159.24-.351.183-.573a.562.562 0 00-.764-.382c-.076.03-.181.115-.315.254-.201.208-.392.4-.576.576-.01.01-.021.01-.031 0zm5.625 1.124l-1.075-1.074c-.438-.438-1.142.014-.931.596a.71.71 0 00.179.245c.492.485.968.961 1.428 1.429a.568.568 0 00.816.012c.777-.775 1.528-1.527 2.256-2.255a.563.563 0 10-.818-.773l-1.82 1.82c-.012.012-.023.012-.035 0z"/></g></g><path opacity=".6" d="M577.266 245.066v-8.365h-2.758v-1.435h7.084v1.435h-2.758v8.365h-1.568zm8.154.21c-.747 0-1.403-.151-1.967-.455a3.339 3.339 0 01-1.323-1.288c-.313-.55-.469-1.19-.469-1.918 0-.532.091-1.022.273-1.47a3.48 3.48 0 011.932-1.946 3.848 3.848 0 011.463-.273c.574 0 1.085.103 1.533.308.448.201.819.483 1.113.847.298.364.508.791.63 1.281.126.486.147 1.013.063 1.582h-5.53c-.01.416.081.78.273 1.092.191.308.464.549.819.721.359.173.781.259 1.267.259.392 0 .77-.058 1.134-.175a3.266 3.266 0 001.001-.532l.595 1.106a3.213 3.213 0 01-.812.469 5.41 5.41 0 01-.994.287c-.346.07-.679.105-1.001.105zm-2.191-4.466h3.927c-.014-.522-.182-.933-.504-1.232-.318-.298-.77-.448-1.358-.448-.57 0-1.043.15-1.421.448-.374.299-.588.71-.644 1.232zm10.285 4.466c-.728 0-1.377-.158-1.946-.476a3.572 3.572 0 01-1.344-1.309c-.322-.555-.483-1.185-.483-1.89 0-.532.095-1.019.287-1.463.191-.448.462-.837.812-1.169.35-.331.76-.588 1.232-.77a4.293 4.293 0 011.547-.273c.466 0 .898.063 1.295.189.401.122.77.311 1.106.567l-.742 1.176a2.119 2.119 0 00-.742-.427 2.744 2.744 0 00-.882-.14c-.486 0-.903.091-1.253.273a1.97 1.97 0 00-.819.791c-.192.341-.287.754-.287 1.239 0 .724.21 1.291.63 1.701.424.411 1.001.616 1.729.616.345 0 .672-.063.98-.189.308-.13.564-.301.77-.511l.735 1.169c-.369.28-.78.5-1.232.658a4.175 4.175 0 01-1.393.238zm5.587-.21v-5.656h-2.275v-1.274h6.097v1.274h-2.282v5.656h-1.54zm5.235 0v-6.93h1.491v4.676l3.759-4.676h1.344v6.93h-1.484v-4.732l-3.794 4.732h-1.316zm8.736 2.94v-9.87h1.386v.973c.275-.35.628-.634 1.057-.854.429-.219.959-.329 1.589-.329.677 0 1.276.161 1.799.483.527.318.938.754 1.232 1.309.294.551.441 1.179.441 1.883 0 .509-.084.987-.252 1.435a3.525 3.525 0 01-.721 1.169c-.308.336-.677.6-1.106.791-.425.187-.896.28-1.414.28-.541 0-1.017-.098-1.428-.294a3.198 3.198 0 01-1.05-.791v3.815h-1.533zm3.752-4.095c.429 0 .81-.093 1.141-.28.336-.191.597-.459.784-.805.191-.345.287-.753.287-1.225 0-.471-.096-.879-.287-1.225a1.991 1.991 0 00-.791-.805 2.275 2.275 0 00-1.134-.28c-.429 0-.812.094-1.148.28a2.006 2.006 0 00-.784.805c-.191.346-.287.754-.287 1.225 0 .472.096.88.287 1.225.191.346.453.614.784.805.336.187.719.28 1.148.28zm8.524 1.365c-.723 0-1.37-.165-1.939-.497a3.682 3.682 0 01-1.33-1.337 3.627 3.627 0 01-.483-1.841 3.62 3.62 0 011.057-2.576 3.8 3.8 0 011.197-.805 3.78 3.78 0 011.505-.294c.723 0 1.367.168 1.932.504a3.611 3.611 0 011.337 1.337c.322.556.483 1.167.483 1.834 0 .49-.093.957-.28 1.4a3.599 3.599 0 01-.777 1.176 3.697 3.697 0 01-1.19.805 3.797 3.797 0 01-1.512.294zm0-1.365c.429 0 .81-.093 1.141-.28.336-.191.6-.459.791-.805.191-.345.287-.753.287-1.225 0-.471-.096-.879-.287-1.225a1.991 1.991 0 00-.791-.805 2.291 2.291 0 00-1.141-.28c-.429 0-.812.094-1.148.28a2.006 2.006 0 00-.784.805c-.187.346-.28.754-.28 1.225 0 .472.096.88.287 1.225.191.346.453.614.784.805.336.187.716.28 1.141.28zm5.306 1.155v-6.93h3.304c.784 0 1.412.15 1.883.448.471.299.707.747.707 1.344 0 .28-.068.53-.203.749a1.665 1.665 0 01-.56.539c-.238.145-.516.25-.833.315l-.028-.343c.611.084 1.085.287 1.421.609.336.322.504.731.504 1.225 0 .42-.11.784-.329 1.092-.219.304-.534.539-.945.707-.411.164-.903.245-1.477.245h-3.444zm1.491-1.141h1.743c.462 0 .817-.077 1.064-.231.252-.154.378-.385.378-.693 0-.303-.124-.529-.371-.679-.247-.154-.604-.231-1.071-.231h-1.946v-1.099h1.785c.434 0 .77-.065 1.008-.196.238-.135.357-.354.357-.658 0-.303-.119-.522-.357-.658-.238-.14-.574-.21-1.008-.21h-1.582v4.655zm9.372 1.351c-.691 0-1.302-.158-1.834-.476a3.453 3.453 0 01-1.246-1.309c-.299-.555-.448-1.185-.448-1.89 0-.527.086-1.015.259-1.463.172-.448.415-.837.728-1.169a3.245 3.245 0 011.12-.77 3.635 3.635 0 011.421-.273c.681 0 1.25.145 1.708.434.462.29.814.663 1.057 1.12l-.217.329v-1.673h1.372v6.93h-1.372v-1.673l.217.329a2.923 2.923 0 01-1.057 1.12c-.458.29-1.027.434-1.708.434zm.203-1.365c.42 0 .795-.093 1.127-.28.331-.191.59-.459.777-.805.191-.345.287-.753.287-1.225 0-.471-.096-.879-.287-1.225a1.965 1.965 0 00-.777-.805 2.265 2.265 0 00-1.127-.28c-.425 0-.803.094-1.134.28a2.016 2.016 0 00-.777.805c-.192.346-.287.754-.287 1.225 0 .472.095.88.287 1.225.191.346.45.614.777.805.331.187.709.28 1.134.28zm5.86 1.155v-6.93h1.54v2.674h3.472v-2.674h1.54v6.93h-1.54v-2.982h-3.472v2.982h-1.54zm8.695 0v-6.93h1.491v4.676l3.759-4.676h1.344v6.93h-1.484v-4.732l-3.794 4.732h-1.316zm11.9.21c-.746 0-1.402-.151-1.967-.455a3.352 3.352 0 01-1.323-1.288c-.312-.55-.469-1.19-.469-1.918 0-.532.091-1.022.273-1.47.182-.452.439-.844.77-1.176a3.526 3.526 0 011.162-.77 3.852 3.852 0 011.463-.273c.574 0 1.085.103 1.533.308.448.201.819.483 1.113.847.299.364.509.791.63 1.281.126.486.147 1.013.063 1.582h-5.53c-.009.416.082.78.273 1.092.192.308.465.549.819.721.36.173.782.259 1.267.259.392 0 .77-.058 1.134-.175a3.243 3.243 0 001.001-.532l.595 1.106a3.195 3.195 0 01-.812.469 5.365 5.365 0 01-.994.287c-.345.07-.679.105-1.001.105zm-2.191-4.466h3.927c-.014-.522-.182-.933-.504-1.232-.317-.298-.77-.448-1.358-.448-.569 0-1.043.15-1.421.448-.373.299-.588.71-.644 1.232zm10.471 4.256v-6.93h1.491v4.676l3.759-4.676h1.344v6.93h-1.484v-4.732l-3.794 4.732h-1.316zm14.506.168c-.388 0-.761-.03-1.12-.091a4.922 4.922 0 01-1.015-.266 3.304 3.304 0 01-.861-.497l.672-1.043c.294.248.641.427 1.043.539.401.108.809.161 1.225.161.564 0 1.01-.081 1.337-.245.326-.168.49-.443.49-.826 0-.336-.173-.576-.518-.721-.341-.144-.838-.217-1.491-.217h-1.274v-1.162h1.232c.578 0 1.024-.065 1.337-.196.312-.135.469-.364.469-.686a.624.624 0 00-.203-.476c-.131-.126-.318-.221-.56-.287a3.208 3.208 0 00-.84-.098c-.397 0-.78.059-1.148.175a2.66 2.66 0 00-.966.539l-.574-1.029a3.667 3.667 0 011.288-.672 5.073 5.073 0 011.526-.238c.597 0 1.11.075 1.54.224.429.15.76.364.994.644.233.28.35.619.35 1.015 0 .355-.115.663-.343.924-.224.262-.551.451-.98.567.522.117.919.322 1.19.616.275.294.413.663.413 1.106 0 .467-.133.868-.399 1.204-.262.332-.635.588-1.12.77-.481.178-1.046.266-1.694.266zm7.827.042c-.69 0-1.302-.158-1.834-.476a3.468 3.468 0 01-1.246-1.309c-.298-.555-.448-1.185-.448-1.89 0-.527.087-1.015.259-1.463.173-.448.416-.837.728-1.169a3.254 3.254 0 011.12-.77 3.639 3.639 0 011.421-.273c.682 0 1.251.145 1.708.434.462.29.815.663 1.057 1.12l-.217.329v-1.673h1.372v6.93h-1.372v-1.673l.217.329a2.916 2.916 0 01-1.057 1.12c-.457.29-1.026.434-1.708.434zm.203-1.365c.42 0 .796-.093 1.127-.28.332-.191.591-.459.777-.805.192-.345.287-.753.287-1.225 0-.471-.095-.879-.287-1.225a1.953 1.953 0 00-.777-.805 2.262 2.262 0 00-1.127-.28 2.28 2.28 0 00-1.134.28 2.03 2.03 0 00-.777.805c-.191.346-.287.754-.287 1.225 0 .472.096.88.287 1.225.192.346.451.614.777.805.332.187.71.28 1.134.28zm5.86 1.155v-6.93h6.545v6.93h-1.54v-5.656h-3.465v5.656h-1.54zm9.277 3.136c-.252 0-.499-.028-.742-.084a2.546 2.546 0 01-.714-.287l.35-1.316c.145.094.303.164.476.21.173.047.327.07.462.07.327 0 .583-.077.77-.231.187-.154.334-.392.441-.714l.231-.672-2.73-7.042h1.687l1.918 5.376 1.869-5.376h1.631l-2.996 7.931c-.215.556-.455.987-.721 1.295-.266.313-.56.53-.882.651a2.857 2.857 0 01-1.05.189zm9.966-2.926c-.728 0-1.377-.158-1.946-.476a3.572 3.572 0 01-1.344-1.309c-.322-.555-.483-1.185-.483-1.89 0-.532.095-1.019.287-1.463.191-.448.462-.837.812-1.169.35-.331.76-.588 1.232-.77a4.293 4.293 0 011.547-.273c.466 0 .898.063 1.295.189.401.122.77.311 1.106.567l-.742 1.176a2.119 2.119 0 00-.742-.427 2.744 2.744 0 00-.882-.14c-.486 0-.903.091-1.253.273a1.97 1.97 0 00-.819.791c-.192.341-.287.754-.287 1.239 0 .724.21 1.291.63 1.701.424.411 1.001.616 1.729.616.345 0 .672-.063.98-.189.308-.13.564-.301.77-.511l.735 1.169c-.369.28-.78.5-1.232.658a4.175 4.175 0 01-1.393.238zm8.646-.21l-2.296-3.682 2.135-3.248h1.645l-2.121 3.178 2.478 3.752h-1.841zm-4.606 0v-6.93h1.54v2.674h2.086v1.274h-2.086v2.982h-1.54zm-141.626 18v-6.93h1.491v4.676l3.759-4.676h1.344v6.93h-1.484v-4.732l-3.794 4.732h-1.316zm8.736 0v-6.93h1.54v2.674h3.472v-2.674h1.54v6.93h-1.54v-2.982h-3.472v2.982h-1.54zm10.242 0v-5.656h-2.275v-1.274h6.097v1.274h-2.282v5.656h-1.54zm8.398.21c-.746 0-1.402-.151-1.967-.455a3.352 3.352 0 01-1.323-1.288c-.312-.55-.469-1.19-.469-1.918 0-.532.091-1.022.273-1.47.182-.452.439-.844.77-1.176a3.526 3.526 0 011.162-.77 3.852 3.852 0 011.463-.273c.574 0 1.085.103 1.533.308.448.201.819.483 1.113.847.299.364.509.791.63 1.281.126.486.147 1.013.063 1.582h-5.53c-.009.416.082.78.273 1.092.192.308.465.549.819.721.36.173.782.259 1.267.259.392 0 .77-.058 1.134-.175a3.243 3.243 0 001.001-.532l.595 1.106a3.195 3.195 0 01-.812.469 5.365 5.365 0 01-.994.287c-.345.07-.679.105-1.001.105zm-2.191-4.466h3.927c-.014-.522-.182-.933-.504-1.232-.317-.298-.77-.448-1.358-.448-.569 0-1.043.15-1.421.448-.373.299-.588.71-.644 1.232zm7.039 7.196v-9.87h1.386v.973c.275-.35.628-.634 1.057-.854.429-.219.959-.329 1.589-.329.677 0 1.276.161 1.799.483.527.318.938.754 1.232 1.309.294.551.441 1.179.441 1.883 0 .509-.084.987-.252 1.435a3.525 3.525 0 01-.721 1.169c-.308.336-.677.6-1.106.791-.425.187-.896.28-1.414.28-.541 0-1.017-.098-1.428-.294a3.198 3.198 0 01-1.05-.791v3.815h-1.533zm3.752-4.095c.429 0 .81-.093 1.141-.28.336-.191.597-.459.784-.805.191-.345.287-.753.287-1.225 0-.471-.096-.879-.287-1.225a1.991 1.991 0 00-.791-.805 2.275 2.275 0 00-1.134-.28c-.429 0-.812.094-1.148.28a2.006 2.006 0 00-.784.805c-.191.346-.287.754-.287 1.225 0 .472.096.88.287 1.225.191.346.453.614.784.805.336.187.719.28 1.148.28zm5.299 1.155v-6.93h1.54v2.674h3.472v-2.674h1.54v6.93h-1.54v-2.982h-3.472v2.982h-1.54zm11.859.21c-.746 0-1.402-.151-1.967-.455a3.352 3.352 0 01-1.323-1.288c-.312-.55-.469-1.19-.469-1.918 0-.532.091-1.022.273-1.47.182-.452.439-.844.77-1.176a3.526 3.526 0 011.162-.77 3.852 3.852 0 011.463-.273c.574 0 1.085.103 1.533.308.448.201.819.483 1.113.847.299.364.509.791.63 1.281.126.486.147 1.013.063 1.582h-5.53c-.009.416.082.78.273 1.092.192.308.465.549.819.721.36.173.782.259 1.267.259.392 0 .77-.058 1.134-.175a3.243 3.243 0 001.001-.532l.595 1.106a3.195 3.195 0 01-.812.469 5.365 5.365 0 01-.994.287c-.345.07-.679.105-1.001.105zm-2.191-4.466h3.927c-.014-.522-.182-.933-.504-1.232-.317-.298-.77-.448-1.358-.448-.569 0-1.043.15-1.421.448-.373.299-.588.71-.644 1.232zm8.586 4.256v-5.656h-2.275v-1.274h6.097v1.274h-2.282v5.656h-1.54zm4.996-3.269v-1.337h3.78v1.337h-3.78zm5.68 3.269v-6.93h1.379l3.108 4.494-.665.014 2.954-4.508h1.365v6.93h-1.4l.021-5.124.287.126-2.478 3.619h-.994l-2.59-3.626.287-.126.021 5.131h-1.295zm13.214.21c-.691 0-1.302-.158-1.834-.476a3.46 3.46 0 01-1.246-1.309c-.299-.555-.448-1.185-.448-1.89 0-.527.086-1.015.259-1.463.173-.448.415-.837.728-1.169a3.254 3.254 0 011.12-.77 3.639 3.639 0 011.421-.273c.681 0 1.251.145 1.708.434.462.29.814.663 1.057 1.12l-.217.329v-1.673h1.372v6.93h-1.372v-1.673l.217.329a2.923 2.923 0 01-1.057 1.12c-.457.29-1.027.434-1.708.434zm.203-1.365c.42 0 .796-.093 1.127-.28.331-.191.59-.459.777-.805.191-.345.287-.753.287-1.225 0-.471-.096-.879-.287-1.225a1.965 1.965 0 00-.777-.805 2.262 2.262 0 00-1.127-.28c-.425 0-.803.094-1.134.28a2.016 2.016 0 00-.777.805c-.191.346-.287.754-.287 1.225 0 .472.096.88.287 1.225.191.346.45.614.777.805.331.187.709.28 1.134.28zm5.86 1.155v-6.93h4.564v1.274h-3.024v5.656h-1.54zm8.921.21c-.69 0-1.302-.158-1.834-.476a3.468 3.468 0 01-1.246-1.309c-.298-.555-.448-1.185-.448-1.89 0-.527.087-1.015.259-1.463.173-.448.416-.837.728-1.169a3.254 3.254 0 011.12-.77 3.639 3.639 0 011.421-.273c.682 0 1.251.145 1.708.434.462.29.815.663 1.057 1.12l-.217.329v-1.673h1.372v6.93h-1.372v-1.673l.217.329a2.916 2.916 0 01-1.057 1.12c-.457.29-1.026.434-1.708.434zm.203-1.365c.42 0 .796-.093 1.127-.28.332-.191.591-.459.777-.805.192-.345.287-.753.287-1.225 0-.471-.095-.879-.287-1.225a1.953 1.953 0 00-.777-.805 2.262 2.262 0 00-1.127-.28 2.28 2.28 0 00-1.134.28 2.03 2.03 0 00-.777.805c-.191.346-.287.754-.287 1.225 0 .472.096.88.287 1.225.192.346.451.614.777.805.332.187.71.28 1.134.28zm8.198 1.323c-.387 0-.76-.03-1.12-.091a4.956 4.956 0 01-1.015-.266 3.337 3.337 0 01-.861-.497l.672-1.043c.294.248.642.427 1.043.539.402.108.81.161 1.225.161.565 0 1.011-.081 1.337-.245.327-.168.49-.443.49-.826 0-.336-.172-.576-.518-.721-.34-.144-.837-.217-1.491-.217H691.8v-1.162h1.232c.579 0 1.025-.065 1.337-.196.313-.135.469-.364.469-.686a.62.62 0 00-.203-.476c-.13-.126-.317-.221-.56-.287a3.208 3.208 0 00-.84-.098c-.396 0-.779.059-1.148.175-.368.117-.69.297-.966.539l-.574-1.029a3.676 3.676 0 011.288-.672 5.078 5.078 0 011.526-.238c.598 0 1.111.075 1.54.224.43.15.761.364.994.644.234.28.35.619.35 1.015 0 .355-.114.663-.343.924-.224.262-.55.451-.98.567.523.117.92.322 1.19.616.276.294.413.663.413 1.106 0 .467-.133.868-.399 1.204-.261.332-.634.588-1.12.77-.48.178-1.045.266-1.694.266zm4.895-.168v-6.93h1.491v4.676l3.759-4.676h1.344v6.93h-1.484v-4.732l-3.794 4.732h-1.316zm8.736 0v-6.93h1.54v2.674h3.472v-2.674h1.54v6.93h-1.54v-2.982h-3.472v2.982h-1.54zm11.628.21c-.69 0-1.302-.158-1.834-.476a3.468 3.468 0 01-1.246-1.309c-.298-.555-.448-1.185-.448-1.89 0-.527.087-1.015.259-1.463.173-.448.416-.837.728-1.169a3.254 3.254 0 011.12-.77 3.639 3.639 0 011.421-.273c.682 0 1.251.145 1.708.434.462.29.815.663 1.057 1.12l-.217.329v-1.673h1.372v6.93h-1.372v-1.673l.217.329a2.916 2.916 0 01-1.057 1.12c-.457.29-1.026.434-1.708.434zm.203-1.365c.42 0 .796-.093 1.127-.28.332-.191.591-.459.777-.805.192-.345.287-.753.287-1.225 0-.471-.095-.879-.287-1.225a1.953 1.953 0 00-.777-.805 2.262 2.262 0 00-1.127-.28 2.28 2.28 0 00-1.134.28 2.03 2.03 0 00-.777.805c-.191.346-.287.754-.287 1.225 0 .472.096.88.287 1.225.192.346.451.614.777.805.332.187.71.28 1.134.28zM454.59 32.066v-9.8h7.882v9.8h-1.568v-8.365h-4.746v8.365h-1.568zm10.229 2.94v-9.87h1.386v.973c.275-.35.628-.634 1.057-.854.429-.219.959-.329 1.589-.329.677 0 1.276.161 1.799.483.527.318.938.754 1.232 1.31.294.55.441 1.178.441 1.882 0 .51-.084.987-.252 1.435a3.532 3.532 0 01-.721 1.17c-.308.335-.677.6-1.106.79-.425.187-.896.28-1.414.28-.541 0-1.017-.098-1.428-.294a3.208 3.208 0 01-1.05-.79v3.814h-1.533zm3.752-4.095c.429 0 .81-.093 1.141-.28.336-.19.597-.46.784-.805.191-.345.287-.753.287-1.225 0-.47-.096-.88-.287-1.225a1.99 1.99 0 00-.791-.805 2.268 2.268 0 00-1.134-.28c-.429 0-.812.094-1.148.28a2.005 2.005 0 00-.784.805c-.191.346-.287.754-.287 1.225 0 .472.096.88.287 1.225.191.346.453.614.784.805.336.187.719.28 1.148.28zm8.524 1.365c-.723 0-1.369-.165-1.939-.497a3.695 3.695 0 01-1.33-1.337 3.629 3.629 0 01-.483-1.84 3.617 3.617 0 011.057-2.577 3.8 3.8 0 011.197-.805 3.783 3.783 0 011.505-.294c.724 0 1.368.168 1.932.504.57.332 1.015.777 1.337 1.337a3.59 3.59 0 01.483 1.834c0 .49-.093.957-.28 1.4a3.613 3.613 0 01-.777 1.176 3.69 3.69 0 01-1.19.805 3.797 3.797 0 01-1.512.294zm0-1.365c.43 0 .81-.093 1.141-.28.336-.19.6-.46.791-.805.192-.345.287-.753.287-1.225 0-.47-.095-.88-.287-1.225a1.99 1.99 0 00-.791-.805 2.281 2.281 0 00-1.141-.28c-.429 0-.812.094-1.148.28a2.011 2.011 0 00-.784.805c-.186.346-.28.754-.28 1.225 0 .472.096.88.287 1.225.192.346.453.614.784.805.336.187.717.28 1.141.28zm5.306 1.155v-6.93h4.564v1.274h-3.024v5.656h-1.54zm5.988 2.94v-9.87h1.386v.973c.276-.35.628-.634 1.057-.854.43-.219.959-.329 1.589-.329.677 0 1.277.161 1.799.483.528.318.938.754 1.232 1.31.294.55.441 1.178.441 1.882 0 .51-.084.987-.252 1.435a3.532 3.532 0 01-.721 1.17c-.308.335-.676.6-1.106.79-.424.187-.896.28-1.414.28-.541 0-1.017-.098-1.428-.294a3.23 3.23 0 01-1.05-.79v3.814h-1.533zm3.752-4.095c.43 0 .81-.093 1.141-.28.336-.19.598-.46.784-.805.192-.345.287-.753.287-1.225 0-.47-.095-.88-.287-1.225a1.99 1.99 0 00-.791-.805 2.268 2.268 0 00-1.134-.28c-.429 0-.812.094-1.148.28a2.011 2.011 0 00-.784.805c-.191.346-.287.754-.287 1.225 0 .472.096.88.287 1.225.192.346.453.614.784.805.336.187.719.28 1.148.28zm8.301 1.365c-.691 0-1.302-.158-1.834-.476a3.465 3.465 0 01-1.247-1.309c-.298-.555-.447-1.185-.447-1.89 0-.527.086-1.015.259-1.463.172-.448.415-.837.728-1.169a3.24 3.24 0 011.12-.77 3.635 3.635 0 011.421-.273c.681 0 1.25.145 1.708.434.462.29.814.663 1.057 1.12l-.217.33v-1.674h1.372v6.93h-1.372v-1.673l.217.33a2.93 2.93 0 01-1.057 1.12c-.458.289-1.027.433-1.708.433zm.203-1.365c.42 0 .795-.093 1.127-.28.331-.19.59-.46.777-.805.191-.345.287-.753.287-1.225 0-.47-.096-.88-.287-1.225a1.963 1.963 0 00-.777-.805 2.257 2.257 0 00-1.127-.28c-.425 0-.803.094-1.134.28a2.014 2.014 0 00-.777.805c-.192.346-.287.754-.287 1.225 0 .472.095.88.287 1.225.191.346.45.614.777.805.331.187.709.28 1.134.28zm5.86 1.155v-6.93h1.379l3.108 4.494-.665.014 2.954-4.508h1.365v6.93h-1.4l.021-5.124.287.126-2.478 3.62h-.994l-2.59-3.627.287-.126.021 5.131h-1.295zm10.281 0v-6.93h1.379l3.108 4.494-.665.014 2.954-4.508h1.365v6.93h-1.4l.021-5.124.287.126-2.478 3.62h-.994l-2.59-3.627.287-.126.021 5.131h-1.295zm10.281 0v-6.93h1.491v4.676l3.759-4.676h1.344v6.93h-1.484v-4.732l-3.794 4.732h-1.316zm8.736 2.94v-9.87h1.386v.973c.276-.35.628-.634 1.057-.854.43-.219.959-.329 1.589-.329.677 0 1.277.161 1.799.483.528.318.938.754 1.232 1.31.294.55.441 1.178.441 1.882 0 .51-.084.987-.252 1.435a3.532 3.532 0 01-.721 1.17c-.308.335-.676.6-1.106.79-.424.187-.896.28-1.414.28-.541 0-1.017-.098-1.428-.294a3.23 3.23 0 01-1.05-.79v3.814h-1.533zm3.752-4.095c.43 0 .81-.093 1.141-.28.336-.19.598-.46.784-.805.192-.345.287-.753.287-1.225 0-.47-.095-.88-.287-1.225a1.99 1.99 0 00-.791-.805 2.268 2.268 0 00-1.134-.28c-.429 0-.812.094-1.148.28a2.011 2.011 0 00-.784.805c-.191.346-.287.754-.287 1.225 0 .472.096.88.287 1.225.192.346.453.614.784.805.336.187.719.28 1.148.28zm8.525 1.365c-.724 0-1.37-.165-1.939-.497a3.687 3.687 0 01-1.33-1.337 3.629 3.629 0 01-.483-1.84 3.617 3.617 0 011.057-2.577c.34-.34.739-.609 1.197-.805a3.78 3.78 0 011.505-.294c.723 0 1.367.168 1.932.504a3.606 3.606 0 011.337 1.337 3.59 3.59 0 01.483 1.834c0 .49-.094.957-.28 1.4a3.613 3.613 0 01-.777 1.176 3.68 3.68 0 01-1.19.805 3.804 3.804 0 01-1.512.294zm0-1.365c.429 0 .809-.093 1.141-.28.336-.19.599-.46.791-.805.191-.345.287-.753.287-1.225 0-.47-.096-.88-.287-1.225a1.996 1.996 0 00-.791-.805 2.287 2.287 0 00-1.141-.28c-.43 0-.812.094-1.148.28a1.998 1.998 0 00-.784.805c-.187.346-.28.754-.28 1.225 0 .472.095.88.287 1.225.191.346.452.614.784.805.336.187.716.28 1.141.28zm5.305 1.155v-6.93h3.304c.784 0 1.412.15 1.883.448.472.3.707.747.707 1.344 0 .28-.067.53-.203.75a1.674 1.674 0 01-.56.538 2.58 2.58 0 01-.833.315l-.028-.343c.612.084 1.085.287 1.421.61.336.321.504.73.504 1.224 0 .42-.109.784-.329 1.092-.219.304-.534.54-.945.707-.41.164-.903.245-1.477.245h-3.444zm1.491-1.14h1.743c.462 0 .817-.078 1.064-.232.252-.154.378-.385.378-.693 0-.303-.123-.53-.371-.679-.247-.154-.604-.23-1.071-.23h-1.946v-1.1h1.785c.434 0 .77-.065 1.008-.196.238-.135.357-.354.357-.658 0-.303-.119-.522-.357-.658-.238-.14-.574-.21-1.008-.21h-1.582v4.655zm9.372 1.35c-.691 0-1.302-.158-1.834-.476a3.463 3.463 0 01-1.246-1.309c-.299-.555-.448-1.185-.448-1.89 0-.527.086-1.015.259-1.463.173-.448.415-.837.728-1.169a3.25 3.25 0 011.12-.77 3.639 3.639 0 011.421-.273c.681 0 1.251.145 1.708.434.462.29.814.663 1.057 1.12l-.217.33v-1.674h1.372v6.93h-1.372v-1.673l.217.33a2.93 2.93 0 01-1.057 1.12c-.457.289-1.027.433-1.708.433zm.203-1.365c.42 0 .796-.093 1.127-.28.331-.19.59-.46.777-.805.191-.345.287-.753.287-1.225 0-.47-.096-.88-.287-1.225a1.963 1.963 0 00-.777-.805 2.255 2.255 0 00-1.127-.28c-.425 0-.803.094-1.134.28a2.014 2.014 0 00-.777.805c-.191.346-.287.754-.287 1.225 0 .472.096.88.287 1.225.191.346.45.614.777.805.331.187.709.28 1.134.28zm5.86 1.155v-6.93h1.54v2.674h3.472v-2.674h1.54v6.93h-1.54v-2.982h-3.472v2.982h-1.54zm8.696 0v-6.93h1.491v4.676l3.759-4.676h1.344v6.93h-1.484v-4.732l-3.794 4.732h-1.316zm11.9.21c-.747 0-1.402-.151-1.967-.455a3.341 3.341 0 01-1.323-1.288c-.313-.55-.469-1.19-.469-1.918 0-.532.091-1.022.273-1.47a3.48 3.48 0 011.932-1.946 3.852 3.852 0 011.463-.273c.574 0 1.085.103 1.533.308.448.201.819.483 1.113.847.299.364.509.791.63 1.281.126.486.147 1.013.063 1.582h-5.53c-.009.416.082.78.273 1.092.191.308.464.549.819.721.359.173.782.26 1.267.26.392 0 .77-.059 1.134-.176a3.276 3.276 0 001.001-.532l.595 1.106a3.234 3.234 0 01-.812.47 5.411 5.411 0 01-.994.286c-.345.07-.679.105-1.001.105zm-2.191-4.466h3.927c-.014-.522-.182-.933-.504-1.232-.317-.298-.77-.448-1.358-.448-.569 0-1.043.15-1.421.448-.373.3-.588.71-.644 1.232zm-88.035 22.375l-.539-1.386c.476-.12.824-.312 1.043-.574.224-.26.364-.625.42-1.092.061-.466.091-1.068.091-1.806v-2.19h5.635v6.93h-1.54V44.41h-2.66v.917c0 .742-.035 1.389-.105 1.94-.065.55-.186 1.02-.364 1.406a2.476 2.476 0 01-.749.952c-.317.243-.728.43-1.232.56zm11.954.091c-.723 0-1.369-.165-1.939-.497a3.695 3.695 0 01-1.33-1.337 3.629 3.629 0 01-.483-1.84 3.617 3.617 0 011.057-2.577 3.8 3.8 0 011.197-.805 3.783 3.783 0 011.505-.294c.724 0 1.368.168 1.932.504.57.332 1.015.777 1.337 1.337a3.59 3.59 0 01.483 1.834c0 .49-.093.957-.28 1.4a3.613 3.613 0 01-.777 1.176 3.69 3.69 0 01-1.19.805 3.797 3.797 0 01-1.512.294zm0-1.365c.43 0 .81-.093 1.141-.28.336-.19.6-.46.791-.805.192-.345.287-.753.287-1.225 0-.47-.095-.88-.287-1.225a1.99 1.99 0 00-.791-.805 2.281 2.281 0 00-1.141-.28c-.429 0-.812.094-1.148.28a2.011 2.011 0 00-.784.805c-.186.346-.28.754-.28 1.225 0 .472.096.88.287 1.225.192.346.453.614.784.805.336.187.717.28 1.141.28zm5.306 1.155v-6.93h4.564v1.274h-3.024v5.656h-1.54zm5.988 0v-6.93h1.491v4.676l3.759-4.676h1.344v6.93h-1.484v-4.732l-3.794 4.732h-1.316zm13.343 0l-2.296-3.682 2.135-3.248h1.645l-2.121 3.178 2.478 3.752h-1.841zm-4.606 0v-6.93h1.54v2.674h2.086v1.274h-2.086v2.982h-1.54zm7.806 0v-6.93h1.491v4.676l3.759-4.676h1.344v6.93h-1.484v-4.732l-3.794 4.732h-1.316z" fill="#fff"/><circle cx="524" cy="82.566" r="16" stroke="#1D4ED8"/><circle cx="524" cy="82.566" r="8.5" fill="#fff"/><g clip-path="url(#clip6_561_16115)"><path d="M531.75 122.633l-.375-.217a7.427 7.427 0 000-2.717l.375-.216a2.512 2.512 0 00.925-3.417 2.511 2.511 0 00-1.516-1.167 2.49 2.49 0 00-1.9.25l-.375.217a7.481 7.481 0 00-2.384-1.375v-.433c0-1.375-1.125-2.5-2.5-2.5a2.507 2.507 0 00-2.5 2.5v.433a7.476 7.476 0 00-2.383 1.375l-.375-.217a2.521 2.521 0 00-1.9-.25 2.513 2.513 0 00-1.517 1.167 2.514 2.514 0 00.917 3.417l.375.216c-.083.45-.125.909-.125 1.359 0 .45.042.9.125 1.358l-.375.217a2.511 2.511 0 00-.925 3.416 2.51 2.51 0 001.517 1.167 2.491 2.491 0 001.9-.25l.375-.217c.7.6 1.508 1.067 2.383 1.375v.434c0 1.375 1.125 2.5 2.5 2.5s2.5-1.125 2.5-2.5v-.434a7.476 7.476 0 002.383-1.375l.375.217a2.48 2.48 0 001.9.25 2.51 2.51 0 001.517-1.167 2.513 2.513 0 00-.917-3.416zm-10.075-.534a.83.83 0 01-.591 1.417.852.852 0 01-.592-.242l-1.008-1.008a1.65 1.65 0 010-2.342l1.008-1.008a.83.83 0 111.175 1.175l-1.008 1.008 1.008.992.008.008zm3.809-4.208l-1.334 6.667a.821.821 0 01-.816.666c-.05 0-.109 0-.167-.016a.831.831 0 01-.65-.984l1.333-6.666a.831.831 0 01.984-.65.83.83 0 01.65.983zm3.033 4.375l-1.008 1.008a.818.818 0 01-.592.242.83.83 0 01-.592-1.417l1.009-1.008-1.009-1a.83.83 0 111.175-1.175l1.009 1.008c.65.65.65 1.7 0 2.342h.008z" fill="#fff"/></g><defs><clipPath id="clip0_561_16115"><path fill="#fff" transform="translate(7.5 111.508)" d="M0 0h18v18H0z"/></clipPath><clipPath id="clip1_561_16115"><path fill="#fff" transform="translate(128.5 156.066)" d="M0 0h18v18H0z"/></clipPath><clipPath id="clip2_561_16115"><path fill="#fff" transform="translate(257 111.066)" d="M0 0h18v18H0z"/></clipPath><clipPath id="clip3_561_16115"><path fill="#fff" transform="translate(387.5 156.066)" d="M0 0h18v18H0z"/></clipPath><clipPath id="clip4_561_16115"><path fill="#fff" transform="translate(645.5 156.066)" d="M0 0h18v18H0z"/></clipPath><clipPath id="clip5_561_16115"><path fill="#fff" transform="translate(646 156)" d="M0 0h18v18H0z"/></clipPath><clipPath id="clip6_561_16115"><path fill="#fff" transform="translate(514 111.066)" d="M0 0h20v20H0z"/></clipPath><linearGradient id="paint0_linear_561_16115" x1="9" y1="139.6" x2="807.999" y2="109.749" gradientUnits="userSpaceOnUse"><stop stop-color="#0052CC"/><stop offset=".581" stop-color="#0D8BED"/><stop offset=".88" stop-color="#0F1015"/><stop offset="1" stop-color="#0F1015"/></linearGradient></defs></svg>