<svg width="44" height="44" fill="none" xmlns="http://www.w3.org/2000/svg"><g opacity=".1"><path d="M32.526 6.707H17.913c-6.348 0-10.132 3.784-10.132 10.132v14.614c0 6.348 3.784 10.132 10.132 10.132h14.613c6.348 0 10.133-3.784 10.133-10.132V16.839c0-6.348-3.785-10.132-10.133-10.132zM21.68 29.203l-3.923 3.924a1.294 1.294 0 01-.925.384c-.331 0-.68-.122-.924-.384L14.6 31.82a1.285 1.285 0 010-1.848 1.316 1.316 0 011.849 0l.383.383 3-3a1.316 1.316 0 011.848 0 1.316 1.316 0 010 1.85zm0-12.207l-3.923 3.924a1.293 1.293 0 01-.925.383c-.331 0-.68-.122-.924-.383L14.6 19.612a1.285 1.285 0 010-1.849 1.316 1.316 0 011.849 0l.383.384 3-3a1.316 1.316 0 011.848 0 1.316 1.316 0 010 1.85zm13.237 15.207H25.76a1.317 1.317 0 01-1.308-1.308c0-.715.593-1.308 1.308-1.308h9.156c.732 0 1.308.593 1.308 1.308 0 .715-.576 1.308-1.308 1.308zm0-12.207H25.76a1.318 1.318 0 01-1.308-1.308c0-.715.593-1.308 1.308-1.308h9.156c.732 0 1.308.593 1.308 1.308 0 .715-.576 1.308-1.308 1.308z" fill="url(#paint0_linear_3_15470)"/><path d="M32.526 6.707H17.913c-6.348 0-10.132 3.784-10.132 10.132v14.614c0 6.348 3.784 10.132 10.132 10.132h14.613c6.348 0 10.133-3.784 10.133-10.132V16.839c0-6.348-3.785-10.132-10.133-10.132zM21.68 29.203l-3.923 3.924a1.294 1.294 0 01-.925.384c-.331 0-.68-.122-.924-.384L14.6 31.82a1.285 1.285 0 010-1.848 1.316 1.316 0 011.849 0l.383.383 3-3a1.316 1.316 0 011.848 0 1.316 1.316 0 010 1.85zm0-12.207l-3.923 3.924a1.293 1.293 0 01-.925.383c-.331 0-.68-.122-.924-.383L14.6 19.612a1.285 1.285 0 010-1.849 1.316 1.316 0 011.849 0l.383.384 3-3a1.316 1.316 0 011.848 0 1.316 1.316 0 010 1.85zm13.237 15.207H25.76a1.317 1.317 0 01-1.308-1.308c0-.715.593-1.308 1.308-1.308h9.156c.732 0 1.308.593 1.308 1.308 0 .715-.576 1.308-1.308 1.308zm0-12.207H25.76a1.318 1.318 0 01-1.308-1.308c0-.715.593-1.308 1.308-1.308h9.156c.732 0 1.308.593 1.308 1.308 0 .715-.576 1.308-1.308 1.308z" fill="url(#paint1_linear_3_15470)"/></g><path d="M28.234 3.488H13.62c-6.348 0-10.132 3.785-10.132 10.132v14.614c0 6.348 3.784 10.132 10.132 10.132h14.614c6.348 0 10.132-3.784 10.132-10.132V13.62c0-6.347-3.784-10.132-10.132-10.132zM17.387 25.985l-3.924 3.923a1.293 1.293 0 01-.924.384c-.332 0-.68-.122-.925-.384L10.306 28.6a1.285 1.285 0 010-1.848 1.316 1.316 0 011.849 0l.384.384 3-3a1.316 1.316 0 011.848 0 1.316 1.316 0 010 1.849zm0-12.208l-3.924 3.924a1.293 1.293 0 01-.924.384c-.332 0-.68-.122-.925-.384l-1.308-1.308a1.285 1.285 0 010-1.848 1.316 1.316 0 011.849 0l.384.383 3-3a1.316 1.316 0 011.848 0 1.316 1.316 0 010 1.85zm13.236 15.207h-9.156a1.317 1.317 0 01-1.307-1.308c0-.715.592-1.308 1.307-1.308h9.156c.732 0 1.308.593 1.308 1.308 0 .715-.576 1.308-1.308 1.308zm0-12.207h-9.156a1.317 1.317 0 01-1.307-1.308c0-.715.592-1.308 1.307-1.308h9.156c.732 0 1.308.593 1.308 1.308 0 .715-.576 1.308-1.308 1.308z" fill="url(#paint2_linear_3_15470)"/><path d="M28.234 3.488H13.62c-6.348 0-10.132 3.785-10.132 10.132v14.614c0 6.348 3.784 10.132 10.132 10.132h14.614c6.348 0 10.132-3.784 10.132-10.132V13.62c0-6.347-3.784-10.132-10.132-10.132zM17.387 25.985l-3.924 3.923a1.293 1.293 0 01-.924.384c-.332 0-.68-.122-.925-.384L10.306 28.6a1.285 1.285 0 010-1.848 1.316 1.316 0 011.849 0l.384.384 3-3a1.316 1.316 0 011.848 0 1.316 1.316 0 010 1.849zm0-12.208l-3.924 3.924a1.293 1.293 0 01-.924.384c-.332 0-.68-.122-.925-.384l-1.308-1.308a1.285 1.285 0 010-1.848 1.316 1.316 0 011.849 0l.384.383 3-3a1.316 1.316 0 011.848 0 1.316 1.316 0 010 1.85zm13.236 15.207h-9.156a1.317 1.317 0 01-1.307-1.308c0-.715.592-1.308 1.307-1.308h9.156c.732 0 1.308.593 1.308 1.308 0 .715-.576 1.308-1.308 1.308zm0-12.207h-9.156a1.317 1.317 0 01-1.307-1.308c0-.715.592-1.308 1.307-1.308h9.156c.732 0 1.308.593 1.308 1.308 0 .715-.576 1.308-1.308 1.308z" fill="url(#paint3_linear_3_15470)"/><defs><linearGradient id="paint0_linear_3_15470" x1="12.357" y1="19.548" x2="33.234" y2="45.787" gradientUnits="userSpaceOnUse"><stop stop-color="#0052CC"/><stop offset="1" stop-color="#0F93F2"/></linearGradient><linearGradient id="paint1_linear_3_15470" x1="13.736" y1="47.492" x2="32.516" y2="4.72" gradientUnits="userSpaceOnUse"><stop stop-color="#0045CC"/><stop offset="1" stop-color="#24A3FF"/></linearGradient><linearGradient id="paint2_linear_3_15470" x1="8.064" y1="16.329" x2="28.942" y2="42.568" gradientUnits="userSpaceOnUse"><stop stop-color="#0052CC"/><stop offset="1" stop-color="#0F93F2"/></linearGradient><linearGradient id="paint3_linear_3_15470" x1="9.443" y1="44.273" x2="28.223" y2="1.501" gradientUnits="userSpaceOnUse"><stop stop-color="#0045CC"/><stop offset="1" stop-color="#24A3FF"/></linearGradient></defs></svg>