<svg width="44" height="44" fill="none" xmlns="http://www.w3.org/2000/svg"><path opacity=".1" d="M10.258 37.721L24 42.237l13.742-4.516L40 6H8l2.258 31.721zm24.028-26.425l-.307 4.237H18.258l.39 5.436h14.94l-.891 12.794L24 36.69l-8.697-2.9-.307-4.292h4.237l.084 1.171L24 32.202l4.683-1.56.362-5.409H14.69l-.976-13.937h20.572z" fill="#fff"/><path d="M7.258 33.721L21 38.237l13.742-4.516L37 2H5l2.258 31.721zM31.286 7.296l-.307 4.237H15.258l.39 5.436h14.94l-.891 12.794L21 32.69l-8.697-2.9-.307-4.292h4.237l.084 1.171L21 28.202l4.683-1.56.362-5.409H11.69l-.976-13.937h20.572z" fill="url(#paint0_linear_3_15641)"/><path d="M7.258 33.721L21 38.237l13.742-4.516L37 2H5l2.258 31.721zM31.286 7.296l-.307 4.237H15.258l.39 5.436h14.94l-.891 12.794L21 32.69l-8.697-2.9-.307-4.292h4.237l.084 1.171L21 28.202l4.683-1.56.362-5.409H11.69l-.976-13.937h20.572z" fill="url(#paint1_linear_3_15641)"/><defs><linearGradient id="paint0_linear_3_15641" x1="9.199" y1="15.341" x2="31.338" y2="39.913" gradientUnits="userSpaceOnUse"><stop stop-color="#0052CC"/><stop offset="1" stop-color="#0F93F2"/></linearGradient><linearGradient id="paint1_linear_3_15641" x1="10.464" y1="44.374" x2="31.594" y2="1.875" gradientUnits="userSpaceOnUse"><stop stop-color="#0045CC"/><stop offset="1" stop-color="#24A3FF"/></linearGradient></defs></svg>