<svg width="1634" height="355" fill="none" xmlns="http://www.w3.org/2000/svg"><path d="M9 87c132.997 0 132.997 181 265.993 181C407.99 268 407.99 87 541.003 87 674.017 87 674 268 806.997 268c132.996 0 132.996-181 266.013-181C1206.02 87 1206 268 1339 268s132.98-181 265.99-181c133.02 0 133 181 266 181" stroke="url(#paint0_linear_276_9059)" stroke-width="3" stroke-miterlimit="10"/><circle cx="16.5" cy="87.5" r="16" stroke="#1D4ED8"/><circle cx="16.5" cy="87.5" r="8.5" fill="#fff"/><circle cx="272.5" cy="266.5" r="8.5" fill="#fff"/><circle cx="272.5" cy="266.5" r="16" stroke="#1D4ED8"/><circle cx="812.5" cy="266.5" r="16" stroke="#1D4ED8"/><circle cx="1331.5" cy="266.5" r="16" stroke="#1D4ED8"/><circle cx="1072.5" cy="87.5" r="16" stroke="#1D4ED8"/><circle cx="812.5" cy="266.5" r="8.5" fill="#fff"/><circle cx="1331.5" cy="266.5" r="8.5" fill="#fff"/><circle cx="541.5" cy="87.5" r="8.5" fill="#fff"/><circle cx="541.5" cy="87.5" r="16" stroke="#1D4ED8"/><circle cx="1072.5" cy="87.5" r="8.5" fill="#fff"/><path opacity=".6" d="M14.984 26.128c-1.163 0-2.139-.245-2.928-.736a4.605 4.605 0 01-1.76-2.032c-.395-.864-.592-1.861-.592-2.992 0-1.13.197-2.133.592-3.008.405-.875.997-1.557 1.776-2.048.79-.501 1.765-.752 2.928-.752.843 0 1.579.139 2.208.416a3.68 3.68 0 011.52 1.152c.395.49.656 1.077.784 1.76h-1.664a2.274 2.274 0 00-.976-1.296c-.49-.32-1.12-.48-1.888-.48-.853 0-1.541.197-2.064.592a3.383 3.383 0 00-1.12 1.552 5.815 5.815 0 00-.352 2.048c0 .757.123 1.461.368 2.112a3.39 3.39 0 001.168 1.568c.533.395 1.216.592 2.048.592.512 0 .965-.07 1.36-.208.395-.15.725-.357.992-.624.267-.277.448-.597.544-.96h1.776a3.889 3.889 0 01-.848 1.792 4.148 4.148 0 01-1.616 1.152c-.65.267-1.403.4-2.256.4zm10.19-.032c-.874 0-1.616-.176-2.224-.528a3.556 3.556 0 01-1.392-1.52c-.31-.65-.464-1.403-.464-2.256 0-.864.155-1.616.464-2.256.32-.65.784-1.157 1.392-1.52.608-.373 1.355-.56 2.24-.56.875 0 1.616.187 2.224.56a3.46 3.46 0 011.376 1.52c.31.65.464 1.408.464 2.272 0 .843-.16 1.59-.48 2.24a3.457 3.457 0 01-1.376 1.52c-.597.352-1.338.528-2.224.528zm0-1.472c.576 0 1.04-.128 1.392-.384.363-.256.63-.597.8-1.024a3.76 3.76 0 00.256-1.408 3.76 3.76 0 00-.256-1.408 2.234 2.234 0 00-.8-1.04c-.352-.267-.816-.4-1.392-.4-.565 0-1.03.133-1.392.4-.362.256-.63.597-.8 1.024-.16.427-.24.901-.24 1.424 0 .512.08.981.24 1.408.17.427.438.768.8 1.024.363.256.827.384 1.392.384zm9.435 1.472c-.885 0-1.626-.181-2.224-.544a3.434 3.434 0 01-1.327-1.504c-.288-.65-.433-1.397-.433-2.24 0-.832.15-1.573.448-2.224a3.537 3.537 0 011.377-1.552c.618-.384 1.38-.576 2.287-.576.62 0 1.169.107 1.648.32.48.203.87.507 1.169.912.309.395.511.89.607 1.488h-1.648c-.138-.437-.373-.752-.703-.944-.32-.192-.7-.288-1.137-.288-.586 0-1.056.139-1.407.416a2.372 2.372 0 00-.768 1.072 4.23 4.23 0 00-.224 1.376c0 .501.08.965.24 1.392.17.427.426.773.767 1.04.352.256.811.384 1.377.384.426 0 .82-.09 1.184-.272.362-.192.597-.512.703-.96h1.697c-.096.619-.32 1.13-.672 1.536-.352.395-.79.688-1.313.88a4.655 4.655 0 01-1.648.288zM41.82 26v-6.96h-2.848v-1.472h7.344v1.472h-2.848V26H41.82zm8.297.096c-.373 0-.736-.048-1.088-.144a3.119 3.119 0 01-.944-.464 2.505 2.505 0 01-.672-.784c-.16-.32-.24-.693-.24-1.12 0-.512.096-.933.288-1.264a2.09 2.09 0 01.8-.784c.33-.192.71-.325 1.136-.4a7.09 7.09 0 011.36-.128h2.064c0-.416-.064-.779-.192-1.088a1.484 1.484 0 00-.608-.736c-.267-.181-.624-.272-1.072-.272-.267 0-.523.032-.768.096a1.585 1.585 0 00-.608.272.97.97 0 00-.352.512h-1.728c.064-.405.208-.752.432-1.04a2.76 2.76 0 01.832-.736 3.76 3.76 0 011.056-.416 4.798 4.798 0 011.168-.144c.81 0 1.467.16 1.968.48.512.32.886.779 1.12 1.376.235.597.352 1.307.352 2.128V26h-1.424l-.064-1.04c-.245.31-.528.55-.848.72a3.18 3.18 0 01-.976.32 5.38 5.38 0 01-.992.096zm.288-1.392c.49 0 .917-.08 1.28-.24.363-.17.64-.41.832-.72.203-.32.304-.699.304-1.136v-.336h-1.504c-.31 0-.613.01-.912.032a3.19 3.19 0 00-.816.128 1.103 1.103 0 00-.56.336c-.139.16-.208.39-.208.688 0 .288.075.523.224.704.15.181.347.32.592.416.245.085.502.128.768.128zM56.4 26v-8.432h3.552c.362 0 .725.027 1.088.08.373.043.709.139 1.008.288.309.15.554.368.736.656.192.277.288.645.288 1.104 0 .277-.043.528-.128.752a1.786 1.786 0 01-.368.592 2 2 0 01-.576.416c.533.139.917.39 1.152.752.245.352.368.773.368 1.264 0 .448-.086.832-.256 1.152-.171.32-.4.581-.688.784a3.023 3.023 0 01-.976.448 4.358 4.358 0 01-1.12.144H56.4zm1.68-1.44h2.112c.298 0 .57-.027.816-.08.256-.064.458-.176.608-.336.16-.16.24-.379.24-.656 0-.288-.064-.507-.192-.656a1.008 1.008 0 00-.496-.336 2.557 2.557 0 00-.656-.112 7.61 7.61 0 00-.688-.032H58.08v2.208zm0-3.456h1.248c.192 0 .41-.01.656-.032.245-.032.48-.085.704-.16.234-.075.421-.181.56-.32.149-.15.224-.352.224-.608 0-.341-.096-.576-.288-.704a1.22 1.22 0 00-.656-.24 6.06 6.06 0 00-.752-.048H58.08v2.112zm6.427 4.912v-1.472a1.1 1.1 0 00.576-.144c.171-.107.32-.256.448-.448.139-.213.246-.512.32-.896.075-.384.128-.784.16-1.2.043-.501.07-.997.08-1.488.022-.49.038-.97.048-1.44.022-.47.032-.923.032-1.36h6.096V26h-1.648v-6.96h-2.88c-.01.352-.026.72-.048 1.104a39.75 39.75 0 01-.128 2.272c-.021.427-.08.88-.176 1.36a3.51 3.51 0 01-.496 1.296c-.245.373-.549.624-.912.752-.352.128-.842.192-1.472.192zm13.495.08c-.885 0-1.626-.181-2.224-.544a3.504 3.504 0 01-1.36-1.504c-.298-.65-.448-1.397-.448-2.24 0-.853.155-1.605.464-2.256.32-.65.779-1.163 1.376-1.536.608-.373 1.339-.56 2.192-.56.63 0 1.179.117 1.648.352.48.224.88.539 1.2.944.33.395.57.843.72 1.344.15.501.219 1.03.208 1.584-.01.117-.021.23-.032.336 0 .107-.005.219-.016.336h-6.096c.032.427.139.816.32 1.168.192.352.459.635.8.848.342.203.763.304 1.264.304.278 0 .544-.032.8-.096.267-.075.502-.187.704-.336.214-.16.363-.363.448-.608h1.664c-.138.565-.39 1.035-.752 1.408a3.17 3.17 0 01-1.296.8 4.9 4.9 0 01-1.584.256zm-2.336-5.056h4.48a2.325 2.325 0 00-.288-1.104 1.93 1.93 0 00-.752-.768c-.32-.192-.704-.288-1.152-.288-.49 0-.901.101-1.232.304-.32.203-.57.47-.752.8-.17.32-.272.672-.304 1.056zM83.477 26v-8.432h1.648v3.552h3.888v-3.552h1.648V26h-1.648v-3.424h-3.888V26h-1.648zm9.203 0v-8.432h1.648v5.968a3.69 3.69 0 01.288-.416c.117-.16.208-.288.272-.384l3.856-5.168h1.536V26h-1.648v-5.936a9.283 9.283 0 01-.272.416c-.096.128-.187.245-.272.352L94.232 26H92.68zm13.321.096c-.885 0-1.626-.181-2.224-.544a3.51 3.51 0 01-1.36-1.504c-.298-.65-.448-1.397-.448-2.24 0-.853.155-1.605.464-2.256.32-.65.779-1.163 1.376-1.536.608-.373 1.339-.56 2.192-.56.63 0 1.179.117 1.648.352.48.224.88.539 1.2.944.331.395.571.843.72 1.344.15.501.219 1.03.208 1.584-.01.117-.021.23-.032.336 0 .107-.005.219-.016.336h-6.096c.032.427.139.816.32 1.168.192.352.459.635.8.848.342.203.763.304 1.264.304.278 0 .544-.032.8-.096.267-.075.502-.187.704-.336a1.26 1.26 0 00.448-.608h1.664c-.138.565-.389 1.035-.752 1.408a3.17 3.17 0 01-1.296.8 4.878 4.878 0 01-1.584.256zm-2.336-5.056h4.48a2.31 2.31 0 00-.288-1.104 1.927 1.927 0 00-.752-.768c-.32-.192-.704-.288-1.152-.288-.49 0-.901.101-1.232.304-.32.203-.57.47-.752.8-.17.32-.272.672-.304 1.056zM12.776 50v-9.76H9.192v-1.552h8.848v1.552h-3.568V50h-1.696zm10.282.128a7.65 7.65 0 01-1.648-.176 4.882 4.882 0 01-1.41-.576 3.09 3.09 0 01-1.008-.992c-.255-.416-.394-.917-.415-1.504h1.663c.032.31.134.57.305.784.17.213.389.39.655.528.267.128.56.224.88.288.32.064.646.096.977.096.256 0 .533-.021.832-.064a2.9 2.9 0 00.863-.256 1.67 1.67 0 00.657-.56c.17-.245.256-.565.256-.96 0-.373-.064-.672-.192-.896a1.238 1.238 0 00-.544-.528 2.384 2.384 0 00-.832-.256 7.522 7.522 0 00-1.024-.064h-1.457V43.52h.944c.352 0 .689-.032 1.009-.096.33-.064.618-.16.863-.288a1.71 1.71 0 00.593-.544 1.41 1.41 0 00.224-.8c0-.47-.118-.821-.352-1.056a1.939 1.939 0 00-.88-.496 3.998 3.998 0 00-2.24.032 2.114 2.114 0 00-.896.544c-.225.235-.337.533-.337.896h-1.68c.011-.512.113-.95.305-1.312.191-.363.442-.661.752-.896.32-.245.666-.437 1.04-.576a5.404 5.404 0 011.12-.288c.373-.053.714-.08 1.023-.08.48 0 .944.053 1.392.16.448.096.854.261 1.216.496.374.235.667.544.88.928.214.384.32.848.32 1.392a3.5 3.5 0 01-.111.848c-.075.288-.224.57-.448.848-.214.267-.54.517-.976.752.65.15 1.146.48 1.488.992.352.512.527 1.104.527 1.776-.01.608-.138 1.125-.384 1.552a3.04 3.04 0 01-.976 1.04 4.44 4.44 0 01-1.376.592 6.448 6.448 0 01-1.6.192zM33.508 50v-8.432h1.648v5.968c.075-.128.17-.267.288-.416.117-.16.208-.288.272-.384l3.856-5.168h1.536V50H39.46v-5.936a9.196 9.196 0 01-.272.416c-.096.128-.187.245-.272.352L35.06 50h-1.552zm14 0v-8.432h7.216V50h-1.648v-6.96h-3.92V50h-1.648zm12.994.096c-.874 0-1.616-.176-2.224-.528a3.556 3.556 0 01-1.392-1.52c-.309-.65-.464-1.403-.464-2.256 0-.864.155-1.616.464-2.256.32-.65.784-1.157 1.392-1.52.608-.373 1.355-.56 2.24-.56.875 0 1.616.187 2.224.56a3.46 3.46 0 011.376 1.52c.31.65.464 1.408.464 2.272 0 .843-.16 1.59-.48 2.24a3.457 3.457 0 01-1.376 1.52c-.597.352-1.338.528-2.224.528zm0-1.472c.576 0 1.04-.128 1.392-.384.363-.256.63-.597.8-1.024a3.76 3.76 0 00.256-1.408 3.76 3.76 0 00-.256-1.408 2.234 2.234 0 00-.8-1.04c-.352-.267-.816-.4-1.392-.4-.565 0-1.029.133-1.392.4a2.248 2.248 0 00-.8 1.024c-.16.427-.24.901-.24 1.424 0 .512.08.981.24 1.408.171.427.438.768.8 1.024.363.256.827.384 1.392.384zM66.274 50v-8.432h5.904v1.472h-4.256V50h-1.648zm7.234 3.072V41.568h1.568l.08 1.216a2.68 2.68 0 011.184-.992 3.731 3.731 0 011.568-.336c.832 0 1.52.192 2.064.576.544.384.95.901 1.216 1.552.267.65.4 1.387.4 2.208 0 .821-.139 1.557-.416 2.208a3.286 3.286 0 01-1.248 1.536c-.555.373-1.264.56-2.128.56-.416 0-.79-.043-1.12-.128a2.891 2.891 0 01-.864-.368 4.808 4.808 0 01-.656-.544v4.016h-1.648zm4.096-4.448c.576 0 1.035-.128 1.376-.384.341-.267.587-.613.736-1.04.15-.427.224-.89.224-1.392 0-.523-.08-.997-.24-1.424a2.08 2.08 0 00-.752-1.04c-.341-.267-.8-.4-1.376-.4-.523 0-.965.133-1.328.4-.363.256-.64.603-.832 1.04a3.682 3.682 0 00-.272 1.424c0 .523.085 1.003.256 1.44.181.427.453.763.816 1.008.373.245.837.368 1.392.368zm5.943 5.072v-1.632c.49 0 .885-.059 1.184-.176.31-.117.565-.31.768-.576.202-.256.4-.592.592-1.008l-3.648-8.736h1.936l2.64 6.832 2.128-6.832h1.84l-2.32 6.848c-.118.363-.256.757-.416 1.184-.15.427-.32.853-.512 1.28-.182.427-.39.821-.624 1.184a3.523 3.523 0 01-.784.88c-.235.192-.47.341-.704.448a2.633 2.633 0 01-.832.24 9.8 9.8 0 01-1.248.064zM91.285 50l2.608-4.416-2.4-4.016h1.744l2.048 3.52h1.232v-3.52h1.664v3.52h1.232l2.032-3.52h1.76l-2.4 4.016L103.413 50h-1.888l-1.984-3.488h-1.36V50h-1.664v-3.488h-1.344l-2 3.488h-1.888zm16.873.096c-.886 0-1.627-.181-2.224-.544a3.498 3.498 0 01-1.36-1.504c-.299-.65-.448-1.397-.448-2.24 0-.853.154-1.605.464-2.256a3.69 3.69 0 011.376-1.536c.608-.373 1.338-.56 2.192-.56.629 0 1.178.117 1.648.352.48.224.88.539 1.2.944.33.395.57.843.72 1.344a5.2 5.2 0 01.208 1.584l-.032.336a3.6 3.6 0 01-.017.336h-6.096c.033.427.139.816.321 1.168.192.352.458.635.8.848.341.203.762.304 1.264.304.277 0 .544-.032.8-.096.266-.075.501-.187.704-.336.213-.16.362-.363.448-.608h1.664c-.139.565-.39 1.035-.752 1.408a3.17 3.17 0 01-1.296.8c-.502.17-1.03.256-1.584.256zm-2.336-5.056h4.48a2.332 2.332 0 00-.288-1.104 1.934 1.934 0 00-.752-.768c-.32-.192-.704-.288-1.152-.288-.491 0-.902.101-1.232.304a2.17 2.17 0 00-.752.8c-.171.32-.272.672-.304 1.056zm7.811 4.96v-8.432h1.648v3.552h3.888v-3.552h1.648V50h-1.648v-3.424h-3.888V50h-1.648zm9.203 0v-8.432h1.648v5.968a3.77 3.77 0 01.288-.416c.117-.16.208-.288.272-.384l3.856-5.168h1.536V50h-1.648v-5.936a8.945 8.945 0 01-.272.416c-.096.128-.187.245-.272.352L124.388 50h-1.552zm13.322.096c-.886 0-1.627-.181-2.224-.544a3.498 3.498 0 01-1.36-1.504c-.299-.65-.448-1.397-.448-2.24 0-.853.154-1.605.464-2.256a3.69 3.69 0 011.376-1.536c.608-.373 1.338-.56 2.192-.56.629 0 1.178.117 1.648.352.48.224.88.539 1.2.944.33.395.57.843.72 1.344a5.2 5.2 0 01.208 1.584l-.032.336a3.6 3.6 0 01-.017.336h-6.096c.033.427.139.816.321 1.168.192.352.458.635.8.848.341.203.762.304 1.264.304.277 0 .544-.032.8-.096.266-.075.501-.187.704-.336.213-.16.362-.363.448-.608h1.664c-.139.565-.39 1.035-.752 1.408a3.17 3.17 0 01-1.296.8c-.502.17-1.03.256-1.584.256zm-2.336-5.056h4.48a2.332 2.332 0 00-.288-1.104 1.934 1.934 0 00-.752-.768c-.32-.192-.704-.288-1.152-.288-.491 0-.902.101-1.232.304a2.17 2.17 0 00-.752.8c-.171.32-.272.672-.304 1.056zM146.024 50v-8.432h3.552c.362 0 .725.027 1.088.08.373.043.709.139 1.008.288.309.15.554.368.736.656.192.277.288.645.288 1.104 0 .277-.043.528-.128.752a1.797 1.797 0 01-.368.592 2.02 2.02 0 01-.576.416c.533.139.917.39 1.152.752.245.352.368.773.368 1.264 0 .448-.086.832-.256 1.152-.171.32-.4.581-.688.784a3.03 3.03 0 01-.976.448 4.36 4.36 0 01-1.12.144h-4.08zm1.68-1.44h2.112c.298 0 .57-.027.816-.08.256-.064.458-.176.608-.336.16-.16.24-.379.24-.656 0-.288-.064-.507-.192-.656a1.011 1.011 0 00-.496-.336 2.565 2.565 0 00-.656-.112 7.617 7.617 0 00-.688-.032h-1.744v2.208zm0-3.456h1.248c.192 0 .41-.01.656-.032.245-.032.48-.085.704-.16.234-.075.421-.181.56-.32.149-.15.224-.352.224-.608 0-.341-.096-.576-.288-.704a1.223 1.223 0 00-.656-.24 6.065 6.065 0 00-.752-.048h-1.696v2.112zM159.258 50v-8.432h7.216V50h-1.648v-6.96h-3.92V50h-1.648zm9.234 3.072V41.568h1.568l.08 1.216a2.685 2.685 0 011.184-.992 3.734 3.734 0 011.568-.336c.832 0 1.52.192 2.064.576.544.384.95.901 1.216 1.552.267.65.4 1.387.4 2.208 0 .821-.138 1.557-.416 2.208a3.278 3.278 0 01-1.248 1.536c-.554.373-1.264.56-2.128.56-.416 0-.789-.043-1.12-.128a2.907 2.907 0 01-.864-.368 4.827 4.827 0 01-.656-.544v4.016h-1.648zm4.096-4.448c.576 0 1.035-.128 1.376-.384.342-.267.587-.613.736-1.04.15-.427.224-.89.224-1.392 0-.523-.08-.997-.24-1.424a2.078 2.078 0 00-.752-1.04c-.341-.267-.8-.4-1.376-.4-.522 0-.965.133-1.328.4a2.45 2.45 0 00-.832 1.04 3.687 3.687 0 00-.272 1.424c0 .523.086 1.003.256 1.44.182.427.454.763.816 1.008.374.245.838.368 1.392.368zm9.383 1.472c-.875 0-1.616-.176-2.224-.528a3.556 3.556 0 01-1.392-1.52c-.309-.65-.464-1.403-.464-2.256 0-.864.155-1.616.464-2.256.32-.65.784-1.157 1.392-1.52.608-.373 1.355-.56 2.24-.56.875 0 1.616.187 2.224.56a3.46 3.46 0 011.376 1.52c.309.65.464 1.408.464 2.272 0 .843-.16 1.59-.48 2.24a3.455 3.455 0 01-1.376 1.52c-.597.352-1.339.528-2.224.528zm0-1.472c.576 0 1.04-.128 1.392-.384.363-.256.629-.597.8-1.024.171-.427.256-.896.256-1.408 0-.512-.085-.981-.256-1.408a2.233 2.233 0 00-.8-1.04c-.352-.267-.816-.4-1.392-.4-.565 0-1.029.133-1.392.4a2.243 2.243 0 00-.8 1.024c-.16.427-.24.901-.24 1.424 0 .512.08.981.24 1.408.171.427.437.768.8 1.024.363.256.827.384 1.392.384zm9.483 1.472c-.885 0-1.626-.181-2.224-.544a3.51 3.51 0 01-1.36-1.504c-.298-.65-.448-1.397-.448-2.24 0-.853.155-1.605.464-2.256.32-.65.779-1.163 1.376-1.536.608-.373 1.339-.56 2.192-.56.63 0 1.179.117 1.648.352.48.224.88.539 1.2.944.331.395.571.843.72 1.344.15.501.219 1.03.208 1.584-.01.117-.021.23-.032.336 0 .107-.005.219-.016.336h-6.096c.032.427.139.816.32 1.168.192.352.459.635.8.848.342.203.763.304 1.264.304.278 0 .544-.032.8-.096.267-.075.502-.187.704-.336a1.26 1.26 0 00.448-.608h1.664c-.138.565-.389 1.035-.752 1.408a3.17 3.17 0 01-1.296.8 4.878 4.878 0 01-1.584.256zm-2.336-5.056h4.48a2.31 2.31 0 00-.288-1.104 1.927 1.927 0 00-.752-.768c-.32-.192-.704-.288-1.152-.288-.49 0-.901.101-1.232.304-.32.203-.57.47-.752.8-.17.32-.272.672-.304 1.056zM196.93 50v-8.432h1.648v3.504h1.408l2.352-3.504h1.888l-2.768 4L204.386 50h-1.92l-2.32-3.472h-1.568V50h-1.648zm10.562 0v-6.96h-2.848v-1.472h7.344v1.472h-2.848V50h-1.648zm.873 262v-9.898h7.938V312h-1.484v-8.554h-4.97V312h-1.484zm9.988 2.688v-10.066h1.372l.07 1.064a2.342 2.342 0 011.036-.868 3.261 3.261 0 011.372-.294c.728 0 1.33.168 1.806.504.476.336.83.789 1.064 1.358.233.569.35 1.213.35 1.932 0 .719-.122 1.363-.364 1.932a2.887 2.887 0 01-1.092 1.344c-.486.327-1.106.49-1.862.49-.364 0-.691-.037-.98-.112a2.525 2.525 0 01-.756-.322 4.16 4.16 0 01-.574-.476v3.514h-1.442zm3.584-3.892c.504 0 .905-.112 1.204-.336.298-.233.513-.537.644-.91.13-.373.196-.779.196-1.218 0-.457-.07-.873-.21-1.246a1.82 1.82 0 00-.658-.91c-.299-.233-.7-.35-1.204-.35-.458 0-.845.117-1.162.35-.318.224-.56.527-.728.91a3.216 3.216 0 00-.238 1.246c0 .457.074.877.224 1.26.158.373.396.667.714.882.326.215.732.322 1.218.322zm8.21 1.288c-.766 0-1.414-.154-1.946-.462a3.112 3.112 0 01-1.218-1.33c-.271-.569-.406-1.227-.406-1.974 0-.756.135-1.414.406-1.974a3.112 3.112 0 011.218-1.33c.532-.327 1.185-.49 1.96-.49.765 0 1.414.163 1.946.49.532.317.933.761 1.204 1.33.27.569.406 1.232.406 1.988 0 .737-.14 1.391-.42 1.96a3.027 3.027 0 01-1.204 1.33c-.523.308-1.172.462-1.946.462zm0-1.288c.504 0 .91-.112 1.218-.336.317-.224.55-.523.7-.896.149-.373.224-.784.224-1.232 0-.448-.075-.859-.224-1.232a1.959 1.959 0 00-.7-.91c-.308-.233-.714-.35-1.218-.35-.495 0-.901.117-1.218.35a1.958 1.958 0 00-.7.896c-.14.373-.21.789-.21 1.246 0 .448.07.859.21 1.232.149.373.382.672.7.896.317.224.723.336 1.218.336zm6.785 1.204v-6.09h-2.492v-1.288h6.426v1.288h-2.492V312h-1.442zm8.226.084c-.765 0-1.414-.154-1.946-.462a3.112 3.112 0 01-1.218-1.33c-.27-.569-.406-1.227-.406-1.974 0-.756.136-1.414.406-1.974a3.112 3.112 0 011.218-1.33c.532-.327 1.186-.49 1.96-.49.766 0 1.414.163 1.946.49a3.02 3.02 0 011.204 1.33c.271.569.406 1.232.406 1.988 0 .737-.14 1.391-.42 1.96a3.02 3.02 0 01-1.204 1.33c-.522.308-1.171.462-1.946.462zm0-1.288c.504 0 .91-.112 1.218-.336.318-.224.551-.523.7-.896.15-.373.224-.784.224-1.232 0-.448-.074-.859-.224-1.232a1.946 1.946 0 00-.7-.91c-.308-.233-.714-.35-1.218-.35-.494 0-.9.117-1.218.35-.317.224-.55.523-.7.896-.14.373-.21.789-.21 1.246 0 .448.07.859.21 1.232.15.373.383.672.7.896.318.224.724.336 1.218.336zm6.786 1.204v-6.09h-2.492v-1.288h6.426v1.288h-2.492V312h-1.442zm4.936 0v-7.378h1.442v5.222a3.19 3.19 0 01.252-.364c.103-.14.182-.252.238-.336l3.374-4.522h1.344V312h-1.442v-5.194a8.37 8.37 0 01-.238.364c-.084.112-.163.215-.238.308L258.238 312h-1.358zm8.408 0v-7.378h6.314V312h-1.442v-6.09h-3.43V312h-1.442zm8.08 0v-7.378h1.442v5.222c.066-.112.15-.233.252-.364.103-.14.182-.252.238-.336l3.374-4.522h1.344V312h-1.442v-5.194a7.534 7.534 0 01-.238.364c-.084.112-.163.215-.238.308L274.726 312h-1.358zm8.409 2.688v-10.066h1.372l.07 1.064a2.342 2.342 0 011.036-.868 3.261 3.261 0 011.372-.294c.728 0 1.33.168 1.806.504.476.336.83.789 1.064 1.358.233.569.35 1.213.35 1.932 0 .719-.122 1.363-.364 1.932a2.887 2.887 0 01-1.092 1.344c-.486.327-1.106.49-1.862.49-.364 0-.691-.037-.98-.112a2.525 2.525 0 01-.756-.322 4.16 4.16 0 01-.574-.476v3.514h-1.442zm3.584-3.892c.504 0 .905-.112 1.204-.336.298-.233.513-.537.644-.91.13-.373.196-.779.196-1.218 0-.457-.07-.873-.21-1.246a1.82 1.82 0 00-.658-.91c-.299-.233-.7-.35-1.204-.35-.458 0-.845.117-1.162.35-.318.224-.56.527-.728.91a3.216 3.216 0 00-.238 1.246c0 .457.074.877.224 1.26.158.373.396.667.714.882.326.215.732.322 1.218.322zm8.209 1.288c-.765 0-1.414-.154-1.946-.462a3.112 3.112 0 01-1.218-1.33c-.27-.569-.406-1.227-.406-1.974 0-.756.136-1.414.406-1.974a3.112 3.112 0 011.218-1.33c.532-.327 1.186-.49 1.96-.49.766 0 1.414.163 1.946.49a3.02 3.02 0 011.204 1.33c.271.569.406 1.232.406 1.988 0 .737-.14 1.391-.42 1.96a3.02 3.02 0 01-1.204 1.33c-.522.308-1.171.462-1.946.462zm0-1.288c.504 0 .91-.112 1.218-.336.318-.224.551-.523.7-.896.15-.373.224-.784.224-1.232 0-.448-.074-.859-.224-1.232a1.946 1.946 0 00-.7-.91c-.308-.233-.714-.35-1.218-.35-.494 0-.9.117-1.218.35-.317.224-.55.523-.7.896-.14.373-.21.789-.21 1.246 0 .448.07.859.21 1.232.15.373.383.672.7.896.318.224.724.336 1.218.336zm5.05 1.204v-7.378h3.108c.318 0 .635.023.952.07.327.037.621.121.882.252.271.131.486.322.644.574.168.243.252.565.252.966 0 .243-.037.462-.112.658a1.549 1.549 0 01-.322.518 1.74 1.74 0 01-.504.364c.467.121.803.341 1.008.658.215.308.322.677.322 1.106 0 .392-.074.728-.224 1.008-.149.28-.35.509-.602.686a2.647 2.647 0 01-.854.392 3.812 3.812 0 01-.98.126h-3.57zm1.47-1.26h1.848c.262 0 .5-.023.714-.07.224-.056.402-.154.532-.294.14-.14.21-.331.21-.574 0-.252-.056-.443-.168-.574a.88.88 0 00-.434-.294 2.215 2.215 0 00-.574-.098 6.525 6.525 0 00-.602-.028h-1.526v1.932zm0-3.024h1.092c.168 0 .36-.009.574-.028.215-.028.42-.075.616-.14.206-.065.369-.159.49-.28.131-.131.196-.308.196-.532 0-.299-.084-.504-.252-.616a1.072 1.072 0 00-.574-.21 5.299 5.299 0 00-.658-.042h-1.484v1.848zm8.593 4.368a3.6 3.6 0 01-.952-.126 2.72 2.72 0 01-.826-.406 2.183 2.183 0 01-.588-.686c-.14-.28-.21-.607-.21-.98 0-.448.084-.817.252-1.106.177-.299.41-.527.7-.686.289-.168.62-.285.994-.35a6.167 6.167 0 011.19-.112h1.806a2.48 2.48 0 00-.168-.952 1.3 1.3 0 00-.532-.644c-.234-.159-.546-.238-.938-.238-.234 0-.458.028-.672.084a1.385 1.385 0 00-.532.238.844.844 0 00-.308.448h-1.512c.056-.355.182-.658.378-.91.196-.261.438-.476.728-.644.289-.168.597-.289.924-.364a4.194 4.194 0 011.022-.126c.709 0 1.283.14 1.722.42.448.28.774.681.98 1.204.205.523.308 1.143.308 1.862V312h-1.246l-.056-.91a2.362 2.362 0 01-.742.63 2.8 2.8 0 01-.854.28 4.71 4.71 0 01-.868.084zm.252-1.218c.429 0 .802-.07 1.12-.21.317-.149.56-.359.728-.63a1.82 1.82 0 00.266-.994v-.294h-1.316c-.271 0-.537.009-.798.028-.262.009-.5.047-.714.112a.96.96 0 00-.49.294c-.122.14-.182.341-.182.602 0 .252.065.457.196.616.13.159.303.28.518.364.214.075.438.112.672.112zm5.244 1.134v-7.378h1.442v3.108h3.402v-3.108h1.442V312h-1.442v-2.996h-3.402V312h-1.442zm8.053 0v-7.378h1.442v5.222a3.19 3.19 0 01.252-.364c.102-.14.182-.252.238-.336l3.374-4.522h1.344V312h-1.442v-5.194a8.37 8.37 0 01-.238.364 13.61 13.61 0 01-.238.308L323.59 312h-1.358zm11.656.084c-.775 0-1.424-.159-1.946-.476a3.058 3.058 0 01-1.19-1.316c-.262-.569-.392-1.223-.392-1.96 0-.747.135-1.405.406-1.974a3.233 3.233 0 011.204-1.344c.532-.327 1.171-.49 1.918-.49.55 0 1.031.103 1.442.308.42.196.77.471 1.05.826.289.345.499.737.63 1.176.13.439.191.901.182 1.386l-.028.294c0 .093-.005.191-.014.294h-5.334c.028.373.121.714.28 1.022.168.308.401.555.7.742.298.177.667.266 1.106.266.242 0 .476-.028.7-.084a1.88 1.88 0 00.616-.294c.186-.14.317-.317.392-.532h1.456a2.634 2.634 0 01-.658 1.232 2.774 2.774 0 01-1.134.7 4.283 4.283 0 01-1.386.224zm-2.044-4.424h3.92a2.05 2.05 0 00-.252-.966 1.695 1.695 0 00-.658-.672c-.28-.168-.616-.252-1.008-.252-.43 0-.789.089-1.078.266-.28.177-.5.411-.658.7-.15.28-.238.588-.266.924z" fill="#fff"/><path d="M463.617 50V38.688h4.08c.843 0 1.568.133 2.176.4a2.962 2.962 0 011.424 1.248c.331.555.496 1.275.496 2.16 0 .853-.192 1.568-.576 2.144a3.548 3.548 0 01-1.536 1.312c-.651.288-1.392.432-2.224.432h-2.144V50h-1.696zm1.696-5.152h2.08c.811 0 1.461-.187 1.952-.56.491-.384.736-.997.736-1.84 0-.736-.203-1.285-.608-1.648-.405-.373-1.019-.56-1.84-.56h-2.32v4.608zm10.624 5.248c-.373 0-.736-.048-1.088-.144a3.126 3.126 0 01-.944-.464 2.513 2.513 0 01-.672-.784c-.16-.32-.24-.693-.24-1.12 0-.512.096-.933.288-1.264.203-.341.47-.603.8-.784a3.43 3.43 0 011.136-.4 7.097 7.097 0 011.36-.128h2.064c0-.416-.064-.779-.192-1.088a1.48 1.48 0 00-.608-.736c-.266-.181-.624-.272-1.072-.272-.266 0-.522.032-.768.096a1.59 1.59 0 00-.608.272.974.974 0 00-.352.512h-1.728c.064-.405.208-.752.432-1.04.224-.299.502-.544.832-.736.331-.192.683-.33 1.056-.416a4.802 4.802 0 011.168-.144c.811 0 1.467.16 1.968.48.512.32.886.779 1.12 1.376.235.597.352 1.307.352 2.128V50h-1.424l-.064-1.04c-.245.31-.528.55-.848.72a3.17 3.17 0 01-.976.32 5.377 5.377 0 01-.992.096zm.288-1.392c.491 0 .918-.08 1.28-.24.363-.17.64-.41.832-.72.203-.32.304-.699.304-1.136v-.336h-1.504c-.309 0-.613.01-.912.032a3.2 3.2 0 00-.816.128 1.107 1.107 0 00-.56.336c-.138.16-.208.39-.208.688 0 .288.075.523.224.704.15.181.347.32.592.416.246.085.502.128.768.128zm9.194 1.392c-.427 0-.848-.037-1.264-.112a4.354 4.354 0 01-1.168-.416 2.499 2.499 0 01-.864-.768c-.224-.32-.352-.725-.384-1.216h1.616c.043.267.181.48.416.64.235.16.501.277.8.352.299.064.576.096.832.096.277 0 .56-.027.848-.08.288-.064.528-.181.72-.352.203-.181.304-.437.304-.768 0-.299-.075-.523-.224-.672a1.164 1.164 0 00-.592-.304 3.846 3.846 0 00-.816-.08h-1.488v-1.344h1.2c.203 0 .4-.016.592-.048.192-.043.363-.101.512-.176a1.07 1.07 0 00.384-.336c.096-.15.144-.336.144-.56 0-.267-.08-.475-.24-.624a1.203 1.203 0 00-.592-.336 2.965 2.965 0 00-.752-.096 4.02 4.02 0 00-.784.08 1.617 1.617 0 00-.688.304.947.947 0 00-.352.624h-1.6c.043-.619.235-1.104.576-1.456a2.902 2.902 0 011.296-.768 5.464 5.464 0 011.536-.224c.384 0 .763.037 1.136.112.373.075.715.203 1.024.384.32.17.571.405.752.704.181.299.272.667.272 1.104 0 .363-.085.693-.256.992-.16.288-.416.523-.768.704.501.17.853.437 1.056.8.203.352.304.768.304 1.248 0 .47-.101.87-.304 1.2-.203.32-.469.587-.8.8a3.735 3.735 0 01-1.12.448 5.601 5.601 0 01-1.264.144zm5.112 2.976V41.568h1.568l.08 1.216a2.685 2.685 0 011.184-.992 3.734 3.734 0 011.568-.336c.832 0 1.52.192 2.064.576.544.384.95.901 1.216 1.552.267.65.4 1.387.4 2.208 0 .821-.138 1.557-.416 2.208a3.278 3.278 0 01-1.248 1.536c-.554.373-1.264.56-2.128.56-.416 0-.789-.043-1.12-.128a2.907 2.907 0 01-.864-.368 4.827 4.827 0 01-.656-.544v4.016h-1.648zm4.096-4.448c.576 0 1.035-.128 1.376-.384.342-.267.587-.613.736-1.04.15-.427.224-.89.224-1.392 0-.523-.08-.997-.24-1.424a2.078 2.078 0 00-.752-1.04c-.341-.267-.8-.4-1.376-.4-.522 0-.965.133-1.328.4a2.45 2.45 0 00-.832 1.04 3.687 3.687 0 00-.272 1.424c0 .523.086 1.003.256 1.44.182.427.454.763.816 1.008.374.245.838.368 1.392.368zm8.279 1.472c-.373 0-.736-.048-1.088-.144a3.126 3.126 0 01-.944-.464 2.513 2.513 0 01-.672-.784c-.16-.32-.24-.693-.24-1.12 0-.512.096-.933.288-1.264.203-.341.47-.603.8-.784a3.43 3.43 0 011.136-.4 7.097 7.097 0 011.36-.128h2.064c0-.416-.064-.779-.192-1.088a1.48 1.48 0 00-.608-.736c-.266-.181-.624-.272-1.072-.272-.266 0-.522.032-.768.096a1.59 1.59 0 00-.608.272.974.974 0 00-.352.512h-1.728c.064-.405.208-.752.432-1.04.224-.299.502-.544.832-.736.331-.192.683-.33 1.056-.416a4.802 4.802 0 011.168-.144c.811 0 1.467.16 1.968.48.512.32.886.779 1.12 1.376.235.597.352 1.307.352 2.128V50h-1.424l-.064-1.04c-.245.31-.528.55-.848.72a3.17 3.17 0 01-.976.32 5.377 5.377 0 01-.992.096zm.288-1.392c.491 0 .918-.08 1.28-.24.363-.17.64-.41.832-.72.203-.32.304-.699.304-1.136v-.336h-1.504c-.309 0-.613.01-.912.032a3.2 3.2 0 00-.816.128 1.107 1.107 0 00-.56.336c-.138.16-.208.39-.208.688 0 .288.075.523.224.704.15.181.347.32.592.416.246.085.502.128.768.128zm9.722 1.392c-.555 0-1.051-.08-1.488-.24a3.26 3.26 0 01-1.12-.672 3.898 3.898 0 01-.768-1.04 5.743 5.743 0 01-.464-1.312 7.74 7.74 0 01-.144-1.52c0-.81.026-1.563.08-2.256a6.779 6.779 0 01.384-1.856c.202-.544.522-.997.96-1.36.437-.363 1.034-.63 1.792-.8.426-.096.853-.176 1.28-.24.437-.064.885-.123 1.344-.176.256-.043.48-.075.672-.096.192-.032.368-.059.528-.08.17-.032.325-.059.464-.08v1.584c-.107.043-.23.075-.368.096a34.61 34.61 0 01-.4.064 5.614 5.614 0 01-.416.048c-.139.01-.278.027-.416.048-.139.01-.272.027-.4.048-.406.032-.827.07-1.264.112a5.04 5.04 0 00-1.216.272c-.374.128-.683.373-.928.736-.118.17-.219.373-.304.608a4.03 4.03 0 00-.192.736 9.063 9.063 0 00-.064.736c.224-.32.49-.576.8-.768.32-.192.656-.33 1.008-.416a4.281 4.281 0 011.008-.128c.768 0 1.418.165 1.952.496.533.32.938.773 1.216 1.36.277.576.416 1.243.416 2 0 .79-.16 1.493-.48 2.112a3.45 3.45 0 01-1.36 1.456c-.587.352-1.291.528-2.112.528zm.016-1.456c.501 0 .917-.117 1.248-.352a2.17 2.17 0 00.768-.944c.181-.395.272-.821.272-1.28 0-.448-.091-.853-.272-1.216a2.029 2.029 0 00-.752-.88c-.331-.213-.742-.32-1.232-.32-.48 0-.896.112-1.248.336a2.194 2.194 0 00-.784.896 2.737 2.737 0 00-.272 1.216c0 .437.085.853.256 1.248.17.395.421.71.752.944.33.235.752.352 1.264.352zm9.391 1.456c-.875 0-1.616-.176-2.224-.528a3.556 3.556 0 01-1.392-1.52c-.31-.65-.464-1.403-.464-2.256 0-.864.154-1.616.464-2.256.32-.65.784-1.157 1.392-1.52.608-.373 1.354-.56 2.24-.56.874 0 1.616.187 2.224.56a3.46 3.46 0 011.376 1.52c.309.65.464 1.408.464 2.272 0 .843-.16 1.59-.48 2.24a3.46 3.46 0 01-1.376 1.52c-.598.352-1.339.528-2.224.528zm0-1.472c.576 0 1.04-.128 1.392-.384a2.25 2.25 0 00.8-1.024c.17-.427.256-.896.256-1.408 0-.512-.086-.981-.256-1.408a2.24 2.24 0 00-.8-1.04c-.352-.267-.816-.4-1.392-.4-.566 0-1.03.133-1.392.4-.363.256-.63.597-.8 1.024-.16.427-.24.901-.24 1.424 0 .512.08.981.24 1.408.17.427.437.768.8 1.024.362.256.826.384 1.392.384zM530.078 50v-6.96h-2.848v-1.472h7.344v1.472h-2.848V50h-1.648zm5.641 0v-8.432h1.648v3.504h1.408l2.352-3.504h1.888l-2.768 4L543.175 50h-1.92l-2.32-3.472h-1.568V50h-1.648zm11.078.096c-.374 0-.736-.048-1.088-.144a3.114 3.114 0 01-.944-.464 2.487 2.487 0 01-.672-.784c-.16-.32-.24-.693-.24-1.12 0-.512.096-.933.288-1.264.202-.341.469-.603.8-.784.33-.192.709-.325 1.136-.4.437-.085.89-.128 1.36-.128h2.064c0-.416-.064-.779-.192-1.088a1.486 1.486 0 00-.608-.736c-.267-.181-.624-.272-1.072-.272-.267 0-.523.032-.768.096a1.577 1.577 0 00-.608.272.968.968 0 00-.352.512h-1.728c.064-.405.208-.752.432-1.04.224-.299.501-.544.832-.736.33-.192.682-.33 1.056-.416a4.796 4.796 0 011.168-.144c.81 0 1.466.16 1.968.48.512.32.885.779 1.12 1.376.234.597.352 1.307.352 2.128V50h-1.424l-.064-1.04c-.246.31-.528.55-.848.72a3.18 3.18 0 01-.976.32 5.386 5.386 0 01-.992.096zm.288-1.392c.49 0 .917-.08 1.28-.24.362-.17.64-.41.832-.72.202-.32.304-.699.304-1.136v-.336h-1.504c-.31 0-.614.01-.912.032-.299.01-.571.053-.816.128a1.098 1.098 0 00-.56.336c-.139.16-.208.39-.208.688 0 .288.074.523.224.704.149.181.346.32.592.416.245.085.501.128.768.128zm9.68 3.808v-3.968c.299 0 .539-.08.72-.24.181-.16.325-.368.432-.624.107-.256.187-.539.24-.848.064-.32.117-.63.16-.928.053-.48.085-.965.096-1.456.021-.501.032-.917.032-1.248.011-.267.016-.533.016-.8v-.832h6.256v6.976h1.088v3.968h-1.616V50h-5.808v2.512h-1.616zm2.464-3.968h3.824V43.04h-3.072c0 .416-.005.875-.016 1.376-.011.501-.032.976-.064 1.424-.021.256-.048.544-.08.864a6.1 6.1 0 01-.176.96c-.085.32-.224.613-.416.88zM567.11 50v-8.432h1.648v5.968c.074-.128.17-.267.288-.416.117-.16.208-.288.272-.384l3.856-5.168h1.536V50h-1.648v-5.936a9.84 9.84 0 01-.272.416c-.096.128-.187.245-.272.352L568.662 50h-1.552zm12.809.096c-.427 0-.848-.037-1.264-.112a4.354 4.354 0 01-1.168-.416 2.499 2.499 0 01-.864-.768c-.224-.32-.352-.725-.384-1.216h1.616c.043.267.181.48.416.64.235.16.501.277.8.352.299.064.576.096.832.096.277 0 .56-.027.848-.08.288-.064.528-.181.72-.352.203-.181.304-.437.304-.768 0-.299-.075-.523-.224-.672a1.164 1.164 0 00-.592-.304 3.846 3.846 0 00-.816-.08h-1.488v-1.344h1.2c.203 0 .4-.016.592-.048.192-.043.363-.101.512-.176a1.07 1.07 0 00.384-.336c.096-.15.144-.336.144-.56 0-.267-.08-.475-.24-.624a1.203 1.203 0 00-.592-.336 2.965 2.965 0 00-.752-.096 4.02 4.02 0 00-.784.08 1.617 1.617 0 00-.688.304.947.947 0 00-.352.624h-1.6c.043-.619.235-1.104.576-1.456a2.902 2.902 0 011.296-.768 5.464 5.464 0 011.536-.224c.384 0 .763.037 1.136.112.373.075.715.203 1.024.384.32.17.571.405.752.704.181.299.272.667.272 1.104 0 .363-.085.693-.256.992-.16.288-.416.523-.768.704.501.17.853.437 1.056.8.203.352.304.768.304 1.248 0 .47-.101.87-.304 1.2-.203.32-.469.587-.8.8a3.735 3.735 0 01-1.12.448 5.601 5.601 0 01-1.264.144zm7.768 0c-.373 0-.736-.048-1.088-.144a3.126 3.126 0 01-.944-.464 2.513 2.513 0 01-.672-.784c-.16-.32-.24-.693-.24-1.12 0-.512.096-.933.288-1.264.203-.341.47-.603.8-.784a3.43 3.43 0 011.136-.4 7.097 7.097 0 011.36-.128h2.064c0-.416-.064-.779-.192-1.088a1.48 1.48 0 00-.608-.736c-.266-.181-.624-.272-1.072-.272-.266 0-.522.032-.768.096a1.59 1.59 0 00-.608.272.974.974 0 00-.352.512h-1.728c.064-.405.208-.752.432-1.04.224-.299.502-.544.832-.736.331-.192.683-.33 1.056-.416a4.802 4.802 0 011.168-.144c.811 0 1.467.16 1.968.48.512.32.886.779 1.12 1.376.235.597.352 1.307.352 2.128V50h-1.424l-.064-1.04c-.245.31-.528.55-.848.72a3.17 3.17 0 01-.976.32 5.377 5.377 0 01-.992.096zm.288-1.392c.491 0 .918-.08 1.28-.24.363-.17.64-.41.832-.72.203-.32.304-.699.304-1.136v-.336h-1.504c-.309 0-.613.01-.912.032a3.2 3.2 0 00-.816.128 1.107 1.107 0 00-.56.336c-.138.16-.208.39-.208.688 0 .288.075.523.224.704.15.181.347.32.592.416.246.085.502.128.768.128zM593.969 50v-8.432h1.648v5.968a3.77 3.77 0 01.288-.416c.117-.16.208-.288.272-.384l3.856-5.168h1.536V50h-1.648v-5.936a8.945 8.945 0 01-.272.416c-.096.128-.187.245-.272.352L595.521 50h-1.552zm3.92-9.456c-.875 0-1.563-.192-2.064-.576-.491-.395-.741-.976-.752-1.744h1.44c.021.384.155.661.4.832.245.17.576.256.992.256.416 0 .747-.085.992-.256.245-.17.379-.448.4-.832h1.44c0 .501-.117.928-.352 1.28a2.223 2.223 0 01-.992.784c-.416.17-.917.256-1.504.256zM603.578 50v-8.432h1.648v3.552h3.888v-3.552h1.648V50h-1.648v-3.424h-3.888V50h-1.648zm11.859.096c-.373 0-.736-.048-1.088-.144a3.126 3.126 0 01-.944-.464 2.513 2.513 0 01-.672-.784c-.16-.32-.24-.693-.24-1.12 0-.512.096-.933.288-1.264.203-.341.47-.603.8-.784a3.43 3.43 0 011.136-.4 7.097 7.097 0 011.36-.128h2.064c0-.416-.064-.779-.192-1.088a1.48 1.48 0 00-.608-.736c-.266-.181-.624-.272-1.072-.272-.266 0-.522.032-.768.096a1.59 1.59 0 00-.608.272.974.974 0 00-.352.512h-1.728c.064-.405.208-.752.432-1.04.224-.299.502-.544.832-.736.331-.192.683-.33 1.056-.416a4.802 4.802 0 011.168-.144c.811 0 1.467.16 1.968.48.512.32.886.779 1.12 1.376.235.597.352 1.307.352 2.128V50h-1.424l-.064-1.04c-.245.31-.528.55-.848.72a3.17 3.17 0 01-.976.32 5.377 5.377 0 01-.992.096zm.288-1.392c.491 0 .918-.08 1.28-.24.363-.17.64-.41.832-.72.203-.32.304-.699.304-1.136v-.336h-1.504c-.309 0-.613.01-.912.032a3.2 3.2 0 00-.816.128 1.107 1.107 0 00-.56.336c-.138.16-.208.39-.208.688 0 .288.075.523.224.704.15.181.347.32.592.416.246.085.502.128.768.128z" fill="#fff"/><path opacity=".6" d="M996.726 26V14.688h9.074V26h-1.7v-9.776h-5.678V26h-1.696zm11.414 3.072V17.568h1.57l.08 1.216c.3-.448.69-.779 1.18-.992a3.753 3.753 0 011.57-.336c.83 0 1.52.192 2.06.576.55.384.95.901 1.22 1.552.27.65.4 1.387.4 2.208 0 .821-.14 1.557-.42 2.208-.26.65-.68 1.163-1.24 1.536-.56.373-1.27.56-2.13.56-.42 0-.79-.043-1.12-.128a2.99 2.99 0 01-.87-.368c-.24-.17-.46-.352-.65-.544v4.016h-1.65zm4.1-4.448c.57 0 1.03-.128 1.37-.384.34-.267.59-.613.74-1.04.15-.427.22-.89.22-1.392 0-.523-.08-.997-.24-1.424-.15-.437-.4-.784-.75-1.04-.34-.267-.8-.4-1.38-.4-.52 0-.96.133-1.32.4-.37.256-.64.603-.84 1.04-.18.437-.27.912-.27 1.424 0 .523.09 1.003.26 1.44.18.427.45.763.81 1.008.38.245.84.368 1.4.368zm9.38 1.472c-.88 0-1.62-.176-2.22-.528a3.562 3.562 0 01-1.4-1.52c-.31-.65-.46-1.403-.46-2.256 0-.864.15-1.616.46-2.256.32-.65.79-1.157 1.4-1.52.6-.373 1.35-.56 2.24-.56.87 0 1.61.187 2.22.56.61.363 1.07.87 1.38 1.52.3.65.46 1.408.46 2.272 0 .843-.16 1.59-.48 2.24-.31.65-.77 1.157-1.38 1.52-.59.352-1.34.528-2.22.528zm0-1.472c.58 0 1.04-.128 1.39-.384.36-.256.63-.597.8-1.024.17-.427.26-.896.26-1.408 0-.512-.09-.981-.26-1.408a2.246 2.246 0 00-.8-1.04c-.35-.267-.81-.4-1.39-.4-.57 0-1.03.133-1.39.4a2.19 2.19 0 00-.8 1.024c-.16.427-.24.901-.24 1.424 0 .512.08.981.24 1.408.17.427.43.768.8 1.024.36.256.82.384 1.39.384zm5.77 1.376v-8.432h5.9v1.472h-4.25V26h-1.65zm7.24 3.072V17.568h1.56l.08 1.216c.3-.448.7-.779 1.19-.992a3.72 3.72 0 011.57-.336c.83 0 1.52.192 2.06.576.54.384.95.901 1.22 1.552.26.65.4 1.387.4 2.208 0 .821-.14 1.557-.42 2.208-.27.65-.68 1.163-1.25 1.536-.55.373-1.26.56-2.13.56-.41 0-.79-.043-1.12-.128a2.817 2.817 0 01-.86-.368c-.25-.17-.46-.352-.66-.544v4.016h-1.64zm4.09-4.448c.58 0 1.04-.128 1.38-.384.34-.267.58-.613.73-1.04.15-.427.23-.89.23-1.392 0-.523-.08-.997-.24-1.424-.15-.437-.4-.784-.75-1.04-.35-.267-.8-.4-1.38-.4-.52 0-.97.133-1.33.4-.36.256-.64.603-.83 1.04-.18.437-.27.912-.27 1.424 0 .523.08 1.003.25 1.44.18.427.46.763.82 1.008.37.245.84.368 1.39.368zm8.28 1.472c-.37 0-.74-.048-1.09-.144a3.15 3.15 0 01-.94-.464c-.28-.213-.5-.475-.67-.784-.16-.32-.24-.693-.24-1.12 0-.512.09-.933.28-1.264.21-.341.47-.603.8-.784.33-.192.71-.325 1.14-.4.44-.085.89-.128 1.36-.128h2.06c0-.416-.06-.779-.19-1.088-.13-.32-.33-.565-.61-.736-.26-.181-.62-.272-1.07-.272-.26 0-.52.032-.77.096a1.57 1.57 0 00-.6.272c-.17.128-.29.299-.36.512h-1.72c.06-.405.2-.752.43-1.04.22-.299.5-.544.83-.736.33-.192.68-.33 1.06-.416.38-.096.77-.144 1.16-.144.81 0 1.47.16 1.97.48.51.32.89.779 1.12 1.376.24.597.35 1.307.35 2.128V26h-1.42l-.06-1.04c-.25.31-.53.55-.85.72-.31.16-.64.267-.98.32-.34.064-.67.096-.99.096zm.29-1.392c.49 0 .92-.08 1.28-.24.36-.17.64-.41.83-.72.2-.32.3-.699.3-1.136v-.336h-1.5c-.31 0-.61.01-.91.032-.3.01-.57.053-.82.128-.23.064-.42.176-.56.336-.14.16-.21.39-.21.688 0 .288.08.523.23.704.15.181.34.32.59.416.25.085.5.128.77.128zm5.99 1.296v-8.432h2.11l2.6 4.032 2.54-4.032h2.08V26h-1.65v-6.432l-2.77 4.416h-.48l-2.78-4.432V26h-1.65zm11.35 0v-8.432h2.11l2.59 4.032 2.54-4.032h2.08V26h-1.64v-6.432l-2.77 4.416h-.48l-2.79-4.432V26h-1.64zm11.34 0v-8.432h1.65v5.968c.07-.128.17-.267.28-.416.12-.16.21-.288.28-.384l3.85-5.168h1.54V26h-1.65v-5.936c-.08.139-.18.277-.27.416-.1.128-.19.245-.27.352L1077.52 26h-1.55zm9.61 3.072V17.568h1.57l.08 1.216c.29-.448.69-.779 1.18-.992a3.72 3.72 0 011.57-.336c.83 0 1.52.192 2.06.576.55.384.95.901 1.22 1.552.26.65.4 1.387.4 2.208 0 .821-.14 1.557-.42 2.208-.26.65-.68 1.163-1.25 1.536-.55.373-1.26.56-2.12.56-.42 0-.79-.043-1.12-.128a2.99 2.99 0 01-.87-.368c-.24-.17-.46-.352-.65-.544v4.016h-1.65zm4.09-4.448c.58 0 1.04-.128 1.38-.384.34-.267.59-.613.74-1.04.15-.427.22-.89.22-1.392 0-.523-.08-.997-.24-1.424-.15-.437-.4-.784-.75-1.04-.34-.267-.8-.4-1.38-.4-.52 0-.96.133-1.33.4-.36.256-.64.603-.83 1.04-.18.437-.27.912-.27 1.424 0 .523.09 1.003.26 1.44.18.427.45.763.81 1.008.38.245.84.368 1.39.368zm9.39 1.472c-.88 0-1.62-.176-2.23-.528-.6-.363-1.07-.87-1.39-1.52-.31-.65-.46-1.403-.46-2.256 0-.864.15-1.616.46-2.256.32-.65.79-1.157 1.39-1.52.61-.373 1.36-.56 2.24-.56.88 0 1.62.187 2.23.56.61.363 1.06.87 1.37 1.52.31.65.47 1.408.47 2.272 0 .843-.16 1.59-.48 2.24-.31.65-.77 1.157-1.38 1.52-.6.352-1.34.528-2.22.528zm0-1.472c.57 0 1.04-.128 1.39-.384.36-.256.63-.597.8-1.024.17-.427.26-.896.26-1.408 0-.512-.09-.981-.26-1.408a2.246 2.246 0 00-.8-1.04c-.35-.267-.82-.4-1.39-.4s-1.03.133-1.39.4a2.19 2.19 0 00-.8 1.024c-.16.427-.24.901-.24 1.424 0 .512.08.981.24 1.408.17.427.43.768.8 1.024.36.256.82.384 1.39.384zm5.77 1.376v-8.432h3.55c.36 0 .73.027 1.09.08.37.043.71.139 1.01.288.31.15.55.368.73.656.19.277.29.645.29 1.104 0 .277-.04.528-.13.752-.08.224-.21.421-.37.592-.15.16-.34.299-.57.416.53.139.92.39 1.15.752.25.352.37.773.37 1.264 0 .448-.09.832-.26 1.152-.17.32-.4.581-.69.784-.28.203-.61.352-.97.448-.36.096-.74.144-1.12.144h-4.08zm1.68-1.44h2.11c.3 0 .57-.027.82-.08.25-.064.45-.176.6-.336.16-.16.24-.379.24-.656 0-.288-.06-.507-.19-.656-.13-.16-.29-.272-.49-.336a2.683 2.683 0 00-.66-.112 7.479 7.479 0 00-.69-.032h-1.74v2.208zm0-3.456h1.25c.19 0 .41-.01.65-.032.25-.032.48-.085.71-.16.23-.075.42-.181.56-.32.15-.15.22-.352.22-.608 0-.341-.1-.576-.29-.704a1.21 1.21 0 00-.65-.24 6.18 6.18 0 00-.76-.048h-1.69v2.112zm9.82 4.992c-.38 0-.74-.048-1.09-.144a3.036 3.036 0 01-.94-.464 2.486 2.486 0 01-.68-.784c-.16-.32-.24-.693-.24-1.12 0-.512.1-.933.29-1.264.2-.341.47-.603.8-.784.33-.192.71-.325 1.14-.4.44-.085.89-.128 1.36-.128h2.06c0-.416-.06-.779-.19-1.088-.13-.32-.33-.565-.61-.736-.26-.181-.62-.272-1.07-.272-.27 0-.52.032-.77.096a1.62 1.62 0 00-.61.272c-.17.128-.28.299-.35.512h-1.73c.07-.405.21-.752.44-1.04.22-.299.5-.544.83-.736.33-.192.68-.33 1.05-.416a4.88 4.88 0 011.17-.144c.81 0 1.47.16 1.97.48.51.32.89.779 1.12 1.376.23.597.35 1.307.35 2.128V26h-1.42l-.07-1.04c-.24.31-.52.55-.84.72-.31.16-.64.267-.98.32-.34.064-.67.096-.99.096zm.29-1.392c.49 0 .91-.08 1.28-.24.36-.17.64-.41.83-.72.2-.32.3-.699.3-1.136v-.336h-1.5c-.31 0-.62.01-.91.032-.3.01-.57.053-.82.128-.23.064-.42.176-.56.336-.14.16-.21.39-.21.688 0 .288.08.523.23.704.15.181.34.32.59.416.24.085.5.128.77.128zm5.99 1.296v-8.432h1.65v3.552h3.89v-3.552h1.64V26h-1.64v-3.424h-3.89V26h-1.65zm9.2 0v-8.432h1.65v5.968c.08-.128.17-.267.29-.416.12-.16.21-.288.27-.384l3.86-5.168h1.53V26h-1.65v-5.936c-.08.139-.17.277-.27.416-.09.128-.18.245-.27.352L1133.36 26h-1.55zm13.32.096c-.88 0-1.62-.181-2.22-.544a3.492 3.492 0 01-1.36-1.504c-.3-.65-.45-1.397-.45-2.24 0-.853.16-1.605.47-2.256.32-.65.77-1.163 1.37-1.536.61-.373 1.34-.56 2.19-.56.63 0 1.18.117 1.65.352.48.224.88.539 1.2.944.33.395.57.843.72 1.344.15.501.22 1.03.21 1.584l-.03.336c0 .107-.01.219-.02.336h-6.09c.03.427.13.816.32 1.168s.45.635.8.848c.34.203.76.304 1.26.304.28 0 .54-.032.8-.096.27-.075.5-.187.7-.336a1.2 1.2 0 00.45-.608h1.67c-.14.565-.39 1.035-.76 1.408-.35.363-.78.63-1.29.8-.5.17-1.03.256-1.59.256zm-2.33-5.056h4.48a2.333 2.333 0 00-.29-1.104c-.18-.33-.43-.587-.75-.768-.32-.192-.71-.288-1.15-.288-.49 0-.91.101-1.24.304-.32.203-.57.47-.75.8-.17.32-.27.672-.3 1.056zm-96.83 28.976v-1.472c.22 0 .41-.048.57-.144.17-.107.32-.256.45-.448.14-.213.25-.512.32-.896.08-.384.13-.784.16-1.2.04-.501.07-.997.08-1.488.02-.49.04-.97.05-1.44.02-.47.03-.923.03-1.36h6.1V50h-1.65v-6.96h-2.88c-.01.352-.03.72-.05 1.104-.01.384-.03.768-.05 1.152-.02.373-.04.747-.08 1.12-.02.427-.08.88-.17 1.36-.09.48-.25.912-.5 1.296-.24.373-.55.624-.91.752-.35.128-.84.192-1.47.192zm13.54.08c-.87 0-1.62-.176-2.22-.528a3.562 3.562 0 01-1.4-1.52c-.31-.65-.46-1.403-.46-2.256 0-.864.15-1.616.46-2.256.32-.65.79-1.157 1.4-1.52.6-.373 1.35-.56 2.24-.56.87 0 1.61.187 2.22.56.61.363 1.07.87 1.38 1.52.31.65.46 1.408.46 2.272 0 .843-.16 1.59-.48 2.24-.31.65-.77 1.157-1.38 1.52-.59.352-1.33.528-2.22.528zm0-1.472c.58 0 1.04-.128 1.39-.384.36-.256.63-.597.8-1.024.17-.427.26-.896.26-1.408 0-.512-.09-.981-.26-1.408a2.246 2.246 0 00-.8-1.04c-.35-.267-.81-.4-1.39-.4-.57 0-1.03.133-1.39.4-.36.256-.63.597-.8 1.024-.16.427-.24.901-.24 1.424 0 .512.08.981.24 1.408.17.427.44.768.8 1.024.36.256.82.384 1.39.384zm5.77 1.376v-8.432h5.91v1.472h-4.26V50h-1.65zm7.24 0v-8.432h1.64v5.968c.08-.128.17-.267.29-.416.12-.16.21-.288.27-.384l3.86-5.168h1.54V50h-1.65v-5.936l-.27.416c-.1.128-.19.245-.28.352L1074.07 50h-1.55zm9.61 0v-8.432h1.64v3.504h1.41l2.35-3.504h1.89l-2.77 4 2.93 4.432h-1.92l-2.32-3.472h-1.57V50h-1.64zm8.57 0v-8.432h1.65v5.968c.08-.128.17-.267.29-.416.12-.16.21-.288.27-.384l3.86-5.168h1.53V50h-1.64v-5.936c-.09.139-.18.277-.28.416-.09.128-.18.245-.27.352L1092.26 50h-1.56zM728.671 314v-11.312h4.304c.544 0 1.04.048 1.488.144.459.085.854.24 1.184.464.331.213.582.507.752.88.182.363.272.821.272 1.376 0 .544-.122 1.035-.368 1.472-.245.427-.618.747-1.12.96.672.149 1.179.464 1.52.944.352.469.528 1.077.528 1.824 0 .629-.117 1.157-.352 1.584-.234.416-.56.747-.976.992a4.543 4.543 0 01-1.44.528 9.662 9.662 0 01-1.712.144h-4.08zm1.696-1.552h2.416c.32 0 .64-.016.96-.048.32-.043.614-.123.88-.24.278-.117.496-.293.656-.528.171-.235.256-.549.256-.944 0-.331-.064-.603-.192-.816a1.426 1.426 0 00-.512-.528 2.234 2.234 0 00-.752-.272 4.589 4.589 0 00-.864-.08h-2.848v3.456zm0-4.912h2.144c.363 0 .694-.032.992-.096a2.25 2.25 0 00.8-.32c.224-.149.395-.336.512-.56.128-.224.192-.501.192-.832 0-.437-.096-.757-.288-.96-.192-.213-.453-.357-.784-.432a4.706 4.706 0 00-1.072-.112h-2.496v3.312zm12.306 6.56c-.885 0-1.627-.181-2.224-.544a3.506 3.506 0 01-1.36-1.504c-.299-.651-.448-1.397-.448-2.24 0-.853.155-1.605.464-2.256a3.691 3.691 0 011.376-1.536c.608-.373 1.339-.56 2.192-.56.629 0 1.179.117 1.648.352.48.224.88.539 1.2.944.331.395.571.843.72 1.344.149.501.219 1.029.208 1.584l-.032.336c0 .107-.005.219-.016.336h-6.096c.032.427.139.816.32 1.168.192.352.459.635.8.848.341.203.763.304 1.264.304.277 0 .544-.032.8-.096.267-.075.501-.187.704-.336.213-.16.363-.363.448-.608h1.664c-.139.565-.389 1.035-.752 1.408a3.17 3.17 0 01-1.296.8 4.87 4.87 0 01-1.584.256zm-2.336-5.056h4.48a2.332 2.332 0 00-.288-1.104 1.924 1.924 0 00-.752-.768c-.32-.192-.704-.288-1.152-.288-.491 0-.901.101-1.232.304-.32.203-.571.469-.752.8-.171.32-.272.672-.304 1.056zm4.064-4.64c-.288 0-.533-.091-.736-.272-.192-.181-.288-.427-.288-.736s.096-.555.288-.736c.203-.192.448-.288.736-.288s.533.096.736.288c.203.181.304.427.304.736s-.101.555-.304.736a1.067 1.067 0 01-.736.272zm-3.712 0c-.288 0-.533-.091-.736-.272-.203-.181-.304-.427-.304-.736s.101-.555.304-.736c.203-.192.448-.288.736-.288s.533.096.736.288c.203.181.304.427.304.736s-.101.555-.304.736c-.192.181-.437.272-.736.272zm7.46 12.672v-11.504h1.568l.08 1.216a2.672 2.672 0 011.184-.992 3.728 3.728 0 011.568-.336c.832 0 1.52.192 2.064.576.544.384.949.901 1.216 1.552.266.651.4 1.387.4 2.208 0 .821-.139 1.557-.416 2.208a3.287 3.287 0 01-1.248 1.536c-.555.373-1.264.56-2.128.56-.416 0-.79-.043-1.12-.128a2.877 2.877 0 01-.864-.368 4.788 4.788 0 01-.656-.544v4.016h-1.648zm4.096-4.448c.576 0 1.034-.128 1.376-.384.341-.267.586-.613.736-1.04.149-.427.224-.891.224-1.392 0-.523-.08-.997-.24-1.424-.15-.437-.4-.784-.752-1.04-.342-.267-.8-.4-1.376-.4-.523 0-.966.133-1.328.4-.363.256-.64.603-.832 1.04a3.668 3.668 0 00-.272 1.424c0 .523.085 1.003.256 1.44.181.427.453.763.816 1.008.373.245.837.368 1.392.368zm9.443 1.472c-.886 0-1.627-.181-2.224-.544a3.43 3.43 0 01-1.328-1.504c-.288-.651-.432-1.397-.432-2.24 0-.832.149-1.573.448-2.224a3.535 3.535 0 011.376-1.552c.618-.384 1.381-.576 2.288-.576.618 0 1.168.107 1.648.32.48.203.869.507 1.168.912.309.395.512.891.608 1.488h-1.648c-.139-.437-.374-.752-.704-.944-.32-.192-.699-.288-1.136-.288-.587 0-1.056.139-1.408.416a2.372 2.372 0 00-.768 1.072 4.21 4.21 0 00-.224 1.376c0 .501.08.965.24 1.392.17.427.426.773.768 1.04.352.256.81.384 1.376.384.426 0 .821-.091 1.184-.272.362-.192.597-.512.704-.96h1.696c-.096.619-.32 1.131-.672 1.536-.352.395-.79.688-1.312.88a4.658 4.658 0 01-1.648.288zm7.21-.096v-6.96h-2.848v-1.472h7.344v1.472h-2.848V314h-1.648zm5.641 0v-8.432h1.648v3.504h1.408l2.352-3.504h1.888l-2.768 4 2.928 4.432h-1.92l-2.32-3.472h-1.568V314h-1.648zm11.078.096c-.373 0-.736-.048-1.088-.144a3.114 3.114 0 01-.944-.464 2.513 2.513 0 01-.672-.784c-.16-.32-.24-.693-.24-1.12 0-.512.096-.933.288-1.264a2.09 2.09 0 01.8-.784 3.422 3.422 0 011.136-.4 7.114 7.114 0 011.36-.128h2.064c0-.416-.064-.779-.192-1.088a1.487 1.487 0 00-.608-.736c-.267-.181-.624-.272-1.072-.272-.267 0-.523.032-.768.096a1.58 1.58 0 00-.608.272.97.97 0 00-.352.512h-1.728c.064-.405.208-.752.432-1.04.224-.299.501-.544.832-.736a3.757 3.757 0 011.056-.416 4.796 4.796 0 011.168-.144c.811 0 1.467.16 1.968.48.512.32.885.779 1.12 1.376.235.597.352 1.307.352 2.128V314h-1.424l-.064-1.04a2.71 2.71 0 01-.848.72 3.17 3.17 0 01-.976.32 5.377 5.377 0 01-.992.096zm.288-1.392c.491 0 .917-.08 1.28-.24.363-.171.64-.411.832-.72.203-.32.304-.699.304-1.136v-.336h-1.504c-.309 0-.613.011-.912.032a3.185 3.185 0 00-.816.128 1.103 1.103 0 00-.56.336c-.139.16-.208.389-.208.688 0 .288.075.523.224.704.149.181.347.32.592.416.245.085.501.128.768.128zM796.289 314v-8.432h1.648v5.968a3.77 3.77 0 01.288-.416c.118-.16.208-.288.272-.384l3.856-5.168h1.536V314h-1.648v-5.936a8.945 8.945 0 01-.272.416c-.096.128-.186.245-.272.352L797.841 314h-1.552zm14 0v-8.432h1.648v5.968a3.77 3.77 0 01.288-.416c.118-.16.208-.288.272-.384l3.856-5.168h1.536V314h-1.648v-5.936a8.945 8.945 0 01-.272.416c-.096.128-.186.245-.272.352L811.841 314h-1.552zm9.61 0v-8.432h1.648v3.552h3.888v-3.552h1.648V314h-1.648v-3.424h-3.888V314h-1.648zm11.187 0v-6.96h-2.848v-1.472h7.344v1.472h-2.848V314h-1.648zm9.353.096c-.886 0-1.627-.181-2.224-.544a3.5 3.5 0 01-1.36-1.504c-.299-.651-.448-1.397-.448-2.24 0-.853.154-1.605.464-2.256a3.684 3.684 0 011.376-1.536c.608-.373 1.338-.56 2.192-.56.629 0 1.178.117 1.648.352.48.224.88.539 1.2.944.33.395.57.843.72 1.344.149.501.218 1.029.208 1.584l-.032.336c0 .107-.006.219-.016.336h-6.096c.032.427.138.816.32 1.168.192.352.458.635.8.848.341.203.762.304 1.264.304.277 0 .544-.032.8-.096.266-.075.501-.187.704-.336.213-.16.362-.363.448-.608h1.664c-.139.565-.39 1.035-.752 1.408a3.17 3.17 0 01-1.296.8 4.878 4.878 0 01-1.584.256zm-2.336-5.056h4.48a2.332 2.332 0 00-.288-1.104 1.93 1.93 0 00-.752-.768c-.32-.192-.704-.288-1.152-.288-.491 0-.902.101-1.232.304-.32.203-.571.469-.752.8-.171.32-.272.672-.304 1.056zm7.811 4.96v-8.432h5.904v1.472h-4.256V314h-1.648zm7.235 3.072v-11.504h1.568l.08 1.216a2.672 2.672 0 011.184-.992 3.728 3.728 0 011.568-.336c.832 0 1.52.192 2.064.576.544.384.949.901 1.216 1.552.266.651.4 1.387.4 2.208 0 .821-.139 1.557-.416 2.208a3.287 3.287 0 01-1.248 1.536c-.555.373-1.264.56-2.128.56-.416 0-.79-.043-1.12-.128a2.877 2.877 0 01-.864-.368 4.788 4.788 0 01-.656-.544v4.016h-1.648zm4.096-4.448c.576 0 1.034-.128 1.376-.384.341-.267.586-.613.736-1.04.149-.427.224-.891.224-1.392 0-.523-.08-.997-.24-1.424-.15-.437-.4-.784-.752-1.04-.342-.267-.8-.4-1.376-.4-.523 0-.966.133-1.328.4-.363.256-.64.603-.832 1.04a3.668 3.668 0 00-.272 1.424c0 .523.085 1.003.256 1.44.181.427.453.763.816 1.008.373.245.837.368 1.392.368zm8.278 1.472c-.373 0-.736-.048-1.088-.144a3.126 3.126 0 01-.944-.464 2.513 2.513 0 01-.672-.784c-.16-.32-.24-.693-.24-1.12 0-.512.096-.933.288-1.264.203-.341.47-.603.8-.784a3.43 3.43 0 011.136-.4 7.121 7.121 0 011.36-.128h2.064c0-.416-.064-.779-.192-1.088a1.482 1.482 0 00-.608-.736c-.266-.181-.624-.272-1.072-.272-.266 0-.522.032-.768.096a1.586 1.586 0 00-.608.272.975.975 0 00-.352.512h-1.728c.064-.405.208-.752.432-1.04.224-.299.502-.544.832-.736a3.757 3.757 0 011.056-.416 4.802 4.802 0 011.168-.144c.811 0 1.467.16 1.968.48.512.32.886.779 1.12 1.376.235.597.352 1.307.352 2.128V314h-1.424l-.064-1.04a2.71 2.71 0 01-.848.72c-.309.16-.634.267-.976.32a5.377 5.377 0 01-.992.096zm.288-1.392c.491 0 .918-.08 1.28-.24.363-.171.64-.411.832-.72.203-.32.304-.699.304-1.136v-.336h-1.504c-.309 0-.613.011-.912.032a3.2 3.2 0 00-.816.128 1.107 1.107 0 00-.56.336c-.138.16-.208.389-.208.688 0 .288.075.523.224.704.15.181.347.32.592.416.246.085.502.128.768.128zm12.538 3.808V314h-6.544v-8.432h1.648v6.976h3.76v-6.976h1.68v6.976h1.088v3.968h-1.632zm2.94-2.512v-8.432h1.648v5.968a3.77 3.77 0 01.288-.416c.118-.16.208-.288.272-.384l3.856-5.168h1.536V314h-1.648v-5.936a8.945 8.945 0 01-.272.416c-.096.128-.186.245-.272.352L882.841 314h-1.552zm9.082 0l2.224-3.264c-.587-.171-1.056-.459-1.408-.864-.342-.405-.512-.923-.512-1.552 0-.533.08-.976.24-1.328a1.96 1.96 0 01.688-.832c.298-.213.65-.363 1.056-.448a6.12 6.12 0 011.376-.144h3.584V314h-1.648v-2.992h-1.712L892.307 314h-1.936zm4.528-4.384h1.072v-2.608h-1.744c-.288 0-.55.016-.784.048a1.677 1.677 0 00-.592.192.946.946 0 00-.384.384c-.086.16-.128.379-.128.656 0 .309.074.555.224.736.16.171.362.299.608.384.245.085.517.144.816.176.309.021.613.032.912.032zM782.602 338v-8.432h7.216V338h-1.648v-6.96h-3.92V338h-1.648zm9.234 3.072v-11.504h1.568l.08 1.216a2.678 2.678 0 011.184-.992 3.731 3.731 0 011.568-.336c.832 0 1.52.192 2.064.576.544.384.949.901 1.216 1.552s.4 1.387.4 2.208c0 .821-.139 1.557-.416 2.208a3.287 3.287 0 01-1.248 1.536c-.555.373-1.264.56-2.128.56-.416 0-.789-.043-1.12-.128a2.877 2.877 0 01-.864-.368 4.849 4.849 0 01-.656-.544v4.016h-1.648zm4.096-4.448c.576 0 1.035-.128 1.376-.384.341-.267.587-.613.736-1.04.149-.427.224-.891.224-1.392 0-.523-.08-.997-.24-1.424a2.08 2.08 0 00-.752-1.04c-.341-.267-.8-.4-1.376-.4-.523 0-.965.133-1.328.4-.363.256-.64.603-.832 1.04a3.686 3.686 0 00-.272 1.424c0 .523.085 1.003.256 1.44.181.427.453.763.816 1.008.373.245.837.368 1.392.368zm9.383 1.472c-.875 0-1.616-.176-2.224-.528a3.556 3.556 0 01-1.392-1.52c-.309-.651-.464-1.403-.464-2.256 0-.864.155-1.616.464-2.256a3.556 3.556 0 011.392-1.52c.608-.373 1.355-.56 2.24-.56.875 0 1.616.187 2.224.56a3.455 3.455 0 011.376 1.52c.309.651.464 1.408.464 2.272 0 .843-.16 1.589-.48 2.24a3.455 3.455 0 01-1.376 1.52c-.597.352-1.339.528-2.224.528zm0-1.472c.576 0 1.04-.128 1.392-.384.363-.256.629-.597.8-1.024.171-.427.256-.896.256-1.408 0-.512-.085-.981-.256-1.408a2.235 2.235 0 00-.8-1.04c-.352-.267-.816-.4-1.392-.4-.565 0-1.029.133-1.392.4a2.242 2.242 0 00-.8 1.024c-.16.427-.24.901-.24 1.424 0 .512.08.981.24 1.408.171.427.437.768.8 1.024.363.256.827.384 1.392.384zm9.483 1.472c-.885 0-1.627-.181-2.224-.544a3.506 3.506 0 01-1.36-1.504c-.299-.651-.448-1.397-.448-2.24 0-.853.155-1.605.464-2.256a3.691 3.691 0 011.376-1.536c.608-.373 1.339-.56 2.192-.56.629 0 1.179.117 1.648.352.48.224.88.539 1.2.944.331.395.571.843.72 1.344.149.501.219 1.029.208 1.584l-.032.336c0 .107-.005.219-.016.336h-6.096c.032.427.139.816.32 1.168.192.352.459.635.8.848.341.203.763.304 1.264.304.277 0 .544-.032.8-.096.267-.075.501-.187.704-.336.213-.16.363-.363.448-.608h1.664c-.139.565-.389 1.035-.752 1.408a3.17 3.17 0 01-1.296.8 4.87 4.87 0 01-1.584.256zm-2.336-5.056h4.48a2.332 2.332 0 00-.288-1.104 1.924 1.924 0 00-.752-.768c-.32-.192-.704-.288-1.152-.288-.491 0-.901.101-1.232.304-.32.203-.571.469-.752.8-.171.32-.272.672-.304 1.056zm7.812 4.96v-8.432h1.648v3.504h1.408l2.352-3.504h1.888l-2.768 4L827.73 338h-1.92l-2.32-3.472h-1.568V338h-1.648zm10.562 0v-6.96h-2.848v-1.472h7.344v1.472h-2.848V338h-1.648zm8.297.096c-.374 0-.736-.048-1.088-.144a3.114 3.114 0 01-.944-.464 2.487 2.487 0 01-.672-.784c-.16-.32-.24-.693-.24-1.12 0-.512.096-.933.288-1.264.202-.341.469-.603.8-.784.33-.192.709-.325 1.136-.4.437-.085.89-.128 1.36-.128h2.064c0-.416-.064-.779-.192-1.088a1.487 1.487 0 00-.608-.736c-.267-.181-.624-.272-1.072-.272-.267 0-.523.032-.768.096a1.573 1.573 0 00-.608.272.97.97 0 00-.352.512h-1.728c.064-.405.208-.752.432-1.04.224-.299.501-.544.832-.736.33-.192.682-.331 1.056-.416a4.796 4.796 0 011.168-.144c.81 0 1.466.16 1.968.48.512.32.885.779 1.12 1.376.234.597.352 1.307.352 2.128V338h-1.424l-.064-1.04a2.722 2.722 0 01-.848.72 3.18 3.18 0 01-.976.32 5.386 5.386 0 01-.992.096zm.288-1.392c.49 0 .917-.08 1.28-.24.362-.171.64-.411.832-.72.202-.32.304-.699.304-1.136v-.336h-1.504c-.31 0-.614.011-.912.032a3.185 3.185 0 00-.816.128 1.098 1.098 0 00-.56.336c-.139.16-.208.389-.208.688 0 .288.074.523.224.704.149.181.346.32.592.416.245.085.501.128.768.128zM1164.74 314v-9.76h-3.58v-1.552h8.85v1.552h-3.57V314h-1.7zm9.4.096c-.88 0-1.62-.181-2.22-.544a3.494 3.494 0 01-1.36-1.504c-.3-.651-.45-1.397-.45-2.24 0-.853.15-1.605.46-2.256a3.68 3.68 0 011.38-1.536c.61-.373 1.34-.56 2.19-.56.63 0 1.18.117 1.65.352.48.224.88.539 1.2.944.33.395.57.843.72 1.344.15.501.22 1.029.21 1.584l-.03.336c0 .107-.01.219-.02.336h-6.1c.04.427.14.816.32 1.168.2.352.46.635.8.848.35.203.77.304 1.27.304.28 0 .54-.032.8-.096.26-.075.5-.187.7-.336.22-.16.36-.363.45-.608h1.66a2.945 2.945 0 01-.75 1.408c-.35.363-.78.629-1.29.8-.51.171-1.03.256-1.59.256zm-2.33-5.056h4.48a2.333 2.333 0 00-.29-1.104 1.912 1.912 0 00-.75-.768c-.32-.192-.71-.288-1.16-.288-.49 0-.9.101-1.23.304-.32.203-.57.469-.75.8-.17.32-.27.672-.3 1.056zm11.47 5.056c-.88 0-1.63-.181-2.22-.544a3.428 3.428 0 01-1.33-1.504c-.29-.651-.43-1.397-.43-2.24 0-.832.15-1.573.45-2.224.3-.661.76-1.179 1.37-1.552.62-.384 1.38-.576 2.29-.576.62 0 1.17.107 1.65.32.48.203.87.507 1.17.912.3.395.51.891.6 1.488h-1.64c-.14-.437-.38-.752-.71-.944-.32-.192-.7-.288-1.13-.288-.59 0-1.06.139-1.41.416a2.39 2.39 0 00-.77 1.072c-.15.437-.22.896-.22 1.376 0 .501.08.965.24 1.392.17.427.42.773.76 1.04.36.256.81.384 1.38.384.43 0 .82-.091 1.18-.272.37-.192.6-.512.71-.96h1.69c-.09.619-.32 1.131-.67 1.536-.35.395-.79.688-1.31.88-.51.192-1.06.288-1.65.288zm7.21-.096v-6.96h-2.85v-1.472h7.35v1.472h-2.85V314h-1.65zm5.64 0v-8.432h1.65v5.968c.08-.128.17-.267.29-.416.12-.16.21-.288.27-.384l3.86-5.168h1.53V314h-1.64v-5.936c-.09.139-.18.277-.28.416-.09.128-.18.245-.27.352l-3.85 5.168h-1.56zm9.61 3.072v-11.504h1.57l.08 1.216c.3-.448.69-.779 1.18-.992.5-.224 1.02-.336 1.57-.336.83 0 1.52.192 2.07.576.54.384.95.901 1.21 1.552.27.651.4 1.387.4 2.208 0 .821-.14 1.557-.41 2.208a3.34 3.34 0 01-1.25 1.536c-.56.373-1.27.56-2.13.56-.42 0-.79-.043-1.12-.128a2.81 2.81 0 01-.86-.368 4.492 4.492 0 01-.66-.544v4.016h-1.65zm4.1-4.448c.57 0 1.03-.128 1.37-.384.35-.267.59-.613.74-1.04.15-.427.22-.891.22-1.392 0-.523-.08-.997-.24-1.424-.14-.437-.4-.784-.75-1.04-.34-.267-.8-.4-1.37-.4-.53 0-.97.133-1.33.4-.36.256-.64.603-.83 1.04-.18.437-.28.912-.28 1.424 0 .523.09 1.003.26 1.44.18.427.45.763.82 1.008.37.245.83.368 1.39.368zm9.38 1.472c-.87 0-1.61-.176-2.22-.528a3.54 3.54 0 01-1.39-1.52c-.31-.651-.47-1.403-.47-2.256 0-.864.16-1.616.47-2.256a3.54 3.54 0 011.39-1.52c.61-.373 1.35-.56 2.24-.56.87 0 1.61.187 2.22.56.61.363 1.07.869 1.38 1.52.31.651.46 1.408.46 2.272 0 .843-.16 1.589-.48 2.24a3.495 3.495 0 01-1.37 1.52c-.6.352-1.34.528-2.23.528zm0-1.472c.58 0 1.04-.128 1.39-.384.37-.256.63-.597.8-1.024.17-.427.26-.896.26-1.408 0-.512-.09-.981-.26-1.408a2.184 2.184 0 00-.8-1.04c-.35-.267-.81-.4-1.39-.4-.56 0-1.03.133-1.39.4-.36.256-.63.597-.8 1.024-.16.427-.24.901-.24 1.424 0 .512.08.981.24 1.408.17.427.44.768.8 1.024.36.256.83.384 1.39.384zm5.77 1.376v-8.432h3.55c.37 0 .73.027 1.09.08.38.043.71.139 1.01.288.31.149.56.368.74.656.19.277.28.645.28 1.104 0 .277-.04.528-.12.752-.09.224-.21.421-.37.592-.15.16-.34.299-.58.416.54.139.92.389 1.15.752.25.352.37.773.37 1.264 0 .448-.08.832-.25 1.152-.17.32-.4.581-.69.784-.29.203-.61.352-.98.448a4.31 4.31 0 01-1.12.144h-4.08zm1.68-1.44h2.11c.3 0 .58-.027.82-.08.26-.064.46-.176.61-.336.16-.16.24-.379.24-.656 0-.288-.07-.507-.19-.656-.13-.16-.3-.272-.5-.336s-.42-.101-.66-.112a7.536 7.536 0 00-.68-.032h-1.75v2.208zm0-3.456h1.25c.19 0 .41-.011.66-.032.24-.032.48-.085.7-.16.24-.075.42-.181.56-.32.15-.149.22-.352.22-.608 0-.341-.09-.576-.28-.704-.18-.139-.4-.219-.66-.24a6.144 6.144 0 00-.75-.048h-1.7v2.112zm9.82 4.992c-.37 0-.73-.048-1.09-.144a3.15 3.15 0 01-.94-.464c-.28-.213-.5-.475-.67-.784-.16-.32-.24-.693-.24-1.12 0-.512.09-.933.29-1.264.2-.341.47-.603.8-.784.33-.192.71-.325 1.13-.4.44-.085.89-.128 1.36-.128h2.07c0-.416-.07-.779-.2-1.088-.12-.32-.33-.565-.6-.736-.27-.181-.63-.272-1.08-.272-.26 0-.52.032-.76.096-.24.053-.44.144-.61.272a.95.95 0 00-.35.512h-1.73c.06-.405.21-.752.43-1.04.22-.299.5-.544.83-.736.33-.192.68-.331 1.06-.416.38-.096.77-.144 1.17-.144.81 0 1.46.16 1.96.48.52.32.89.779 1.12 1.376.24.597.36 1.307.36 2.128V314h-1.43l-.06-1.04c-.25.309-.53.549-.85.72-.31.16-.63.267-.98.32-.34.064-.67.096-.99.096zm.29-1.392c.49 0 .92-.08 1.28-.24.36-.171.64-.411.83-.72.2-.32.31-.699.31-1.136v-.336h-1.51c-.31 0-.61.011-.91.032-.3.011-.57.053-.82.128-.23.064-.42.176-.56.336-.13.16-.2.389-.2.688 0 .288.07.523.22.704.15.181.35.32.59.416.25.085.5.128.77.128zm5.99 1.296v-8.432h1.65v3.552h3.89v-3.552h1.65V314h-1.65v-3.424h-3.89V314h-1.65zm9.21 0v-8.432h1.64v5.968c.08-.128.18-.267.29-.416.12-.16.21-.288.27-.384l3.86-5.168h1.54V314h-1.65v-5.936l-.27.416c-.1.128-.19.245-.28.352l-3.85 5.168h-1.55zm13.32.096c-.89 0-1.63-.181-2.23-.544a3.557 3.557 0 01-1.36-1.504c-.29-.651-.44-1.397-.44-2.24 0-.853.15-1.605.46-2.256a3.68 3.68 0 011.38-1.536c.6-.373 1.33-.56 2.19-.56.63 0 1.18.117 1.65.352.48.224.88.539 1.2.944.33.395.57.843.72 1.344.15.501.21 1.029.2 1.584l-.03.336c0 .107 0 .219-.01.336h-6.1c.03.427.14.816.32 1.168.19.352.46.635.8.848.34.203.76.304 1.26.304.28 0 .55-.032.8-.096.27-.075.51-.187.71-.336.21-.16.36-.363.45-.608h1.66c-.14.565-.39 1.035-.75 1.408-.35.363-.79.629-1.3.8-.5.171-1.03.256-1.58.256zm-2.34-5.056h4.48c-.01-.416-.1-.784-.29-1.104a1.912 1.912 0 00-.75-.768c-.32-.192-.7-.288-1.15-.288-.49 0-.9.101-1.23.304-.32.203-.57.469-.75.8-.17.32-.28.672-.31 1.056zm12.2 4.96v-8.432h1.65v5.968c.08-.128.17-.267.29-.416.12-.16.21-.288.27-.384l3.86-5.168h1.53V314h-1.64v-5.936c-.09.139-.18.277-.28.416-.09.128-.18.245-.27.352l-3.85 5.168h-1.56zm17.2.096c-.42 0-.84-.037-1.26-.112a4.273 4.273 0 01-1.17-.416 2.468 2.468 0 01-.86-.768c-.23-.32-.35-.725-.39-1.216h1.62c.04.267.18.48.42.64.23.16.5.277.8.352.29.064.57.096.83.096.28 0 .56-.027.85-.08.28-.064.52-.181.72-.352.2-.181.3-.437.3-.768 0-.299-.07-.523-.22-.672a1.174 1.174 0 00-.6-.304c-.24-.053-.51-.08-.81-.08h-1.49v-1.344h1.2c.2 0 .4-.016.59-.048.19-.043.36-.101.51-.176.16-.085.29-.197.39-.336.09-.149.14-.336.14-.56 0-.267-.08-.475-.24-.624-.15-.16-.34-.272-.59-.336-.25-.064-.5-.096-.75-.096-.26 0-.52.027-.79.08-.26.053-.49.155-.68.304-.2.149-.31.357-.36.624h-1.6c.05-.619.24-1.104.58-1.456.35-.363.78-.619 1.3-.768a5.433 5.433 0 011.53-.224c.39 0 .76.037 1.14.112.37.075.71.203 1.02.384.32.171.57.405.75.704.19.299.28.667.28 1.104 0 .363-.09.693-.26.992-.16.288-.42.523-.77.704.5.171.86.437 1.06.8.2.352.3.768.3 1.248 0 .469-.1.869-.3 1.2-.2.32-.47.587-.8.8a3.78 3.78 0 01-1.12.448 5.66 5.66 0 01-1.27.144zm7.77 0c-.37 0-.73-.048-1.09-.144a3.15 3.15 0 01-.94-.464c-.28-.213-.5-.475-.67-.784-.16-.32-.24-.693-.24-1.12 0-.512.09-.933.29-1.264.2-.341.47-.603.8-.784.33-.192.71-.325 1.13-.4.44-.085.89-.128 1.36-.128h2.07c0-.416-.07-.779-.2-1.088-.12-.32-.33-.565-.6-.736-.27-.181-.63-.272-1.08-.272-.26 0-.52.032-.76.096-.24.053-.44.144-.61.272a.95.95 0 00-.35.512h-1.73c.06-.405.21-.752.43-1.04.22-.299.5-.544.83-.736.33-.192.69-.331 1.06-.416.38-.096.77-.144 1.17-.144.81 0 1.46.16 1.96.48.52.32.89.779 1.12 1.376.24.597.36 1.307.36 2.128V314h-1.43l-.06-1.04c-.25.309-.53.549-.85.72-.31.16-.63.267-.98.32-.34.064-.67.096-.99.096zm.29-1.392c.49 0 .92-.08 1.28-.24.36-.171.64-.411.83-.72.21-.32.31-.699.31-1.136v-.336h-1.51c-.31 0-.61.011-.91.032-.3.011-.57.053-.82.128-.23.064-.42.176-.56.336-.13.16-.2.389-.2.688 0 .288.07.523.22.704.15.181.35.32.59.416.25.085.5.128.77.128zm5.99 1.296v-8.432h7.22V314h-1.65v-6.96h-3.92V314h-1.65zm9.56 3.696v-1.632c.49 0 .88-.059 1.18-.176.31-.117.57-.309.77-.576.2-.256.4-.592.59-1.008l-3.65-8.736h1.94l2.64 6.832 2.13-6.832h1.84l-2.32 6.848c-.12.363-.26.757-.42 1.184-.15.427-.32.853-.51 1.28-.18.427-.39.821-.62 1.184-.24.363-.5.656-.79.88-.23.192-.47.341-.7.448-.24.117-.51.197-.83.24-.32.043-.74.064-1.25.064zm12.23-3.6c-.88 0-1.62-.181-2.22-.544a3.428 3.428 0 01-1.33-1.504c-.29-.651-.43-1.397-.43-2.24 0-.832.15-1.573.45-2.224.31-.661.77-1.179 1.37-1.552.62-.384 1.38-.576 2.29-.576.62 0 1.17.107 1.65.32.48.203.87.507 1.17.912.31.395.51.891.61 1.488h-1.65c-.14-.437-.38-.752-.71-.944-.32-.192-.7-.288-1.13-.288-.59 0-1.06.139-1.41.416a2.39 2.39 0 00-.77 1.072c-.15.437-.22.896-.22 1.376 0 .501.08.965.24 1.392.17.427.42.773.77 1.04.35.256.81.384 1.37.384.43 0 .82-.091 1.19-.272.36-.192.59-.512.7-.96h1.7c-.1.619-.32 1.131-.68 1.536-.35.395-.79.688-1.31.88-.51.192-1.06.288-1.65.288zm5.23-.096v-8.432h1.65v3.504h1.41l2.35-3.504h1.89l-2.77 4 2.93 4.432h-1.92l-2.32-3.472h-1.57V314h-1.65zm-142.42 24v-8.432h1.65v5.968c.07-.128.17-.267.28-.416.12-.16.21-.288.28-.384l3.85-5.168h1.54V338h-1.65v-5.936l-.27.416c-.1.128-.19.245-.27.352l-3.86 5.168h-1.55zm9.61 0v-8.432h1.65v3.552h3.88v-3.552h1.65V338h-1.65v-3.424h-3.88V338h-1.65zm11.18 0v-6.96h-2.84v-1.472h7.34v1.472h-2.85V338h-1.65zm9.36.096c-.89 0-1.63-.181-2.23-.544a3.557 3.557 0 01-1.36-1.504c-.3-.651-.44-1.397-.44-2.24 0-.853.15-1.605.46-2.256a3.68 3.68 0 011.38-1.536c.6-.373 1.33-.56 2.19-.56.63 0 1.18.117 1.65.352.48.224.88.539 1.2.944.33.395.57.843.72 1.344.14.501.21 1.029.2 1.584l-.03.336c0 .107 0 .219-.01.336h-6.1c.03.427.14.816.32 1.168.19.352.46.635.8.848.34.203.76.304 1.26.304.28 0 .55-.032.8-.096.27-.075.5-.187.71-.336.21-.16.36-.363.45-.608h1.66c-.14.565-.39 1.035-.75 1.408-.35.363-.79.629-1.3.8-.5.171-1.03.256-1.58.256zm-2.34-5.056h4.48a2.333 2.333 0 00-.29-1.104 1.912 1.912 0 00-.75-.768c-.32-.192-.7-.288-1.15-.288-.49 0-.9.101-1.23.304-.32.203-.57.469-.75.8-.18.32-.28.672-.31 1.056zm7.81 8.032v-11.504h1.57l.08 1.216c.3-.448.69-.779 1.19-.992a3.708 3.708 0 011.56-.336c.84 0 1.52.192 2.07.576.54.384.95.901 1.21 1.552.27.651.4 1.387.4 2.208 0 .821-.14 1.557-.41 2.208a3.34 3.34 0 01-1.25 1.536c-.56.373-1.26.56-2.13.56-.41 0-.79-.043-1.12-.128a2.81 2.81 0 01-.86-.368 4.492 4.492 0 01-.66-.544v4.016h-1.65zm4.1-4.448c.58 0 1.03-.128 1.38-.384.34-.267.58-.613.73-1.04.15-.427.23-.891.23-1.392 0-.523-.08-.997-.24-1.424-.15-.437-.4-.784-.76-1.04-.34-.267-.8-.4-1.37-.4-.53 0-.97.133-1.33.4-.36.256-.64.603-.83 1.04-.18.437-.27.912-.27 1.424 0 .523.08 1.003.25 1.44.18.427.45.763.82 1.008.37.245.83.368 1.39.368zm5.62 1.376v-8.432h1.65v3.552h3.89v-3.552h1.65V338h-1.65v-3.424H1238V338h-1.65zm12.92.096c-.89 0-1.63-.181-2.23-.544a3.557 3.557 0 01-1.36-1.504c-.3-.651-.45-1.397-.45-2.24 0-.853.16-1.605.47-2.256.32-.651.78-1.163 1.37-1.536.61-.373 1.34-.56 2.2-.56.63 0 1.18.117 1.64.352.48.224.88.539 1.2.944.34.395.58.843.72 1.344.15.501.22 1.029.21 1.584l-.03.336c0 .107 0 .219-.02.336h-6.09c.03.427.14.816.32 1.168.19.352.46.635.8.848.34.203.76.304 1.26.304.28 0 .55-.032.8-.096.27-.075.5-.187.71-.336.21-.16.36-.363.44-.608h1.67c-.14.565-.39 1.035-.75 1.408-.36.363-.79.629-1.3.8-.5.171-1.03.256-1.58.256zm-2.34-5.056h4.48a2.333 2.333 0 00-.29-1.104 1.912 1.912 0 00-.75-.768c-.32-.192-.7-.288-1.15-.288-.49 0-.9.101-1.23.304a2.26 2.26 0 00-.76.8c-.17.32-.27.672-.3 1.056zm9.8 4.96v-6.96h-2.85v-1.472h7.34v1.472h-2.85V338h-1.64zm5.75-3.808v-1.504h5.12v1.504h-5.12zm7.25 3.808v-8.432h2.11l2.59 4.032 2.54-4.032h2.08V338h-1.64v-6.432l-2.77 4.416h-.48l-2.79-4.432V338h-1.64zm14 .096c-.38 0-.74-.048-1.09-.144a3.206 3.206 0 01-.95-.464c-.27-.213-.5-.475-.67-.784-.16-.32-.24-.693-.24-1.12 0-.512.1-.933.29-1.264.2-.341.47-.603.8-.784.33-.192.71-.325 1.14-.4.43-.085.89-.128 1.36-.128h2.06c0-.416-.06-.779-.19-1.088-.13-.32-.33-.565-.61-.736-.27-.181-.62-.272-1.07-.272-.27 0-.52.032-.77.096-.23.053-.44.144-.61.272a.95.95 0 00-.35.512h-1.73c.07-.405.21-.752.43-1.04.23-.299.51-.544.84-.736.33-.192.68-.331 1.05-.416a4.88 4.88 0 011.17-.144c.81 0 1.47.16 1.97.48.51.32.88.779 1.12 1.376.23.597.35 1.307.35 2.128V338h-1.42l-.07-1.04c-.24.309-.53.549-.85.72-.3.16-.63.267-.97.32-.34.064-.67.096-.99.096zm.28-1.392c.5 0 .92-.08 1.28-.24.37-.171.64-.411.84-.72.2-.32.3-.699.3-1.136v-.336h-1.5c-.31 0-.62.011-.92.032-.29.011-.57.053-.81.128-.24.064-.42.176-.56.336-.14.16-.21.389-.21.688 0 .288.08.523.22.704.15.181.35.32.6.416.24.085.5.128.76.128zm6 1.296v-8.432h5.9v1.472h-4.25V338h-1.65zm9.65.096c-.37 0-.73-.048-1.08-.144a3.091 3.091 0 01-.95-.464c-.28-.213-.5-.475-.67-.784-.16-.32-.24-.693-.24-1.12 0-.512.1-.933.29-1.264.2-.341.47-.603.8-.784.33-.192.71-.325 1.13-.4.44-.085.89-.128 1.36-.128h2.07c0-.416-.07-.779-.19-1.088-.13-.32-.33-.565-.61-.736-.27-.181-.63-.272-1.07-.272-.27 0-.53.032-.77.096-.24.053-.44.144-.61.272a.95.95 0 00-.35.512h-1.73c.06-.405.21-.752.43-1.04.23-.299.5-.544.83-.736.33-.192.69-.331 1.06-.416.38-.096.77-.144 1.17-.144.81 0 1.46.16 1.97.48.51.32.88.779 1.12 1.376.23.597.35 1.307.35 2.128V338h-1.43l-.06-1.04c-.25.309-.53.549-.85.72-.31.16-.63.267-.97.32-.35.064-.68.096-1 .096zm.29-1.392c.49 0 .92-.08 1.28-.24.36-.171.64-.411.83-.72.21-.32.31-.699.31-1.136v-.336h-1.51c-.31 0-.61.011-.91.032-.3.011-.57.053-.81.128-.24.064-.43.176-.56.336-.14.16-.21.389-.21.688 0 .288.07.523.22.704.15.181.35.32.59.416.25.085.51.128.77.128zm9.2 1.392c-.43 0-.85-.037-1.27-.112-.41-.085-.8-.224-1.17-.416a2.468 2.468 0 01-.86-.768c-.22-.32-.35-.725-.38-1.216h1.61c.04.267.18.48.42.64.23.16.5.277.8.352.3.064.57.096.83.096.28 0 .56-.027.85-.08.29-.064.53-.181.72-.352.2-.181.3-.437.3-.768 0-.299-.07-.523-.22-.672a1.182 1.182 0 00-.59-.304c-.25-.053-.52-.08-.82-.08h-1.49v-1.344h1.2c.2 0 .4-.016.59-.048.2-.043.37-.101.52-.176.16-.085.28-.197.38-.336.1-.149.14-.336.14-.56 0-.267-.08-.475-.24-.624-.15-.16-.34-.272-.59-.336a2.899 2.899 0 00-.75-.096c-.26 0-.52.027-.78.08-.27.053-.5.155-.69.304a.94.94 0 00-.35.624h-1.6c.04-.619.23-1.104.57-1.456a2.91 2.91 0 011.3-.768 5.433 5.433 0 011.53-.224c.39 0 .77.037 1.14.112.37.075.71.203 1.02.384.32.171.57.405.76.704.18.299.27.667.27 1.104 0 .363-.09.693-.26.992-.16.288-.41.523-.77.704.5.171.86.437 1.06.8.2.352.3.768.3 1.248 0 .469-.1.869-.3 1.2-.2.32-.47.587-.8.8-.33.203-.7.352-1.12.448-.42.096-.84.144-1.26.144zm5.11-.096v-8.432h1.65v5.968c.07-.128.17-.267.28-.416.12-.16.21-.288.28-.384l3.85-5.168h1.54V338h-1.65v-5.936l-.27.416c-.1.128-.19.245-.27.352l-3.86 5.168h-1.55zm9.61 0v-8.432h1.65v3.552h3.88v-3.552h1.65V338h-1.65v-3.424h-3.88V338h-1.65zm11.86.096c-.38 0-.74-.048-1.09-.144a3.206 3.206 0 01-.95-.464c-.27-.213-.5-.475-.67-.784-.16-.32-.24-.693-.24-1.12 0-.512.1-.933.29-1.264.2-.341.47-.603.8-.784.33-.192.71-.325 1.14-.4.43-.085.89-.128 1.36-.128h2.06c0-.416-.06-.779-.19-1.088-.13-.32-.33-.565-.61-.736-.27-.181-.62-.272-1.07-.272-.27 0-.52.032-.77.096-.23.053-.44.144-.61.272a.95.95 0 00-.35.512h-1.73c.07-.405.21-.752.43-1.04.23-.299.51-.544.84-.736.33-.192.68-.331 1.05-.416a4.88 4.88 0 011.17-.144c.81 0 1.47.16 1.97.48.51.32.88.779 1.12 1.376.23.597.35 1.307.35 2.128V338h-1.42l-.07-1.04c-.24.309-.53.549-.85.72-.3.16-.63.267-.97.32-.34.064-.67.096-.99.096zm.28-1.392c.5 0 .92-.08 1.28-.24.37-.171.64-.411.84-.72.2-.32.3-.699.3-1.136v-.336h-1.5c-.31 0-.62.011-.92.032-.29.011-.57.053-.81.128-.24.064-.42.176-.56.336-.14.16-.21.389-.21.688 0 .288.08.523.22.704.15.181.35.32.6.416.24.085.5.128.76.128z" fill="#fff"/><g clip-path="url(#clip0_276_9059)"><path d="M18 121.25v-4.905a5.232 5.232 0 011.849 1.192l2.613 2.615A5.212 5.212 0 0123.655 122H18.75a.749.749 0 01-.75-.75zm6 2.614v6.386a3.754 3.754 0 01-3.75 3.75h-7.5A3.754 3.754 0 019 130.25v-10.5a3.754 3.754 0 013.75-3.75h3.386c.123 0 .243.01.364.018v5.232a2.25 2.25 0 002.25 2.25h5.232c.008.121.018.241.018.364zm-6 6.386a.748.748 0 00-.75-.75H13.5a.749.749 0 00-.53 1.28c.14.141.331.22.53.22h3.75a.749.749 0 00.75-.75zm2.25-3a.748.748 0 00-.75-.75h-6a.749.749 0 00-.53 1.28c.14.141.331.22.53.22h6a.749.749 0 00.75-.75z" fill="#fff"/></g><g clip-path="url(#clip1_276_9059)"><path d="M274.386 224.332l2.783 2.783-10.008 10.006a3 3 0 01-2.121.879h-1.54v-1.54a3 3 0 01.879-2.121l10.007-10.007zm6.473-3.691a1.969 1.969 0 00-2.783 0l-2.63 2.631 2.783 2.782 2.63-2.63a1.969 1.969 0 000-2.783zm-8.159 3.256l-1.125-1.125-1.69 1.69a.748.748 0 01-1.061 0 .75.75 0 010-1.061l1.69-1.689-.942-.942a2.624 2.624 0 00-3.712-.001l-1.591 1.591a2.625 2.625 0 000 3.712l3.128 3.128 5.303-5.303zm-.4 10.207l3.128 3.128a2.626 2.626 0 003.713 0l1.59-1.591a2.623 2.623 0 000-3.712l-.942-.942-1.689 1.69a.75.75 0 11-1.061-1.061l1.69-1.69-1.125-1.125-5.303 5.304-.001-.001z" fill="#fff"/></g><g clip-path="url(#clip2_276_9059)"><path d="M545.305 126.022l5.195 5.196V134h-2.782l-5.196-5.195 2.783-2.783zm-12.229-6.663l4.581 4.581 2.783-2.783-4.581-4.581a1.969 1.969 0 00-2.783 2.783zm6.575 7.49a3.755 3.755 0 00-5.31 0C532.875 128.316 532.5 134 532.5 134s5.684-.375 7.151-1.841a3.755 3.755 0 000-5.31zm10.273-10.273a1.969 1.969 0 00-2.783 0l-8.094 8.095a5.23 5.23 0 011.664 1.117c.492.493.862 1.06 1.117 1.665l8.095-8.094a1.968 1.968 0 000-2.782l.001-.001z" fill="#fff"/></g><g clip-path="url(#clip3_276_9059)"><path d="M818.5 220h-12c-1.655 0-3 1.345-3 3v9c0 1.655 1.345 3 3 3h2.192l2.811 2.367a1.51 1.51 0 001.004.382c.35 0 .698-.122.969-.364l2.885-2.385h2.139c1.655 0 3-1.345 3-3v-9c0-1.655-1.345-3-3-3zm-9.53 8.033l1.937 1.937a.749.749 0 11-1.061 1.06l-1.937-1.937a2.253 2.253 0 010-3.182l1.937-1.938a.75.75 0 111.061 1.061l-1.937 1.937a.751.751 0 000 1.062zm8.121 1.06l-1.938 1.937a.748.748 0 01-1.06 0 .749.749 0 010-1.06l1.937-1.937a.751.751 0 000-1.062l-1.937-1.937a.75.75 0 011.06-1.061l1.938 1.938a2.253 2.253 0 010 3.182z" fill="#fff"/></g><g clip-path="url(#clip4_276_9059)"><g clip-path="url(#clip5_276_9059)" fill="#fff"><path d="M1338.07 220.979c.99.18 1.75.956 1.94 1.925.04.177.06.407.05.689v1.465c0 .003-.01.004-.01.004h-16.09c-.02 0-.02-.006-.02-.018v-1.812a2.44 2.44 0 011.48-2.102c.34-.148.69-.195 1.07-.194 3.65.003 7.33.003 11.02 0 .21-.001.4.014.56.043zm-10.57 2.208a.547.547 0 00-.17-.397.555.555 0 00-.79 0 .547.547 0 000 .794.555.555 0 00.79 0 .547.547 0 00.17-.397zm1.87 0a.527.527 0 00-.04-.215.626.626 0 00-.12-.182.623.623 0 00-.18-.122.575.575 0 00-.62.122.58.58 0 00-.16.397c0 .149.06.292.16.397a.572.572 0 00.62.122c.06-.028.13-.07.18-.122a.626.626 0 00.12-.182.527.527 0 00.04-.215zm1.88 0a.547.547 0 00-.17-.397.555.555 0 00-.79 0 .547.547 0 000 .794.555.555 0 00.79 0 .547.547 0 00.17-.397zm8.77 11.901a2.433 2.433 0 01-1.91 1.924c-.17.035-.4.053-.69.052-3.57-.005-7.15-.005-10.72.001-.31.001-.54-.01-.69-.032a2.43 2.43 0 01-2.02-1.937c-.04-.162-.05-.379-.05-.651v-8.254c0-.002.01-.003.01-.003h16.09c.02 0 .02.006.02.02 0 2.739 0 5.482.01 8.23 0 .276-.02.493-.05.65zm-11.41-5.026c-.23-.23-.46-.462-.7-.696-.43-.434-1.14-.002-.94.578a.71.71 0 00.18.253c.22.218.45.441.67.668v.02c-.25.252-.49.49-.71.714-.28.279-.2.717.14.902.13.074.33.079.47.017a.892.892 0 00.26-.195c.2-.212.42-.425.64-.641 0-.002 0-.004.01-.004 0 0 0 .002.01.004.21.205.43.425.66.661.08.09.17.15.25.18.57.22 1.02-.495.59-.926-.25-.254-.49-.492-.71-.713v-.018c.2-.203.43-.43.68-.679.16-.159.24-.351.19-.573a.567.567 0 00-.77-.382c-.08.03-.18.115-.31.254-.2.208-.4.4-.58.576-.01.01-.02.01-.03 0zm5.62 1.124c-.35-.359-.71-.717-1.07-1.074a.563.563 0 00-.93.596c.02.072.08.154.18.245.49.485.96.961 1.42 1.429.23.229.59.244.82.012.78-.775 1.53-1.527 2.26-2.255a.563.563 0 10-.82-.773c-.6.595-1.2 1.202-1.82 1.82-.01.012-.02.012-.04 0z"/></g></g><g clip-path="url(#clip6_276_9059)"><path d="M1080.25 127.566l-.37-.216a7.8 7.8 0 000-2.717l.37-.217a2.517 2.517 0 00.93-3.416 2.542 2.542 0 00-1.52-1.167 2.49 2.49 0 00-1.9.25l-.38.217c-.7-.6-1.5-1.067-2.38-1.375v-.434c0-1.375-1.12-2.5-2.5-2.5a2.51 2.51 0 00-2.5 2.5v.434c-.87.308-1.68.775-2.38 1.375l-.38-.217a2.513 2.513 0 00-1.9-.25 2.506 2.506 0 00-.6 4.583l.38.217c-.09.45-.13.908-.13 1.358 0 .45.04.9.13 1.359l-.38.216a2.507 2.507 0 00-.92 3.417c.33.575.87.992 1.51 1.167.65.175 1.32.083 1.9-.25l.38-.217c.7.6 1.51 1.067 2.38 1.375v.433a2.51 2.51 0 002.5 2.5c1.38 0 2.5-1.125 2.5-2.5v-.433a7.456 7.456 0 002.39-1.375l.37.217c.58.333 1.25.425 1.9.25a2.542 2.542 0 001.52-1.167 2.52 2.52 0 00-.92-3.417zm-10.07-.533a.84.84 0 010 1.175.836.836 0 01-.6.242.87.87 0 01-.59-.242l-1.01-1.008a1.65 1.65 0 010-2.342l1.01-1.008a.836.836 0 011.18 0 .84.84 0 010 1.175l-1.01 1.008 1.01.992.01.008zm3.8-4.208l-1.33 6.666c-.07.4-.42.667-.82.667-.05 0-.1 0-.16-.017a.831.831 0 01-.65-.983l1.33-6.667c.09-.45.53-.741.98-.65.45.092.75.525.65.984zm3.04 4.375l-1.01 1.008a.83.83 0 01-.59.242.834.834 0 01-.59-.242.821.821 0 010-1.175l1-1.008-1-1a.821.821 0 010-1.175.824.824 0 011.17 0l1.01 1.008c.65.65.65 1.7 0 2.342h.01z" fill="#fff"/></g><defs><clipPath id="clip0_276_9059"><path fill="#fff" transform="translate(7.5 116)" d="M0 0h18v18H0z"/></clipPath><clipPath id="clip1_276_9059"><path fill="#fff" transform="translate(263.5 220)" d="M0 0h18v18H0z"/></clipPath><clipPath id="clip2_276_9059"><path fill="#fff" transform="translate(532.5 116)" d="M0 0h18v18H0z"/></clipPath><clipPath id="clip3_276_9059"><path fill="#fff" transform="translate(803.5 220)" d="M0 0h18v18H0z"/></clipPath><clipPath id="clip4_276_9059"><path fill="#fff" transform="translate(1322.5 220)" d="M0 0h18v18H0z"/></clipPath><clipPath id="clip5_276_9059"><path fill="#fff" transform="translate(1323 220)" d="M0 0h18v18H0z"/></clipPath><clipPath id="clip6_276_9059"><path fill="#fff" transform="translate(1062.5 116)" d="M0 0h20v20H0z"/></clipPath><linearGradient id="paint0_linear_276_9059" x1="9" y1="171.605" x2="1660" y2="87" gradientUnits="userSpaceOnUse"><stop stop-color="#0052CC"/><stop offset=".581" stop-color="#0D8BED"/><stop offset=".88" stop-color="#0F1015"/><stop offset="1" stop-color="#0F1015"/></linearGradient></defs></svg>