<svg width="44" height="44" fill="none" xmlns="http://www.w3.org/2000/svg"><path opacity=".1" d="M10.258 37.721L24 42.237l13.742-4.516L40 6H8l2.258 31.721zm24.028-26.425l-.307 4.237H18.258l.39 5.436h14.94l-.891 12.794L24 36.69l-8.697-2.9-.307-4.292h4.237l.084 1.171L24 32.202l4.683-1.56.362-5.409H14.69l-.976-13.937h20.572z" fill="#fff"/><path d="M7.258 33.721L21 38.237l13.742-4.516L37 2H5l2.258 31.721zM31.286 7.296l-.307 4.237H15.258l.39 5.436h14.94l-.891 12.794L21 32.69l-8.697-2.9-.307-4.292h4.237l.084 1.171L21 28.202l4.683-1.56.362-5.409H11.69l-.976-13.937h20.572z" fill="#fff"/></svg>