<svg width="24" height="24" fill="none" xmlns="http://www.w3.org/2000/svg"><g clip-path="url(#clip0_379_15850)"><path d="M12 24c6.627 0 12-5.373 12-12S18.627 0 12 0 0 5.373 0 12s5.373 12 12 12z" fill="#2AABEE"/><path fill-rule="evenodd" clip-rule="evenodd" d="M5.431 11.873C8.93 10.35 11.262 9.344 12.43 8.86c3.333-1.386 4.025-1.627 4.476-1.635.1-.002.322.023.465.14.214.173.215.548.191.797-.18 1.898-.962 6.502-1.36 8.627-.168.9-.499 1.201-.82 1.23-.696.065-1.225-.46-1.9-.902-1.056-.693-1.653-1.124-2.678-1.8-1.185-.78-.417-1.209.258-1.91.177-.184 3.247-2.977 3.307-3.23.007-.032.014-.15-.056-.212s-.174-.041-.249-.024c-.106.024-1.793 1.139-5.061 3.345-.48.33-.913.49-1.302.481-.428-.01-1.252-.242-1.865-.441-.751-.245-1.349-.374-1.297-.789.027-.216.325-.437.893-.663z" fill="#fff"/></g><defs><clipPath id="clip0_379_15850"><path fill="#fff" d="M0 0h24v24H0z"/></clipPath></defs></svg>