<svg width="24" height="24" fill="none" xmlns="http://www.w3.org/2000/svg"><g clip-path="url(#clip0_379_15847)"><path d="M12 24c6.627 0 12-5.372 12-12 0-6.627-5.373-12-12-12S0 5.373 0 12c0 6.628 5.373 12 12 12z" fill="#4BAE4F"/><path d="M16.352 7.644A5.951 5.951 0 0012.125 5.9c-3.294 0-5.974 2.667-5.975 5.946a5.916 5.916 0 00.797 2.973l-.618 2.246a.5.5 0 00.609.616l2.329-.608a5.995 5.995 0 002.856.724h.002c3.293 0 5.973-2.668 5.975-5.946a5.9 5.9 0 00-1.748-4.207z" fill="#fff"/><path d="M11.064 11.15c.219.344.499.686.816 1.002v.002c.317.316.659.597 1.003.815l.279-.276a.748.748 0 01.954-.079l.743.52.04.027a.74.74 0 01.099 1.135l-.246.246c-1.015 1.01-2.72.154-4.067-1.193-1.346-1.347-2.204-3.053-1.194-4.068l.246-.246a.742.742 0 011.135.1c.167.239.346.497.547.782a.748.748 0 01-.079.954l-.276.279z" fill="#4BAE4F"/></g><defs><clipPath id="clip0_379_15847"><path fill="#fff" d="M0 0h24v24H0z"/></clipPath></defs></svg>