<svg width="370" height="1148" fill="none" xmlns="http://www.w3.org/2000/svg"><g opacity=".8"><path d="M373.361 1112C70.246 991.685-71.979 665.217 35.808 374.655a572.764 572.764 0 0198.826-169.837c35.542-42.4 76.356-79 122.618-109.225 60.652-39.644 109.52-59.837 170.161-76.14C483.298 4.424 541.841-.687 590.963.98c66.397 2.254 130.521 15.25 192.122 39.765 95.062 37.832 174.47 96.907 238.225 177.227 63.47 80.004 102.03 170.867 117.45 271.864 14.24 93.368 4.28 200.447-35.54 298.783-36.48 90.118-95.49 171.914-177.132 236.151-75.918 59.71-161.535 97.81-256.848 114.3-105.07 18.03-207.331 7.04-295.879-27.07zm627.419-915.523l-3.402-1.765c.108-.636.208-1.269.302-1.916l-3.649-1.468c-.07-.777.003-1.609-.98-1.923.225-1.134-.692-1.38-1.374-1.828a882.24 882.24 0 00-1.472-1.78c-2.168-2.802-4.262-5.685-7.579-7.289-.328-2.339-2.396-3.419-3.845-4.861a471.442 471.442 0 00-52.649-45.202c-24.915-18.353-51.421-33.981-79.795-46.367a345.534 345.534 0 00-60.277-20.06c-24.947-5.774-50.175-8.728-75.779-7.86-64.473 2.163-120.574 24.892-167.48 69.512-29.402 27.963-50.8 61.461-66.468 98.733a344.646 344.646 0 00-15.07 44.599 398.582 398.582 0 00-11.406 62.573c-4.825 47.572-1.981 94.805 7.335 141.611 14.628 73.379 43.061 141.034 84.687 203.115 29.694 44.278 64.998 83.433 106.729 116.696 27.438 21.869 56.936 40.404 88.938 54.794 21.493 9.663 43.68 17.358 66.746 22.521 28.884 6.468 58.035 9.134 87.565 6.626 64.989-5.53 119.823-32.131 164.503-79.802 23.78-25.429 41.66-54.706 55.18-86.687 11.32-26.752 18.96-54.594 23.61-83.236 7.28-44.887 7.27-89.852 1.17-134.856a35.162 35.162 0 00-.79-4.196c-.1-.367-.74-.592-1.1-.894.95-.766.88-1.778.68-2.822l.21-2.661c-.92-.789-.81-2.545-2.46-2.667l-.24-2.386.48-.89c-.17.289-.34.578-.51.859.08.801.17 1.597.25 2.396.29.42.52.877.7 1.358.22 1.029.92 1.301 1.8 1.333-.67.843-1.77 1.667-.15 2.627-.9.773-.96 1.746-.63 2.81.08 1.066.12 2.132.24 3.196a479.748 479.748 0 013 56.59c-.34 37.147-5.27 73.63-16.24 109.17-9.05 29.317-21.7 57.008-39.21 82.317-21.25 30.69-47.62 55.842-80.21 74.198-34.265 19.285-71.249 28.783-110.418 29.734-27.655.654-54.72-3.188-81.322-10.484a331.703 331.703 0 01-58.821-22.542 393.357 393.357 0 01-57.508-34.852 457.608 457.608 0 01-79.322-73.642c-44.49-52.175-77.56-110.831-99.211-175.967-15.77-47.176-24.719-95.587-25.642-145.401-.726-38.943 3.539-77.267 14.312-114.785a315.957 315.957 0 0124.844-61.972c10.907-20.4 23.972-39.265 39.823-56.124 42.099-44.799 93.777-69.45 155.035-73.957 39.534-2.934 77.765 3.701 114.987 16.729 16.348 5.722 32.051 12.901 47.36 20.985a398.007 398.007 0 0149.244 30.981 466.05 466.05 0 0142.633 35.582c1.402 1.308 2.48 3.085 4.629 3.439 1.774 3.226 4.123 5.84 7.591 7.257-.381 1.32.646 1.503 1.488 1.787-.1 1.029.668 1.444 1.386 1.845.309.661.613 1.319.996 1.977l3.467 1.484c-.113.647-.217 1.29-.327 1.932l3.406 1.759.61.343-.79.139c.08-.141.14-.307.2-.474l-.01.009zM657.805 1137.92l2.55-.09.55.16a3.35 3.35 0 01-.448-.06c-.881-.39-1.771-.98-2.583.12-.844-.62-1.695-1.04-2.596-.1-1.858-1.02-3.844-.46-5.769-.36-21.007.97-42.056.31-62.959-1.96a436.19 436.19 0 01-67.141-12.57c-14.801-4.01-29.464-8.43-43.819-13.82-14.015-5.26-27.828-11.02-41.337-17.5-12.543-5.99-24.959-12.24-36.988-19.2a604.83 604.83 0 01-65.295-43.53 639.382 639.382 0 01-81.47-74.605c-42.761-46.477-78.352-97.935-107.189-154.08a705.09 705.09 0 01-59.992-163.289c-13.422-57.842-19.272-116.394-16.537-175.753a560.528 560.528 0 019.88-82.246 513.743 513.743 0 0117.832-67.197c9.194-26.908 20.498-52.909 34.45-77.707a429.336 429.336 0 0149.485-70.324 27.298 27.298 0 012.345-2.127 1.123 1.123 0 01-.094-.426c.032-.086.162-.17.249-.253l-.258.676c-.809.205-1.827.159-2.384.648-1.746 1.513-3.345 3.204-4.95 4.875a400.82 400.82 0 00-44.9 56.423 425.604 425.604 0 00-35.466 65.286 489.175 489.175 0 00-28.298 85.239c-3.842 16.703-7.06 33.509-9.355 50.483a594.993 594.993 0 00-2.48 136.112c5.905 62.569 20.572 123.044 43.38 181.555 25.652 65.784 60.413 126.317 104.284 181.6 43.337 54.357 93.734 100.95 152.348 138.46a535.191 535.191 0 0079.753 42.15 475.677 475.677 0 0084.406 26.92 425.942 425.942 0 0095.973 9.99c12.289-.12 24.565-.86 36.78-2.22 1.841-.22 3.959.28 5.463-1.41.363.28.806.45 1.269.48.462.02.92-.1 1.311-.35zM232.404 115.481l.652.175c-.088.07-.216.217-.257.195a2.635 2.635 0 01-.306-.251c-.457.863-.91 1.734-1.366 2.597-2.226-.024-3.367 1.805-4.794 2.994a372.63 372.63 0 00-49.19 48.252c-31.071 36.477-54.7 77.386-72.296 121.853-11.587 29.273-20.026 59.475-25.985 90.396-7.897 40.985-11 82.338-9.904 124.002 1.832 69.394 14.774 136.769 37.579 202.233a702.895 702.895 0 0097.237 185.457c47.351 64.595 103.937 119.466 171.544 162.706a533.472 533.472 0 0079.268 41.89c33.564 14.23 68.283 24.78 104.273 31.01 36.888 6.38 73.938 8.09 111.218 4.4a357.814 357.814 0 0049.522-8.29c1.806-.44 3.974-.23 5.287-2.05.756.5 1.472.69 2.502-.88l-2.445.99c-1.753-.01-3.504.08-5.246.28a400.299 400.299 0 01-108.099 3.22 427.833 427.833 0 01-66.142-12.09c-14.809-3.94-29.497-8.28-43.886-13.6a544.671 544.671 0 01-64.356-28.77 556.2 556.2 0 01-55.765-33.66c-41.502-28.39-78.881-61.565-112.512-98.893a698.201 698.201 0 01-82.971-113.222c-36.102-61.263-62.586-126.446-79.455-195.549a665.107 665.107 0 01-16.275-98.618c-4.651-53.381-2.85-106.514 6.675-159.33a529.806 529.806 0 0119.698-76.069 451.983 451.983 0 0132.484-73.325 418.146 418.146 0 0143.495-64.09c10.915-13.235 22.785-25.54 35.165-37.377 1.26-1.197 2.955-2.083 3.321-4.036 1.76-.111 1.424-1.404 1.33-2.55zm-5.284 912.789l4.089 1.74c-.001.34.063.68.186 1 .081.14.495.09.763.13-.105-.14-.22-.27-.344-.4-.266-.23-.546-.45-.839-.66-.968-1.42-2.362-1.87-4.01-1.75.037-1.86.037-1.86-2.015-2.32.237-1.81-1.123-1.95-2.334-2.24-.179-2.07-2.003-2.74-3.314-3.85a598.657 598.657 0 01-82.449-86.516 633.915 633.915 0 01-88.03-152.941c-21.84-54.078-35.831-110.122-41.973-168.13-1.141-10.987-1.654-22.04-2.476-33.064-.111-1.531.316-3.198-.952-4.492 1.048-1.919.831-3.783-.198-5.639.446-.916.782-1.831.104-2.784.2-.943.377-1.888-.581-2.57a1.212 1.212 0 01.031-.403c.07-.113.16-.214.265-.295-.121.222-.24.439-.365.654.285.852.57 1.705.802 2.55l-.11 2.782a7.59 7.59 0 00.132 5.656c-1.027 2.409-.52 4.932-.45 7.392a524.1 524.1 0 007.02 73.381c21.2 124.686 75.537 232.646 163.008 323.881a504.346 504.346 0 0043.986 40.458c1.758 1.45 3.261 3.35 5.687 3.84.131 1.45 1.438 1.65 2.39 2.24.628.78 1.277 1.57 1.977 2.35zm914.03-434.517c.08-.306.15-.613.24-.916.05-.144.11-.293.17-.442.01.168.07.356.01.498-.14.285-.3.561-.47.827-.06 1.109-.1 2.213-.16 3.32.43 2.421-.96 4.856.07 7.273-.41 1.716-.96 3.409-1.2 5.149-2.77 20.704-6.64 41.179-12.4 61.286-7.61 26.54-17.97 51.923-31.77 75.835-14.54 25.184-32.34 47.827-53.94 67.385a247.46 247.46 0 01-80.822 49.241c-37.064 13.725-75.368 18.194-114.61 14.889a318.637 318.637 0 01-78.625-17.039 391.638 391.638 0 01-71.503-33.481 446.785 446.785 0 01-61.881-44.629c-38.295-32.785-70.889-70.579-98.451-112.746a565.784 565.784 0 01-65.286-136.66c-15.865-49.201-24.888-99.561-25.754-151.349-.737-43.985 4.463-87.181 17.372-129.351a334.19 334.19 0 0126.683-63.523 284.786 284.786 0 0143.642-59.935c24.104-25.227 52.084-44.832 84.256-58.394 34.208-14.398 69.966-20.61 106.957-19.773a300.543 300.543 0 0167.062 9.258 362.842 362.842 0 0152.602 17.741 391.943 391.943 0 0142.981 21.484c5.228 3.015 10.264 6.347 15.401 9.522l2.581 1.123.148-.389-2.722-.737c-.115-.513-.046-1.237-.374-1.496a29.713 29.713 0 00-3.37-2.619 424.352 424.352 0 00-67.803-37.264c-26.576-11.507-54.058-20.125-82.663-25.072-31.838-5.507-63.75-6.534-95.752-1.74-61.046 9.153-112.916 36.091-155.612 80.813-25.066 26.173-44.299 56.268-58.965 89.31a378.927 378.927 0 00-24.557 76.867 449.14 449.14 0 00-8.853 72.139 514.678 514.678 0 009.94 123.95c15.778 78.325 46.142 150.502 91.091 216.532 31.401 46.367 68.646 87.353 112.557 122.183 28.743 22.793 59.614 42.169 93.055 57.258 22.614 10.206 45.968 18.437 70.206 23.96 22.485 5.137 45.199 8.135 68.262 8.441 36.42.48 71.715-5.477 105.641-18.957 46.916-18.613 85.196-48.643 115.876-88.576 19.35-25.233 34.28-52.937 45.66-82.614a396.766 396.766 0 0022.56-89.008c1.15-8.479 1.91-17.012 2.74-25.528.11-1.123.76-2.492-.5-3.49 1.32-2.431 1.61-4.876.09-7.335.83-1.006 1.31-2.071.19-3.221zM508.421 1139.78c-.703-.02-1.405-.08-2.101-.19-10.837-2.12-21.6-4.52-32.269-7.4-14.971-4.08-29.785-8.6-44.294-14.1-13.155-5-26.141-10.42-38.849-16.51-12.537-5.99-24.949-12.25-36.98-19.2a585.247 585.247 0 01-64.789-43.31 621.087 621.087 0 01-75.323-68.691 674.4 674.4 0 01-108.94-156.631c-33.712-66.779-56.3-137.1-66.72-211.276-9.039-64.255-8.454-128.318 3.626-192.214a519.43 519.43 0 0119.558-73.366 416.542 416.542 0 0124.01-56.073c.529-1.019 1.649-2.057.816-3.533-1.09 1.696-2.24 3.29-3.19 4.99a413.302 413.302 0 00-19.96 40.261c-9.999 23.515-18.392 47.58-24.616 72.398a535.547 535.547 0 00-13.026 72.619c-6.412 59.167-3.435 117.906 7.724 176.253 14.657 76.63 41.974 148.432 81.951 215.408 37.067 62.474 82.964 117.513 138.578 164.305a557.167 557.167 0 0086.819 60.15 485.403 485.403 0 0044.921 22.42 502.756 502.756 0 0055.66 20.46 470.132 470.132 0 0051.446 12.17c4.562.82 9.156 1.31 13.73 2.01a2.15 2.15 0 002.241-.98c.755.77 1.545 1.43 3.842 1.27l-3.865-1.24zM130.052 216.567c-.502.071-1.202-.043-1.477.249a34.373 34.373 0 00-2.72 3.289 424.177 424.177 0 00-51.532 90.437c-6.14 14.645-11.613 29.55-16.293 44.756a519.994 519.994 0 00-15.066 62.382 561.37 561.37 0 00-8.455 100.612 632.508 632.508 0 0018.029 146.237 681.85 681.85 0 0074.106 183.984c36.006 61.79 80.431 116.695 134.185 163.927 44.075 38.73 92.702 70.39 146.518 93.87a467.008 467.008 0 0068.09 23.71 441.09 441.09 0 0068.784 12.54 362.712 362.712 0 0037.861 1.98c1.049-.01 2.241.43 2.931-1.01-1.817-.16-3.572-.33-5.309-.46-14.572-1.07-29.065-2.74-43.475-5.21a460.256 460.256 0 01-62.747-15.44 509.91 509.91 0 01-71.152-29.07 558.19 558.19 0 01-57.396-33 597.443 597.443 0 01-85.51-68.158c-44.857-42.858-82.924-91.122-114.591-144.49-37.047-62.436-63.836-129.008-80.366-199.713-13.304-57.321-18.995-115.362-16.201-174.174 1.812-38.233 7.301-75.95 17.142-112.988 4.399-16.564 9.352-32.953 15.48-49.005a452.333 452.333 0 0119.273-44.135c5.339-10.49 10.731-20.961 17.034-30.926a9981.79 9981.79 0 0012.849-20.38l1.417-1.852c-1.701.389-1.453 1.258-1.409 2.038zM905.73 1036.2c-1.767-.25-2.983.96-4.311 1.73a351.54 351.54 0 01-67.086 29.2 361.705 361.705 0 01-111.138 16.48 409.177 409.177 0 01-73.824-7.27 458.561 458.561 0 01-77.029-21.81 513.902 513.902 0 01-56.429-25.6 549.965 549.965 0 01-63.191-38.896c-36.314-25.735-69.267-55.321-99.319-88.146a691.108 691.108 0 01-97.761-137.328c-39.793-73.235-66.465-150.955-78.612-233.57-9.222-62.733-9.503-125.436 1.176-188.036a496.3 496.3 0 0119.812-78.289c8.312-24.188 18.335-47.639 30.628-70.079a401.266 401.266 0 0137.392-56.634c35.162-44.375 77.958-79.128 129.36-103.048 3.878-1.805 7.808-3.506 11.708-5.303.703-.342 1.327-.782 2.923-1.742-2.964-.214-4.503.628-6.113 1.18a346.425 346.425 0 00-93.363 49.213c-55.497 41.094-95.667 94.371-123.991 156.958a461.822 461.822 0 00-22.339 60.754 527.384 527.384 0 00-14.376 63.638 578.027 578.027 0 00-6.892 111.961c2.335 69.756 15.83 137.373 39.135 203.045a711.358 711.358 0 0087.89 170.7c39.309 56.185 85.683 105.635 140.222 147.311 35.556 27.151 73.651 50.031 114.674 67.871 30.966 13.46 62.956 23.81 96.153 30.34a417.895 417.895 0 0076.39 8.08c51.647.52 101.404-8.81 148.957-29.26a336.817 336.817 0 0054.941-29.82c1.585-1.06 3.567-1.74 4.343-3.76 1.099.31 1.723-.1 2.071-2-.987 1.05-1.497 1.59-2.001 2.13zM476.239 12.028a36.437 36.437 0 00-4.698.39c-50.894 10.687-97.043 31.793-138.447 63.319-51.866 39.651-89.581 90.416-116.515 149.543-10.682 23.438-19.018 47.708-25.671 72.576a523.123 523.123 0 00-11.872 57.607 567.474 567.474 0 00-6.038 88.503c.421 54.894 8.059 108.796 22.171 161.77A707.158 707.158 0 00299.19 829.703a664.733 664.733 0 00102.779 116.29c41.054 36.641 86.14 67.267 135.901 90.827a466.703 466.703 0 0060.169 23.59 455.432 455.432 0 0060.171 14.62c36.755 6.24 73.658 7.61 110.707 3.16 71.416-8.6 134.343-36.47 188.781-83.619a33.198 33.198 0 013.001-2.06l-.111-.732.383.146c-.131.2-.269.404-.4.604-.856.12-1.835.021-2.542.405a28.616 28.616 0 00-3.5 2.443c-56 41.363-118.908 63.203-188.231 66.723-30.013 1.52-59.775-.74-89.336-6.17a435.001 435.001 0 01-63.512-16.67 487.243 487.243 0 01-64.809-27.71 565.542 565.542 0 01-53.81-31.728 588.582 588.582 0 01-82.946-67.129c-52.837-51.123-95.875-109.594-129.971-174.689a697.523 697.523 0 01-60.319-159.759c-11.555-47.707-17.967-96.012-18.431-145.097-.54-56.934 6.824-112.744 23.989-167.153a440.483 440.483 0 0131.924-75.868 384.615 384.615 0 0137.455-57.233c41.209-52.021 92.476-90.114 155.13-112.428 6.883-2.45 13.884-4.475 20.854-6.787 1.281-.421 2.904-.267 3.674-1.78.503.088 1.002.199 1.509.245.131.008.281-.18.426-.27-.191-.171-.413-.518-.56-.482-.46.173-.903.386-1.326.636zm68.986-8.821c-1.364.286-2.698.687-4.097.844-9.546 1.173-19.155 1.938-28.636 3.501C442.527 19.105 382.03 49.577 331 98.967c-39.028 37.797-67.671 82.598-88.264 132.683a447.168 447.168 0 00-17.843 52.138 530.928 530.928 0 00-11.882 54.322 556.33 556.33 0 00-7.002 99.116 634.465 634.465 0 0021.661 153.78c25.932 97.207 70.604 184.859 134.018 262.956 39.764 48.813 85.533 91.067 138.138 125.778a511.682 511.682 0 0076.768 42.03c29.286 12.81 59.494 22.9 90.867 29.36 29.424 6.06 59.109 9.08 89.156 8.42 43.603-.96 85.65-9.4 125.926-26.24 46.804-19.57 87.032-48.486 121.087-86.104.82-.905 1.78-1.704 2.67-2.562a1.644 1.644 0 01-.02-.443c.04-.115.1-.222.18-.316l-.22.765c-2.42-.44-3.46 1.619-4.76 2.893a318.492 318.492 0 01-31.522 26.484c-54.113 39.903-114.953 60.833-181.897 64.143-30.922 1.52-61.552-1.05-91.922-7.12a438.661 438.661 0 01-70.784-20.44 495.832 495.832 0 01-54.896-25.089 525.91 525.91 0 01-57.278-35.283c-38.311-27.014-72.814-58.306-103.853-93.434C349.222 788.743 304.58 711.576 274.786 625.8c-17.872-51.447-29.392-104.301-34.022-158.619a572.295 572.295 0 011.878-119.11 492.475 492.475 0 0112.253-64.605 454.738 454.738 0 0117.679-54.445c2.591-6.456 5.363-12.842 8.227-19.182 5.292-11.71 11.085-23.169 17.505-34.309 16.189-28.131 35.476-53.887 58.418-76.88a329.732 329.732 0 0180.155-59.266c31.997-16.861 65.939-27.92 101.616-33.585a35.962 35.962 0 004.726-.848c.73-.222 1.276-1.064 1.903-1.606l.761.064-.158.416-.502-.618zm133.61 9.562c-.876-.065-1.761-.06-2.626-.189-32.755-5.148-65.577-6.198-98.509-2.08-68.155 8.524-127.386 36.227-177.691 83.107-35.41 33.124-61.972 72.568-81.631 116.744a429.517 429.517 0 00-22.821 65.121 487.966 487.966 0 00-11.981 60.853c-6.208 46.948-5.91 93.926-.168 140.872 7.666 62.598 24.494 122.707 49.641 180.467 25.29 58.083 58.133 111.532 98.53 160.348 35.296 42.44 75.368 79.676 120.978 110.829a485.943 485.943 0 0076.285 42.914c31.352 13.971 63.776 24.66 97.636 30.805 33.68 6.11 67.53 8.02 101.614 4.35 76.741-8.258 141.998-40.147 195.768-95.669 20.34-20.988 37.39-44.474 51.89-69.814 1.75-2.994 3.97-5.913 4.53-9.584a34.088 34.088 0 00-3.76 4.906 342.088 342.088 0 01-22.16 30.825c-39.15 48.292-87.93 82.522-147.442 100.964-39.66 12.304-80.26 15.943-121.55 12.498a371.625 371.625 0 01-77.492-14.978 432.275 432.275 0 01-45.156-16.536 471.113 471.113 0 01-56.552-29.029c-36.031-21.645-68.894-47.469-98.946-76.854a624.774 624.774 0 01-103.099-132.57c-40.891-70.061-68.365-144.969-81.054-225.235-9.169-57.992-9.882-116.053-.197-174.138a456.646 456.646 0 0113.209-56.782 395.179 395.179 0 0123.836-60.733 364.173 364.173 0 0132.137-53.645c23.539-32.384 51.883-59.695 85.723-81.205 33.739-21.438 70.315-35.367 109.596-42.246 28.241-4.945 56.672-5.878 85.208-3.39a35.83 35.83 0 004.787.223c.51-.025.988-.801 1.506-1.171.691.873 1.444 1.599 3.192 1.215l-3.231-1.193zm102.219 804.145a305.761 305.761 0 0062.823 16.954c30.373 4.735 60.665 4.56 90.864-1.641 40.21-8.251 75.649-26.033 106.319-53.345 26.51-23.548 46.63-51.911 61.86-83.808 9.49-19.867 16.56-40.605 21.78-62.006a386.837 386.837 0 0010.62-78.847c1.37-40.535-2.93-80.518-12.21-119.932-16.7-71.31-46.98-136.308-90.82-194.996-24.29-32.591-52.142-61.765-83.914-87.144-25.874-20.664-53.697-38.129-83.94-51.684-24.812-11.104-50.562-19.325-77.448-23.734-26.724-4.383-53.477-5.106-80.342-1.089-53.054 7.956-97.922 31.655-134.792 70.597-20.399 21.593-36.3 46.247-48.583 73.236a329.855 329.855 0 00-23.426 73.815c-6.859 35.396-8.687 71.11-6.182 107.04 4.195 60.1 19.45 117.383 44.141 172.182a514.967 514.967 0 0071.532 115.675c33.972 41.405 73.321 76.622 119.717 103.676a361.228 361.228 0 0051.999 25.057l.002-.006zm47.5-752.47l.117-.308c-3.623-1.873-7.153-3.943-10.876-5.586-25.552-11.11-51.727-20.299-79.068-26.022-24.678-5.166-49.574-7.89-74.799-7.506-40.074.606-78.558 8.605-115.198 25.042-36.812 16.517-68.508 40.075-95.542 69.994-26.113 28.905-45.883 61.772-60.858 97.611-9.236 22.104-16.142 45.015-21.292 68.417a462.915 462.915 0 00-10.153 77.873c-2.036 43.333 1.372 86.267 9.564 128.826a614.91 614.91 0 0053.417 157.633c25.198 50.778 56.554 97.378 94.614 139.387 38.327 42.301 81.808 78.23 131.707 106.179a440.535 440.535 0 0048.115 23.194 382.318 382.318 0 0068.942 20.929c31.985 6.514 64.231 8.76 96.728 5.417 77.216-7.947 141.078-41.495 191.568-100.644 24.5-28.587 42.91-60.836 56.81-95.754a415.715 415.715 0 0017.62-56.121c.3-1.205.39-2.464.6-3.689.21-1.226.42-2.279.65-3.45a19.733 19.733 0 00-2 4.449c-2.58 8.17-4.85 16.453-7.7 24.518-9.62 27.197-22.18 52.958-38.28 76.925-16.43 24.461-35.85 46.17-58.85 64.625-39.697 31.86-84.881 50.71-135.259 57.093-45.85 5.781-90.683.428-134.577-13.279a392.76 392.76 0 01-69.822-29.481 472.391 472.391 0 01-54.195-34.133c-31.185-22.808-59.306-48.993-84.707-78.071a589.095 589.095 0 01-83.852-125.531c-25.198-50.601-43.122-103.641-53.106-159.363-7.463-41.611-10.151-83.509-7.342-125.736 2.212-33.25 7.855-65.901 17.775-97.705 7.989-25.628 18.344-50.258 31.961-73.487a311.51 311.51 0 0140.58-54.976 270.691 270.691 0 0165.63-51.876c33.116-18.65 68.681-29.555 106.439-33.231 44.274-4.314 87.459 1.48 129.669 15.021 10.001 3.197 19.758 7.18 29.626 10.807 1.798.636 3.567 1.334 5.344 2.01zm-76.203-31.58a9.24 9.24 0 00-1.512-1.068c-1.83-.697-3.67-1.398-5.55-1.93a406.806 406.806 0 00-43.215-9.892c-33.595-5.615-67.305-6.796-101.118-2.141-75.793 10.432-138.658 44.915-188.962 102.527-26.556 30.406-46.426 64.913-61.491 102.25-6.754 16.735-12.097 33.94-16.64 51.412a455.567 455.567 0 00-10.515 54.025c-6.367 47.125-5.922 94.275.204 141.367 8.73 67.097 28.173 130.994 57.333 191.971 26.324 55.049 59.559 105.512 100.29 150.923 45.047 50.214 96.745 91.931 157.11 122.496a420.357 420.357 0 0049.499 21.464 407.433 407.433 0 0059.2 16.313c33.276 6.402 66.746 8.327 100.503 4.859 40.044-4.112 77.911-15.482 113.261-34.801 51.532-28.177 91.062-68.685 120.902-119.009a392.832 392.832 0 0020.89-40.995 181.024 181.024 0 008.86-23.869 24.621 24.621 0 00-1.92 3.801 340.559 340.559 0 01-16.76 33.498c-15.19 26.851-33.53 51.285-55.73 72.825-34.5 33.469-74.813 56.848-120.927 70.135-32.351 9.231-65.39 12.477-98.936 10.719-36.589-1.923-71.932-9.856-106.28-22.387-25.348-9.246-49.499-21.062-72.689-34.812a495.863 495.863 0 01-70.581-50.844c-47.946-41.271-87.927-89.306-120.599-143.441-42.324-70.136-70.455-145.544-83.038-226.648-8.078-52.154-8.984-104.396-1.209-156.694a430.584 430.584 0 0117.242-72.82 369.296 369.296 0 0132.723-71.983c18.792-31.77 42.039-59.721 70.616-83.118C521.54 55.685 564.961 35.7 613.573 27.039c38.494-6.953 76.997-6.138 115.337 1.057 7.7 1.45 15.299 3.103 23.441 4.769zm294.539 857.282l-.37-.26c-.41.28-.8.597-1.16.947-1.3 1.467-2.57 2.952-3.82 4.456a328.43 328.43 0 01-42.556 42.818C944.741 983.252 882.173 1007.18 812 1011.23c-47.712 2.75-94.161-4.48-139.442-19.394a461.89 461.89 0 01-70.267-29.797 524.438 524.438 0 01-61.771-38.152c-36.209-25.945-68.875-55.855-98.328-89.245-48.544-55.028-86.741-116.584-115.164-184.217a653.975 653.975 0 01-42.85-148.194c-7.537-46.135-9.972-92.505-6.302-139.156 3.407-43.11 11.756-85.125 26.534-125.804 8.677-23.884 19.193-46.872 32.165-68.743a353.318 353.318 0 0151.503-67.434c37.466-38.246 81.715-65.35 132.749-81.31 27.907-8.66 56.542-13.168 85.735-14.134 1.93-.064 3.853-.186 6.007-.294-.343-.508-.436-.775-.549-.782a132.608 132.608 0 00-4.787-.303c-22.979-.981-46 .413-68.698 4.16-68.954 11.414-128.344 41.69-178.17 90.83-35.908 35.473-62.522 77.197-82.085 123.538a433.207 433.207 0 00-18.19 52.586 507.812 507.812 0 00-12.811 60.153 548.633 548.633 0 00-5.688 96.542 619.982 619.982 0 0019.289 137.487c24.882 97.382 68.858 185.179 131.927 263.393a612.54 612.54 0 00105.365 102.726c33.985 25.917 70.463 47.732 109.745 64.694a436.766 436.766 0 0089.634 27.92c38.23 7.46 76.655 9.44 115.375 4.78 54.513-6.54 104.405-25.32 149.416-56.901 30.939-21.712 57.208-48.188 79.548-78.64 1.74-2.407 3.33-4.929 5-7.393zM351.333 48.99c-2.081-.182-3.73.758-5.41 1.54a347.826 347.826 0 00-62.316 37.314c-54.901 41.161-94.906 94.13-123.349 156.214a461.549 461.549 0 00-23.82 64.74c-4.891 16.993-8.989 34.16-12.165 51.543a576.635 576.635 0 00-9.054 117.689c1.694 71.232 14.991 140.329 38.582 207.44a712.382 712.382 0 0093.686 180.225c38.986 54.379 84.703 102.274 138.137 142.695a560.227 560.227 0 00106.144 63.54 480.735 480.735 0 0075.885 27.24 445.082 445.082 0 0067.15 12.58c44.484 4.73 88.608 2.41 132.192-8.09a354.028 354.028 0 0081.408-30.43c.801-.38 1.576-.82 2.32-1.3.58-.39 1.752-.39 1.513-1.78-1.735.72-3.374 1.39-5.007 2.08a365.218 365.218 0 01-72.95 22.53c-37.883 7.36-76.021 8.77-114.382 4.79a425.867 425.867 0 01-64.064-11.64 464 464 0 01-47.901-15.06 544.531 544.531 0 01-59.867-27.06 555.242 555.242 0 01-59.238-36.16c-38.894-27.105-74.085-58.446-105.91-93.556-54.876-60.537-97.78-128.716-129.289-204.148-21.633-51.726-37.061-105.243-45.765-160.679-10.712-68.211-11.123-136.362 1.402-204.42a500.889 500.889 0 0124.354-87.533 444.94 444.94 0 0134.136-70.769c18.63-31.087 40.889-59.262 67.258-84.152a366.095 366.095 0 0171.401-52.461c1.654-.938 3.281-1.947 4.919-2.922zm-62.682 31.618l-.494-.798c-1.226.692-2.484 1.342-3.682 2.088a357.253 357.253 0 00-49.117 36.928c-46.538 41.606-80.633 92.041-104.828 149.381a481.762 481.762 0 00-22.816 67.94 547.343 547.343 0 00-11.193 55.567 582.214 582.214 0 00-6.082 94.378c.843 53.786 8.45 106.615 22.186 158.561a709.749 709.749 0 0075.316 180.071c36.413 61.713 80.958 116.768 134.551 164.386a594.723 594.723 0 0093.947 68.52 534.188 534.188 0 0050.737 26.29 492.657 492.657 0 0082.067 28.87 435.66 435.66 0 0071.564 11.99c50.108 4.11 99.277-.7 147.351-15.76 5.953-1.87 11.819-4.04 17.685-6.08.655-.23 1.824-.3 1.412-1.6a5.18 5.18 0 00-1.113.03c-1.383.34-2.761.71-4.133 1.1a375.628 375.628 0 01-77.817 13.49c-55.843 3.67-110.186-4.32-163.163-21.81a507.419 507.419 0 01-73.827-31.05 572.039 572.039 0 01-57.868-34.31c-45.524-30.803-86.121-67.27-122.268-108.673a707.735 707.735 0 01-102.86-155.086c-31.983-65.352-53.793-133.877-64.665-205.906-7.186-47.971-9.132-96.138-5.144-144.534 3.734-45.187 12.545-89.326 27.582-132.157a459.586 459.586 0 0135.46-77.816 410.49 410.49 0 0145.834-64.413 377.447 377.447 0 0160.861-56.083c1.551-1.13 3.01-2.355 4.517-3.514zM423.102 1123.93c-2.803-1.07-5.581-2.22-8.389-3.27-15.687-5.9-31.187-12.2-46.255-19.57-14.889-7.29-29.492-15.07-43.719-23.59-37.14-22.27-71.158-48.62-102.362-78.573-55.186-52.987-99.466-114.016-133.517-182.528-30.8-61.949-51.77-127.063-62.227-195.511-7.705-50.511-9.332-101.149-3.924-152.012 3.292-30.936 8.967-61.397 17.925-91.219 1.791-5.986 3.69-11.936 5.482-17.89.382-1.276.563-2.616.85-3.947-1.313 1.227-1.875 2.672-2.416 4.125a482.549 482.549 0 00-19.502 65.634 526.872 526.872 0 00-11.565 85.265c-3.187 59.236 2.743 117.593 16.926 175.114a648.489 648.489 0 00102.875 223.701c44.376 62.122 97.981 114.701 162.271 156.191 14.669 9.46 29.718 18.32 45.408 26.01 9.918 4.86 19.883 9.64 29.953 14.11a309.436 309.436 0 0052.192 17.94l-.006.02zM18.509 443.366c-.284.415-.537.851-.758 1.303-.328 1.565-.587 3.144-.96 4.698-4.028 17.766-6.45 35.778-8.169 53.893-5.062 53.459-2.192 106.558 7.97 159.188 19.89 103.057 62.706 195.472 128.452 277.246C196.076 1003.16 257.338 1054.28 330.4 1090.7c.95.49 1.927.93 2.926 1.31.782.29 1.623.44 3.32.88-7.65-4.35-14.46-8.19-21.243-12.08a537.159 537.159 0 01-67.422-46.06c-38.5-30.68-72.588-65.717-102.662-104.693a651.921 651.921 0 01-85.687-147.591C38.99 733.033 24.49 681.863 16.662 628.81 9.05 577.193 7.88 525.485 14.354 473.643c1.25-9.875 2.71-19.726 4.155-30.277zm411.386 682.784c.148.07.303.13.462.17.165.02.33.01.493-.01l-1.351-.51.396.35zM61.605 825.922c.006.243.027.486.065.726.35.024.207 1.183.83.377.058-.069-.487-.606-.895-1.103zM414.077 26.759a26.962 26.962 0 00-.152-.815l-2.196.793.183.606 2.165-.584zM343.368 1096.59l-.154-.24-.322.03.476.21zM19.398 438.153c-.094.148-.19.288-.28.43l.393-.057-.114-.373zM1082.76 827.555l.3-.051-.04-.384-.26.435zM790.689 1100.98l1.009-.77c-.088-.08-.219-.27-.263-.25-.4.17-.789.38-1.182.58l.436.44zM291.404 78.063l-.259.298c.088.07.223.213.254.195a.626.626 0 00.235-.296c.012-.032-.146-.128-.23-.197zm-56.13 955.587l-.264-.34-.18.28.444.06zm353.218 110.3l.271.33.171-.29-.442-.04z" fill="url(#paint0_radial_54_1408)"/><path d="M801.604 780.83a351.516 351.516 0 01-46.481-22.688c-43.866-25.701-81.042-59.09-112.858-98.576-42.408-52.632-72.588-111.569-90.539-176.814-11.338-40.981-17.007-82.727-16.115-125.312a363.97 363.97 0 016.949-64.288 302.979 302.979 0 0115.25-52.35c12.152-30.631 28.727-58.56 51.593-82.503 32.621-34.149 72.113-55.404 118.682-63.315 27.704-4.704 55.35-3.892 82.919 1.118 23.085 4.2 45.244 11.427 66.619 20.984 28.278 12.637 54.314 28.988 78.476 48.36 37.443 30.014 68.861 65.499 95.061 105.631 36.56 55.961 60.89 116.844 72.34 182.767 6.63 38.16 8.18 76.532 3.88 115.098-3.73 33.411-12.01 65.619-25.89 96.252-14.46 31.914-34.24 60.077-60.86 83.087-36.36 31.421-78.668 48.273-126.519 51.329-24.022 1.573-47.68-.722-71.086-6.112a323.254 323.254 0 01-41.421-12.668zm.911-2.953c21.871 8.142 42.942 13.906 64.779 16.777 30.022 3.943 59.753 2.651 89.072-5.207 39.068-10.493 72.234-30.874 99.764-60.506 23.91-25.761 40.78-55.741 52.58-88.687a304.86 304.86 0 0011.8-42.794 362.074 362.074 0 006.59-54.116c1.9-41.472-2.59-82.302-12.64-122.501a482.813 482.813 0 00-82.93-174.152 433.994 433.994 0 00-77.087-79.679c-21.831-17.368-45.227-32.27-70.447-44.206a297.9 297.9 0 00-59.376-20.923 250.855 250.855 0 00-66.839-6.789 212.91 212.91 0 00-63.358 11.811c-37.977 13.372-69.335 36.186-94.639 67.399-14.233 17.554-25.599 36.852-34.738 57.534a307.265 307.265 0 00-19.464 61.647 352.502 352.502 0 00-6.998 61.586 414.14 414.14 0 008.183 94.678c15.141 74.74 46.153 142.167 93.037 202.28 26.776 34.408 57.855 64.312 93.83 89.034a350.432 350.432 0 0068.881 36.814z" fill="url(#paint1_radial_54_1408)"/><path d="M824.385 741.35a321.263 321.263 0 01-67.068-36.203c-31.424-22.1-58.721-48.532-82.303-78.803-47.418-60.882-77.459-129.399-89.227-205.795-5.8-37.452-5.982-74.974.21-112.424 3.826-23.156 10.207-45.615 19.708-67.105 13.682-30.952 32.624-58.09 58.673-79.948 25.852-21.7 55.399-35.484 88.641-41.354 25.736-4.587 51.446-3.957 77.041.802a255.042 255.042 0 0152.136 15.576 325.102 325.102 0 0173.113 42.786c35.596 27.475 65.331 60.368 90.191 97.767a440.456 440.456 0 0160.78 137.27c11.19 44.486 15.24 89.558 10.22 135.31-2.66 24.222-7.97 47.838-16.5 70.686-10.08 26.993-23.97 51.77-43.25 73.322-34.26 38.341-77 59.76-128.209 64.256-25.093 2.161-49.784-.412-74.138-6.669a276.275 276.275 0 01-30.018-9.474zM603.288 255.148c-9.492 25.385-15.126 51.465-17.541 78.257-3.304 36.536-.79 72.701 6.569 108.551 11.801 57.532 34.283 110.536 67.447 159.015 27.726 40.759 61.352 75.811 102.09 103.81a318.175 318.175 0 0056.654 30.922 258.102 258.102 0 0035.495 11.742c24.703 6.414 49.744 8.931 75.194 6.662 41.253-3.706 77.604-19.065 108.764-46.484 21.46-18.877 37.79-41.663 50.36-67.216 8.39-17.043 14.55-34.91 19.04-53.343a315.692 315.692 0 008.54-59.219c1.75-35.322-1.69-70.18-9.55-104.632a437.211 437.211 0 00-51.04-127.069c-21.48-36.087-47.52-68.459-78.734-96.607-22.745-20.516-47.601-37.986-74.975-51.718a270.434 270.434 0 00-57.512-21.324c-21.962-5.359-44.178-7.874-66.75-6.413-52.092 3.35-95.728 24.397-130.905 63.14-19.168 21.141-32.992 45.536-43.146 71.926z" fill="url(#paint2_radial_54_1408)"/><path d="M1087.56 593.958c-9.31 24.103-22.03 46.513-39.79 65.768-30.67 33.269-68.574 51.578-113.703 54.928-22.427 1.656-44.443-.905-66.124-6.779a257.846 257.846 0 01-65.143-27.883c-32.61-19.482-60.642-44.316-84.826-73.486-40.788-49.184-68.171-105.01-82.149-167.478-7.64-34.169-10.342-68.734-7.161-103.683 2.473-27.185 8.414-53.562 19.179-78.706 10.944-25.553 25.917-48.376 46.41-67.366 27.793-25.751 60.605-40.369 98.205-44.222 23.654-2.415 46.939-.116 69.902 5.923 34.618 9.102 65.691 25.34 94.144 46.815 32.002 24.167 58.736 53.346 81.106 86.582 29.95 44.511 50.11 93.115 60.46 145.813 6.59 34.022 8.32 68.276 4.13 102.755a269.625 269.625 0 01-14.64 61.019zM887.979 162.214c-3.66-1.393-7.263-2.966-10.996-4.137-5.439-1.71-10.951-3.229-16.449-4.657a189.503 189.503 0 00-64.089-5.613c-35.126 2.971-66.421 15.586-93.527 38.207-20.006 16.717-35.238 37.215-46.932 60.414-10.522 20.876-17.303 43.011-21.341 65.971-6.211 35.309-5.716 70.65 0 105.953a382.294 382.294 0 0035.143 109.065c20.12 40.646 46.252 76.889 79.218 108.091 20.56 19.458 43.195 36.058 68.257 49.209a247.185 247.185 0 0050.636 19.884c22.571 6.078 45.456 8.58 68.786 6.487 37.645-3.361 70.565-17.711 98.545-43.283 16.5-15.068 29.51-32.862 39.77-52.661 10.49-20.263 17.55-41.75 21.87-64.121 5.92-30.686 6.75-61.639 3.22-92.663-6.86-60.277-27.38-115.655-60.14-166.535-22.48-34.915-49.865-65.394-82.871-90.682-21.196-16.236-44.152-29.384-69.1-38.929z" fill="url(#paint3_radial_54_1408)"/><path d="M687.697 279.055c7.754-20.368 18.361-39.034 32.933-55.318 25.103-28.061 56.343-44.245 93.72-48.552 20.217-2.297 40.191-.531 59.886 4.446 32.661 8.26 61.695 23.728 88.068 44.441 27.295 21.443 50.086 47.008 69.016 76.045 28.99 44.469 47.28 92.946 53.77 145.763 3.52 28.698 2.93 57.319-2.78 85.71-4.93 24.52-13.46 47.713-26.96 68.895-14.06 22.056-32.14 39.945-55.15 52.601-23.883 13.132-49.552 18.727-76.646 17.923-24.696-.72-48.303-6.619-70.858-16.534-28.842-12.675-54.257-30.498-76.92-52.318-33.056-31.846-58.139-69.196-76.167-111.339-13.777-32.206-22.54-65.729-25.625-100.678-2.287-25.721-1.225-51.296 3.777-76.676a218.3 218.3 0 019.936-34.409zm210.082-89.291a246.632 246.632 0 00-24.014-7.311 168.436 168.436 0 00-52.457-4.717c-21.101 1.483-41.059 7.068-59.587 17.345-30.298 16.764-51.525 41.843-65.981 72.927-10.636 22.87-16.567 47.042-18.885 72.109-3.035 32.643-.104 64.831 7.578 96.619a339.463 339.463 0 0039.614 96.072c17.242 28.59 38.082 54.224 63.293 76.166 27.346 23.792 57.761 42.176 92.936 52.022 18.855 5.28 38.026 7.764 57.593 6.453 40.418-2.715 74.031-19.298 100.831-49.749 14.57-16.54 25.05-35.524 32.56-56.149a221.72 221.72 0 0011.64-49.384c3.42-28.2 2.27-56.248-2.68-84.16-7.43-41.757-22.43-80.661-44.44-116.854-20.28-33.375-45.439-62.483-76.412-86.393a251.185 251.185 0 00-61.589-34.996z" fill="url(#paint4_radial_54_1408)"/><path d="M878.638 615.954c-24.991-9.544-45.869-22.95-64.849-39.44-22.655-19.713-41.294-42.777-56.444-68.673-20.536-35.089-33.59-72.746-38.19-113.237-2.929-25.905-2.001-51.671 4.046-77.093 5.645-23.726 15.259-45.655 30.891-64.629 24.621-29.898 56.407-45.181 95.003-45.953 22.989-.46 44.878 4.803 65.846 14.084 36.025 15.902 65.217 40.489 89.399 71.183 34.24 43.464 54.91 92.696 61.15 147.833 2.5 22.106 1.98 44.18-2.15 66.073-4.72 25.217-13.57 48.811-29.16 69.453-26.57 35.179-62.058 51.925-105.971 50.746-17.621-.492-34.562-4.512-49.571-10.347zm173.952-80.438a207.378 207.378 0 008.73-32.866c4.72-27.21 4.11-54.374-.81-81.436-8.68-47.833-28.35-90.701-58.66-128.624-22.558-28.204-49.521-51.112-82.37-66.653-19.384-9.172-39.706-14.967-61.181-15.749-44.872-1.635-80.783 15.75-107.276 52.103-13.896 19.067-22.063 40.681-26.681 63.694-3.967 19.894-4.865 39.981-3.303 60.18 5.256 68.61 38.776 137.524 89.474 183.82 18.984 17.327 40.018 31.458 63.931 41.115 21.116 8.526 42.895 13.101 65.729 11.801 28.811-1.642 54.06-11.959 75.487-31.455 16.86-15.325 28.38-34.211 36.93-55.93z" fill="url(#paint5_radial_54_1408)"/><path d="M891.421 572.948a171.4 171.4 0 01-57.217-36.498c-41.477-39.78-65.44-88.294-71.888-145.541a173.891 173.891 0 013.085-57.993c4.616-20.477 12.826-39.342 26.583-55.436 20.198-23.671 46.014-35.413 77.041-35.583 15.859-.063 31.089 3.349 45.869 9.097 22.815 8.861 42.537 22.376 59.701 39.572 38.505 38.572 61.095 84.969 67.785 139.19a176.888 176.888 0 01-2.95 61.156c-4.55 19.953-12.55 38.32-25.77 54.088-21.651 25.831-49.564 37.629-83.052 36.277-14.602-.63-25.895-3.586-39.187-8.329zm.777-2.888c11.107 4.099 24.205 7.383 37.867 7.942 32.919 1.276 60.332-10.279 81.635-35.658 13.25-15.787 21.13-34.211 25.56-54.174a172.892 172.892 0 002.63-59.052c-6.67-53.612-29.18-99.551-67.596-137.451-19.695-19.41-42.539-33.955-69.329-41.767a114.671 114.671 0 00-34.257-4.866c-30.24.518-55.299 12.207-74.89 35.37-13.303 15.749-21.293 34.118-25.785 54.063a170.792 170.792 0 00-2.978 57.424c6.538 56.24 30.315 103.872 71.329 142.894 15.786 14.976 33.87 26.587 55.824 35.248l-.01.027z" fill="url(#paint6_radial_54_1408)"/><path d="M901.49 529.52c-19.104-7.412-35.357-19.113-49.285-34.01-26.927-28.748-42.798-62.722-47.613-101.922a134.495 134.495 0 012.247-46.272c3.125-13.712 8.436-26.513 17.057-37.755 17.235-22.462 40.134-32.302 68.17-30.292 14.638 1.064 28.232 5.83 41.029 12.787 24.068 13.09 42.555 32.058 56.972 55.125 16.603 26.516 26.133 55.343 27.223 86.779.6 17.492-1.81 34.532-8.39 50.839-4.59 11.375-11.003 21.621-19.848 30.185-15.725 15.218-34.676 22.028-56.402 21.266-10.334-.34-20.719-2.658-31.16-6.73zm1.816-2.451c8.987 3.269 17.474 5.548 29.085 5.942 21.794.726 40.605-6.388 56.045-21.976 7.622-7.688 13.324-16.709 17.534-26.668 7.07-16.749 9.59-34.291 8.82-52.332-1.32-31.257-11.15-59.785-28.058-85.916-12.353-19.097-27.824-35.173-47.156-47.314-13.602-8.538-28.228-14.447-44.306-16.145-24.742-2.616-46.164 4.479-63.538 22.637-9.025 9.436-15.179 20.677-19.267 33.016a119.864 119.864 0 00-6.022 43.774c2.105 44.341 19.102 82.231 49.902 113.938a129.063 129.063 0 0046.961 31.044z" fill="url(#paint7_radial_54_1408)"/><path d="M910.169 486.959c-12.159-4.762-22.586-12.104-31.588-21.448-20.984-21.767-32.62-47.74-34.153-78.048-.653-12.814 1.331-25.259 6.601-37.057 4.618-10.338 11.398-18.902 21.112-24.903 11.282-6.984 23.571-8.82 36.496-6.664 12.547 2.092 23.681 7.483 33.855 15.058 28.714 21.397 47.039 59.414 45.796 95.192-.423 12.087-3.015 23.599-8.719 34.427-10.665 20.224-31.812 31.029-54.445 27.464a58.094 58.094 0 01-6.279-1.262c-2.931-.828-5.785-1.86-8.676-2.759zm-.193-3.318c5.001 1.903 10.086 3.534 15.42 4.179 17.646 2.136 32.784-2.819 44.759-16.261a58.083 58.083 0 0012.36-22.873 84.114 84.114 0 003.016-31.235c-2.724-29.45-14.794-54.43-36.295-74.71-9.856-9.309-21.302-16.038-34.501-19.556-11.7-3.117-23.263-2.883-34.539 1.926-12.595 5.392-21.121 14.895-26.694 27.2-5.255 11.615-7.135 23.898-6.409 36.532 1.694 29.375 13.159 54.454 33.765 75.327 8.369 8.462 17.98 15.133 29.12 19.465l-.002.006z" fill="url(#paint8_radial_54_1408)"/><path d="M954.12 429.204c-1.432 2.45-2.805 5.386-4.707 7.919-5.427 7.218-12.829 10.519-21.813 10.216a33.454 33.454 0 01-18.906-6.586c-17.827-13.087-26.477-30.745-25.288-52.971a32.74 32.74 0 015.343-16.613c6.215-9.401 14.916-13.379 26.046-12.155 5.981.654 11.289 3.077 16.268 6.332 17.205 11.295 27.877 34.7 25.031 55.136-.381 2.777-1.236 5.52-1.974 8.722zm-31.186-65.366l-.178.341c-.995-.379-1.968-.847-2.99-1.138-14.254-3.864-24.411 2.755-29.423 11.492a32.363 32.363 0 00-4.341 14.731c-.967 20.237 6.931 36.383 23.033 48.465a32.641 32.641 0 0015.197 6.157c10.157 1.426 19.903-3.105 24.952-11.907a32.534 32.534 0 004.499-13.61c1.656-20.719-6.217-37.172-22.482-49.737-2.492-1.918-5.496-3.208-8.267-4.794z" fill="url(#paint9_radial_54_1408)"/></g><defs><radialGradient id="paint0_radial_54_1408" cx="0" cy="0" r="1" gradientUnits="userSpaceOnUse" gradientTransform="rotate(119.875 293.357 66.333) scale(821.112 838.381)"><stop stop-color="#0052CC"/><stop offset="1" stop-color="#0052CC" stop-opacity="0"/></radialGradient><radialGradient id="paint1_radial_54_1408" cx="0" cy="0" r="1" gradientUnits="userSpaceOnUse" gradientTransform="rotate(119.875 293.357 66.333) scale(821.112 838.381)"><stop stop-color="#0052CC"/><stop offset="1" stop-color="#0052CC" stop-opacity="0"/></radialGradient><radialGradient id="paint2_radial_54_1408" cx="0" cy="0" r="1" gradientUnits="userSpaceOnUse" gradientTransform="rotate(119.875 293.357 66.333) scale(821.112 838.381)"><stop stop-color="#0052CC"/><stop offset="1" stop-color="#0052CC" stop-opacity="0"/></radialGradient><radialGradient id="paint3_radial_54_1408" cx="0" cy="0" r="1" gradientUnits="userSpaceOnUse" gradientTransform="rotate(119.875 293.357 66.333) scale(821.112 838.381)"><stop stop-color="#0052CC"/><stop offset="1" stop-color="#0052CC" stop-opacity="0"/></radialGradient><radialGradient id="paint4_radial_54_1408" cx="0" cy="0" r="1" gradientUnits="userSpaceOnUse" gradientTransform="rotate(119.875 293.357 66.333) scale(821.112 838.381)"><stop stop-color="#0052CC"/><stop offset="1" stop-color="#0052CC" stop-opacity="0"/></radialGradient><radialGradient id="paint5_radial_54_1408" cx="0" cy="0" r="1" gradientUnits="userSpaceOnUse" gradientTransform="rotate(119.875 293.357 66.333) scale(821.112 838.381)"><stop stop-color="#0052CC"/><stop offset="1" stop-color="#0052CC" stop-opacity="0"/></radialGradient><radialGradient id="paint6_radial_54_1408" cx="0" cy="0" r="1" gradientUnits="userSpaceOnUse" gradientTransform="rotate(119.875 293.357 66.333) scale(821.112 838.381)"><stop stop-color="#0052CC"/><stop offset="1" stop-color="#0052CC" stop-opacity="0"/></radialGradient><radialGradient id="paint7_radial_54_1408" cx="0" cy="0" r="1" gradientUnits="userSpaceOnUse" gradientTransform="rotate(119.875 293.357 66.333) scale(821.112 838.381)"><stop stop-color="#0052CC"/><stop offset="1" stop-color="#0052CC" stop-opacity="0"/></radialGradient><radialGradient id="paint8_radial_54_1408" cx="0" cy="0" r="1" gradientUnits="userSpaceOnUse" gradientTransform="rotate(119.875 293.357 66.333) scale(821.112 838.381)"><stop stop-color="#0052CC"/><stop offset="1" stop-color="#0052CC" stop-opacity="0"/></radialGradient><radialGradient id="paint9_radial_54_1408" cx="0" cy="0" r="1" gradientUnits="userSpaceOnUse" gradientTransform="rotate(119.875 293.357 66.333) scale(821.112 838.381)"><stop stop-color="#0052CC"/><stop offset="1" stop-color="#0052CC" stop-opacity="0"/></radialGradient></defs></svg>