<svg width="650" height="1147" fill="none" xmlns="http://www.w3.org/2000/svg"><path d="M577.799 1147C251.712 1142.38 2.653 887.868.024 577.968a572.765 572.765 0 0131.942-193.883c18.135-52.27 43.259-100.995 75.742-145.7 42.581-58.627 81.069-94.884 131.943-131.694 46.884-33.925 99.778-59.527 146.281-75.444C448.787 9.733 513.339-.933 579.632.064c102.301 1.54 197.53 28.502 285.686 80.888 87.779 52.191 156.142 123.393 206.482 212.297 46.53 82.194 75.31 185.811 73.08 291.879-2.04 97.204-28.1 194.642-81.54 283.716-49.71 82.817-116.173 148.886-199.389 198.196-91.781 54.23-191.263 80.33-286.152 79.96zM838.486 68.165l-3.808-.439a81.076 81.076 0 00-.398-1.898l-3.933-.074c-.342-.701-.569-1.505-1.6-1.448-.193-1.14-1.138-1.043-1.935-1.22-.672-.382-1.343-.764-2.009-1.14-3.023-1.847-6.005-3.797-9.676-4.116-1.139-2.07-3.455-2.343-5.322-3.175a471.582 471.582 0 00-65.286-23.516c-29.814-8.289-60.146-13.465-91.07-14.947a345.536 345.536 0 00-63.47 2.696c-25.368 3.477-49.997 9.691-73.618 19.61-59.486 24.959-103.831 66.158-131.795 124.545-17.531 36.594-25.614 75.513-26.997 115.92a344.558 344.558 0 001.782 47.043 398.396 398.396 0 0011.6 62.537c12.414 46.176 31.874 89.308 57.232 129.738 39.774 63.375 90.415 116.49 151.403 159.701 43.503 30.819 90.427 54.853 141.261 71.095 33.422 10.677 67.585 17.507 102.613 19.57 23.524 1.386 46.997.684 70.391-2.696 29.296-4.23 57.488-12.108 84.194-24.958 58.775-28.287 100.555-72.654 125.355-133.102 13.18-32.226 19.47-65.946 20.73-100.647 1.06-29.028-1.71-57.765-7.55-86.19-9.16-44.54-25.16-86.56-46.88-126.448a36.379 36.379 0 00-2.22-3.643c-.23-.308-.9-.291-1.35-.445.62-1.054.18-1.972-.37-2.879-.25-.855-.5-1.71-.75-2.559-1.14-.411-1.66-2.092-3.25-1.619l-1.08-2.144.14-1.003c-.06.331-.11.661-.17.986l1.08 2.149c.42.29.81.633 1.14 1.021.57.883 1.32.889 2.16.604-.33 1.026-1.07 2.189.79 2.508-.56 1.044-.27 1.973.41 2.851.45.969.88 1.949 1.36 2.901a480.186 480.186 0 0122.94 51.82c12.9 34.838 21.27 70.69 23.66 107.808 1.97 30.619 0 60.998-7.37 90.881-8.93 36.24-24.63 69.128-48.56 97.877-25.16 30.214-56.35 52.247-92.618 67.069-25.613 10.45-52.274 16.487-79.731 19.132a331.747 331.747 0 01-62.992-.142 393.199 393.199 0 01-66.145-12.115 457.545 457.545 0 01-100.331-40.606c-60.14-32.935-111.913-75.989-155.319-129.162-31.522-38.481-57.107-80.541-75.691-126.768-14.531-36.138-24.179-73.472-27.457-112.368a315.981 315.981 0 011.172-66.756c2.937-22.946 8.436-45.224 17.252-66.619 23.409-56.845 62.937-98.268 118.585-124.271 35.904-16.806 73.994-24.206 113.416-25.272 17.314-.467 34.544.656 51.727 2.765a398.02 398.02 0 0157.044 11.436 466.27 466.27 0 0152.502 18.088c1.776.724 3.415 2.001 5.549 1.568 2.807 2.383 5.931 3.99 9.677 4.082.113 1.368 1.138 1.174 2.026 1.14.273.997 1.138 1.111 1.952 1.231.524.507 1.042 1.015 1.634 1.494l3.768.154c.125.644.256 1.282.381 1.92l3.808.434.694.103-.688.41c.022-.16.022-.336.017-.513l-.006.011zm14.372 1001.875l2.351-1 .569-.05c-.142.05-.289.09-.438.11-.962-.05-2.004-.28-2.374 1.03-1.007-.28-1.952-.37-2.459.83-2.1-.29-3.756.94-5.521 1.72a409.14 409.14 0 01-59.537 20.56 435.555 435.555 0 01-67.221 12.14c-15.259 1.52-30.536 2.6-45.87 2.67-14.97.07-29.928-.4-44.858-1.65-13.854-1.14-27.679-2.56-41.397-4.78a605.43 605.43 0 01-76.51-17.46 639.122 639.122 0 01-102.681-40.74c-56.497-28.23-108.066-63.656-154.989-105.87a705.097 705.097 0 01-114.156-131.266c-33.121-49.283-59.418-101.924-77.979-158.373a560.576 560.576 0 01-20.024-80.381 513.81 513.81 0 01-7.24-69.145c-.979-28.418.336-56.739 4.554-84.878a429.32 429.32 0 0121.23-83.329c.424-.967.903-1.909 1.435-2.821a1.14 1.14 0 01-.24-.365c0-.091.092-.217.143-.325v.724c-.683.479-1.65.798-1.998 1.454-1.093 2.035-1.986 4.184-2.891 6.316a400.854 400.854 0 00-21.891 68.706 425.55 425.55 0 00-9.921 73.631 489.176 489.176 0 003.876 89.73c2.35 16.977 5.322 33.828 9.215 50.509a595.008 595.008 0 0046.104 128.09c27.776 56.375 62.998 107.676 105.129 154.246 47.375 52.356 101.397 96.563 162.064 132.627 59.839 35.38 123.514 60.99 191.639 75.21a536.123 536.123 0 0089.528 11.01 475.18 475.18 0 0088.463-4.86 425.743 425.743 0 0093.25-24.81 362.444 362.444 0 0033.581-15.16c1.645-.86 3.803-1.14 4.605-3.26.442.14.915.14 1.355-.01.441-.14.826-.41 1.104-.78zM91.56 265.811l.672-.068c-.057.097-.125.279-.17.273a2.614 2.614 0 01-.377-.125c-.12.969-.233 1.944-.353 2.913-2.088.77-2.504 2.885-3.415 4.504a372.556 372.556 0 00-28.806 62.594c-16.063 45.144-23.593 91.782-24.219 139.6-.416 31.48 2.442 62.709 7.872 93.727 7.2 41.114 19.01 80.865 34.857 119.414 26.399 64.202 62.462 122.566 107.064 175.635a702.827 702.827 0 00156.85 138.732c67.233 43.53 139.639 74.68 218.204 91.04 29.303 6.14 59.07 9.8 88.986 10.95 36.428 1.36 72.628-1.14 108.481-8.11 36.747-7.16 71.98-18.75 105.51-35.45a358.23 358.23 0 0043.333-25.37c1.531-1.05 3.631-1.63 4.211-3.8.883.2 1.623.13 2.027-1.71l-1.935 1.79a46.577 46.577 0 00-4.804 2.13 400.266 400.266 0 01-99.881 41.47 428.947 428.947 0 01-66.117 12.23c-15.243 1.58-30.514 2.75-45.853 2.9a546.354 546.354 0 01-70.38-3.99 557.181 557.181 0 01-64.091-11.62c-48.887-11.77-95.623-29.48-140.333-52.4a698.36 698.36 0 01-117.821-76.302c-55.534-44.413-103.474-95.91-143.822-154.491a665.057 665.057 0 01-50.293-86.378c-23.337-48.234-40.555-98.532-50.442-151.281a529.826 529.826 0 01-8.651-78.101 451.87 451.87 0 014.274-80.084 418.153 418.153 0 0117.85-75.37c5.493-16.253 12.21-31.976 19.569-47.442.751-1.568 2.02-2.998 1.667-4.954 1.605-.729.831-1.818.336-2.856zm319.78 854.959l4.44.17c.121.32.301.62.529.87.126.1.496-.09.757-.15a2.82 2.82 0 00-.461-.25 9.05 9.05 0 00-1.019-.32c-1.411-.98-2.874-.91-4.371-.21-.626-1.75-.626-1.75-2.709-1.45-.421-1.78-1.742-1.42-2.977-1.26-.905-1.88-2.846-1.85-4.468-2.43a598.427 598.427 0 01-107.832-51.52A633.75 633.75 0 01156.55 952.6c-39.65-42.771-72.662-90.171-99.039-142.2-4.974-9.862-9.385-20.01-14.076-30.02-.648-1.391-.842-3.102-2.487-3.86.296-2.166-.569-3.831-2.191-5.199.09-1.015.08-1.99-.894-2.639-.148-.952-.319-1.899-1.457-2.195a1.211 1.211 0 01-.114-.388 1.11 1.11 0 01.142-.37c-.034.25-.068.496-.108.741.57.695 1.139 1.391 1.657 2.098l.888 2.639a7.588 7.588 0 002.134 5.239c-.102 2.617 1.27 4.794 2.209 7.069a524.112 524.112 0 0032.665 66.083c64.17 108.988 153.358 190.552 267.563 244.702a505.539 505.539 0 0055.501 22.17c2.158.72 4.241 1.97 6.683 1.57.637 1.3 1.929 1.02 3.028 1.23.865.51 1.753 1.02 2.686 1.5zM1111 389.518c-.03-.314-.07-.627-.1-.941v-.473c.07.154.19.308.19.462-.03.316-.08.63-.15.94.35 1.055.69 2.104 1.03 3.159 1.27 2.109.84 4.879 2.66 6.772.22 1.75.31 3.529.71 5.239 4.77 20.335 8.44 40.846 10.21 61.688 2.33 27.512 1.67 54.921-2.72 82.177-4.62 28.709-13.21 56.204-26.43 82.165a247.6 247.6 0 01-58.02 74.771c-29.76 26.013-63.966 43.816-101.817 54.688a318.683 318.683 0 01-79.544 12.045 391.683 391.683 0 01-78.736-5.854 446.8 446.8 0 01-73.709-19.696c-47.453-17.017-91.36-40.744-132.12-70.348a565.782 565.782 0 01-109.631-104.495c-32.33-40.339-58.677-84.195-77.91-132.286-16.336-40.846-26.843-83.066-29.78-127.071a334.245 334.245 0 012.34-68.859 284.747 284.747 0 0119.466-71.539c13.552-32.152 32.728-60.428 57.971-84.548 26.849-25.625 58.057-44.153 92.926-56.529a300.534 300.534 0 0165.968-15.204 362.837 362.837 0 0155.473-2.132 391.943 391.943 0 0147.812 4.789c5.959.957 11.85 2.28 17.781 3.42l2.812.131v-.416l-2.806.28c-.29-.44-.484-1.14-.882-1.266a29.866 29.866 0 00-4.081-1.249 424.391 424.391 0 00-76.624-10.706c-28.932-1.3-57.682.422-86.175 5.975-31.715 6.18-61.905 16.572-90.108 32.437-53.796 30.271-92.69 73.899-116.683 130.884-14.116 33.378-21.384 68.347-23.337 104.444a378.91 378.91 0 004.394 80.574 449.25 449.25 0 0017.389 70.57 514.675 514.675 0 0053.384 112.305c42.609 67.589 96.663 124.243 162.161 169.963 45.842 32.164 95.231 57.219 148.66 74.15 34.971 11.077 70.716 18.203 107.337 20.409 24.766 1.493 49.52.878 74.137-2.583 22.841-3.198 45.136-8.477 66.799-16.395 34.209-12.508 65.073-30.63 91.983-55.297 37.23-34.085 62.32-75.769 76.79-124.004 9.1-30.465 13.21-61.671 13.28-93.452a396.764 396.764 0 00-10.57-91.213c-1.94-8.334-4.27-16.577-6.53-24.832-.29-1.089-.17-2.6-1.7-3.084.37-2.742-.23-5.131-2.53-6.887.42-1.237.48-2.4-.97-3.078zM713.908 1124.92c-.666.23-1.344.42-2.032.57-10.882 1.87-21.794 3.46-32.79 4.56-15.443 1.51-30.896 2.56-46.412 2.58-14.076 0-28.14-.44-42.182-1.61-13.849-1.14-27.674-2.57-41.392-4.79a586.2 586.2 0 01-75.957-17.43 622.102 622.102 0 01-94.833-37.4 674.212 674.212 0 01-157.533-107.632c-55.262-50.418-101.389-108.104-137.515-173.72-31.306-56.837-53.55-116.917-64.99-180.931a519.415 519.415 0 01-7.82-75.524 416.565 416.565 0 012.492-60.947c.131-1.14.808-2.508-.495-3.591-.415 1.972-.922 3.871-1.207 5.798a413.394 413.394 0 00-4.331 44.728c-.98 25.534-.262 51.01 2.749 76.419a535.565 535.565 0 0013.66 72.502c15.055 57.578 38.734 111.416 69.92 161.976 40.958 66.402 92.031 123.79 153.218 172.162 56.868 45.2 119.342 80.31 187.963 104.26a557.553 557.553 0 00102.539 25.33 483.598 483.598 0 0049.957 4.97c19.762.94 39.563.72 59.298-.68a469.262 469.262 0 0052.411-6.92c4.553-.86 9.021-2.04 13.546-3.01a2.152 2.152 0 001.748-1.71c.979.45 1.952.79 4.041-.18l-4.053.22zM31.864 396.695c-.444.245-1.138.388-1.292.758a34.513 34.513 0 00-1.372 4.042 424.186 424.186 0 00-15.988 102.853c-.53 15.871-.342 31.748.694 47.625a519.978 519.978 0 008.111 63.66 561.396 561.396 0 0027.89 97.039 632.475 632.475 0 0068.872 130.256 681.851 681.851 0 00134.709 145.587c55.632 44.935 116.683 80.445 183.722 105.465 54.972 20.52 111.68 32.81 170.329 35.61 24.041 1.17 48.135.48 72.07-2.06a442.097 442.097 0 0068.746-12.75 367.783 367.783 0 0036.087-11.62c.979-.38 2.248-.4 2.379-1.99-1.753.5-3.455.96-5.123 1.46-14.002 4.18-28.14 7.78-42.484 10.6a459.555 459.555 0 01-64.136 7.89 509.44 509.44 0 01-76.84-1.86 557.629 557.629 0 01-65.382-10.42 596.537 596.537 0 01-104.161-33.28c-57.169-24.1-109.916-55.66-158.496-94.274-56.835-45.173-105.553-97.859-146.155-158.059-32.825-48.839-58.792-101.058-77.102-157.017-11.908-36.376-20.195-73.58-24.174-111.695-1.781-17.045-2.982-34.125-2.965-51.307a452.396 452.396 0 012.31-48.103c1.259-11.704 2.573-23.407 4.919-34.963 1.593-7.859 3.18-15.732 4.758-23.618l.666-2.235c-1.452.969-.91 1.693-.592 2.406zM1048.38 886.773c-1.74.393-2.45 1.955-3.42 3.147a351.596 351.596 0 01-52.304 51.159 361.819 361.819 0 01-98.008 54.932 408.868 408.868 0 01-71.581 19.469 458.548 458.548 0 01-79.749 7.02 513.444 513.444 0 01-61.842-3.85 548.745 548.745 0 01-72.895-13.87c-43.094-11.135-84.417-27.063-124.18-47.05a691.123 691.123 0 01-140.219-93.566c-63.242-54.289-115.818-117.436-156.56-190.326-30.936-55.349-53.504-113.85-65.793-176.154a496.275 496.275 0 01-9.334-80.215c-.837-25.563.188-51.045 3.694-76.391a401.265 401.265 0 0114.799-66.231c17.075-53.981 44.709-101.685 84.239-142.326 2.983-3.067 6.051-6.054 9.056-9.121.535-.57.962-1.203 2.112-2.668-2.846.855-3.985 2.189-5.294 3.278a346.443 346.443 0 00-69.748 79.207c-37.247 58.148-55.837 122.23-60.043 190.799a461.833 461.833 0 00.734 64.726 527.32 527.32 0 009.204 64.59 578.01 578.01 0 0033.388 107.089c26.997 64.362 63.664 122.755 108.806 175.84a711.33 711.33 0 00142.865 128.267c56.726 38.526 117.657 68.242 183.455 87.792 42.888 12.72 86.63 20.56 131.317 22.64 33.73 1.57 67.306-.15 100.655-5.86a417.067 417.067 0 0074.267-19.62c48.455-17.88 91.639-44.299 128.809-80.328a337.303 337.303 0 0040.73-47.419c1.11-1.557 2.72-2.896 2.73-5.063 1.13-.097 1.57-.701 1.22-2.605l-1.11 2.708zM282.642 82.383a36.419 36.419 0 00-4.252 2.035c-43.763 28.094-79.385 64.237-106.865 108.429-34.367 55.508-51.557 116.37-55.695 181.21-1.645 25.705-.802 51.353 1.827 76.961a523.058 523.058 0 009.398 58.062 567.555 567.555 0 0025.841 84.862c19.921 51.153 46.235 98.811 78.268 143.3a707.156 707.156 0 00176.892 172.311 664.789 664.789 0 00137.424 72.121c51.404 19.636 104.435 32.216 159.321 36.536a464.643 464.643 0 0064.626.64 455.095 455.095 0 0061.438-7.73c36.57-7.25 71.546-19.094 104.588-36.435 63.684-33.445 112.577-81.881 146.687-145.307a31.13 31.13 0 012.07-2.993l-.36-.644h.41c-.06.233-.11.473-.16.706-.76.417-1.71.673-2.24 1.283a29.22 29.22 0 00-2.4 3.529c-37.62 58.575-88.643 101.371-152.181 129.316-27.509 12.097-56.127 20.574-85.685 26.018a434.711 434.711 0 01-65.286 7.018 487.937 487.937 0 01-70.431-2.85 563.74 563.74 0 01-61.574-10.507 588.514 588.514 0 01-101.401-33.23c-67.568-28.982-128.591-68.318-183.614-117.025a697.513 697.513 0 01-113.205-127.851c-27.771-40.476-50.948-83.34-68.843-129.048-20.758-53.018-33.73-107.796-37.043-164.753a440.503 440.503 0 012.846-82.262 384.617 384.617 0 0114.645-66.813c20.007-63.278 54.369-117.116 104.987-160.26 5.561-4.737 11.383-9.12 17.075-13.761 1.047-.85 2.618-1.283 2.801-2.97.5-.097 1.007-.172 1.497-.308.125-.04.199-.268.301-.405-.239-.091-.569-.336-.694-.25a8.48 8.48 0 00-1.013 1.065zm61.335-32.785c-1.172.752-2.277 1.602-3.529 2.246-8.503 4.492-17.212 8.625-25.516 13.46-61.279 35.686-106.979 85.686-137.1 149.998-23.03 49.209-33.861 101.269-35.29 155.403a447.269 447.269 0 001.873 55.075 530.94 530.94 0 008.219 54.996 556.44 556.44 0 0028.715 95.123A634.472 634.472 0 00256.3 711.913c58.816 81.624 131.747 147.65 218.795 198.079 54.528 31.474 112.334 54.682 173.846 68.409a511.836 511.836 0 0086.699 11.972c31.925 1.551 63.749.239 95.367-4.886 29.655-4.805 58.472-12.541 86.317-23.852 40.412-16.401 76.703-39.255 108.356-69.315 36.78-34.94 64.09-76.276 82.53-123.547.45-1.14 1.07-2.229 1.59-3.347a1.552 1.552 0 01-.18-.404c0-.122.01-.244.05-.359l.07.792c-2.42.45-2.65 2.742-3.41 4.395a320.151 320.151 0 01-20.04 35.966c-36.38 56.546-85.8 97.746-147.183 124.653-28.357 12.428-57.898 20.922-88.44 26.053a439.532 439.532 0 01-73.425 6.077 496.325 496.325 0 01-60.232-3.922 525.887 525.887 0 01-66.082-12.599c-45.415-11.618-88.793-28.589-130.298-50.378-80.386-42.225-149.56-98.463-207.918-168.03-35.005-41.724-64.574-87.022-88.224-136.14a572.18 572.18 0 01-40.617-111.986 492.34 492.34 0 01-11.532-64.738 454.803 454.803 0 01-2.846-57.173c.125-6.955.444-13.909.865-20.853.78-12.827 2.118-25.596 4.155-38.292 5.123-32.05 13.985-62.982 27.247-92.632a329.745 329.745 0 0153.828-83.904c23.906-27.141 51.694-49.55 83.022-67.537a35.96 35.96 0 004.115-2.474c.603-.467.814-1.448 1.207-2.178l.734-.21v.444l-.689-.399zm128.272-38.594c-.842.25-1.668.57-2.522.758-32.443 6.841-63.492 17.536-92.805 33.099-60.664 32.213-106.165 79.174-136.503 140.883-21.31 43.554-32.102 89.867-34.76 138.147a429.503 429.503 0 001.839 68.979c2.183 20.58 5.674 41 10.45 61.135 10.9 46.085 27.89 89.884 49.957 131.716 29.433 55.776 66.544 105.966 110.593 151.002 44.298 45.287 94.007 83.556 149.127 114.808 48.085 27.107 98.782 47.653 152.491 60.542a485.939 485.939 0 0086.562 12.969c34.27 1.904 68.376.359 102.208-5.94 33.651-6.271 65.963-16.532 96.512-32.09 68.782-35.014 118.432-88.031 148.932-159.051 11.54-26.851 19.12-54.864 23.66-83.704.57-3.421 1.6-6.938.82-10.57-.76 1.918-1.36 3.9-1.77 5.923a339.263 339.263 0 01-9.74 36.691c-19.41 59.06-52.82 108.405-101.88 146.811-32.69 25.608-69.34 43.452-109.155 54.922a371.644 371.644 0 01-77.75 13.568 432.148 432.148 0 01-48.085.609 471.108 471.108 0 01-63.18-7.011c-41.374-7.411-81.274-19.856-119.814-36.628a624.75 624.75 0 01-143.514-87.222c-63.14-50.93-115.465-111.165-155.878-181.666-29.199-50.936-50.521-104.945-62.132-162.677a456.589 456.589 0 01-7.855-57.766 395.122 395.122 0 01.672-65.24 364.114 364.114 0 0110.951-61.568c10.479-38.64 27.253-74.247 51.227-106.388 23.906-32.038 53.133-58.068 87.398-78.47 24.635-14.669 50.874-25.654 78.429-33.481a35.863 35.863 0 004.553-1.494c.467-.205.637-1.1.99-1.63.957.57 1.919.98 3.416 0l-3.444.034zm381.599 715.178a305.7 305.7 0 0064.745-6.504c30.07-6.379 58.319-17.319 84.337-33.857 34.64-22.016 61.44-51.242 80.39-87.678 16.4-31.44 25.11-65.103 28-100.333 1.8-21.943 1.03-43.839-1.71-65.696a386.403 386.403 0 00-18.12-77.468c-13.14-38.372-31.39-74.207-54.07-107.744-40.985-60.702-92.401-110.679-154.253-149.93-34.299-21.817-70.704-39.176-109.426-51.592-31.533-10.108-63.749-16.533-96.835-18.443-27.139-1.55-54.13-.074-80.825 5.37-26.535 5.41-51.796 14.252-75.474 27.564-46.753 26.309-80.255 64.419-100.86 113.93-11.384 27.437-17.474 56.135-19.352 85.728a329.791 329.791 0 004.366 77.319c6.181 35.522 17.178 69.55 32.301 102.238 25.3 54.676 59.935 102.785 102.505 145.216a515.022 515.022 0 00108.003 82.661c46.479 26.611 95.782 45.526 148.768 54.305a361.132 361.132 0 0057.51 4.92v-.006zM630.557 6.038v-.33c-4.053-.462-8.088-1.14-12.152-1.351-27.834-1.294-55.564-.57-83.153 3.808-24.902 3.95-49.138 10.261-72.577 19.593-37.236 14.822-70.357 35.99-98.754 64.385-28.527 28.532-49.769 61.825-64.392 99.404-14.121 36.303-20.906 74.053-22.152 112.875-.769 23.944.927 47.813 4.439 71.517a463.119 463.119 0 0018.214 76.39c13.513 41.222 31.971 80.136 54.767 116.997a614.96 614.96 0 00106 128.318c41.613 38.492 87.495 70.889 138.01 96.611 50.869 25.899 104.287 44.01 160.864 52.379a440.3 440.3 0 0053.219 4.561 382.342 382.342 0 0071.877-4.966c32.21-5.29 63.145-14.662 92.327-29.347 69.336-34.897 117.086-88.967 143.236-162.21 12.72-35.43 18.46-72.12 19.03-109.7.22-19.631-.95-39.253-3.5-58.718-.15-1.231-.51-2.44-.75-3.66-.24-1.22-.42-2.28-.62-3.454a19.86 19.86 0 00-.29 4.868c.5 8.551 1.32 17.102 1.53 25.654.68 28.84-1.89 57.383-8.42 85.511-6.64 28.703-17.07 55.902-32.01 81.333-25.76 43.896-61.28 77.587-106.093 101.473-40.794 21.715-84.599 32.66-130.498 35.465a392.7 392.7 0 01-75.741-2.714 472.295 472.295 0 01-62.793-12.621c-37.259-10.222-72.856-24.69-106.939-42.83a589.062 589.062 0 01-123.024-87.49c-41.55-38.326-77.17-81.521-106.324-130.045-21.777-36.235-39.194-74.435-51.591-114.9-9.761-31.861-16.102-64.384-18.145-97.637-1.651-26.793-.734-53.496 3.728-80.05a311.49 311.49 0 0118.368-65.815 270.662 270.662 0 0142.882-71.83c24.316-29.21 53.674-52.054 87.655-68.922 39.843-19.782 82.264-29.73 126.53-32.09 10.484-.57 21.02-.319 31.533-.439 1.907-.045 3.808-.023 5.709-.023zm-82.453-2.405a9.238 9.238 0 00-1.793-.462c-1.958 0-3.927 0-5.874.171A406.856 406.856 0 00496.53 9.47c-33.394 6.704-65.319 17.593-95.264 33.971-67.124 36.713-113.61 91.304-140.128 163.042-14.002 37.865-20.297 77.183-21.094 117.436-.359 18.043.768 36.023 2.738 53.969a455.718 455.718 0 009.391 54.232c10.815 46.307 28.004 90.214 50.481 132.047 32.028 59.601 72.93 112.402 121.874 159.017 44.186 42.083 93.199 77.422 147.42 105.373 59.963 30.904 123.12 51.5 190.409 58.592a420.587 420.587 0 0053.897 2.452 407.508 407.508 0 0061.13-5.815c33.377-5.855 65.343-15.962 95.658-31.212 35.958-18.088 67.308-42.186 93.468-72.816 38.14-44.665 60.68-96.588 70.66-154.234a392.26 392.26 0 004.94-45.743c.52-8.481.45-16.989-.21-25.46a25.113 25.113 0 00-.45 4.236 339.864 339.864 0 01-3.74 37.266c-4.64 30.499-13.09 59.858-26.18 87.889-20.34 43.554-49.69 79.742-88.06 108.565-26.955 20.135-56.678 34.923-88.655 45.213-34.88 11.219-70.733 16.378-107.291 16.886-26.98.376-53.754-2.076-80.318-6.676a495.917 495.917 0 01-84.052-22.41c-59.491-21.514-113.945-52.185-163.738-91.155-64.506-50.492-117.622-110.96-158.234-182.282-26.102-45.868-45.534-94.371-56.873-146.014a430.667 430.667 0 01-9.79-74.19 369.257 369.257 0 014.975-78.915c6.261-36.377 18.043-70.77 36.428-102.802 24.589-42.863 58.059-76.987 100.41-102.375C449.834 27.365 486.109 14.43 524.5 7.515c7.713-1.385 15.402-2.543 23.604-3.882zm580.236 696.423l-.43-.114a8.11 8.11 0 00-.75 1.3c-.69 1.831-1.35 3.673-1.99 5.524a328.745 328.745 0 01-24.53 55.154c-34.64 61.489-84.6 106.109-148.744 134.858-43.611 19.548-89.595 29.308-137.219 31.48a461.923 461.923 0 01-76.271-2.851 524.391 524.391 0 01-71.302-13.682c-43.07-11.367-84.239-27.7-123.644-48.428-64.944-34.159-122.54-78.1-173.164-131.197a653.978 653.978 0 01-92.766-123.257c-23.456-40.435-42.228-82.906-55.393-127.811-12.152-41.501-19.295-83.738-19.955-127.013-.388-25.408 1.263-50.634 5.606-75.689a353.299 353.299 0 0124.145-81.344c21.409-49.072 53.122-90.145 95.139-123.217 23.001-18.02 48.159-32.42 75.099-43.708 1.781-.746 3.534-1.544 5.509-2.41-.5-.354-.683-.571-.791-.537-1.531.45-3.062.912-4.582 1.42a334.249 334.249 0 00-62.724 28.327C279.2 92.057 234.466 141.48 205.38 205.132c-20.94 45.926-30.969 94.388-32.768 144.657a433.148 433.148 0 001.708 55.617 507.745 507.745 0 009.426 60.776 548.576 548.576 0 0029.028 92.25 619.984 619.984 0 0066.936 121.631c57.898 82.16 130.23 148.57 216.997 199.231a612.625 612.625 0 00135.017 58.524c40.981 12.131 82.833 19.542 125.579 21.418a436.545 436.545 0 0093.705-5.787c38.38-6.635 74.996-18.453 109.529-36.576 48.623-25.505 88.563-60.81 119.393-106.336 21.2-31.298 36.33-65.388 46.37-101.793.77-2.868 1.36-5.792 2.04-8.688zM179.055 161.362c-2.009.57-3.215 2.035-4.507 3.363a347.835 347.835 0 00-44.966 57.042c-36.667 58-55.211 121.734-59.708 189.875a461.515 461.515 0 00.769 68.98c1.474 17.621 3.75 35.122 6.966 52.498a576.666 576.666 0 0033.406 113.212c26.922 65.969 63.931 125.816 109.853 180.144a712.404 712.404 0 00151.671 135.108c55.78 36.953 115.545 65.446 179.863 84.216a559.884 559.884 0 00121.806 21.63 481.174 481.174 0 0080.608-1.54 443.252 443.252 0 0067.232-12.14c43.258-11.4 83.67-29.26 120.667-54.581a353.505 353.505 0 0065.255-57.401c.62-.64 1.19-1.32 1.71-2.035.4-.57 1.5-.992.78-2.206a609.21 609.21 0 00-3.94 3.728 365.143 365.143 0 01-60.162 47.009c-32.785 20.356-67.926 35.246-105.197 45.166a428.083 428.083 0 01-64.01 11.92 466.497 466.497 0 01-50.129 2.95 544.476 544.476 0 01-65.576-3.99 554.458 554.458 0 01-68.228-12.72c-45.99-11.49-90.028-28.26-132.262-49.757-72.821-37.055-137.174-85.511-193.455-144.799-38.619-40.647-72.076-85.175-99.932-133.888-34.276-59.938-58.905-123.485-71.41-191.546a500.876 500.876 0 01-8.378-90.471 444.893 444.893 0 016.728-78.283c6.352-35.682 17.132-69.932 32.921-102.574a366.091 366.091 0 0148.068-74.43c1.212-1.465 2.374-2.987 3.557-4.48zm-47.333 51.848l-.746-.57c-.899 1.083-1.844 2.138-2.698 3.261a357.295 357.295 0 00-32.768 51.985c-28.692 55.44-42.615 114.705-44.829 176.901-.83 23.908.12 47.846 2.846 71.613a547.178 547.178 0 009.306 55.913 582.207 582.207 0 0027.89 90.368c19.922 49.968 45.826 96.634 77.142 140.296a709.77 709.77 0 00134.448 141.499c55.985 44.723 117.201 80.334 184.228 105.764a594.726 594.726 0 00112.175 30.62 535.716 535.716 0 0056.771 6.52 492.618 492.618 0 0086.972-2.21 437.543 437.543 0 0071.148-14.25c48.29-13.99 92.533-35.97 132.102-67.16 4.901-3.855 9.608-7.977 14.367-11.967.529-.451 1.599-.924.751-1.996a4.67 4.67 0 00-1.03.422c-1.173.81-2.328 1.648-3.472 2.497a375.216 375.216 0 01-67.927 40.294c-50.885 23.29-104.514 35.16-160.249 37.66a507.18 507.18 0 01-80.044-2.76 570.111 570.111 0 01-66.288-11.48c-53.503-12.59-104.417-32.23-152.929-58.064a707.784 707.784 0 01-151.301-108.349c-53.139-49.7-97.9-105.983-133.684-169.433-23.781-42.277-42.735-86.6-56.225-133.25-12.584-43.559-20.052-87.945-21.236-133.323a459.63 459.63 0 015.459-85.341 410.459 410.459 0 0119.921-76.504 377.407 377.407 0 0136.929-74.065c1.047-1.607 1.975-3.272 2.971-4.891zm496.808 927.24c-2.999 0-6.004-.08-9.004-.07-16.757.07-33.485-.3-50.191-1.84-16.506-1.51-32.922-3.58-49.252-6.49-42.632-7.6-83.795-20.12-123.616-37.02-70.425-29.89-133.519-71.17-189.715-123.087-50.823-46.941-93.586-100.334-127.708-160.585-25.17-44.466-44.704-91.213-57.744-140.673-7.929-30.083-13.461-60.57-15.698-91.628-.456-6.231-.797-12.468-1.241-18.67-.097-1.328-.404-2.645-.61-3.991-.79 1.614-.802 3.164-.79 4.715a482.564 482.564 0 005.122 68.278 526.864 526.864 0 0019.523 83.801c18.095 56.495 44.397 108.925 78.116 157.638A648.506 648.506 0 00281.446 1043.3c63.573 42.27 132.376 72.34 207.218 88.24 17.076 3.63 34.294 6.56 51.694 8.16 10.996 1.01 22.01 1.94 33.013 2.54 18.403 1.04 36.863.43 55.159-1.81v.02zM8.3 648.338c-.118.49-.2.987-.245 1.488.25 1.579.57 3.147.774 4.732 2.556 18.037 6.7 35.732 11.537 53.274 14.287 51.763 35.86 100.367 64.08 145.939 55.248 89.24 128.14 160.379 218.675 213.419 70.272 41.15 145.712 67.14 226.952 75.19 1.062.12 2.13.18 3.198.18.837 0 1.674-.17 3.416-.36-8.698-1.35-16.427-2.51-24.151-3.74a534.533 534.533 0 01-79.396-19.06c-46.895-14.97-91.218-35.59-133.189-61.32a652.002 652.002 0 01-132.587-107.453c-36.877-38.856-68.632-81.521-94.82-128.318-25.477-45.532-44.966-93.442-57.357-144.196-2.345-9.674-4.485-19.399-6.887-29.775zm627.368 491.772c.165.01.33.01.495 0 .158-.05.31-.11.456-.19h-1.446l.495.19zm-451-149.572c.091.226.198.445.318.656.336-.103.615 1.032.911.057.029-.086-.672-.393-1.229-.713zm45.119-872.274c-.142-.24-.285-.473-.433-.707l-1.77 1.522.387.502 1.816-1.317zM544.285 1143.26l-.228-.16-.29.14.518.02zM7.275 643.151c-.034.171-.074.336-.108.501l.347-.194-.239-.307zm1132.335-14.355l.26-.154-.18-.342-.08.496zM963.906 988.235l.672-1.071c-.114-.052-.302-.177-.336-.143-.313.302-.603.633-.899.958l.563.256zM133.39 209.852l-.137.371c.108.034.285.12.307.091a.623.623 0 00.114-.359c0-.034-.182-.068-.284-.103zM420.874 1122.9l-.37-.23-.068.33.438-.1zm369.351-22.57l.37.21.057-.33-.427.12z" fill="url(#paint0_radial_2_711)"/><path d="M860.218 685.148a351.379 351.379 0 01-51.512-4.669c-50.139-8.414-96.761-26.394-140.543-51.979-58.357-34.102-107.529-78.449-147.516-133.039-25.175-34.267-45.324-71.265-59.639-111.382a363.89 363.89 0 01-16.376-62.554 303.086 303.086 0 01-4.371-54.351c.461-32.951 6.016-64.949 18.868-95.46 18.34-43.519 47.687-77.433 88.395-101.394 24.219-14.252 50.345-23.327 77.893-28.452 23.069-4.287 46.349-5.416 69.725-4.088 30.924 1.75 61.074 7.77 90.547 17.28 45.671 14.73 87.654 36.718 126.422 64.903 54.072 39.295 98.469 87.541 132.619 145.079 19.77 33.303 34.87 68.614 44.57 106.188 8.41 32.551 12.12 65.598 10.05 99.165-2.16 34.968-10.63 68.329-27.32 99.301-22.8 42.3-56.35 73.101-99.984 92.98-21.891 10.016-44.818 16.287-68.61 19.576a323.347 323.347 0 01-43.218 2.896zm-.199-3.084c23.336-.171 45.079-2.28 66.509-7.365 29.461-6.995 56.788-18.779 81.392-36.554 32.78-23.703 56.53-54.55 71.72-92.039 13.18-32.579 18.28-66.602 17.58-101.587a304.541 304.541 0 00-4.19-44.193 361.938 361.938 0 00-13.09-52.92c-12.98-39.438-31.7-75.997-55.4-109.99a482.694 482.694 0 00-139.449-133.262 434.022 434.022 0 00-100.393-47.042c-26.581-8.466-53.748-14.07-81.564-16.253a297.896 297.896 0 00-62.935 1.567 250.875 250.875 0 00-64.882 17.433 212.897 212.897 0 00-55.011 33.578c-30.737 26.007-51.927 58.484-64.472 96.656-7.058 21.47-10.815 43.549-11.999 66.129a307.317 307.317 0 003.74 64.539 352.552 352.552 0 0015.368 60.046 414.097 414.097 0 0041.329 85.574c40.738 64.465 93.708 116.448 158.911 155.95 37.264 22.633 76.948 39.524 119.364 49.831a350.408 350.408 0 0077.472 9.902z" fill="url(#paint1_radial_2_711)"/><path d="M867.464 640.146a321.243 321.243 0 01-75.56-9.976c-37.23-9.475-72.144-24.468-104.952-44.369-65.975-40.031-118.425-93.379-156.6-160.591-18.744-32.939-32.262-67.941-39.798-105.145-4.661-23.002-6.688-46.261-5.453-69.726 1.776-33.794 9.825-65.895 26.394-95.59 16.441-29.477 39.152-52.871 68.131-70.182 22.42-13.443 46.673-22 72.287-26.657a255.072 255.072 0 0154.266-3.99 325.123 325.123 0 0183.551 13.977c43.042 13.015 82.532 33.179 119.068 59.289a440.534 440.534 0 01105.642 106.667c26.28 37.596 46.1 78.277 57.69 122.823 6.13 23.584 9.56 47.544 9.72 71.932.19 28.812-3.99 56.911-14.33 83.91-18.39 48.023-50.71 83.244-96.971 105.663-22.682 10.946-46.673 17.325-71.661 20.141a276.137 276.137 0 01-31.424 1.824zM487.868 264.403c.159 27.101 4.172 53.479 11.446 79.377 9.91 35.322 25.124 68.227 44.755 99.114 31.495 49.57 71.363 91.11 119.603 124.619 40.412 28.23 84.308 49.026 132.342 60.702a318.2 318.2 0 0063.948 8.745c12.473.352 24.956-.2 37.35-1.654 25.368-2.793 49.667-9.349 72.645-20.522 37.233-18.14 65.743-45.424 85.113-82.137 13.34-25.277 20.49-52.379 23.16-80.734 1.77-18.91 1.18-37.802-1.19-56.626a314.554 314.554 0 00-13.09-58.382c-10.93-33.634-26.54-64.988-46.14-94.393a437.126 437.126 0 00-92.91-100.596c-32.91-26.086-68.763-47.077-107.946-62.28-28.556-11.083-58-18.568-88.469-21.663a270.472 270.472 0 00-61.335.53c-22.432 2.804-44.089 8.357-64.665 17.752-47.493 21.663-80.787 56.855-99.881 105.578-10.393 26.577-14.634 54.294-14.736 82.57z" fill="url(#paint2_radial_2_711)"/><path d="M1060.99 408.775c-.12 25.836-4.04 51.307-13.79 75.621-16.83 42.003-45.74 72.597-86.726 91.782-20.371 9.526-41.858 14.964-64.21 17.188a257.872 257.872 0 01-70.801-2.885c-37.407-6.607-72.44-19.844-105.419-38.503-55.617-31.457-101.068-73.889-136.354-127.298-19.295-29.216-34.117-60.559-43.577-94.353-7.359-26.287-11.19-53.052-10.074-80.381 1.138-27.774 7.012-54.431 19.409-79.469 16.814-33.954 42.279-59.288 76.049-76.265 21.248-10.672 43.827-16.806 67.437-19.331 35.591-3.808 70.408.314 104.639 10.261 38.506 11.202 73.875 28.96 106.603 52.065 43.828 30.944 79.952 69.2 108.374 114.768 18.26 29.451 32.06 60.85 40.41 94.565a269.307 269.307 0 018.03 62.235zM720.875 76.272c-3.916 0-7.843-.188-11.748.046-5.691.336-11.383.877-17.03 1.499a189.488 189.488 0 00-61.893 17.553c-31.772 15.272-56.532 38.195-73.818 68.979-12.75 22.74-19.694 47.316-22.369 73.158-2.407 23.253-.871 46.353 3.523 69.247 6.757 35.208 19.791 68.061 37.692 99.022a382.276 382.276 0 0071.643 89.428c33.264 30.83 70.58 55.406 112.489 72.839 26.137 10.871 53.196 18.334 81.297 21.709a247.288 247.288 0 0054.397.57c23.257-2.349 45.535-8.153 66.595-18.408 33.986-16.532 59.647-41.656 76.697-75.507 10.06-19.953 15.89-41.211 18.44-63.364 2.6-22.672 1.55-45.264-2.37-67.708-5.39-30.784-15.63-60.006-29.96-87.746-27.848-53.895-66.729-98.35-115.446-134.248-33.434-24.633-69.867-43.377-109.71-55.269-25.585-7.633-51.717-11.754-78.429-11.8z" fill="url(#paint3_radial_2_711)"/><path d="M575.26 256.718c0-21.794 3.273-43.012 11.1-63.415 13.478-35.155 36.917-61.393 70.317-78.716 18.077-9.338 37.373-14.794 57.55-17.148 33.463-3.9 66.1.228 98.117 10.204 33.138 10.33 63.532 26.116 91.553 46.519 42.917 31.245 77.256 70.045 102.103 117.099 13.5 25.568 23.14 52.527 27.89 81.093 4.12 24.668 4.4 49.38-.69 73.979-5.28 25.614-15.82 48.765-32.83 68.78-17.641 20.768-39.64 35.128-65.247 44.016-23.337 8.112-47.499 10.997-72.105 9.754-31.464-1.585-61.557-9.201-90.5-21.532-42.223-18.003-78.952-43.987-110.792-76.96-24.333-25.198-44.448-53.411-59.765-84.976-11.287-23.225-19.392-47.505-23.746-73.004a218.32 218.32 0 01-2.955-35.693zM739.835 98.533c-8.372.145-16.73.716-25.044 1.711a168.42 168.42 0 00-50.703 14.252c-19.193 8.893-35.859 21.212-49.52 37.408-22.351 26.446-33.268 57.435-35.722 91.628-1.804 25.158 1.253 49.859 8.003 74.11 8.777 31.588 22.967 60.628 41.454 87.604a339.488 339.488 0 0071.2 75.695c26.285 20.585 54.88 37.129 86.248 48.667 34.02 12.508 68.986 18.87 105.362 15.558 19.501-1.773 38.301-6.271 56.122-14.457 36.807-16.916 62.325-44.371 76.535-82.365 7.74-20.642 10.78-42.112 10.46-64.06a222.2 222.2 0 00-6.69-50.292c-6.83-27.574-17.89-53.376-32.448-77.701-21.8-36.383-49.656-67.406-83.101-93.402-30.827-23.977-64.694-42.231-102.146-53.558a251.152 251.152 0 00-70.01-10.798z" fill="url(#paint4_radial_2_711)"/><path d="M873.56 503.653c-26.752-.029-51.034-5.131-74.638-13.79-28.186-10.364-53.811-25.289-77.181-44.101-31.676-25.489-57.272-56.039-75.975-92.245-11.953-23.167-20.252-47.578-23.644-73.488-3.165-24.183-1.981-48.098 5.879-71.391 12.374-36.701 36.645-62.292 72.441-76.744 21.321-8.608 43.65-11.475 66.549-10.261 39.325 2.047 75.354 14.64 108.874 34.723 47.459 28.441 84.296 67.098 109.739 116.41 10.2 19.77 17.566 40.584 21.496 62.515 4.56 25.248 4.68 50.446-2.55 75.284-12.309 42.328-39.522 70.604-80.982 85.124-16.643 5.809-33.906 8.078-50.008 7.964zm133.96-137.058a207.595 207.595 0 00-3.53-33.823c-5.278-27.107-15.512-52.276-29.73-75.82-25.13-41.615-58.768-74.68-100.581-99.341-31.117-18.334-64.466-30.152-100.695-32.991-21.378-1.676-42.432.137-62.781 7.046-42.518 14.435-69.896 43.457-81.724 86.857-6.204 22.763-6.147 45.869-2.276 69.019 3.369 20.004 9.676 39.096 18.322 57.419 29.319 62.252 85.161 114.733 149.013 139.965 23.906 9.44 48.591 15.164 74.375 15.683 22.768.456 44.75-3.016 65.627-12.354 26.342-11.783 46.27-30.408 59.355-56.249 10.315-20.324 14.365-42.072 14.625-65.411z" fill="url(#paint5_radial_2_711)"/><path d="M870.207 458.913a171.424 171.424 0 01-66.458-13.756c-52.915-22.423-92.569-59.238-118.96-110.446a173.857 173.857 0 01-17.747-55.298c-2.971-20.779-2.009-41.33 5.122-61.266 10.456-29.308 30.406-49.466 59.344-60.662 14.799-5.701 30.246-7.93 46.104-7.816 24.475.166 47.715 5.781 69.873 15.746 49.709 22.351 87.33 57.675 112.864 105.971a176.603 176.603 0 0119 58.205c2.846 20.267 1.906 40.276-4.839 59.716-11.047 31.844-32.938 52.8-64.716 63.449-13.871 4.607-25.477 5.861-39.587 6.157zm-.302-2.976c11.84-.119 25.25-1.71 38.216-6.048 31.219-10.518 52.729-31.069 63.612-62.367 6.767-19.468 7.576-39.489 4.61-59.721a172.807 172.807 0 00-18.55-56.124c-25.306-47.732-62.678-82.661-112.067-104.415-25.311-11.134-51.835-16.601-79.652-14.372a114.723 114.723 0 00-33.747 7.639c-28.078 11.242-47.339 31.081-57.408 59.699-6.83 19.451-7.763 39.46-4.866 59.698a170.807 170.807 0 0017.645 54.728c26.118 50.235 65.283 86.292 117.497 108.172 20.081 8.38 41.112 12.798 64.71 13.083v.028z" fill="url(#paint6_radial_2_711)"/><path d="M864.168 414.744c-20.491-.131-39.843-5.285-58.159-14.252-35.392-17.289-62.311-43.394-80.757-78.317a134.509 134.509 0 01-14.36-44.045c-1.958-13.926-1.548-27.779 2.51-41.353 8.117-27.124 26.017-44.466 52.934-52.561 14.059-4.213 28.46-4.595 42.894-2.645 27.15 3.671 51.176 14.822 72.856 31.251 24.947 18.876 44.112 42.426 56.31 71.42 6.784 16.133 10.592 32.916 10.245 50.497-.239 12.262-2.59 24.12-7.809 35.271-9.284 19.816-24.572 32.922-45.148 39.939-9.779 3.358-20.309 4.886-31.516 4.795zm.825-2.936c9.563-.143 18.305-1.032 29.296-4.795 20.628-7.074 35.677-20.414 44.562-40.475 4.388-9.897 6.512-20.357 6.899-31.16.648-18.169-3.239-35.459-10.371-52.048-12.351-28.744-31.692-51.906-56.788-70.314-18.339-13.454-38.517-22.974-60.903-27.443-15.749-3.141-31.521-3.461-47.151.672-24.054 6.357-41.551 20.609-51.329 43.76-5.077 12.028-6.83 24.724-6.261 37.71a119.857 119.857 0 009.943 43.052c17.742 40.692 47.106 70.057 87.171 88.733a129.083 129.083 0 0054.932 12.308z" fill="url(#paint7_radial_2_711)"/><path d="M857.139 371.88c-13.058-.126-25.415-3.278-37.151-8.808-27.355-12.878-47.47-33.013-59.685-60.793-5.168-11.744-7.741-24.08-7.012-36.981.637-11.305 3.927-21.72 10.871-30.784 8.06-10.541 18.891-16.629 31.738-19.212 12.471-2.508 24.794-1.431 36.997 2.03 34.447 9.782 65.098 38.793 76.664 72.673 3.904 11.447 5.578 23.128 4.098 35.277-2.772 22.694-18.692 40.315-41.112 45.036a58.258 58.258 0 01-6.318 1.054c-3.034.268-6.068.319-9.09.508zm-1.361-3.033c5.351 0 10.684-.285 15.898-1.579 17.252-4.282 29.637-14.298 36.046-31.121a58.076 58.076 0 003.415-25.773 84.115 84.115 0 00-8.293-30.265c-13.023-26.555-33.189-45.607-60.499-56.911-12.522-5.194-25.613-7.411-39.199-6.003-12.044 1.248-22.768 5.581-31.596 14.087-9.852 9.52-14.44 21.434-15.271 34.917-.78 12.724 1.833 24.872 7.006 36.422 12.033 26.851 31.67 46.21 58.353 58.387 10.832 4.931 22.187 7.748 34.14 7.833v.006z" fill="url(#paint8_radial_2_711)"/><path d="M877.669 302.268c-.467 2.799-.706 6.031-1.582 9.075-2.505 8.677-8.248 14.395-16.751 17.308a33.462 33.462 0 01-20.013.57c-21.316-5.889-35.682-19.314-42.478-40.51a32.753 32.753 0 01-.917-17.427c2.465-10.997 9.181-17.809 20.019-20.626 5.822-1.516 11.645-1.14 17.457.132 20.097 4.435 38.397 22.512 43.007 42.624.632 2.731.808 5.598 1.258 8.854zm-52.399-49.996l-.046.382c-1.064 0-2.14-.091-3.198 0-14.697 1.459-21.834 11.259-23.411 21.207a32.378 32.378 0 001.184 15.312c6.295 19.257 19.42 31.537 38.767 37.1a32.626 32.626 0 0016.393.348c10-2.28 17.496-9.982 19.084-20.004a32.537 32.537 0 00-.637-14.32c-5.823-19.953-19.034-32.529-38.705-38.486-3.011-.906-6.278-1.043-9.431-1.539z" fill="url(#paint9_radial_2_711)"/><defs><radialGradient id="paint0_radial_2_711" cx="0" cy="0" r="1" gradientUnits="userSpaceOnUse" gradientTransform="rotate(98.374 80.171 246.295) scale(360.911 368.501)"><stop stop-color="#0052CC"/><stop offset="1" stop-color="#0052CC" stop-opacity="0"/></radialGradient><radialGradient id="paint1_radial_2_711" cx="0" cy="0" r="1" gradientUnits="userSpaceOnUse" gradientTransform="rotate(98.374 80.171 246.295) scale(360.911 368.501)"><stop stop-color="#0052CC"/><stop offset="1" stop-color="#0052CC" stop-opacity="0"/></radialGradient><radialGradient id="paint2_radial_2_711" cx="0" cy="0" r="1" gradientUnits="userSpaceOnUse" gradientTransform="rotate(98.374 80.171 246.295) scale(360.911 368.501)"><stop stop-color="#0052CC"/><stop offset="1" stop-color="#0052CC" stop-opacity="0"/></radialGradient><radialGradient id="paint3_radial_2_711" cx="0" cy="0" r="1" gradientUnits="userSpaceOnUse" gradientTransform="rotate(98.374 80.171 246.295) scale(360.911 368.501)"><stop stop-color="#0052CC"/><stop offset="1" stop-color="#0052CC" stop-opacity="0"/></radialGradient><radialGradient id="paint4_radial_2_711" cx="0" cy="0" r="1" gradientUnits="userSpaceOnUse" gradientTransform="rotate(98.374 80.171 246.295) scale(360.911 368.501)"><stop stop-color="#0052CC"/><stop offset="1" stop-color="#0052CC" stop-opacity="0"/></radialGradient><radialGradient id="paint5_radial_2_711" cx="0" cy="0" r="1" gradientUnits="userSpaceOnUse" gradientTransform="rotate(98.374 80.171 246.295) scale(360.911 368.501)"><stop stop-color="#0052CC"/><stop offset="1" stop-color="#0052CC" stop-opacity="0"/></radialGradient><radialGradient id="paint6_radial_2_711" cx="0" cy="0" r="1" gradientUnits="userSpaceOnUse" gradientTransform="rotate(98.374 80.171 246.295) scale(360.911 368.501)"><stop stop-color="#0052CC"/><stop offset="1" stop-color="#0052CC" stop-opacity="0"/></radialGradient><radialGradient id="paint7_radial_2_711" cx="0" cy="0" r="1" gradientUnits="userSpaceOnUse" gradientTransform="rotate(98.374 80.171 246.295) scale(360.911 368.501)"><stop stop-color="#0052CC"/><stop offset="1" stop-color="#0052CC" stop-opacity="0"/></radialGradient><radialGradient id="paint8_radial_2_711" cx="0" cy="0" r="1" gradientUnits="userSpaceOnUse" gradientTransform="rotate(98.374 80.171 246.295) scale(360.911 368.501)"><stop stop-color="#0052CC"/><stop offset="1" stop-color="#0052CC" stop-opacity="0"/></radialGradient><radialGradient id="paint9_radial_2_711" cx="0" cy="0" r="1" gradientUnits="userSpaceOnUse" gradientTransform="rotate(98.374 80.171 246.295) scale(360.911 368.501)"><stop stop-color="#0052CC"/><stop offset="1" stop-color="#0052CC" stop-opacity="0"/></radialGradient></defs></svg>