<svg width="278" height="1324" fill="none" xmlns="http://www.w3.org/2000/svg"><g opacity=".8"><path d="M335.017 1237.98C11.992 1045.34-89.996 647.517 86.077 336.483a660.551 660.551 0 01143.705-175.225c48.253-41.749 101.442-75.926 159.664-101.845 76.335-34 135.683-48.02 207.72-55.448 66.389-6.848 133.982-1.918 189.605 9 75.184 14.757 145.806 41.327 211.442 80.55C1099.5 154.044 1179.06 235.886 1236.9 339.042c57.58 102.743 84.8 213.276 83.81 331.101-.92 108.921-31.93 229.008-95.32 333.657-58.09 95.91-140.29 178.2-245.039 236.35-97.403 54.05-201.879 81.71-313.426 82.97-122.94 1.24-237.353-30.05-331.908-85.14zm882.463-927.182l-3.55-2.634c.24-.704.47-1.406.7-2.126l-3.89-2.342c.06-.897.3-1.831-.76-2.368.46-1.25-.54-1.698-1.23-2.334-.45-.769-.9-1.538-1.35-2.298-1.95-3.587-3.81-7.254-7.29-9.69.05-2.724-2.1-4.333-3.49-6.241a543.865 543.865 0 00-51.64-61.132c-25-25.471-52.31-48.131-82.34-67.444a398.39 398.39 0 00-64.946-33.906c-27.343-11.155-55.524-19.151-84.836-22.865-73.804-9.374-141.852 6.203-203.45 48.393-38.611 26.439-69.125 60.65-93.807 100.21a397.23 397.23 0 00-25.347 48.012 459.537 459.537 0 00-24.476 69.149c-14.229 53.278-19.664 107.578-17.651 162.58 3.181 86.233 23.131 168.483 59.127 246.81 25.678 55.866 58.685 106.929 100.091 152.463 27.224 29.937 57.406 56.458 91.201 78.715 22.697 14.95 46.545 27.79 71.859 37.9 31.699 12.67 64.4 21.06 98.482 23.62 75.013 5.64 142.323-14.58 201.953-60.65 31.75-24.588 57.47-54.64 78.74-88.569 17.8-28.382 31.61-58.68 42.17-90.436 16.53-49.769 24.77-100.967 26.08-153.328.06-1.642.02-3.285-.12-4.922-.04-.435-.73-.809-1.08-1.218 1.22-.699 1.32-1.865 1.29-3.089.23-1.002.48-2 .72-2.993-.9-1.066-.45-3.045-2.31-3.488l.16-2.761.72-.923c-.25.297-.5.594-.75.883-.05.927-.09 1.849-.15 2.773.25.533.44 1.096.55 1.676.06 1.211.8 1.65 1.8 1.847-.91.838-2.32 1.573-.65 2.965-1.17.714-1.41 1.813-1.23 3.083-.11 1.228-.26 2.45-.32 3.683a553.538 553.538 0 01-6.97 64.983c-7.2 42.232-19.52 82.865-38.54 121.315-15.69 31.717-35.17 60.923-59.76 86.523-29.82 31.042-64.46 54.837-104.94 69.756-42.56 15.66-86.41 19.69-131.18 13.58-31.608-4.34-61.717-13.68-90.666-26.872a382.597 382.597 0 01-62.832-36.466 453.547 453.547 0 01-59.078-50.241 527.705 527.705 0 01-76.791-98.411c-41.075-67.574-67.957-140.429-80.648-218.566-9.294-56.61-10.594-113.371-2.498-170.258 6.325-44.472 18.217-87.324 37.372-128.063a364.418 364.418 0 0139.665-65.997c16.165-21.224 34.503-40.305 55.646-56.589 56.158-43.276 119.524-61.855 190.098-55.738 45.551 3.919 87.862 18.493 127.852 40.16 17.56 9.517 34.12 20.574 50.07 32.59a459.935 459.935 0 0150.38 44.315 539.119 539.119 0 0142 48.341c1.36 1.747 2.26 3.967 4.64 4.766 1.43 3.998 3.62 7.405 7.31 9.656-.67 1.432.46 1.829 1.37 2.307-.31 1.154.49 1.767 1.24 2.356.23.808.45 1.614.77 2.433l3.67 2.327-.72 2.139 3.55 2.628.63.503-.92.013c.11-.146.21-.323.31-.503l-.01.008zM654.116 1319.72l2.92.37.598.27a2.827 2.827 0 01-.5-.14c-.931-.61-1.837-1.44-2.963-.35-.848-.85-1.739-1.49-2.939-.58-1.926-1.5-4.291-1.23-6.5-1.47a472.458 472.458 0 01-71.324-13.79 503.637 503.637 0 01-74.137-26.64c-16.115-7.29-31.998-15.01-47.352-23.79-14.991-8.56-29.661-17.65-43.853-27.51-13.179-9.13-26.169-18.52-38.588-28.65a698.57 698.57 0 01-66.35-61.55 737.184 737.184 0 01-79.06-99.9c-40.153-60.771-71.227-125.894-93.75-195.114a813.159 813.159 0 01-38.323-196.931c-4.661-68.321-.57-136.061 13.442-203.143a646.389 646.389 0 0126.351-91.828 592.465 592.465 0 0132.641-73.235c15.409-28.948 33.054-56.476 53.492-82.148a495.054 495.054 0 0169.255-70.983 31.754 31.754 0 013.06-1.992 1.305 1.305 0 01-.029-.502c.053-.091.216-.164.33-.242l-.418.723c-.958.084-2.109-.155-2.833.3-2.266 1.402-4.397 3.033-6.531 4.641a462.254 462.254 0 00-61.482 55.998 490.844 490.844 0 00-52.367 67.819 564.157 564.157 0 00-47.871 91.855c-7.441 18.312-14.191 36.856-19.921 55.76a686.2 686.2 0 00-27.815 154.519c-4.766 72.322.83 143.87 16.055 214.676 17.127 79.61 45.59 154.914 85.389 225.912 39.361 69.845 88.188 132.145 148.034 185.625a616.997 616.997 0 0083.066 62.62 547.06 547.06 0 0091.158 46.16 491.682 491.682 0 00107.438 29 419.09 419.09 0 0042.285 4.22c2.136.09 4.455 1.05 6.479-.61.361.4.835.67 1.356.78.522.11 1.066.06 1.557-.15zM357.503 77.494l.711.319c-.113.064-.287.207-.329.175a3.148 3.148 0 01-.303-.342c-.678.899-1.354 1.807-2.032 2.706-2.53-.436-4.165 1.437-6.008 2.529a429.74 429.74 0 00-64.865 45.906c-42.075 35.827-76.489 78.065-104.688 125.463-18.568 31.201-33.721 64.039-46.184 98.15-16.517 45.215-27.643 91.728-34.045 139.367-10.655 79.345-8.291 158.433 5.654 237.155a810.583 810.583 0 0076.658 229.01c42.051 82.238 96.403 155.108 165.44 216.748a615.788 615.788 0 0082.558 62.26c35.604 22.35 73.197 40.74 113.029 54.44 40.827 14.05 82.699 22.79 125.82 25.44a412.984 412.984 0 0057.908-.35c2.137-.17 4.567.47 6.396-1.36.769.7 1.547 1.06 3.01-.54l-2.965.67a52.954 52.954 0 00-6.025-.65 461.115 461.115 0 01-123.669-16.18 492.73 492.73 0 01-73.086-25.91c-16.138-7.21-32.065-14.84-47.471-23.54a629.282 629.282 0 01-67.992-44.57 643.569 643.569 0 01-57.312-48.56c-42.039-39.95-78.507-84.58-109.943-133.26a805.11 805.11 0 01-73.679-144.146c-29.855-76.381-48.042-155.459-54.559-237.234a766.988 766.988 0 01-.423-115.272c4.506-61.632 16.313-121.796 36.856-180.181a611.025 611.025 0 0136.394-82.994 521.12 521.12 0 0150.45-77.52 482.217 482.217 0 0161.288-64.985c14.858-13.065 30.633-24.895 46.902-36.099 1.654-1.132 3.747-1.83 4.522-3.986 2.024.197 1.879-1.337 1.982-2.659zM183.886 1115.8l4.335 2.73c-.063.39-.053.79.029 1.17.066.18.547.2.845.28-.094-.17-.2-.34-.319-.51-.26-.32-.538-.62-.834-.9-.841-1.8-2.345-2.57-4.244-2.73.384-2.11.384-2.11-1.868-3.02.602-2.01-.921-2.42-2.246-2.97.177-2.4-1.778-3.49-3.066-5a690.46 690.46 0 01-77.989-113.64 731.08 731.08 0 01-72.145-190.298C11.447 735.33 5.807 668.952 9.466 601.778c.718-12.719 2.164-25.397 3.252-38.1.154-1.764.947-3.583-.259-5.289 1.545-1.993 1.64-4.155.81-6.456.675-.961 1.226-1.942.629-3.152.401-1.036.776-2.08-.19-3.032a1.4 1.4 0 01.11-.453c.1-.117.22-.214.356-.288a31.38 31.38 0 01-.536.678c.168 1.023.335 2.045.445 3.05l-.635 3.148a8.752 8.752 0 00-.89 6.464c-1.61 2.554-1.496 5.52-1.87 8.333a604.444 604.444 0 00-5.48 84.838c1.244 145.856 43.286 278.754 126.126 398.691a583.527 583.527 0 0042.652 54.14c1.737 1.97 3.098 4.42 5.77 5.42-.116 1.67 1.335 2.14 2.311 2.98a64.377 64.377 0 001.819 3.05zM1304.35 788.897c.15-.333.29-.669.44-.998.09-.154.18-.313.28-.473-.02.193.01.419-.08.57-.21.298-.44.584-.69.854-.26 1.253-.52 2.501-.79 3.752.05 2.835-1.98 5.353-1.25 8.293-.79 1.879-1.73 3.705-2.32 5.643-6.95 23.063-15.11 45.666-25.37 67.5-13.54 28.821-30 55.819-50.1 80.51-21.17 26.005-45.6 48.512-73.78 66.822a285.437 285.437 0 01-101.06 41.22c-44.72 8.82-89.156 6.88-133.229-4.09a367.441 367.441 0 01-86.392-33.84 451.445 451.445 0 01-75.262-51.247 515.207 515.207 0 01-62.261-62.176c-37.583-44.359-67.754-93.375-91.392-146.446a652.498 652.498 0 01-49.24-167.584c-9.029-58.931-10.055-117.926-1.533-177.049 7.238-50.215 21.09-98.442 43.531-144.086a385.47 385.47 0 0142.043-67.425 328.414 328.414 0 0160.695-60.226c32.076-24.298 67.533-41.482 106.653-51.015 41.592-10.112 83.446-10.62 125.408-2.875a346.733 346.733 0 0174.659 22.855 418.765 418.765 0 0156.63 29.858 452.284 452.284 0 0144.99 32.353c5.4 4.393 10.52 9.111 15.79 13.669l2.73 1.753.24-.416-2.96-1.339c-.04-.606.17-1.418-.15-1.773a35.787 35.787 0 00-3.36-3.6 488.9 488.9 0 00-70.36-54.877c-28.14-17.981-57.85-32.84-89.51-43.725-35.239-12.116-71.385-19.145-108.702-19.562-71.184-.787-135.188 20.36-192.012 63.439-33.345 25.197-60.769 55.931-83.534 90.858a436.964 436.964 0 00-42.074 83.009 518.185 518.185 0 00-23.326 80.51 593.555 593.555 0 00-11.441 142.95c3.583 92.075 24.901 179.829 63.954 263.261 27.239 58.559 62.119 112.062 105.719 159.782 28.541 31.229 60.133 58.954 95.437 82.274 23.873 15.78 48.952 29.44 75.534 40.18 24.657 9.97 49.969 17.56 76.172 22.14 41.378 7.23 82.657 6.93 123.763-2.19 56.83-12.57 105.93-39.74 148.19-79.57 26.66-25.177 48.76-53.978 67.16-85.678a457.85 457.85 0 0042.03-97.199c2.87-9.443 5.3-19.018 7.81-28.563.33-1.258 1.32-2.698.07-4.065 1.95-2.525 2.73-5.255 1.45-8.335 1.13-.993 1.86-2.118.8-3.633zM483.691 1294.41c-.797-.16-1.584-.36-2.358-.6-11.948-4.41-23.763-9.11-35.381-14.35-16.297-7.39-32.333-15.26-47.843-24.19-14.059-8.11-27.849-16.67-41.2-25.93-13.174-9.13-26.157-18.53-38.579-28.65a675.756 675.756 0 01-65.815-61.21 716.815 716.815 0 01-73.147-92.04 777.793 777.793 0 01-95.276-198.338C57.971 766.88 45.165 682.666 46.92 596.3c1.507-74.819 13.935-147.652 39.422-218.184a598.932 598.932 0 0135.739-79.94 480.365 480.365 0 0137.634-59.435c.788-1.063 2.254-2.039 1.576-3.872-1.552 1.73-3.153 3.334-4.548 5.095a476.691 476.691 0 00-30.118 42.175c-15.702 24.938-29.676 50.796-41.32 77.91a617.634 617.634 0 00-28.164 80.29c-18.166 66.188-25.562 133.614-23.57 202.094 2.619 89.939 20.537 176.707 53.755 260.303 30.732 77.938 72.883 149.034 127.613 212.514a642.684 642.684 0 0087.804 84.43 557.92 557.92 0 0047.029 33.77 578.886 578.886 0 0059.616 33.52 540.85 540.85 0 0056.34 23.3c5.044 1.77 10.184 3.17 15.262 4.81.473.18.987.2 1.474.08.487-.13.926-.4 1.258-.78.718 1.02 1.496 1.92 4.141 2.15l-4.172-2.12zM222.408 173.794c-.585-.012-1.361-.27-1.728.012a39.598 39.598 0 00-3.7 3.246 489.163 489.163 0 00-75.278 93.507c-9.681 15.546-18.648 31.511-26.769 47.966a599.704 599.704 0 00-28.608 68.259 647.399 647.399 0 00-28.1 113.001 729.457 729.457 0 00-6.325 169.81 786.375 786.375 0 0050.593 223.086c29.65 76.963 70.149 147.629 122.68 211.279 43.07 52.19 92.621 97.17 149.584 133.78a538.831 538.831 0 0073.171 39.5 510.157 510.157 0 0076.012 26.91 418.441 418.441 0 0042.745 9.2c1.195.19 2.472.9 3.524-.61-2.041-.51-4.007-1.03-5.962-1.5-16.394-3.9-32.589-8.46-48.542-13.91a531.434 531.434 0 01-68.607-29.1 587.909 587.909 0 01-75.674-46.17 642.666 642.666 0 01-59.289-48.11 688.728 688.728 0 01-84.845-93.3c-43.203-57.03-77.683-118.976-103.938-185.552-30.717-77.891-48.994-158.606-54.833-242.144-4.622-67.707-.445-134.835 13.535-201.283 9.084-43.198 22.259-85.134 40.264-125.497 8.05-18.051 16.699-35.802 26.624-52.953a521.888 521.888 0 0130.046-46.712c8.005-10.964 16.067-21.895 25.073-32.084 6.124-6.93 12.248-13.879 18.372-20.845l1.953-1.848c-2.008.131-1.885 1.166-1.978 2.062zM955.072 1249.43c-1.966-.61-3.572.54-5.225 1.17a405.39 405.39 0 01-81.744 20.94 417.346 417.346 0 01-129.563-1.65 471.703 471.703 0 01-82.719-21.84 527.622 527.622 0 01-83.697-38.97 593.632 593.632 0 01-59.551-39.5 635.61 635.61 0 01-64.804-55.89c-36.62-35.97-68.707-75.71-96.896-118.602a797 797 0 01-86.092-174.307c-31.86-90.69-47.958-184.076-46.619-280.37 1.02-73.119 12.213-144.562 35.866-213.875a572.359 572.359 0 0136.933-85.5c13.904-26.013 29.622-50.873 47.739-74.166a462.75 462.75 0 0152.972-57.616c48.182-44.068 103.29-75.778 166.206-93.574 4.747-1.344 9.534-2.558 14.304-3.888.863-.261 1.655-.647 3.648-1.447-3.336-.787-5.242-.111-7.177.221a399.54 399.54 0 00-115.336 38.89c-70.732 36.597-126.251 89.881-169.991 155.94a532.646 532.646 0 00-36.591 65.07 608.256 608.256 0 00-28.053 69.818 666.626 666.626 0 00-28.404 126.21c-10.15 79.849-7.2 159.314 7.275 238.365a820.385 820.385 0 0068.726 210.491c34.44 71.188 78.16 136.01 132.604 193.47 35.498 37.44 74.67 70.49 118.102 98.33 32.784 21.02 67.308 38.67 103.907 52.2a480.831 480.831 0 0085.49 23.22c58.708 10.08 117.072 8.6 174.969-5.95a388.476 388.476 0 0068.03-23.87c2.001-.92 4.382-1.33 5.637-3.49 1.193.56 1.979.21 2.724-1.89-1.318 1.02-1.997 1.54-2.67 2.06zM654.121 4.477a42.038 42.038 0 00-5.42-.419C588.792 6.881 532.373 22.44 479.444 50.731c-66.334 35.622-118.597 86.496-160.119 148.871-16.466 24.724-30.414 50.826-42.554 77.919a603.157 603.157 0 00-24.095 63.41 654.668 654.668 0 00-23.126 99.658c-9.599 62.577-10.8 125.35-4.46 188.256a815.552 815.552 0 0077.313 274.102 766.625 766.625 0 0095.667 151.273c40.015 49.26 85.726 92.4 138.056 128.36a536.042 536.042 0 0064.175 37.91 524.733 524.733 0 0065.823 27.7c40.703 13.86 82.467 22.19 125.468 23.93 82.891 3.31 159.656-16.87 230.298-60.55 1.23-.67 2.49-1.26 3.79-1.79l.01-.86.41.24c-.19.2-.38.41-.57.61-1-.02-2.09-.31-2.97 0-1.53.6-3.01 1.31-4.43 2.14-71.355 36.81-146.991 50.13-226.566 41.4-34.45-3.78-67.922-11.82-100.582-23.42a502.703 502.703 0 01-69.252-30.64 563.08 563.08 0 01-68.701-43.46 650.205 650.205 0 01-55.44-46 678.652 678.652 0 01-82.114-91.66c-50.772-67.91-89.037-142.385-115.906-222.761a804.4 804.4 0 01-39.342-192.972c-4.397-56.439-2.828-112.615 5.656-168.587 9.839-64.922 28.471-127.113 58.005-185.909a508.045 508.045 0 0150.278-80.52 443.6 443.6 0 0153.154-58.286c56.472-51.663 121.836-85.62 197.27-99.523 8.285-1.525 16.629-2.546 24.99-3.898 1.535-.245 3.354.228 4.509-1.352.556.192 1.105.41 1.673.556.148.032.353-.153.535-.23-.187-.23-.375-.665-.549-.651-.555.113-1.1.273-1.627.48zm80.165 2.624c-1.605.075-3.198.287-4.82.208-11.083-.417-22.164-1.31-33.246-1.27-81.782.307-156.257 23.892-223.426 70.756-51.377 35.869-92.215 81.618-124.857 134.862a515.655 515.655 0 00-29.889 56.087 612.536 612.536 0 00-23.503 59.667 641.756 641.756 0 00-26.172 111.564 731.747 731.747 0 00-3.573 179.067c11.676 115.438 46.445 223.438 104.306 324 36.311 62.878 80.664 119.388 134.184 168.568a589.68 589.68 0 0079.689 61.95c30.992 19.96 63.532 37 98.067 50.12 32.389 12.3 65.632 21.19 99.964 25.95 49.82 6.92 99.245 5.02 148.193-6.75 56.883-13.69 107.997-39.22 153.677-75.8 1.1-.88 2.34-1.62 3.51-2.43 0-.17.01-.34.05-.51.07-.12.16-.23.27-.32l-.39.83c-2.68-.95-4.23 1.21-5.95 2.42a366.989 366.989 0 01-40.75 24.36c-68.942 35.5-142.055 48.15-218.882 39.63-35.488-3.94-69.891-12.49-103.354-24.98a505.948 505.948 0 01-76.839-36.27 570.482 570.482 0 01-57.895-38.65 606.21 606.21 0 01-58.737-50.68c-38.66-37.8-72.198-79.76-101.087-125.455-55.939-88.527-92.598-184.584-110.769-287.716-10.903-61.858-14.315-124.151-9.612-186.846a659.993 659.993 0 0124.008-135.269 567.92 567.92 0 0125.813-71.308 524.629 524.629 0 0130.126-58.744c4.136-6.874 8.464-13.636 12.889-20.329 8.175-12.361 16.875-24.343 26.231-35.848 23.597-29.057 50.285-54.841 80.628-76.806a380.3 380.3 0 01102.144-52.762c39.527-13.322 80.203-19.681 121.864-19.58 1.845.09 3.695.058 5.536-.098.873-.119 1.648-.977 2.461-1.48l.855.213-.256.445-.458-.796zm150.369 35.42c-.986-.236-1.995-.393-2.956-.697-36.348-11.876-73.526-19.098-111.777-20.458-79.165-2.807-151.689 17.858-217.573 61.997-46.399 31.212-83.883 71.245-114.378 117.933a495.428 495.428 0 00-37.94 69.954 562.703 562.703 0 00-24.815 67.086c-15.688 52.314-23.975 105.856-26.057 160.361-2.767 72.68 5.357 144.207 23.383 214.588 18.129 70.775 45.709 137.661 82.74 200.659 32.395 54.801 71.182 104.556 117.392 148.396a560.618 560.618 0 0078.977 62.87c33.13 21.67 68.085 39.79 105.508 53.01 37.225 13.14 75.414 21.52 114.896 23.6 88.89 4.69 169.045-19.63 240.465-72.98 27.01-20.16 50.73-43.77 71.89-69.96 2.54-3.09 5.61-6 6.92-10.08-1.87 1.48-3.6 3.12-5.18 4.9a396.53 396.53 0 01-30.88 31.03c-53.45 47.79-115.28 77.81-186.421 87.88-47.415 6.72-94.309 3.41-140.688-8.09a429.012 429.012 0 01-85.479-31.28 499.71 499.71 0 01-48.377-27.12 543.456 543.456 0 01-59.059-43.44c-37.049-31.26-69.724-66.694-98.545-105.669a720.56 720.56 0 01-93.042-169.87c-33.694-87.277-51.221-177.61-50.93-271.328.209-67.711 10.057-133.948 31.751-198.304a526.29 526.29 0 0125.465-62.224 455.65 455.65 0 0138.29-64.772 419.96 419.96 0 0146.44-55.178c32.747-32.549 70.033-58.44 112.511-76.717 42.351-18.214 86.553-27.358 132.541-27.977 33.062-.445 65.604 3.714 97.637 11.785 1.776.499 3.583.877 5.41 1.134.584.064 1.271-.731 1.929-1.057.626 1.12 1.35 2.085 3.411 1.97l-3.459-1.952zm-31.271 934.342A352.542 352.542 0 00921.8 1007.7c33.712 10.97 68.234 16.33 103.76 14.82 47.29-2.01 90.91-15.75 130.84-41.219 34.51-21.942 62.62-50.541 85.83-84.061 14.45-20.878 26.31-43.191 36.17-66.6a444.59 444.59 0 0026.57-87.822c9.01-45.9 11.45-92.214 8.13-138.793-5.93-84.258-28.46-163.822-67.61-238.691-21.67-41.568-48.02-79.899-79.54-114.628-25.66-28.278-54.13-53.272-86.08-74.258-26.21-17.198-54.02-31.288-83.82-41.243-29.623-9.898-59.951-15.634-91.275-15.992-61.867-.683-117.303 18.061-166.432 55.629-27.192 20.84-49.823 45.991-68.763 74.464a380.319 380.319 0 00-40.225 79.741c-14.309 39.042-22.948 79.369-26.693 120.738-6.259 69.198.592 137.219 18.642 204.145a593.906 593.906 0 0060.204 144.838c31.078 53.38 69.412 100.702 117.27 140.024a416.586 416.586 0 0054.603 38.076l.003-.005zm192.246-848.015c.06-.108.13-.222.19-.33-3.78-2.798-7.42-5.803-11.36-8.357-27.05-17.342-55.164-32.61-85.243-44.146-27.149-10.413-54.994-18.086-83.786-22.281-45.737-6.668-91.023-4.626-135.758 7.36-44.946 12.047-85.359 33.05-121.633 62.151-35.038 28.115-63.583 61.906-87.214 99.962-14.574 23.47-26.644 48.288-36.805 73.988a534.007 534.007 0 00-25.858 86.799c-10.274 48.963-14.277 98.473-12.765 148.433a709.212 709.212 0 0031.875 189.284c19.366 62.44 46.51 121.255 82.131 176.074 35.872 55.2 78.78 104.095 130.462 145.075a507.077 507.077 0 0050.523 35.24 440.89 440.89 0 0074.652 36.49c35.221 13.29 71.522 21.77 109.137 23.93 89.372 5.13 168.242-21.34 236.592-79.42 33.14-28.05 60.03-61.383 82.26-98.588a477.351 477.351 0 0030.37-60.661c.56-1.319.89-2.736 1.36-4.092.46-1.356.9-2.517 1.37-3.808a23.257 23.257 0 00-3.09 4.698c-4.43 8.83-8.54 17.843-13.27 26.502-15.95 29.198-34.98 56.223-57.71 80.559-23.19 24.83-49.29 45.98-78.87 62.77-51.05 28.99-105.95 42.15-164.483 40.17-53.264-1.84-103.326-16.16-150.786-39.83a452.772 452.772 0 01-74.084-46.39 543.65 543.65 0 01-55.437-48.81c-31.319-31.694-58.529-66.672-82.11-104.443a679.354 679.354 0 01-72.422-158.322c-19.399-62.238-30.067-125.92-31.203-191.196-.857-48.747 3.776-96.944 14.727-144.507 8.624-37.451 21.045-73.59 38.178-107.98 13.802-27.712 30.115-53.853 49.884-77.802a359.243 359.243 0 0156.297-55.142A312.178 312.178 0 01736 85.214c41.13-15.153 83.624-21.039 127.29-18.292 51.201 3.218 99.306 17.744 144.88 40.912 10.8 5.476 21.18 11.802 31.75 17.745 1.93 1.054 3.81 2.173 5.71 3.269zM964.667 78.9a10.715 10.715 0 00-1.524-1.495c-1.956-1.13-3.923-2.265-5.966-3.217a469.145 469.145 0 00-47.386-19.197c-37.219-12.56-75.384-20.095-114.737-21.005-88.211-2.038-166.118 25.68-233.971 82.038-35.819 29.744-64.779 65.384-88.786 105.128-10.763 17.814-20.005 36.422-28.387 55.481a525.671 525.671 0 00-21.892 59.58c-15.901 52.487-24.051 106.252-25.724 160.994-2.38 77.997 8.025 154.317 30.028 229.098 19.865 67.511 48.439 131.069 86.476 190.251 42.069 65.443 93.271 122.434 156.388 168.314a484.115 484.115 0 0052.417 33.53 469.816 469.816 0 0064.408 29.44c36.712 13.4 74.466 21.74 113.537 23.99 46.348 2.67 91.549-3.32 135.342-18.83 63.85-22.62 116.3-61.48 159.51-113.3a451.484 451.484 0 0031.31-42.837 208.625 208.625 0 0014.47-25.55 29.33 29.33 0 00-2.89 3.975 394.173 394.173 0 01-25.22 35.062c-22.23 27.78-47.59 52.24-76.83 72.68-45.43 31.78-95.62 50.99-150.56 57.65-38.528 4.57-76.742 2.2-114.613-5.96-41.306-8.91-80.09-24.43-116.896-45-27.163-15.18-52.491-33.07-76.37-52.98a572.053 572.053 0 01-71.026-70.853c-47.011-55.793-83.713-117.826-110.972-185.461-35.311-87.626-53.494-178.648-52.928-273.301.379-60.864 8.939-120.511 27.394-178.629a496.72 496.72 0 0133.003-79.744 425.873 425.873 0 0150.475-75.949c27.229-32.722 58.829-60.278 95.662-81.67 49.275-28.63 102.381-43.413 159.32-44.348 45.104-.848 88.793 7.15 131.124 22.381 8.502 3.064 16.85 6.342 25.814 9.734zm177.943 1030.15l-.37-.36a9.7 9.7 0 00-1.5.86 217.19 217.19 0 00-5.17 4.38 378.186 378.186 0 01-56.31 40.93c-70.05 41.45-145.68 57.2-226.321 48.93-54.829-5.63-106.385-22.4-155.202-47.69a532.05 532.05 0 01-74.534-46.83 603.33 603.33 0 01-63.324-54.78c-36.463-36.19-68.163-76.239-95.567-119.663-45.166-71.566-77.353-148.666-97.296-230.889a754.2 754.2 0 01-21.577-176.597c-.111-53.911 5.631-107.154 18.376-159.595 11.794-48.458 29.015-94.762 53.309-138.364 14.265-25.6 30.46-49.843 49.245-72.363a407.465 407.465 0 0171.021-67.321c49.68-36.667 105.038-59.401 166.074-68.204 33.364-4.734 66.794-4.61 100.209-.349 2.21.282 4.422.495 6.894.769-.297-.642-.354-.963-.481-.992a153.254 153.254 0 00-5.395-1.224 385.472 385.472 0 00-78.982-7.877c-80.604.334-153.783 23.901-219.536 70.702-47.397 33.794-85.359 76.413-116.142 125.583a499.642 499.642 0 00-30.366 56.533 585.66 585.66 0 00-25.631 66.136 632.55 632.55 0 00-24.202 108.876 714.944 714.944 0 00-3.284 160.079c10.45 115.445 44.398 223.482 101.845 324.114a706.351 706.351 0 00101.103 136.306c33.936 35.75 71.463 67.28 113.074 93.81a503.31 503.31 0 0096.927 48.25c42.159 15.51 85.544 24.82 130.484 26.63 63.268 2.56 123.522-9.67 180.569-37.36 39.21-19.04 73.99-44.36 105.01-74.93 2.42-2.42 4.7-5 7.05-7.5zM505.12 23.627c-2.335-.59-4.385.178-6.441.76a401.134 401.134 0 00-77.803 31.042c-70.067 36.784-125.34 89.747-169.124 155.212a532.33 532.33 0 00-39.009 69.337c-8.688 18.45-16.506 37.242-23.314 56.451a665.056 665.056 0 00-31.918 132.335c-11.151 81.413-8.698 162.526 5.84 243.268a821.627 821.627 0 0073.575 222.401c34.403 69.067 77.661 131.997 131.078 187.827a646.395 646.395 0 00109.184 91.84 553.344 553.344 0 0081.4 44.94 510.549 510.549 0 0074.144 26.65c49.78 13.56 100.445 19.02 151.995 15.07a408.024 408.024 0 0098.276-19.7 24.32 24.32 0 002.879-1.05c.733-.34 2.067-.13 2.051-1.75-2.107.49-4.098.96-6.084 1.45a421.47 421.47 0 01-87.195 12.26c-44.484 1.42-88.165-3.97-131.109-15.56a492.803 492.803 0 01-70.806-25 539.953 539.953 0 01-51.773-25.95 628.694 628.694 0 01-63.193-41.8 639.744 639.744 0 01-60.808-52.06c-39.306-37.99-73.618-80.14-103.407-125.96-51.365-78.999-87.695-164.504-109.72-256.173-15.133-62.865-22.871-126.632-22.603-191.348.328-79.629 12.373-157.299 39.13-232.487a577.585 577.585 0 0143.802-95.191 512.967 512.967 0 0151.86-74.307c26.919-31.974 57.437-59.966 92.029-83.464a422.193 422.193 0 0190.928-46.62c2.055-.764 4.093-1.614 6.136-2.424zm-77.173 24.49l-.416-1c-1.522.564-3.074 1.072-4.575 1.701a412.119 412.119 0 00-62.704 33.026c-60.626 38.827-108.706 89.991-146.781 150.833a555.482 555.482 0 00-38.453 73.166 630.871 630.871 0 00-22.947 61.21 671.533 671.533 0 00-24.254 106.34c-8.916 61.393-9.954 122.939-3.853 184.606a818.559 818.559 0 0052.688 218.852c30.127 76.95 70.735 147.809 123.012 211.869a685.777 685.777 0 0094.384 95.26 615.653 615.653 0 0052.94 39.25 567.99 567.99 0 0088.137 47.95 504.421 504.421 0 0079.279 26.79c56.297 13.87 113.161 17.43 170.664 9.1 7.12-1.03 14.198-2.43 21.251-3.67.789-.14 2.13 0 1.901-1.56a4.966 4.966 0 00-1.272-.17c-1.638.13-3.275.3-4.907.49a432.607 432.607 0 01-91.078 1.07c-64.254-6.07-124.661-25.14-181.767-54.79a584.983 584.983 0 01-78.355-48.91 659.202 659.202 0 01-59.588-49.69c-46.176-43.43-85.703-92.4-119.256-146.18a816.206 816.206 0 01-88.637-195.459c-24.415-80.28-36.665-162.305-35.819-246.312.628-55.937 7.256-111.136 20.682-165.506 12.549-50.763 30.686-99.401 55.67-145.406a530.06 530.06 0 0154.662-82.087 473.386 473.386 0 0164.013-64.923 435.247 435.247 0 0179.591-52.678c1.973-1.002 3.86-2.13 5.788-3.172zM389.46 1260.69c-2.996-1.73-5.948-3.54-8.95-5.26-16.779-9.59-33.27-19.61-49.071-30.78-15.615-11.02-30.813-22.56-45.447-34.88-38.197-32.18-72.091-68.42-102.119-108.25-53.103-70.47-92.313-148.083-118.502-232.341-23.693-76.188-35.614-154.175-34.952-234.028.503-58.925 7.948-116.878 23.444-173.797 9.428-34.617 21.483-68.258 37.158-100.567 3.138-6.486 6.394-12.912 9.527-19.363.669-1.382 1.121-2.875 1.692-4.336-1.72 1.155-2.625 2.697-3.508 4.252a556.497 556.497 0 00-34.256 71.148 607.64 607.64 0 00-28.824 94.956c-14.505 66.859-18.468 134.391-12.88 202.487a747.891 747.891 0 0076.054 273.588c39.119 78.881 90.497 148.591 156.079 207.621 14.963 13.47 30.47 26.33 46.922 37.96 10.401 7.35 20.869 14.63 31.512 21.57a358.176 358.176 0 0056.131 30.01l-.01.01zM53.765 411.539c-.4.421-.768.87-1.102 1.345-.66 1.721-1.246 3.471-1.955 5.172-7.849 19.488-13.914 39.551-19.197 59.861-15.58 59.937-22.061 120.921-20.154 182.71C15.079 781.615 46.86 894.698 106.7 999.875c46.451 81.625 106.814 151.085 183.313 205.965.992.74 2.025 1.41 3.093 2.03.835.48 1.766.8 3.618 1.61-7.911-6.36-14.961-11.98-21.968-17.66a617.766 617.766 0 01-68.308-64.82c-38.202-42-70.58-88.15-97.665-138.046a751.86 751.86 0 01-70.46-183.776c-14.426-60.074-21.54-120.997-20.71-182.838.81-60.167 8.97-119.255 25.862-177.092 3.236-11.014 6.706-21.962 10.29-33.709zm343.021 852.931c.157.11.322.2.495.28.185.05.373.07.563.08l-1.444-.83.386.47zM32.59 855.018a6.294 6.294 0 00-.06.838c.395.091.02 1.385.877.582.078-.069-.444-.78-.817-1.42zM580.641 9.836a33.62 33.62 0 00-.024-.956l-2.646.5.098.724 2.572-.268zM303.698 1214.92l-.132-.29-.372-.03.504.32zM55.734 405.767c-.133.151-.268.293-.398.438l.459.007-.062-.445zM1194.95 1044.38l.35-.01.01-.44-.36.45zm-382.753 257.68l1.288-.69c-.084-.11-.199-.35-.253-.33-.487.12-.967.28-1.45.44l.415.58zM431.549 45.725l-.35.291c.088.097.215.284.255.268a.722.722 0 00.32-.293c.02-.034-.142-.173-.225-.266zM192.182 1123.42l-.239-.44-.255.28.494.16zm381.909 190.44l.248.43.248-.3-.496-.13z" fill="url(#paint0_radial_64_5795)"/><path d="M883.408 939.552a405.336 405.336 0 01-48.756-34.366c-45.226-37.317-81.422-82.159-110.397-132.959-38.62-67.711-62.16-140.357-70.619-217.938-5.384-48.742-4.174-97.313 4.662-145.635a419.602 419.602 0 0119.716-71.92 349.409 349.409 0 0126.975-56.805c19.461-32.644 43.461-61.399 73.891-84.461 43.411-32.891 92.278-49.84 146.753-50.297 32.407-.269 63.734 5.731 94.207 16.498 25.51 9.021 49.41 21.318 71.99 36.124 29.88 19.58 56.52 42.978 80.47 69.47 37.12 41.049 66.38 87.219 88.84 137.723 31.35 70.428 47.87 144.215 48.8 221.375.55 44.665-4.73 88.639-16.71 131.759-10.38 37.356-25.72 72.506-47.15 104.836-22.32 33.682-50.02 62.114-84.55 83.425-47.16 29.099-98.43 40.518-153.47 35.211-27.643-2.619-54.158-9.577-79.817-20.011a372.932 372.932 0 01-44.835-22.029zm1.579-3.195c23.407 13.286 46.339 23.717 70.675 30.996 33.458 10.002 67.548 13.99 102.368 10.426 46.41-4.773 87.92-21.889 124.71-50.571 31.94-24.941 56.66-55.977 76.14-91.323a351.915 351.915 0 0021.29-46.557 415.772 415.772 0 0017.44-60.404c9.78-46.869 12.16-94.182 8.1-141.797a556.628 556.628 0 00-62.44-213.51 500.51 500.51 0 00-73.14-104.875c-21.67-23.783-45.57-45.045-72.09-63.266a343.652 343.652 0 00-63.76-34.725 289.336 289.336 0 00-74.856-20.002 245.524 245.524 0 00-74.306 1.815c-45.695 8.251-85.587 28.469-120.128 59.36-19.429 17.373-35.913 37.258-50.116 59.129a354.368 354.368 0 00-33.481 66.615 406.609 406.609 0 00-19.276 68.834 477.655 477.655 0 00-8.067 109.3c3.515 87.877 26.445 170.341 68.788 247.393 24.168 44.092 54.063 83.846 90.483 118.599a404.166 404.166 0 0071.666 54.563z" fill="url(#paint1_radial_64_5795)"/><path d="M916.594 898.784a370.483 370.483 0 01-69.713-53.535c-31.721-30.931-57.947-66.038-79.238-104.834-42.81-78.024-64.433-161.551-63.805-250.694.274-43.707 6.957-86.461 20.883-127.964 8.608-25.663 19.996-50.061 34.76-72.785 21.261-32.728 47.81-60.149 81.482-80.253 33.419-19.959 69.592-30.229 108.517-30.808 30.144-.498 59.3 4.941 87.57 15.059a294.435 294.435 0 0156.5 27.306 375.168 375.168 0 0175.39 62.14c35.48 37.818 63.3 80.729 84.73 127.874a507.909 507.909 0 0144 167.453c4.57 52.703.91 104.766-13.21 155.936-7.47 27.09-17.86 53.003-31.76 77.449-16.43 28.885-36.8 54.544-62.7 75.542-46.06 37.363-98.65 53.902-157.78 49.619-28.97-2.148-56.607-9.61-83.188-21.206a318.977 318.977 0 01-32.438-16.299zm-162.46-594.17c-15.468 27.16-26.671 55.819-34.34 85.88-10.47 40.993-14.249 82.63-12.452 124.799 2.872 67.67 18.737 132.148 47.595 193.433 24.084 51.499 55.934 97.581 97.176 136.94a366.768 366.768 0 0058.826 45.609 297.722 297.722 0 0038.258 19.887c26.948 11.838 54.993 19.302 84.393 21.392 47.65 3.354 91.85-7.459 132.37-32.954 27.9-17.553 50.67-40.499 69.68-67.283 12.67-17.866 22.98-37.076 31.47-57.239a363.326 363.326 0 0020.59-65.858c8.48-39.895 10.97-80.214 8.35-120.882a504.448 504.448 0 00-34.79-154.05c-17.83-45.032-41.53-86.671-71.9-124.45-22.13-27.535-47.22-51.99-75.87-72.651a311.948 311.948 0 00-61.56-34.839c-24.03-10.133-48.86-17.076-74.826-19.558-59.926-5.75-113.472 10.201-160.639 47.853-25.705 20.551-45.923 45.789-62.331 73.971z" fill="url(#paint2_radial_64_5795)"/><path d="M1243.3 779.291c-15.02 25.735-33.62 48.913-57.38 67.575-41.03 32.247-87.55 46.134-139.54 41.662-25.84-2.232-50.438-9.191-74.045-19.859a297.369 297.369 0 01-69.05-43.708c-33.551-28.169-60.908-61.592-83.087-99.244-37.409-63.489-58.336-132.079-62.781-205.769-2.425-40.306.846-80.157 10.884-119.365 7.808-30.497 19.416-59.438 36.289-86.091 17.153-27.083 38.391-50.32 65.21-68.179 36.372-24.216 76.415-34.835 119.933-32.318 27.377 1.594 53.467 8.488 78.497 19.58 37.75 16.72 70.14 40.913 98.6 70.587 32 33.392 57.08 71.524 76.45 113.473 25.93 56.178 39.95 115.217 42.06 177.118 1.26 39.947-3.07 79.264-14.17 117.751a310.882 310.882 0 01-27.87 66.787zm-147.96-528.215c-3.91-2.258-7.73-4.711-11.76-6.729-5.88-2.946-11.88-5.687-17.87-8.323a218.612 218.612 0 00-71.943-18.159c-40.54-3.067-78.487 5.55-113.503 26.329-25.847 15.36-46.954 35.901-64.528 60.169-15.813 21.836-27.598 45.793-36.411 71.193-13.555 39.061-19.481 79.39-19.455 120.635a440.876 440.876 0 0019.987 130.63c15.445 49.972 38.543 96.036 70.348 137.614 19.836 25.929 42.559 48.986 68.679 68.561a285.075 285.075 0 0054.001 31.936c24.583 11.065 50.185 18.116 77.125 20.017 43.48 3.085 83.6-7.208 120.15-31.187 21.55-14.125 39.63-31.996 54.95-52.655 15.67-21.144 27.65-44.312 36.68-68.99 12.37-33.851 18.99-68.942 20.67-104.912 3.27-69.888-9.93-136.709-37.89-200.654-19.19-43.882-44.77-83.612-77.7-118.464-21.16-22.377-44.88-41.562-71.53-57.011z" fill="url(#paint3_radial_64_5795)"/><path d="M845.851 347.333c12.567-21.767 28.071-41.072 47.653-56.937 33.733-27.339 72.274-40.03 115.626-38.072 23.44 1.098 45.85 6.776 67.36 16.059 35.67 15.402 65.89 38.344 92.11 66.77 27.14 29.426 48.4 62.718 64.62 99.254 24.85 55.955 36.77 114.508 34.46 175.834-1.26 33.321-7.19 65.8-18.91 97.076-10.11 27.013-24.08 51.853-43.35 73.49-20.05 22.533-43.92 39.58-72.45 49.764-29.6 10.568-59.85 12.225-90.55 6.335-27.98-5.355-53.78-16.407-77.639-31.837-30.512-19.726-56.176-44.686-77.973-73.691-31.789-42.328-53.49-89.46-66.278-140.753-9.772-39.197-13.594-78.974-10.69-119.333 2.119-29.705 8.024-58.628 18.38-86.607a251.61 251.61 0 0117.631-37.352zm255.589-63.09a284.643 284.643 0 00-26-12.733 194.235 194.235 0 00-58.86-15.003c-24.298-2.186-48.047.508-71.03 8.807-37.574 13.525-66.347 38.181-88.514 70.917-16.309 24.086-27.5 50.52-34.742 78.633-9.449 36.61-12.022 73.797-9.113 111.4a391.567 391.567 0 0027.463 116.658c14.382 35.717 33.403 68.73 58.079 98.342 26.766 32.109 58.02 58.626 96.261 76.294 20.496 9.474 41.866 15.822 64.386 17.923 46.52 4.329 87.83-8.381 123.94-38.129 19.63-16.156 35.05-35.846 47.38-57.951a255.746 255.746 0 0022.32-54.09c9.08-31.479 12.91-63.626 12.4-96.314-.79-48.908-10.72-95.956-29.14-141.206-16.96-41.724-40.26-79.484-71.13-112.394a289.938 289.938 0 00-63.7-51.154z" fill="url(#paint4_radial_64_5795)"/><path d="M1001.39 765.974c-26.702-15.455-48.012-34.552-66.593-56.812-22.175-26.605-39.162-56.287-51.656-88.553-16.939-43.722-24.887-88.994-22.69-135.94 1.421-30.032 7.209-59.198 18.761-87.032 10.784-25.978 25.757-49.181 47.04-67.913 33.522-29.521 72.519-41.085 116.608-34.877 26.26 3.697 50.21 13.709 72.38 28.126 38.1 24.721 66.82 58.074 88.72 97.462 31 55.772 45.5 115.624 42.47 179.546-1.21 25.627-5.85 50.665-14.57 74.834-10.01 27.843-24.42 53.082-45.96 73.721-36.71 35.177-80.19 47.726-129.97 38.321-19.97-3.795-38.52-11.484-54.54-20.883zm212.83-59.644a239.31 239.31 0 0015.97-35.816c10.37-30.116 14.66-61.155 14.03-92.869-1.1-56.055-15.63-108.476-43.17-157.218-20.51-36.255-47-67.288-81.55-91.014-20.38-14.002-42.46-24.332-66.76-29.165-50.79-10.101-94.872 3.099-131.711 39.625-19.323 19.157-32.589 42.267-42.073 67.621-8.17 21.923-12.88 44.628-14.81 67.913-6.615 79.082 18.897 163.7 68.12 225.719 18.432 23.214 39.787 43.165 65.24 58.552 22.474 13.584 46.434 22.792 72.674 25.504 33.1 3.421 63.74-3.689 91.71-21.953 22.02-14.351 38.61-33.739 52.33-56.899z" fill="url(#paint5_radial_64_5795)"/><path d="M1023.84 719.356a197.747 197.747 0 01-58.443-52.061c-39.921-52.909-58.296-112.544-55.126-178.908a200.51 200.51 0 0114.161-65.463c9.015-22.467 21.826-42.438 40.445-58.236 27.343-23.243 58.893-31.872 94.253-26.368 18.07 2.84 34.78 9.522 50.55 18.779 24.35 14.279 44.32 33.288 60.71 56.018 36.76 50.988 53.96 107.962 51.62 170.923a203.599 203.599 0 01-14.59 69.089c-8.84 21.882-21.32 41.326-39.27 56.852-29.39 25.435-63.34 33.742-101.22 26.053-16.51-3.398-28.83-8.837-43.09-16.678zm1.42-3.146c11.89 6.707 26.2 12.852 41.65 15.995 37.25 7.498 70.58-.625 99.5-25.608 17.98-15.542 30.34-35.072 39.04-56.989a199.522 199.522 0 0013.84-66.751c2.25-62.267-14.94-118.703-51.72-168.909-18.86-25.716-42.2-46.471-71.27-60.285a132.281 132.281 0 00-38.11-11.83c-34.53-4.963-65.203 3.745-91.761 26.521-18.038 15.489-30.509 34.936-39.285 56.819a196.996 196.996 0 00-13.935 64.835c-2.882 65.234 15.444 123.831 54.976 175.792 15.224 19.949 33.685 36.489 57.085 50.382l-.01.028z" fill="url(#paint6_radial_64_5795)"/><path d="M1043.28 671.759c-20.39-11.947-36.75-28.253-49.871-47.772-25.379-37.675-37.211-79.271-35.496-124.787a155.104 155.104 0 0111.055-52.271c6.075-15.039 14.473-28.638 26.353-39.855 23.749-22.411 51.629-29.409 83.179-21.972 16.47 3.899 31.07 11.821 44.37 22.092 24.99 19.323 42.56 44.313 54.74 73.225 14.03 33.237 19.59 67.809 15.06 103.801-2.53 20.026-8.4 38.984-18.89 56.343-7.31 12.109-16.49 22.597-28.14 30.724-20.7 14.438-43.52 18.712-68.12 13.856-11.7-2.285-23.1-6.831-34.24-13.384zm2.52-2.457c9.63 5.372 18.87 9.525 32.02 12.105 24.68 4.829 47.4.183 67.85-14.729 10.09-7.354 18.24-16.578 24.86-27.145 11.12-17.771 17.21-37.282 19.65-57.964 4.24-35.83-1.72-70.116-16.17-102.972-10.56-24.012-25.22-45.156-45-62.529-13.92-12.219-29.49-21.632-47.49-26.517-27.69-7.522-53.38-3.377-76.5 14.107-12.002 9.086-21.074 20.755-27.994 34.053a138.245 138.245 0 00-14.894 48.733c-5.745 50.873 6.65 97.134 35.897 138.89a148.72 148.72 0 0047.771 43.968z" fill="url(#paint7_radial_64_5795)"/><path d="M1060.98 624.894c-12.97-7.654-23.5-17.929-32.03-30.219-19.9-28.637-28.38-60.346-24.56-95.135 1.61-14.709 6.16-28.514 14.32-40.979 7.16-10.923 16.45-19.428 28.61-24.477 14.13-5.88 28.46-5.715 42.78-.887 13.9 4.686 25.59 12.868 35.78 23.361 28.77 29.634 42.65 76.284 34.66 116.791-2.7 13.685-7.76 26.316-16.24 37.596-15.86 21.069-41.92 29.488-67.04 21.274-2.35-.736-4.66-1.6-6.91-2.59-3.19-1.482-6.25-3.18-9.37-4.735zm.39-3.814c5.34 3.086 10.83 5.876 16.78 7.59 19.7 5.673 37.85 2.811 53.95-10.296a66.877 66.877 0 0018.27-23.772 96.87 96.87 0 009.17-35.01c2.31-34.031-6.85-64.688-27.6-91.727-9.52-12.408-21.31-22.171-35.69-28.599-12.75-5.699-25.96-7.555-39.68-4.15-15.33 3.827-26.79 13.081-35.39 26.068-8.12 12.259-12.51 25.898-14.01 40.417-3.46 33.756 4.99 64.416 24.62 91.964 7.97 11.171 17.69 20.532 29.58 27.51v.005z" fill="url(#paint8_radial_64_5795)"/><path d="M1121.62 567.206c-2.08 2.527-4.18 5.617-6.81 8.152-7.51 7.222-16.54 9.621-26.71 7.627a38.559 38.559 0 01-20.32-10.97c-17.89-18.174-24.5-39.867-19.07-64.955a37.822 37.822 0 019.14-17.934c8.8-9.562 19.44-12.493 31.88-9.057 6.69 1.843 12.29 5.577 17.36 10.198 17.52 16.019 25.37 44.626 18.38 67.372-.94 3.091-2.42 6.057-3.85 9.567zm-23.5-80.149l-.27.355c-1.06-.614-2.08-1.325-3.19-1.844-15.52-7.017-28.3-1.346-35.61 7.681a37.263 37.263 0 00-7.65 15.976c-4.82 22.863 1.21 42.696 17.32 59.409a37.647 37.647 0 0016.18 9.8c11.3 3.49 23.23.12 30.59-8.974 3.6-4.263 6.2-9.275 7.62-14.67 5.69-23.286-.25-43.464-16.46-60.757-2.49-2.642-5.67-4.662-8.53-6.976z" fill="url(#paint9_radial_64_5795)"/></g><defs><radialGradient id="paint0_radial_64_5795" cx="0" cy="0" r="1" gradientUnits="userSpaceOnUse" gradientTransform="rotate(121.777 404.855 106.305) scale(1142.07 1166.09)"><stop stop-color="#0052CC"/><stop offset="1" stop-color="#0052CC" stop-opacity="0"/></radialGradient><radialGradient id="paint1_radial_64_5795" cx="0" cy="0" r="1" gradientUnits="userSpaceOnUse" gradientTransform="rotate(121.777 404.855 106.305) scale(1142.07 1166.09)"><stop stop-color="#0052CC"/><stop offset="1" stop-color="#0052CC" stop-opacity="0"/></radialGradient><radialGradient id="paint2_radial_64_5795" cx="0" cy="0" r="1" gradientUnits="userSpaceOnUse" gradientTransform="rotate(121.777 404.855 106.305) scale(1142.07 1166.09)"><stop stop-color="#0052CC"/><stop offset="1" stop-color="#0052CC" stop-opacity="0"/></radialGradient><radialGradient id="paint3_radial_64_5795" cx="0" cy="0" r="1" gradientUnits="userSpaceOnUse" gradientTransform="rotate(121.777 404.855 106.305) scale(1142.07 1166.09)"><stop stop-color="#0052CC"/><stop offset="1" stop-color="#0052CC" stop-opacity="0"/></radialGradient><radialGradient id="paint4_radial_64_5795" cx="0" cy="0" r="1" gradientUnits="userSpaceOnUse" gradientTransform="rotate(121.777 404.855 106.305) scale(1142.07 1166.09)"><stop stop-color="#0052CC"/><stop offset="1" stop-color="#0052CC" stop-opacity="0"/></radialGradient><radialGradient id="paint5_radial_64_5795" cx="0" cy="0" r="1" gradientUnits="userSpaceOnUse" gradientTransform="rotate(121.777 404.855 106.305) scale(1142.07 1166.09)"><stop stop-color="#0052CC"/><stop offset="1" stop-color="#0052CC" stop-opacity="0"/></radialGradient><radialGradient id="paint6_radial_64_5795" cx="0" cy="0" r="1" gradientUnits="userSpaceOnUse" gradientTransform="rotate(121.777 404.855 106.305) scale(1142.07 1166.09)"><stop stop-color="#0052CC"/><stop offset="1" stop-color="#0052CC" stop-opacity="0"/></radialGradient><radialGradient id="paint7_radial_64_5795" cx="0" cy="0" r="1" gradientUnits="userSpaceOnUse" gradientTransform="rotate(121.777 404.855 106.305) scale(1142.07 1166.09)"><stop stop-color="#0052CC"/><stop offset="1" stop-color="#0052CC" stop-opacity="0"/></radialGradient><radialGradient id="paint8_radial_64_5795" cx="0" cy="0" r="1" gradientUnits="userSpaceOnUse" gradientTransform="rotate(121.777 404.855 106.305) scale(1142.07 1166.09)"><stop stop-color="#0052CC"/><stop offset="1" stop-color="#0052CC" stop-opacity="0"/></radialGradient><radialGradient id="paint9_radial_64_5795" cx="0" cy="0" r="1" gradientUnits="userSpaceOnUse" gradientTransform="rotate(121.777 404.855 106.305) scale(1142.07 1166.09)"><stop stop-color="#0052CC"/><stop offset="1" stop-color="#0052CC" stop-opacity="0"/></radialGradient></defs></svg>